<?xml version="1.0" encoding="utf-8" standalone="no"?>
<!DOCTYPE svg PUBLIC "-//W3C//DTD SVG 1.1//EN"
  "http://www.w3.org/Graphics/SVG/1.1/DTD/svg11.dtd">
<!-- Created with matplotlib (https://matplotlib.org/) -->
<svg height="345.6pt" version="1.1" viewBox="0 0 460.8 345.6" width="460.8pt" xmlns="http://www.w3.org/2000/svg" xmlns:xlink="http://www.w3.org/1999/xlink">
 <defs>
  <style type="text/css">
*{stroke-linecap:butt;stroke-linejoin:round;}
  </style>
 </defs>
 <g id="figure_1">
  <g id="patch_1">
   <path d="M 0 345.6 
L 460.8 345.6 
L 460.8 0 
L 0 0 
z
" style="fill:#ffffff;"/>
  </g>
  <g id="axes_1">
   <g id="patch_2">
    <path d="M 57.6 307.584 
L 414.72 307.584 
L 414.72 41.472 
L 57.6 41.472 
z
" style="fill:#ffffff;"/>
   </g>
   <g id="matplotlib.axis_1">
    <g id="xtick_1">
     <g id="line2d_1">
      <defs>
       <path d="M 0 0 
L 0 3.5 
" id="m8660f6f32a" style="stroke:#000000;stroke-width:0.8;"/>
      </defs>
      <g>
       <use style="stroke:#000000;stroke-width:0.8;" x="73.832727" xlink:href="#m8660f6f32a" y="307.584"/>
      </g>
     </g>
     <g id="text_1">
      <!-- 0 -->
      <defs>
       <path d="M 31.78125 66.40625 
Q 24.171875 66.40625 20.328125 58.90625 
Q 16.5 51.421875 16.5 36.375 
Q 16.5 21.390625 20.328125 13.890625 
Q 24.171875 6.390625 31.78125 6.390625 
Q 39.453125 6.390625 43.28125 13.890625 
Q 47.125 21.390625 47.125 36.375 
Q 47.125 51.421875 43.28125 58.90625 
Q 39.453125 66.40625 31.78125 66.40625 
z
M 31.78125 74.21875 
Q 44.046875 74.21875 50.515625 64.515625 
Q 56.984375 54.828125 56.984375 36.375 
Q 56.984375 17.96875 50.515625 8.265625 
Q 44.046875 -1.421875 31.78125 -1.421875 
Q 19.53125 -1.421875 13.0625 8.265625 
Q 6.59375 17.96875 6.59375 36.375 
Q 6.59375 54.828125 13.0625 64.515625 
Q 19.53125 74.21875 31.78125 74.21875 
z
" id="DejaVuSans-48"/>
      </defs>
      <g transform="translate(70.651477 322.182437)scale(0.1 -0.1)">
       <use xlink:href="#DejaVuSans-48"/>
      </g>
     </g>
    </g>
    <g id="xtick_2">
     <g id="line2d_2">
      <g>
       <use style="stroke:#000000;stroke-width:0.8;" x="150.222032" xlink:href="#m8660f6f32a" y="307.584"/>
      </g>
     </g>
     <g id="text_2">
      <!-- 5 -->
      <defs>
       <path d="M 10.796875 72.90625 
L 49.515625 72.90625 
L 49.515625 64.59375 
L 19.828125 64.59375 
L 19.828125 46.734375 
Q 21.96875 47.46875 24.109375 47.828125 
Q 26.265625 48.1875 28.421875 48.1875 
Q 40.625 48.1875 47.75 41.5 
Q 54.890625 34.8125 54.890625 23.390625 
Q 54.890625 11.625 47.5625 5.09375 
Q 40.234375 -1.421875 26.90625 -1.421875 
Q 22.3125 -1.421875 17.546875 -0.640625 
Q 12.796875 0.140625 7.71875 1.703125 
L 7.71875 11.625 
Q 12.109375 9.234375 16.796875 8.0625 
Q 21.484375 6.890625 26.703125 6.890625 
Q 35.15625 6.890625 40.078125 11.328125 
Q 45.015625 15.765625 45.015625 23.390625 
Q 45.015625 31 40.078125 35.4375 
Q 35.15625 39.890625 26.703125 39.890625 
Q 22.75 39.890625 18.8125 39.015625 
Q 14.890625 38.140625 10.796875 36.28125 
z
" id="DejaVuSans-53"/>
      </defs>
      <g transform="translate(147.040782 322.182437)scale(0.1 -0.1)">
       <use xlink:href="#DejaVuSans-53"/>
      </g>
     </g>
    </g>
    <g id="xtick_3">
     <g id="line2d_3">
      <g>
       <use style="stroke:#000000;stroke-width:0.8;" x="226.611337" xlink:href="#m8660f6f32a" y="307.584"/>
      </g>
     </g>
     <g id="text_3">
      <!-- 10 -->
      <defs>
       <path d="M 12.40625 8.296875 
L 28.515625 8.296875 
L 28.515625 63.921875 
L 10.984375 60.40625 
L 10.984375 69.390625 
L 28.421875 72.90625 
L 38.28125 72.90625 
L 38.28125 8.296875 
L 54.390625 8.296875 
L 54.390625 0 
L 12.40625 0 
z
" id="DejaVuSans-49"/>
      </defs>
      <g transform="translate(220.248837 322.182437)scale(0.1 -0.1)">
       <use xlink:href="#DejaVuSans-49"/>
       <use x="63.623047" xlink:href="#DejaVuSans-48"/>
      </g>
     </g>
    </g>
    <g id="xtick_4">
     <g id="line2d_4">
      <g>
       <use style="stroke:#000000;stroke-width:0.8;" x="303.000642" xlink:href="#m8660f6f32a" y="307.584"/>
      </g>
     </g>
     <g id="text_4">
      <!-- 15 -->
      <g transform="translate(296.638142 322.182437)scale(0.1 -0.1)">
       <use xlink:href="#DejaVuSans-49"/>
       <use x="63.623047" xlink:href="#DejaVuSans-53"/>
      </g>
     </g>
    </g>
    <g id="xtick_5">
     <g id="line2d_5">
      <g>
       <use style="stroke:#000000;stroke-width:0.8;" x="379.389947" xlink:href="#m8660f6f32a" y="307.584"/>
      </g>
     </g>
     <g id="text_5">
      <!-- 20 -->
      <defs>
       <path d="M 19.1875 8.296875 
L 53.609375 8.296875 
L 53.609375 0 
L 7.328125 0 
L 7.328125 8.296875 
Q 12.9375 14.109375 22.625 23.890625 
Q 32.328125 33.6875 34.8125 36.53125 
Q 39.546875 41.84375 41.421875 45.53125 
Q 43.3125 49.21875 43.3125 52.78125 
Q 43.3125 58.59375 39.234375 62.25 
Q 35.15625 65.921875 28.609375 65.921875 
Q 23.96875 65.921875 18.8125 64.3125 
Q 13.671875 62.703125 7.8125 59.421875 
L 7.8125 69.390625 
Q 13.765625 71.78125 18.9375 73 
Q 24.125 74.21875 28.421875 74.21875 
Q 39.75 74.21875 46.484375 68.546875 
Q 53.21875 62.890625 53.21875 53.421875 
Q 53.21875 48.921875 51.53125 44.890625 
Q 49.859375 40.875 45.40625 35.40625 
Q 44.1875 33.984375 37.640625 27.21875 
Q 31.109375 20.453125 19.1875 8.296875 
z
" id="DejaVuSans-50"/>
      </defs>
      <g transform="translate(373.027447 322.182437)scale(0.1 -0.1)">
       <use xlink:href="#DejaVuSans-50"/>
       <use x="63.623047" xlink:href="#DejaVuSans-48"/>
      </g>
     </g>
    </g>
    <g id="text_6">
     <!-- $time (ps)$ -->
     <defs>
      <path d="M 42.28125 54.6875 
L 40.921875 47.703125 
L 23 47.703125 
L 17.1875 18.015625 
Q 16.890625 16.359375 16.75 15.234375 
Q 16.609375 14.109375 16.609375 13.484375 
Q 16.609375 10.359375 18.484375 8.9375 
Q 20.359375 7.515625 24.515625 7.515625 
L 33.59375 7.515625 
L 32.078125 0 
L 23.484375 0 
Q 15.484375 0 11.546875 3.125 
Q 7.625 6.25 7.625 12.59375 
Q 7.625 13.71875 7.765625 15.0625 
Q 7.90625 16.40625 8.203125 18.015625 
L 14.015625 47.703125 
L 6.390625 47.703125 
L 7.8125 54.6875 
L 15.28125 54.6875 
L 18.3125 70.21875 
L 27.296875 70.21875 
L 24.3125 54.6875 
z
" id="DejaVuSans-Oblique-116"/>
      <path d="M 18.3125 75.984375 
L 27.296875 75.984375 
L 25.09375 64.59375 
L 16.109375 64.59375 
z
M 14.203125 54.6875 
L 23.1875 54.6875 
L 12.5 0 
L 3.515625 0 
z
" id="DejaVuSans-Oblique-105"/>
      <path d="M 89.796875 33.015625 
L 83.40625 0 
L 74.421875 0 
L 80.71875 32.71875 
Q 81.109375 34.8125 81.296875 36.328125 
Q 81.5 37.84375 81.5 38.921875 
Q 81.5 43.3125 79.046875 45.75 
Q 76.609375 48.1875 72.21875 48.1875 
Q 65.671875 48.1875 60.546875 43.28125 
Q 55.421875 38.375 53.90625 30.515625 
L 47.90625 0 
L 38.921875 0 
L 45.3125 32.71875 
Q 45.703125 34.515625 45.890625 36.046875 
Q 46.09375 37.59375 46.09375 38.8125 
Q 46.09375 43.265625 43.65625 45.71875 
Q 41.21875 48.1875 36.921875 48.1875 
Q 30.28125 48.1875 25.140625 43.28125 
Q 20.015625 38.375 18.5 30.515625 
L 12.5 0 
L 3.515625 0 
L 14.203125 54.6875 
L 23.1875 54.6875 
L 21.484375 46.1875 
Q 25.140625 50.984375 30.046875 53.484375 
Q 34.96875 56 40.578125 56 
Q 46.53125 56 50.359375 52.875 
Q 54.203125 49.75 54.984375 44.1875 
Q 59.078125 49.953125 64.46875 52.96875 
Q 69.875 56 75.875 56 
Q 82.90625 56 86.734375 51.953125 
Q 90.578125 47.90625 90.578125 40.484375 
Q 90.578125 38.875 90.375 36.9375 
Q 90.1875 35.015625 89.796875 33.015625 
z
" id="DejaVuSans-Oblique-109"/>
      <path d="M 48.09375 32.234375 
Q 48.25 33.015625 48.3125 33.84375 
Q 48.390625 34.671875 48.390625 35.5 
Q 48.390625 41.453125 44.890625 44.921875 
Q 41.40625 48.390625 35.40625 48.390625 
Q 28.71875 48.390625 23.578125 44.15625 
Q 18.453125 39.9375 15.828125 32.171875 
z
M 55.90625 25.203125 
L 14.109375 25.203125 
Q 13.8125 23.34375 13.71875 22.265625 
Q 13.625 21.1875 13.625 20.40625 
Q 13.625 13.625 17.796875 9.90625 
Q 21.96875 6.203125 29.59375 6.203125 
Q 35.453125 6.203125 40.671875 7.515625 
Q 45.90625 8.84375 50.390625 11.375 
L 48.6875 2.484375 
Q 43.84375 0.53125 38.6875 -0.4375 
Q 33.546875 -1.421875 28.21875 -1.421875 
Q 16.84375 -1.421875 10.71875 4.015625 
Q 4.59375 9.46875 4.59375 19.484375 
Q 4.59375 28.03125 7.640625 35.375 
Q 10.6875 42.71875 16.609375 48.484375 
Q 20.40625 52.09375 25.65625 54.046875 
Q 30.90625 56 36.8125 56 
Q 46.09375 56 51.578125 50.4375 
Q 57.078125 44.875 57.078125 35.5 
Q 57.078125 33.25 56.78125 30.6875 
Q 56.5 28.125 55.90625 25.203125 
z
" id="DejaVuSans-Oblique-101"/>
      <path d="M 31 75.875 
Q 24.46875 64.65625 21.28125 53.65625 
Q 18.109375 42.671875 18.109375 31.390625 
Q 18.109375 20.125 21.3125 9.0625 
Q 24.515625 -2 31 -13.1875 
L 23.1875 -13.1875 
Q 15.875 -1.703125 12.234375 9.375 
Q 8.59375 20.453125 8.59375 31.390625 
Q 8.59375 42.28125 12.203125 53.3125 
Q 15.828125 64.359375 23.1875 75.875 
z
" id="DejaVuSans-40"/>
      <path d="M 49.609375 33.6875 
Q 49.609375 40.875 46.484375 44.671875 
Q 43.359375 48.484375 37.5 48.484375 
Q 33.5 48.484375 29.859375 46.4375 
Q 26.21875 44.390625 23.390625 40.484375 
Q 20.609375 36.625 18.9375 31.15625 
Q 17.28125 25.6875 17.28125 20.3125 
Q 17.28125 13.484375 20.40625 9.796875 
Q 23.53125 6.109375 29.296875 6.109375 
Q 33.546875 6.109375 37.1875 8.109375 
Q 40.828125 10.109375 43.40625 13.921875 
Q 46.1875 17.921875 47.890625 23.34375 
Q 49.609375 28.765625 49.609375 33.6875 
z
M 21.78125 46.390625 
Q 25.390625 51.125 30.296875 53.5625 
Q 35.203125 56 41.21875 56 
Q 49.609375 56 54.25 50.5 
Q 58.890625 45.015625 58.890625 35.109375 
Q 58.890625 27 56 19.65625 
Q 53.125 12.3125 47.703125 6.5 
Q 44.09375 2.640625 39.546875 0.609375 
Q 35.015625 -1.421875 29.984375 -1.421875 
Q 24.171875 -1.421875 20.21875 1 
Q 16.265625 3.421875 14.3125 8.203125 
L 8.6875 -20.796875 
L -0.296875 -20.796875 
L 14.40625 54.6875 
L 23.390625 54.6875 
z
" id="DejaVuSans-Oblique-112"/>
      <path d="M 50 53.078125 
L 48.296875 44.578125 
Q 44.734375 46.53125 40.765625 47.5 
Q 36.8125 48.484375 32.625 48.484375 
Q 25.53125 48.484375 21.453125 46.0625 
Q 17.390625 43.65625 17.390625 39.5 
Q 17.390625 34.671875 26.859375 32.078125 
Q 27.59375 31.890625 27.9375 31.78125 
L 30.8125 30.90625 
Q 39.796875 28.421875 42.796875 25.6875 
Q 45.796875 22.953125 45.796875 18.21875 
Q 45.796875 9.515625 38.890625 4.046875 
Q 31.984375 -1.421875 20.796875 -1.421875 
Q 16.453125 -1.421875 11.671875 -0.578125 
Q 6.890625 0.25 1.125 2 
L 2.875 11.28125 
Q 7.8125 8.734375 12.59375 7.421875 
Q 17.390625 6.109375 21.78125 6.109375 
Q 28.375 6.109375 32.5 8.9375 
Q 36.625 11.765625 36.625 16.109375 
Q 36.625 20.796875 25.78125 23.6875 
L 24.859375 23.921875 
L 21.78125 24.703125 
Q 14.9375 26.515625 11.765625 29.46875 
Q 8.59375 32.421875 8.59375 37.015625 
Q 8.59375 45.75 15.15625 50.875 
Q 21.734375 56 33.015625 56 
Q 37.453125 56 41.671875 55.265625 
Q 45.90625 54.546875 50 53.078125 
z
" id="DejaVuSans-Oblique-115"/>
      <path d="M 8.015625 75.875 
L 15.828125 75.875 
Q 23.140625 64.359375 26.78125 53.3125 
Q 30.421875 42.28125 30.421875 31.390625 
Q 30.421875 20.453125 26.78125 9.375 
Q 23.140625 -1.703125 15.828125 -13.1875 
L 8.015625 -13.1875 
Q 14.5 -2 17.703125 9.0625 
Q 20.90625 20.125 20.90625 31.390625 
Q 20.90625 42.671875 17.703125 53.65625 
Q 14.5 64.65625 8.015625 75.875 
z
" id="DejaVuSans-41"/>
     </defs>
     <g transform="translate(215.16 335.862125)scale(0.1 -0.1)">
      <use transform="translate(0 0.015625)" xlink:href="#DejaVuSans-Oblique-116"/>
      <use transform="translate(39.208984 0.015625)" xlink:href="#DejaVuSans-Oblique-105"/>
      <use transform="translate(66.992188 0.015625)" xlink:href="#DejaVuSans-Oblique-109"/>
      <use transform="translate(164.404297 0.015625)" xlink:href="#DejaVuSans-Oblique-101"/>
      <use transform="translate(225.927734 0.015625)" xlink:href="#DejaVuSans-40"/>
      <use transform="translate(264.941406 0.015625)" xlink:href="#DejaVuSans-Oblique-112"/>
      <use transform="translate(328.417969 0.015625)" xlink:href="#DejaVuSans-Oblique-115"/>
      <use transform="translate(380.517578 0.015625)" xlink:href="#DejaVuSans-41"/>
     </g>
    </g>
   </g>
   <g id="matplotlib.axis_2">
    <g id="ytick_1">
     <g id="line2d_6">
      <defs>
       <path d="M 0 0 
L -3.5 0 
" id="mc291f59576" style="stroke:#000000;stroke-width:0.8;"/>
      </defs>
      <g>
       <use style="stroke:#000000;stroke-width:0.8;" x="57.6" xlink:href="#mc291f59576" y="266.12361"/>
      </g>
     </g>
     <g id="text_7">
      <!-- −10.55 -->
      <defs>
       <path d="M 10.59375 35.5 
L 73.1875 35.5 
L 73.1875 27.203125 
L 10.59375 27.203125 
z
" id="DejaVuSans-8722"/>
       <path d="M 10.6875 12.40625 
L 21 12.40625 
L 21 0 
L 10.6875 0 
z
" id="DejaVuSans-46"/>
      </defs>
      <g transform="translate(13.592188 269.922829)scale(0.1 -0.1)">
       <use xlink:href="#DejaVuSans-8722"/>
       <use x="83.789062" xlink:href="#DejaVuSans-49"/>
       <use x="147.412109" xlink:href="#DejaVuSans-48"/>
       <use x="211.035156" xlink:href="#DejaVuSans-46"/>
       <use x="242.822266" xlink:href="#DejaVuSans-53"/>
       <use x="306.445312" xlink:href="#DejaVuSans-53"/>
      </g>
     </g>
    </g>
    <g id="ytick_2">
     <g id="line2d_7">
      <g>
       <use style="stroke:#000000;stroke-width:0.8;" x="57.6" xlink:href="#mc291f59576" y="211.76323"/>
      </g>
     </g>
     <g id="text_8">
      <!-- −10.50 -->
      <g transform="translate(13.592188 215.562448)scale(0.1 -0.1)">
       <use xlink:href="#DejaVuSans-8722"/>
       <use x="83.789062" xlink:href="#DejaVuSans-49"/>
       <use x="147.412109" xlink:href="#DejaVuSans-48"/>
       <use x="211.035156" xlink:href="#DejaVuSans-46"/>
       <use x="242.822266" xlink:href="#DejaVuSans-53"/>
       <use x="306.445312" xlink:href="#DejaVuSans-48"/>
      </g>
     </g>
    </g>
    <g id="ytick_3">
     <g id="line2d_8">
      <g>
       <use style="stroke:#000000;stroke-width:0.8;" x="57.6" xlink:href="#mc291f59576" y="157.402849"/>
      </g>
     </g>
     <g id="text_9">
      <!-- −10.45 -->
      <defs>
       <path d="M 37.796875 64.3125 
L 12.890625 25.390625 
L 37.796875 25.390625 
z
M 35.203125 72.90625 
L 47.609375 72.90625 
L 47.609375 25.390625 
L 58.015625 25.390625 
L 58.015625 17.1875 
L 47.609375 17.1875 
L 47.609375 0 
L 37.796875 0 
L 37.796875 17.1875 
L 4.890625 17.1875 
L 4.890625 26.703125 
z
" id="DejaVuSans-52"/>
      </defs>
      <g transform="translate(13.592188 161.202068)scale(0.1 -0.1)">
       <use xlink:href="#DejaVuSans-8722"/>
       <use x="83.789062" xlink:href="#DejaVuSans-49"/>
       <use x="147.412109" xlink:href="#DejaVuSans-48"/>
       <use x="211.035156" xlink:href="#DejaVuSans-46"/>
       <use x="242.822266" xlink:href="#DejaVuSans-52"/>
       <use x="306.445312" xlink:href="#DejaVuSans-53"/>
      </g>
     </g>
    </g>
    <g id="ytick_4">
     <g id="line2d_9">
      <g>
       <use style="stroke:#000000;stroke-width:0.8;" x="57.6" xlink:href="#mc291f59576" y="103.042469"/>
      </g>
     </g>
     <g id="text_10">
      <!-- −10.40 -->
      <g transform="translate(13.592188 106.841688)scale(0.1 -0.1)">
       <use xlink:href="#DejaVuSans-8722"/>
       <use x="83.789062" xlink:href="#DejaVuSans-49"/>
       <use x="147.412109" xlink:href="#DejaVuSans-48"/>
       <use x="211.035156" xlink:href="#DejaVuSans-46"/>
       <use x="242.822266" xlink:href="#DejaVuSans-52"/>
       <use x="306.445312" xlink:href="#DejaVuSans-48"/>
      </g>
     </g>
    </g>
    <g id="ytick_5">
     <g id="line2d_10">
      <g>
       <use style="stroke:#000000;stroke-width:0.8;" x="57.6" xlink:href="#mc291f59576" y="48.682089"/>
      </g>
     </g>
     <g id="text_11">
      <!-- −10.35 -->
      <defs>
       <path d="M 40.578125 39.3125 
Q 47.65625 37.796875 51.625 33 
Q 55.609375 28.21875 55.609375 21.1875 
Q 55.609375 10.40625 48.1875 4.484375 
Q 40.765625 -1.421875 27.09375 -1.421875 
Q 22.515625 -1.421875 17.65625 -0.515625 
Q 12.796875 0.390625 7.625 2.203125 
L 7.625 11.71875 
Q 11.71875 9.328125 16.59375 8.109375 
Q 21.484375 6.890625 26.8125 6.890625 
Q 36.078125 6.890625 40.9375 10.546875 
Q 45.796875 14.203125 45.796875 21.1875 
Q 45.796875 27.640625 41.28125 31.265625 
Q 36.765625 34.90625 28.71875 34.90625 
L 20.21875 34.90625 
L 20.21875 43.015625 
L 29.109375 43.015625 
Q 36.375 43.015625 40.234375 45.921875 
Q 44.09375 48.828125 44.09375 54.296875 
Q 44.09375 59.90625 40.109375 62.90625 
Q 36.140625 65.921875 28.71875 65.921875 
Q 24.65625 65.921875 20.015625 65.03125 
Q 15.375 64.15625 9.8125 62.3125 
L 9.8125 71.09375 
Q 15.4375 72.65625 20.34375 73.4375 
Q 25.25 74.21875 29.59375 74.21875 
Q 40.828125 74.21875 47.359375 69.109375 
Q 53.90625 64.015625 53.90625 55.328125 
Q 53.90625 49.265625 50.4375 45.09375 
Q 46.96875 40.921875 40.578125 39.3125 
z
" id="DejaVuSans-51"/>
      </defs>
      <g transform="translate(13.592188 52.481308)scale(0.1 -0.1)">
       <use xlink:href="#DejaVuSans-8722"/>
       <use x="83.789062" xlink:href="#DejaVuSans-49"/>
       <use x="147.412109" xlink:href="#DejaVuSans-48"/>
       <use x="211.035156" xlink:href="#DejaVuSans-46"/>
       <use x="242.822266" xlink:href="#DejaVuSans-51"/>
       <use x="306.445312" xlink:href="#DejaVuSans-53"/>
      </g>
     </g>
    </g>
    <g id="text_12">
     <!-- $E_{tot} (Mcal/mol)$ -->
     <defs>
      <path d="M 16.890625 72.90625 
L 62.984375 72.90625 
L 61.375 64.59375 
L 25.09375 64.59375 
L 20.90625 43.015625 
L 55.71875 43.015625 
L 54.109375 34.71875 
L 19.28125 34.71875 
L 14.203125 8.296875 
L 51.3125 8.296875 
L 49.703125 0 
L 2.6875 0 
z
" id="DejaVuSans-Oblique-69"/>
      <path d="M 25.390625 -1.421875 
Q 15.765625 -1.421875 10.171875 4.515625 
Q 4.59375 10.453125 4.59375 20.703125 
Q 4.59375 26.65625 6.515625 32.828125 
Q 8.453125 39.015625 11.53125 43.21875 
Q 16.359375 49.75 22.3125 52.875 
Q 28.265625 56 35.796875 56 
Q 45.125 56 50.859375 50.1875 
Q 56.59375 44.390625 56.59375 35.015625 
Q 56.59375 28.515625 54.6875 22.0625 
Q 52.78125 15.625 49.703125 11.375 
Q 44.921875 4.828125 38.96875 1.703125 
Q 33.015625 -1.421875 25.390625 -1.421875 
z
M 13.921875 21 
Q 13.921875 13.578125 17.015625 9.890625 
Q 20.125 6.203125 26.421875 6.203125 
Q 35.453125 6.203125 41.375 14.078125 
Q 47.3125 21.96875 47.3125 34.078125 
Q 47.3125 41.15625 44.140625 44.765625 
Q 40.96875 48.390625 34.8125 48.390625 
Q 29.734375 48.390625 25.78125 46.015625 
Q 21.828125 43.65625 18.703125 38.8125 
Q 16.40625 35.203125 15.15625 30.5625 
Q 13.921875 25.921875 13.921875 21 
z
" id="DejaVuSans-Oblique-111"/>
      <path d="M 16.890625 72.90625 
L 31.6875 72.90625 
L 40.1875 23.78125 
L 68.40625 72.90625 
L 83.59375 72.90625 
L 69.390625 0 
L 59.8125 0 
L 72.21875 63.921875 
L 43.609375 14.015625 
L 33.984375 14.015625 
L 24.703125 64.109375 
L 12.3125 0 
L 2.6875 0 
z
" id="DejaVuSans-Oblique-77"/>
      <path d="M 53.609375 52.59375 
L 51.8125 43.703125 
Q 48.578125 46.046875 44.9375 47.21875 
Q 41.3125 48.390625 37.40625 48.390625 
Q 33.109375 48.390625 29.21875 46.875 
Q 25.34375 45.359375 22.703125 42.578125 
Q 18.5 38.328125 16.203125 32.609375 
Q 13.921875 26.90625 13.921875 20.796875 
Q 13.921875 13.421875 17.609375 9.8125 
Q 21.296875 6.203125 28.8125 6.203125 
Q 32.515625 6.203125 36.6875 7.328125 
Q 40.875 8.453125 45.40625 10.6875 
L 43.703125 1.8125 
Q 39.796875 0.203125 35.671875 -0.609375 
Q 31.546875 -1.421875 27.203125 -1.421875 
Q 16.3125 -1.421875 10.453125 4.015625 
Q 4.59375 9.46875 4.59375 19.578125 
Q 4.59375 28.078125 7.640625 35.234375 
Q 10.6875 42.390625 16.703125 48.09375 
Q 20.796875 52 26.3125 54 
Q 31.84375 56 38.375 56 
Q 42.1875 56 45.9375 55.140625 
Q 49.703125 54.296875 53.609375 52.59375 
z
" id="DejaVuSans-Oblique-99"/>
      <path d="M 53.71875 31.203125 
L 47.609375 0 
L 38.625 0 
L 40.28125 8.296875 
Q 36.328125 3.421875 31.265625 1 
Q 26.21875 -1.421875 20.015625 -1.421875 
Q 13.03125 -1.421875 8.5625 2.84375 
Q 4.109375 7.125 4.109375 13.8125 
Q 4.109375 23.390625 11.75 28.953125 
Q 19.390625 34.515625 32.8125 34.515625 
L 45.3125 34.515625 
L 45.796875 36.921875 
Q 45.90625 37.3125 45.953125 37.765625 
Q 46 38.234375 46 39.203125 
Q 46 43.5625 42.453125 45.96875 
Q 38.921875 48.390625 32.515625 48.390625 
Q 28.125 48.390625 23.5 47.265625 
Q 18.890625 46.140625 14.015625 43.890625 
L 15.578125 52.203125 
Q 20.65625 54.109375 25.515625 55.046875 
Q 30.375 56 34.90625 56 
Q 44.578125 56 49.625 51.796875 
Q 54.6875 47.609375 54.6875 39.59375 
Q 54.6875 37.984375 54.4375 35.8125 
Q 54.203125 33.640625 53.71875 31.203125 
z
M 44 27.484375 
L 35.015625 27.484375 
Q 23.96875 27.484375 18.671875 24.53125 
Q 13.375 21.578125 13.375 15.375 
Q 13.375 11.078125 16.078125 8.640625 
Q 18.796875 6.203125 23.578125 6.203125 
Q 30.90625 6.203125 36.375 11.453125 
Q 41.84375 16.703125 43.609375 25.484375 
z
" id="DejaVuSans-Oblique-97"/>
      <path d="M 18.3125 75.984375 
L 27.296875 75.984375 
L 12.5 0 
L 3.515625 0 
z
" id="DejaVuSans-Oblique-108"/>
      <path d="M 25.390625 72.90625 
L 33.6875 72.90625 
L 8.296875 -9.28125 
L 0 -9.28125 
z
" id="DejaVuSans-47"/>
     </defs>
     <g transform="translate(7.5125 209.178)rotate(-90)scale(0.1 -0.1)">
      <use transform="translate(0 0.015625)" xlink:href="#DejaVuSans-Oblique-69"/>
      <use transform="translate(63.183594 -16.390625)scale(0.7)" xlink:href="#DejaVuSans-Oblique-116"/>
      <use transform="translate(90.629883 -16.390625)scale(0.7)" xlink:href="#DejaVuSans-Oblique-111"/>
      <use transform="translate(133.457031 -16.390625)scale(0.7)" xlink:href="#DejaVuSans-Oblique-116"/>
      <use transform="translate(163.637695 0.015625)" xlink:href="#DejaVuSans-40"/>
      <use transform="translate(202.651367 0.015625)" xlink:href="#DejaVuSans-Oblique-77"/>
      <use transform="translate(288.930664 0.015625)" xlink:href="#DejaVuSans-Oblique-99"/>
      <use transform="translate(343.911133 0.015625)" xlink:href="#DejaVuSans-Oblique-97"/>
      <use transform="translate(405.19043 0.015625)" xlink:href="#DejaVuSans-Oblique-108"/>
      <use transform="translate(432.973633 0.015625)" xlink:href="#DejaVuSans-47"/>
      <use transform="translate(466.665039 0.015625)" xlink:href="#DejaVuSans-Oblique-109"/>
      <use transform="translate(564.077148 0.015625)" xlink:href="#DejaVuSans-Oblique-111"/>
      <use transform="translate(625.258789 0.015625)" xlink:href="#DejaVuSans-Oblique-108"/>
      <use transform="translate(653.041992 0.015625)" xlink:href="#DejaVuSans-41"/>
     </g>
    </g>
   </g>
   <g id="line2d_11">
    <path clip-path="url(#p231226b101)" d="M 73.832727 87.521493 
L 73.985506 87.728063 
L 74.291063 89.548048 
L 74.749399 92.821631 
L 75.054956 94.560076 
L 75.360513 98.021745 
L 75.666071 105.400623 
L 76.124406 126.925159 
L 76.735521 172.449803 
L 77.193857 200.366032 
L 77.499414 208.615764 
L 77.804971 211.444678 
L 77.95775 211.656683 
L 78.110528 211.057632 
L 78.263307 209.818215 
L 78.568864 204.265846 
L 79.0272 191.403093 
L 80.249429 152.423439 
L 81.013322 137.416712 
L 81.318879 135.518448 
L 81.777215 134.388839 
L 82.082772 132.802603 
L 82.388329 129.564899 
L 82.846665 123.821181 
L 82.999444 123.071008 
L 83.152222 123.04274 
L 83.45778 124.711604 
L 84.52723 133.635404 
L 84.832787 142.314582 
L 85.138344 157.489826 
L 85.749459 207.691637 
L 86.207795 238.92385 
L 86.66613 254.951464 
L 86.971688 258.14568 
L 87.124466 258.09893 
L 87.277245 256.942142 
L 87.582802 250.140571 
L 88.041138 231.945064 
L 89.568924 154.931627 
L 90.180039 138.494135 
L 90.332817 136.66219 
L 90.485596 136.228394 
L 91.707825 141.361101 
L 92.318939 147.498388 
L 92.624496 152.990961 
L 93.693947 175.429839 
L 94.152282 178.552299 
L 94.916175 182.107468 
L 95.068954 182.007445 
L 95.374511 177.885841 
L 95.680068 170.176452 
L 96.59674 140.329341 
L 97.207855 127.889512 
L 97.513412 123.809222 
L 97.971748 111.80645 
L 99.499534 66.851503 
L 99.95787 57.954883 
L 100.110648 56.719815 
L 100.263427 56.984006 
L 100.416205 58.58655 
L 100.721763 65.385947 
L 101.02732 78.250874 
L 101.485656 109.366756 
L 102.09677 155.962299 
L 102.555106 175.919082 
L 103.013442 187.579384 
L 103.318999 191.707511 
L 104.082892 196.465131 
L 104.235671 197.310979 
L 104.388449 197.393607 
L 104.694006 196.528189 
L 104.846785 195.813894 
L 104.999564 194.388565 
L 105.305121 187.525023 
L 105.610678 176.861691 
L 106.069014 151.816777 
L 106.680128 116.499925 
L 106.985686 105.876819 
L 107.291243 101.725861 
L 107.5968 100.422299 
L 107.749579 100.134189 
L 107.902357 100.25052 
L 108.360693 102.083552 
L 108.66625 105.773535 
L 110.194036 136.538248 
L 111.110708 160.218717 
L 111.569044 166.594103 
L 111.874601 167.845478 
L 112.02738 167.543235 
L 112.180158 166.990933 
L 112.485716 164.376199 
L 112.944051 156.896211 
L 113.249609 152.195125 
L 113.555166 149.933733 
L 114.16628 147.247243 
L 114.471837 145.788211 
L 114.624616 145.727327 
L 114.930173 146.707988 
L 115.23573 148.772595 
L 115.694066 153.749832 
L 116.152402 159.896904 
L 116.763517 164.123967 
L 117.221852 165.623226 
L 117.52741 168.240135 
L 118.749639 185.506079 
L 119.055196 195.938923 
L 119.513532 220.032531 
L 120.430203 274.355946 
L 120.888539 288.874516 
L 121.041318 290.659711 
L 121.194096 291.064152 
L 121.346875 289.805166 
L 121.652432 280.929203 
L 122.110768 257.218292 
L 123.180218 195.093075 
L 124.09689 158.648789 
L 125.013561 135.225989 
L 125.471897 130.816275 
L 125.777455 129.036516 
L 126.083012 127.846024 
L 126.388569 125.435684 
L 127.305241 114.662544 
L 127.763576 111.820583 
L 128.069134 109.477651 
L 128.374691 103.802427 
L 130.208034 57.113384 
L 130.513591 54.227935 
L 130.66637 53.568 
L 130.819149 53.581046 
L 130.971927 54.350789 
L 131.277484 58.681137 
L 131.583042 66.374218 
L 132.041378 86.263594 
L 133.110828 144.443335 
L 134.333057 184.004645 
L 134.791393 193.943897 
L 134.944171 195.607325 
L 135.09695 195.886737 
L 135.402507 194.898465 
L 135.860843 192.483777 
L 136.1664 188.044709 
L 136.624736 176.546401 
L 137.083072 158.605301 
L 137.846965 129.308318 
L 138.458079 111.709688 
L 138.763636 108.768792 
L 138.916415 108.07624 
L 139.069194 108.281723 
L 139.833087 112.689262 
L 139.985865 113.08718 
L 140.138644 112.805594 
L 140.749758 110.722504 
L 140.902537 111.145427 
L 141.208094 115.106125 
L 141.819209 123.449356 
L 142.277544 127.643803 
L 142.73588 130.345514 
L 143.041437 131.91979 
L 143.346995 135.714145 
L 143.958109 147.394016 
L 145.027559 180.129837 
L 146.555345 239.822971 
L 146.860903 245.899374 
L 147.16646 248.588038 
L 147.319239 249.172956 
L 147.472017 249.014224 
L 147.624796 247.87483 
L 147.777574 245.391648 
L 148.083132 233.653068 
L 148.388689 210.634708 
L 149.152582 142.127583 
L 149.610918 123.750512 
L 150.069253 114.405963 
L 150.374811 113.10675 
L 150.527589 113.65579 
L 151.291482 120.218175 
L 152.208154 136.320807 
L 152.819268 154.320616 
L 155.110948 221.807941 
L 155.874841 238.027991 
L 156.180398 239.93604 
L 156.333176 239.933866 
L 156.485955 239.222832 
L 156.791512 235.516541 
L 157.09707 228.143099 
L 157.402627 216.070746 
L 158.16652 171.116886 
L 158.930413 124.380006 
L 159.388749 108.834024 
L 159.694306 102.398842 
L 159.999863 100.163543 
L 160.152642 100.329886 
L 160.458199 103.139231 
L 161.222092 115.351834 
L 161.527649 122.570892 
L 163.055435 172.682465 
L 163.66655 184.186209 
L 164.124886 188.481766 
L 164.277664 189.12648 
L 164.430443 188.473068 
L 164.736 183.225117 
L 165.041557 171.72681 
L 165.652672 134.045281 
L 166.416565 91.191906 
L 166.874901 75.824227 
L 167.333236 67.083078 
L 167.486015 65.998045 
L 167.638794 65.777341 
L 167.791572 66.400311 
L 168.097129 70.363183 
L 168.402687 78.496583 
L 168.861022 99.187231 
L 169.930473 151.565632 
L 170.388809 160.550315 
L 170.999923 166.840899 
L 171.611037 170.923363 
L 171.916595 173.135831 
L 172.222152 174.723154 
L 172.37493 174.589427 
L 172.527709 173.997986 
L 172.833266 170.813555 
L 173.291602 164.941547 
L 173.597159 163.520567 
L 173.749938 163.482514 
L 173.902717 163.658642 
L 174.819388 165.959173 
L 174.972167 165.681935 
L 175.124945 165.754778 
L 175.277724 166.701736 
L 175.583281 171.783344 
L 176.499953 196.074824 
L 176.958289 206.655528 
L 177.263846 210.318331 
L 177.416625 210.649929 
L 177.569403 210.221569 
L 177.722182 209.168065 
L 178.027739 204.049492 
L 178.333296 194.530989 
L 178.791632 172.186698 
L 180.013861 109.521139 
L 180.624975 91.746382 
L 181.23609 80.029546 
L 181.388868 78.952123 
L 181.541647 78.719461 
L 181.694426 79.526169 
L 181.999983 82.832367 
L 182.30554 87.809603 
L 182.916655 105.65068 
L 183.37499 123.908158 
L 183.986105 162.873678 
L 184.444441 189.210195 
L 184.902776 203.172115 
L 185.208334 205.905355 
L 185.361112 205.671605 
L 185.513891 204.655066 
L 185.819448 200.553032 
L 186.277784 189.589631 
L 186.73612 178.378346 
L 187.347234 164.892623 
L 188.263906 137.696124 
L 190.097249 84.016336 
L 190.250028 82.944349 
L 190.402806 82.735606 
L 190.555585 83.260727 
L 190.708364 84.285964 
L 191.013921 88.584783 
L 191.472257 98.308767 
L 192.083371 117.262057 
L 193.611157 161.270047 
L 193.916714 164.588204 
L 194.069493 165.213349 
L 194.680607 165.873284 
L 194.833386 165.593872 
L 195.138943 163.630375 
L 195.597279 159.222835 
L 195.902836 156.2852 
L 196.208394 155.458922 
L 196.361172 154.243424 
L 196.972287 144.224806 
L 197.277844 135.794598 
L 198.652851 91.541987 
L 198.958409 87.509534 
L 199.111187 86.561489 
L 199.263966 86.410367 
L 199.87508 87.475831 
L 200.180637 87.486703 
L 200.333416 88.415178 
L 200.486195 90.460216 
L 200.791752 98.861069 
L 201.250088 120.810703 
L 202.319538 184.75808 
L 202.930652 203.673318 
L 203.541767 215.853305 
L 203.847324 219.625915 
L 204.000103 220.438059 
L 204.152881 220.338036 
L 204.916774 215.020504 
L 205.222332 211.898043 
L 205.527889 205.049723 
L 205.986225 187.682668 
L 206.44456 160.121956 
L 207.208453 101.639971 
L 207.666789 84.794777 
L 207.972347 80.129569 
L 208.125125 79.539215 
L 208.277904 80.166534 
L 208.73624 84.469702 
L 210.111247 106.196458 
L 210.569583 112.02063 
L 211.027919 122.841607 
L 211.639033 143.366999 
L 212.097369 166.038539 
L 212.708483 196.31401 
L 213.166819 210.050878 
L 213.625155 217.845069 
L 213.777934 218.655039 
L 213.930712 218.499568 
L 214.23627 216.90246 
L 214.541827 213.770215 
L 215.000163 206.353285 
L 215.458498 194.198304 
L 215.764056 181.971567 
L 216.069613 160.855821 
L 216.986284 73.260591 
L 217.291842 61.656825 
L 217.44462 59.496543 
L 217.597399 59.239962 
L 217.750178 60.406536 
L 218.055735 66.298114 
L 218.514071 82.20831 
L 220.194635 159.826235 
L 220.652971 172.53243 
L 221.111307 180.149407 
L 222.027979 189.116695 
L 222.333536 190.09192 
L 222.639093 189.476561 
L 222.791872 189.123218 
L 223.250207 189.136265 
L 223.402986 189.528747 
L 224.014101 192.264161 
L 224.166879 192.69687 
L 224.319658 192.740358 
L 224.472436 192.448987 
L 224.777994 190.859489 
L 225.083551 186.339967 
L 225.389108 177.04108 
L 225.847444 153.596536 
L 226.764116 106.654173 
L 227.222451 91.27236 
L 228.44468 62.010167 
L 228.750237 58.119051 
L 229.361352 54.984632 
L 229.51413 54.781324 
L 229.666909 55.080306 
L 229.819688 55.959857 
L 230.125245 61.476348 
L 230.430802 72.52129 
L 230.889138 98.731691 
L 232.264145 188.201266 
L 232.569703 197.212043 
L 232.87526 200.771561 
L 233.028039 201.170566 
L 233.180817 200.683497 
L 233.486374 198.2101 
L 233.791932 192.423981 
L 234.250267 179.287251 
L 235.166939 143.877987 
L 236.236389 101.573652 
L 236.541947 97.053043 
L 236.694725 96.1898 
L 236.847504 96.567061 
L 237.000282 97.981518 
L 237.30584 104.428659 
L 237.916954 126.685973 
L 238.528068 148.045254 
L 239.750297 181.346422 
L 240.666969 193.951507 
L 240.972526 198.422105 
L 241.278083 200.42148 
L 241.583641 200.908549 
L 241.889198 200.897677 
L 242.500312 199.843085 
L 242.653091 199.857219 
L 242.958648 200.042044 
L 243.111427 199.65826 
L 243.569763 197.08484 
L 243.722541 197.064183 
L 243.87532 197.36099 
L 244.028098 197.156595 
L 244.180877 195.807371 
L 244.486434 189.34066 
L 244.791991 179.519914 
L 245.403106 146.182867 
L 246.472556 85.684113 
L 246.930892 76.151476 
L 247.236449 74.122747 
L 247.389228 74.527188 
L 247.542006 75.500239 
L 247.847564 80.219807 
L 248.458678 94.979738 
L 250.139243 139.542203 
L 250.903136 165.826534 
L 251.819807 210.846714 
L 252.583701 244.005458 
L 253.042036 258.575127 
L 253.347594 263.344707 
L 253.500372 264.089444 
L 253.653151 263.851346 
L 253.805929 262.130296 
L 254.111487 253.439159 
L 254.417044 237.172359 
L 255.028158 181.317068 
L 255.486494 147.783237 
L 255.94483 131.16853 
L 256.403166 122.66113 
L 256.861502 117.04679 
L 257.167059 115.019148 
L 257.319837 114.715817 
L 257.625395 116.5445 
L 258.08373 121.910957 
L 258.847624 135.484744 
L 260.069852 159.838194 
L 260.680967 175.862547 
L 261.597639 208.094991 
L 262.667089 252.433492 
L 263.125425 264.466705 
L 263.430982 266.356272 
L 263.58376 265.812668 
L 263.889318 260.218985 
L 264.194875 247.756325 
L 264.653211 217.369959 
L 265.569882 152.807223 
L 265.87544 143.514859 
L 266.333775 136.674149 
L 266.486554 135.57607 
L 266.639333 135.376023 
L 266.792111 135.841348 
L 267.250447 139.454139 
L 267.861561 147.291819 
L 268.472676 156.321078 
L 269.236569 170.572195 
L 269.389348 171.016863 
L 269.542126 170.852695 
L 269.847683 169.153389 
L 270.153241 166.387533 
L 270.611576 158.665097 
L 271.069912 147.209191 
L 271.833805 118.129649 
L 272.597698 93.062991 
L 273.056034 84.302272 
L 273.667149 78.880367 
L 273.819927 78.340025 
L 273.972706 78.929292 
L 274.278263 82.032182 
L 274.58382 89.204491 
L 274.889378 104.431921 
L 275.500492 151.687399 
L 276.111606 189.211282 
L 276.722721 211.495777 
L 277.028278 219.451962 
L 277.94495 231.565629 
L 278.097728 231.911361 
L 278.250507 231.70914 
L 278.556064 229.691283 
L 279.0144 221.719877 
L 279.319957 213.309239 
L 280.08385 180.953941 
L 280.694965 151.966811 
L 281.153301 139.661796 
L 282.069972 123.581995 
L 282.681087 121.003139 
L 282.833865 121.46194 
L 282.986644 123.066659 
L 283.292201 130.746693 
L 283.750537 150.393622 
L 284.208873 185.552829 
L 284.819987 236.80597 
L 285.125544 250.069902 
L 285.431102 254.699232 
L 285.58388 255.607051 
L 285.736659 255.713597 
L 285.889437 254.893842 
L 286.194995 249.135991 
L 286.806109 228.214855 
L 287.875559 181.486672 
L 289.708903 125.473737 
L 290.625574 109.356971 
L 290.931132 107.199951 
L 291.08391 106.922713 
L 291.236689 107.819659 
L 291.542246 112.605547 
L 292.15336 127.463326 
L 294.292261 206.945813 
L 296.125604 289.842131 
L 296.431161 294.664984 
L 296.58394 295.488 
L 296.736719 295.25425 
L 296.889497 294.078979 
L 297.042276 291.578401 
L 297.347833 280.495407 
L 297.806169 248.621742 
L 298.417283 205.579193 
L 298.875619 186.790071 
L 299.639512 166.091813 
L 300.097848 160.482909 
L 301.01452 150.851336 
L 301.625634 145.789298 
L 302.08397 141.234985 
L 302.389527 136.03161 
L 303.611756 108.143647 
L 303.917313 104.511287 
L 304.070092 103.918759 
L 304.222871 105.169047 
L 304.528428 113.443784 
L 304.833985 127.819931 
L 306.208993 206.733807 
L 306.667328 221.507871 
L 306.972886 224.930401 
L 307.125664 225.159802 
L 307.278443 223.961699 
L 307.584 218.333225 
L 308.65345 190.060391 
L 309.264565 162.524684 
L 309.875679 134.763925 
L 310.486794 119.0092 
L 310.945129 111.670549 
L 311.250687 110.193034 
L 311.403465 109.855999 
L 311.556244 109.883179 
L 311.709022 110.463748 
L 312.01458 113.027384 
L 312.931251 125.264993 
L 313.847923 139.947731 
L 314.459037 149.248792 
L 315.22293 168.876151 
L 315.681266 184.178598 
L 316.292381 216.490408 
L 317.361831 278.509079 
L 317.820167 292.94937 
L 317.972945 294.322513 
L 318.125724 294.541042 
L 318.278503 293.889805 
L 318.58406 288.804935 
L 318.889617 280.362768 
L 319.347953 259.881951 
L 320.417403 209.440954 
L 321.334075 189.380887 
L 322.250747 170.596114 
L 322.861861 156.672246 
L 323.472975 142.836442 
L 323.931311 135.672831 
L 324.236868 133.376649 
L 324.542426 132.590597 
L 324.695204 132.497098 
L 324.847983 132.721062 
L 325.000761 133.857194 
L 325.306319 139.40304 
L 325.917433 159.679462 
L 326.834105 200.283405 
L 327.292441 217.731999 
L 328.056334 234.988158 
L 328.820227 249.598054 
L 328.973005 250.328658 
L 329.125784 249.910083 
L 329.431341 245.206823 
L 329.736898 234.120567 
L 330.195234 200.333416 
L 330.959127 142.832093 
L 331.570242 115.120258 
L 332.028578 100.996345 
L 332.792471 87.382331 
L 333.098028 83.263988 
L 333.250806 82.27463 
L 333.709142 81.631003 
L 333.861921 81.123277 
L 334.014699 81.142846 
L 334.167478 82.074583 
L 334.473035 87.090959 
L 334.931371 99.901526 
L 335.542486 126.754467 
L 337.070272 198.407971 
L 337.528607 206.616389 
L 337.834165 208.590758 
L 337.986943 208.492909 
L 338.292501 206.010814 
L 339.820287 188.86555 
L 340.431401 185.114684 
L 340.736958 184.076401 
L 341.042516 182.191183 
L 341.65363 175.741867 
L 342.111966 166.262504 
L 342.72308 153.14317 
L 343.334195 145.530542 
L 344.709202 123.321065 
L 344.861981 122.777462 
L 345.014759 123.12863 
L 345.167538 123.883152 
L 345.320317 123.838576 
L 345.625874 123.032955 
L 345.931431 120.791133 
L 346.389767 115.402932 
L 347.15366 102.002012 
L 347.306439 101.437751 
L 347.611996 101.803053 
L 347.764774 101.92482 
L 347.917553 101.803053 
L 348.070332 102.521697 
L 348.375889 107.334765 
L 348.681446 115.580147 
L 349.139782 136.841579 
L 350.056453 184.315586 
L 350.514789 196.893491 
L 350.973125 204.453933 
L 351.125904 205.223676 
L 351.278682 205.006234 
L 351.58424 203.877713 
L 351.889797 201.249932 
L 352.195354 196.369457 
L 352.500911 187.374989 
L 352.959247 167.247514 
L 354.181476 108.205618 
L 355.098148 79.948005 
L 355.403705 75.405652 
L 355.862041 72.999662 
L 356.625934 67.628856 
L 356.778712 67.649513 
L 356.931491 67.86478 
L 357.389827 67.218979 
L 357.542605 67.351618 
L 357.695384 68.463831 
L 358.000941 73.252981 
L 359.070391 99.784108 
L 359.834284 123.795088 
L 360.445399 142.847314 
L 360.903735 149.652146 
L 361.820406 159.328294 
L 362.431521 166.024406 
L 362.889857 172.306291 
L 363.042635 173.20215 
L 363.195414 173.188017 
L 363.348193 172.531343 
L 363.65375 169.508906 
L 364.112086 163.010666 
L 364.7232 152.516938 
L 365.181536 132.626475 
L 366.403765 66.403573 
L 366.709322 58.643085 
L 367.014879 56.352339 
L 367.167658 56.725251 
L 367.320436 57.938575 
L 367.625994 63.672507 
L 368.084329 80.28504 
L 368.695444 110.84862 
L 369.612116 154.654389 
L 370.070451 164.079391 
L 370.528787 168.785913 
L 370.987123 171.972519 
L 371.139902 172.129076 
L 371.29268 171.719199 
L 371.598237 169.54261 
L 371.903795 166.013534 
L 372.514909 154.776156 
L 374.195474 117.788266 
L 374.806588 111.182393 
L 374.959367 111.153038 
L 375.112145 111.844502 
L 375.417703 117.940475 
L 375.72326 132.051343 
L 376.334374 180.186372 
L 376.945489 221.315436 
L 377.403825 241.237428 
L 377.86216 251.882277 
L 378.014939 253.459816 
L 378.167718 253.774019 
L 378.320496 253.106473 
L 378.778832 247.283389 
L 379.237168 235.924244 
L 379.848282 212.768897 
L 381.376068 142.986477 
L 381.681626 137.816804 
L 382.445519 129.349632 
L 382.903855 121.083592 
L 383.209412 118.74827 
L 383.36219 118.856991 
L 383.667748 120.625878 
L 384.126083 123.986437 
L 384.278862 124.405011 
L 384.431641 125.298696 
L 384.737198 129.583381 
L 385.195534 141.558973 
L 385.65387 158.112796 
L 386.112205 181.268144 
L 387.639991 273.999342 
L 387.945549 277.397953 
L 388.098327 276.596681 
L 388.403884 271.854281 
L 388.86222 259.130691 
L 389.626113 230.652375 
L 390.848342 178.204393 
L 391.459457 157.53875 
L 392.376128 138.726797 
L 393.445579 119.662612 
L 394.209472 114.270062 
L 394.515029 112.182624 
L 394.820586 111.484636 
L 394.973365 111.392224 
L 395.431701 112.090211 
L 395.737258 111.935827 
L 395.890036 112.677303 
L 396.195594 117.301197 
L 396.653929 126.998002 
L 396.959487 139.194296 
L 397.876158 186.013805 
L 398.334494 198.815674 
L 398.487273 200.185556 
L 398.487273 200.185556 
" style="fill:none;stroke:#1f77b4;stroke-linecap:square;stroke-width:1.5;"/>
   </g>
   <g id="patch_3">
    <path d="M 57.6 307.584 
L 57.6 41.472 
" style="fill:none;stroke:#000000;stroke-linecap:square;stroke-linejoin:miter;stroke-width:0.8;"/>
   </g>
   <g id="patch_4">
    <path d="M 414.72 307.584 
L 414.72 41.472 
" style="fill:none;stroke:#000000;stroke-linecap:square;stroke-linejoin:miter;stroke-width:0.8;"/>
   </g>
   <g id="patch_5">
    <path d="M 57.6 307.584 
L 414.72 307.584 
" style="fill:none;stroke:#000000;stroke-linecap:square;stroke-linejoin:miter;stroke-width:0.8;"/>
   </g>
   <g id="patch_6">
    <path d="M 57.6 41.472 
L 414.72 41.472 
" style="fill:none;stroke:#000000;stroke-linecap:square;stroke-linejoin:miter;stroke-width:0.8;"/>
   </g>
   <g id="text_13">
    <!-- $E_{tot}(t); C_v = 2.92 (KJ/K/kg)$ -->
    <defs>
     <path d="M 11.71875 51.703125 
L 22.015625 51.703125 
L 22.015625 39.3125 
L 11.71875 39.3125 
z
M 11.71875 12.40625 
L 22.015625 12.40625 
L 22.015625 4 
L 14.015625 -11.625 
L 7.71875 -11.625 
L 11.71875 4 
z
" id="DejaVuSans-59"/>
     <path d="M 69.484375 67.28125 
L 67.484375 56.890625 
Q 62.796875 61.625 57.546875 63.921875 
Q 52.296875 66.21875 46.1875 66.21875 
Q 37.84375 66.21875 31.515625 62.203125 
Q 25.203125 58.203125 20.609375 50 
Q 17.671875 44.734375 16.125 38.84375 
Q 14.59375 32.953125 14.59375 27 
Q 14.59375 17.046875 19.75 11.8125 
Q 24.90625 6.59375 34.71875 6.59375 
Q 41.5 6.59375 47.75 8.765625 
Q 54 10.9375 59.90625 15.28125 
L 57.625 3.609375 
Q 51.8125 1.125 45.875 -0.140625 
Q 39.9375 -1.421875 33.984375 -1.421875 
Q 19.96875 -1.421875 12.078125 6.1875 
Q 4.203125 13.8125 4.203125 27.390625 
Q 4.203125 36.078125 7.203125 44.46875 
Q 10.203125 52.875 15.828125 59.8125 
Q 21.78125 67.1875 29.421875 70.703125 
Q 37.0625 74.21875 47.21875 74.21875 
Q 53.46875 74.21875 59.0625 72.484375 
Q 64.65625 70.75 69.484375 67.28125 
z
" id="DejaVuSans-Oblique-67"/>
     <path d="M 7.171875 54.6875 
L 16.703125 54.6875 
L 24.703125 8.203125 
L 50.875 54.6875 
L 60.40625 54.6875 
L 29.296875 0 
L 17.1875 0 
z
" id="DejaVuSans-Oblique-118"/>
     <path d="M 10.59375 45.40625 
L 73.1875 45.40625 
L 73.1875 37.203125 
L 10.59375 37.203125 
z
M 10.59375 25.484375 
L 73.1875 25.484375 
L 73.1875 17.1875 
L 10.59375 17.1875 
z
" id="DejaVuSans-61"/>
     <path d="M 10.984375 1.515625 
L 10.984375 10.5 
Q 14.703125 8.734375 18.5 7.8125 
Q 22.3125 6.890625 25.984375 6.890625 
Q 35.75 6.890625 40.890625 13.453125 
Q 46.046875 20.015625 46.78125 33.40625 
Q 43.953125 29.203125 39.59375 26.953125 
Q 35.25 24.703125 29.984375 24.703125 
Q 19.046875 24.703125 12.671875 31.3125 
Q 6.296875 37.9375 6.296875 49.421875 
Q 6.296875 60.640625 12.9375 67.421875 
Q 19.578125 74.21875 30.609375 74.21875 
Q 43.265625 74.21875 49.921875 64.515625 
Q 56.59375 54.828125 56.59375 36.375 
Q 56.59375 19.140625 48.40625 8.859375 
Q 40.234375 -1.421875 26.421875 -1.421875 
Q 22.703125 -1.421875 18.890625 -0.6875 
Q 15.09375 0.046875 10.984375 1.515625 
z
M 30.609375 32.421875 
Q 37.25 32.421875 41.125 36.953125 
Q 45.015625 41.5 45.015625 49.421875 
Q 45.015625 57.28125 41.125 61.84375 
Q 37.25 66.40625 30.609375 66.40625 
Q 23.96875 66.40625 20.09375 61.84375 
Q 16.21875 57.28125 16.21875 49.421875 
Q 16.21875 41.5 20.09375 36.953125 
Q 23.96875 32.421875 30.609375 32.421875 
z
" id="DejaVuSans-57"/>
     <path d="M 16.890625 72.90625 
L 26.8125 72.90625 
L 20.796875 42.1875 
L 59.078125 72.90625 
L 72.21875 72.90625 
L 28.90625 38.09375 
L 60.59375 0 
L 48.578125 0 
L 19.484375 35.5 
L 12.59375 0 
L 2.6875 0 
z
" id="DejaVuSans-Oblique-75"/>
     <path d="M 16.703125 72.90625 
L 26.609375 72.90625 
L 13.375 5.078125 
Q 10.796875 -8.15625 4.65625 -14.078125 
Q -1.46875 -20.015625 -12.5 -20.015625 
L -16.40625 -20.015625 
L -14.796875 -11.71875 
L -11.71875 -11.71875 
Q -5.125 -11.71875 -1.703125 -7.953125 
Q 1.703125 -4.203125 3.515625 5.078125 
z
" id="DejaVuSans-Oblique-74"/>
     <path d="M 18.3125 75.984375 
L 27.296875 75.984375 
L 18.703125 31.6875 
L 49.515625 54.6875 
L 61.1875 54.6875 
L 26.8125 28.515625 
L 51.90625 0 
L 41.015625 0 
L 17.671875 26.703125 
L 12.5 0 
L 3.515625 0 
z
" id="DejaVuSans-Oblique-107"/>
     <path d="M 59.625 54.6875 
L 50.296875 6.78125 
Q 47.609375 -7.125 40.015625 -13.953125 
Q 32.421875 -20.796875 19.578125 -20.796875 
Q 14.84375 -20.796875 10.78125 -20.09375 
Q 6.734375 -19.390625 3.21875 -17.921875 
L 4.890625 -9.1875 
Q 8.203125 -11.328125 11.90625 -12.34375 
Q 15.625 -13.375 19.828125 -13.375 
Q 28.375 -13.375 33.859375 -8.703125 
Q 39.359375 -4.046875 41.109375 4.6875 
L 41.890625 8.796875 
Q 38.140625 4.5 33.15625 2.25 
Q 28.171875 0 22.40625 0 
Q 14.109375 0 9.34375 5.484375 
Q 4.59375 10.984375 4.59375 20.609375 
Q 4.59375 28.171875 7.46875 35.421875 
Q 10.359375 42.671875 15.578125 48.296875 
Q 19.046875 52 23.65625 54 
Q 28.265625 56 33.296875 56 
Q 38.8125 56 42.90625 53.4375 
Q 47.015625 50.875 49.03125 46.1875 
L 50.59375 54.6875 
z
M 46.09375 34.625 
Q 46.09375 41.265625 42.96875 44.875 
Q 39.84375 48.484375 34.078125 48.484375 
Q 30.515625 48.484375 27.296875 47.0625 
Q 24.078125 45.65625 21.78125 43.109375 
Q 18.0625 38.921875 15.984375 33.234375 
Q 13.921875 27.546875 13.921875 21.484375 
Q 13.921875 14.75 17.0625 11.125 
Q 20.21875 7.515625 26.125 7.515625 
Q 34.671875 7.515625 40.375 15.25 
Q 46.09375 23 46.09375 34.625 
z
" id="DejaVuSans-Oblique-103"/>
    </defs>
    <g transform="translate(162.9 35.472)scale(0.12 -0.12)">
     <use transform="translate(0 0.015625)" xlink:href="#DejaVuSans-Oblique-69"/>
     <use transform="translate(63.183594 -16.390625)scale(0.7)" xlink:href="#DejaVuSans-Oblique-116"/>
     <use transform="translate(90.629883 -16.390625)scale(0.7)" xlink:href="#DejaVuSans-Oblique-111"/>
     <use transform="translate(133.457031 -16.390625)scale(0.7)" xlink:href="#DejaVuSans-Oblique-116"/>
     <use transform="translate(163.637695 0.015625)" xlink:href="#DejaVuSans-40"/>
     <use transform="translate(202.651367 0.015625)" xlink:href="#DejaVuSans-Oblique-116"/>
     <use transform="translate(241.860352 0.015625)" xlink:href="#DejaVuSans-41"/>
     <use transform="translate(280.874023 0.015625)" xlink:href="#DejaVuSans-59"/>
     <use transform="translate(334.047852 0.015625)" xlink:href="#DejaVuSans-Oblique-67"/>
     <use transform="translate(403.87207 -16.390625)scale(0.7)" xlink:href="#DejaVuSans-Oblique-118"/>
     <use transform="translate(467.514648 0.015625)" xlink:href="#DejaVuSans-61"/>
     <use transform="translate(570.786133 0.015625)" xlink:href="#DejaVuSans-50"/>
     <use transform="translate(634.40918 0.015625)" xlink:href="#DejaVuSans-46"/>
     <use transform="translate(666.196289 0.015625)" xlink:href="#DejaVuSans-57"/>
     <use transform="translate(729.803711 0.015625)" xlink:href="#DejaVuSans-50"/>
     <use transform="translate(793.426758 0.015625)" xlink:href="#DejaVuSans-40"/>
     <use transform="translate(832.44043 0.015625)" xlink:href="#DejaVuSans-Oblique-75"/>
     <use transform="translate(898.016602 0.015625)" xlink:href="#DejaVuSans-Oblique-74"/>
     <use transform="translate(927.508789 0.015625)" xlink:href="#DejaVuSans-47"/>
     <use transform="translate(961.200195 0.015625)" xlink:href="#DejaVuSans-Oblique-75"/>
     <use transform="translate(1026.776367 0.015625)" xlink:href="#DejaVuSans-47"/>
     <use transform="translate(1060.467773 0.015625)" xlink:href="#DejaVuSans-Oblique-107"/>
     <use transform="translate(1118.37793 0.015625)" xlink:href="#DejaVuSans-Oblique-103"/>
     <use transform="translate(1181.854492 0.015625)" xlink:href="#DejaVuSans-41"/>
    </g>
   </g>
  </g>
 </g>
 <defs>
  <clipPath id="p231226b101">
   <rect height="266.112" width="357.12" x="57.6" y="41.472"/>
  </clipPath>
 </defs>
</svg>
