<?xml version="1.0" encoding="utf-8" standalone="no"?>
<!DOCTYPE svg PUBLIC "-//W3C//DTD SVG 1.1//EN"
  "http://www.w3.org/Graphics/SVG/1.1/DTD/svg11.dtd">
<!-- Created with matplotlib (https://matplotlib.org/) -->
<svg height="345.6pt" version="1.1" viewBox="0 0 460.8 345.6" width="460.8pt" xmlns="http://www.w3.org/2000/svg" xmlns:xlink="http://www.w3.org/1999/xlink">
 <defs>
  <style type="text/css">
*{stroke-linecap:butt;stroke-linejoin:round;}
  </style>
 </defs>
 <g id="figure_1">
  <g id="patch_1">
   <path d="M 0 345.6 
L 460.8 345.6 
L 460.8 0 
L 0 0 
z
" style="fill:#ffffff;"/>
  </g>
  <g id="axes_1">
   <g id="patch_2">
    <path d="M 57.6 307.584 
L 414.72 307.584 
L 414.72 41.472 
L 57.6 41.472 
z
" style="fill:#ffffff;"/>
   </g>
   <g id="matplotlib.axis_1">
    <g id="xtick_1">
     <g id="line2d_1">
      <defs>
       <path d="M 0 0 
L 0 3.5 
" id="m17a3590ae3" style="stroke:#000000;stroke-width:0.8;"/>
      </defs>
      <g>
       <use style="stroke:#000000;stroke-width:0.8;" x="73.832727" xlink:href="#m17a3590ae3" y="307.584"/>
      </g>
     </g>
     <g id="text_1">
      <!-- 0 -->
      <defs>
       <path d="M 31.78125 66.40625 
Q 24.171875 66.40625 20.328125 58.90625 
Q 16.5 51.421875 16.5 36.375 
Q 16.5 21.390625 20.328125 13.890625 
Q 24.171875 6.390625 31.78125 6.390625 
Q 39.453125 6.390625 43.28125 13.890625 
Q 47.125 21.390625 47.125 36.375 
Q 47.125 51.421875 43.28125 58.90625 
Q 39.453125 66.40625 31.78125 66.40625 
z
M 31.78125 74.21875 
Q 44.046875 74.21875 50.515625 64.515625 
Q 56.984375 54.828125 56.984375 36.375 
Q 56.984375 17.96875 50.515625 8.265625 
Q 44.046875 -1.421875 31.78125 -1.421875 
Q 19.53125 -1.421875 13.0625 8.265625 
Q 6.59375 17.96875 6.59375 36.375 
Q 6.59375 54.828125 13.0625 64.515625 
Q 19.53125 74.21875 31.78125 74.21875 
z
" id="DejaVuSans-48"/>
      </defs>
      <g transform="translate(70.651477 322.182437)scale(0.1 -0.1)">
       <use xlink:href="#DejaVuSans-48"/>
      </g>
     </g>
    </g>
    <g id="xtick_2">
     <g id="line2d_2">
      <g>
       <use style="stroke:#000000;stroke-width:0.8;" x="150.222032" xlink:href="#m17a3590ae3" y="307.584"/>
      </g>
     </g>
     <g id="text_2">
      <!-- 5 -->
      <defs>
       <path d="M 10.796875 72.90625 
L 49.515625 72.90625 
L 49.515625 64.59375 
L 19.828125 64.59375 
L 19.828125 46.734375 
Q 21.96875 47.46875 24.109375 47.828125 
Q 26.265625 48.1875 28.421875 48.1875 
Q 40.625 48.1875 47.75 41.5 
Q 54.890625 34.8125 54.890625 23.390625 
Q 54.890625 11.625 47.5625 5.09375 
Q 40.234375 -1.421875 26.90625 -1.421875 
Q 22.3125 -1.421875 17.546875 -0.640625 
Q 12.796875 0.140625 7.71875 1.703125 
L 7.71875 11.625 
Q 12.109375 9.234375 16.796875 8.0625 
Q 21.484375 6.890625 26.703125 6.890625 
Q 35.15625 6.890625 40.078125 11.328125 
Q 45.015625 15.765625 45.015625 23.390625 
Q 45.015625 31 40.078125 35.4375 
Q 35.15625 39.890625 26.703125 39.890625 
Q 22.75 39.890625 18.8125 39.015625 
Q 14.890625 38.140625 10.796875 36.28125 
z
" id="DejaVuSans-53"/>
      </defs>
      <g transform="translate(147.040782 322.182437)scale(0.1 -0.1)">
       <use xlink:href="#DejaVuSans-53"/>
      </g>
     </g>
    </g>
    <g id="xtick_3">
     <g id="line2d_3">
      <g>
       <use style="stroke:#000000;stroke-width:0.8;" x="226.611337" xlink:href="#m17a3590ae3" y="307.584"/>
      </g>
     </g>
     <g id="text_3">
      <!-- 10 -->
      <defs>
       <path d="M 12.40625 8.296875 
L 28.515625 8.296875 
L 28.515625 63.921875 
L 10.984375 60.40625 
L 10.984375 69.390625 
L 28.421875 72.90625 
L 38.28125 72.90625 
L 38.28125 8.296875 
L 54.390625 8.296875 
L 54.390625 0 
L 12.40625 0 
z
" id="DejaVuSans-49"/>
      </defs>
      <g transform="translate(220.248837 322.182437)scale(0.1 -0.1)">
       <use xlink:href="#DejaVuSans-49"/>
       <use x="63.623047" xlink:href="#DejaVuSans-48"/>
      </g>
     </g>
    </g>
    <g id="xtick_4">
     <g id="line2d_4">
      <g>
       <use style="stroke:#000000;stroke-width:0.8;" x="303.000642" xlink:href="#m17a3590ae3" y="307.584"/>
      </g>
     </g>
     <g id="text_4">
      <!-- 15 -->
      <g transform="translate(296.638142 322.182437)scale(0.1 -0.1)">
       <use xlink:href="#DejaVuSans-49"/>
       <use x="63.623047" xlink:href="#DejaVuSans-53"/>
      </g>
     </g>
    </g>
    <g id="xtick_5">
     <g id="line2d_5">
      <g>
       <use style="stroke:#000000;stroke-width:0.8;" x="379.389947" xlink:href="#m17a3590ae3" y="307.584"/>
      </g>
     </g>
     <g id="text_5">
      <!-- 20 -->
      <defs>
       <path d="M 19.1875 8.296875 
L 53.609375 8.296875 
L 53.609375 0 
L 7.328125 0 
L 7.328125 8.296875 
Q 12.9375 14.109375 22.625 23.890625 
Q 32.328125 33.6875 34.8125 36.53125 
Q 39.546875 41.84375 41.421875 45.53125 
Q 43.3125 49.21875 43.3125 52.78125 
Q 43.3125 58.59375 39.234375 62.25 
Q 35.15625 65.921875 28.609375 65.921875 
Q 23.96875 65.921875 18.8125 64.3125 
Q 13.671875 62.703125 7.8125 59.421875 
L 7.8125 69.390625 
Q 13.765625 71.78125 18.9375 73 
Q 24.125 74.21875 28.421875 74.21875 
Q 39.75 74.21875 46.484375 68.546875 
Q 53.21875 62.890625 53.21875 53.421875 
Q 53.21875 48.921875 51.53125 44.890625 
Q 49.859375 40.875 45.40625 35.40625 
Q 44.1875 33.984375 37.640625 27.21875 
Q 31.109375 20.453125 19.1875 8.296875 
z
" id="DejaVuSans-50"/>
      </defs>
      <g transform="translate(373.027447 322.182437)scale(0.1 -0.1)">
       <use xlink:href="#DejaVuSans-50"/>
       <use x="63.623047" xlink:href="#DejaVuSans-48"/>
      </g>
     </g>
    </g>
    <g id="text_6">
     <!-- $time (ps)$ -->
     <defs>
      <path d="M 42.28125 54.6875 
L 40.921875 47.703125 
L 23 47.703125 
L 17.1875 18.015625 
Q 16.890625 16.359375 16.75 15.234375 
Q 16.609375 14.109375 16.609375 13.484375 
Q 16.609375 10.359375 18.484375 8.9375 
Q 20.359375 7.515625 24.515625 7.515625 
L 33.59375 7.515625 
L 32.078125 0 
L 23.484375 0 
Q 15.484375 0 11.546875 3.125 
Q 7.625 6.25 7.625 12.59375 
Q 7.625 13.71875 7.765625 15.0625 
Q 7.90625 16.40625 8.203125 18.015625 
L 14.015625 47.703125 
L 6.390625 47.703125 
L 7.8125 54.6875 
L 15.28125 54.6875 
L 18.3125 70.21875 
L 27.296875 70.21875 
L 24.3125 54.6875 
z
" id="DejaVuSans-Oblique-116"/>
      <path d="M 18.3125 75.984375 
L 27.296875 75.984375 
L 25.09375 64.59375 
L 16.109375 64.59375 
z
M 14.203125 54.6875 
L 23.1875 54.6875 
L 12.5 0 
L 3.515625 0 
z
" id="DejaVuSans-Oblique-105"/>
      <path d="M 89.796875 33.015625 
L 83.40625 0 
L 74.421875 0 
L 80.71875 32.71875 
Q 81.109375 34.8125 81.296875 36.328125 
Q 81.5 37.84375 81.5 38.921875 
Q 81.5 43.3125 79.046875 45.75 
Q 76.609375 48.1875 72.21875 48.1875 
Q 65.671875 48.1875 60.546875 43.28125 
Q 55.421875 38.375 53.90625 30.515625 
L 47.90625 0 
L 38.921875 0 
L 45.3125 32.71875 
Q 45.703125 34.515625 45.890625 36.046875 
Q 46.09375 37.59375 46.09375 38.8125 
Q 46.09375 43.265625 43.65625 45.71875 
Q 41.21875 48.1875 36.921875 48.1875 
Q 30.28125 48.1875 25.140625 43.28125 
Q 20.015625 38.375 18.5 30.515625 
L 12.5 0 
L 3.515625 0 
L 14.203125 54.6875 
L 23.1875 54.6875 
L 21.484375 46.1875 
Q 25.140625 50.984375 30.046875 53.484375 
Q 34.96875 56 40.578125 56 
Q 46.53125 56 50.359375 52.875 
Q 54.203125 49.75 54.984375 44.1875 
Q 59.078125 49.953125 64.46875 52.96875 
Q 69.875 56 75.875 56 
Q 82.90625 56 86.734375 51.953125 
Q 90.578125 47.90625 90.578125 40.484375 
Q 90.578125 38.875 90.375 36.9375 
Q 90.1875 35.015625 89.796875 33.015625 
z
" id="DejaVuSans-Oblique-109"/>
      <path d="M 48.09375 32.234375 
Q 48.25 33.015625 48.3125 33.84375 
Q 48.390625 34.671875 48.390625 35.5 
Q 48.390625 41.453125 44.890625 44.921875 
Q 41.40625 48.390625 35.40625 48.390625 
Q 28.71875 48.390625 23.578125 44.15625 
Q 18.453125 39.9375 15.828125 32.171875 
z
M 55.90625 25.203125 
L 14.109375 25.203125 
Q 13.8125 23.34375 13.71875 22.265625 
Q 13.625 21.1875 13.625 20.40625 
Q 13.625 13.625 17.796875 9.90625 
Q 21.96875 6.203125 29.59375 6.203125 
Q 35.453125 6.203125 40.671875 7.515625 
Q 45.90625 8.84375 50.390625 11.375 
L 48.6875 2.484375 
Q 43.84375 0.53125 38.6875 -0.4375 
Q 33.546875 -1.421875 28.21875 -1.421875 
Q 16.84375 -1.421875 10.71875 4.015625 
Q 4.59375 9.46875 4.59375 19.484375 
Q 4.59375 28.03125 7.640625 35.375 
Q 10.6875 42.71875 16.609375 48.484375 
Q 20.40625 52.09375 25.65625 54.046875 
Q 30.90625 56 36.8125 56 
Q 46.09375 56 51.578125 50.4375 
Q 57.078125 44.875 57.078125 35.5 
Q 57.078125 33.25 56.78125 30.6875 
Q 56.5 28.125 55.90625 25.203125 
z
" id="DejaVuSans-Oblique-101"/>
      <path d="M 31 75.875 
Q 24.46875 64.65625 21.28125 53.65625 
Q 18.109375 42.671875 18.109375 31.390625 
Q 18.109375 20.125 21.3125 9.0625 
Q 24.515625 -2 31 -13.1875 
L 23.1875 -13.1875 
Q 15.875 -1.703125 12.234375 9.375 
Q 8.59375 20.453125 8.59375 31.390625 
Q 8.59375 42.28125 12.203125 53.3125 
Q 15.828125 64.359375 23.1875 75.875 
z
" id="DejaVuSans-40"/>
      <path d="M 49.609375 33.6875 
Q 49.609375 40.875 46.484375 44.671875 
Q 43.359375 48.484375 37.5 48.484375 
Q 33.5 48.484375 29.859375 46.4375 
Q 26.21875 44.390625 23.390625 40.484375 
Q 20.609375 36.625 18.9375 31.15625 
Q 17.28125 25.6875 17.28125 20.3125 
Q 17.28125 13.484375 20.40625 9.796875 
Q 23.53125 6.109375 29.296875 6.109375 
Q 33.546875 6.109375 37.1875 8.109375 
Q 40.828125 10.109375 43.40625 13.921875 
Q 46.1875 17.921875 47.890625 23.34375 
Q 49.609375 28.765625 49.609375 33.6875 
z
M 21.78125 46.390625 
Q 25.390625 51.125 30.296875 53.5625 
Q 35.203125 56 41.21875 56 
Q 49.609375 56 54.25 50.5 
Q 58.890625 45.015625 58.890625 35.109375 
Q 58.890625 27 56 19.65625 
Q 53.125 12.3125 47.703125 6.5 
Q 44.09375 2.640625 39.546875 0.609375 
Q 35.015625 -1.421875 29.984375 -1.421875 
Q 24.171875 -1.421875 20.21875 1 
Q 16.265625 3.421875 14.3125 8.203125 
L 8.6875 -20.796875 
L -0.296875 -20.796875 
L 14.40625 54.6875 
L 23.390625 54.6875 
z
" id="DejaVuSans-Oblique-112"/>
      <path d="M 50 53.078125 
L 48.296875 44.578125 
Q 44.734375 46.53125 40.765625 47.5 
Q 36.8125 48.484375 32.625 48.484375 
Q 25.53125 48.484375 21.453125 46.0625 
Q 17.390625 43.65625 17.390625 39.5 
Q 17.390625 34.671875 26.859375 32.078125 
Q 27.59375 31.890625 27.9375 31.78125 
L 30.8125 30.90625 
Q 39.796875 28.421875 42.796875 25.6875 
Q 45.796875 22.953125 45.796875 18.21875 
Q 45.796875 9.515625 38.890625 4.046875 
Q 31.984375 -1.421875 20.796875 -1.421875 
Q 16.453125 -1.421875 11.671875 -0.578125 
Q 6.890625 0.25 1.125 2 
L 2.875 11.28125 
Q 7.8125 8.734375 12.59375 7.421875 
Q 17.390625 6.109375 21.78125 6.109375 
Q 28.375 6.109375 32.5 8.9375 
Q 36.625 11.765625 36.625 16.109375 
Q 36.625 20.796875 25.78125 23.6875 
L 24.859375 23.921875 
L 21.78125 24.703125 
Q 14.9375 26.515625 11.765625 29.46875 
Q 8.59375 32.421875 8.59375 37.015625 
Q 8.59375 45.75 15.15625 50.875 
Q 21.734375 56 33.015625 56 
Q 37.453125 56 41.671875 55.265625 
Q 45.90625 54.546875 50 53.078125 
z
" id="DejaVuSans-Oblique-115"/>
      <path d="M 8.015625 75.875 
L 15.828125 75.875 
Q 23.140625 64.359375 26.78125 53.3125 
Q 30.421875 42.28125 30.421875 31.390625 
Q 30.421875 20.453125 26.78125 9.375 
Q 23.140625 -1.703125 15.828125 -13.1875 
L 8.015625 -13.1875 
Q 14.5 -2 17.703125 9.0625 
Q 20.90625 20.125 20.90625 31.390625 
Q 20.90625 42.671875 17.703125 53.65625 
Q 14.5 64.65625 8.015625 75.875 
z
" id="DejaVuSans-41"/>
     </defs>
     <g transform="translate(215.16 335.862125)scale(0.1 -0.1)">
      <use transform="translate(0 0.015625)" xlink:href="#DejaVuSans-Oblique-116"/>
      <use transform="translate(39.208984 0.015625)" xlink:href="#DejaVuSans-Oblique-105"/>
      <use transform="translate(66.992188 0.015625)" xlink:href="#DejaVuSans-Oblique-109"/>
      <use transform="translate(164.404297 0.015625)" xlink:href="#DejaVuSans-Oblique-101"/>
      <use transform="translate(225.927734 0.015625)" xlink:href="#DejaVuSans-40"/>
      <use transform="translate(264.941406 0.015625)" xlink:href="#DejaVuSans-Oblique-112"/>
      <use transform="translate(328.417969 0.015625)" xlink:href="#DejaVuSans-Oblique-115"/>
      <use transform="translate(380.517578 0.015625)" xlink:href="#DejaVuSans-41"/>
     </g>
    </g>
   </g>
   <g id="matplotlib.axis_2">
    <g id="ytick_1">
     <g id="line2d_6">
      <defs>
       <path d="M 0 0 
L -3.5 0 
" id="m0c9269e8d4" style="stroke:#000000;stroke-width:0.8;"/>
      </defs>
      <g>
       <use style="stroke:#000000;stroke-width:0.8;" x="57.6" xlink:href="#m0c9269e8d4" y="288.382876"/>
      </g>
     </g>
     <g id="text_7">
      <!-- 280 -->
      <defs>
       <path d="M 31.78125 34.625 
Q 24.75 34.625 20.71875 30.859375 
Q 16.703125 27.09375 16.703125 20.515625 
Q 16.703125 13.921875 20.71875 10.15625 
Q 24.75 6.390625 31.78125 6.390625 
Q 38.8125 6.390625 42.859375 10.171875 
Q 46.921875 13.96875 46.921875 20.515625 
Q 46.921875 27.09375 42.890625 30.859375 
Q 38.875 34.625 31.78125 34.625 
z
M 21.921875 38.8125 
Q 15.578125 40.375 12.03125 44.71875 
Q 8.5 49.078125 8.5 55.328125 
Q 8.5 64.0625 14.71875 69.140625 
Q 20.953125 74.21875 31.78125 74.21875 
Q 42.671875 74.21875 48.875 69.140625 
Q 55.078125 64.0625 55.078125 55.328125 
Q 55.078125 49.078125 51.53125 44.71875 
Q 48 40.375 41.703125 38.8125 
Q 48.828125 37.15625 52.796875 32.3125 
Q 56.78125 27.484375 56.78125 20.515625 
Q 56.78125 9.90625 50.3125 4.234375 
Q 43.84375 -1.421875 31.78125 -1.421875 
Q 19.734375 -1.421875 13.25 4.234375 
Q 6.78125 9.90625 6.78125 20.515625 
Q 6.78125 27.484375 10.78125 32.3125 
Q 14.796875 37.15625 21.921875 38.8125 
z
M 18.3125 54.390625 
Q 18.3125 48.734375 21.84375 45.5625 
Q 25.390625 42.390625 31.78125 42.390625 
Q 38.140625 42.390625 41.71875 45.5625 
Q 45.3125 48.734375 45.3125 54.390625 
Q 45.3125 60.0625 41.71875 63.234375 
Q 38.140625 66.40625 31.78125 66.40625 
Q 25.390625 66.40625 21.84375 63.234375 
Q 18.3125 60.0625 18.3125 54.390625 
z
" id="DejaVuSans-56"/>
      </defs>
      <g transform="translate(31.5125 292.182094)scale(0.1 -0.1)">
       <use xlink:href="#DejaVuSans-50"/>
       <use x="63.623047" xlink:href="#DejaVuSans-56"/>
       <use x="127.246094" xlink:href="#DejaVuSans-48"/>
      </g>
     </g>
    </g>
    <g id="ytick_2">
     <g id="line2d_7">
      <g>
       <use style="stroke:#000000;stroke-width:0.8;" x="57.6" xlink:href="#m0c9269e8d4" y="253.49192"/>
      </g>
     </g>
     <g id="text_8">
      <!-- 285 -->
      <g transform="translate(31.5125 257.291139)scale(0.1 -0.1)">
       <use xlink:href="#DejaVuSans-50"/>
       <use x="63.623047" xlink:href="#DejaVuSans-56"/>
       <use x="127.246094" xlink:href="#DejaVuSans-53"/>
      </g>
     </g>
    </g>
    <g id="ytick_3">
     <g id="line2d_8">
      <g>
       <use style="stroke:#000000;stroke-width:0.8;" x="57.6" xlink:href="#m0c9269e8d4" y="218.600964"/>
      </g>
     </g>
     <g id="text_9">
      <!-- 290 -->
      <defs>
       <path d="M 10.984375 1.515625 
L 10.984375 10.5 
Q 14.703125 8.734375 18.5 7.8125 
Q 22.3125 6.890625 25.984375 6.890625 
Q 35.75 6.890625 40.890625 13.453125 
Q 46.046875 20.015625 46.78125 33.40625 
Q 43.953125 29.203125 39.59375 26.953125 
Q 35.25 24.703125 29.984375 24.703125 
Q 19.046875 24.703125 12.671875 31.3125 
Q 6.296875 37.9375 6.296875 49.421875 
Q 6.296875 60.640625 12.9375 67.421875 
Q 19.578125 74.21875 30.609375 74.21875 
Q 43.265625 74.21875 49.921875 64.515625 
Q 56.59375 54.828125 56.59375 36.375 
Q 56.59375 19.140625 48.40625 8.859375 
Q 40.234375 -1.421875 26.421875 -1.421875 
Q 22.703125 -1.421875 18.890625 -0.6875 
Q 15.09375 0.046875 10.984375 1.515625 
z
M 30.609375 32.421875 
Q 37.25 32.421875 41.125 36.953125 
Q 45.015625 41.5 45.015625 49.421875 
Q 45.015625 57.28125 41.125 61.84375 
Q 37.25 66.40625 30.609375 66.40625 
Q 23.96875 66.40625 20.09375 61.84375 
Q 16.21875 57.28125 16.21875 49.421875 
Q 16.21875 41.5 20.09375 36.953125 
Q 23.96875 32.421875 30.609375 32.421875 
z
" id="DejaVuSans-57"/>
      </defs>
      <g transform="translate(31.5125 222.400183)scale(0.1 -0.1)">
       <use xlink:href="#DejaVuSans-50"/>
       <use x="63.623047" xlink:href="#DejaVuSans-57"/>
       <use x="127.246094" xlink:href="#DejaVuSans-48"/>
      </g>
     </g>
    </g>
    <g id="ytick_4">
     <g id="line2d_9">
      <g>
       <use style="stroke:#000000;stroke-width:0.8;" x="57.6" xlink:href="#m0c9269e8d4" y="183.710009"/>
      </g>
     </g>
     <g id="text_10">
      <!-- 295 -->
      <g transform="translate(31.5125 187.509227)scale(0.1 -0.1)">
       <use xlink:href="#DejaVuSans-50"/>
       <use x="63.623047" xlink:href="#DejaVuSans-57"/>
       <use x="127.246094" xlink:href="#DejaVuSans-53"/>
      </g>
     </g>
    </g>
    <g id="ytick_5">
     <g id="line2d_10">
      <g>
       <use style="stroke:#000000;stroke-width:0.8;" x="57.6" xlink:href="#m0c9269e8d4" y="148.819053"/>
      </g>
     </g>
     <g id="text_11">
      <!-- 300 -->
      <defs>
       <path d="M 40.578125 39.3125 
Q 47.65625 37.796875 51.625 33 
Q 55.609375 28.21875 55.609375 21.1875 
Q 55.609375 10.40625 48.1875 4.484375 
Q 40.765625 -1.421875 27.09375 -1.421875 
Q 22.515625 -1.421875 17.65625 -0.515625 
Q 12.796875 0.390625 7.625 2.203125 
L 7.625 11.71875 
Q 11.71875 9.328125 16.59375 8.109375 
Q 21.484375 6.890625 26.8125 6.890625 
Q 36.078125 6.890625 40.9375 10.546875 
Q 45.796875 14.203125 45.796875 21.1875 
Q 45.796875 27.640625 41.28125 31.265625 
Q 36.765625 34.90625 28.71875 34.90625 
L 20.21875 34.90625 
L 20.21875 43.015625 
L 29.109375 43.015625 
Q 36.375 43.015625 40.234375 45.921875 
Q 44.09375 48.828125 44.09375 54.296875 
Q 44.09375 59.90625 40.109375 62.90625 
Q 36.140625 65.921875 28.71875 65.921875 
Q 24.65625 65.921875 20.015625 65.03125 
Q 15.375 64.15625 9.8125 62.3125 
L 9.8125 71.09375 
Q 15.4375 72.65625 20.34375 73.4375 
Q 25.25 74.21875 29.59375 74.21875 
Q 40.828125 74.21875 47.359375 69.109375 
Q 53.90625 64.015625 53.90625 55.328125 
Q 53.90625 49.265625 50.4375 45.09375 
Q 46.96875 40.921875 40.578125 39.3125 
z
" id="DejaVuSans-51"/>
      </defs>
      <g transform="translate(31.5125 152.618272)scale(0.1 -0.1)">
       <use xlink:href="#DejaVuSans-51"/>
       <use x="63.623047" xlink:href="#DejaVuSans-48"/>
       <use x="127.246094" xlink:href="#DejaVuSans-48"/>
      </g>
     </g>
    </g>
    <g id="ytick_6">
     <g id="line2d_11">
      <g>
       <use style="stroke:#000000;stroke-width:0.8;" x="57.6" xlink:href="#m0c9269e8d4" y="113.928097"/>
      </g>
     </g>
     <g id="text_12">
      <!-- 305 -->
      <g transform="translate(31.5125 117.727316)scale(0.1 -0.1)">
       <use xlink:href="#DejaVuSans-51"/>
       <use x="63.623047" xlink:href="#DejaVuSans-48"/>
       <use x="127.246094" xlink:href="#DejaVuSans-53"/>
      </g>
     </g>
    </g>
    <g id="ytick_7">
     <g id="line2d_12">
      <g>
       <use style="stroke:#000000;stroke-width:0.8;" x="57.6" xlink:href="#m0c9269e8d4" y="79.037142"/>
      </g>
     </g>
     <g id="text_13">
      <!-- 310 -->
      <g transform="translate(31.5125 82.83636)scale(0.1 -0.1)">
       <use xlink:href="#DejaVuSans-51"/>
       <use x="63.623047" xlink:href="#DejaVuSans-49"/>
       <use x="127.246094" xlink:href="#DejaVuSans-48"/>
      </g>
     </g>
    </g>
    <g id="ytick_8">
     <g id="line2d_13">
      <g>
       <use style="stroke:#000000;stroke-width:0.8;" x="57.6" xlink:href="#m0c9269e8d4" y="44.146186"/>
      </g>
     </g>
     <g id="text_14">
      <!-- 315 -->
      <g transform="translate(31.5125 47.945405)scale(0.1 -0.1)">
       <use xlink:href="#DejaVuSans-51"/>
       <use x="63.623047" xlink:href="#DejaVuSans-49"/>
       <use x="127.246094" xlink:href="#DejaVuSans-53"/>
      </g>
     </g>
    </g>
    <g id="text_15">
     <!-- $T (K)$ -->
     <defs>
      <path d="M 5.90625 72.90625 
L 67.578125 72.90625 
L 66.015625 64.59375 
L 39.984375 64.59375 
L 27.484375 0 
L 17.578125 0 
L 30.078125 64.59375 
L 4.296875 64.59375 
z
" id="DejaVuSans-Oblique-84"/>
      <path d="M 16.890625 72.90625 
L 26.8125 72.90625 
L 20.796875 42.1875 
L 59.078125 72.90625 
L 72.21875 72.90625 
L 28.90625 38.09375 
L 60.59375 0 
L 48.578125 0 
L 19.484375 35.5 
L 12.59375 0 
L 2.6875 0 
z
" id="DejaVuSans-Oblique-75"/>
     </defs>
     <g transform="translate(25.432812 184.778)rotate(-90)scale(0.1 -0.1)">
      <use transform="translate(0 0.125)" xlink:href="#DejaVuSans-Oblique-84"/>
      <use transform="translate(61.083984 0.125)" xlink:href="#DejaVuSans-40"/>
      <use transform="translate(100.097656 0.125)" xlink:href="#DejaVuSans-Oblique-75"/>
      <use transform="translate(165.673828 0.125)" xlink:href="#DejaVuSans-41"/>
     </g>
    </g>
   </g>
   <g id="line2d_14">
    <path clip-path="url(#p0906ad8198)" d="M 73.832727 97.801637 
L 73.985506 151.513751 
L 74.138284 145.292694 
L 74.291063 146.986719 
L 74.59662 199.798438 
L 74.902178 141.410168 
L 75.054956 165.301122 
L 75.360513 123.457445 
L 75.513292 130.490625 
L 75.666071 95.857373 
L 75.818849 155.745396 
L 75.971628 152.453365 
L 76.124406 145.422418 
L 76.277185 149.366422 
L 76.429964 130.33522 
L 76.582742 172.035006 
L 76.735521 168.839623 
L 77.041078 239.754164 
L 77.193857 228.754232 
L 77.346635 242.83699 
L 77.499414 227.717413 
L 77.652193 195.338117 
L 77.804971 196.644365 
L 78.110528 210.65413 
L 78.263307 212.620236 
L 78.416086 236.07575 
L 78.568864 201.687922 
L 78.721643 212.10699 
L 78.874421 214.229127 
L 79.179979 178.145878 
L 79.332757 190.36483 
L 79.638314 164.217618 
L 79.791093 191.425236 
L 80.09665 141.637727 
L 80.249429 148.258425 
L 80.554986 193.893422 
L 80.707765 151.047329 
L 80.860543 145.101073 
L 81.013322 106.815925 
L 81.166101 119.524955 
L 81.318879 167.996936 
L 81.471658 162.131139 
L 81.777215 182.537533 
L 81.929994 170.670351 
L 82.082772 175.764221 
L 82.235551 215.904801 
L 82.388329 197.146516 
L 82.541108 139.215248 
L 82.846665 122.340237 
L 82.999444 125.258935 
L 83.152222 134.668537 
L 83.305001 135.021006 
L 83.610558 171.188482 
L 83.763337 174.785739 
L 83.916116 147.684399 
L 84.068894 185.642339 
L 84.221673 165.810669 
L 84.374451 119.971699 
L 84.52723 126.751431 
L 84.985566 172.591098 
L 85.138344 173.729869 
L 85.291123 172.336883 
L 85.443902 173.235744 
L 85.59668 221.463488 
L 85.749459 234.602794 
L 85.902237 183.035217 
L 86.055016 193.717293 
L 86.207795 227.619509 
L 86.360573 210.866407 
L 86.513352 214.03325 
L 86.66613 260.688947 
L 86.971688 204.128266 
L 87.277245 251.951414 
L 87.430024 250.97998 
L 87.735581 198.443831 
L 88.041138 257.651271 
L 88.346695 178.943485 
L 88.652252 217.655489 
L 88.805031 207.324975 
L 88.95781 158.914402 
L 89.110588 196.847291 
L 89.263367 161.776716 
L 89.416145 160.978202 
L 89.568924 190.722183 
L 89.721703 181.557934 
L 90.180039 111.254613 
L 90.332817 96.797406 
L 90.485596 97.005356 
L 90.638374 161.068151 
L 90.791153 162.569579 
L 90.943932 180.137733 
L 91.09671 183.433812 
L 91.249489 140.508097 
L 91.402267 145.839156 
L 91.555046 146.333491 
L 91.707825 139.432967 
L 92.013382 177.274651 
L 92.16616 157.887561 
L 92.318939 122.207791 
L 92.624496 165.30168 
L 92.777275 159.10051 
L 92.930053 167.640421 
L 93.082832 183.0983 
L 93.235611 227.392997 
L 93.388389 213.343316 
L 93.541168 232.032168 
L 93.693947 214.137923 
L 93.846725 172.615662 
L 93.999504 173.878156 
L 94.152282 185.05038 
L 94.45784 165.313892 
L 94.763397 159.144822 
L 95.068954 254.148917 
L 95.221733 178.364156 
L 95.374511 181.373361 
L 95.52729 211.95982 
L 95.680068 192.995748 
L 95.985626 113.433902 
L 96.291183 142.727999 
L 96.443961 128.431011 
L 96.59674 127.147373 
L 96.749519 140.399377 
L 96.902297 136.101509 
L 97.055076 110.365521 
L 97.207855 128.975659 
L 97.513412 223.740402 
L 97.66619 179.146132 
L 97.818969 170.639508 
L 98.124526 140.098687 
L 98.277305 162.679066 
L 98.582862 126.595259 
L 98.735641 165.932508 
L 98.888419 142.941043 
L 99.041198 156.280344 
L 99.193976 152.84833 
L 99.346755 97.737577 
L 99.499534 149.076339 
L 99.652312 114.156842 
L 99.95787 102.320714 
L 100.110648 67.692208 
L 100.416205 126.485562 
L 100.568984 129.497419 
L 100.721763 108.788101 
L 100.874541 114.833099 
L 101.02732 152.520565 
L 101.180098 116.793831 
L 101.332877 114.85843 
L 101.638434 148.146355 
L 101.791213 173.83217 
L 101.943991 178.175466 
L 102.09677 198.724494 
L 102.402327 157.319257 
L 102.707884 170.027451 
L 102.860663 182.59608 
L 103.013442 182.405924 
L 103.16622 192.822479 
L 103.318999 187.161073 
L 103.777335 147.617129 
L 103.930113 165.866355 
L 104.082892 167.863165 
L 104.235671 180.986421 
L 104.388449 220.861061 
L 104.541228 159.217884 
L 104.694006 159.808518 
L 104.846785 230.928078 
L 104.999564 212.783386 
L 105.152342 217.069181 
L 105.457899 189.258717 
L 105.610678 238.8276 
L 105.763457 205.021265 
L 105.916235 217.703429 
L 106.221793 125.530945 
L 106.374571 170.170364 
L 106.680128 136.657741 
L 106.832907 79.230437 
L 106.985686 95.747397 
L 107.138464 128.264861 
L 107.291243 123.3183 
L 107.5968 173.192339 
L 107.902357 124.109208 
L 108.055136 167.661844 
L 108.207914 156.753814 
L 108.360693 110.936337 
L 108.513472 112.460165 
L 108.819029 124.191202 
L 108.971807 152.731236 
L 109.124586 158.309812 
L 109.277365 150.426479 
L 109.430143 119.946299 
L 109.582922 186.462277 
L 109.735701 188.594114 
L 110.041258 111.515806 
L 110.194036 106.63177 
L 110.346815 119.916223 
L 110.652372 190.642213 
L 110.957929 147.254542 
L 111.110708 167.146295 
L 111.263487 201.843955 
L 111.416265 167.763795 
L 111.721822 211.855286 
L 111.874601 170.146429 
L 112.02738 200.547965 
L 112.180158 186.371142 
L 112.332937 195.232956 
L 112.485716 211.02209 
L 112.638494 197.166055 
L 112.791273 202.812946 
L 113.249609 120.866373 
L 113.402387 151.930419 
L 113.555166 160.221278 
L 113.707944 179.116265 
L 114.013502 154.487717 
L 114.16628 168.350172 
L 114.319059 170.129821 
L 114.624616 118.404607 
L 114.777395 157.054156 
L 114.930173 154.357015 
L 115.082952 128.105269 
L 115.388509 157.032105 
L 115.541288 126.621008 
L 115.694066 133.873861 
L 115.846845 174.944703 
L 115.999624 176.261348 
L 116.152402 190.964117 
L 116.305181 164.012808 
L 116.457959 163.418336 
L 116.610738 166.494113 
L 116.763517 192.577685 
L 117.069074 132.272227 
L 117.221852 165.119061 
L 117.374631 121.493154 
L 117.52741 139.564018 
L 117.680188 175.445597 
L 117.832967 169.799682 
L 117.985745 192.202607 
L 118.291303 133.752092 
L 118.444081 172.425925 
L 118.59686 163.489304 
L 118.749639 133.804498 
L 119.207974 220.932727 
L 119.360753 174.491679 
L 119.513532 179.619463 
L 119.66631 212.79169 
L 119.819089 212.300495 
L 119.971867 253.838945 
L 120.124646 225.613558 
L 120.277425 176.457575 
L 120.888539 259.655337 
L 121.041318 223.671876 
L 121.346875 293.37612 
L 121.499653 273.385068 
L 121.652432 227.001799 
L 121.805211 230.397108 
L 121.957989 218.759509 
L 122.110768 223.68025 
L 122.263547 220.101136 
L 122.569104 205.184415 
L 122.721882 213.519027 
L 122.874661 196.840173 
L 123.02744 201.891895 
L 123.180218 211.217131 
L 123.332997 200.135763 
L 123.485775 222.917045 
L 123.791333 178.342663 
L 123.944111 151.303987 
L 124.09689 150.955775 
L 124.249668 164.036394 
L 124.402447 188.561317 
L 124.555226 179.234685 
L 124.708004 185.876179 
L 124.860783 102.494191 
L 125.013561 91.991525 
L 125.16634 126.201619 
L 125.319119 191.204237 
L 125.624676 110.511086 
L 125.930233 182.244937 
L 126.083012 159.594497 
L 126.23579 197.462697 
L 126.541348 164.543709 
L 126.694126 182.047664 
L 126.846905 124.835289 
L 126.999683 122.076043 
L 127.305241 148.664835 
L 127.610798 164.091103 
L 127.763576 158.236471 
L 127.916355 170.251032 
L 128.069134 208.634642 
L 128.221912 186.844752 
L 128.374691 197.194665 
L 128.52747 121.570124 
L 128.680248 129.823091 
L 128.833027 147.556419 
L 128.985805 112.422204 
L 129.138584 107.583875 
L 129.291363 155.888449 
L 129.444141 160.080597 
L 129.59692 139.772526 
L 129.749698 145.817803 
L 130.055256 90.849963 
L 130.208034 131.280695 
L 130.360813 119.589434 
L 130.66637 131.077351 
L 130.819149 113.649318 
L 130.971927 129.062817 
L 131.124706 128.481534 
L 131.430263 144.350708 
L 131.583042 94.676664 
L 131.73582 152.508004 
L 132.041378 108.281485 
L 132.194156 147.877904 
L 132.346935 156.135965 
L 132.652492 211.779852 
L 132.958049 178.602042 
L 133.110828 169.984953 
L 133.263606 195.396664 
L 133.569164 106.076865 
L 133.721942 110.366359 
L 134.027499 193.890422 
L 134.180278 190.340128 
L 134.485835 143.078653 
L 134.638614 161.684744 
L 134.791393 246.004391 
L 134.944171 231.636225 
L 135.09695 183.828359 
L 135.249728 193.611224 
L 135.555286 149.738011 
L 136.013621 217.328282 
L 136.1664 203.194025 
L 136.319179 157.7824 
L 136.471957 217.334841 
L 136.777514 204.43398 
L 136.930293 189.502745 
L 137.083072 137.267076 
L 137.23585 127.537873 
L 137.541407 183.523202 
L 137.694186 129.284305 
L 137.846965 136.590401 
L 137.999743 195.765392 
L 138.458079 81.890315 
L 138.763636 168.045714 
L 139.069194 80.78776 
L 139.374751 179.636001 
L 139.680308 148.397151 
L 139.985865 204.217866 
L 140.291422 166.182956 
L 140.444201 172.90407 
L 140.59698 168.703129 
L 140.749758 105.898432 
L 140.902537 104.773827 
L 141.055316 89.840289 
L 141.360873 195.882835 
L 141.513651 155.781613 
L 141.819209 173.485912 
L 141.971987 170.302252 
L 142.124766 194.219932 
L 142.277544 152.605978 
L 142.430323 176.538382 
L 142.583102 181.091442 
L 142.888659 148.630363 
L 143.041437 118.596507 
L 143.194216 155.499903 
L 143.346995 129.174677 
L 143.652552 187.454785 
L 143.80533 131.219636 
L 143.958109 133.142058 
L 144.110888 148.529109 
L 144.263666 181.615853 
L 144.416445 170.706219 
L 144.569224 230.23019 
L 144.874781 147.861087 
L 145.027559 119.99068 
L 145.180338 142.253552 
L 145.333117 218.658813 
L 145.638674 132.025896 
L 145.944231 235.88392 
L 146.09701 235.134602 
L 146.249788 197.444345 
L 146.402567 208.982086 
L 146.555345 189.273162 
L 146.860903 230.17883 
L 147.013681 193.809963 
L 147.16646 197.040447 
L 147.319239 190.404187 
L 147.472017 223.118575 
L 147.624796 225.198704 
L 147.930353 262.769355 
L 148.083132 228.318584 
L 148.388689 216.249453 
L 148.694246 169.654815 
L 148.847025 183.712032 
L 148.999803 177.948325 
L 149.152582 144.33403 
L 149.30536 150.340508 
L 149.458139 143.07642 
L 149.610918 170.614944 
L 149.763696 153.865262 
L 149.916475 114.312247 
L 150.069253 132.044109 
L 150.222032 112.614662 
L 150.374811 111.302832 
L 150.833147 178.299677 
L 150.985925 171.949942 
L 151.138704 93.706904 
L 151.444261 181.905937 
L 151.59704 155.603948 
L 151.749818 160.126584 
L 151.902597 145.449564 
L 152.055375 168.628672 
L 152.208154 117.799667 
L 152.360933 136.944963 
L 152.513711 174.705421 
L 152.66649 153.003665 
L 152.819268 197.445182 
L 153.124826 137.274752 
L 153.430383 171.727198 
L 153.583161 183.400456 
L 153.73594 208.795001 
L 153.888719 196.320298 
L 154.041497 195.064014 
L 154.347055 138.922652 
L 154.499833 149.358886 
L 154.80539 210.867593 
L 154.958169 182.036708 
L 155.110948 180.716504 
L 155.263726 184.815563 
L 155.416505 155.97463 
L 155.569283 224.671153 
L 155.722062 233.476793 
L 156.027619 223.532591 
L 156.180398 187.019695 
L 156.333176 197.864432 
L 156.485955 192.585849 
L 156.638734 183.365984 
L 156.791512 198.511868 
L 156.944291 146.899004 
L 157.09707 203.080141 
L 157.249848 197.908325 
L 157.402627 181.854856 
L 157.708184 121.54891 
L 158.013741 234.87613 
L 158.16652 210.123648 
L 158.319298 163.095246 
L 158.472077 152.746658 
L 158.624856 159.53902 
L 158.930413 145.5788 
L 159.083191 122.792493 
L 159.23597 158.925218 
L 159.388749 146.291622 
L 159.694306 108.249943 
L 159.847084 105.36802 
L 159.999863 126.249838 
L 160.152642 113.129373 
L 160.458199 139.941049 
L 160.610978 130.527609 
L 160.763756 182.623853 
L 160.916535 181.444609 
L 161.069313 143.794825 
L 161.222092 142.449639 
L 161.374871 131.600925 
L 161.527649 96.164414 
L 161.680428 128.43143 
L 161.833206 197.856547 
L 161.985985 193.144942 
L 162.291542 177.58197 
L 162.444321 188.535777 
L 162.597099 180.714899 
L 162.749878 210.672902 
L 162.902657 216.297463 
L 163.055435 168.774586 
L 163.208214 203.29493 
L 163.360993 193.834317 
L 163.66655 218.925171 
L 163.972107 163.917207 
L 164.124886 225.133319 
L 164.277664 222.44197 
L 164.430443 214.086842 
L 164.583221 219.298714 
L 164.888779 185.749245 
L 165.041557 189.321242 
L 165.194336 189.170443 
L 165.347114 174.108227 
L 165.499893 123.166315 
L 165.652672 119.251899 
L 165.80545 174.412895 
L 166.111007 143.513674 
L 166.263786 185.486307 
L 166.416565 110.428604 
L 166.569343 99.253101 
L 166.874901 148.129887 
L 167.027679 146.518273 
L 167.180458 114.553413 
L 167.333236 118.203007 
L 167.486015 107.817714 
L 167.791572 127.762152 
L 167.944351 108.631231 
L 168.097129 114.42641 
L 168.402687 102.992295 
L 168.555465 96.394066 
L 168.861022 149.863897 
L 169.013801 130.802131 
L 169.16658 127.246115 
L 169.472137 178.343221 
L 169.624916 210.076057 
L 169.777694 192.767631 
L 169.930473 198.995736 
L 170.541587 155.13306 
L 170.694366 166.724673 
L 170.847144 162.638872 
L 170.999923 166.925993 
L 171.152702 155.25134 
L 171.30548 154.346827 
L 171.458259 189.789409 
L 171.763816 132.754001 
L 172.069373 188.422939 
L 172.222152 204.636487 
L 172.37493 189.082029 
L 172.680488 204.583034 
L 173.138824 144.610715 
L 173.291602 145.16283 
L 173.444381 117.567573 
L 173.749938 163.856287 
L 173.902717 138.728798 
L 174.055495 170.167503 
L 174.208274 170.37636 
L 174.513831 150.968336 
L 174.66661 200.188239 
L 174.819388 188.470949 
L 174.972167 125.677417 
L 175.124945 122.801984 
L 175.277724 136.253633 
L 175.430503 131.204075 
L 175.583281 190.367482 
L 175.73606 196.716031 
L 175.888839 162.106087 
L 176.041617 213.154835 
L 176.499953 176.716605 
L 176.80551 211.330317 
L 176.958289 205.091954 
L 177.263846 228.887934 
L 177.569403 194.514691 
L 177.722182 201.801039 
L 178.027739 229.37243 
L 178.180518 204.0596 
L 178.486075 221.670461 
L 178.944411 153.927019 
L 179.097189 207.833755 
L 179.249968 173.398266 
L 179.708304 167.728834 
L 180.013861 139.334435 
L 180.16664 145.674052 
L 180.319418 141.138646 
L 180.472197 164.033882 
L 180.624975 141.367601 
L 180.777754 173.228137 
L 180.930533 179.608995 
L 181.083311 111.385035 
L 181.23609 107.369295 
L 181.388868 112.247749 
L 181.541647 123.01747 
L 181.694426 100.301853 
L 181.847204 158.892909 
L 181.999983 145.518648 
L 182.152761 120.65926 
L 182.30554 137.699096 
L 182.458319 127.632427 
L 182.611097 161.013023 
L 182.763876 146.577937 
L 182.916655 173.317179 
L 183.069433 177.038997 
L 183.222212 100.865551 
L 183.37499 120.12515 
L 183.527769 123.922193 
L 183.986105 148.956942 
L 184.291662 199.981476 
L 184.597219 177.436475 
L 184.902776 214.69227 
L 185.055555 203.358432 
L 185.361112 214.284325 
L 185.513891 215.113474 
L 185.66667 221.044099 
L 185.819448 201.905084 
L 185.972227 232.825867 
L 186.277784 193.051853 
L 186.430563 133.64372 
L 186.583341 137.109858 
L 186.73612 196.680372 
L 187.041677 165.901735 
L 187.347234 207.058827 
L 187.652791 157.562377 
L 187.80557 204.524278 
L 188.263906 161.542877 
L 188.416684 148.583748 
L 188.569463 202.782103 
L 188.722242 175.191521 
L 188.87502 176.527984 
L 189.180578 137.677045 
L 189.486135 194.448956 
L 189.638913 172.290338 
L 189.791692 106.8654 
L 189.944471 92.697718 
L 190.097249 124.719242 
L 190.250028 95.287883 
L 190.402806 135.954199 
L 190.708364 120.766864 
L 190.861142 129.668314 
L 191.013921 129.870263 
L 191.166699 153.188447 
L 191.472257 117.515516 
L 191.625035 139.894993 
L 191.930593 136.403734 
L 192.083371 208.330742 
L 192.388928 122.775816 
L 192.541707 132.839065 
L 192.847264 156.415233 
L 193.000043 138.437738 
L 193.152821 139.247277 
L 193.458379 181.197999 
L 193.611157 144.018616 
L 193.763936 166.320775 
L 193.916714 206.947874 
L 194.222272 164.284469 
L 194.37505 145.506994 
L 194.527829 164.068564 
L 194.680607 207.314996 
L 194.833386 175.532406 
L 194.986165 181.364918 
L 195.138943 178.839301 
L 195.291722 159.093672 
L 195.444501 207.626921 
L 195.750058 121.954831 
L 195.902836 115.561831 
L 196.208394 236.286003 
L 196.361172 193.344658 
L 196.513951 186.113437 
L 196.666729 132.202305 
L 196.819508 163.646593 
L 196.972287 243.600125 
L 197.125065 184.341605 
L 197.583401 153.15565 
L 197.73618 167.192839 
L 197.888958 156.154807 
L 198.041737 116.435082 
L 198.194516 132.462592 
L 198.347294 130.55287 
L 198.500073 114.161588 
L 198.652851 112.290106 
L 198.80563 117.209731 
L 198.958409 126.425689 
L 199.111187 124.653158 
L 199.263966 129.75624 
L 199.416744 168.230706 
L 199.569523 169.33019 
L 199.722302 159.3534 
L 199.87508 183.131237 
L 200.333416 91.370606 
L 200.638973 135.378568 
L 200.791752 128.309033 
L 200.94453 160.800188 
L 201.097309 152.843515 
L 201.250088 133.054063 
L 201.402866 162.749965 
L 201.555645 166.514838 
L 202.013981 208.835893 
L 202.166759 215.384367 
L 202.319538 175.083569 
L 202.472317 164.965122 
L 202.625095 175.929046 
L 202.777874 203.986469 
L 203.083431 149.223439 
L 203.23621 179.536004 
L 203.388988 177.176607 
L 203.541767 161.189292 
L 203.694545 201.774382 
L 203.847324 200.418729 
L 204.000103 208.264798 
L 204.152881 226.237338 
L 204.30566 163.742682 
L 204.458439 150.672391 
L 204.763996 173.882552 
L 204.916774 155.891519 
L 205.222332 232.292175 
L 205.37511 187.836073 
L 205.527889 195.424228 
L 205.680667 172.129003 
L 205.833446 169.937153 
L 205.986225 151.943817 
L 206.291782 229.730551 
L 206.597339 134.725828 
L 206.750118 142.651797 
L 206.902896 144.55161 
L 207.055675 127.752243 
L 207.208453 125.921096 
L 207.361232 153.473995 
L 207.666789 123.21607 
L 207.819568 142.640144 
L 208.125125 89.33123 
L 208.430682 155.497112 
L 208.583461 127.170611 
L 208.73624 119.580711 
L 208.889018 143.756933 
L 209.041797 187.084592 
L 209.194575 148.674186 
L 209.347354 152.766616 
L 209.652911 125.980689 
L 209.80569 223.022276 
L 210.111247 166.765076 
L 210.264026 168.424769 
L 210.416804 129.226944 
L 210.569583 128.163119 
L 210.722361 145.451448 
L 210.87514 140.336503 
L 211.180697 153.464853 
L 211.333476 176.174888 
L 211.791812 125.600308 
L 212.250148 190.977516 
L 212.402926 216.608132 
L 212.555705 209.997622 
L 212.708483 196.085621 
L 212.861262 198.596933 
L 213.014041 221.194897 
L 213.319598 166.022736 
L 213.472376 224.715814 
L 213.625155 207.858458 
L 213.777934 211.129624 
L 213.930712 198.65548 
L 214.083491 167.722275 
L 214.23627 202.673731 
L 214.389048 169.381898 
L 214.541827 183.984531 
L 214.847384 175.283773 
L 215.000163 192.896448 
L 215.30572 154.749818 
L 215.458498 158.769884 
L 215.611277 189.829463 
L 215.764056 163.694951 
L 215.916834 196.209414 
L 216.37517 88.821612 
L 216.527949 83.037669 
L 216.680727 134.784724 
L 216.833506 131.896451 
L 217.139063 78.620544 
L 217.291842 75.281968 
L 217.597399 88.987275 
L 217.902956 80.518542 
L 218.208513 114.958427 
L 218.514071 67.877828 
L 218.819628 126.251722 
L 218.972406 134.543767 
L 219.125185 162.297359 
L 219.430742 135.618758 
L 219.583521 163.344437 
L 219.736299 117.729676 
L 219.889078 108.329704 
L 220.194635 213.633539 
L 220.500193 171.990206 
L 220.652971 182.997535 
L 220.80575 173.94096 
L 220.958528 187.912136 
L 221.111307 171.002234 
L 221.264086 184.464979 
L 221.416864 168.632022 
L 221.569643 131.232685 
L 221.8752 203.129477 
L 222.027979 178.927087 
L 222.180757 186.656899 
L 222.333536 186.34944 
L 222.486314 185.65818 
L 222.639093 142.378322 
L 222.791872 140.392399 
L 222.94465 172.894719 
L 223.097429 168.710736 
L 223.250207 130.513373 
L 223.555765 182.507806 
L 223.708543 168.534187 
L 223.861322 166.183374 
L 224.014101 170.201626 
L 224.166879 191.90708 
L 224.319658 188.780432 
L 224.472436 156.426049 
L 224.777994 202.899267 
L 224.930772 200.975798 
L 225.083551 203.467431 
L 225.236329 209.373632 
L 225.389108 191.377017 
L 225.541887 223.112016 
L 225.694665 198.929653 
L 225.847444 115.828398 
L 226.000222 151.956866 
L 226.30578 162.382493 
L 226.458558 159.267498 
L 226.764116 144.742115 
L 226.916894 118.700203 
L 227.069673 137.179081 
L 227.222451 171.781558 
L 227.37523 136.192923 
L 227.680787 192.808593 
L 227.833566 177.175351 
L 228.139123 116.020089 
L 228.44468 158.646579 
L 228.597459 113.36398 
L 228.750237 127.598234 
L 229.055795 169.083929 
L 229.361352 133.58301 
L 229.51413 136.372193 
L 229.666909 131.606716 
L 229.972466 102.258678 
L 230.125245 125.835822 
L 230.430802 139.252302 
L 230.583581 134.488291 
L 230.736359 183.049872 
L 230.889138 189.678595 
L 231.041917 140.972914 
L 231.194695 158.724316 
L 231.347474 152.188682 
L 231.653031 155.06251 
L 231.80581 162.283333 
L 231.958588 104.698323 
L 232.416924 196.789372 
L 232.569703 220.779695 
L 232.722481 196.43481 
L 233.028039 204.302441 
L 233.180817 198.557087 
L 233.333596 202.153786 
L 233.486374 211.876081 
L 233.639153 235.973171 
L 233.791932 185.92063 
L 234.097489 199.806951 
L 234.250267 197.007022 
L 234.403046 188.571575 
L 234.555825 160.586586 
L 234.708603 197.993598 
L 235.01416 174.197966 
L 235.166939 214.086842 
L 235.319718 208.704773 
L 235.778053 132.482619 
L 236.083611 155.693339 
L 236.236389 106.510908 
L 236.389168 110.65058 
L 236.541947 110.870114 
L 236.694725 112.365401 
L 237.153061 90.810815 
L 237.458618 106.406863 
L 237.611397 110.769 
L 237.764175 144.017429 
L 237.916954 141.867658 
L 238.069733 116.054492 
L 238.222511 174.715748 
L 238.37529 186.785716 
L 238.680847 80.779526 
L 238.833626 100.513292 
L 238.986404 140.273909 
L 239.139183 135.359727 
L 239.44474 203.214541 
L 239.903076 135.653579 
L 240.055855 149.237744 
L 240.208633 184.662462 
L 240.51419 104.221503 
L 240.819748 203.890379 
L 240.972526 185.567882 
L 241.125305 185.746245 
L 241.278083 182.891257 
L 241.430862 183.784187 
L 241.583641 147.189227 
L 241.736419 175.162981 
L 241.889198 181.685426 
L 242.194755 153.137995 
L 242.347534 146.766976 
L 242.500312 169.021684 
L 242.653091 154.813947 
L 243.111427 193.966414 
L 243.416984 125.060754 
L 243.569763 141.882661 
L 243.722541 135.680864 
L 244.028098 241.405553 
L 244.180877 226.542774 
L 244.333656 151.275655 
L 244.486434 157.934036 
L 244.639213 214.490531 
L 244.791991 206.90754 
L 244.94477 143.604041 
L 245.250327 187.707186 
L 245.403106 156.957647 
L 245.555884 206.527437 
L 245.708663 212.019762 
L 246.01422 135.912539 
L 246.319778 78.579582 
L 246.625335 159.009305 
L 246.930892 114.934701 
L 247.083671 108.541073 
L 247.236449 122.911681 
L 247.389228 116.11276 
L 247.542006 138.760618 
L 247.694785 111.086438 
L 247.847564 116.542616 
L 248.000342 170.566586 
L 248.305899 133.449657 
L 248.611457 210.225181 
L 248.764235 159.754227 
L 249.069793 148.014747 
L 249.222571 153.921157 
L 249.37535 210.089106 
L 249.528128 205.091744 
L 249.680907 167.37197 
L 249.833686 167.28858 
L 249.986464 165.383395 
L 250.139243 166.634305 
L 250.292021 185.052961 
L 250.4448 178.331149 
L 250.597579 181.643417 
L 250.750357 171.558675 
L 250.903136 143.44459 
L 251.055914 196.851617 
L 251.208693 198.607051 
L 251.361472 172.497521 
L 251.667029 216.823759 
L 251.819807 212.936069 
L 251.972586 214.51963 
L 252.278143 181.878931 
L 252.430922 206.208604 
L 252.583701 183.750622 
L 252.889258 243.693214 
L 253.042036 226.095332 
L 253.194815 240.879398 
L 253.347594 216.820339 
L 253.500372 222.626892 
L 253.653151 241.020636 
L 253.805929 223.45304 
L 253.958708 225.670849 
L 254.111487 185.593213 
L 254.264265 226.642143 
L 254.417044 197.042122 
L 254.569822 198.230787 
L 254.722601 190.13141 
L 254.87538 155.226568 
L 255.028158 185.855105 
L 255.180937 167.261575 
L 255.333716 131.126826 
L 255.639273 171.000908 
L 255.792051 159.140007 
L 255.94483 127.444295 
L 256.250387 189.36653 
L 256.403166 150.154469 
L 256.708723 135.409272 
L 256.861502 165.219686 
L 257.01428 146.897329 
L 257.167059 115.198547 
L 257.319837 131.180698 
L 257.472616 119.457197 
L 257.625395 156.64321 
L 257.778173 142.458292 
L 257.930952 156.654166 
L 258.08373 158.223073 
L 258.236509 142.553475 
L 258.694845 182.164269 
L 258.847624 182.159594 
L 259.000402 144.752233 
L 259.153181 194.721804 
L 259.305959 195.750528 
L 259.458738 139.867778 
L 259.611517 136.083435 
L 259.764295 178.082167 
L 259.917074 180.487899 
L 260.069852 188.2242 
L 260.37541 167.47099 
L 260.528188 139.271631 
L 260.833745 204.861604 
L 261.139303 165.40077 
L 261.292081 173.782694 
L 261.44486 144.447007 
L 261.597639 166.142901 
L 261.750417 217.910333 
L 261.903196 212.018925 
L 262.208753 169.293275 
L 262.667089 209.206784 
L 262.819867 218.771232 
L 262.972646 259.769152 
L 263.278203 217.188509 
L 263.430982 226.626931 
L 263.58376 227.535561 
L 263.736539 249.672058 
L 263.889318 214.05558 
L 264.042096 210.737938 
L 264.194875 185.063847 
L 264.347653 203.949415 
L 264.500432 162.79944 
L 264.653211 158.283225 
L 264.805989 223.176215 
L 265.111547 150.246233 
L 265.417104 178.630304 
L 265.569882 108.728507 
L 265.722661 104.308731 
L 266.028218 171.335582 
L 266.180997 143.818272 
L 266.333775 141.4094 
L 266.639333 116.309684 
L 266.792111 142.528563 
L 266.94489 138.938562 
L 267.250447 155.962348 
L 267.403226 126.10204 
L 267.556004 170.071622 
L 267.708783 157.985814 
L 267.861561 160.56921 
L 268.01434 184.341116 
L 268.167119 140.814091 
L 268.319897 144.592363 
L 268.472676 159.029891 
L 268.625455 136.525853 
L 268.778233 146.761324 
L 268.931012 242.31851 
L 269.08379 254.1157 
L 269.389348 189.941254 
L 269.542126 195.484729 
L 269.847683 157.626577 
L 270.000462 177.428241 
L 270.153241 179.615694 
L 270.306019 162.753454 
L 270.458798 169.401716 
L 270.611576 142.318519 
L 270.917134 168.337333 
L 271.069912 153.977122 
L 271.222691 179.853372 
L 271.528248 106.898058 
L 271.681027 108.148899 
L 271.833805 145.673843 
L 271.986584 140.356949 
L 272.139363 120.047064 
L 272.292141 131.415026 
L 272.44492 130.051208 
L 272.597698 119.892636 
L 272.750477 96.89524 
L 272.903256 125.504428 
L 273.056034 121.286809 
L 273.361591 162.202177 
L 273.51437 161.856617 
L 273.667149 108.907289 
L 273.819927 106.217126 
L 274.125484 148.530226 
L 274.278263 143.156041 
L 274.431042 83.296909 
L 274.58382 70.014201 
L 274.736599 115.018789 
L 274.889378 118.37795 
L 275.194935 103.566042 
L 275.500492 168.198816 
L 275.653271 167.321378 
L 275.806049 158.481196 
L 275.958828 138.275913 
L 276.111606 159.172386 
L 276.417164 144.036968 
L 276.569942 144.02378 
L 276.722721 143.00922 
L 277.028278 243.045358 
L 277.181057 153.646914 
L 277.333835 133.32049 
L 277.486614 137.185222 
L 277.792171 220.293943 
L 277.94495 195.412854 
L 278.097728 208.253214 
L 278.250507 184.381031 
L 278.556064 206.308113 
L 278.708843 194.611757 
L 278.861621 146.135589 
L 279.167179 240.527557 
L 279.319957 201.354784 
L 279.472736 130.515886 
L 279.931072 206.447816 
L 280.08385 184.312017 
L 280.236629 117.539869 
L 280.542186 129.248158 
L 280.694965 125.296408 
L 280.847743 96.831808 
L 281.306079 195.502733 
L 281.458858 180.127894 
L 281.611636 141.112199 
L 281.917194 133.125101 
L 282.069972 117.662965 
L 282.222751 134.170643 
L 282.375529 182.821824 
L 282.681087 123.3504 
L 282.833865 88.989298 
L 283.139422 138.138164 
L 283.292201 135.131401 
L 283.44498 184.419691 
L 283.750537 155.693548 
L 284.056094 207.292457 
L 284.208873 208.12984 
L 284.361651 182.09686 
L 284.51443 186.437993 
L 285.125544 258.404566 
L 285.58388 191.104519 
L 285.889437 237.746678 
L 286.042216 252.468568 
L 286.194995 241.16997 
L 286.347773 187.148652 
L 286.500552 190.174186 
L 286.65333 247.800437 
L 286.958888 211.728493 
L 287.111666 196.942892 
L 287.264445 159.579075 
L 287.417224 178.092286 
L 287.570002 172.287896 
L 287.722781 182.351704 
L 287.875559 144.752652 
L 288.181117 218.419043 
L 288.333895 186.716841 
L 288.486674 189.298563 
L 288.639452 168.847299 
L 288.792231 174.729495 
L 288.94501 226.618487 
L 289.097788 175.840563 
L 289.250567 176.858821 
L 289.403345 174.941562 
L 289.556124 126.211947 
L 289.708903 163.820629 
L 289.861681 167.644189 
L 290.01446 180.543794 
L 290.472796 117.153208 
L 290.778353 173.015931 
L 291.08391 95.029132 
L 291.236689 122.967088 
L 291.389467 104.534196 
L 291.695025 174.185964 
L 291.847803 162.368886 
L 292.000582 98.213071 
L 292.458918 206.321232 
L 292.611696 172.454465 
L 292.764475 163.942049 
L 292.917253 170.666513 
L 293.222811 200.472391 
L 293.375589 178.942369 
L 293.528368 212.57397 
L 293.833925 178.50672 
L 293.986704 217.879978 
L 294.139482 207.16985 
L 294.292261 241.598012 
L 294.44504 211.216922 
L 294.597818 219.156428 
L 294.750597 215.950647 
L 294.903375 221.317295 
L 295.056154 234.311454 
L 295.208933 206.134984 
L 295.361711 227.734091 
L 295.667268 207.536275 
L 295.820047 174.402497 
L 296.125604 278.754437 
L 296.278383 233.224601 
L 296.431161 233.788299 
L 296.736719 202.795571 
L 297.042276 256.446695 
L 297.195055 238.54275 
L 297.347833 275.443844 
L 297.65339 189.564502 
L 297.806169 180.795986 
L 297.958948 131.963093 
L 298.111726 170.87244 
L 298.264505 158.390549 
L 298.417283 155.115893 
L 298.570062 141.731653 
L 298.875619 217.316907 
L 299.028398 180.587059 
L 299.181176 193.09763 
L 299.486734 126.733008 
L 299.639512 148.854502 
L 299.792291 140.032464 
L 299.94507 170.328141 
L 300.097848 175.260954 
L 300.250627 141.044231 
L 300.403405 155.340103 
L 300.556184 190.523933 
L 301.01452 139.863801 
L 301.320077 160.4413 
L 301.472856 167.919339 
L 301.778413 155.490832 
L 301.931191 186.055448 
L 302.08397 185.226509 
L 302.236749 176.931812 
L 302.389527 194.819847 
L 303.000642 104.687786 
L 303.306199 129.637541 
L 303.458978 97.731716 
L 303.611756 144.108355 
L 303.764535 143.470339 
L 304.070092 53.568 
L 304.222871 70.135482 
L 304.375649 121.785331 
L 304.528428 123.007282 
L 304.681206 131.351943 
L 304.833985 122.281062 
L 304.986764 153.070865 
L 305.139542 126.133721 
L 305.292321 152.052816 
L 305.445099 220.139935 
L 305.597878 219.290619 
L 306.056214 138.183522 
L 306.208993 151.015997 
L 306.361771 175.044142 
L 306.51455 231.705798 
L 306.667328 238.174162 
L 306.820107 203.172533 
L 306.972886 201.507536 
L 307.125664 260.277932 
L 307.584 191.969047 
L 307.736779 188.924322 
L 307.889557 147.495709 
L 308.195114 177.338711 
L 308.347893 173.884227 
L 308.65345 241.849157 
L 308.959007 172.535552 
L 309.264565 206.305531 
L 309.570122 138.767527 
L 309.722901 151.19429 
L 309.875679 143.234825 
L 310.028458 152.254137 
L 310.181236 180.512322 
L 310.334015 180.307512 
L 310.639572 157.895516 
L 311.097908 124.179339 
L 311.250687 159.271895 
L 311.403465 155.305282 
L 311.709022 120.755839 
L 311.861801 142.129829 
L 312.167358 137.24998 
L 312.472916 166.304725 
L 312.625694 169.229215 
L 312.778473 112.818007 
L 312.931251 130.383858 
L 313.08403 169.95711 
L 313.236809 166.390487 
L 313.389587 183.625782 
L 313.542366 181.824711 
L 313.695144 154.948208 
L 313.847923 151.480954 
L 314.000702 180.705339 
L 314.459037 127.772131 
L 314.611816 167.911523 
L 314.764595 167.134292 
L 314.917373 162.005113 
L 315.070152 197.930166 
L 315.22293 177.54066 
L 315.375709 181.080696 
L 315.528488 143.699015 
L 315.681266 149.145493 
L 315.834045 208.295362 
L 315.986824 207.769346 
L 316.139602 196.443742 
L 316.292381 195.762252 
L 316.445159 203.452567 
L 316.597938 222.074289 
L 316.903495 199.174238 
L 317.056274 213.348898 
L 317.209052 169.808126 
L 317.51461 247.31636 
L 317.667388 235.971147 
L 317.820167 255.951104 
L 317.972945 236.931835 
L 318.125724 199.700254 
L 318.278503 236.637495 
L 318.431281 237.222756 
L 318.58406 192.861069 
L 319.042396 235.873871 
L 319.347953 174.568648 
L 319.500732 216.185952 
L 319.65351 219.435067 
L 319.806289 215.471176 
L 319.959067 224.260975 
L 320.111846 150.506519 
L 320.264625 135.088136 
L 320.417403 195.070643 
L 320.570182 208.659135 
L 320.72296 207.276267 
L 321.028518 168.911917 
L 321.181296 208.712728 
L 321.334075 153.944953 
L 321.639632 213.510932 
L 321.792411 171.831941 
L 321.945189 168.501809 
L 322.097968 138.625521 
L 322.250747 180.160691 
L 322.403525 175.064379 
L 322.709082 180.280995 
L 323.01464 146.544372 
L 323.167418 106.743491 
L 323.320197 163.08736 
L 323.472975 154.966002 
L 323.625754 124.912887 
L 323.778533 157.314582 
L 323.931311 123.021518 
L 324.542426 154.925459 
L 324.847983 122.014006 
L 325.000761 129.809344 
L 325.15354 97.458799 
L 325.306319 117.540777 
L 325.611876 189.478879 
L 325.764655 182.996349 
L 325.917433 151.696301 
L 326.375769 207.441441 
L 326.528548 173.991133 
L 326.681326 167.625069 
L 327.139662 241.893189 
L 327.292441 227.294325 
L 327.445219 187.99078 
L 327.597998 184.505173 
L 327.750776 161.089434 
L 327.903555 188.818184 
L 328.056334 181.768815 
L 328.209112 156.238056 
L 328.667448 227.203957 
L 328.820227 244.84943 
L 328.973005 233.147143 
L 329.125784 230.880836 
L 329.278563 193.849181 
L 329.431341 202.894242 
L 329.736898 252.605899 
L 330.042456 151.638591 
L 330.195234 162.296452 
L 330.348013 158.936104 
L 330.500791 195.479984 
L 330.65357 190.342221 
L 330.959127 165.658684 
L 331.111906 173.732521 
L 331.417463 201.364762 
L 331.72302 146.955457 
L 331.875799 145.800776 
L 332.028578 138.041725 
L 332.181356 143.708295 
L 332.486913 170.338468 
L 332.639692 167.111125 
L 332.792471 158.474846 
L 332.945249 116.551688 
L 333.098028 123.539927 
L 333.250806 124.61736 
L 333.403585 145.394924 
L 333.556364 196.020794 
L 334.014699 121.163714 
L 334.167478 97.009263 
L 334.473035 150.994016 
L 334.625814 134.221166 
L 334.931371 155.126221 
L 335.08415 128.650824 
L 335.236928 167.430168 
L 335.389707 152.326431 
L 335.695264 194.161664 
L 336.000821 139.381049 
L 336.1536 146.178924 
L 336.306379 173.960429 
L 336.459157 157.291345 
L 336.611936 169.810568 
L 336.917493 213.614698 
L 337.070272 201.309286 
L 337.22305 179.027014 
L 337.375829 182.077461 
L 337.528607 196.990762 
L 337.681386 189.206171 
L 337.834165 209.724426 
L 337.986943 211.753475 
L 338.139722 194.37094 
L 338.292501 194.693123 
L 338.445279 156.96644 
L 338.598058 166.946579 
L 338.750836 204.65477 
L 339.209172 147.963806 
L 339.361951 160.451418 
L 339.514729 150.320411 
L 339.667508 153.078192 
L 339.820287 162.371537 
L 339.973065 195.003304 
L 340.125844 146.992302 
L 340.278622 143.584851 
L 340.431401 169.249801 
L 340.58418 172.793885 
L 340.736958 168.711294 
L 341.042516 195.994835 
L 341.195294 156.407068 
L 341.348073 189.937416 
L 341.500851 193.714502 
L 341.65363 191.919013 
L 341.806409 246.256652 
L 341.959187 191.355594 
L 342.111966 182.81045 
L 342.264744 200.342039 
L 342.417523 145.530022 
L 342.72308 142.277487 
L 343.181416 205.906588 
L 343.334195 213.104592 
L 343.486973 160.32609 
L 343.945309 202.996054 
L 344.098088 201.830208 
L 344.403645 94.909735 
L 344.556424 156.967347 
L 344.709202 141.688737 
L 344.861981 112.159754 
L 345.320317 194.562143 
L 345.473095 166.090774 
L 345.778652 200.208197 
L 345.931431 156.544469 
L 346.08421 180.974348 
L 346.236988 186.196478 
L 346.389767 208.424947 
L 347.000881 109.689823 
L 347.15366 110.1515 
L 347.306439 116.922928 
L 347.611996 187.715979 
L 347.917553 147.04722 
L 348.070332 92.489768 
L 348.375889 159.292341 
L 348.528667 171.892163 
L 348.681446 130.037042 
L 348.834225 175.562412 
L 348.987003 184.009652 
L 349.139782 146.463425 
L 349.29256 208.185107 
L 349.445339 213.446872 
L 349.750896 155.953974 
L 350.056453 265.747508 
L 350.362011 171.412831 
L 350.667568 199.618679 
L 350.820347 197.863246 
L 350.973125 233.850684 
L 351.431461 158.878813 
L 351.58424 190.533772 
L 351.737018 199.056098 
L 351.889797 171.035032 
L 352.348133 212.998175 
L 352.500911 168.864605 
L 352.65369 208.604287 
L 352.806468 166.219103 
L 352.959247 173.892322 
L 353.112026 172.013304 
L 353.264804 126.949193 
L 353.417583 129.68576 
L 353.570361 175.7615 
L 353.72314 149.125954 
L 353.875919 149.983294 
L 354.028697 146.673399 
L 354.181476 132.246617 
L 354.334255 183.37038 
L 354.487033 154.793013 
L 354.639812 194.409739 
L 354.945369 139.278121 
L 355.098148 140.983382 
L 355.250926 103.128649 
L 355.556483 150.818374 
L 355.709262 196.291478 
L 356.014819 147.312671 
L 356.167598 203.754095 
L 356.320376 184.335045 
L 356.473155 118.824415 
L 356.625934 118.719672 
L 356.931491 179.070488 
L 357.237048 168.440261 
L 357.695384 101.659111 
L 357.848163 114.926188 
L 358.000941 102.624614 
L 358.15372 126.22053 
L 358.306498 109.001145 
L 358.612056 168.271738 
L 358.917613 105.253368 
L 359.22317 124.905071 
L 359.375949 106.590041 
L 359.528727 116.711419 
L 359.681506 107.108171 
L 359.987063 143.889519 
L 360.139842 130.545543 
L 360.445399 193.235868 
L 360.598178 187.73154 
L 360.750956 190.568942 
L 360.903735 147.115607 
L 361.056513 138.661249 
L 361.209292 179.711435 
L 361.362071 174.234323 
L 361.514849 154.34892 
L 361.667628 173.11202 
L 361.820406 135.271174 
L 362.125964 169.41965 
L 362.278742 165.557849 
L 362.431521 125.168498 
L 362.737078 206.676213 
L 362.889857 206.431976 
L 363.042635 218.774303 
L 363.348193 175.865963 
L 363.500971 199.758034 
L 363.65375 156.794358 
L 363.806528 148.264356 
L 363.959307 171.781698 
L 364.112086 132.796638 
L 364.264864 122.315395 
L 364.417643 139.145256 
L 364.570421 211.682925 
L 364.7232 220.052219 
L 365.028757 148.351095 
L 365.334314 166.85035 
L 365.487093 136.164871 
L 365.639872 162.044679 
L 365.79265 106.569036 
L 365.945429 120.599527 
L 366.098207 117.54294 
L 366.250986 95.57357 
L 366.403765 125.889136 
L 366.556543 122.922009 
L 366.709322 71.098751 
L 367.014879 117.977542 
L 367.167658 117.505606 
L 367.473215 101.196597 
L 367.778772 113.948194 
L 367.931551 137.978852 
L 368.084329 132.177044 
L 368.237108 150.70142 
L 368.389887 131.908035 
L 368.542665 127.738496 
L 368.695444 154.847652 
L 368.848222 146.632576 
L 369.001001 130.599275 
L 369.15378 163.404519 
L 369.306558 161.906371 
L 369.612116 211.429966 
L 369.917673 149.542342 
L 370.070451 176.912622 
L 370.22323 177.582738 
L 370.376009 167.797151 
L 370.528787 166.572478 
L 370.681566 154.479552 
L 371.139902 211.741472 
L 371.29268 183.381894 
L 371.445459 176.384304 
L 371.751016 197.783066 
L 371.903795 190.08961 
L 372.056573 198.88897 
L 372.209352 154.137621 
L 372.36213 168.506135 
L 372.514909 208.386358 
L 372.820466 168.641233 
L 372.973245 175.362208 
L 373.126024 139.513426 
L 373.278802 155.108008 
L 373.431581 134.592336 
L 373.737138 166.59746 
L 373.889917 109.716689 
L 374.348252 189.281885 
L 374.65381 80.180518 
L 374.806588 162.963358 
L 374.959367 102.242558 
L 375.112145 105.850632 
L 375.264924 121.599572 
L 375.570481 105.67513 
L 375.72326 165.048651 
L 376.028817 144.828295 
L 376.181596 208.323554 
L 376.334374 197.977269 
L 376.639932 137.954428 
L 376.79271 174.862011 
L 376.945489 157.675145 
L 377.098267 176.274606 
L 377.251046 178.530586 
L 377.86216 222.857521 
L 378.014939 210.467534 
L 378.167718 243.708915 
L 378.473275 166.404025 
L 378.931611 214.634909 
L 379.237168 180.605411 
L 379.389947 189.62912 
L 379.542725 190.730906 
L 379.695504 184.623175 
L 379.848282 211.222155 
L 380.001061 217.494712 
L 380.15384 207.415133 
L 380.306618 166.403536 
L 380.459397 156.893657 
L 380.612175 186.888924 
L 380.917733 140.168887 
L 381.070511 146.04906 
L 381.22329 167.549844 
L 381.376068 115.935583 
L 381.681626 156.571963 
L 381.834404 131.634908 
L 382.139961 209.849475 
L 382.29274 224.268581 
L 382.445519 182.676538 
L 382.598297 176.223805 
L 382.903855 120.170019 
L 383.056633 113.373889 
L 383.209412 124.660206 
L 383.36219 150.177707 
L 383.514969 122.084835 
L 383.820526 163.712188 
L 384.126083 199.196987 
L 384.431641 97.105981 
L 384.584419 136.655368 
L 384.737198 137.091296 
L 384.889976 122.304718 
L 385.042755 177.375067 
L 385.348312 162.456881 
L 385.501091 180.64093 
L 385.65387 176.569574 
L 385.806648 176.590579 
L 385.959427 202.042624 
L 386.112205 172.672045 
L 386.264984 191.009545 
L 386.417763 190.673127 
L 386.570541 181.305254 
L 386.72332 179.186257 
L 386.876098 170.716686 
L 387.028877 216.551818 
L 387.181656 193.296438 
L 387.334434 221.095388 
L 387.487213 220.732592 
L 387.639991 213.17577 
L 387.79277 270.899925 
L 387.945549 257.143607 
L 388.098327 228.779144 
L 388.403884 211.373303 
L 388.556663 253.022218 
L 388.86222 191.685523 
L 389.014999 225.931414 
L 389.167778 221.953497 
L 389.320556 183.570794 
L 389.626113 295.488 
L 390.084449 151.817721 
L 390.390006 231.322695 
L 390.542785 212.742145 
L 390.695564 224.413658 
L 391.306678 145.884444 
L 391.459457 136.957593 
L 391.765014 186.660178 
L 391.917793 176.520029 
L 392.070571 143.327077 
L 392.376128 181.936432 
L 392.528907 181.466171 
L 392.987243 143.681709 
L 393.140021 146.227981 
L 393.2928 104.400215 
L 393.598357 156.499599 
L 393.751136 161.81384 
L 393.903914 174.838146 
L 394.209472 150.197036 
L 394.36225 149.408291 
L 394.515029 124.796909 
L 394.820586 171.319253 
L 394.973365 132.74793 
L 395.278922 184.730778 
L 395.431701 161.918792 
L 395.584479 171.47396 
L 395.737258 148.657857 
L 395.890036 76.71131 
L 396.195594 189.157533 
L 396.348372 174.184219 
L 396.806708 94.174024 
L 396.959487 109.327585 
L 397.112265 176.145161 
L 397.265044 184.137981 
L 397.417822 182.467681 
L 397.570601 189.376439 
L 397.72338 187.394424 
L 397.876158 215.526164 
L 398.028937 210.356301 
L 398.334494 260.558176 
L 398.487273 236.682295 
L 398.487273 236.682295 
" style="fill:none;stroke:#1f77b4;stroke-linecap:square;stroke-width:1.5;"/>
   </g>
   <g id="patch_3">
    <path d="M 57.6 307.584 
L 57.6 41.472 
" style="fill:none;stroke:#000000;stroke-linecap:square;stroke-linejoin:miter;stroke-width:0.8;"/>
   </g>
   <g id="patch_4">
    <path d="M 414.72 307.584 
L 414.72 41.472 
" style="fill:none;stroke:#000000;stroke-linecap:square;stroke-linejoin:miter;stroke-width:0.8;"/>
   </g>
   <g id="patch_5">
    <path d="M 57.6 307.584 
L 414.72 307.584 
" style="fill:none;stroke:#000000;stroke-linecap:square;stroke-linejoin:miter;stroke-width:0.8;"/>
   </g>
   <g id="patch_6">
    <path d="M 57.6 41.472 
L 414.72 41.472 
" style="fill:none;stroke:#000000;stroke-linecap:square;stroke-linejoin:miter;stroke-width:0.8;"/>
   </g>
   <g id="text_16">
    <!-- $T(t); T = 297.0 \pm 0.511$ -->
    <defs>
     <path d="M 11.71875 51.703125 
L 22.015625 51.703125 
L 22.015625 39.3125 
L 11.71875 39.3125 
z
M 11.71875 12.40625 
L 22.015625 12.40625 
L 22.015625 4 
L 14.015625 -11.625 
L 7.71875 -11.625 
L 11.71875 4 
z
" id="DejaVuSans-59"/>
     <path d="M 10.59375 45.40625 
L 73.1875 45.40625 
L 73.1875 37.203125 
L 10.59375 37.203125 
z
M 10.59375 25.484375 
L 73.1875 25.484375 
L 73.1875 17.1875 
L 10.59375 17.1875 
z
" id="DejaVuSans-61"/>
     <path d="M 8.203125 72.90625 
L 55.078125 72.90625 
L 55.078125 68.703125 
L 28.609375 0 
L 18.3125 0 
L 43.21875 64.59375 
L 8.203125 64.59375 
z
" id="DejaVuSans-55"/>
     <path d="M 10.6875 12.40625 
L 21 12.40625 
L 21 0 
L 10.6875 0 
z
" id="DejaVuSans-46"/>
     <path d="M 46 62.703125 
L 46 43.796875 
L 73.1875 43.796875 
L 73.1875 35.5 
L 46 35.5 
L 46 16.609375 
L 37.796875 16.609375 
L 37.796875 35.5 
L 10.59375 35.5 
L 10.59375 43.796875 
L 37.796875 43.796875 
L 37.796875 62.703125 
z
M 10.59375 8.296875 
L 73.1875 8.296875 
L 73.1875 0 
L 10.59375 0 
z
" id="DejaVuSans-177"/>
    </defs>
    <g transform="translate(169.5 35.472)scale(0.12 -0.12)">
     <use transform="translate(0 0.125)" xlink:href="#DejaVuSans-Oblique-84"/>
     <use transform="translate(61.083984 0.125)" xlink:href="#DejaVuSans-40"/>
     <use transform="translate(100.097656 0.125)" xlink:href="#DejaVuSans-Oblique-116"/>
     <use transform="translate(139.306641 0.125)" xlink:href="#DejaVuSans-41"/>
     <use transform="translate(178.320312 0.125)" xlink:href="#DejaVuSans-59"/>
     <use transform="translate(231.494141 0.125)" xlink:href="#DejaVuSans-Oblique-84"/>
     <use transform="translate(312.060547 0.125)" xlink:href="#DejaVuSans-61"/>
     <use transform="translate(415.332031 0.125)" xlink:href="#DejaVuSans-50"/>
     <use transform="translate(478.939453 0.125)" xlink:href="#DejaVuSans-57"/>
     <use transform="translate(542.5625 0.125)" xlink:href="#DejaVuSans-55"/>
     <use transform="translate(606.185547 0.125)" xlink:href="#DejaVuSans-46"/>
     <use transform="translate(637.972656 0.125)" xlink:href="#DejaVuSans-48"/>
     <use transform="translate(721.078125 0.125)" xlink:href="#DejaVuSans-177"/>
     <use transform="translate(824.349609 0.125)" xlink:href="#DejaVuSans-48"/>
     <use transform="translate(887.972656 0.125)" xlink:href="#DejaVuSans-46"/>
     <use transform="translate(919.759766 0.125)" xlink:href="#DejaVuSans-53"/>
     <use transform="translate(983.382812 0.125)" xlink:href="#DejaVuSans-49"/>
     <use transform="translate(1047.005859 0.125)" xlink:href="#DejaVuSans-49"/>
    </g>
   </g>
  </g>
 </g>
 <defs>
  <clipPath id="p0906ad8198">
   <rect height="266.112" width="357.12" x="57.6" y="41.472"/>
  </clipPath>
 </defs>
</svg>
