<?xml version="1.0" encoding="utf-8" standalone="no"?>
<!DOCTYPE svg PUBLIC "-//W3C//DTD SVG 1.1//EN"
  "http://www.w3.org/Graphics/SVG/1.1/DTD/svg11.dtd">
<!-- Created with matplotlib (https://matplotlib.org/) -->
<svg height="345.6pt" version="1.1" viewBox="0 0 460.8 345.6" width="460.8pt" xmlns="http://www.w3.org/2000/svg" xmlns:xlink="http://www.w3.org/1999/xlink">
 <defs>
  <style type="text/css">
*{stroke-linecap:butt;stroke-linejoin:round;}
  </style>
 </defs>
 <g id="figure_1">
  <g id="patch_1">
   <path d="M 0 345.6 
L 460.8 345.6 
L 460.8 0 
L 0 0 
z
" style="fill:#ffffff;"/>
  </g>
  <g id="axes_1">
   <g id="patch_2">
    <path d="M 57.6 307.584 
L 414.72 307.584 
L 414.72 41.472 
L 57.6 41.472 
z
" style="fill:#ffffff;"/>
   </g>
   <g id="matplotlib.axis_1">
    <g id="xtick_1">
     <g id="line2d_1">
      <defs>
       <path d="M 0 0 
L 0 3.5 
" id="md74985e903" style="stroke:#000000;stroke-width:0.8;"/>
      </defs>
      <g>
       <use style="stroke:#000000;stroke-width:0.8;" x="73.832727" xlink:href="#md74985e903" y="307.584"/>
      </g>
     </g>
     <g id="text_1">
      <!-- 0 -->
      <defs>
       <path d="M 31.78125 66.40625 
Q 24.171875 66.40625 20.328125 58.90625 
Q 16.5 51.421875 16.5 36.375 
Q 16.5 21.390625 20.328125 13.890625 
Q 24.171875 6.390625 31.78125 6.390625 
Q 39.453125 6.390625 43.28125 13.890625 
Q 47.125 21.390625 47.125 36.375 
Q 47.125 51.421875 43.28125 58.90625 
Q 39.453125 66.40625 31.78125 66.40625 
z
M 31.78125 74.21875 
Q 44.046875 74.21875 50.515625 64.515625 
Q 56.984375 54.828125 56.984375 36.375 
Q 56.984375 17.96875 50.515625 8.265625 
Q 44.046875 -1.421875 31.78125 -1.421875 
Q 19.53125 -1.421875 13.0625 8.265625 
Q 6.59375 17.96875 6.59375 36.375 
Q 6.59375 54.828125 13.0625 64.515625 
Q 19.53125 74.21875 31.78125 74.21875 
z
" id="DejaVuSans-48"/>
      </defs>
      <g transform="translate(70.651477 322.182437)scale(0.1 -0.1)">
       <use xlink:href="#DejaVuSans-48"/>
      </g>
     </g>
    </g>
    <g id="xtick_2">
     <g id="line2d_2">
      <g>
       <use style="stroke:#000000;stroke-width:0.8;" x="139.733699" xlink:href="#md74985e903" y="307.584"/>
      </g>
     </g>
     <g id="text_2">
      <!-- 50 -->
      <defs>
       <path d="M 10.796875 72.90625 
L 49.515625 72.90625 
L 49.515625 64.59375 
L 19.828125 64.59375 
L 19.828125 46.734375 
Q 21.96875 47.46875 24.109375 47.828125 
Q 26.265625 48.1875 28.421875 48.1875 
Q 40.625 48.1875 47.75 41.5 
Q 54.890625 34.8125 54.890625 23.390625 
Q 54.890625 11.625 47.5625 5.09375 
Q 40.234375 -1.421875 26.90625 -1.421875 
Q 22.3125 -1.421875 17.546875 -0.640625 
Q 12.796875 0.140625 7.71875 1.703125 
L 7.71875 11.625 
Q 12.109375 9.234375 16.796875 8.0625 
Q 21.484375 6.890625 26.703125 6.890625 
Q 35.15625 6.890625 40.078125 11.328125 
Q 45.015625 15.765625 45.015625 23.390625 
Q 45.015625 31 40.078125 35.4375 
Q 35.15625 39.890625 26.703125 39.890625 
Q 22.75 39.890625 18.8125 39.015625 
Q 14.890625 38.140625 10.796875 36.28125 
z
" id="DejaVuSans-53"/>
      </defs>
      <g transform="translate(133.371199 322.182437)scale(0.1 -0.1)">
       <use xlink:href="#DejaVuSans-53"/>
       <use x="63.623047" xlink:href="#DejaVuSans-48"/>
      </g>
     </g>
    </g>
    <g id="xtick_3">
     <g id="line2d_3">
      <g>
       <use style="stroke:#000000;stroke-width:0.8;" x="205.63467" xlink:href="#md74985e903" y="307.584"/>
      </g>
     </g>
     <g id="text_3">
      <!-- 100 -->
      <defs>
       <path d="M 12.40625 8.296875 
L 28.515625 8.296875 
L 28.515625 63.921875 
L 10.984375 60.40625 
L 10.984375 69.390625 
L 28.421875 72.90625 
L 38.28125 72.90625 
L 38.28125 8.296875 
L 54.390625 8.296875 
L 54.390625 0 
L 12.40625 0 
z
" id="DejaVuSans-49"/>
      </defs>
      <g transform="translate(196.09092 322.182437)scale(0.1 -0.1)">
       <use xlink:href="#DejaVuSans-49"/>
       <use x="63.623047" xlink:href="#DejaVuSans-48"/>
       <use x="127.246094" xlink:href="#DejaVuSans-48"/>
      </g>
     </g>
    </g>
    <g id="xtick_4">
     <g id="line2d_4">
      <g>
       <use style="stroke:#000000;stroke-width:0.8;" x="271.535641" xlink:href="#md74985e903" y="307.584"/>
      </g>
     </g>
     <g id="text_4">
      <!-- 150 -->
      <g transform="translate(261.991891 322.182437)scale(0.1 -0.1)">
       <use xlink:href="#DejaVuSans-49"/>
       <use x="63.623047" xlink:href="#DejaVuSans-53"/>
       <use x="127.246094" xlink:href="#DejaVuSans-48"/>
      </g>
     </g>
    </g>
    <g id="xtick_5">
     <g id="line2d_5">
      <g>
       <use style="stroke:#000000;stroke-width:0.8;" x="337.436613" xlink:href="#md74985e903" y="307.584"/>
      </g>
     </g>
     <g id="text_5">
      <!-- 200 -->
      <defs>
       <path d="M 19.1875 8.296875 
L 53.609375 8.296875 
L 53.609375 0 
L 7.328125 0 
L 7.328125 8.296875 
Q 12.9375 14.109375 22.625 23.890625 
Q 32.328125 33.6875 34.8125 36.53125 
Q 39.546875 41.84375 41.421875 45.53125 
Q 43.3125 49.21875 43.3125 52.78125 
Q 43.3125 58.59375 39.234375 62.25 
Q 35.15625 65.921875 28.609375 65.921875 
Q 23.96875 65.921875 18.8125 64.3125 
Q 13.671875 62.703125 7.8125 59.421875 
L 7.8125 69.390625 
Q 13.765625 71.78125 18.9375 73 
Q 24.125 74.21875 28.421875 74.21875 
Q 39.75 74.21875 46.484375 68.546875 
Q 53.21875 62.890625 53.21875 53.421875 
Q 53.21875 48.921875 51.53125 44.890625 
Q 49.859375 40.875 45.40625 35.40625 
Q 44.1875 33.984375 37.640625 27.21875 
Q 31.109375 20.453125 19.1875 8.296875 
z
" id="DejaVuSans-50"/>
      </defs>
      <g transform="translate(327.892863 322.182437)scale(0.1 -0.1)">
       <use xlink:href="#DejaVuSans-50"/>
       <use x="63.623047" xlink:href="#DejaVuSans-48"/>
       <use x="127.246094" xlink:href="#DejaVuSans-48"/>
      </g>
     </g>
    </g>
    <g id="xtick_6">
     <g id="line2d_6">
      <g>
       <use style="stroke:#000000;stroke-width:0.8;" x="403.337584" xlink:href="#md74985e903" y="307.584"/>
      </g>
     </g>
     <g id="text_6">
      <!-- 250 -->
      <g transform="translate(393.793834 322.182437)scale(0.1 -0.1)">
       <use xlink:href="#DejaVuSans-50"/>
       <use x="63.623047" xlink:href="#DejaVuSans-53"/>
       <use x="127.246094" xlink:href="#DejaVuSans-48"/>
      </g>
     </g>
    </g>
    <g id="text_7">
     <!-- $time (ps)$ -->
     <defs>
      <path d="M 42.28125 54.6875 
L 40.921875 47.703125 
L 23 47.703125 
L 17.1875 18.015625 
Q 16.890625 16.359375 16.75 15.234375 
Q 16.609375 14.109375 16.609375 13.484375 
Q 16.609375 10.359375 18.484375 8.9375 
Q 20.359375 7.515625 24.515625 7.515625 
L 33.59375 7.515625 
L 32.078125 0 
L 23.484375 0 
Q 15.484375 0 11.546875 3.125 
Q 7.625 6.25 7.625 12.59375 
Q 7.625 13.71875 7.765625 15.0625 
Q 7.90625 16.40625 8.203125 18.015625 
L 14.015625 47.703125 
L 6.390625 47.703125 
L 7.8125 54.6875 
L 15.28125 54.6875 
L 18.3125 70.21875 
L 27.296875 70.21875 
L 24.3125 54.6875 
z
" id="DejaVuSans-Oblique-116"/>
      <path d="M 18.3125 75.984375 
L 27.296875 75.984375 
L 25.09375 64.59375 
L 16.109375 64.59375 
z
M 14.203125 54.6875 
L 23.1875 54.6875 
L 12.5 0 
L 3.515625 0 
z
" id="DejaVuSans-Oblique-105"/>
      <path d="M 89.796875 33.015625 
L 83.40625 0 
L 74.421875 0 
L 80.71875 32.71875 
Q 81.109375 34.8125 81.296875 36.328125 
Q 81.5 37.84375 81.5 38.921875 
Q 81.5 43.3125 79.046875 45.75 
Q 76.609375 48.1875 72.21875 48.1875 
Q 65.671875 48.1875 60.546875 43.28125 
Q 55.421875 38.375 53.90625 30.515625 
L 47.90625 0 
L 38.921875 0 
L 45.3125 32.71875 
Q 45.703125 34.515625 45.890625 36.046875 
Q 46.09375 37.59375 46.09375 38.8125 
Q 46.09375 43.265625 43.65625 45.71875 
Q 41.21875 48.1875 36.921875 48.1875 
Q 30.28125 48.1875 25.140625 43.28125 
Q 20.015625 38.375 18.5 30.515625 
L 12.5 0 
L 3.515625 0 
L 14.203125 54.6875 
L 23.1875 54.6875 
L 21.484375 46.1875 
Q 25.140625 50.984375 30.046875 53.484375 
Q 34.96875 56 40.578125 56 
Q 46.53125 56 50.359375 52.875 
Q 54.203125 49.75 54.984375 44.1875 
Q 59.078125 49.953125 64.46875 52.96875 
Q 69.875 56 75.875 56 
Q 82.90625 56 86.734375 51.953125 
Q 90.578125 47.90625 90.578125 40.484375 
Q 90.578125 38.875 90.375 36.9375 
Q 90.1875 35.015625 89.796875 33.015625 
z
" id="DejaVuSans-Oblique-109"/>
      <path d="M 48.09375 32.234375 
Q 48.25 33.015625 48.3125 33.84375 
Q 48.390625 34.671875 48.390625 35.5 
Q 48.390625 41.453125 44.890625 44.921875 
Q 41.40625 48.390625 35.40625 48.390625 
Q 28.71875 48.390625 23.578125 44.15625 
Q 18.453125 39.9375 15.828125 32.171875 
z
M 55.90625 25.203125 
L 14.109375 25.203125 
Q 13.8125 23.34375 13.71875 22.265625 
Q 13.625 21.1875 13.625 20.40625 
Q 13.625 13.625 17.796875 9.90625 
Q 21.96875 6.203125 29.59375 6.203125 
Q 35.453125 6.203125 40.671875 7.515625 
Q 45.90625 8.84375 50.390625 11.375 
L 48.6875 2.484375 
Q 43.84375 0.53125 38.6875 -0.4375 
Q 33.546875 -1.421875 28.21875 -1.421875 
Q 16.84375 -1.421875 10.71875 4.015625 
Q 4.59375 9.46875 4.59375 19.484375 
Q 4.59375 28.03125 7.640625 35.375 
Q 10.6875 42.71875 16.609375 48.484375 
Q 20.40625 52.09375 25.65625 54.046875 
Q 30.90625 56 36.8125 56 
Q 46.09375 56 51.578125 50.4375 
Q 57.078125 44.875 57.078125 35.5 
Q 57.078125 33.25 56.78125 30.6875 
Q 56.5 28.125 55.90625 25.203125 
z
" id="DejaVuSans-Oblique-101"/>
      <path d="M 31 75.875 
Q 24.46875 64.65625 21.28125 53.65625 
Q 18.109375 42.671875 18.109375 31.390625 
Q 18.109375 20.125 21.3125 9.0625 
Q 24.515625 -2 31 -13.1875 
L 23.1875 -13.1875 
Q 15.875 -1.703125 12.234375 9.375 
Q 8.59375 20.453125 8.59375 31.390625 
Q 8.59375 42.28125 12.203125 53.3125 
Q 15.828125 64.359375 23.1875 75.875 
z
" id="DejaVuSans-40"/>
      <path d="M 49.609375 33.6875 
Q 49.609375 40.875 46.484375 44.671875 
Q 43.359375 48.484375 37.5 48.484375 
Q 33.5 48.484375 29.859375 46.4375 
Q 26.21875 44.390625 23.390625 40.484375 
Q 20.609375 36.625 18.9375 31.15625 
Q 17.28125 25.6875 17.28125 20.3125 
Q 17.28125 13.484375 20.40625 9.796875 
Q 23.53125 6.109375 29.296875 6.109375 
Q 33.546875 6.109375 37.1875 8.109375 
Q 40.828125 10.109375 43.40625 13.921875 
Q 46.1875 17.921875 47.890625 23.34375 
Q 49.609375 28.765625 49.609375 33.6875 
z
M 21.78125 46.390625 
Q 25.390625 51.125 30.296875 53.5625 
Q 35.203125 56 41.21875 56 
Q 49.609375 56 54.25 50.5 
Q 58.890625 45.015625 58.890625 35.109375 
Q 58.890625 27 56 19.65625 
Q 53.125 12.3125 47.703125 6.5 
Q 44.09375 2.640625 39.546875 0.609375 
Q 35.015625 -1.421875 29.984375 -1.421875 
Q 24.171875 -1.421875 20.21875 1 
Q 16.265625 3.421875 14.3125 8.203125 
L 8.6875 -20.796875 
L -0.296875 -20.796875 
L 14.40625 54.6875 
L 23.390625 54.6875 
z
" id="DejaVuSans-Oblique-112"/>
      <path d="M 50 53.078125 
L 48.296875 44.578125 
Q 44.734375 46.53125 40.765625 47.5 
Q 36.8125 48.484375 32.625 48.484375 
Q 25.53125 48.484375 21.453125 46.0625 
Q 17.390625 43.65625 17.390625 39.5 
Q 17.390625 34.671875 26.859375 32.078125 
Q 27.59375 31.890625 27.9375 31.78125 
L 30.8125 30.90625 
Q 39.796875 28.421875 42.796875 25.6875 
Q 45.796875 22.953125 45.796875 18.21875 
Q 45.796875 9.515625 38.890625 4.046875 
Q 31.984375 -1.421875 20.796875 -1.421875 
Q 16.453125 -1.421875 11.671875 -0.578125 
Q 6.890625 0.25 1.125 2 
L 2.875 11.28125 
Q 7.8125 8.734375 12.59375 7.421875 
Q 17.390625 6.109375 21.78125 6.109375 
Q 28.375 6.109375 32.5 8.9375 
Q 36.625 11.765625 36.625 16.109375 
Q 36.625 20.796875 25.78125 23.6875 
L 24.859375 23.921875 
L 21.78125 24.703125 
Q 14.9375 26.515625 11.765625 29.46875 
Q 8.59375 32.421875 8.59375 37.015625 
Q 8.59375 45.75 15.15625 50.875 
Q 21.734375 56 33.015625 56 
Q 37.453125 56 41.671875 55.265625 
Q 45.90625 54.546875 50 53.078125 
z
" id="DejaVuSans-Oblique-115"/>
      <path d="M 8.015625 75.875 
L 15.828125 75.875 
Q 23.140625 64.359375 26.78125 53.3125 
Q 30.421875 42.28125 30.421875 31.390625 
Q 30.421875 20.453125 26.78125 9.375 
Q 23.140625 -1.703125 15.828125 -13.1875 
L 8.015625 -13.1875 
Q 14.5 -2 17.703125 9.0625 
Q 20.90625 20.125 20.90625 31.390625 
Q 20.90625 42.671875 17.703125 53.65625 
Q 14.5 64.65625 8.015625 75.875 
z
" id="DejaVuSans-41"/>
     </defs>
     <g transform="translate(215.16 335.862125)scale(0.1 -0.1)">
      <use transform="translate(0 0.015625)" xlink:href="#DejaVuSans-Oblique-116"/>
      <use transform="translate(39.208984 0.015625)" xlink:href="#DejaVuSans-Oblique-105"/>
      <use transform="translate(66.992188 0.015625)" xlink:href="#DejaVuSans-Oblique-109"/>
      <use transform="translate(164.404297 0.015625)" xlink:href="#DejaVuSans-Oblique-101"/>
      <use transform="translate(225.927734 0.015625)" xlink:href="#DejaVuSans-40"/>
      <use transform="translate(264.941406 0.015625)" xlink:href="#DejaVuSans-Oblique-112"/>
      <use transform="translate(328.417969 0.015625)" xlink:href="#DejaVuSans-Oblique-115"/>
      <use transform="translate(380.517578 0.015625)" xlink:href="#DejaVuSans-41"/>
     </g>
    </g>
   </g>
   <g id="matplotlib.axis_2">
    <g id="ytick_1">
     <g id="line2d_7">
      <defs>
       <path d="M 0 0 
L -3.5 0 
" id="m45c7c54a6f" style="stroke:#000000;stroke-width:0.8;"/>
      </defs>
      <g>
       <use style="stroke:#000000;stroke-width:0.8;" x="57.6" xlink:href="#m45c7c54a6f" y="307.036313"/>
      </g>
     </g>
     <g id="text_8">
      <!-- −11.5 -->
      <defs>
       <path d="M 10.59375 35.5 
L 73.1875 35.5 
L 73.1875 27.203125 
L 10.59375 27.203125 
z
" id="DejaVuSans-8722"/>
       <path d="M 10.6875 12.40625 
L 21 12.40625 
L 21 0 
L 10.6875 0 
z
" id="DejaVuSans-46"/>
      </defs>
      <g transform="translate(19.954687 310.835532)scale(0.1 -0.1)">
       <use xlink:href="#DejaVuSans-8722"/>
       <use x="83.789062" xlink:href="#DejaVuSans-49"/>
       <use x="147.412109" xlink:href="#DejaVuSans-49"/>
       <use x="211.035156" xlink:href="#DejaVuSans-46"/>
       <use x="242.822266" xlink:href="#DejaVuSans-53"/>
      </g>
     </g>
    </g>
    <g id="ytick_2">
     <g id="line2d_8">
      <g>
       <use style="stroke:#000000;stroke-width:0.8;" x="57.6" xlink:href="#m45c7c54a6f" y="260.070949"/>
      </g>
     </g>
     <g id="text_9">
      <!-- −11.4 -->
      <defs>
       <path d="M 37.796875 64.3125 
L 12.890625 25.390625 
L 37.796875 25.390625 
z
M 35.203125 72.90625 
L 47.609375 72.90625 
L 47.609375 25.390625 
L 58.015625 25.390625 
L 58.015625 17.1875 
L 47.609375 17.1875 
L 47.609375 0 
L 37.796875 0 
L 37.796875 17.1875 
L 4.890625 17.1875 
L 4.890625 26.703125 
z
" id="DejaVuSans-52"/>
      </defs>
      <g transform="translate(19.954687 263.870168)scale(0.1 -0.1)">
       <use xlink:href="#DejaVuSans-8722"/>
       <use x="83.789062" xlink:href="#DejaVuSans-49"/>
       <use x="147.412109" xlink:href="#DejaVuSans-49"/>
       <use x="211.035156" xlink:href="#DejaVuSans-46"/>
       <use x="242.822266" xlink:href="#DejaVuSans-52"/>
      </g>
     </g>
    </g>
    <g id="ytick_3">
     <g id="line2d_9">
      <g>
       <use style="stroke:#000000;stroke-width:0.8;" x="57.6" xlink:href="#m45c7c54a6f" y="213.105585"/>
      </g>
     </g>
     <g id="text_10">
      <!-- −11.3 -->
      <defs>
       <path d="M 40.578125 39.3125 
Q 47.65625 37.796875 51.625 33 
Q 55.609375 28.21875 55.609375 21.1875 
Q 55.609375 10.40625 48.1875 4.484375 
Q 40.765625 -1.421875 27.09375 -1.421875 
Q 22.515625 -1.421875 17.65625 -0.515625 
Q 12.796875 0.390625 7.625 2.203125 
L 7.625 11.71875 
Q 11.71875 9.328125 16.59375 8.109375 
Q 21.484375 6.890625 26.8125 6.890625 
Q 36.078125 6.890625 40.9375 10.546875 
Q 45.796875 14.203125 45.796875 21.1875 
Q 45.796875 27.640625 41.28125 31.265625 
Q 36.765625 34.90625 28.71875 34.90625 
L 20.21875 34.90625 
L 20.21875 43.015625 
L 29.109375 43.015625 
Q 36.375 43.015625 40.234375 45.921875 
Q 44.09375 48.828125 44.09375 54.296875 
Q 44.09375 59.90625 40.109375 62.90625 
Q 36.140625 65.921875 28.71875 65.921875 
Q 24.65625 65.921875 20.015625 65.03125 
Q 15.375 64.15625 9.8125 62.3125 
L 9.8125 71.09375 
Q 15.4375 72.65625 20.34375 73.4375 
Q 25.25 74.21875 29.59375 74.21875 
Q 40.828125 74.21875 47.359375 69.109375 
Q 53.90625 64.015625 53.90625 55.328125 
Q 53.90625 49.265625 50.4375 45.09375 
Q 46.96875 40.921875 40.578125 39.3125 
z
" id="DejaVuSans-51"/>
      </defs>
      <g transform="translate(19.954687 216.904804)scale(0.1 -0.1)">
       <use xlink:href="#DejaVuSans-8722"/>
       <use x="83.789062" xlink:href="#DejaVuSans-49"/>
       <use x="147.412109" xlink:href="#DejaVuSans-49"/>
       <use x="211.035156" xlink:href="#DejaVuSans-46"/>
       <use x="242.822266" xlink:href="#DejaVuSans-51"/>
      </g>
     </g>
    </g>
    <g id="ytick_4">
     <g id="line2d_10">
      <g>
       <use style="stroke:#000000;stroke-width:0.8;" x="57.6" xlink:href="#m45c7c54a6f" y="166.140221"/>
      </g>
     </g>
     <g id="text_11">
      <!-- −11.2 -->
      <g transform="translate(19.954687 169.93944)scale(0.1 -0.1)">
       <use xlink:href="#DejaVuSans-8722"/>
       <use x="83.789062" xlink:href="#DejaVuSans-49"/>
       <use x="147.412109" xlink:href="#DejaVuSans-49"/>
       <use x="211.035156" xlink:href="#DejaVuSans-46"/>
       <use x="242.822266" xlink:href="#DejaVuSans-50"/>
      </g>
     </g>
    </g>
    <g id="ytick_5">
     <g id="line2d_11">
      <g>
       <use style="stroke:#000000;stroke-width:0.8;" x="57.6" xlink:href="#m45c7c54a6f" y="119.174857"/>
      </g>
     </g>
     <g id="text_12">
      <!-- −11.1 -->
      <g transform="translate(19.954687 122.974075)scale(0.1 -0.1)">
       <use xlink:href="#DejaVuSans-8722"/>
       <use x="83.789062" xlink:href="#DejaVuSans-49"/>
       <use x="147.412109" xlink:href="#DejaVuSans-49"/>
       <use x="211.035156" xlink:href="#DejaVuSans-46"/>
       <use x="242.822266" xlink:href="#DejaVuSans-49"/>
      </g>
     </g>
    </g>
    <g id="ytick_6">
     <g id="line2d_12">
      <g>
       <use style="stroke:#000000;stroke-width:0.8;" x="57.6" xlink:href="#m45c7c54a6f" y="72.209492"/>
      </g>
     </g>
     <g id="text_13">
      <!-- −11.0 -->
      <g transform="translate(19.954687 76.008711)scale(0.1 -0.1)">
       <use xlink:href="#DejaVuSans-8722"/>
       <use x="83.789062" xlink:href="#DejaVuSans-49"/>
       <use x="147.412109" xlink:href="#DejaVuSans-49"/>
       <use x="211.035156" xlink:href="#DejaVuSans-46"/>
       <use x="242.822266" xlink:href="#DejaVuSans-48"/>
      </g>
     </g>
    </g>
    <g id="text_14">
     <!-- $E_{tot} (Mcal/mol)$ -->
     <defs>
      <path d="M 16.890625 72.90625 
L 62.984375 72.90625 
L 61.375 64.59375 
L 25.09375 64.59375 
L 20.90625 43.015625 
L 55.71875 43.015625 
L 54.109375 34.71875 
L 19.28125 34.71875 
L 14.203125 8.296875 
L 51.3125 8.296875 
L 49.703125 0 
L 2.6875 0 
z
" id="DejaVuSans-Oblique-69"/>
      <path d="M 25.390625 -1.421875 
Q 15.765625 -1.421875 10.171875 4.515625 
Q 4.59375 10.453125 4.59375 20.703125 
Q 4.59375 26.65625 6.515625 32.828125 
Q 8.453125 39.015625 11.53125 43.21875 
Q 16.359375 49.75 22.3125 52.875 
Q 28.265625 56 35.796875 56 
Q 45.125 56 50.859375 50.1875 
Q 56.59375 44.390625 56.59375 35.015625 
Q 56.59375 28.515625 54.6875 22.0625 
Q 52.78125 15.625 49.703125 11.375 
Q 44.921875 4.828125 38.96875 1.703125 
Q 33.015625 -1.421875 25.390625 -1.421875 
z
M 13.921875 21 
Q 13.921875 13.578125 17.015625 9.890625 
Q 20.125 6.203125 26.421875 6.203125 
Q 35.453125 6.203125 41.375 14.078125 
Q 47.3125 21.96875 47.3125 34.078125 
Q 47.3125 41.15625 44.140625 44.765625 
Q 40.96875 48.390625 34.8125 48.390625 
Q 29.734375 48.390625 25.78125 46.015625 
Q 21.828125 43.65625 18.703125 38.8125 
Q 16.40625 35.203125 15.15625 30.5625 
Q 13.921875 25.921875 13.921875 21 
z
" id="DejaVuSans-Oblique-111"/>
      <path d="M 16.890625 72.90625 
L 31.6875 72.90625 
L 40.1875 23.78125 
L 68.40625 72.90625 
L 83.59375 72.90625 
L 69.390625 0 
L 59.8125 0 
L 72.21875 63.921875 
L 43.609375 14.015625 
L 33.984375 14.015625 
L 24.703125 64.109375 
L 12.3125 0 
L 2.6875 0 
z
" id="DejaVuSans-Oblique-77"/>
      <path d="M 53.609375 52.59375 
L 51.8125 43.703125 
Q 48.578125 46.046875 44.9375 47.21875 
Q 41.3125 48.390625 37.40625 48.390625 
Q 33.109375 48.390625 29.21875 46.875 
Q 25.34375 45.359375 22.703125 42.578125 
Q 18.5 38.328125 16.203125 32.609375 
Q 13.921875 26.90625 13.921875 20.796875 
Q 13.921875 13.421875 17.609375 9.8125 
Q 21.296875 6.203125 28.8125 6.203125 
Q 32.515625 6.203125 36.6875 7.328125 
Q 40.875 8.453125 45.40625 10.6875 
L 43.703125 1.8125 
Q 39.796875 0.203125 35.671875 -0.609375 
Q 31.546875 -1.421875 27.203125 -1.421875 
Q 16.3125 -1.421875 10.453125 4.015625 
Q 4.59375 9.46875 4.59375 19.578125 
Q 4.59375 28.078125 7.640625 35.234375 
Q 10.6875 42.390625 16.703125 48.09375 
Q 20.796875 52 26.3125 54 
Q 31.84375 56 38.375 56 
Q 42.1875 56 45.9375 55.140625 
Q 49.703125 54.296875 53.609375 52.59375 
z
" id="DejaVuSans-Oblique-99"/>
      <path d="M 53.71875 31.203125 
L 47.609375 0 
L 38.625 0 
L 40.28125 8.296875 
Q 36.328125 3.421875 31.265625 1 
Q 26.21875 -1.421875 20.015625 -1.421875 
Q 13.03125 -1.421875 8.5625 2.84375 
Q 4.109375 7.125 4.109375 13.8125 
Q 4.109375 23.390625 11.75 28.953125 
Q 19.390625 34.515625 32.8125 34.515625 
L 45.3125 34.515625 
L 45.796875 36.921875 
Q 45.90625 37.3125 45.953125 37.765625 
Q 46 38.234375 46 39.203125 
Q 46 43.5625 42.453125 45.96875 
Q 38.921875 48.390625 32.515625 48.390625 
Q 28.125 48.390625 23.5 47.265625 
Q 18.890625 46.140625 14.015625 43.890625 
L 15.578125 52.203125 
Q 20.65625 54.109375 25.515625 55.046875 
Q 30.375 56 34.90625 56 
Q 44.578125 56 49.625 51.796875 
Q 54.6875 47.609375 54.6875 39.59375 
Q 54.6875 37.984375 54.4375 35.8125 
Q 54.203125 33.640625 53.71875 31.203125 
z
M 44 27.484375 
L 35.015625 27.484375 
Q 23.96875 27.484375 18.671875 24.53125 
Q 13.375 21.578125 13.375 15.375 
Q 13.375 11.078125 16.078125 8.640625 
Q 18.796875 6.203125 23.578125 6.203125 
Q 30.90625 6.203125 36.375 11.453125 
Q 41.84375 16.703125 43.609375 25.484375 
z
" id="DejaVuSans-Oblique-97"/>
      <path d="M 18.3125 75.984375 
L 27.296875 75.984375 
L 12.5 0 
L 3.515625 0 
z
" id="DejaVuSans-Oblique-108"/>
      <path d="M 25.390625 72.90625 
L 33.6875 72.90625 
L 8.296875 -9.28125 
L 0 -9.28125 
z
" id="DejaVuSans-47"/>
     </defs>
     <g transform="translate(13.875 209.178)rotate(-90)scale(0.1 -0.1)">
      <use transform="translate(0 0.015625)" xlink:href="#DejaVuSans-Oblique-69"/>
      <use transform="translate(63.183594 -16.390625)scale(0.7)" xlink:href="#DejaVuSans-Oblique-116"/>
      <use transform="translate(90.629883 -16.390625)scale(0.7)" xlink:href="#DejaVuSans-Oblique-111"/>
      <use transform="translate(133.457031 -16.390625)scale(0.7)" xlink:href="#DejaVuSans-Oblique-116"/>
      <use transform="translate(163.637695 0.015625)" xlink:href="#DejaVuSans-40"/>
      <use transform="translate(202.651367 0.015625)" xlink:href="#DejaVuSans-Oblique-77"/>
      <use transform="translate(288.930664 0.015625)" xlink:href="#DejaVuSans-Oblique-99"/>
      <use transform="translate(343.911133 0.015625)" xlink:href="#DejaVuSans-Oblique-97"/>
      <use transform="translate(405.19043 0.015625)" xlink:href="#DejaVuSans-Oblique-108"/>
      <use transform="translate(432.973633 0.015625)" xlink:href="#DejaVuSans-47"/>
      <use transform="translate(466.665039 0.015625)" xlink:href="#DejaVuSans-Oblique-109"/>
      <use transform="translate(564.077148 0.015625)" xlink:href="#DejaVuSans-Oblique-111"/>
      <use transform="translate(625.258789 0.015625)" xlink:href="#DejaVuSans-Oblique-108"/>
      <use transform="translate(653.041992 0.015625)" xlink:href="#DejaVuSans-41"/>
     </g>
    </g>
   </g>
   <g id="line2d_13">
    <path clip-path="url(#p8e668f969a)" d="M 73.832727 120.216079 
L 73.845907 120.199641 
L 73.938169 115.005272 
L 74.149052 75.554366 
L 74.241313 83.594366 
L 74.478557 136.808472 
L 74.531278 134.281736 
L 74.781701 112.561194 
L 74.939864 75.923044 
L 75.005765 80.431249 
L 75.34845 120.933709 
L 75.440711 129.550445 
L 75.638414 156.986671 
L 75.677954 154.973266 
L 75.770216 132.048063 
L 75.941558 94.36916 
L 75.981099 94.869341 
L 76.08654 105.259019 
L 76.574208 182.734963 
L 76.613748 180.03962 
L 77.39138 54.397878 
L 77.457281 64.244167 
L 77.826326 146.429327 
L 77.839506 146.745874 
L 77.879047 145.554832 
L 78.010849 135.436614 
L 78.261273 91.996 
L 78.340354 98.311902 
L 78.577597 158.699968 
L 78.669859 150.234931 
L 78.986183 104.45732 
L 79.091625 91.469049 
L 79.236607 53.568 
L 79.289328 62.064504 
L 79.605652 113.620733 
L 79.697914 123.605099 
L 79.816535 138.58752 
L 79.869256 136.765734 
L 79.948337 120.420378 
L 80.1065 82.864994 
L 80.14604 84.038659 
L 80.238302 96.746547 
L 80.343743 108.288285 
L 80.383284 106.626181 
L 80.488725 89.500261 
L 80.633708 68.900782 
L 80.673248 70.601868 
L 80.752329 82.673845 
L 81.055474 152.748517 
L 81.095014 151.345661 
L 81.174095 137.610171 
L 81.384979 108.596378 
L 81.398159 108.664008 
L 81.411339 108.694536 
L 81.46406 112.940204 
L 81.767204 162.044371 
L 81.859466 157.632445 
L 82.202151 112.112675 
L 82.360313 102.127369 
L 82.439394 91.740039 
L 82.610737 60.300955 
L 82.663457 64.331522 
L 83.217026 171.453882 
L 83.282927 167.074362 
L 83.586071 115.473986 
L 83.704693 120.563153 
L 83.823315 130.060489 
L 84.100099 182.736841 
L 84.20554 195.283169 
L 84.258261 193.498015 
L 84.719568 150.955849 
L 84.89091 138.511436 
L 84.930451 138.982029 
L 85.009532 138.88575 
L 85.114974 143.327265 
L 85.233595 169.238996 
L 85.444478 196.858387 
L 85.484019 197.727246 
L 85.510379 196.884218 
L 85.629001 181.30064 
L 85.866245 129.633104 
L 85.945326 132.037731 
L 86.037587 145.122751 
L 86.327551 186.810617 
L 86.340732 186.724201 
L 86.367092 186.840675 
L 86.393452 186.566867 
L 86.419813 186.595516 
L 86.485714 185.600789 
L 86.604336 171.043405 
L 86.815219 152.887534 
L 87.092003 131.259984 
L 87.157904 136.016636 
L 87.289706 174.18163 
L 87.487409 196.947151 
L 87.513769 197.338373 
L 87.540129 196.732989 
L 87.658751 185.577306 
L 87.830094 147.164805 
L 87.895995 151.622757 
L 88.133238 164.258788 
L 88.27822 168.879241 
L 88.436383 190.71203 
L 88.607725 229.077096 
L 88.634085 227.753612 
L 88.726347 212.920541 
L 89.016311 165.850444 
L 89.148113 158.62952 
L 89.187654 160.610988 
L 89.306275 179.037849 
L 89.464438 212.911148 
L 89.503978 210.132677 
L 89.925744 160.967925 
L 89.938925 160.593142 
L 89.978465 162.076308 
L 90.110267 177.934633 
L 90.176168 181.99244 
L 90.215709 179.544136 
L 90.30797 156.234286 
L 90.479313 121.470993 
L 90.505673 122.581254 
L 90.584754 132.90565 
L 90.887899 175.983691 
L 91.032881 181.437779 
L 91.072421 180.954506 
L 91.138322 180.014259 
L 91.177863 181.025893 
L 91.349205 191.922327 
L 91.401926 189.861957 
L 91.533728 171.248174 
L 91.718251 139.453092 
L 91.757791 141.603166 
L 92.074116 193.142487 
L 92.205918 224.281463 
L 92.258639 220.905123 
L 92.377261 202.582995 
L 92.601324 177.387956 
L 92.667225 173.480907 
L 92.772666 168.003806 
L 92.812207 168.970354 
L 92.904468 183.663468 
L 93.049451 207.440153 
L 93.088991 207.117971 
L 93.168072 201.045349 
L 93.260334 174.492541 
L 93.405316 147.390708 
L 93.431676 147.841106 
L 93.497577 154.058381 
L 93.800722 195.666406 
L 93.827082 195.463516 
L 93.853442 195.435806 
L 94.169767 211.855367 
L 94.301569 229.803181 
L 94.446551 252.789439 
L 94.486092 249.061329 
L 94.934218 181.302989 
L 94.986939 180.293703 
L 95.02648 181.785323 
L 95.092381 186.718095 
L 95.487786 242.729458 
L 95.580048 248.618445 
L 95.619588 246.282858 
L 95.73821 211.455222 
L 95.856832 196.0271 
L 95.896372 196.423488 
L 95.988634 199.249863 
L 96.133616 214.940522 
L 96.344499 249.164183 
L 96.370859 248.669637 
L 96.42358 243.099545 
L 96.621283 190.962825 
L 96.713545 198.307268 
L 97.174851 251.551902 
L 97.306653 275.468074 
L 97.346194 273.728947 
L 97.491176 245.038275 
L 97.715239 218.60382 
L 97.75478 218.105048 
L 97.807501 218.665814 
L 98.018384 223.046274 
L 98.150186 226.263871 
L 98.189726 224.633703 
L 98.41379 206.208721 
L 98.598312 188.344975 
L 98.637853 189.076226 
L 98.690574 195.492164 
L 98.980538 256.325461 
L 99.033259 253.407034 
L 99.204601 227.331394 
L 99.428665 190.221711 
L 99.494566 190.516654 
L 99.586827 192.668607 
L 99.758169 207.803195 
L 99.876791 239.656045 
L 99.969053 257.226257 
L 100.021773 253.676615 
L 100.50944 182.881025 
L 100.641242 164.145602 
L 100.680783 165.85608 
L 100.759864 188.022323 
L 100.944387 230.405747 
L 101.089369 241.560021 
L 101.14209 237.618218 
L 101.432054 188.279693 
L 101.524315 195.727461 
L 101.722018 227.556358 
L 101.8011 236.630536 
L 101.85382 234.625115 
L 101.985622 219.6751 
L 102.222866 183.244067 
L 102.275587 184.355268 
L 102.381028 202.191774 
L 102.591911 249.022347 
L 102.657812 245.092286 
L 103.013677 190.194471 
L 103.15866 169.263887 
L 103.21138 171.385782 
L 103.422263 185.561808 
L 103.488164 183.336119 
L 103.712228 163.475876 
L 103.84403 147.111734 
L 103.89675 149.911339 
L 104.068093 187.413652 
L 104.186715 195.523162 
L 104.213075 195.06431 
L 104.265796 193.31485 
L 104.318517 194.138153 
L 104.450319 210.715518 
L 104.674382 240.734839 
L 104.687562 240.531479 
L 104.753463 231.650798 
L 105.069788 172.038601 
L 105.096148 173.301969 
L 105.188409 189.900938 
L 105.307031 206.914611 
L 105.346572 205.050086 
L 105.636536 174.783257 
L 105.87378 115.806031 
L 105.939681 120.031505 
L 106.387807 212.817218 
L 106.466888 205.852254 
L 106.664591 173.674874 
L 106.717312 176.980766 
L 106.941375 211.207245 
L 107.007276 206.715008 
L 107.534484 148.808592 
L 107.626745 155.536851 
L 107.982611 204.711465 
L 108.061692 201.557741 
L 108.180314 169.589827 
L 108.285755 152.248336 
L 108.325296 154.445845 
L 108.470278 185.07055 
L 108.5889 200.368578 
L 108.62844 199.364459 
L 108.852503 181.001941 
L 108.892044 179.581238 
L 108.944765 181.903676 
L 109.050206 199.883426 
L 109.247909 242.29268 
L 109.27427 241.257564 
L 109.353351 226.836379 
L 109.616955 182.433915 
L 109.630135 182.302881 
L 109.656495 182.895114 
L 109.748757 188.440785 
L 109.854198 199.829885 
L 109.906919 198.222261 
L 110.078262 179.896846 
L 110.223244 159.543935 
L 110.420947 131.587333 
L 110.473667 136.869058 
L 110.789992 192.399026 
L 111.000875 210.702367 
L 111.040416 208.801209 
L 111.132677 192.747039 
L 111.369921 146.970368 
L 111.422641 154.437391 
L 111.673065 183.636698 
L 111.738966 179.323868 
L 111.870768 166.464751 
L 111.936669 168.228301 
L 112.200273 175.214399 
L 112.345255 201.4779 
L 112.503417 245.254786 
L 112.569318 241.256624 
L 112.727481 203.968943 
L 112.938364 176.090303 
L 113.083346 158.37121 
L 113.39967 109.13601 
L 113.452391 116.617123 
L 113.702815 173.402475 
L 113.729175 171.773716 
L 113.887338 150.238218 
L 114.0455 121.024822 
L 114.098221 125.008424 
L 114.388185 157.488261 
L 114.440906 156.525941 
L 114.533167 147.388829 
L 114.783591 117.558778 
L 114.809951 119.664236 
L 115.310799 200.14925 
L 115.337159 199.129162 
L 115.42942 181.019318 
L 115.600763 150.960076 
L 115.627123 151.691326 
L 115.732565 164.715761 
L 116.08843 252.481346 
L 116.193872 237.599431 
L 116.668359 164.892821 
L 116.971503 137.356088 
L 117.063765 143.271846 
L 117.248287 175.069745 
L 117.43281 197.686856 
L 117.44599 197.610772 
L 117.472351 196.997874 
L 117.577792 184.940926 
L 117.696414 141.988752 
L 117.815036 126.856981 
L 117.841396 127.599034 
L 117.946838 139.565339 
L 118.170901 178.64381 
L 118.210441 176.503128 
L 118.421325 158.286203 
L 118.474045 162.082413 
L 118.579487 193.747871 
L 118.698109 218.836299 
L 118.737649 217.459744 
L 118.869451 196.144044 
L 119.106695 170.459156 
L 119.119875 170.628701 
L 119.212136 178.620327 
L 119.436199 231.618392 
L 119.528461 220.226474 
L 119.871146 174.605258 
L 119.910686 173.640589 
L 119.976587 174.671479 
L 120.068849 183.447427 
L 120.213831 217.439079 
L 120.371993 253.546051 
L 120.411534 252.271881 
L 120.556516 236.056619 
L 120.84648 192.710876 
L 120.872841 193.783095 
L 121.149625 211.094998 
L 121.189165 212.048395 
L 121.255066 210.99731 
L 121.334147 209.522597 
L 121.386868 210.53564 
L 121.426409 210.615012 
L 121.452769 210.452042 
L 121.51867 206.368873 
L 121.597751 187.758848 
L 121.782274 155.556576 
L 121.795454 155.573483 
L 121.834995 158.509288 
L 122.441284 253.08673 
L 122.520365 243.625557 
L 122.84987 184.576944 
L 122.915771 182.14179 
L 122.968492 184.024162 
L 123.153014 204.7326 
L 123.377078 245.413998 
L 123.469339 234.012687 
L 123.693402 200.555031 
L 123.706582 200.586498 
L 123.719763 200.526382 
L 123.759303 200.815688 
L 123.891105 206.030723 
L 124.20743 249.781308 
L 124.299691 244.894561 
L 124.391953 225.013653 
L 124.576475 191.459249 
L 124.602836 192.032696 
L 124.826899 202.078587 
L 124.958701 209.724079 
L 125.116863 233.551017 
L 125.169584 229.865645 
L 125.420008 186.991903 
L 125.499089 188.645084 
L 125.56499 195.997512 
L 125.762693 248.662123 
L 125.868134 235.884256 
L 126.303081 169.699726 
L 126.342621 168.837442 
L 126.382162 170.235601 
L 126.461243 187.401441 
L 126.606225 220.874596 
L 126.645766 218.655952 
L 126.93573 185.77644 
L 127.001631 188.157584 
L 127.120253 201.360956 
L 127.331136 251.692328 
L 127.383857 248.496805 
L 127.489298 231.165646 
L 127.792443 186.891867 
L 127.937425 183.486878 
L 127.950605 183.5113 
L 128.003326 184.37922 
L 128.095587 192.073556 
L 128.398732 233.784435 
L 128.464633 227.582189 
L 128.688696 184.597139 
L 128.767777 187.792193 
L 128.886399 200.59636 
L 129.150003 257.292478 
L 129.189543 254.870474 
L 129.598129 196.209326 
L 129.703571 198.587652 
L 129.756292 199.586605 
L 129.795832 198.494191 
L 129.888094 188.114845 
L 130.072616 174.065156 
L 130.125337 170.998788 
L 130.178058 173.649513 
L 130.33622 213.165231 
L 130.468022 223.980885 
L 130.481202 223.859714 
L 130.599824 215.967185 
L 130.731626 189.461342 
L 130.902968 156.091511 
L 130.929329 157.029879 
L 131.179753 182.633987 
L 131.416996 209.734881 
L 131.456537 208.057748 
L 131.588339 193.924461 
L 131.825582 155.335369 
L 131.865123 156.910118 
L 131.970564 180.495184 
L 132.168267 213.747602 
L 132.181447 213.822276 
L 132.194628 213.604827 
L 132.273709 206.343512 
L 132.800916 126.572371 
L 132.866817 135.590191 
L 133.143602 189.249528 
L 133.169962 190.003322 
L 133.222683 188.751226 
L 133.328124 178.553167 
L 133.71035 137.071948 
L 133.72353 137.151319 
L 133.74989 137.450958 
L 133.802611 140.886944 
L 133.987134 188.882729 
L 134.118936 207.152255 
L 134.158476 205.47794 
L 134.329819 180.920221 
L 134.514342 150.828103 
L 134.553882 151.192554 
L 134.632963 153.168857 
L 134.764765 164.776347 
L 135.002009 196.804846 
L 135.10745 193.998196 
L 135.160171 193.535587 
L 135.199712 194.218464 
L 135.331514 195.224932 
L 135.344694 195.170921 
L 135.384235 194.919657 
L 135.397415 195.44426 
L 135.634658 216.523724 
L 135.713739 211.385713 
L 136.320028 124.428402 
L 136.346389 125.930824 
L 136.45183 156.531577 
L 136.623173 179.167474 
L 136.689074 183.683663 
L 136.873597 215.29605 
L 136.939497 209.673356 
L 137.282183 176.587196 
L 137.295363 176.78633 
L 137.374444 182.709132 
L 137.598507 210.786435 
L 137.651228 207.722885 
L 137.76985 180.047135 
L 137.901652 155.51102 
L 137.941192 157.353001 
L 138.099355 178.330081 
L 138.165256 182.469139 
L 138.217976 180.617294 
L 138.415679 158.500835 
L 138.48158 164.388882 
L 138.718824 214.777082 
L 138.784725 209.961254 
L 138.995608 184.585398 
L 139.048329 186.440999 
L 139.549176 222.022429 
L 139.720518 248.983836 
L 139.760059 246.454281 
L 140.168645 175.632391 
L 140.221366 175.322419 
L 140.300447 173.913458 
L 140.326807 175.174948 
L 140.432249 192.715572 
L 140.616772 231.028038 
L 140.656312 228.137319 
L 141.012178 190.740209 
L 141.104439 187.998371 
L 141.143979 188.960691 
L 141.20988 197.780317 
L 141.381223 247.692288 
L 141.473484 238.966593 
L 141.816169 189.537896 
L 141.85571 191.278432 
L 142.092953 219.319103 
L 142.224755 255.656205 
L 142.264296 253.458696 
L 142.461999 215.167364 
L 142.620161 199.179415 
L 142.646522 199.377139 
L 142.659702 199.374321 
L 142.765143 196.81377 
L 142.817864 197.932485 
L 142.949666 213.590268 
L 143.107828 243.530218 
L 143.160549 240.311212 
L 143.476874 181.307685 
L 143.582315 185.173874 
L 143.766838 209.42444 
L 143.91182 242.704566 
L 143.977721 237.42566 
L 144.307226 198.473995 
L 144.412668 186.503463 
L 144.676272 141.568412 
L 144.728992 144.511262 
L 144.939875 162.216734 
L 145.071677 181.377194 
L 145.124398 179.915162 
L 145.216659 171.764323 
L 145.348461 156.996534 
L 145.414362 160.8801 
L 145.519804 191.748086 
L 145.651606 217.252627 
L 145.691146 215.977517 
L 145.849309 198.951164 
L 146.152453 144.695366 
L 146.231534 150.021708 
L 146.534679 174.641421 
L 146.903724 204.184984 
L 146.943265 201.290978 
L 147.114607 160.56778 
L 147.28595 148.403281 
L 147.365031 145.329398 
L 147.430932 146.362167 
L 147.483653 155.472038 
L 147.668176 201.760632 
L 147.720896 200.268072 
L 148.182203 164.116483 
L 148.300825 155.611525 
L 148.340366 157.283492 
L 148.432627 180.523364 
L 148.64351 217.032359 
L 148.66987 216.308153 
L 148.801672 195.960879 
L 148.920294 181.78955 
L 148.959835 185.036735 
L 149.078456 220.43453 
L 149.157538 232.368429 
L 149.223439 229.889128 
L 149.368421 206.148606 
L 149.618844 169.31414 
L 149.632025 169.574798 
L 149.724286 181.349015 
L 150.211953 278.154023 
L 150.264674 273.733174 
L 150.778701 188.394289 
L 150.791882 188.574166 
L 150.870963 197.903836 
L 151.108206 239.425445 
L 151.174107 235.660231 
L 151.253188 211.698033 
L 151.398171 179.956492 
L 151.424531 180.260827 
L 151.516792 184.377341 
L 151.648594 209.244562 
L 151.819937 234.374789 
L 151.833117 234.119768 
L 152.00446 228.619184 
L 152.202162 206.438852 
L 152.268063 208.975921 
L 152.399865 215.298398 
L 152.452586 214.623506 
L 152.663469 202.899542 
L 152.900713 152.739593 
L 152.979794 162.112941 
L 153.190677 205.43802 
L 153.269758 202.436933 
L 153.3752 198.751091 
L 153.638804 181.012743 
L 153.678344 182.20895 
L 153.770606 194.689526 
L 154.021029 235.258208 
L 154.034209 235.091011 
L 154.126471 229.130637 
L 154.245093 198.845961 
L 154.442795 161.604306 
L 154.548237 157.710408 
L 154.587778 158.982699 
L 154.680039 177.316568 
L 154.890922 214.969171 
L 154.917282 215.160789 
L 154.930463 214.835789 
L 155.009544 206.208721 
L 155.312688 164.509583 
L 155.45767 152.398155 
L 155.853076 105.758261 
L 155.905797 109.657326 
L 156.261662 175.432788 
L 156.353924 169.715694 
L 156.551627 154.08703 
L 156.604347 155.194003 
L 156.670248 162.146756 
L 156.867951 214.230405 
L 156.960213 204.033286 
L 157.197456 173.216023 
L 157.210636 173.340481 
L 157.316078 177.890485 
L 157.421519 193.920234 
L 157.592862 216.430263 
L 157.619222 215.439764 
L 157.685123 204.102794 
L 157.948727 143.872063 
L 158.13325 121.742453 
L 158.185971 123.376848 
L 158.265052 140.389581 
L 158.475935 179.176867 
L 158.489115 179.167474 
L 158.541836 177.576757 
L 158.660458 164.241881 
L 158.884521 146.372029 
L 158.924062 147.979184 
L 159.029503 174.605728 
L 159.227206 212.989111 
L 159.253566 211.965736 
L 159.359008 198.951164 
L 159.635792 155.359791 
L 159.648972 155.473917 
L 159.754414 164.236715 
L 159.952117 181.501182 
L 160.004837 178.376577 
L 160.136639 169.27328 
L 160.18936 171.189937 
L 160.268441 180.536984 
L 160.479324 233.347657 
L 160.571586 221.420333 
L 160.953811 163.991086 
L 161.151514 150.628031 
L 161.177875 151.330163 
L 161.243776 163.339676 
L 161.454659 210.406486 
L 161.481019 210.172598 
L 161.54692 205.15341 
L 161.823704 167.589102 
L 161.876425 170.370391 
L 162.021407 198.075729 
L 162.20593 247.07986 
L 162.271831 242.811648 
L 162.443173 223.447358 
L 162.759498 178.242725 
L 162.825399 177.078454 
L 162.86494 177.814871 
L 162.957201 184.036842 
L 163.049462 215.800458 
L 163.141724 239.946291 
L 163.194444 237.012364 
L 163.444868 189.70838 
L 163.642571 172.50074 
L 163.774373 163.389929 
L 163.813914 165.245061 
L 163.879815 184.684964 
L 164.037977 225.018819 
L 164.064337 224.229801 
L 164.459743 163.983571 
L 164.670626 146.918706 
L 164.736527 154.901879 
L 165.052852 210.784557 
L 165.066032 210.787375 
L 165.197834 208.689901 
L 165.329636 194.925293 
L 165.566879 149.805667 
L 165.60642 152.645663 
L 165.962285 197.242564 
L 166.054547 200.315038 
L 166.094087 199.100044 
L 166.212709 183.857435 
L 166.397232 147.219285 
L 166.449952 150.01889 
L 166.555394 172.988241 
L 166.739917 196.195236 
L 166.792638 194.185588 
L 166.911259 177.931815 
L 167.385746 122.906255 
L 167.543909 131.208792 
L 167.807512 183.487817 
L 167.926134 198.280028 
L 167.978855 197.243503 
L 168.071116 192.075434 
L 168.137017 194.457987 
L 168.150198 194.636456 
L 168.176558 193.991621 
L 168.664225 160.671574 
L 168.703766 163.961498 
L 169.059631 222.704836 
L 169.138712 217.219281 
L 169.323235 177.537775 
L 169.494577 149.066902 
L 169.520938 148.812819 
L 169.547298 149.236447 
L 169.626379 160.494514 
L 169.955884 212.714833 
L 169.995425 211.330294 
L 170.074506 195.256398 
L 170.245848 162.419625 
L 170.272209 163.746396 
L 170.522632 190.71109 
L 170.878498 251.295471 
L 170.944399 243.695066 
L 171.155282 191.641944 
L 171.194822 192.557299 
L 171.313444 198.873201 
L 171.603408 226.890389 
L 171.629769 226.085403 
L 171.72203 209.214974 
L 171.853832 178.432466 
L 171.906553 181.460323 
L 172.262418 227.319183 
L 172.341499 226.229117 
L 172.486481 222.941541 
L 173.013689 165.698746 
L 173.07959 169.148822 
L 173.198212 210.912302 
L 173.382735 234.657051 
L 173.409095 235.07974 
L 173.448636 233.49278 
L 173.540897 221.22167 
L 173.804501 167.517245 
L 173.923123 173.088746 
L 174.186727 214.30508 
L 174.331709 209.385928 
L 174.476691 193.309684 
L 174.687574 179.631491 
L 174.819376 174.928849 
L 174.858916 176.67784 
L 174.990718 203.923856 
L 175.254322 241.489573 
L 175.280683 241.878915 
L 175.307043 241.063597 
L 175.372944 229.948304 
L 175.557467 185.077595 
L 175.597007 186.588471 
L 175.76835 200.341338 
L 175.873791 198.624285 
L 175.966053 195.492164 
L 176.058314 192.930204 
L 176.097855 194.206253 
L 176.203296 213.014472 
L 176.308738 227.05148 
L 176.361459 225.155488 
L 176.45372 214.330442 
L 176.717324 159.4965 
L 176.783225 167.196941 
L 176.994108 203.892389 
L 177.020468 203.329744 
L 177.16545 194.737901 
L 177.297252 185.214734 
L 177.336793 187.630162 
L 177.534496 228.55672 
L 177.666298 221.726547 
L 177.758559 209.107893 
L 177.943082 165.812403 
L 178.022163 169.695029 
L 178.153965 190.016942 
L 178.338488 207.651028 
L 178.351668 207.698932 
L 178.378028 207.495572 
L 178.417569 206.545463 
L 178.457109 207.675919 
L 178.628452 213.238027 
L 178.654812 212.875455 
L 178.786614 207.047053 
L 178.905236 196.66489 
L 179.129299 166.746544 
L 179.16884 170.022378 
L 179.616967 227.159501 
L 179.643327 227.333742 
L 179.682868 227.108778 
L 179.761949 221.26159 
L 179.906931 213.358728 
L 179.946471 214.214437 
L 179.999192 215.32235 
L 180.038733 213.841532 
L 180.117814 194.442489 
L 180.249616 166.457707 
L 180.289156 169.28737 
L 180.829544 256.596921 
L 180.908626 251.359344 
L 181.053608 238.191195 
L 181.119509 238.519013 
L 181.19859 231.540899 
L 181.475374 185.034856 
L 181.567635 189.175323 
L 181.88396 220.001509 
L 181.91032 219.939045 
L 181.923501 219.941863 
L 182.200285 216.226903 
L 182.279366 206.016163 
L 182.54297 170.48076 
L 182.608871 176.220867 
L 182.753853 218.585504 
L 182.938376 241.117137 
L 182.951556 241.162224 
L 182.991096 238.186029 
L 183.346962 186.832221 
L 183.399682 189.031139 
L 183.518304 205.328121 
L 183.689647 240.342209 
L 183.755548 235.925116 
L 184.190494 183.113503 
L 184.269575 186.79324 
L 184.427737 215.895797 
L 184.546359 239.999831 
L 184.5859 237.767098 
L 184.994486 193.629518 
L 185.113108 188.890713 
L 185.152648 190.333958 
L 185.231729 203.614824 
L 185.389892 238.611065 
L 185.429432 237.13964 
L 185.534874 211.206775 
L 185.693036 191.615643 
L 185.706216 192.088115 
L 185.772117 194.959577 
L 185.811658 193.553904 
L 185.917099 172.234446 
L 186.101622 146.231133 
L 186.114802 146.480519 
L 186.246604 153.075865 
L 186.523388 185.709279 
L 186.60247 183.893128 
L 186.694731 172.70363 
L 186.892434 155.418028 
L 186.905614 155.425543 
L 186.971515 161.102246 
L 187.208758 217.268125 
L 187.34056 211.646841 
L 187.446002 194.532662 
L 187.590984 166.925482 
L 187.643705 167.056985 
L 187.749146 166.035488 
L 187.801867 165.145964 
L 187.828228 165.678551 
L 187.894129 175.360461 
L 188.131372 229.694691 
L 188.197273 226.908706 
L 188.777202 136.85262 
L 188.922184 115.727599 
L 188.961724 117.886127 
L 189.212148 162.663845 
L 189.475752 197.182448 
L 189.633914 203.149867 
L 189.699815 200.821324 
L 189.778896 188.567121 
L 189.963419 163.112833 
L 189.976599 163.32042 
L 190.05568 166.809008 
L 190.147942 185.210977 
L 190.292924 210.909485 
L 190.332464 209.822236 
L 190.556528 187.825069 
L 190.68833 190.937933 
L 190.72787 187.266651 
L 190.912393 130.58791 
L 191.017835 139.524479 
L 191.162817 153.672326 
L 191.215538 151.78197 
L 191.426421 129.076564 
L 191.584583 112.841577 
L 191.624124 114.394722 
L 191.703205 136.808472 
L 191.927268 181.565995 
L 192.07225 200.223455 
L 192.111791 197.971466 
L 192.243593 171.282459 
L 192.375395 148.587855 
L 192.414935 149.587748 
L 192.73126 184.380629 
L 192.889422 202.241087 
L 192.915783 202.21009 
L 192.968503 201.076816 
L 193.139846 192.170774 
L 193.218927 169.257782 
L 193.363909 132.56703 
L 193.39027 133.440586 
L 193.469351 143.994643 
L 193.772495 194.038586 
L 193.877937 198.679234 
L 193.917477 197.547838 
L 194.022919 177.265376 
L 194.194261 146.936553 
L 194.233802 147.777703 
L 194.312883 158.902858 
L 194.642388 210.428559 
L 194.655568 210.52249 
L 194.681929 209.924621 
L 194.76101 198.976525 
L 195.011433 168.183214 
L 195.103695 166.301782 
L 195.143235 167.616812 
L 195.235497 188.763906 
L 195.406839 222.178354 
L 195.4332 221.287891 
L 195.591362 204.432022 
L 195.828606 164.714352 
L 195.947227 144.731999 
L 195.999948 148.780413 
L 196.289912 197.411169 
L 196.342633 195.542417 
L 196.619417 174.018661 
L 196.738039 147.200029 
L 196.79076 153.900577 
L 197.146625 221.105195 
L 197.317967 236.160413 
L 197.397049 234.776813 
L 197.50249 221.157327 
L 197.805635 162.053295 
L 197.858355 164.974071 
L 198.332842 222.423513 
L 198.477825 239.276095 
L 198.530545 235.490687 
L 198.662347 194.057373 
L 198.86005 167.921147 
L 198.87323 168.024002 
L 198.939131 175.727261 
L 199.229096 224.195516 
L 199.268636 222.232834 
L 199.584961 190.172867 
L 199.650862 191.723664 
L 199.888105 197.452968 
L 200.072628 219.046234 
L 200.138529 216.838862 
L 200.296691 210.895865 
L 200.454854 192.263765 
L 200.520755 186.612893 
L 200.573475 188.322902 
L 200.823899 219.226111 
L 200.916161 211.848792 
L 201.100683 176.502189 
L 201.166584 182.642441 
L 201.403828 221.776331 
L 201.469729 216.061585 
L 201.680612 167.4839 
L 201.746513 171.47032 
L 202.221 218.146847 
L 202.392342 228.928216 
L 202.431883 228.132153 
L 202.524144 211.646371 
L 202.721847 180.086586 
L 202.735027 180.54121 
L 202.880009 191.435766 
L 202.985451 219.001617 
L 203.090893 244.112118 
L 203.143613 241.70984 
L 203.697181 194.92858 
L 203.776263 190.371531 
L 203.973966 147.175137 
L 204.053047 155.942162 
L 204.395732 208.242791 
L 204.646155 219.428062 
L 204.685696 215.812199 
L 204.896579 176.538352 
L 204.96248 184.265094 
L 205.212904 223.238362 
L 205.239264 223.044865 
L 205.278805 222.53576 
L 205.318345 223.217698 
L 205.397427 229.023556 
L 205.502868 264.285151 
L 205.60831 278.373352 
L 205.64785 277.24947 
L 205.740112 261.983848 
L 205.990535 220.128316 
L 206.109157 210.124224 
L 206.29368 178.143159 
L 206.385941 184.730051 
L 206.610004 206.382493 
L 206.649545 205.812334 
L 206.702266 205.094233 
L 206.741806 205.608504 
L 206.794527 206.761973 
L 206.834068 205.709479 
L 206.913149 197.646466 
L 207.216293 150.655271 
L 207.242654 151.373841 
L 207.308555 161.810954 
L 207.598519 215.237343 
L 207.611699 215.365558 
L 207.624879 214.98326 
L 207.914844 198.294588 
L 208.112547 175.198431 
L 208.178448 179.705697 
L 208.34979 215.536043 
L 208.481592 229.214235 
L 208.507952 228.242522 
L 208.587034 218.071233 
L 208.811097 188.901985 
L 208.863818 191.001806 
L 209.087881 214.256236 
L 209.193323 224.337352 
L 209.246043 221.888578 
L 209.496467 171.628124 
L 209.641449 175.082426 
L 209.68099 173.861327 
L 209.825972 154.143858 
L 209.878693 150.49371 
L 209.918233 153.064594 
L 210.050035 184.390022 
L 210.247738 221.854293 
L 210.274098 221.163433 
L 210.37954 206.191344 
L 210.524522 182.461624 
L 210.577243 185.379582 
L 210.827667 201.981838 
L 210.880387 202.065906 
L 210.893568 201.940979 
L 211.130811 193.146714 
L 211.196712 194.805061 
L 211.275793 203.679167 
L 211.473496 242.113742 
L 211.539397 237.345349 
L 211.776641 188.724455 
L 211.908443 151.820012 
L 211.961163 157.012033 
L 212.237947 209.338493 
L 212.462011 229.70925 
L 212.475191 229.689055 
L 212.501551 229.735551 
L 212.554272 226.605309 
L 212.633353 207.412913 
L 212.804696 171.292321 
L 212.817876 171.772777 
L 212.923317 182.001833 
L 213.279183 232.147692 
L 213.292363 232.188082 
L 213.305543 232.050943 
L 213.424165 225.502093 
L 213.687769 193.35524 
L 213.859111 194.741188 
L 213.938192 191.803035 
L 213.977733 193.65394 
L 214.149076 210.606088 
L 214.214977 205.96638 
L 214.412679 181.901797 
L 214.597202 138.721841 
L 214.676283 141.282393 
L 214.821265 158.064996 
L 215.15077 211.112375 
L 215.163951 211.289904 
L 215.190311 210.721153 
L 215.295752 202.220892 
L 215.440735 195.076991 
L 215.453915 195.155423 
L 215.506636 198.811676 
L 215.757059 234.215577 
L 215.80978 232.047656 
L 215.928402 225.334896 
L 216.152465 181.683408 
L 216.231546 185.28706 
L 216.389709 207.274365 
L 216.653312 257.906785 
L 216.679673 257.347428 
L 216.785114 248.139868 
L 217.14098 214.424372 
L 217.206881 219.063611 
L 217.259601 221.415637 
L 217.312322 219.794392 
L 217.430944 207.929063 
L 217.707728 145.185684 
L 217.83953 157.186274 
L 218.208575 202.667533 
L 218.248116 203.248494 
L 218.300837 204.620822 
L 218.353558 203.81067 
L 218.432639 201.103586 
L 218.472179 202.867605 
L 218.669882 221.249849 
L 218.735783 218.463394 
L 218.841225 202.768978 
L 218.959846 186.354114 
L 219.012567 189.666111 
L 219.236631 231.991767 
L 219.342072 226.464413 
L 219.592496 212.866062 
L 220.066983 200.212184 
L 220.119704 198.606438 
L 220.185605 199.643433 
L 220.198785 199.750044 
L 220.225145 199.441952 
L 220.291046 191.567269 
L 220.422848 172.959592 
L 220.475569 174.988965 
L 220.58101 189.444434 
L 220.844614 231.399064 
L 220.857794 231.420668 
L 220.870975 231.26944 
L 220.950056 224.531319 
L 221.055497 197.340721 
L 221.200479 163.880247 
L 221.24002 165.00272 
L 221.411363 179.784129 
L 221.688147 216.551434 
L 221.793588 222.448875 
L 221.859489 220.723367 
L 221.978111 216.500242 
L 222.030832 217.134744 
L 222.109913 222.996491 
L 222.320796 261.895084 
L 222.413057 253.044461 
L 222.676661 220.734169 
L 222.716202 220.795694 
L 222.927085 215.167364 
L 223.164328 183.767731 
L 223.25659 189.656248 
L 223.401572 209.100379 
L 223.533374 231.30983 
L 223.572914 229.698918 
L 223.678356 206.013345 
L 223.849699 187.692626 
L 224.021041 183.522572 
L 224.047401 184.444971 
L 224.245104 207.407747 
L 224.455987 249.409342 
L 224.508708 244.581302 
L 224.851393 189.036775 
L 224.970015 181.756674 
L 225.167718 156.413224 
L 225.233619 164.203839 
L 225.431322 201.825913 
L 225.470862 201.079634 
L 225.563124 190.678215 
L 225.826728 139.281668 
L 225.945349 142.79186 
L 226.050791 154.779299 
L 226.301215 189.270663 
L 226.367116 191.094797 
L 226.419836 189.644037 
L 226.867963 167.149037 
L 226.894323 167.329384 
L 227.026125 172.670285 
L 227.197468 185.041432 
L 227.36881 225.111811 
L 227.434711 219.975678 
L 227.724676 186.978753 
L 227.737856 187.124815 
L 227.935559 190.764631 
L 227.975099 190.282297 
L 228.041 185.118924 
L 228.146442 179.004034 
L 228.185982 180.40642 
L 228.278244 193.594764 
L 228.475947 209.553125 
L 228.568208 210.096514 
L 228.581388 209.750849 
L 228.67365 199.495492 
L 228.937254 154.752999 
L 228.976794 157.019077 
L 229.200857 192.640897 
L 229.35902 207.199221 
L 229.38538 206.602761 
L 229.530362 192.741403 
L 229.793966 154.062608 
L 229.859867 159.908856 
L 230.04439 206.846511 
L 230.149831 200.2305 
L 230.281633 188.703791 
L 230.545237 164.562654 
L 230.637499 153.629117 
L 230.769301 131.546942 
L 230.822021 135.879028 
L 230.940643 163.803694 
L 231.151526 202.858682 
L 231.270148 212.12307 
L 231.322869 210.537049 
L 231.467851 185.065384 
L 231.626013 155.477204 
L 231.665554 157.733421 
L 231.823716 190.54859 
L 232.021419 224.047576 
L 232.08732 229.030131 
L 232.232302 237.522408 
L 232.245482 237.323275 
L 232.311383 230.992814 
L 232.522266 199.567819 
L 232.574987 202.063089 
L 232.680429 222.31972 
L 232.838591 264.254624 
L 232.904492 260.186014 
L 233.154916 220.858627 
L 233.352619 202.118038 
L 233.365799 202.445856 
L 233.523961 208.547127 
L 233.563502 207.565551 
L 233.708484 205.262369 
L 233.721664 205.294306 
L 233.787565 208.076534 
L 233.972088 223.548803 
L 234.15661 275.072156 
L 234.262052 261.402887 
L 234.512476 231.836781 
L 234.736539 197.404594 
L 234.841981 173.048826 
L 234.894701 177.479069 
L 235.250567 250.711691 
L 235.329648 244.499113 
L 235.672333 204.385056 
L 235.698693 203.210452 
L 235.738234 205.690693 
L 236.18636 278.142752 
L 236.225901 277.585742 
L 236.304982 265.499206 
L 236.489505 220.756712 
L 236.555406 225.038075 
L 236.779469 254.075351 
L 236.84537 251.335391 
L 237.029893 221.45133 
L 237.174875 178.584164 
L 237.227596 181.466898 
L 237.715263 253.400459 
L 237.767984 250.633259 
L 237.939326 215.931021 
L 238.057948 202.025516 
L 238.097489 205.109262 
L 238.426993 256.15169 
L 238.479714 255.535974 
L 238.532435 252.734959 
L 238.651057 222.124814 
L 238.756498 199.971251 
L 238.809219 202.582525 
L 239.112364 230.580458 
L 239.362787 242.567428 
L 239.52095 252.456455 
L 239.53413 252.451758 
L 239.600031 250.960138 
L 239.679112 242.201098 
L 239.916355 208.525523 
L 239.955896 210.98369 
L 240.100878 243.181735 
L 240.298581 265.802602 
L 240.338122 264.908382 
L 240.549005 255.495114 
L 240.614906 257.576619 
L 240.786248 269.657989 
L 240.838969 266.945739 
L 241.128933 222.602451 
L 241.208014 228.823483 
L 241.6166 289.565668 
L 241.669321 287.068519 
L 241.787943 260.527922 
L 241.985646 229.667921 
L 242.064727 228.065932 
L 242.091087 229.095883 
L 242.183349 248.395829 
L 242.301971 271.007774 
L 242.354691 269.339094 
L 242.433772 262.603322 
L 242.763277 220.28518 
L 242.802818 221.584242 
L 243.079602 243.177038 
L 243.158683 241.241126 
L 243.303665 229.616728 
L 243.356386 233.658568 
L 243.60681 286.913533 
L 243.685891 295.488 
L 243.738612 291.805915 
L 244.186738 231.291513 
L 244.29218 226.487896 
L 244.648045 204.332925 
L 244.700766 205.094233 
L 244.806207 207.528448 
L 244.858928 206.585383 
L 244.911649 205.915657 
L 244.96437 206.513057 
L 245.00391 207.985891 
L 245.096172 226.53627 
L 245.293875 256.127268 
L 245.372956 252.695978 
L 245.491578 235.78422 
L 245.68928 192.373195 
L 245.742001 194.682012 
L 246.190128 225.54671 
L 246.269209 229.599821 
L 246.32193 228.006756 
L 246.427371 212.42083 
L 246.585534 184.600427 
L 246.625074 187.568168 
L 246.743696 216.803638 
L 246.941399 249.472275 
L 246.967759 249.066025 
L 247.125922 235.330535 
L 247.257724 213.258692 
L 247.415886 182.504363 
L 247.442246 183.043995 
L 247.613589 193.547798 
L 247.784931 220.116105 
L 247.995814 248.885208 
L 248.008995 248.866892 
L 248.048535 245.423391 
L 248.140797 212.168626 
L 248.259418 187.277922 
L 248.298959 188.450178 
L 248.4044 195.302424 
L 248.562563 222.889879 
L 248.681185 236.396648 
L 248.720725 234.149825 
L 248.812987 211.562773 
L 248.944788 187.493024 
L 248.984329 187.753681 
L 248.997509 187.787027 
L 249.07659 193.43696 
L 249.340194 226.131898 
L 249.392915 223.157582 
L 249.498357 206.490044 
L 249.669699 158.488154 
L 249.72242 163.286605 
L 250.289168 261.812895 
L 250.328709 257.22297 
L 250.710934 191.184032 
L 250.921818 168.031986 
L 250.974538 171.031663 
L 251.07998 192.678939 
L 251.264503 235.665867 
L 251.304043 234.193503 
L 251.501746 209.13889 
L 251.77853 168.48661 
L 251.79171 168.945462 
L 252.042134 186.8341 
L 252.253017 219.264623 
L 252.305738 217.363935 
L 252.490261 193.015211 
L 252.687964 158.22186 
L 252.714324 159.326955 
L 252.793405 178.219712 
L 252.977928 220.042839 
L 252.991108 220.036264 
L 253.043829 217.102807 
L 253.307433 182.316501 
L 253.426055 166.174036 
L 253.465595 169.535817 
L 253.557856 204.077903 
L 253.676478 225.788112 
L 253.716019 224.706969 
L 253.847821 207.055037 
L 253.953262 201.268435 
L 253.992803 202.660958 
L 254.085064 216.27152 
L 254.243227 249.666712 
L 254.295947 247.936508 
L 254.388209 237.2486 
L 254.651813 194.094475 
L 254.717714 195.537251 
L 254.823155 198.945997 
L 254.875876 197.836675 
L 254.994498 177.509596 
L 255.218561 151.851009 
L 255.258102 151.055885 
L 255.284462 151.743928 
L 255.376723 168.540151 
L 255.600787 210.909954 
L 255.627147 210.661038 
L 255.640327 210.735243 
L 255.666688 210.391926 
L 255.758949 200.253513 
L 256.088454 142.567835 
L 256.167535 144.177808 
L 256.272976 153.484934 
L 256.800184 217.135683 
L 256.892446 221.50581 
L 256.931986 220.526113 
L 257.011067 207.563202 
L 257.261491 163.132089 
L 257.274671 163.261714 
L 257.301032 163.450514 
L 257.380113 167.701349 
L 257.472374 185.723838 
L 257.670077 221.874018 
L 257.683257 221.471995 
L 258.315907 197.61359 
L 258.368627 199.848202 
L 258.592691 243.189249 
L 258.698132 232.357627 
L 258.935376 192.725435 
L 259.001277 196.702932 
L 259.2517 244.497704 
L 259.370322 264.887247 
L 259.409863 261.299563 
L 259.844809 187.193854 
L 260.029332 179.742799 
L 260.068872 182.423582 
L 260.437918 234.758027 
L 260.490639 232.757772 
L 260.56972 214.406995 
L 260.754243 177.730803 
L 260.767423 177.890485 
L 260.872864 185.029221 
L 261.096928 211.847383 
L 261.28145 252.762199 
L 261.320991 250.113822 
L 261.492333 214.285825 
L 261.729577 187.291073 
L 261.808658 185.052703 
L 261.887739 185.140529 
L 262.019541 176.762377 
L 262.111803 162.902898 
L 262.256785 142.45183 
L 262.296325 144.614116 
L 262.388587 166.351565 
L 262.559929 201.196108 
L 262.573109 201.104995 
L 262.65219 196.074535 
L 262.836713 185.417155 
L 262.849893 185.433592 
L 262.928975 183.638576 
L 263.021236 171.854497 
L 263.179398 152.50007 
L 263.218939 154.881214 
L 263.350741 183.020982 
L 263.495723 209.698717 
L 263.535264 208.975921 
L 263.653885 201.834367 
L 263.930669 171.24019 
L 263.95703 171.94514 
L 264.036111 172.855329 
L 264.075651 172.585747 
L 264.115192 172.055039 
L 264.154733 172.557098 
L 264.220634 179.677048 
L 264.405156 217.511875 
L 264.471057 213.499624 
L 264.602859 185.980269 
L 264.747841 154.857731 
L 264.800562 155.41615 
L 264.853283 157.664851 
L 264.998265 183.425823 
L 265.195968 204.206588 
L 265.433211 210.781269 
L 265.551833 220.96289 
L 265.591374 218.979543 
L 265.762716 201.634764 
L 265.828617 204.064752 
L 265.98678 229.280456 
L 266.250384 261.300502 
L 266.263564 261.148335 
L 266.303104 257.341792 
L 266.68533 194.640213 
L 266.71169 195.384144 
L 266.777591 203.888163 
L 267.001655 244.447921 
L 267.041195 241.003481 
L 267.304799 183.501437 
L 267.39706 190.164414 
L 267.594763 220.886807 
L 267.647484 218.284925 
L 267.752926 194.68436 
L 267.950629 162.312074 
L 267.990169 163.788195 
L 268.135151 187.138435 
L 268.227413 197.637542 
L 268.266953 195.222114 
L 268.398755 185.091685 
L 268.451476 186.464952 
L 268.464656 186.558883 
L 268.477836 186.37243 
L 268.556918 176.427045 
L 268.74144 143.793161 
L 268.794161 147.003244 
L 269.110486 204.222086 
L 269.202747 198.54867 
L 269.466351 157.026592 
L 269.558612 161.247369 
L 269.782676 187.246455 
L 269.835396 185.516721 
L 270.046279 168.637839 
L 270.125361 171.707025 
L 270.257163 193.459034 
L 270.415325 217.958516 
L 270.454866 215.984562 
L 270.573487 188.123768 
L 270.823911 158.037756 
L 270.929353 151.627923 
L 270.982073 153.28721 
L 271.021614 153.89682 
L 271.074335 153.356718 
L 271.179776 150.27673 
L 271.219317 152.124817 
L 271.403839 185.993889 
L 271.641083 211.7558 
L 271.680624 211.016566 
L 271.746525 201.997807 
L 271.970588 149.943276 
L 272.023309 150.60126 
L 272.08921 153.505598 
L 272.181471 170.901569 
L 272.379174 197.020417 
L 272.418714 197.27403 
L 272.445075 196.980497 
L 272.524156 192.0543 
L 272.77458 177.734091 
L 272.959102 165.217351 
L 273.156805 121.115935 
L 273.235887 133.218909 
L 273.44677 166.752179 
L 273.525851 169.294884 
L 273.578572 168.37859 
L 273.670833 157.696318 
L 273.763094 149.771852 
L 273.815815 152.794073 
L 274.000338 176.41953 
L 274.224401 218.980952 
L 274.263942 216.791427 
L 274.395744 192.302747 
L 274.488005 184.298909 
L 274.527546 186.046021 
L 274.659347 198.001054 
L 274.738429 196.337071 
L 274.936132 181.289838 
L 275.041573 155.841656 
L 275.212916 125.232449 
L 275.239276 126.216843 
L 275.305177 138.64153 
L 275.450159 177.557501 
L 275.50288 175.426682 
L 275.713763 155.982552 
L 275.779664 159.290322 
L 276.21461 224.373515 
L 276.306872 219.408337 
L 276.478214 210.179173 
L 276.544115 210.743227 
L 276.662737 204.681877 
L 276.794539 168.265873 
L 276.899981 152.401912 
L 276.939521 153.839053 
L 277.216305 192.42016 
L 277.453549 208.525523 
L 277.55899 211.907499 
L 277.598531 210.511218 
L 277.980756 186.423153 
L 278.059838 174.700128 
L 278.125739 177.635933 
L 278.442063 223.189518 
L 278.521144 218.729687 
L 278.613406 196.930244 
L 278.745208 165.976781 
L 278.784748 167.412043 
L 279.074713 201.236028 
L 279.272415 218.08861 
L 279.325136 217.551796 
L 279.470118 212.843988 
L 279.56238 191.957551 
L 279.720542 160.386964 
L 279.746902 161.019117 
L 279.852344 170.760204 
L 280.115948 214.727769 
L 280.208209 210.199838 
L 280.524534 177.588498 
L 280.550894 177.752877 
L 280.669516 182.306169 
L 280.91994 206.130289 
L 280.95948 205.741886 
L 280.972661 205.726857 
L 281.038562 207.540659 
L 281.209904 217.957577 
L 281.262625 214.977624 
L 281.552589 157.481686 
L 281.64485 168.470172 
L 281.908454 205.673786 
L 281.961175 205.172665 
L 282.092977 202.085632 
L 282.119337 202.944159 
L 282.29068 217.361586 
L 282.356581 214.629141 
L 282.514743 205.850845 
L 282.567464 208.634952 
L 282.686086 215.983623 
L 282.725626 214.365666 
L 282.97605 198.531763 
L 283.055131 202.139642 
L 283.252834 220.165419 
L 283.318735 215.016136 
L 283.555979 167.372592 
L 283.63506 170.551677 
L 283.753682 184.630954 
L 284.004105 240.843799 
L 284.096367 232.929196 
L 284.412691 202.391376 
L 284.465412 199.507703 
L 284.847638 143.028095 
L 284.926719 154.72341 
L 285.111242 193.78967 
L 285.177143 193.218571 
L 285.216683 193.698088 
L 285.519828 208.852402 
L 285.559368 206.868585 
L 285.638449 192.086706 
L 285.796612 159.277642 
L 285.836152 160.36536 
L 285.967954 175.196552 
L 286.297459 237.204922 
L 286.37654 227.604732 
L 286.640144 166.672338 
L 286.758766 162.353403 
L 286.824667 163.921107 
L 286.890568 173.36819 
L 287.140991 211.328885 
L 287.193712 212.797962 
L 287.233253 211.283799 
L 287.325514 198.52143 
L 287.496857 153.077274 
L 287.562758 159.961927 
L 287.931803 203.651927 
L 288.024064 207.271078 
L 288.116326 216.751506 
L 288.485371 275.970134 
L 288.524912 272.791048 
L 288.907138 212.992398 
L 289.118021 181.266356 
L 289.183922 182.767369 
L 289.276183 188.069289 
L 289.368444 210.205474 
L 289.513426 239.492136 
L 289.552967 237.690544 
L 289.75067 203.767931 
L 289.869292 209.800163 
L 290.093355 243.112226 
L 290.251517 279.746149 
L 290.291058 277.171508 
L 290.778725 214.362848 
L 290.870986 196.755063 
L 291.002788 169.556481 
L 291.055509 172.361253 
L 291.174131 197.609363 
L 291.385014 230.139923 
L 291.477275 228.034935 
L 291.543176 221.791359 
L 291.81996 174.763531 
L 291.885861 178.950494 
L 292.162645 213.968808 
L 292.215366 216.169605 
L 292.320808 230.773955 
L 292.426249 239.591232 
L 292.46579 236.358606 
L 292.558051 209.268045 
L 292.676673 183.608518 
L 292.716214 185.052703 
L 292.900736 205.693042 
L 293.203881 246.329823 
L 293.243421 245.386289 
L 293.309322 235.189169 
L 293.546566 184.54125 
L 293.572926 185.810255 
L 293.678368 204.718041 
L 293.889251 230.840176 
L 293.928792 231.545596 
L 293.955152 230.454591 
L 294.231936 203.907888 
L 294.416459 178.321158 
L 294.455999 179.540848 
L 294.548261 200.367639 
L 294.693243 223.75639 
L 294.719603 222.971599 
L 294.930486 209.710459 
L 294.996387 211.383365 
L 295.022748 212.076104 
L 295.075468 210.437952 
L 295.141369 200.281223 
L 295.312712 149.9367 
L 295.378613 155.716728 
L 295.774019 217.656998 
L 295.787199 217.172316 
L 295.89264 212.192109 
L 295.945361 214.022349 
L 295.998082 215.378239 
L 296.050803 213.836836 
L 296.222145 205.134623 
L 296.261686 206.185239 
L 296.56483 230.185009 
L 296.657092 235.958931 
L 296.709813 234.167672 
L 296.933876 204.889464 
L 297.144759 168.137188 
L 297.23702 174.574261 
L 297.329282 198.036748 
L 297.540165 244.825992 
L 297.579705 245.84561 
L 297.619246 243.534914 
L 297.790588 218.930699 
L 298.054192 166.323386 
L 298.133273 172.764216 
L 298.515499 230.185479 
L 298.56822 227.809971 
L 298.647301 223.601405 
L 298.700022 225.701696 
L 298.831824 251.900385 
L 299.055887 288.299481 
L 299.069067 287.871627 
L 299.148148 271.376452 
L 299.332671 227.434718 
L 299.345851 227.766763 
L 299.464473 236.365182 
L 299.530374 231.186311 
L 299.741257 203.610597 
L 299.780798 204.08166 
L 299.859879 209.319707 
L 300.189384 234.742528 
L 300.215744 234.419876 
L 300.294825 224.387605 
L 300.558429 185.851114 
L 300.59797 186.324056 
L 300.650691 188.825431 
L 300.756132 213.759813 
L 300.953835 243.044596 
L 300.993376 241.542643 
L 301.072457 224.84223 
L 301.243799 190.612933 
L 301.28334 191.887573 
L 301.415142 213.046878 
L 301.546944 226.878178 
L 301.586484 225.549998 
L 301.797368 215.09222 
L 302.021431 185.126909 
L 302.060971 186.927091 
L 302.166413 212.050273 
L 302.337755 230.924244 
L 302.443197 227.662969 
L 302.548639 210.945178 
L 302.812242 147.127702 
L 302.891324 156.497762 
L 303.168108 197.45062 
L 303.29991 209.397669 
L 303.537153 249.553995 
L 303.589874 248.830729 
L 303.761216 243.56732 
L 304.103902 196.860735 
L 304.235703 189.319976 
L 304.275244 192.169365 
L 304.499307 237.24813 
L 304.591569 232.131254 
L 305.026515 170.099401 
L 305.092416 179.031274 
L 305.3692 232.248198 
L 305.395561 232.791117 
L 305.448281 231.354447 
L 305.540543 221.1531 
L 305.738246 173.11129 
L 305.817327 179.304143 
L 306.080931 206.099762 
L 306.146832 202.595676 
L 306.239093 183.536661 
L 306.370895 155.14375 
L 306.423616 157.504699 
L 306.568598 180.60978 
L 306.819022 218.569535 
L 307.016724 235.089602 
L 307.069445 233.597043 
L 307.174887 215.211512 
L 307.41213 178.95519 
L 307.438491 178.442798 
L 307.478031 179.56527 
L 307.557112 196.237974 
L 307.781176 230.797907 
L 307.820716 229.887249 
L 307.847077 229.122183 
L 307.899797 231.108818 
L 308.005239 237.595205 
L 308.05796 235.547515 
L 308.150221 213.408042 
L 308.347924 181.42275 
L 308.532447 162.75073 
L 308.598348 159.920598 
L 308.637888 161.877644 
L 308.74333 200.898348 
L 308.835591 216.039042 
L 308.888312 211.723864 
L 309.191456 154.314812 
L 309.283718 163.412942 
L 309.494601 183.947139 
L 309.784565 198.456618 
L 309.969088 251.928094 
L 310.048169 242.665116 
L 310.404034 183.275534 
L 310.443575 184.036842 
L 310.641278 199.294011 
L 310.878521 237.535089 
L 310.944422 231.162828 
L 311.115765 196.335662 
L 311.194846 197.412109 
L 311.247567 197.862506 
L 311.260747 197.689674 
L 311.366189 186.889049 
L 311.577072 136.81176 
L 311.656153 144.021413 
L 311.985658 196.194297 
L 312.077919 192.760659 
L 312.183361 178.403817 
L 312.473325 135.787445 
L 312.486505 135.662048 
L 312.539226 136.121369 
L 312.605127 143.319281 
L 312.776469 175.722564 
L 312.855551 172.976969 
L 312.974172 165.439028 
L 313.026893 168.610599 
L 313.51456 227.491076 
L 313.554101 225.660366 
L 313.672723 204.769233 
L 314.002227 153.899638 
L 314.081309 146.512925 
L 314.120849 149.8423 
L 314.503075 210.65869 
L 314.516255 210.613133 
L 314.595336 208.500161 
L 314.83258 190.564089 
L 314.924841 194.956759 
L 315.162085 206.434155 
L 315.188445 206.095535 
L 315.241166 202.87465 
L 315.346607 188.051442 
L 315.399328 193.349605 
L 315.676112 232.144874 
L 315.834274 237.662835 
L 315.886995 234.668793 
L 316.045158 203.039029 
L 316.2165 179.719786 
L 316.22968 179.731997 
L 316.24286 179.722134 
L 316.256041 179.767691 
L 316.308761 180.892981 
L 316.387843 192.764886 
L 316.598726 234.905028 
L 316.651446 232.47551 
L 317.046852 196.307014 
L 317.152294 201.954129 
L 317.415898 212.519927 
L 317.494979 212.955296 
L 317.508159 212.824732 
L 317.60042 206.873751 
L 317.916745 185.090745 
L 317.929925 185.220839 
L 317.995826 186.916759 
L 318.048547 185.745912 
L 318.074907 185.434532 
L 318.127628 186.163434 
L 318.140808 186.125862 
L 318.193529 185.587639 
L 318.312151 178.762632 
L 318.430773 174.461074 
L 318.470313 174.647997 
L 318.523034 175.438893 
L 318.549394 174.49348 
L 318.707557 164.535414 
L 318.760278 166.135994 
L 318.91844 188.522035 
L 319.168864 218.125243 
L 319.195224 216.988212 
L 319.287485 193.989742 
L 319.472008 161.115866 
L 319.511549 160.667347 
L 319.537909 161.270382 
L 319.63017 168.737405 
L 319.854234 217.653241 
L 319.933315 214.135066 
L 320.078297 191.044075 
L 320.328721 160.902643 
L 320.355081 161.551705 
L 320.473703 174.569095 
L 320.684586 195.198161 
L 320.737307 196.227642 
L 321.040451 213.090556 
L 321.238154 247.556089 
L 321.304055 242.055975 
L 321.594019 187.751333 
L 321.699461 192.057118 
L 321.936704 224.454765 
L 322.042146 235.091011 
L 322.081686 231.787937 
L 322.358471 170.207421 
L 322.463912 176.248106 
L 322.767057 225.084571 
L 322.846138 218.583625 
L 323.043841 162.970059 
L 323.149282 170.978123 
L 323.478787 224.019396 
L 323.597409 220.672175 
L 323.65013 218.920367 
L 323.716031 219.833373 
L 323.755571 220.493237 
L 323.795112 219.846524 
L 324.3355 193.554843 
L 324.38822 197.841372 
L 324.651824 235.531546 
L 324.704545 231.381217 
L 324.928608 184.977559 
L 324.994509 188.364231 
L 325.297654 227.372254 
L 325.468996 263.66333 
L 325.508537 261.911522 
L 325.600798 241.075338 
L 325.851222 195.340466 
L 325.890763 194.199208 
L 325.930303 195.352208 
L 326.035745 209.158146 
L 326.259808 241.584912 
L 326.299349 239.997483 
L 326.39161 223.355306 
L 326.536592 180.24298 
L 326.615673 181.039513 
L 326.707935 185.251367 
L 326.905638 219.01101 
L 327.0638 238.425082 
L 327.09016 237.226996 
L 327.169241 221.715276 
L 327.314224 175.401321 
L 327.380125 178.285464 
L 327.709629 225.611522 
L 327.788711 221.385109 
L 327.894152 203.626566 
L 328.065495 163.86381 
L 328.118215 169.69409 
L 328.342279 193.401736 
L 328.355459 193.536057 
L 328.40818 192.969185 
L 328.42136 193.007697 
L 328.43454 192.781793 
L 328.500441 192.574676 
L 328.513621 192.693029 
L 328.566342 196.635771 
L 328.645423 220.455664 
L 328.764045 253.376506 
L 328.803586 251.201071 
L 328.935388 221.409061 
L 329.172631 190.025396 
L 329.343974 167.947448 
L 329.462595 142.142798 
L 329.515316 149.752596 
L 329.831641 212.201971 
L 329.950262 226.996531 
L 330.002983 225.3565 
L 330.187506 213.042651 
L 330.385209 189.541653 
L 330.45111 193.295594 
L 330.622452 232.342598 
L 330.806975 247.742541 
L 330.820155 247.868878 
L 330.846516 247.291674 
L 330.978318 237.210558 
L 331.176021 183.699161 
L 331.281462 193.918355 
L 331.597787 240.845677 
L 331.610967 240.867281 
L 331.624147 240.795894 
L 331.690048 235.477536 
L 331.940472 194.814454 
L 332.006373 200.304236 
L 332.309517 259.687242 
L 332.375418 252.421231 
L 332.691743 198.985448 
L 332.981707 165.66681 
L 333.113509 141.187523 
L 333.15305 142.665992 
L 333.232131 163.287075 
L 333.416654 198.227427 
L 333.535275 206.389538 
L 333.746158 227.636669 
L 333.943861 253.722641 
L 333.957042 253.490162 
L 334.009762 249.270324 
L 334.128384 208.708218 
L 334.339267 171.011938 
L 334.365628 170.103158 
L 334.418348 171.948427 
L 334.55015 190.768388 
L 334.826934 234.831293 
L 334.853295 234.695093 
L 334.919196 230.240428 
L 335.23552 207.228339 
L 335.288241 206.571294 
L 335.393683 197.858279 
L 335.525485 167.74127 
L 335.591386 156.922329 
L 335.644106 162.518722 
L 336.131774 236.539423 
L 336.224035 247.010821 
L 336.276756 243.008902 
L 336.382197 200.927936 
L 336.55354 178.978203 
L 336.672162 174.405655 
L 336.711702 175.263243 
L 336.790783 185.445803 
L 337.080748 234.870274 
L 337.120288 233.179051 
L 337.752937 165.671506 
L 337.871559 142.424121 
L 337.9111 144.802917 
L 338.056082 170.741887 
L 338.306506 191.09104 
L 338.346046 191.748555 
L 338.385587 190.610115 
L 338.57011 182.11502 
L 338.636011 184.864372 
L 338.846894 190.821929 
L 338.965515 195.278002 
L 339.018236 196.003617 
L 339.044597 195.25452 
L 339.136858 181.393632 
L 339.334561 149.039662 
L 339.374101 150.274851 
L 339.492723 162.639892 
L 339.637705 202.913162 
L 339.769507 225.306247 
L 339.809048 224.456174 
L 339.888129 212.775418 
L 340.138553 173.850055 
L 340.191273 171.319561 
L 340.230814 173.688494 
L 340.336256 198.852536 
L 340.415337 210.471298 
L 340.481238 208.167177 
L 340.62622 192.478397 
L 341.100707 130.1671 
L 341.140247 132.926315 
L 341.588374 191.1319 
L 341.772897 201.072589 
L 341.812437 200.119662 
L 341.957419 189.928647 
L 342.260564 163.617711 
L 342.273744 163.623347 
L 342.286924 163.563231 
L 342.326465 165.728335 
L 342.471447 196.166587 
L 342.708691 233.321356 
L 342.814132 236.704272 
L 342.866853 234.592709 
L 342.945934 217.635864 
L 343.104096 179.951325 
L 343.143637 180.896738 
L 343.183178 181.980699 
L 343.235898 180.427085 
L 343.34134 160.262505 
L 343.420421 152.439015 
L 343.459962 155.105239 
L 343.552223 181.646775 
L 343.657665 202.935705 
L 343.710385 201.281115 
L 343.829007 194.140032 
L 344.05307 153.706141 
L 344.145332 144.832505 
L 344.198052 147.32073 
L 344.290314 166.543653 
L 344.514377 203.160669 
L 344.540738 202.871362 
L 344.6989 193.343029 
L 345.186567 141.271591 
L 345.239288 144.176868 
L 345.621513 197.807087 
L 345.713775 188.150539 
L 345.951018 142.733153 
L 346.096 135.56389 
L 346.148721 138.298683 
L 346.240983 166.886031 
L 346.346424 186.644829 
L 346.385965 184.02651 
L 346.649569 147.257326 
L 346.72865 155.843065 
L 346.926353 184.020405 
L 346.965893 183.712312 
L 347.110875 178.343231 
L 347.163596 181.001941 
L 347.361299 199.276164 
L 347.41402 196.011601 
L 347.519461 168.564573 
L 347.703984 141.799012 
L 347.730345 142.130587 
L 347.809426 144.647931 
L 347.888507 157.555422 
L 348.152111 198.380534 
L 348.218012 200.042169 
L 348.270733 198.849249 
L 348.349814 183.455411 
L 348.587057 139.190086 
L 348.77158 130.19387 
L 348.78476 130.346508 
L 348.837481 133.918693 
L 348.969283 169.085888 
L 349.206526 198.322767 
L 349.272427 204.130974 
L 349.325148 200.649901 
L 349.43059 161.624501 
L 349.549211 146.220801 
L 349.575572 146.993851 
L 349.694194 156.207516 
L 349.970978 184.671814 
L 350.010518 184.960651 
L 350.063239 184.532327 
L 350.076419 184.369827 
L 350.10278 185.110001 
L 350.234581 197.366082 
L 350.287302 191.669184 
L 350.445465 162.971468 
L 350.511366 166.913271 
L 350.709068 201.357199 
L 351.012213 259.428463 
L 351.051754 256.113648 
L 351.737124 130.810995 
L 351.763484 130.53343 
L 351.803025 131.708973 
L 351.882106 148.103173 
L 352.053448 194.781109 
L 352.092989 193.566115 
L 352.18525 179.716029 
L 352.277512 166.993581 
L 352.343413 168.675881 
L 352.448854 183.084385 
L 352.620197 219.732398 
L 352.686098 215.415342 
L 352.791539 188.567591 
L 352.962882 165.745712 
L 353.081503 157.303688 
L 353.147404 160.356436 
L 353.397828 181.537346 
L 353.687792 223.063182 
L 353.700973 223.039699 
L 353.753693 220.296452 
L 353.832775 193.730024 
L 354.004117 159.55098 
L 354.043658 158.488624 
L 354.109559 159.595128 
L 354.215 169.356409 
L 354.465424 222.287783 
L 354.584046 212.196336 
L 354.702667 193.57222 
L 354.781749 195.300546 
L 354.847649 197.109652 
L 354.88719 195.797909 
L 354.966271 179.075421 
L 355.084893 142.934165 
L 355.137614 149.372646 
L 355.493479 197.119514 
L 355.691182 203.598856 
L 355.717542 203.442461 
L 355.757083 204.861755 
L 355.875705 221.108483 
L 355.981146 229.769366 
L 356.020687 227.498121 
L 356.112948 209.076896 
L 356.323831 182.370042 
L 356.389732 180.702302 
L 356.442453 181.78908 
L 356.547895 196.438047 
L 356.732417 234.294009 
L 356.771958 233.015142 
L 356.982841 197.693431 
L 357.417787 151.512388 
L 357.457328 153.54411 
L 357.562769 173.711037 
L 357.773653 201.335125 
L 357.813193 202.231694 
L 357.852734 201.357199 
L 357.944995 191.482262 
L 358.406302 131.813706 
L 358.432662 132.673172 
L 358.498563 143.68608 
L 358.683086 178.391606 
L 358.709446 177.77542 
L 358.841248 166.310235 
L 358.94669 144.290055 
L 359.131213 114.69577 
L 359.144393 115.227418 
L 359.210294 125.308063 
L 359.500258 179.793522 
L 359.513438 179.928312 
L 359.539799 179.165595 
L 359.724321 163.758138 
L 359.856123 133.119343 
L 359.961565 121.049244 
L 360.001105 124.000078 
L 360.106547 149.765747 
L 360.27789 168.681517 
L 360.33061 167.275843 
L 360.370151 166.383971 
L 360.409691 167.092678 
L 360.554674 181.509167 
L 360.726016 199.679596 
L 360.778737 198.039096 
L 360.897359 179.783659 
L 361.187323 134.856592 
L 361.200503 134.752798 
L 361.226864 135.168911 
L 361.292764 145.087527 
L 361.450927 192.244979 
L 361.530008 186.161556 
L 361.754071 149.560038 
L 361.846333 141.181417 
L 361.885873 143.194353 
L 362.017675 167.923026 
L 362.254919 199.311858 
L 362.34718 201.963992 
L 362.399901 201.775661 
L 362.610784 194.363117 
L 362.650324 195.773487 
L 362.729406 209.162373 
L 362.887568 233.564167 
L 362.913928 232.273559 
L 363.03255 208.386036 
L 363.388415 125.640578 
L 363.454316 130.817101 
L 363.928803 201.609873 
L 363.968344 200.401924 
L 364.126506 181.435901 
L 364.284669 160.587506 
L 364.324209 163.596577 
L 364.627354 211.690988 
L 364.680074 210.206413 
L 364.759156 194.555675 
L 364.890958 154.205382 
L 364.943678 159.486168 
L 365.642229 273.482379 
L 365.70813 259.66329 
L 365.932193 200.687473 
L 366.208977 183.396235 
L 366.261698 185.758123 
L 366.367139 198.531293 
L 366.604383 238.011318 
L 366.630743 236.614098 
L 366.709824 221.228714 
L 366.933888 179.480732 
L 367.026149 176.886835 
L 367.210672 155.957191 
L 367.276573 162.558172 
L 367.619258 224.604115 
L 367.658798 222.64472 
L 367.896042 193.062177 
L 367.975123 197.929197 
L 368.106925 221.254545 
L 368.238727 250.59099 
L 368.291448 246.376319 
L 368.42325 211.597527 
L 368.620952 188.866761 
L 368.700034 180.52759 
L 368.765935 183.438034 
L 368.858196 197.990252 
L 369.082259 245.359519 
L 369.10862 244.547018 
L 369.200881 231.829736 
L 369.464485 203.014607 
L 369.477665 203.032454 
L 369.530386 206.527146 
L 369.622647 225.79046 
L 369.767629 264.130166 
L 369.82035 260.522756 
L 370.215756 201.067423 
L 370.334378 184.738035 
L 370.387099 188.31116 
L 370.597982 202.770857 
L 370.611162 202.721543 
L 370.637522 202.528046 
L 370.742964 199.982523 
L 370.782504 201.267495 
L 370.901126 216.879252 
L 371.16473 253.34363 
L 371.19109 251.890522 
L 371.283352 229.583853 
L 371.467874 200.883788 
L 371.481055 200.873456 
L 371.494235 200.951418 
L 371.573316 202.706044 
L 371.639217 203.791414 
L 371.678758 203.134369 
L 371.744659 202.281008 
L 371.784199 203.101962 
L 371.995082 210.624405 
L 372.060983 213.091495 
L 372.113704 211.59377 
L 372.232326 199.439134 
L 372.482749 164.890472 
L 372.49593 165.340401 
L 372.561831 174.270865 
L 372.785894 231.937287 
L 372.851795 226.474276 
L 373.22084 176.737016 
L 373.23402 176.706488 
L 373.286741 180.192727 
L 373.392183 216.995256 
L 373.537165 241.021328 
L 373.563525 240.255792 
L 373.655787 228.296062 
L 373.958931 177.954828 
L 374.011652 179.561983 
L 374.222535 195.55181 
L 374.275256 192.309322 
L 374.367517 164.79936 
L 374.499319 135.852727 
L 374.53886 136.490986 
L 374.617941 139.971589 
L 375.316491 216.671665 
L 375.435113 231.036491 
L 375.474654 228.879842 
L 375.593275 205.894993 
L 375.790978 174.538098 
L 375.870059 173.655149 
L 376.028222 163.770349 
L 376.080942 167.0227 
L 376.186384 199.773527 
L 376.291826 218.574702 
L 376.344546 216.627518 
L 376.515889 194.617669 
L 376.674051 172.222235 
L 376.713592 173.100957 
L 376.792673 174.737231 
L 376.845394 174.24973 
L 376.964015 171.458579 
L 377.003556 172.418551 
L 377.095817 186.749562 
L 377.2408 220.741684 
L 377.29352 216.06816 
L 377.517584 181.995728 
L 377.596665 185.036735 
L 377.688926 186.947756 
L 377.715287 186.410002 
L 377.820728 181.261189 
L 377.886629 183.248294 
L 378.031611 191.500108 
L 378.097512 188.949889 
L 378.334756 178.108405 
L 378.532459 161.786062 
L 378.545639 161.931654 
L 378.61154 165.359656 
L 378.730162 191.748555 
L 378.914684 210.99637 
L 378.980585 211.58015 
L 379.006946 211.331234 
L 379.151928 201.012943 
L 379.389171 165.879093 
L 379.507793 150.773623 
L 379.547334 153.481177 
L 379.758217 194.301123 
L 379.890019 193.836166 
L 379.929559 193.207299 
L 380.179983 172.247127 
L 380.443587 139.809089 
L 380.483127 140.788787 
L 380.549028 153.009175 
L 380.786272 194.140032 
L 380.799452 194.235371 
L 380.825812 193.624352 
L 380.904894 187.296708 
L 381.076236 153.605165 
L 381.194858 131.363308 
L 381.234398 134.636324 
L 381.33984 177.918195 
L 381.405741 186.842084 
L 381.458462 184.340239 
L 381.946129 130.399109 
L 382.01203 140.249624 
L 382.288814 196.213083 
L 382.460156 216.89616 
L 382.618319 236.450189 
L 382.657859 233.481508 
L 383.211428 136.186181 
L 383.264148 141.234488 
L 383.580473 190.287463 
L 383.593653 190.385151 
L 383.620014 189.844579 
L 383.699095 180.420979 
L 383.883617 138.850057 
L 383.962699 142.414728 
L 384.568988 219.298438 
L 384.661249 226.994182 
L 384.70079 225.195879 
L 384.858952 185.231641 
L 385.148916 154.548699 
L 385.201637 151.356933 
L 385.241177 154.742197 
L 385.478421 209.136072 
L 385.583863 200.806295 
L 385.807926 161.93776 
L 385.913367 168.155505 
L 386.05835 178.780479 
L 386.09789 177.324553 
L 386.229692 154.50643 
L 386.414215 117.240823 
L 386.453755 120.592271 
L 386.572377 160.304305 
L 386.704179 173.3278 
L 386.717359 173.045538 
L 386.79644 168.850122 
L 386.994143 146.142838 
L 387.125945 128.66233 
L 387.165486 131.567607 
L 387.270927 164.197264 
L 387.402729 180.974231 
L 387.42909 180.590054 
L 387.547711 172.328847 
L 387.771775 152.315027 
L 387.837676 156.254951 
L 387.969478 173.115047 
L 388.035379 169.62646 
L 388.219901 151.390278 
L 388.285802 153.440786 
L 388.628487 182.868344 
L 388.852551 213.748541 
L 388.865731 213.648505 
L 388.905271 211.368806 
L 388.984353 187.640965 
L 389.142515 156.488838 
L 389.155695 156.498701 
L 389.208416 159.17103 
L 389.313858 177.037594 
L 389.51156 198.396972 
L 389.696083 204.772051 
L 389.722444 203.985851 
L 389.814705 187.631102 
L 390.065129 152.373733 
L 390.13103 148.289155 
L 390.17057 151.449925 
L 390.289192 187.245986 
L 390.355093 196.356797 
L 390.420994 193.752098 
L 390.658237 177.958585 
L 390.84276 128.563233 
L 390.948202 142.119316 
L 391.185445 184.794394 
L 391.330427 197.073488 
L 391.356788 196.882809 
L 391.409508 197.24773 
L 391.449049 196.916154 
L 391.50177 196.000799 
L 391.52813 196.663481 
L 391.659932 202.717786 
L 391.712653 200.632524 
L 392.094879 160.455533 
L 392.160779 164.851491 
L 392.437564 218.529145 
L 392.477104 218.174557 
L 392.569365 213.833078 
L 392.740708 175.967254 
L 392.84615 163.316193 
L 392.88569 165.348854 
L 393.162474 179.26657 
L 393.439258 188.767664 
L 393.478799 187.503356 
L 393.623781 168.773099 
L 393.821484 148.225283 
L 393.847844 148.58128 
L 393.913745 156.433419 
L 394.309151 226.269037 
L 394.401413 231.785119 
L 394.454133 230.94397 
L 394.520034 227.484501 
L 394.783638 211.06541 
L 394.809999 211.40403 
L 394.88908 213.647565 
L 394.9418 212.628417 
L 395.086783 207.844995 
L 395.310846 194.50871 
L 395.389927 197.780317 
L 395.482188 206.16974 
L 395.719432 251.081778 
L 395.824873 243.289755 
L 396.035757 197.537976 
L 396.141198 203.68809 
L 396.167559 204.446581 
L 396.207099 202.158428 
L 396.404802 173.256882 
L 396.483883 180.322821 
L 396.615685 205.596763 
L 396.760667 247.129643 
L 396.826568 245.457206 
L 396.997911 226.695483 
L 397.182433 198.554776 
L 397.221974 200.025261 
L 397.380136 212.581452 
L 397.485578 208.029568 
L 397.749182 189.900938 
L 397.907344 182.897463 
L 397.920524 183.360072 
L 398.012786 198.918757 
L 398.210489 226.771567 
L 398.236849 227.158092 
L 398.32911 233.425619 
L 398.474093 247.964218 
L 398.487273 247.962339 
" style="fill:none;stroke:#1f77b4;stroke-linecap:square;stroke-width:1.5;"/>
   </g>
   <g id="patch_3">
    <path d="M 57.6 307.584 
L 57.6 41.472 
" style="fill:none;stroke:#000000;stroke-linecap:square;stroke-linejoin:miter;stroke-width:0.8;"/>
   </g>
   <g id="patch_4">
    <path d="M 414.72 307.584 
L 414.72 41.472 
" style="fill:none;stroke:#000000;stroke-linecap:square;stroke-linejoin:miter;stroke-width:0.8;"/>
   </g>
   <g id="patch_5">
    <path d="M 57.6 307.584 
L 414.72 307.584 
" style="fill:none;stroke:#000000;stroke-linecap:square;stroke-linejoin:miter;stroke-width:0.8;"/>
   </g>
   <g id="patch_6">
    <path d="M 57.6 41.472 
L 414.72 41.472 
" style="fill:none;stroke:#000000;stroke-linecap:square;stroke-linejoin:miter;stroke-width:0.8;"/>
   </g>
   <g id="text_15">
    <!-- $E_{tot}(t); C_v = 6.24 (KJ/K/kg)$ -->
    <defs>
     <path d="M 11.71875 51.703125 
L 22.015625 51.703125 
L 22.015625 39.3125 
L 11.71875 39.3125 
z
M 11.71875 12.40625 
L 22.015625 12.40625 
L 22.015625 4 
L 14.015625 -11.625 
L 7.71875 -11.625 
L 11.71875 4 
z
" id="DejaVuSans-59"/>
     <path d="M 69.484375 67.28125 
L 67.484375 56.890625 
Q 62.796875 61.625 57.546875 63.921875 
Q 52.296875 66.21875 46.1875 66.21875 
Q 37.84375 66.21875 31.515625 62.203125 
Q 25.203125 58.203125 20.609375 50 
Q 17.671875 44.734375 16.125 38.84375 
Q 14.59375 32.953125 14.59375 27 
Q 14.59375 17.046875 19.75 11.8125 
Q 24.90625 6.59375 34.71875 6.59375 
Q 41.5 6.59375 47.75 8.765625 
Q 54 10.9375 59.90625 15.28125 
L 57.625 3.609375 
Q 51.8125 1.125 45.875 -0.140625 
Q 39.9375 -1.421875 33.984375 -1.421875 
Q 19.96875 -1.421875 12.078125 6.1875 
Q 4.203125 13.8125 4.203125 27.390625 
Q 4.203125 36.078125 7.203125 44.46875 
Q 10.203125 52.875 15.828125 59.8125 
Q 21.78125 67.1875 29.421875 70.703125 
Q 37.0625 74.21875 47.21875 74.21875 
Q 53.46875 74.21875 59.0625 72.484375 
Q 64.65625 70.75 69.484375 67.28125 
z
" id="DejaVuSans-Oblique-67"/>
     <path d="M 7.171875 54.6875 
L 16.703125 54.6875 
L 24.703125 8.203125 
L 50.875 54.6875 
L 60.40625 54.6875 
L 29.296875 0 
L 17.1875 0 
z
" id="DejaVuSans-Oblique-118"/>
     <path d="M 10.59375 45.40625 
L 73.1875 45.40625 
L 73.1875 37.203125 
L 10.59375 37.203125 
z
M 10.59375 25.484375 
L 73.1875 25.484375 
L 73.1875 17.1875 
L 10.59375 17.1875 
z
" id="DejaVuSans-61"/>
     <path d="M 33.015625 40.375 
Q 26.375 40.375 22.484375 35.828125 
Q 18.609375 31.296875 18.609375 23.390625 
Q 18.609375 15.53125 22.484375 10.953125 
Q 26.375 6.390625 33.015625 6.390625 
Q 39.65625 6.390625 43.53125 10.953125 
Q 47.40625 15.53125 47.40625 23.390625 
Q 47.40625 31.296875 43.53125 35.828125 
Q 39.65625 40.375 33.015625 40.375 
z
M 52.59375 71.296875 
L 52.59375 62.3125 
Q 48.875 64.0625 45.09375 64.984375 
Q 41.3125 65.921875 37.59375 65.921875 
Q 27.828125 65.921875 22.671875 59.328125 
Q 17.53125 52.734375 16.796875 39.40625 
Q 19.671875 43.65625 24.015625 45.921875 
Q 28.375 48.1875 33.59375 48.1875 
Q 44.578125 48.1875 50.953125 41.515625 
Q 57.328125 34.859375 57.328125 23.390625 
Q 57.328125 12.15625 50.6875 5.359375 
Q 44.046875 -1.421875 33.015625 -1.421875 
Q 20.359375 -1.421875 13.671875 8.265625 
Q 6.984375 17.96875 6.984375 36.375 
Q 6.984375 53.65625 15.1875 63.9375 
Q 23.390625 74.21875 37.203125 74.21875 
Q 40.921875 74.21875 44.703125 73.484375 
Q 48.484375 72.75 52.59375 71.296875 
z
" id="DejaVuSans-54"/>
     <path d="M 16.890625 72.90625 
L 26.8125 72.90625 
L 20.796875 42.1875 
L 59.078125 72.90625 
L 72.21875 72.90625 
L 28.90625 38.09375 
L 60.59375 0 
L 48.578125 0 
L 19.484375 35.5 
L 12.59375 0 
L 2.6875 0 
z
" id="DejaVuSans-Oblique-75"/>
     <path d="M 16.703125 72.90625 
L 26.609375 72.90625 
L 13.375 5.078125 
Q 10.796875 -8.15625 4.65625 -14.078125 
Q -1.46875 -20.015625 -12.5 -20.015625 
L -16.40625 -20.015625 
L -14.796875 -11.71875 
L -11.71875 -11.71875 
Q -5.125 -11.71875 -1.703125 -7.953125 
Q 1.703125 -4.203125 3.515625 5.078125 
z
" id="DejaVuSans-Oblique-74"/>
     <path d="M 18.3125 75.984375 
L 27.296875 75.984375 
L 18.703125 31.6875 
L 49.515625 54.6875 
L 61.1875 54.6875 
L 26.8125 28.515625 
L 51.90625 0 
L 41.015625 0 
L 17.671875 26.703125 
L 12.5 0 
L 3.515625 0 
z
" id="DejaVuSans-Oblique-107"/>
     <path d="M 59.625 54.6875 
L 50.296875 6.78125 
Q 47.609375 -7.125 40.015625 -13.953125 
Q 32.421875 -20.796875 19.578125 -20.796875 
Q 14.84375 -20.796875 10.78125 -20.09375 
Q 6.734375 -19.390625 3.21875 -17.921875 
L 4.890625 -9.1875 
Q 8.203125 -11.328125 11.90625 -12.34375 
Q 15.625 -13.375 19.828125 -13.375 
Q 28.375 -13.375 33.859375 -8.703125 
Q 39.359375 -4.046875 41.109375 4.6875 
L 41.890625 8.796875 
Q 38.140625 4.5 33.15625 2.25 
Q 28.171875 0 22.40625 0 
Q 14.109375 0 9.34375 5.484375 
Q 4.59375 10.984375 4.59375 20.609375 
Q 4.59375 28.171875 7.46875 35.421875 
Q 10.359375 42.671875 15.578125 48.296875 
Q 19.046875 52 23.65625 54 
Q 28.265625 56 33.296875 56 
Q 38.8125 56 42.90625 53.4375 
Q 47.015625 50.875 49.03125 46.1875 
L 50.59375 54.6875 
z
M 46.09375 34.625 
Q 46.09375 41.265625 42.96875 44.875 
Q 39.84375 48.484375 34.078125 48.484375 
Q 30.515625 48.484375 27.296875 47.0625 
Q 24.078125 45.65625 21.78125 43.109375 
Q 18.0625 38.921875 15.984375 33.234375 
Q 13.921875 27.546875 13.921875 21.484375 
Q 13.921875 14.75 17.0625 11.125 
Q 20.21875 7.515625 26.125 7.515625 
Q 34.671875 7.515625 40.375 15.25 
Q 46.09375 23 46.09375 34.625 
z
" id="DejaVuSans-Oblique-103"/>
    </defs>
    <g transform="translate(162.9 35.472)scale(0.12 -0.12)">
     <use transform="translate(0 0.015625)" xlink:href="#DejaVuSans-Oblique-69"/>
     <use transform="translate(63.183594 -16.390625)scale(0.7)" xlink:href="#DejaVuSans-Oblique-116"/>
     <use transform="translate(90.629883 -16.390625)scale(0.7)" xlink:href="#DejaVuSans-Oblique-111"/>
     <use transform="translate(133.457031 -16.390625)scale(0.7)" xlink:href="#DejaVuSans-Oblique-116"/>
     <use transform="translate(163.637695 0.015625)" xlink:href="#DejaVuSans-40"/>
     <use transform="translate(202.651367 0.015625)" xlink:href="#DejaVuSans-Oblique-116"/>
     <use transform="translate(241.860352 0.015625)" xlink:href="#DejaVuSans-41"/>
     <use transform="translate(280.874023 0.015625)" xlink:href="#DejaVuSans-59"/>
     <use transform="translate(334.047852 0.015625)" xlink:href="#DejaVuSans-Oblique-67"/>
     <use transform="translate(403.87207 -16.390625)scale(0.7)" xlink:href="#DejaVuSans-Oblique-118"/>
     <use transform="translate(467.514648 0.015625)" xlink:href="#DejaVuSans-61"/>
     <use transform="translate(570.786133 0.015625)" xlink:href="#DejaVuSans-54"/>
     <use transform="translate(634.40918 0.015625)" xlink:href="#DejaVuSans-46"/>
     <use transform="translate(666.118164 0.015625)" xlink:href="#DejaVuSans-50"/>
     <use transform="translate(729.741211 0.015625)" xlink:href="#DejaVuSans-52"/>
     <use transform="translate(793.364258 0.015625)" xlink:href="#DejaVuSans-40"/>
     <use transform="translate(832.37793 0.015625)" xlink:href="#DejaVuSans-Oblique-75"/>
     <use transform="translate(897.954102 0.015625)" xlink:href="#DejaVuSans-Oblique-74"/>
     <use transform="translate(927.446289 0.015625)" xlink:href="#DejaVuSans-47"/>
     <use transform="translate(961.137695 0.015625)" xlink:href="#DejaVuSans-Oblique-75"/>
     <use transform="translate(1026.713867 0.015625)" xlink:href="#DejaVuSans-47"/>
     <use transform="translate(1060.405273 0.015625)" xlink:href="#DejaVuSans-Oblique-107"/>
     <use transform="translate(1118.31543 0.015625)" xlink:href="#DejaVuSans-Oblique-103"/>
     <use transform="translate(1181.791992 0.015625)" xlink:href="#DejaVuSans-41"/>
    </g>
   </g>
  </g>
 </g>
 <defs>
  <clipPath id="p8e668f969a">
   <rect height="266.112" width="357.12" x="57.6" y="41.472"/>
  </clipPath>
 </defs>
</svg>
