<?xml version="1.0" encoding="utf-8" standalone="no"?>
<!DOCTYPE svg PUBLIC "-//W3C//DTD SVG 1.1//EN"
  "http://www.w3.org/Graphics/SVG/1.1/DTD/svg11.dtd">
<!-- Created with matplotlib (https://matplotlib.org/) -->
<svg height="345.6pt" version="1.1" viewBox="0 0 460.8 345.6" width="460.8pt" xmlns="http://www.w3.org/2000/svg" xmlns:xlink="http://www.w3.org/1999/xlink">
 <defs>
  <style type="text/css">
*{stroke-linecap:butt;stroke-linejoin:round;}
  </style>
 </defs>
 <g id="figure_1">
  <g id="patch_1">
   <path d="M 0 345.6 
L 460.8 345.6 
L 460.8 0 
L 0 0 
z
" style="fill:#ffffff;"/>
  </g>
  <g id="axes_1">
   <g id="patch_2">
    <path d="M 57.6 307.584 
L 414.72 307.584 
L 414.72 41.472 
L 57.6 41.472 
z
" style="fill:#ffffff;"/>
   </g>
   <g id="matplotlib.axis_1">
    <g id="xtick_1">
     <g id="line2d_1">
      <defs>
       <path d="M 0 0 
L 0 3.5 
" id="m33961f4c58" style="stroke:#000000;stroke-width:0.8;"/>
      </defs>
      <g>
       <use style="stroke:#000000;stroke-width:0.8;" x="73.832727" xlink:href="#m33961f4c58" y="307.584"/>
      </g>
     </g>
     <g id="text_1">
      <!-- 0 -->
      <defs>
       <path d="M 31.78125 66.40625 
Q 24.171875 66.40625 20.328125 58.90625 
Q 16.5 51.421875 16.5 36.375 
Q 16.5 21.390625 20.328125 13.890625 
Q 24.171875 6.390625 31.78125 6.390625 
Q 39.453125 6.390625 43.28125 13.890625 
Q 47.125 21.390625 47.125 36.375 
Q 47.125 51.421875 43.28125 58.90625 
Q 39.453125 66.40625 31.78125 66.40625 
z
M 31.78125 74.21875 
Q 44.046875 74.21875 50.515625 64.515625 
Q 56.984375 54.828125 56.984375 36.375 
Q 56.984375 17.96875 50.515625 8.265625 
Q 44.046875 -1.421875 31.78125 -1.421875 
Q 19.53125 -1.421875 13.0625 8.265625 
Q 6.59375 17.96875 6.59375 36.375 
Q 6.59375 54.828125 13.0625 64.515625 
Q 19.53125 74.21875 31.78125 74.21875 
z
" id="DejaVuSans-48"/>
      </defs>
      <g transform="translate(70.651477 322.182437)scale(0.1 -0.1)">
       <use xlink:href="#DejaVuSans-48"/>
      </g>
     </g>
    </g>
    <g id="xtick_2">
     <g id="line2d_2">
      <g>
       <use style="stroke:#000000;stroke-width:0.8;" x="120.914134" xlink:href="#m33961f4c58" y="307.584"/>
      </g>
     </g>
     <g id="text_2">
      <!-- 50 -->
      <defs>
       <path d="M 10.796875 72.90625 
L 49.515625 72.90625 
L 49.515625 64.59375 
L 19.828125 64.59375 
L 19.828125 46.734375 
Q 21.96875 47.46875 24.109375 47.828125 
Q 26.265625 48.1875 28.421875 48.1875 
Q 40.625 48.1875 47.75 41.5 
Q 54.890625 34.8125 54.890625 23.390625 
Q 54.890625 11.625 47.5625 5.09375 
Q 40.234375 -1.421875 26.90625 -1.421875 
Q 22.3125 -1.421875 17.546875 -0.640625 
Q 12.796875 0.140625 7.71875 1.703125 
L 7.71875 11.625 
Q 12.109375 9.234375 16.796875 8.0625 
Q 21.484375 6.890625 26.703125 6.890625 
Q 35.15625 6.890625 40.078125 11.328125 
Q 45.015625 15.765625 45.015625 23.390625 
Q 45.015625 31 40.078125 35.4375 
Q 35.15625 39.890625 26.703125 39.890625 
Q 22.75 39.890625 18.8125 39.015625 
Q 14.890625 38.140625 10.796875 36.28125 
z
" id="DejaVuSans-53"/>
      </defs>
      <g transform="translate(114.551634 322.182437)scale(0.1 -0.1)">
       <use xlink:href="#DejaVuSans-53"/>
       <use x="63.623047" xlink:href="#DejaVuSans-48"/>
      </g>
     </g>
    </g>
    <g id="xtick_3">
     <g id="line2d_3">
      <g>
       <use style="stroke:#000000;stroke-width:0.8;" x="167.99554" xlink:href="#m33961f4c58" y="307.584"/>
      </g>
     </g>
     <g id="text_3">
      <!-- 100 -->
      <defs>
       <path d="M 12.40625 8.296875 
L 28.515625 8.296875 
L 28.515625 63.921875 
L 10.984375 60.40625 
L 10.984375 69.390625 
L 28.421875 72.90625 
L 38.28125 72.90625 
L 38.28125 8.296875 
L 54.390625 8.296875 
L 54.390625 0 
L 12.40625 0 
z
" id="DejaVuSans-49"/>
      </defs>
      <g transform="translate(158.45179 322.182437)scale(0.1 -0.1)">
       <use xlink:href="#DejaVuSans-49"/>
       <use x="63.623047" xlink:href="#DejaVuSans-48"/>
       <use x="127.246094" xlink:href="#DejaVuSans-48"/>
      </g>
     </g>
    </g>
    <g id="xtick_4">
     <g id="line2d_4">
      <g>
       <use style="stroke:#000000;stroke-width:0.8;" x="215.076946" xlink:href="#m33961f4c58" y="307.584"/>
      </g>
     </g>
     <g id="text_4">
      <!-- 150 -->
      <g transform="translate(205.533196 322.182437)scale(0.1 -0.1)">
       <use xlink:href="#DejaVuSans-49"/>
       <use x="63.623047" xlink:href="#DejaVuSans-53"/>
       <use x="127.246094" xlink:href="#DejaVuSans-48"/>
      </g>
     </g>
    </g>
    <g id="xtick_5">
     <g id="line2d_5">
      <g>
       <use style="stroke:#000000;stroke-width:0.8;" x="262.158353" xlink:href="#m33961f4c58" y="307.584"/>
      </g>
     </g>
     <g id="text_5">
      <!-- 200 -->
      <defs>
       <path d="M 19.1875 8.296875 
L 53.609375 8.296875 
L 53.609375 0 
L 7.328125 0 
L 7.328125 8.296875 
Q 12.9375 14.109375 22.625 23.890625 
Q 32.328125 33.6875 34.8125 36.53125 
Q 39.546875 41.84375 41.421875 45.53125 
Q 43.3125 49.21875 43.3125 52.78125 
Q 43.3125 58.59375 39.234375 62.25 
Q 35.15625 65.921875 28.609375 65.921875 
Q 23.96875 65.921875 18.8125 64.3125 
Q 13.671875 62.703125 7.8125 59.421875 
L 7.8125 69.390625 
Q 13.765625 71.78125 18.9375 73 
Q 24.125 74.21875 28.421875 74.21875 
Q 39.75 74.21875 46.484375 68.546875 
Q 53.21875 62.890625 53.21875 53.421875 
Q 53.21875 48.921875 51.53125 44.890625 
Q 49.859375 40.875 45.40625 35.40625 
Q 44.1875 33.984375 37.640625 27.21875 
Q 31.109375 20.453125 19.1875 8.296875 
z
" id="DejaVuSans-50"/>
      </defs>
      <g transform="translate(252.614603 322.182437)scale(0.1 -0.1)">
       <use xlink:href="#DejaVuSans-50"/>
       <use x="63.623047" xlink:href="#DejaVuSans-48"/>
       <use x="127.246094" xlink:href="#DejaVuSans-48"/>
      </g>
     </g>
    </g>
    <g id="xtick_6">
     <g id="line2d_6">
      <g>
       <use style="stroke:#000000;stroke-width:0.8;" x="309.239759" xlink:href="#m33961f4c58" y="307.584"/>
      </g>
     </g>
     <g id="text_6">
      <!-- 250 -->
      <g transform="translate(299.696009 322.182437)scale(0.1 -0.1)">
       <use xlink:href="#DejaVuSans-50"/>
       <use x="63.623047" xlink:href="#DejaVuSans-53"/>
       <use x="127.246094" xlink:href="#DejaVuSans-48"/>
      </g>
     </g>
    </g>
    <g id="xtick_7">
     <g id="line2d_7">
      <g>
       <use style="stroke:#000000;stroke-width:0.8;" x="356.321165" xlink:href="#m33961f4c58" y="307.584"/>
      </g>
     </g>
     <g id="text_7">
      <!-- 300 -->
      <defs>
       <path d="M 40.578125 39.3125 
Q 47.65625 37.796875 51.625 33 
Q 55.609375 28.21875 55.609375 21.1875 
Q 55.609375 10.40625 48.1875 4.484375 
Q 40.765625 -1.421875 27.09375 -1.421875 
Q 22.515625 -1.421875 17.65625 -0.515625 
Q 12.796875 0.390625 7.625 2.203125 
L 7.625 11.71875 
Q 11.71875 9.328125 16.59375 8.109375 
Q 21.484375 6.890625 26.8125 6.890625 
Q 36.078125 6.890625 40.9375 10.546875 
Q 45.796875 14.203125 45.796875 21.1875 
Q 45.796875 27.640625 41.28125 31.265625 
Q 36.765625 34.90625 28.71875 34.90625 
L 20.21875 34.90625 
L 20.21875 43.015625 
L 29.109375 43.015625 
Q 36.375 43.015625 40.234375 45.921875 
Q 44.09375 48.828125 44.09375 54.296875 
Q 44.09375 59.90625 40.109375 62.90625 
Q 36.140625 65.921875 28.71875 65.921875 
Q 24.65625 65.921875 20.015625 65.03125 
Q 15.375 64.15625 9.8125 62.3125 
L 9.8125 71.09375 
Q 15.4375 72.65625 20.34375 73.4375 
Q 25.25 74.21875 29.59375 74.21875 
Q 40.828125 74.21875 47.359375 69.109375 
Q 53.90625 64.015625 53.90625 55.328125 
Q 53.90625 49.265625 50.4375 45.09375 
Q 46.96875 40.921875 40.578125 39.3125 
z
" id="DejaVuSans-51"/>
      </defs>
      <g transform="translate(346.777415 322.182437)scale(0.1 -0.1)">
       <use xlink:href="#DejaVuSans-51"/>
       <use x="63.623047" xlink:href="#DejaVuSans-48"/>
       <use x="127.246094" xlink:href="#DejaVuSans-48"/>
      </g>
     </g>
    </g>
    <g id="xtick_8">
     <g id="line2d_8">
      <g>
       <use style="stroke:#000000;stroke-width:0.8;" x="403.402572" xlink:href="#m33961f4c58" y="307.584"/>
      </g>
     </g>
     <g id="text_8">
      <!-- 350 -->
      <g transform="translate(393.858822 322.182437)scale(0.1 -0.1)">
       <use xlink:href="#DejaVuSans-51"/>
       <use x="63.623047" xlink:href="#DejaVuSans-53"/>
       <use x="127.246094" xlink:href="#DejaVuSans-48"/>
      </g>
     </g>
    </g>
    <g id="text_9">
     <!-- $time (ps)$ -->
     <defs>
      <path d="M 42.28125 54.6875 
L 40.921875 47.703125 
L 23 47.703125 
L 17.1875 18.015625 
Q 16.890625 16.359375 16.75 15.234375 
Q 16.609375 14.109375 16.609375 13.484375 
Q 16.609375 10.359375 18.484375 8.9375 
Q 20.359375 7.515625 24.515625 7.515625 
L 33.59375 7.515625 
L 32.078125 0 
L 23.484375 0 
Q 15.484375 0 11.546875 3.125 
Q 7.625 6.25 7.625 12.59375 
Q 7.625 13.71875 7.765625 15.0625 
Q 7.90625 16.40625 8.203125 18.015625 
L 14.015625 47.703125 
L 6.390625 47.703125 
L 7.8125 54.6875 
L 15.28125 54.6875 
L 18.3125 70.21875 
L 27.296875 70.21875 
L 24.3125 54.6875 
z
" id="DejaVuSans-Oblique-116"/>
      <path d="M 18.3125 75.984375 
L 27.296875 75.984375 
L 25.09375 64.59375 
L 16.109375 64.59375 
z
M 14.203125 54.6875 
L 23.1875 54.6875 
L 12.5 0 
L 3.515625 0 
z
" id="DejaVuSans-Oblique-105"/>
      <path d="M 89.796875 33.015625 
L 83.40625 0 
L 74.421875 0 
L 80.71875 32.71875 
Q 81.109375 34.8125 81.296875 36.328125 
Q 81.5 37.84375 81.5 38.921875 
Q 81.5 43.3125 79.046875 45.75 
Q 76.609375 48.1875 72.21875 48.1875 
Q 65.671875 48.1875 60.546875 43.28125 
Q 55.421875 38.375 53.90625 30.515625 
L 47.90625 0 
L 38.921875 0 
L 45.3125 32.71875 
Q 45.703125 34.515625 45.890625 36.046875 
Q 46.09375 37.59375 46.09375 38.8125 
Q 46.09375 43.265625 43.65625 45.71875 
Q 41.21875 48.1875 36.921875 48.1875 
Q 30.28125 48.1875 25.140625 43.28125 
Q 20.015625 38.375 18.5 30.515625 
L 12.5 0 
L 3.515625 0 
L 14.203125 54.6875 
L 23.1875 54.6875 
L 21.484375 46.1875 
Q 25.140625 50.984375 30.046875 53.484375 
Q 34.96875 56 40.578125 56 
Q 46.53125 56 50.359375 52.875 
Q 54.203125 49.75 54.984375 44.1875 
Q 59.078125 49.953125 64.46875 52.96875 
Q 69.875 56 75.875 56 
Q 82.90625 56 86.734375 51.953125 
Q 90.578125 47.90625 90.578125 40.484375 
Q 90.578125 38.875 90.375 36.9375 
Q 90.1875 35.015625 89.796875 33.015625 
z
" id="DejaVuSans-Oblique-109"/>
      <path d="M 48.09375 32.234375 
Q 48.25 33.015625 48.3125 33.84375 
Q 48.390625 34.671875 48.390625 35.5 
Q 48.390625 41.453125 44.890625 44.921875 
Q 41.40625 48.390625 35.40625 48.390625 
Q 28.71875 48.390625 23.578125 44.15625 
Q 18.453125 39.9375 15.828125 32.171875 
z
M 55.90625 25.203125 
L 14.109375 25.203125 
Q 13.8125 23.34375 13.71875 22.265625 
Q 13.625 21.1875 13.625 20.40625 
Q 13.625 13.625 17.796875 9.90625 
Q 21.96875 6.203125 29.59375 6.203125 
Q 35.453125 6.203125 40.671875 7.515625 
Q 45.90625 8.84375 50.390625 11.375 
L 48.6875 2.484375 
Q 43.84375 0.53125 38.6875 -0.4375 
Q 33.546875 -1.421875 28.21875 -1.421875 
Q 16.84375 -1.421875 10.71875 4.015625 
Q 4.59375 9.46875 4.59375 19.484375 
Q 4.59375 28.03125 7.640625 35.375 
Q 10.6875 42.71875 16.609375 48.484375 
Q 20.40625 52.09375 25.65625 54.046875 
Q 30.90625 56 36.8125 56 
Q 46.09375 56 51.578125 50.4375 
Q 57.078125 44.875 57.078125 35.5 
Q 57.078125 33.25 56.78125 30.6875 
Q 56.5 28.125 55.90625 25.203125 
z
" id="DejaVuSans-Oblique-101"/>
      <path d="M 31 75.875 
Q 24.46875 64.65625 21.28125 53.65625 
Q 18.109375 42.671875 18.109375 31.390625 
Q 18.109375 20.125 21.3125 9.0625 
Q 24.515625 -2 31 -13.1875 
L 23.1875 -13.1875 
Q 15.875 -1.703125 12.234375 9.375 
Q 8.59375 20.453125 8.59375 31.390625 
Q 8.59375 42.28125 12.203125 53.3125 
Q 15.828125 64.359375 23.1875 75.875 
z
" id="DejaVuSans-40"/>
      <path d="M 49.609375 33.6875 
Q 49.609375 40.875 46.484375 44.671875 
Q 43.359375 48.484375 37.5 48.484375 
Q 33.5 48.484375 29.859375 46.4375 
Q 26.21875 44.390625 23.390625 40.484375 
Q 20.609375 36.625 18.9375 31.15625 
Q 17.28125 25.6875 17.28125 20.3125 
Q 17.28125 13.484375 20.40625 9.796875 
Q 23.53125 6.109375 29.296875 6.109375 
Q 33.546875 6.109375 37.1875 8.109375 
Q 40.828125 10.109375 43.40625 13.921875 
Q 46.1875 17.921875 47.890625 23.34375 
Q 49.609375 28.765625 49.609375 33.6875 
z
M 21.78125 46.390625 
Q 25.390625 51.125 30.296875 53.5625 
Q 35.203125 56 41.21875 56 
Q 49.609375 56 54.25 50.5 
Q 58.890625 45.015625 58.890625 35.109375 
Q 58.890625 27 56 19.65625 
Q 53.125 12.3125 47.703125 6.5 
Q 44.09375 2.640625 39.546875 0.609375 
Q 35.015625 -1.421875 29.984375 -1.421875 
Q 24.171875 -1.421875 20.21875 1 
Q 16.265625 3.421875 14.3125 8.203125 
L 8.6875 -20.796875 
L -0.296875 -20.796875 
L 14.40625 54.6875 
L 23.390625 54.6875 
z
" id="DejaVuSans-Oblique-112"/>
      <path d="M 50 53.078125 
L 48.296875 44.578125 
Q 44.734375 46.53125 40.765625 47.5 
Q 36.8125 48.484375 32.625 48.484375 
Q 25.53125 48.484375 21.453125 46.0625 
Q 17.390625 43.65625 17.390625 39.5 
Q 17.390625 34.671875 26.859375 32.078125 
Q 27.59375 31.890625 27.9375 31.78125 
L 30.8125 30.90625 
Q 39.796875 28.421875 42.796875 25.6875 
Q 45.796875 22.953125 45.796875 18.21875 
Q 45.796875 9.515625 38.890625 4.046875 
Q 31.984375 -1.421875 20.796875 -1.421875 
Q 16.453125 -1.421875 11.671875 -0.578125 
Q 6.890625 0.25 1.125 2 
L 2.875 11.28125 
Q 7.8125 8.734375 12.59375 7.421875 
Q 17.390625 6.109375 21.78125 6.109375 
Q 28.375 6.109375 32.5 8.9375 
Q 36.625 11.765625 36.625 16.109375 
Q 36.625 20.796875 25.78125 23.6875 
L 24.859375 23.921875 
L 21.78125 24.703125 
Q 14.9375 26.515625 11.765625 29.46875 
Q 8.59375 32.421875 8.59375 37.015625 
Q 8.59375 45.75 15.15625 50.875 
Q 21.734375 56 33.015625 56 
Q 37.453125 56 41.671875 55.265625 
Q 45.90625 54.546875 50 53.078125 
z
" id="DejaVuSans-Oblique-115"/>
      <path d="M 8.015625 75.875 
L 15.828125 75.875 
Q 23.140625 64.359375 26.78125 53.3125 
Q 30.421875 42.28125 30.421875 31.390625 
Q 30.421875 20.453125 26.78125 9.375 
Q 23.140625 -1.703125 15.828125 -13.1875 
L 8.015625 -13.1875 
Q 14.5 -2 17.703125 9.0625 
Q 20.90625 20.125 20.90625 31.390625 
Q 20.90625 42.671875 17.703125 53.65625 
Q 14.5 64.65625 8.015625 75.875 
z
" id="DejaVuSans-41"/>
     </defs>
     <g transform="translate(215.16 335.862125)scale(0.1 -0.1)">
      <use transform="translate(0 0.015625)" xlink:href="#DejaVuSans-Oblique-116"/>
      <use transform="translate(39.208984 0.015625)" xlink:href="#DejaVuSans-Oblique-105"/>
      <use transform="translate(66.992188 0.015625)" xlink:href="#DejaVuSans-Oblique-109"/>
      <use transform="translate(164.404297 0.015625)" xlink:href="#DejaVuSans-Oblique-101"/>
      <use transform="translate(225.927734 0.015625)" xlink:href="#DejaVuSans-40"/>
      <use transform="translate(264.941406 0.015625)" xlink:href="#DejaVuSans-Oblique-112"/>
      <use transform="translate(328.417969 0.015625)" xlink:href="#DejaVuSans-Oblique-115"/>
      <use transform="translate(380.517578 0.015625)" xlink:href="#DejaVuSans-41"/>
     </g>
    </g>
   </g>
   <g id="matplotlib.axis_2">
    <g id="ytick_1">
     <g id="line2d_9">
      <defs>
       <path d="M 0 0 
L -3.5 0 
" id="mb61ff204f6" style="stroke:#000000;stroke-width:0.8;"/>
      </defs>
      <g>
       <use style="stroke:#000000;stroke-width:0.8;" x="57.6" xlink:href="#mb61ff204f6" y="292.930656"/>
      </g>
     </g>
     <g id="text_10">
      <!-- 0.950 -->
      <defs>
       <path d="M 10.6875 12.40625 
L 21 12.40625 
L 21 0 
L 10.6875 0 
z
" id="DejaVuSans-46"/>
       <path d="M 10.984375 1.515625 
L 10.984375 10.5 
Q 14.703125 8.734375 18.5 7.8125 
Q 22.3125 6.890625 25.984375 6.890625 
Q 35.75 6.890625 40.890625 13.453125 
Q 46.046875 20.015625 46.78125 33.40625 
Q 43.953125 29.203125 39.59375 26.953125 
Q 35.25 24.703125 29.984375 24.703125 
Q 19.046875 24.703125 12.671875 31.3125 
Q 6.296875 37.9375 6.296875 49.421875 
Q 6.296875 60.640625 12.9375 67.421875 
Q 19.578125 74.21875 30.609375 74.21875 
Q 43.265625 74.21875 49.921875 64.515625 
Q 56.59375 54.828125 56.59375 36.375 
Q 56.59375 19.140625 48.40625 8.859375 
Q 40.234375 -1.421875 26.421875 -1.421875 
Q 22.703125 -1.421875 18.890625 -0.6875 
Q 15.09375 0.046875 10.984375 1.515625 
z
M 30.609375 32.421875 
Q 37.25 32.421875 41.125 36.953125 
Q 45.015625 41.5 45.015625 49.421875 
Q 45.015625 57.28125 41.125 61.84375 
Q 37.25 66.40625 30.609375 66.40625 
Q 23.96875 66.40625 20.09375 61.84375 
Q 16.21875 57.28125 16.21875 49.421875 
Q 16.21875 41.5 20.09375 36.953125 
Q 23.96875 32.421875 30.609375 32.421875 
z
" id="DejaVuSans-57"/>
      </defs>
      <g transform="translate(21.971875 296.729874)scale(0.1 -0.1)">
       <use xlink:href="#DejaVuSans-48"/>
       <use x="63.623047" xlink:href="#DejaVuSans-46"/>
       <use x="95.410156" xlink:href="#DejaVuSans-57"/>
       <use x="159.033203" xlink:href="#DejaVuSans-53"/>
       <use x="222.65625" xlink:href="#DejaVuSans-48"/>
      </g>
     </g>
    </g>
    <g id="ytick_2">
     <g id="line2d_10">
      <g>
       <use style="stroke:#000000;stroke-width:0.8;" x="57.6" xlink:href="#mb61ff204f6" y="262.54757"/>
      </g>
     </g>
     <g id="text_11">
      <!-- 0.952 -->
      <g transform="translate(21.971875 266.346789)scale(0.1 -0.1)">
       <use xlink:href="#DejaVuSans-48"/>
       <use x="63.623047" xlink:href="#DejaVuSans-46"/>
       <use x="95.410156" xlink:href="#DejaVuSans-57"/>
       <use x="159.033203" xlink:href="#DejaVuSans-53"/>
       <use x="222.65625" xlink:href="#DejaVuSans-50"/>
      </g>
     </g>
    </g>
    <g id="ytick_3">
     <g id="line2d_11">
      <g>
       <use style="stroke:#000000;stroke-width:0.8;" x="57.6" xlink:href="#mb61ff204f6" y="232.164485"/>
      </g>
     </g>
     <g id="text_12">
      <!-- 0.954 -->
      <defs>
       <path d="M 37.796875 64.3125 
L 12.890625 25.390625 
L 37.796875 25.390625 
z
M 35.203125 72.90625 
L 47.609375 72.90625 
L 47.609375 25.390625 
L 58.015625 25.390625 
L 58.015625 17.1875 
L 47.609375 17.1875 
L 47.609375 0 
L 37.796875 0 
L 37.796875 17.1875 
L 4.890625 17.1875 
L 4.890625 26.703125 
z
" id="DejaVuSans-52"/>
      </defs>
      <g transform="translate(21.971875 235.963704)scale(0.1 -0.1)">
       <use xlink:href="#DejaVuSans-48"/>
       <use x="63.623047" xlink:href="#DejaVuSans-46"/>
       <use x="95.410156" xlink:href="#DejaVuSans-57"/>
       <use x="159.033203" xlink:href="#DejaVuSans-53"/>
       <use x="222.65625" xlink:href="#DejaVuSans-52"/>
      </g>
     </g>
    </g>
    <g id="ytick_4">
     <g id="line2d_12">
      <g>
       <use style="stroke:#000000;stroke-width:0.8;" x="57.6" xlink:href="#mb61ff204f6" y="201.7814"/>
      </g>
     </g>
     <g id="text_13">
      <!-- 0.956 -->
      <defs>
       <path d="M 33.015625 40.375 
Q 26.375 40.375 22.484375 35.828125 
Q 18.609375 31.296875 18.609375 23.390625 
Q 18.609375 15.53125 22.484375 10.953125 
Q 26.375 6.390625 33.015625 6.390625 
Q 39.65625 6.390625 43.53125 10.953125 
Q 47.40625 15.53125 47.40625 23.390625 
Q 47.40625 31.296875 43.53125 35.828125 
Q 39.65625 40.375 33.015625 40.375 
z
M 52.59375 71.296875 
L 52.59375 62.3125 
Q 48.875 64.0625 45.09375 64.984375 
Q 41.3125 65.921875 37.59375 65.921875 
Q 27.828125 65.921875 22.671875 59.328125 
Q 17.53125 52.734375 16.796875 39.40625 
Q 19.671875 43.65625 24.015625 45.921875 
Q 28.375 48.1875 33.59375 48.1875 
Q 44.578125 48.1875 50.953125 41.515625 
Q 57.328125 34.859375 57.328125 23.390625 
Q 57.328125 12.15625 50.6875 5.359375 
Q 44.046875 -1.421875 33.015625 -1.421875 
Q 20.359375 -1.421875 13.671875 8.265625 
Q 6.984375 17.96875 6.984375 36.375 
Q 6.984375 53.65625 15.1875 63.9375 
Q 23.390625 74.21875 37.203125 74.21875 
Q 40.921875 74.21875 44.703125 73.484375 
Q 48.484375 72.75 52.59375 71.296875 
z
" id="DejaVuSans-54"/>
      </defs>
      <g transform="translate(21.971875 205.580618)scale(0.1 -0.1)">
       <use xlink:href="#DejaVuSans-48"/>
       <use x="63.623047" xlink:href="#DejaVuSans-46"/>
       <use x="95.410156" xlink:href="#DejaVuSans-57"/>
       <use x="159.033203" xlink:href="#DejaVuSans-53"/>
       <use x="222.65625" xlink:href="#DejaVuSans-54"/>
      </g>
     </g>
    </g>
    <g id="ytick_5">
     <g id="line2d_13">
      <g>
       <use style="stroke:#000000;stroke-width:0.8;" x="57.6" xlink:href="#mb61ff204f6" y="171.398314"/>
      </g>
     </g>
     <g id="text_14">
      <!-- 0.958 -->
      <defs>
       <path d="M 31.78125 34.625 
Q 24.75 34.625 20.71875 30.859375 
Q 16.703125 27.09375 16.703125 20.515625 
Q 16.703125 13.921875 20.71875 10.15625 
Q 24.75 6.390625 31.78125 6.390625 
Q 38.8125 6.390625 42.859375 10.171875 
Q 46.921875 13.96875 46.921875 20.515625 
Q 46.921875 27.09375 42.890625 30.859375 
Q 38.875 34.625 31.78125 34.625 
z
M 21.921875 38.8125 
Q 15.578125 40.375 12.03125 44.71875 
Q 8.5 49.078125 8.5 55.328125 
Q 8.5 64.0625 14.71875 69.140625 
Q 20.953125 74.21875 31.78125 74.21875 
Q 42.671875 74.21875 48.875 69.140625 
Q 55.078125 64.0625 55.078125 55.328125 
Q 55.078125 49.078125 51.53125 44.71875 
Q 48 40.375 41.703125 38.8125 
Q 48.828125 37.15625 52.796875 32.3125 
Q 56.78125 27.484375 56.78125 20.515625 
Q 56.78125 9.90625 50.3125 4.234375 
Q 43.84375 -1.421875 31.78125 -1.421875 
Q 19.734375 -1.421875 13.25 4.234375 
Q 6.78125 9.90625 6.78125 20.515625 
Q 6.78125 27.484375 10.78125 32.3125 
Q 14.796875 37.15625 21.921875 38.8125 
z
M 18.3125 54.390625 
Q 18.3125 48.734375 21.84375 45.5625 
Q 25.390625 42.390625 31.78125 42.390625 
Q 38.140625 42.390625 41.71875 45.5625 
Q 45.3125 48.734375 45.3125 54.390625 
Q 45.3125 60.0625 41.71875 63.234375 
Q 38.140625 66.40625 31.78125 66.40625 
Q 25.390625 66.40625 21.84375 63.234375 
Q 18.3125 60.0625 18.3125 54.390625 
z
" id="DejaVuSans-56"/>
      </defs>
      <g transform="translate(21.971875 175.197533)scale(0.1 -0.1)">
       <use xlink:href="#DejaVuSans-48"/>
       <use x="63.623047" xlink:href="#DejaVuSans-46"/>
       <use x="95.410156" xlink:href="#DejaVuSans-57"/>
       <use x="159.033203" xlink:href="#DejaVuSans-53"/>
       <use x="222.65625" xlink:href="#DejaVuSans-56"/>
      </g>
     </g>
    </g>
    <g id="ytick_6">
     <g id="line2d_14">
      <g>
       <use style="stroke:#000000;stroke-width:0.8;" x="57.6" xlink:href="#mb61ff204f6" y="141.015229"/>
      </g>
     </g>
     <g id="text_15">
      <!-- 0.960 -->
      <g transform="translate(21.971875 144.814448)scale(0.1 -0.1)">
       <use xlink:href="#DejaVuSans-48"/>
       <use x="63.623047" xlink:href="#DejaVuSans-46"/>
       <use x="95.410156" xlink:href="#DejaVuSans-57"/>
       <use x="159.033203" xlink:href="#DejaVuSans-54"/>
       <use x="222.65625" xlink:href="#DejaVuSans-48"/>
      </g>
     </g>
    </g>
    <g id="ytick_7">
     <g id="line2d_15">
      <g>
       <use style="stroke:#000000;stroke-width:0.8;" x="57.6" xlink:href="#mb61ff204f6" y="110.632144"/>
      </g>
     </g>
     <g id="text_16">
      <!-- 0.962 -->
      <g transform="translate(21.971875 114.431362)scale(0.1 -0.1)">
       <use xlink:href="#DejaVuSans-48"/>
       <use x="63.623047" xlink:href="#DejaVuSans-46"/>
       <use x="95.410156" xlink:href="#DejaVuSans-57"/>
       <use x="159.033203" xlink:href="#DejaVuSans-54"/>
       <use x="222.65625" xlink:href="#DejaVuSans-50"/>
      </g>
     </g>
    </g>
    <g id="ytick_8">
     <g id="line2d_16">
      <g>
       <use style="stroke:#000000;stroke-width:0.8;" x="57.6" xlink:href="#mb61ff204f6" y="80.249058"/>
      </g>
     </g>
     <g id="text_17">
      <!-- 0.964 -->
      <g transform="translate(21.971875 84.048277)scale(0.1 -0.1)">
       <use xlink:href="#DejaVuSans-48"/>
       <use x="63.623047" xlink:href="#DejaVuSans-46"/>
       <use x="95.410156" xlink:href="#DejaVuSans-57"/>
       <use x="159.033203" xlink:href="#DejaVuSans-54"/>
       <use x="222.65625" xlink:href="#DejaVuSans-52"/>
      </g>
     </g>
    </g>
    <g id="ytick_9">
     <g id="line2d_17">
      <g>
       <use style="stroke:#000000;stroke-width:0.8;" x="57.6" xlink:href="#mb61ff204f6" y="49.865973"/>
      </g>
     </g>
     <g id="text_18">
      <!-- 0.966 -->
      <g transform="translate(21.971875 53.665192)scale(0.1 -0.1)">
       <use xlink:href="#DejaVuSans-48"/>
       <use x="63.623047" xlink:href="#DejaVuSans-46"/>
       <use x="95.410156" xlink:href="#DejaVuSans-57"/>
       <use x="159.033203" xlink:href="#DejaVuSans-54"/>
       <use x="222.65625" xlink:href="#DejaVuSans-54"/>
      </g>
     </g>
    </g>
    <g id="text_19">
     <!-- $\rho (g/cm^3)$ -->
     <defs>
      <path d="M 18.796875 44.921875 
Q 22.703125 49.90625 30.953125 54.296875 
Q 34.1875 56 43.0625 56 
Q 53.03125 56 57.71875 48.09375 
Q 62.40625 40.1875 59.90625 27.296875 
Q 57.375 14.40625 49.609375 6.484375 
Q 41.84375 -1.421875 31.890625 -1.421875 
Q 25.875 -1.421875 22.015625 0.984375 
Q 18.171875 3.328125 16.3125 8.203125 
L 10.640625 -20.796875 
L 1.609375 -20.796875 
L 10.890625 26.8125 
Q 13.09375 38.09375 18.796875 44.921875 
z
M 50.59375 27.296875 
Q 52.484375 37.203125 49.515625 42.875 
Q 46.53125 48.484375 39.40625 48.484375 
Q 32.28125 48.484375 27.09375 42.875 
Q 21.921875 37.203125 20.015625 27.296875 
Q 18.0625 17.390625 21.046875 11.71875 
Q 24.03125 6.109375 31.15625 6.109375 
Q 38.28125 6.109375 43.453125 11.71875 
Q 48.640625 17.390625 50.59375 27.296875 
z
" id="DejaVuSans-Oblique-961"/>
      <path d="M 59.625 54.6875 
L 50.296875 6.78125 
Q 47.609375 -7.125 40.015625 -13.953125 
Q 32.421875 -20.796875 19.578125 -20.796875 
Q 14.84375 -20.796875 10.78125 -20.09375 
Q 6.734375 -19.390625 3.21875 -17.921875 
L 4.890625 -9.1875 
Q 8.203125 -11.328125 11.90625 -12.34375 
Q 15.625 -13.375 19.828125 -13.375 
Q 28.375 -13.375 33.859375 -8.703125 
Q 39.359375 -4.046875 41.109375 4.6875 
L 41.890625 8.796875 
Q 38.140625 4.5 33.15625 2.25 
Q 28.171875 0 22.40625 0 
Q 14.109375 0 9.34375 5.484375 
Q 4.59375 10.984375 4.59375 20.609375 
Q 4.59375 28.171875 7.46875 35.421875 
Q 10.359375 42.671875 15.578125 48.296875 
Q 19.046875 52 23.65625 54 
Q 28.265625 56 33.296875 56 
Q 38.8125 56 42.90625 53.4375 
Q 47.015625 50.875 49.03125 46.1875 
L 50.59375 54.6875 
z
M 46.09375 34.625 
Q 46.09375 41.265625 42.96875 44.875 
Q 39.84375 48.484375 34.078125 48.484375 
Q 30.515625 48.484375 27.296875 47.0625 
Q 24.078125 45.65625 21.78125 43.109375 
Q 18.0625 38.921875 15.984375 33.234375 
Q 13.921875 27.546875 13.921875 21.484375 
Q 13.921875 14.75 17.0625 11.125 
Q 20.21875 7.515625 26.125 7.515625 
Q 34.671875 7.515625 40.375 15.25 
Q 46.09375 23 46.09375 34.625 
z
" id="DejaVuSans-Oblique-103"/>
      <path d="M 25.390625 72.90625 
L 33.6875 72.90625 
L 8.296875 -9.28125 
L 0 -9.28125 
z
" id="DejaVuSans-47"/>
      <path d="M 53.609375 52.59375 
L 51.8125 43.703125 
Q 48.578125 46.046875 44.9375 47.21875 
Q 41.3125 48.390625 37.40625 48.390625 
Q 33.109375 48.390625 29.21875 46.875 
Q 25.34375 45.359375 22.703125 42.578125 
Q 18.5 38.328125 16.203125 32.609375 
Q 13.921875 26.90625 13.921875 20.796875 
Q 13.921875 13.421875 17.609375 9.8125 
Q 21.296875 6.203125 28.8125 6.203125 
Q 32.515625 6.203125 36.6875 7.328125 
Q 40.875 8.453125 45.40625 10.6875 
L 43.703125 1.8125 
Q 39.796875 0.203125 35.671875 -0.609375 
Q 31.546875 -1.421875 27.203125 -1.421875 
Q 16.3125 -1.421875 10.453125 4.015625 
Q 4.59375 9.46875 4.59375 19.578125 
Q 4.59375 28.078125 7.640625 35.234375 
Q 10.6875 42.390625 16.703125 48.09375 
Q 20.796875 52 26.3125 54 
Q 31.84375 56 38.375 56 
Q 42.1875 56 45.9375 55.140625 
Q 49.703125 54.296875 53.609375 52.59375 
z
" id="DejaVuSans-Oblique-99"/>
     </defs>
     <g transform="translate(15.871875 196.678)rotate(-90)scale(0.1 -0.1)">
      <use transform="translate(0 0.765625)" xlink:href="#DejaVuSans-Oblique-961"/>
      <use transform="translate(63.476562 0.765625)" xlink:href="#DejaVuSans-40"/>
      <use transform="translate(102.490234 0.765625)" xlink:href="#DejaVuSans-Oblique-103"/>
      <use transform="translate(165.966797 0.765625)" xlink:href="#DejaVuSans-47"/>
      <use transform="translate(199.658203 0.765625)" xlink:href="#DejaVuSans-Oblique-99"/>
      <use transform="translate(254.638672 0.765625)" xlink:href="#DejaVuSans-Oblique-109"/>
      <use transform="translate(356.700677 39.046875)scale(0.7)" xlink:href="#DejaVuSans-51"/>
      <use transform="translate(403.971185 0.765625)" xlink:href="#DejaVuSans-41"/>
     </g>
    </g>
   </g>
   <g id="line2d_18">
    <path clip-path="url(#p0354fb5aae)" d="M 73.832727 237.644378 
L 73.879809 236.505165 
L 74.105799 213.572012 
L 74.341206 173.767587 
L 74.397704 181.609462 
L 74.727274 229.214895 
L 74.73669 229.441705 
L 74.764939 227.856619 
L 74.849686 203.870085 
L 75.028595 148.169078 
L 75.075676 151.525042 
L 75.188672 177.338967 
L 75.433495 228.742894 
L 75.452328 228.043931 
L 75.555907 213.078287 
L 75.687735 162.062656 
L 75.791314 132.452972 
L 75.847811 136.68017 
L 76.017305 186.497796 
L 76.262128 242.014226 
L 76.299793 243.953426 
L 76.346874 240.149464 
L 76.9401 146.747302 
L 76.968349 144.605598 
L 77.01543 150.084124 
L 77.279086 184.616628 
L 77.297919 184.437519 
L 77.326168 183.913259 
L 77.354416 185.184032 
L 77.486244 209.880771 
L 77.683986 254.933265 
L 77.796982 273.144127 
L 77.834647 269.505449 
L 77.957058 214.012415 
L 78.07947 190.550596 
L 78.107719 191.839902 
L 78.230131 214.507811 
L 78.418456 235.659755 
L 78.446705 234.629313 
L 78.531452 222.868932 
L 78.66328 199.640759 
L 78.710361 204.150369 
L 78.88927 237.120574 
L 78.945768 231.611665 
L 79.039931 217.870763 
L 79.087012 224.819982 
L 79.200008 248.526384 
L 79.256505 241.143598 
L 79.538994 153.384335 
L 79.604908 161.37858 
L 79.943894 212.772025 
L 79.95331 212.717943 
L 79.990975 211.241933 
L 80.113387 199.419874 
L 80.151052 204.634523 
L 80.377043 274.706881 
L 80.452373 261.680133 
L 80.876106 146.046212 
L 80.998517 137.113585 
L 81.036182 137.690864 
L 81.111513 144.208491 
L 81.328087 185.599824 
L 81.394001 178.895644 
L 81.817734 112.316886 
L 81.836566 113.205439 
L 82.015476 127.132134 
L 82.062557 123.208462 
L 82.260299 89.328132 
L 82.354462 94.693329 
L 82.712281 137.030943 
L 82.778194 130.183051 
L 82.844108 124.866163 
L 82.89119 128.433138 
L 83.032434 161.366883 
L 83.136013 182.066727 
L 83.183095 176.856939 
L 83.314923 118.077974 
L 83.409085 90.460813 
L 83.465583 98.413738 
L 83.672741 167.944213 
L 83.766904 158.914968 
L 83.870483 143.167871 
L 83.936397 147.483332 
L 84.124723 162.022398 
L 84.171804 161.279076 
L 84.218886 161.954644 
L 84.256551 161.24687 
L 84.369546 146.305684 
L 84.463709 131.846221 
L 84.520207 137.317304 
L 84.699116 193.452181 
L 84.774446 177.31618 
L 85.000437 116.460227 
L 85.038102 119.675213 
L 85.151097 151.356264 
L 85.42417 210.796061 
L 85.443002 210.408373 
L 85.508916 201.10249 
L 85.876151 143.915902 
L 85.9044 142.543802 
L 85.932649 145.770638 
L 86.149223 218.042123 
L 86.243386 196.750872 
L 86.450544 100.851069 
L 86.535291 116.79672 
L 86.855444 193.292518 
L 86.883693 192.936428 
L 86.911942 192.70339 
L 86.949607 193.252564 
L 87.128516 203.234623 
L 87.19443 206.016346 
L 87.232096 203.37879 
L 87.429837 157.168548 
L 87.59933 141.588102 
L 87.608747 141.748221 
L 87.740575 154.344592 
L 87.815905 147.659402 
L 87.938317 137.527251 
L 87.975982 140.018208 
L 88.173724 163.268105 
L 88.230221 155.120576 
L 88.43738 122.000735 
L 88.456212 122.460583 
L 88.51271 133.696399 
L 88.719868 191.210669 
L 88.766949 185.596482 
L 88.898777 167.018593 
L 88.945859 168.250779 
L 88.974108 168.827146 
L 89.002356 167.151974 
L 89.049438 163.903567 
L 89.115352 166.819583 
L 89.237763 183.536357 
L 89.32251 176.516649 
L 89.501419 171.062885 
L 89.510836 171.165884 
L 89.586166 180.063266 
L 89.642664 186.136845 
L 89.689745 180.246628 
L 89.830989 150.226925 
L 89.896903 158.948541 
L 89.953401 163.330238 
L 90.009898 160.833964 
L 90.113478 152.636151 
L 90.169975 156.372967 
L 90.631373 224.735821 
L 90.697287 211.322752 
L 90.951527 99.870607 
L 91.036273 107.074588 
L 91.507087 162.939056 
L 91.535336 162.002953 
L 91.554169 161.432966 
L 91.591834 163.364723 
L 91.714245 188.275662 
L 91.864906 223.823872 
L 91.902571 219.079705 
L 92.109729 167.253606 
L 92.194476 173.896867 
L 92.33572 221.927208 
L 92.382801 228.619994 
L 92.429883 222.298034 
L 92.561711 145.589251 
L 92.721787 84.560266 
L 92.750036 87.666329 
L 92.863032 139.441081 
L 92.99486 192.050153 
L 93.041941 186.276759 
L 93.22085 143.923802 
L 93.286764 150.175577 
L 93.493923 193.000536 
L 93.569253 184.921826 
L 93.832909 159.458977 
L 93.861158 158.708971 
L 93.898823 160.41255 
L 94.096565 188.82909 
L 94.13423 191.949433 
L 94.190727 187.280768 
L 94.294306 152.70421 
L 94.397886 116.915821 
L 94.454383 128.726334 
L 94.783953 254.128266 
L 94.8687 251.11715 
L 94.962862 212.218901 
L 95.188853 151.111528 
L 95.235935 148.988966 
L 95.283016 151.05456 
L 95.358346 154.139051 
L 95.396011 151.756409 
L 95.556088 143.753505 
L 95.584337 144.929634 
L 95.659667 167.016618 
L 95.800911 210.763551 
L 95.847993 206.573116 
L 96.064567 150.038246 
L 96.149314 168.387502 
L 96.347056 244.325011 
L 96.403553 238.169702 
L 96.591879 150.576178 
L 96.723707 117.959329 
L 96.761372 121.634922 
L 96.874368 171.961921 
L 96.987363 200.787417 
L 97.025028 197.572279 
L 97.232186 157.501699 
L 97.307516 163.054056 
L 97.326349 163.991222 
L 97.37343 160.172068 
L 97.637086 122.966309 
L 97.693584 126.022392 
L 97.900742 160.425007 
L 97.985489 158.032339 
L 97.994905 157.994816 
L 98.013738 158.128654 
L 98.1079 163.871209 
L 98.296226 176.509357 
L 98.343307 175.362851 
L 98.43747 158.121818 
L 98.522217 147.870716 
L 98.569298 152.598021 
L 98.748207 197.685912 
L 98.823538 186.282836 
L 99.115442 117.788727 
L 99.162524 120.402432 
L 99.689836 207.835078 
L 99.765166 192.879308 
L 99.934659 137.953222 
L 99.991157 145.680856 
L 100.245396 212.148108 
L 100.339559 208.981279 
L 100.424306 189.967241 
L 100.678545 117.832023 
L 100.753875 123.871877 
L 100.951617 150.470749 
L 100.989282 148.015188 
L 101.158776 142.003895 
L 101.187024 142.887739 
L 101.394183 150.663985 
L 101.413015 150.553999 
L 101.460097 147.099898 
L 101.563676 137.322317 
L 101.610757 142.228122 
L 101.817915 209.59365 
L 101.902662 194.228165 
L 102.128652 103.328961 
L 102.203983 120.148126 
L 102.382892 180.954858 
L 102.429973 172.396551 
L 102.59005 135.284523 
L 102.646548 141.533109 
L 102.91962 226.274876 
L 103.023199 213.665136 
L 103.475181 106.151702 
L 103.569344 119.2102 
L 103.785918 140.411517 
L 104.030741 179.437223 
L 104.106072 169.161512 
L 104.209651 151.631383 
L 104.256732 158.370959 
L 104.501555 242.464807 
L 104.576886 227.291038 
L 104.784044 164.398659 
L 104.849958 168.728097 
L 104.991202 184.8603 
L 105.094781 181.236509 
L 105.188944 182.531284 
L 105.471432 201.184524 
L 105.509097 198.507622 
L 105.612677 170.90702 
L 105.735088 145.854799 
L 105.78217 150.992275 
L 106.026993 194.553719 
L 106.074074 191.224037 
L 106.271816 160.916758 
L 106.328314 162.76891 
L 106.441309 176.223604 
L 106.535472 189.82915 
L 106.582554 184.167262 
L 106.714381 133.966809 
L 106.912123 69.20268 
L 106.940372 71.027184 
L 107.034535 100.124154 
L 107.307607 222.123787 
L 107.373521 211.55336 
L 107.750172 126.623065 
L 107.778421 127.960225 
L 107.882 147.669732 
L 108.070326 165.620819 
L 108.079742 165.646492 
L 108.098575 165.434722 
L 108.220986 164.80321 
L 108.239819 165.020145 
L 108.315149 167.654511 
L 108.352814 165.772582 
L 108.437561 160.581024 
L 108.475226 162.997999 
L 108.588221 201.446882 
L 108.682384 223.134024 
L 108.738882 217.463781 
L 108.983705 151.648853 
L 109.077868 167.791083 
L 109.322691 248.092666 
L 109.407438 230.955542 
L 109.642845 189.239414 
L 109.953582 161.116223 
L 110.000664 165.25288 
L 110.179573 206.83274 
L 110.254903 199.672054 
L 110.452645 182.669831 
L 110.527975 173.081385 
L 110.66922 150.221456 
L 110.716301 151.031469 
L 110.932875 161.20965 
L 110.989373 158.629975 
L 111.036455 156.980781 
L 111.083536 159.603297 
L 111.215364 168.535012 
L 111.253029 165.501869 
L 111.375441 150.781264 
L 111.422522 154.78378 
L 111.62968 198.229313 
L 111.723843 184.958741 
L 111.940418 159.463383 
L 111.968666 160.580265 
L 112.043997 173.159166 
L 112.166408 199.220713 
L 112.21349 194.345747 
L 112.36415 137.802673 
L 112.420648 126.761916 
L 112.477146 135.162839 
L 112.703136 202.276644 
L 112.750218 195.371176 
L 113.013874 119.766818 
L 113.070371 129.325337 
L 113.305778 203.933737 
L 113.409357 197.951916 
L 113.512937 186.475617 
L 113.560018 190.019044 
L 113.673013 197.51607 
L 113.710678 195.56183 
L 113.861339 166.569834 
L 114.030832 150.658061 
L 114.172076 144.485433 
L 114.209741 146.089356 
L 114.31332 165.932245 
L 114.586393 210.903161 
L 114.605225 211.096094 
L 114.661723 210.629562 
L 114.689972 209.529998 
L 114.802967 188.180108 
L 114.925379 158.010919 
L 114.981876 167.514445 
L 115.2267 239.654523 
L 115.30203 236.029213 
L 115.433858 207.473975 
L 115.688097 171.664014 
L 115.697514 171.63591 
L 115.744595 177.297342 
L 116.017667 242.088208 
L 116.092998 230.383429 
L 116.573228 113.591152 
L 116.610893 111.552295 
L 116.676807 113.466886 
L 116.8463 147.827724 
L 117.138205 201.843685 
L 117.307698 217.680868 
L 117.345363 216.469647 
L 117.458358 204.533196 
L 117.646684 179.241252 
L 117.703182 185.129038 
L 118.032752 231.040007 
L 118.061 232.202464 
L 118.117498 230.058178 
L 118.503566 191.644691 
L 118.64481 165.939537 
L 118.682475 167.897271 
L 119.077959 211.399469 
L 119.153289 203.802938 
L 119.577022 135.137013 
L 119.624103 138.268902 
L 119.70885 168.416518 
L 119.887759 229.15185 
L 119.925424 227.398898 
L 120.029003 199.628454 
L 120.320908 115.310075 
L 120.377406 112.45923 
L 120.44332 114.084118 
L 120.59398 120.401217 
L 120.716392 151.42493 
L 120.904717 197.927761 
L 120.951799 193.804321 
L 121.158957 168.33023 
L 121.215455 173.669602 
L 121.366115 201.969471 
L 121.441445 195.491038 
L 121.58269 161.340602 
L 121.648604 170.525712 
L 121.893427 219.552618 
L 121.940508 216.22248 
L 122.420739 167.208183 
L 122.448987 165.837906 
L 122.496069 169.326188 
L 122.637313 185.720597 
L 122.703227 183.094435 
L 122.79739 178.887441 
L 122.882136 175.142574 
L 122.919802 177.076457 
L 123.35295 229.382458 
L 123.428281 219.106595 
L 123.588357 191.413931 
L 123.68252 192.61619 
L 123.729602 190.313912 
L 123.93676 174.4705 
L 123.993258 176.502673 
L 124.040339 175.484384 
L 124.303995 159.826612 
L 124.369909 165.047034 
L 124.5959 220.608734 
L 124.680646 206.532707 
L 124.925469 164.262847 
L 125.085546 146.151793 
L 125.179709 135.487179 
L 125.236207 139.194371 
L 125.725853 217.923933 
L 125.801184 207.031597 
L 126.036591 125.190655 
L 126.102505 134.376829 
L 126.309663 166.228632 
L 126.328495 165.669736 
L 126.413242 152.307862 
L 126.479156 142.178294 
L 126.535654 146.474918 
L 126.808726 184.092519 
L 126.865223 182.124911 
L 126.959386 175.611689 
L 127.006468 178.770922 
L 127.138296 203.572331 
L 127.204209 193.743858 
L 127.383119 133.648242 
L 127.449033 145.655182 
L 127.675024 204.663235 
L 127.712689 201.091096 
L 128.174086 132.400105 
L 128.183503 132.625851 
L 128.24 140.518314 
L 128.456575 165.224775 
L 128.503656 166.602192 
L 128.560154 165.413454 
L 128.644901 152.453093 
L 128.701398 147.406767 
L 128.74848 152.596046 
L 128.833226 167.670158 
L 128.89914 163.055879 
L 128.97447 157.044737 
L 129.012135 160.323376 
L 129.115715 172.520058 
L 129.162796 167.396102 
L 129.332289 126.359644 
L 129.398203 136.264226 
L 129.548864 166.755931 
L 129.605361 163.367305 
L 129.699524 153.625273 
L 129.746605 158.231652 
L 129.96318 210.794846 
L 130.066759 204.004074 
L 130.160922 187.172605 
L 130.424578 140.547481 
L 130.433994 140.565559 
L 130.471659 140.504641 
L 130.528157 143.290922 
L 130.603487 158.358502 
L 130.791813 205.228968 
L 130.857727 201.231314 
L 131.008387 187.892532 
L 131.262627 144.75326 
L 131.272043 144.863399 
L 131.328541 152.656356 
L 131.460369 212.717184 
L 131.563948 236.868698 
L 131.601613 232.427603 
L 131.705192 184.830828 
L 131.83702 147.566734 
L 131.874685 150.881984 
L 131.997097 200.175957 
L 132.091259 228.276817 
L 132.157173 227.748911 
L 132.270169 237.922384 
L 132.354915 233.447563 
L 132.449078 211.451576 
L 132.712734 105.643393 
L 132.788064 115.949032 
L 133.089385 201.388091 
L 133.164716 198.030304 
L 133.296543 178.851437 
L 133.484869 149.157744 
L 133.53195 150.641046 
L 133.682611 162.872213 
L 133.823855 180.619277 
L 133.880353 174.524886 
L 134.106344 114.535914 
L 134.19109 131.649795 
L 134.398248 173.856458 
L 134.407665 173.816808 
L 134.454746 173.280243 
L 134.558325 170.2749 
L 134.586574 171.284834 
L 134.680737 190.29872 
L 134.859646 203.440468 
L 134.869062 203.607727 
L 134.897311 202.313104 
L 134.982058 180.620188 
L 135.245714 124.278555 
L 135.25513 124.229942 
L 135.264546 124.608515 
L 135.33046 137.719272 
L 135.50937 178.825004 
L 135.556451 176.185169 
L 135.641197 171.882621 
L 135.697695 173.508268 
L 135.763609 174.560434 
L 135.791858 173.834734 
L 135.91427 168.090052 
L 135.961351 169.298539 
L 136.093179 180.802031 
L 136.281505 254.65207 
L 136.347419 238.311895 
L 136.535744 163.627081 
L 136.601658 172.401716 
L 136.865314 235.595039 
L 136.931228 226.630966 
L 137.38321 142.856292 
L 137.449123 153.862869 
L 137.656282 203.664391 
L 137.703363 198.305423 
L 138.117679 137.587105 
L 138.127096 137.622806 
L 138.174177 141.137065 
L 138.616742 207.647006 
L 138.710905 205.409292 
L 138.805068 189.00197 
L 139.031059 137.795837 
L 139.087556 142.332943 
L 139.238217 185.523866 
L 139.624284 291.575722 
L 139.652533 289.269798 
L 139.774945 251.112744 
L 140.019768 146.86929 
L 140.057433 151.293067 
L 140.443501 245.6526 
L 140.499999 242.228882 
L 140.716573 209.155223 
L 140.886066 170.065712 
L 140.970813 150.030802 
L 141.02731 156.718727 
L 141.225052 214.507203 
L 141.290966 205.985051 
L 141.441627 182.26209 
L 141.479292 183.435637 
L 141.554622 186.387961 
L 141.620536 185.300855 
L 141.629952 185.2489 
L 141.658201 185.646918 
L 141.68645 186.095828 
L 141.714699 185.292044 
L 141.837111 164.137668 
L 142.006604 121.590867 
L 142.053685 128.337431 
L 142.336173 199.515581 
L 142.42092 194.533819 
L 142.646911 172.475243 
L 142.948232 96.847034 
L 143.023562 108.497732 
L 143.390797 176.083386 
L 143.400213 176.034925 
L 143.456711 170.521307 
L 143.654453 129.748118 
L 143.720367 138.937937 
L 143.918109 185.983714 
L 143.984023 184.519402 
L 144.031104 182.870664 
L 144.162932 161.844201 
L 144.228846 170.972647 
L 144.379507 191.034143 
L 144.426588 190.299784 
L 144.511334 188.378053 
L 144.577248 180.530558 
L 144.680828 167.966849 
L 144.727909 171.264173 
L 144.991565 224.310457 
L 145.076311 211.013756 
L 145.339967 151.556944 
L 145.3588 151.835861 
L 145.424714 156.81656 
L 145.622456 190.920358 
L 145.678953 187.949348 
L 145.754284 182.679706 
L 145.801365 186.488833 
L 145.876695 189.323119 
L 145.904944 187.423873 
L 146.008523 154.743674 
L 146.215681 101.746458 
L 146.234514 102.611161 
L 146.347509 123.743053 
L 146.695912 195.306612 
L 146.733577 194.30154 
L 146.780658 189.170141 
L 146.968984 117.107235 
L 147.119644 82.88707 
L 147.157309 86.505239 
L 147.260889 130.258857 
L 147.449214 219.04674 
L 147.496296 212.741034 
L 147.71287 167.176888 
L 147.769368 167.286116 
L 147.854114 163.994412 
L 147.901196 165.998936 
L 148.089521 184.657797 
L 148.174268 193.634175 
L 148.221349 190.796547 
L 148.324928 171.063797 
L 148.400259 160.604116 
L 148.456756 165.843679 
L 148.710996 235.453758 
L 148.795742 219.32991 
L 148.955819 134.485448 
L 149.068815 99.1563 
L 149.115896 104.028532 
L 149.690289 235.046169 
L 149.775036 252.158834 
L 149.822117 245.817276 
L 150.151687 200.377093 
L 150.189352 199.631796 
L 150.236433 201.160825 
L 150.490673 224.15201 
L 150.556587 216.15503 
L 150.867324 161.865469 
L 150.904989 161.907246 
L 150.942655 161.256137 
L 150.970903 162.396414 
L 151.05565 168.475462 
L 151.112148 166.220885 
L 151.215727 150.412565 
L 151.262808 157.485444 
L 151.394636 187.529302 
L 151.46055 183.060558 
L 151.677124 159.098178 
L 151.752455 166.749398 
L 151.931364 214.524521 
L 152.006694 202.480514 
L 152.27035 154.053067 
L 152.279766 154.353403 
L 152.364513 160.871183 
L 152.439843 157.552894 
L 152.618753 140.253525 
L 152.741164 141.304324 
L 152.750581 141.29369 
L 152.769413 141.414767 
L 152.985988 149.07419 
L 153.174313 166.117278 
L 153.25906 159.824334 
L 153.33439 151.121859 
L 153.390888 155.342525 
L 153.560381 189.206296 
L 153.635711 175.20015 
L 153.861702 115.98139 
L 153.908783 121.637657 
L 154.059444 149.6103 
L 154.125358 144.807038 
L 154.172439 141.626992 
L 154.238353 144.14256 
L 154.304267 150.38279 
L 154.54909 183.637988 
L 154.596172 177.769799 
L 154.728 152.884989 
L 154.784497 156.920622 
L 154.972823 208.852759 
L 155.066986 225.916811 
L 155.123483 222.07092 
L 155.217646 211.589212 
L 155.292976 213.717851 
L 155.311809 214.274165 
L 155.35889 212.795876 
L 155.443637 196.787332 
L 155.641379 154.31664 
L 155.697877 158.521355 
L 155.792039 168.730072 
L 155.839121 164.389544 
L 155.905035 158.834453 
L 155.980365 159.884036 
L 156.065112 165.438976 
L 156.319351 182.919428 
L 156.328767 182.56425 
L 156.385265 172.207264 
L 156.535926 136.343678 
L 156.60184 142.991193 
L 156.771333 180.631278 
L 156.82783 173.988776 
L 157.053821 104.394192 
L 157.138568 121.662267 
L 157.373975 161.539155 
L 157.449305 163.703342 
L 157.543468 190.79123 
L 157.712961 248.848293 
L 157.760042 245.3433 
L 157.873038 204.39951 
L 157.938952 194.823977 
L 157.995449 199.699551 
L 158.136693 222.287704 
L 158.193191 218.157579 
L 158.343852 176.242745 
L 158.409766 190.602703 
L 158.607508 274.305369 
L 158.682838 259.948449 
L 158.918245 202.204484 
L 158.965326 204.787502 
L 159.012408 207.604166 
L 159.050073 204.299854 
L 159.172484 166.658249 
L 159.28548 146.746694 
L 159.323145 150.232849 
L 159.43614 194.834915 
L 159.577384 245.321576 
L 159.61505 241.796075 
L 159.831624 176.724469 
L 159.944619 193.874506 
L 160.076447 204.922099 
L 160.104696 204.196551 
L 160.208275 187.930966 
L 160.462515 123.530827 
L 160.566094 139.37196 
L 160.942745 182.191146 
L 161.206401 215.505287 
L 161.319397 231.209241 
L 161.357062 226.961382 
L 161.460641 175.504436 
L 161.620718 118.613476 
L 161.648966 121.481032 
L 162.157446 203.747185 
L 162.185694 203.236446 
L 162.279857 195.828442 
L 162.600011 148.412447 
L 162.684757 155.236944 
L 162.873083 183.692982 
L 162.920164 179.264495 
L 163.089657 146.021754 
L 163.174404 149.974593 
L 163.18382 149.970036 
L 163.428644 142.589832 
L 163.51339 134.58632 
L 163.560471 138.991867 
L 163.833544 200.145119 
L 163.899458 191.215682 
L 164.153697 109.260955 
L 164.229027 122.742234 
L 164.39852 150.132281 
L 164.426769 149.029375 
L 164.596262 137.448255 
L 164.633928 140.01198 
L 164.737507 156.479916 
L 164.859918 182.317388 
L 164.907 177.990077 
L 165.010579 146.350651 
L 165.161239 102.065329 
L 165.217737 107.768082 
L 165.349565 165.343573 
L 165.547307 213.298564 
L 165.575556 214.168584 
L 165.613221 211.587389 
L 165.7168 177.089674 
L 165.942791 128.078263 
L 165.952207 127.964175 
L 165.971039 128.575027 
L 166.140533 145.289521 
L 166.206446 139.456729 
L 166.357107 115.619983 
L 166.404188 120.955556 
L 166.5266 190.83726 
L 166.705509 260.463595 
L 166.724342 259.947386 
L 166.790256 244.557442 
L 167.063328 135.332225 
L 167.138658 146.99781 
L 167.392898 227.786131 
L 167.468228 213.477672 
L 167.66597 141.26908 
L 167.731884 148.560261 
L 168.202698 210.26618 
L 168.212114 210.234886 
L 168.287445 209.113142 
L 168.343942 209.798888 
L 168.391024 210.933393 
L 168.438105 209.677052 
L 168.532268 201.996512 
L 168.927752 152.840022 
L 169.05958 142.303624 
L 169.106661 146.744719 
L 169.238489 198.191486 
L 169.379733 234.539379 
L 169.426815 228.37693 
L 169.568059 170.227502 
L 169.756385 101.761346 
L 169.784633 104.006808 
L 169.888212 138.926088 
L 170.076538 178.91357 
L 170.123619 181.654732 
L 170.170701 184.505122 
L 170.217782 181.991225 
L 170.368443 155.09946 
L 170.434357 166.135356 
L 170.632099 222.145359 
L 170.688596 210.985196 
L 170.867506 152.683549 
L 170.924003 162.731995 
L 171.074664 199.588804 
L 171.121745 193.688409 
L 171.300655 147.668213 
L 171.366569 154.490887 
L 171.517229 181.211899 
L 171.573727 173.227528 
L 171.724387 139.838796 
L 171.780885 148.904957 
L 172.016292 240.686789 
L 172.091622 220.115617 
L 172.279948 151.522915 
L 172.327029 152.648457 
L 172.430608 162.694776 
L 172.713097 198.583276 
L 172.760178 197.278475 
L 172.835508 195.150595 
L 172.910839 195.614849 
L 172.929671 195.633382 
L 172.939088 195.546335 
L 172.995585 191.25047 
L 173.325155 123.944644 
L 173.400485 141.245685 
L 173.664141 231.219115 
L 173.701806 229.063587 
L 173.795969 193.742643 
L 174.059625 70.55731 
L 174.106706 73.768498 
L 174.389195 115.114104 
L 174.558688 148.390875 
L 174.615186 146.972592 
L 174.690516 134.102166 
L 174.954172 88.837293 
L 174.991837 90.549988 
L 175.170746 105.801385 
L 175.443818 200.259967 
L 175.4909 198.355707 
L 175.537981 196.127259 
L 175.603895 197.854082 
L 175.650977 199.093408 
L 175.679225 197.661909 
L 175.801637 191.422135 
L 175.848718 192.172445 
L 175.905216 194.229684 
L 175.989963 193.821031 
L 176.027628 191.038852 
L 176.197121 159.150285 
L 176.263035 168.872872 
L 176.366614 188.828938 
L 176.423112 185.288094 
L 176.63027 176.249278 
L 176.658519 176.775209 
L 176.696184 178.237091 
L 176.762098 176.467884 
L 176.931591 169.151333 
L 176.978672 166.65992 
L 177.03517 169.640805 
L 177.223496 198.370291 
L 177.308242 194.880186 
L 177.411821 191.197908 
L 177.449486 192.965747 
L 177.581314 213.951041 
L 177.675477 225.700787 
L 177.722558 221.729111 
L 178.080377 158.3187 
L 178.136875 164.957252 
L 178.24987 218.04349 
L 178.400531 276.269635 
L 178.447612 270.167344 
L 178.551191 203.783189 
L 178.748933 111.20684 
L 178.758349 111.361186 
L 178.83368 119.347532 
L 178.965508 168.510402 
L 179.172666 211.957303 
L 179.182082 211.783663 
L 179.23858 205.068242 
L 179.473987 130.684828 
L 179.596398 110.725724 
L 179.634064 114.724593 
L 179.765892 172.190705 
L 179.916552 210.03299 
L 179.944801 209.165401 
L 180.020131 195.413105 
L 180.170792 169.068995 
L 180.208457 170.637978 
L 180.396782 181.963121 
L 180.415615 181.824726 
L 180.52861 173.716088 
L 180.603941 178.65258 
L 180.754601 196.622656 
L 180.792266 191.830939 
L 180.924094 167.067813 
L 180.980592 172.725296 
L 181.121836 202.941882 
L 181.18775 195.908957 
L 181.33841 164.487833 
L 181.394908 171.762152 
L 181.705645 233.429941 
L 181.724478 232.922695 
L 181.790392 219.990287 
L 181.99755 165.086988 
L 182.044632 169.50955 
L 182.185876 190.972769 
L 182.232957 188.632968 
L 182.32712 160.227365 
L 182.571943 92.93901 
L 182.590776 93.510819 
L 182.684939 103.102304 
L 182.760269 100.205276 
L 182.929762 67.822832 
L 182.995676 79.02143 
L 183.221667 151.530663 
L 183.278164 147.609422 
L 183.39116 129.498976 
L 183.457074 138.3163 
L 183.626567 188.608205 
L 183.711313 197.113342 
L 183.758395 193.649063 
L 183.984386 155.373819 
L 184.069132 167.800197 
L 184.35162 209.85616 
L 184.370453 210.194476 
L 184.398702 208.896814 
L 184.615276 190.635517 
L 184.718855 174.486755 
L 184.775353 177.80793 
L 184.813018 179.412461 
L 184.8601 176.036748 
L 185.152004 125.079908 
L 185.236751 135.274953 
L 185.490991 174.599324 
L 185.547488 168.691789 
L 185.858225 86.456323 
L 185.933556 101.392647 
L 186.234877 204.285725 
L 186.291374 197.737259 
L 186.498533 142.601834 
L 186.602112 145.367758 
L 186.668026 147.296932 
L 186.705691 145.403762 
L 186.837519 121.202115 
L 186.912849 131.169742 
L 187.120007 173.672336 
L 187.167089 171.556306 
L 187.317749 150.524527 
L 187.393079 159.879175 
L 187.637903 228.00185 
L 187.703817 219.058285 
L 187.910975 175.750236 
L 187.967472 176.626484 
L 187.986305 176.667197 
L 188.005138 176.384027 
L 188.127549 172.074186 
L 188.165214 174.190672 
L 188.287626 187.472486 
L 188.344124 182.922619 
L 188.560698 157.730331 
L 188.673694 144.582203 
L 188.711359 147.902467 
L 188.843187 188.033509 
L 188.965598 208.778017 
L 189.003263 206.810712 
L 189.351666 173.19593 
L 189.398747 175.051728 
L 189.483494 189.526838 
L 189.587073 211.541814 
L 189.634154 204.973447 
L 189.916643 121.355398 
L 189.991973 130.031288 
L 190.217964 185.19102 
L 190.321543 181.402857 
L 190.349792 181.12318 
L 190.37804 181.946258 
L 190.509868 199.018818 
L 190.613448 214.699984 
L 190.669945 210.936431 
L 191.140759 130.393454 
L 191.282003 133.887965 
L 191.432664 145.572996 
L 191.809315 223.456997 
L 191.875229 208.753406 
L 192.072971 122.26051 
L 192.148301 139.886649 
L 192.346043 208.621848 
L 192.402541 205.146174 
L 192.515536 181.201873 
L 192.675613 149.443649 
L 192.713278 151.352314 
L 192.882771 165.535746 
L 192.920436 163.402398 
L 193.184092 126.390787 
L 193.287671 132.56463 
L 193.400667 149.628682 
L 193.475997 155.700893 
L 193.523078 151.438602 
L 193.739653 102.575765 
L 193.796151 109.56752 
L 194.022141 197.219076 
L 194.12572 178.819079 
L 194.323462 134.520085 
L 194.389376 141.825242 
L 194.549453 158.377491 
L 194.587118 157.230834 
L 194.690697 148.510584 
L 194.728362 152.88271 
L 194.982602 214.22221 
L 195.048516 203.089543 
L 195.349837 118.650999 
L 195.406335 122.293779 
L 195.641742 169.595078 
L 195.782986 198.912325 
L 195.830067 194.369902 
L 195.990144 141.271814 
L 196.065474 126.129036 
L 196.112556 132.30455 
L 196.263216 168.832007 
L 196.32913 161.042695 
L 196.555121 137.453116 
L 196.621035 133.540838 
L 196.677533 135.669477 
L 196.724614 134.898962 
L 196.799944 138.77554 
L 196.828193 140.257931 
L 196.875275 136.669688 
L 196.978854 128.262537 
L 197.025935 132.36638 
L 197.31784 200.584306 
L 197.421419 192.167432 
L 197.760405 173.171167 
L 197.807486 175.556999 
L 197.892233 180.26972 
L 197.939314 177.133122 
L 198.212387 150.790683 
L 198.344214 134.464484 
L 198.419545 138.640487 
L 198.551373 156.32481 
L 198.654952 163.037497 
L 198.702033 160.557326 
L 198.739698 158.948541 
L 198.796196 160.957927 
L 199.361173 196.986189 
L 199.398838 194.414261 
L 199.502417 160.512055 
L 199.681326 97.29245 
L 199.718992 100.783315 
L 199.831987 144.47009 
L 199.954399 181.676456 
L 200.00148 176.978928 
L 200.227471 122.702432 
L 200.302801 136.786511 
L 200.444045 172.936762 
L 200.500543 168.05344 
L 200.698285 142.909614 
L 200.754782 147.83927 
L 200.896027 186.947618 
L 200.999606 214.664891 
L 201.074936 209.348003 
L 201.21618 191.797062 
L 201.263262 195.340489 
L 201.404506 221.532076 
L 201.461004 211.32336 
L 201.686994 141.052904 
L 201.743492 150.464824 
L 202.044813 223.812631 
L 202.091894 222.909341 
L 202.110727 222.705623 
L 202.148392 223.648714 
L 202.327301 232.517081 
L 202.35555 231.089228 
L 202.468546 209.720956 
L 202.666288 176.022316 
L 202.675704 176.074575 
L 202.68512 176.072296 
L 202.713369 175.623842 
L 202.732202 176.298195 
L 202.920527 192.203284 
L 203.005274 189.156316 
L 203.052355 191.513284 
L 203.099436 195.445463 
L 203.155934 191.248951 
L 203.41959 146.920182 
L 203.476088 154.092413 
L 203.711495 235.540653 
L 203.786825 220.252341 
L 204.022232 163.942457 
L 204.041065 164.395165 
L 204.116395 176.648663 
L 204.342386 206.367119 
L 204.351802 206.360283 
L 204.370634 206.211557 
L 204.389467 206.574331 
L 204.55896 216.594673 
L 204.596625 214.150506 
L 205.171018 123.447881 
L 205.227516 133.784207 
L 205.491172 183.825452 
L 205.632416 202.536419 
L 205.679498 197.178666 
L 205.848991 169.123837 
L 205.905488 174.776458 
L 205.980819 185.22672 
L 206.037316 180.680347 
L 206.150312 149.821462 
L 206.235058 139.010097 
L 206.291556 142.611708 
L 206.479881 159.715258 
L 206.536379 154.651917 
L 206.724705 112.100254 
L 206.790619 124.995747 
L 207.007193 214.578451 
L 207.073107 198.757675 
L 207.233184 143.006688 
L 207.280265 148.405611 
L 207.515672 196.514644 
L 207.591003 191.245001 
L 207.751079 139.697363 
L 207.845242 123.178991 
L 207.892324 127.704399 
L 208.15598 207.734206 
L 208.287807 201.803276 
L 208.429052 159.857603 
L 208.673875 99.616148 
L 208.692708 100.481611 
L 209.078775 126.14757 
L 209.135273 131.182351 
L 209.248268 155.557637 
L 209.389512 188.15018 
L 209.436594 183.02106 
L 209.549589 136.39776 
L 209.643752 111.900789 
L 209.690833 116.263193 
L 209.813245 161.241705 
L 210.067485 225.704585 
L 210.086317 226.186917 
L 210.123982 224.459942 
L 210.208729 199.759861 
L 210.415887 120.421422 
L 210.462968 124.619908 
L 210.575964 135.543235 
L 210.632461 132.934544 
L 210.707792 129.917047 
L 210.754873 131.789709 
L 210.858452 153.821851 
L 210.99028 184.278008 
L 211.046778 180.315142 
L 211.150357 167.859748 
L 211.197438 172.519906 
L 211.39518 228.181263 
L 211.479927 209.747085 
L 211.913076 99.82883 
L 211.960157 103.173248 
L 212.035487 126.195423 
L 212.270894 221.367856 
L 212.346225 219.164778 
L 212.421555 209.132891 
L 212.525134 195.484353 
L 212.572215 200.61393 
L 212.826455 259.384387 
L 212.901785 250.07182 
L 213.278437 168.042351 
L 213.382016 152.594982 
L 213.419681 156.947663 
L 213.542092 211.241781 
L 213.692753 256.460015 
L 213.730418 254.100921 
L 213.824581 224.601831 
L 214.172983 117.82306 
L 214.1824 117.91345 
L 214.25773 125.164981 
L 214.370725 139.457336 
L 214.427223 134.433037 
L 214.577883 118.135095 
L 214.624965 122.125001 
L 214.775625 152.938767 
L 214.841539 144.384713 
L 214.926286 134.782139 
L 214.982783 137.927244 
L 215.095779 162.152438 
L 215.237023 192.038911 
L 215.284104 189.264328 
L 215.425349 165.208216 
L 215.557177 141.975334 
L 215.623091 144.609852 
L 215.632507 144.776655 
L 215.660756 143.850427 
L 216.027991 114.208537 
L 216.093905 120.238668 
L 216.272814 170.07027 
L 216.35756 159.14907 
L 216.508221 121.314229 
L 216.564719 129.087437 
L 216.753044 193.730186 
L 216.86604 183.150947 
L 216.913121 182.335921 
L 216.979035 179.297005 
L 217.0167 182.195248 
L 217.148528 195.369353 
L 217.19561 193.455979 
L 217.252107 190.430127 
L 217.299189 193.956388 
L 217.383935 203.806432 
L 217.440433 198.338085 
L 217.647591 134.649821 
L 217.722921 151.351707 
L 217.920663 192.759142 
L 217.958328 190.126904 
L 218.174903 146.564851 
L 218.259649 155.553687 
L 218.466808 183.003438 
L 218.495056 181.470155 
L 218.589219 174.463512 
L 218.636301 177.873709 
L 218.862291 218.513213 
L 218.928205 214.106602 
L 219.050617 181.956588 
L 219.182445 157.844876 
L 219.22011 160.228125 
L 219.455517 178.319125 
L 219.483766 179.055763 
L 219.568512 192.854849 
L 219.841585 246.947831 
L 219.869833 245.893842 
L 219.945164 226.109744 
L 220.227652 150.839903 
L 220.255901 151.765372 
L 220.594887 188.279308 
L 220.726715 201.749649 
L 220.773796 199.056797 
L 221.42352 133.170013 
L 221.461185 133.404722 
L 221.470601 133.415204 
L 221.489434 133.328764 
L 221.545931 131.889517 
L 221.611845 132.932265 
L 221.724841 146.800624 
L 221.90375 173.463301 
L 221.950832 171.558737 
L 222.223904 142.569476 
L 222.346315 123.458971 
L 222.402813 127.348765 
L 222.572306 154.546792 
L 222.666469 149.328801 
L 222.807713 145.286331 
L 222.977206 135.730699 
L 223.024288 137.406022 
L 223.109034 151.592341 
L 223.287944 184.964058 
L 223.335025 182.045459 
L 223.62693 145.470908 
L 223.749341 127.153402 
L 223.796423 131.107001 
L 224.012997 190.871138 
L 224.116576 173.517383 
L 224.238988 152.64952 
L 224.304902 155.831541 
L 224.380232 161.514393 
L 224.427314 158.047683 
L 224.568558 123.650232 
L 224.728635 96.176935 
L 224.738051 96.441724 
L 224.813381 107.469568 
L 225.105286 212.463181 
L 225.227697 244.961385 
L 225.274779 238.758374 
L 225.613765 116.095022 
L 225.717344 134.154121 
L 225.933919 229.939228 
L 226.037498 220.038748 
L 226.517728 153.84874 
L 226.621307 159.977009 
L 226.724886 165.011182 
L 226.762551 163.349683 
L 226.875547 139.064939 
L 227.016791 106.469965 
L 227.073289 112.773544 
L 227.327528 176.901451 
L 227.384026 184.94993 
L 227.431107 177.69688 
L 227.675931 77.676522 
L 227.760677 105.44013 
L 227.977252 181.900684 
L 228.0055 180.684145 
L 228.137328 156.734222 
L 228.372735 137.430633 
L 228.391568 138.252039 
L 228.542228 164.439069 
L 228.66464 177.540255 
L 228.702305 175.647693 
L 228.947129 160.077729 
L 229.003626 156.93551 
L 229.126038 129.035786 
L 229.257866 104.476682 
L 229.295531 108.810374 
L 229.625101 180.896826 
L 229.691015 177.129172 
L 229.832259 144.722877 
L 229.964087 120.557538 
L 230.011168 124.245741 
L 230.293657 146.844983 
L 230.312489 146.094217 
L 230.46315 131.103659 
L 230.519648 137.02593 
L 230.915131 256.869579 
L 230.999878 237.638454 
L 231.338864 131.95393 
L 231.451859 118.199811 
L 231.498941 122.552188 
L 231.621352 166.180475 
L 231.800262 236.307978 
L 231.837927 232.172385 
L 232.016836 168.305012 
L 232.063918 161.806222 
L 232.110999 167.942238 
L 232.33699 218.730452 
L 232.393487 214.505532 
L 232.544148 180.453385 
L 232.675976 150.153701 
L 232.723057 153.477915 
L 233.109125 201.284636 
L 233.14679 199.343157 
L 233.250369 174.613149 
L 233.466944 137.151108 
L 233.495192 138.537792 
L 233.598771 162.654062 
L 233.730599 192.552689 
L 233.777681 188.364989 
L 233.900092 149.626251 
L 234.022504 111.426206 
L 234.069586 116.45415 
L 234.370907 160.162042 
L 234.643979 207.53155 
L 234.728725 196.755885 
L 234.869969 133.593401 
L 235.011214 68.046604 
L 235.058295 76.816073 
L 235.27487 172.082086 
L 235.369032 160.871791 
L 235.42553 156.80547 
L 235.482028 159.446672 
L 235.83043 191.044017 
L 235.839846 190.997227 
L 235.886928 186.581198 
L 236.028172 165.327014 
L 236.103502 170.903526 
L 236.291828 177.501365 
L 236.329493 174.797118 
L 236.498986 144.236899 
L 236.574316 153.317644 
L 236.753226 196.356348 
L 236.828556 193.365285 
L 236.932135 178.370929 
L 237.101628 103.742931 
L 237.195791 79.340452 
L 237.242872 87.197974 
L 237.497112 197.661909 
L 237.600691 180.320459 
L 237.666605 169.566214 
L 237.723103 176.331464 
L 237.920845 212.206292 
L 237.95851 208.729859 
L 238.071505 167.357516 
L 238.1845 129.249683 
L 238.240998 134.100343 
L 238.617649 190.570497 
L 238.674147 188.665629 
L 238.76831 167.216538 
L 238.937803 102.537482 
L 238.994301 110.341529 
L 239.239124 199.164201 
L 239.323871 187.854857 
L 239.709938 120.124883 
L 239.757019 123.410206 
L 239.870015 131.587661 
L 239.90768 128.348521 
L 240.05834 96.99348 
L 240.124254 108.694007 
L 240.331413 183.484554 
L 240.406743 174.763393 
L 240.613901 158.686791 
L 240.623317 158.784625 
L 240.679815 165.334306 
L 240.79281 185.3917 
L 240.849308 179.717811 
L 241.028217 143.386021 
L 241.094131 149.503807 
L 241.225959 200.285792 
L 241.37662 238.479609 
L 241.414285 233.726479 
L 241.583778 162.2565 
L 241.847434 85.10701 
L 241.866266 84.505577 
L 241.903932 87.892227 
L 242.026343 131.01175 
L 242.224085 205.007476 
L 242.26175 201.482126 
L 242.525406 140.576041 
L 242.59132 152.457803 
L 242.723148 186.691488 
L 242.770229 180.958352 
L 242.939723 143.161794 
L 243.015053 147.071641 
L 243.099799 166.028104 
L 243.344623 212.320836 
L 243.438785 214.121794 
L 243.467034 213.283828 
L 243.598862 198.650423 
L 243.711858 173.883651 
L 243.853102 143.552217 
L 243.890767 145.032481 
L 244.041427 156.894949 
L 244.182672 205.887522 
L 244.286251 227.920576 
L 244.333332 223.319665 
L 244.653486 142.285546 
L 244.728816 158.970569 
L 244.907725 220.482644 
L 244.973639 211.4019 
L 245.114883 179.116985 
L 245.171381 186.338133 
L 245.340874 219.390524 
L 245.387956 215.420063 
L 245.642195 180.201509 
L 245.670444 182.24781 
L 245.792856 216.213669 
L 245.85877 226.271686 
L 245.915267 219.416046 
L 246.160091 174.853023 
L 246.216588 176.409549 
L 246.404914 192.04833 
L 246.612072 238.826888 
L 246.696819 230.581071 
L 246.81923 174.130361 
L 246.951058 110.52003 
L 246.99814 122.335556 
L 247.214714 253.855577 
L 247.299461 224.273086 
L 247.516035 146.500591 
L 247.534868 147.078022 
L 247.638447 170.587694 
L 247.798524 198.109148 
L 247.855021 193.931018 
L 247.949184 169.934913 
L 248.099845 129.67216 
L 248.146926 133.627582 
L 248.363501 183.03853 
L 248.457663 172.333658 
L 248.674238 129.4136 
L 248.711903 131.607259 
L 248.796649 161.018693 
L 248.928477 200.850614 
L 248.975559 195.678501 
L 249.163884 137.821815 
L 249.35221 77.301747 
L 249.389875 82.641574 
L 249.719445 198.441387 
L 249.83244 187.838754 
L 250.058431 164.878864 
L 250.171427 150.187731 
L 250.397417 118.663912 
L 250.425666 119.433516 
L 250.500996 131.433163 
L 250.755236 191.820457 
L 250.82115 187.534011 
L 250.877648 184.340749 
L 250.943562 185.190412 
L 251.009476 192.290483 
L 251.178969 212.86287 
L 251.216634 210.662679 
L 251.320213 186.105854 
L 251.593285 91.10615 
L 251.659199 101.807225 
L 251.809859 193.821335 
L 251.941687 239.543473 
L 251.979353 235.668111 
L 252.148846 167.6299 
L 252.29009 144.153802 
L 252.318339 145.462401 
L 252.44075 173.445375 
L 252.497248 181.63392 
L 252.553746 175.891061 
L 252.713822 145.784006 
L 252.760904 150.69604 
L 252.986895 196.115258 
L 253.033976 192.480378 
L 253.165804 178.558088 
L 253.203469 182.38894 
L 253.401211 242.240428 
L 253.495374 223.607089 
L 253.768446 143.0076 
L 253.796695 143.44861 
L 253.806111 143.459852 
L 253.853192 140.245474 
L 253.919106 135.335871 
L 253.966188 139.32198 
L 254.135681 175.828016 
L 254.220427 164.643851 
L 254.286341 158.26401 
L 254.342839 161.510595 
L 254.484083 187.558166 
L 254.559414 179.355796 
L 254.757155 134.734741 
L 254.804237 139.936022 
L 254.926649 184.152982 
L 254.97373 192.196448 
L 255.030228 185.66135 
L 255.246802 131.704029 
L 255.331549 141.874766 
L 255.510458 215.263286 
L 255.604621 246.861239 
L 255.661118 237.531049 
L 255.85886 158.600807 
L 255.934191 174.419001 
L 256.160181 234.945449 
L 256.18843 233.533395 
L 256.301426 208.611365 
L 256.489751 182.868537 
L 256.508584 182.983081 
L 256.536833 181.148095 
L 256.630995 151.964078 
L 256.828737 109.594106 
L 256.979398 107.587607 
L 257.007647 108.420103 
L 257.111226 123.047432 
L 257.469045 179.041179 
L 257.478461 179.440413 
L 257.516126 176.671755 
L 257.723284 140.128347 
L 257.779782 132.390383 
L 257.836279 138.909529 
L 258.109352 217.750294 
L 258.212931 215.298227 
L 258.288261 209.437026 
L 258.551917 150.733107 
L 258.636663 163.74041 
L 258.730826 178.941675 
L 258.787324 175.355255 
L 258.815573 174.567118 
L 258.853238 176.867574 
L 258.97565 190.655114 
L 259.041563 189.344843 
L 259.116894 184.871997 
L 259.229889 159.913812 
L 259.324052 146.326344 
L 259.371133 148.505875 
L 259.502961 175.665011 
L 259.663038 196.318369 
L 259.681871 195.811275 
L 259.766617 182.937962 
L 259.926694 161.339386 
L 259.945526 162.012068 
L 260.020857 175.752059 
L 260.19035 219.395841 
L 260.237431 212.396946 
L 260.359843 144.429984 
L 260.454006 115.373576 
L 260.510503 121.441382 
L 260.651748 185.983563 
L 260.840073 222.797532 
L 260.92482 219.963094 
L 261.216724 195.672425 
L 261.48038 110.23686 
L 261.555711 129.523738 
L 261.781701 250.198821 
L 261.847615 235.936393 
L 262.101855 104.730837 
L 262.224267 118.247208 
L 262.629167 194.234849 
L 262.695081 187.861997 
L 262.808076 147.942117 
L 262.930488 120.151012 
L 262.977569 121.308304 
L 263.118813 130.356539 
L 263.241225 128.22076 
L 263.269474 129.376684 
L 263.363637 150.511918 
L 263.523713 220.940214 
L 263.627292 243.782673 
L 263.674374 238.863196 
L 263.900365 165.279161 
L 263.947446 158.146428 
L 263.994527 165.35679 
L 264.34293 241.140712 
L 264.352346 241.286247 
L 264.380595 240.408176 
L 264.512423 225.814116 
L 264.578337 222.290438 
L 264.625418 224.290101 
L 264.691332 227.6965 
L 264.728997 224.945616 
L 264.889074 182.753233 
L 264.992653 175.342495 
L 265.020902 176.510117 
L 265.096232 193.645721 
L 265.331639 239.095474 
L 265.388137 239.917793 
L 265.40697 240.22375 
L 265.444635 239.096538 
L 265.529381 222.808166 
L 265.727123 174.901788 
L 265.783621 179.801972 
L 266.000195 227.368363 
L 266.075526 222.082466 
L 266.254435 189.4088 
L 266.329765 200.851677 
L 266.452177 224.022274 
L 266.499258 219.469065 
L 266.668751 160.842775 
L 266.781747 130.633025 
L 266.828828 137.173136 
L 267.1019 245.078512 
L 267.196063 222.394804 
L 267.327891 191.928013 
L 267.374972 195.952405 
L 267.572714 228.730133 
L 267.648045 218.8532 
L 267.83637 169.512588 
L 267.902284 180.576741 
L 268.052945 221.139983 
L 268.109442 216.863867 
L 268.344849 154.132215 
L 268.457845 168.252754 
L 268.712084 199.035376 
L 268.881577 220.543563 
L 268.956908 213.13647 
L 269.182898 191.934546 
L 269.192315 191.824711 
L 269.220564 192.740913 
L 269.277061 194.816685 
L 269.333559 192.995067 
L 269.418305 182.574884 
L 269.550133 172.726055 
L 269.578382 173.406029 
L 269.625464 175.531781 
L 269.719626 174.956326 
L 269.747875 174.602211 
L 269.776124 175.284615 
L 269.860871 191.058145 
L 270.105694 263.116342 
L 270.171608 248.357606 
L 270.416431 140.336623 
L 270.482345 155.014691 
L 270.661255 199.048441 
L 270.708336 196.254261 
L 270.92491 182.159396 
L 270.990824 185.986449 
L 271.122652 188.692367 
L 271.141485 188.319414 
L 271.188566 182.690036 
L 271.339227 158.636659 
L 271.405141 159.807775 
L 271.499304 152.680967 
L 271.536969 156.781164 
L 271.668797 210.186728 
L 271.781792 245.69939 
L 271.828873 239.03167 
L 272.092529 150.089289 
L 272.196108 160.792946 
L 272.422099 178.798874 
L 272.57276 188.99802 
L 272.789334 218.152566 
L 272.826999 215.167883 
L 273.005909 172.692938 
L 273.156569 127.435509 
L 273.20365 134.030006 
L 273.45789 239.417079 
L 273.552053 217.016086 
L 273.815709 72.344899 
L 273.909872 92.917893 
L 274.135862 165.450522 
L 274.211193 161.709604 
L 274.408934 131.004002 
L 274.559595 81.590016 
L 274.682007 53.568 
L 274.719672 57.470707 
L 274.832667 106.57266 
L 274.992744 155.87271 
L 275.020993 154.441818 
L 275.275232 126.780298 
L 275.341146 131.074187 
L 275.576553 171.528202 
L 275.698965 167.593592 
L 275.755463 168.913586 
L 275.793128 167.810983 
L 275.962621 159.892999 
L 276.000286 162.406896 
L 276.32044 207.739523 
L 276.518182 276.12881 
L 276.584095 268.571625 
L 277.05491 187.568496 
L 277.337398 170.6556 
L 277.412728 174.200091 
L 277.629303 205.93659 
L 277.6858 199.5964 
L 277.883542 115.564078 
L 277.996538 134.098975 
L 278.373189 214.992421 
L 278.401438 213.539502 
L 278.523849 191.653806 
L 278.731008 165.837146 
L 278.759256 165.964907 
L 278.778089 165.735211 
L 278.844003 159.146335 
L 278.919333 152.733225 
L 278.956998 156.281362 
L 279.15474 208.764344 
L 279.258319 196.74358 
L 279.343066 187.83526 
L 279.390147 190.987049 
L 279.48431 200.653731 
L 279.531392 196.552623 
L 279.73855 137.323988 
L 279.832713 158.677524 
L 279.973957 189.377201 
L 280.011622 186.388569 
L 280.21878 130.804841 
L 280.331775 145.030658 
L 280.510685 186.191079 
L 280.604848 182.959686 
L 280.62368 182.230188 
L 280.670762 185.091211 
L 280.802589 194.67905 
L 280.868503 191.377927 
L 280.981499 168.675534 
L 281.122743 156.826283 
L 281.150992 157.115985 
L 281.188657 160.0279 
L 281.367566 203.948625 
L 281.452313 188.993463 
L 281.621806 135.430666 
L 281.68772 142.029113 
L 281.932543 169.90058 
L 281.951376 169.457899 
L 282.007873 162.067061 
L 282.186783 127.927715 
L 282.233864 132.197602 
L 282.412774 170.389444 
L 282.469271 156.785873 
L 282.648181 70.192865 
L 282.714095 84.834777 
L 282.930669 166.540667 
L 283.015416 158.119387 
L 283.297904 123.756725 
L 283.401483 129.678844 
L 283.523895 159.142537 
L 283.844048 225.009117 
L 283.862881 224.726706 
L 284.004125 215.199634 
L 284.437274 133.898599 
L 284.484355 136.715415 
L 284.653849 159.279109 
L 284.719762 152.405696 
L 284.870423 134.560191 
L 284.926921 134.695699 
L 284.983418 136.56517 
L 285.171744 147.282196 
L 285.491898 202.304293 
L 285.529563 199.318547 
L 285.91563 134.508387 
L 285.981544 138.899807 
L 286.207535 186.355603 
L 286.273449 176.348327 
L 286.461775 126.739433 
L 286.518272 133.649458 
L 286.668933 171.646544 
L 286.753679 164.054723 
L 287.111498 117.397393 
L 287.167996 123.222894 
L 287.30924 144.81038 
L 287.356321 141.675757 
L 287.469317 128.588699 
L 287.525814 132.226162 
L 287.657642 173.576174 
L 287.798886 218.66999 
L 287.845968 213.351734 
L 288.04371 155.291329 
L 288.345031 90.828449 
L 288.363863 91.142458 
L 288.420361 99.940032 
L 288.684017 189.841151 
L 288.787596 172.972006 
L 288.947673 146.317381 
L 288.994754 149.903041 
L 289.145415 174.000929 
L 289.201912 168.080785 
L 289.409071 149.90137 
L 289.437319 148.961621 
L 289.474985 151.278787 
L 289.58798 173.195626 
L 289.66331 165.045059 
L 289.889301 143.797712 
L 289.955215 140.441141 
L 290.002296 142.931338 
L 290.021129 143.935499 
L 290.06821 140.314899 
L 290.171789 108.978392 
L 290.32245 59.485562 
L 290.369531 68.413479 
L 290.661436 212.20933 
L 290.755599 197.841929 
L 291.075752 132.141393 
L 291.141666 131.409465 
L 291.169915 132.676287 
L 291.254662 151.042407 
L 291.433571 170.625369 
L 291.716059 212.938069 
L 291.810222 208.086801 
L 291.885553 203.787747 
L 291.94205 206.740831 
L 292.064462 228.38012 
L 292.12096 217.28209 
L 292.337534 125.600674 
L 292.412864 131.207417 
L 292.60119 155.684638 
L 292.648271 155.590603 
L 292.75185 151.970762 
L 292.911927 144.449277 
L 292.940176 146.288365 
L 293.00609 148.635459 
L 293.043755 146.994316 
L 293.175583 138.351544 
L 293.213248 139.613353 
L 293.297995 159.002927 
L 293.561651 224.151098 
L 293.580483 223.62775 
L 293.674646 214.423953 
L 293.825306 159.166236 
L 294.013632 114.689501 
L 294.032465 115.080531 
L 294.098379 125.514842 
L 294.305537 206.982224 
L 294.409116 192.197663 
L 294.823432 136.906828 
L 294.851681 136.242046 
L 294.87993 137.598803 
L 294.992925 159.721183 
L 295.303663 220.08022 
L 295.350744 216.893339 
L 295.444907 191.319592 
L 295.680314 144.4233 
L 295.878056 128.030714 
L 295.906305 128.836017 
L 295.991051 139.548182 
L 296.395951 198.886195 
L 296.414784 199.502213 
L 296.443033 196.419089 
L 296.716105 121.195583 
L 296.8291 133.390138 
L 297.045675 148.560564 
L 297.073924 148.203715 
L 297.149254 142.325803 
L 297.346996 132.929075 
L 297.403493 133.699286 
L 297.459991 137.086392 
L 297.733063 158.176963 
L 297.780145 158.3901 
L 297.798977 158.126527 
L 297.874307 157.333376 
L 297.911973 158.059684 
L 298.024968 169.082364 
L 298.194461 191.066197 
L 298.22271 190.358727 
L 298.307456 176.596708 
L 298.495782 134.291452 
L 298.580529 148.803173 
L 298.797103 246.105916 
L 298.938347 233.131275 
L 299.041926 237.253804 
L 299.079591 235.31673 
L 299.202003 203.048222 
L 299.503324 120.811541 
L 299.522157 121.395959 
L 299.588071 138.09982 
L 299.889392 213.689594 
L 299.898808 213.865512 
L 299.927057 213.077071 
L 300.209545 186.437334 
L 300.42612 150.122711 
L 300.539115 144.864614 
L 300.567364 146.74639 
L 300.821603 162.383805 
L 300.859269 163.687999 
L 300.934599 176.142633 
L 301.094676 219.959903 
L 301.16059 214.611721 
L 301.320666 157.408878 
L 301.461911 129.502166 
L 301.490159 130.988811 
L 301.697318 168.178163 
L 301.904476 192.989446 
L 301.913892 192.769625 
L 302.008055 181.104495 
L 302.271711 124.005107 
L 302.365874 138.585342 
L 302.620113 219.20534 
L 302.695443 207.854371 
L 302.93085 175.763452 
L 303.015597 171.401353 
L 303.072095 174.210877 
L 303.251004 204.580897 
L 303.326334 192.94053 
L 303.505244 147.098378 
L 303.552325 152.229474 
L 303.712402 188.087591 
L 303.778316 180.207738 
L 303.966641 122.110873 
L 304.183216 77.064759 
L 304.202048 77.224422 
L 304.24913 80.583728 
L 304.362125 113.915796 
L 304.682279 207.370672 
L 304.701111 207.140368 
L 304.776442 199.566169 
L 305.13426 124.842465 
L 305.228423 127.829578 
L 305.237839 127.724604 
L 305.256672 128.123382 
L 305.341418 140.262944 
L 305.501495 191.920114 
L 305.746319 247.754806 
L 305.765151 247.656972 
L 305.849898 247.869502 
L 305.887563 245.34649 
L 305.991142 210.025546 
L 306.245381 146.894964 
L 306.339544 142.554588 
L 306.499621 118.779976 
L 306.565535 129.91325 
L 306.885689 213.353405 
L 306.923354 212.283313 
L 307.017517 200.67105 
L 307.121096 189.55236 
L 307.168177 192.712353 
L 307.309421 205.257984 
L 307.347086 201.843533 
L 307.535412 175.586775 
L 307.59191 180.323042 
L 307.676656 188.693126 
L 307.714321 184.893417 
L 307.874398 156.108027 
L 307.930896 160.253495 
L 308.07214 198.436982 
L 308.232217 240.228004 
L 308.279298 233.743342 
L 308.505289 166.74241 
L 308.580619 181.302592 
L 308.768945 230.657484 
L 308.80661 226.505028 
L 308.910189 182.257229 
L 309.098515 129.143038 
L 309.107931 129.156103 
L 309.145596 132.43778 
L 309.249175 170.363011 
L 309.46575 221.662723 
L 309.512831 219.274005 
L 309.61641 202.716439 
L 309.738822 188.61413 
L 309.785903 191.739942 
L 310.068392 250.081846 
L 310.143722 241.333189 
L 310.652201 116.764514 
L 310.718115 124.885305 
L 311.000603 215.815803 
L 311.104183 201.929517 
L 311.226594 187.57275 
L 311.273676 190.001574 
L 311.424336 205.507277 
L 311.480834 200.592661 
L 311.857485 137.409213 
L 311.932815 146.84787 
L 312.177639 223.940847 
L 312.290634 206.563393 
L 312.516625 130.936552 
L 312.591955 147.70999 
L 312.761448 198.38533 
L 312.808529 193.715906 
L 313.025104 147.569316 
L 313.10985 160.249393 
L 313.411171 239.345679 
L 313.477085 239.210778 
L 313.524167 235.625574 
L 313.684244 192.2958 
L 314.004397 129.88393 
L 314.013813 129.796275 
L 314.032646 130.142338 
L 314.107976 138.920771 
L 314.362216 201.37138 
L 314.446962 189.244731 
L 314.607039 143.896609 
L 314.663537 151.252658 
L 314.898944 246.811107 
L 314.993107 224.890167 
L 315.200265 164.678032 
L 315.228514 166.119709 
L 315.341509 180.105043 
L 315.398007 173.991055 
L 315.586332 150.122255 
L 315.623998 151.753067 
L 315.859405 187.307202 
L 315.962984 179.223478 
L 316.292554 143.95297 
L 316.349051 146.590069 
L 316.396133 148.238959 
L 316.443214 146.182784 
L 316.45263 145.973141 
L 316.480879 147.441403 
L 316.650372 166.582899 
L 316.735119 161.46259 
L 316.772784 164.661777 
L 316.904612 207.945824 
L 316.96111 217.747255 
L 317.017607 209.705308 
L 317.205933 165.229788 
L 317.253014 168.639378 
L 317.394258 188.471785 
L 317.460172 184.574243 
L 317.84624 142.770156 
L 317.987484 107.692428 
L 318.034566 115.783748 
L 318.147561 197.88644 
L 318.335887 295.488 
L 318.354719 294.230444 
L 318.439466 266.208428 
L 318.684289 201.658804 
L 318.787868 192.956633 
L 318.83495 196.646354 
L 319.013859 219.235419 
L 319.06094 214.77427 
L 319.437592 162.354637 
L 319.447008 162.437887 
L 319.46584 162.551519 
L 319.484673 162.076632 
L 319.560003 150.018193 
L 319.654166 136.70873 
L 319.691831 141.451986 
L 319.917822 180.789574 
L 319.946071 180.036985 
L 320.021401 175.332012 
L 320.134396 146.164706 
L 320.332138 109.619627 
L 320.350971 110.141457 
L 320.445134 119.518285 
L 320.85945 174.196293 
L 320.963029 170.196967 
L 321.028943 164.250997 
L 321.18902 135.948546 
L 321.254934 143.187316 
L 321.528006 191.982399 
L 321.631585 183.472856 
L 321.659834 182.924442 
L 321.735164 183.669891 
L 321.838743 187.19524 
L 321.979987 208.872356 
L 322.055318 216.707546 
L 322.092983 212.437052 
L 322.224811 151.460478 
L 322.309557 128.603739 
L 322.366055 133.942199 
L 322.497883 179.020063 
L 322.676792 207.315983 
L 322.705041 208.052317 
L 322.846285 231.572015 
L 322.912199 238.902086 
L 322.968697 234.701169 
L 323.081692 181.542771 
L 323.260602 121.428773 
L 323.288851 123.451375 
L 323.599588 155.706058 
L 323.637253 154.347175 
L 323.721999 133.745468 
L 323.957407 97.010343 
L 323.976239 97.309465 
L 324.042153 105.651596 
L 324.35289 152.253325 
L 324.381139 152.789434 
L 324.418804 150.869527 
L 324.512967 129.8578 
L 324.60713 117.684817 
L 324.654211 121.386237 
L 324.833121 148.753649 
L 324.889618 142.713795 
L 325.077944 126.13253 
L 325.096777 127.253514 
L 325.256853 150.412262 
L 325.3416 144.07511 
L 325.482844 109.916014 
L 325.548758 125.586394 
L 325.82183 258.077763 
L 325.925409 251.78573 
L 326.019572 230.745139 
L 326.22673 188.370154 
L 326.245563 188.670339 
L 326.273812 188.732016 
L 326.367975 193.110979 
L 326.424472 195.680476 
L 326.490386 194.336328 
L 326.528051 192.273317 
L 326.63163 169.83556 
L 326.697544 158.252161 
L 326.754042 163.673871 
L 326.923535 203.520376 
L 326.989449 196.881368 
L 327.234272 136.562436 
L 327.300186 148.707619 
L 327.573259 251.399105 
L 327.658005 237.49064 
L 327.893412 173.783083 
L 327.94991 178.285552 
L 328.213566 206.609272 
L 328.232398 206.198341 
L 328.317145 194.49113 
L 328.580801 155.156428 
L 328.590217 155.500821 
L 328.674963 171.722806 
L 328.797375 198.53603 
L 328.853873 192.435563 
L 329.051615 154.74413 
L 329.117529 163.397081 
L 329.183443 173.953836 
L 329.23994 168.564636 
L 329.484764 119.270814 
L 329.588343 127.574512 
L 329.842582 160.672781 
L 329.880247 159.067187 
L 330.125071 136.915184 
L 330.209817 138.46305 
L 330.294564 155.773813 
L 330.435808 186.321574 
L 330.492306 182.721938 
L 330.63355 154.467644 
L 330.690048 165.589676 
L 330.868957 211.770599 
L 330.916038 209.173301 
L 331.377436 162.591625 
L 331.424518 164.786955 
L 331.509264 179.861067 
L 331.744671 228.394856 
L 331.763504 227.948984 
L 331.838834 219.464203 
L 332.02716 188.242849 
L 332.10249 193.455827 
L 332.168404 196.6658 
L 332.206069 194.047385 
L 332.300232 168.919358 
L 332.469725 115.505135 
L 332.516806 118.970933 
L 332.620385 157.339909 
L 332.83696 230.186546 
L 332.865209 228.202835 
L 332.978204 196.875139 
L 333.185362 127.199736 
L 333.24186 134.157767 
L 333.401937 204.185157 
L 333.533765 244.15046 
L 333.580846 238.432971 
L 333.806837 188.477102 
L 333.891583 200.596156 
L 333.957497 209.787495 
L 334.013995 203.874946 
L 334.277651 141.691708 
L 334.362397 154.885867 
L 334.569556 199.508897 
L 334.607221 197.363547 
L 334.663718 194.289083 
L 334.691967 197.52321 
L 334.842628 240.722793 
L 334.908542 227.783396 
L 335.125116 153.649579 
L 335.181614 161.645952 
L 335.294609 184.62316 
L 335.351107 175.894403 
L 335.473519 153.253232 
L 335.5206 155.253502 
L 335.586514 172.253902 
L 335.765423 235.720673 
L 335.812505 230.723415 
L 336.038495 175.00509 
L 336.170323 177.812184 
L 336.273902 173.864509 
L 336.311568 176.958875 
L 336.546975 218.346714 
L 336.622305 211.505202 
L 336.791798 182.510776 
L 336.848296 188.684315 
L 336.98954 209.490804 
L 337.046037 204.106161 
L 337.168449 183.229336 
L 337.224947 190.385768 
L 337.441521 227.787498 
L 337.488603 221.994811 
L 337.733426 152.563992 
L 337.837005 168.084583 
L 338.015914 195.148468 
L 338.072412 192.793931 
L 338.449063 144.153194 
L 338.543226 149.105181 
L 338.693887 179.862586 
L 339.023457 225.981679 
L 339.051705 224.710755 
L 339.127036 210.034357 
L 339.296529 162.547873 
L 339.353026 166.138243 
L 339.466022 182.951786 
L 339.67318 235.426413 
L 339.739094 228.800926 
L 340.00275 176.45011 
L 340.096913 182.690796 
L 340.341736 210.205718 
L 340.40765 201.999398 
L 340.605392 135.004999 
L 340.699555 149.574144 
L 340.925545 195.870219 
L 340.953794 195.252834 
L 341.038541 183.568715 
L 341.264531 137.101584 
L 341.339862 140.300011 
L 341.424608 171.27663 
L 341.537604 201.339174 
L 341.575269 197.001533 
L 341.923671 143.689548 
L 341.989585 139.469186 
L 342.046083 142.200473 
L 342.168494 154.816594 
L 342.243825 150.157196 
L 342.394485 127.656546 
L 342.441567 124.33294 
L 342.479232 128.060185 
L 342.592227 180.744455 
L 342.789969 275.212304 
L 342.827634 271.525013 
L 342.997127 203.107166 
L 343.081874 188.205781 
L 343.138371 192.096791 
L 343.307865 199.899927 
L 343.336113 199.712008 
L 343.392611 197.728752 
L 343.477358 185.051713 
L 343.675099 154.710557 
L 343.684516 154.890273 
L 343.778679 165.179201 
L 344.174162 212.957818 
L 344.240076 223.130682 
L 344.287158 214.221906 
L 344.541397 86.981342 
L 344.63556 110.625004 
L 344.81447 194.212821 
L 344.880383 184.776594 
L 345.144039 110.049852 
L 345.228786 119.658958 
L 345.501858 162.519921 
L 345.727849 176.155698 
L 345.793763 173.313816 
L 345.906758 166.961017 
L 345.944423 168.69346 
L 346.095084 192.237161 
L 346.189247 187.54814 
L 346.386988 170.797185 
L 346.43407 175.155183 
L 346.547065 193.537101 
L 346.603563 187.043173 
L 346.895468 132.161142 
L 346.933133 134.185567 
L 347.036712 153.308377 
L 347.262703 224.391276 
L 347.338033 216.483927 
L 347.733517 165.284934 
L 347.742933 165.502021 
L 347.808847 174.625454 
L 347.987756 211.04186 
L 348.044254 206.691762 
L 348.157249 180.896826 
L 348.336159 146.837084 
L 348.373824 147.941053 
L 348.505652 159.363574 
L 348.599815 155.939249 
L 348.628063 155.038086 
L 348.675145 156.787089 
L 348.78814 165.724273 
L 348.910552 181.57999 
L 348.957633 178.186655 
L 349.334285 128.965905 
L 349.362533 129.817543 
L 349.428447 142.661536 
L 349.560275 171.957363 
L 349.607357 167.393824 
L 349.908678 144.44867 
L 349.946343 142.8212 
L 349.984008 145.196397 
L 350.530152 215.299746 
L 350.596066 212.215255 
L 351.095129 152.060392 
L 351.161043 164.575793 
L 351.368201 237.11632 
L 351.452948 226.447148 
L 351.829599 136.947238 
L 351.942594 145.024277 
L 352.046174 152.25454 
L 352.093255 150.308351 
L 352.102671 150.259738 
L 352.121504 150.712143 
L 352.403992 163.464683 
L 352.498155 177.827527 
L 352.554653 171.130032 
L 352.620567 164.264214 
L 352.667648 169.301881 
L 352.808892 189.748634 
L 352.86539 186.459362 
L 353.091381 160.401005 
L 353.157295 149.457017 
L 353.213792 157.234176 
L 353.477448 214.763029 
L 353.552779 208.774371 
L 353.816434 183.033213 
L 353.920014 178.47651 
L 354.070674 156.846639 
L 354.259 120.00092 
L 354.324914 130.256275 
L 354.569737 198.934049 
L 354.626235 192.566514 
L 354.833393 162.524782 
L 354.871058 164.907728 
L 354.984053 180.15791 
L 355.059384 177.354007 
L 355.115881 175.754489 
L 355.14413 177.938881 
L 355.294791 222.30168 
L 355.370121 231.245852 
L 355.417202 227.435965 
L 355.511365 189.900702 
L 355.671442 120.365365 
L 355.718523 126.686718 
L 355.916265 173.689047 
L 355.982179 169.151485 
L 356.13284 162.366183 
L 356.151672 162.562154 
L 356.217586 169.637766 
L 356.387079 190.693548 
L 356.434161 188.620359 
L 356.622486 166.468507 
L 356.678984 172.661339 
L 356.914391 216.34538 
L 356.961472 212.182745 
L 357.225128 186.571171 
L 357.281626 182.176258 
L 357.34754 184.741806 
L 357.394621 185.791541 
L 357.441703 184.199924 
L 357.517033 178.829713 
L 357.564114 181.984085 
L 357.724191 215.150109 
L 357.82777 230.166341 
L 357.874852 226.943608 
L 357.987847 183.406469 
L 358.091426 161.193699 
L 358.147924 162.294782 
L 358.204421 167.891802 
L 358.308001 213.306008 
L 358.468077 276.086121 
L 358.505742 270.002364 
L 358.74115 177.485565 
L 358.835312 198.941037 
L 358.985973 227.473792 
L 359.014222 226.268192 
L 359.098968 207.76869 
L 359.230796 183.180571 
L 359.287294 183.864342 
L 359.315543 184.254765 
L 359.343792 184.745908 
L 359.37204 183.376542 
L 359.560366 159.198138 
L 359.654529 164.92459 
L 359.95585 194.919076 
L 359.984099 193.754492 
L 360.172424 171.58198 
L 360.257171 177.048201 
L 360.398415 182.078576 
L 360.417248 181.833841 
L 360.483162 174.021894 
L 360.586741 159.26331 
L 360.633822 166.492358 
L 360.850397 211.180863 
L 360.897478 205.866557 
L 361.029306 155.086243 
L 361.179966 117.753635 
L 361.217631 122.433086 
L 361.387125 190.372399 
L 361.603699 254.028153 
L 361.631948 250.969792 
L 361.914436 174.350791 
L 362.055681 144.176437 
L 362.093346 147.322454 
L 362.206341 159.628515 
L 362.262839 157.459011 
L 362.328753 153.459533 
L 362.38525 156.154665 
L 362.469997 173.153241 
L 362.648906 240.706538 
L 362.705404 227.709413 
L 362.903146 176.541867 
L 362.940811 179.303234 
L 363.11972 205.669827 
L 363.185634 200.853652 
L 363.430458 150.409983 
L 363.496372 165.012397 
L 363.647032 205.023427 
L 363.694113 199.835667 
L 363.901272 132.478494 
L 364.023683 143.817765 
L 364.127262 163.670528 
L 364.18376 158.911626 
L 364.343837 144.10215 
L 364.381502 147.034574 
L 364.532162 167.671981 
L 364.579244 161.805311 
L 364.776986 96.295885 
L 364.852316 114.437929 
L 365.021809 161.860304 
L 365.068891 161.291837 
L 365.087723 161.360654 
L 365.115972 161.022946 
L 365.125388 160.997728 
L 365.134804 161.128983 
L 365.238384 167.777258 
L 365.351379 182.340631 
L 365.407877 176.501457 
L 365.530288 158.722643 
L 365.57737 161.339994 
L 365.709198 188.148357 
L 365.812777 209.318228 
L 365.878691 206.62264 
L 365.963437 196.919954 
L 366.255342 137.261095 
L 366.358921 144.601648 
L 366.509582 196.208838 
L 366.660242 243.007752 
L 366.697907 238.506954 
L 366.876817 175.880731 
L 367.074558 98.120693 
L 367.131056 107.450275 
L 367.366463 227.289823 
L 367.470042 202.402886 
L 367.752531 121.239638 
L 367.809028 117.010161 
L 367.865526 119.643007 
L 368.204512 135.632258 
L 368.298675 131.872655 
L 368.402254 125.496157 
L 368.439919 128.270436 
L 368.534082 164.477655 
L 368.769489 232.730066 
L 368.778905 232.642867 
L 368.835403 227.971467 
L 369.061394 210.360216 
L 369.099059 209.149298 
L 369.193222 192.940833 
L 369.40038 149.342017 
L 369.438045 153.024599 
L 369.560457 191.932571 
L 369.664036 221.619428 
L 369.720533 214.695122 
L 370.106601 115.655835 
L 370.181931 120.346072 
L 370.313759 127.90827 
L 370.624496 202.656584 
L 370.699827 193.108852 
L 370.925817 167.847443 
L 371.057645 148.126086 
L 371.132976 134.654682 
L 371.19889 140.222079 
L 371.396632 184.443292 
L 371.462545 173.203373 
L 371.641455 108.176431 
L 371.716785 122.541554 
L 371.980441 221.070861 
L 372.055771 210.814595 
L 372.366508 128.776163 
L 372.451255 137.716993 
L 372.696078 170.522522 
L 372.705495 170.254391 
L 372.81849 158.029605 
L 372.959734 143.95221 
L 372.997399 145.336311 
L 373.383467 176.700467 
L 373.411716 176.31293 
L 373.449381 176.079892 
L 373.487046 176.483835 
L 373.515295 176.859674 
L 373.571793 176.117719 
L 373.590625 176.253683 
L 373.826032 185.255888 
L 373.873114 187.084646 
L 373.910779 184.973933 
L 374.004941 172.883591 
L 374.052023 179.418385 
L 374.183851 213.533273 
L 374.240348 205.598275 
L 374.504004 139.392924 
L 374.579335 149.993886 
L 374.76766 182.607242 
L 374.814742 180.721364 
L 375.153728 143.801814 
L 375.247891 119.139408 
L 375.304388 129.23434 
L 375.50213 187.660101 
L 375.558628 179.451655 
L 375.746953 124.573574 
L 375.8317 133.552232 
L 376.076523 178.34404 
L 376.133021 171.322509 
L 376.255433 127.591982 
L 376.415509 87.158476 
L 376.453175 88.001606 
L 376.537921 98.864015 
L 376.688582 151.956786 
L 376.839242 188.834559 
L 376.876907 187.491627 
L 377.0464 157.831811 
L 377.234726 108.432256 
L 377.281807 115.473536 
L 377.554879 197.709307 
L 377.639626 186.500075 
L 377.846784 138.212389 
L 377.903282 144.452316 
L 378.18577 183.592414 
L 378.345847 209.728703 
L 378.430594 223.037862 
L 378.477675 218.916093 
L 378.609503 168.237866 
L 378.750747 128.966665 
L 378.788412 131.224128 
L 378.957905 163.221163 
L 379.052068 150.687684 
L 379.136815 134.325177 
L 379.183896 140.551431 
L 379.475801 217.506014 
L 379.532299 213.598293 
L 379.635878 187.132803 
L 379.711208 172.533123 
L 379.767706 178.026992 
L 379.956031 222.971475 
L 380.021945 209.725817 
L 380.276185 90.956817 
L 380.351515 111.270948 
L 380.586922 231.788494 
L 380.652836 222.948688 
L 380.97299 147.73779 
L 381.020071 149.441978 
L 381.19898 162.122966 
L 381.264894 158.783257 
L 381.415555 140.471828 
L 381.481469 146.181113 
L 381.650962 177.370414 
L 381.716876 164.096196 
L 381.848704 118.148007 
L 381.905201 127.479109 
L 382.140608 214.16752 
L 382.225355 194.349545 
L 382.328934 174.993393 
L 382.376015 177.09651 
L 382.423097 179.462441 
L 382.479595 177.57793 
L 382.554925 166.363078 
L 382.752667 123.791817 
L 382.790332 127.690879 
L 383.053988 208.503961 
L 383.157567 195.046989 
L 383.336476 166.236684 
L 383.383558 168.749669 
L 383.637797 181.647289 
L 383.666046 182.319666 
L 383.713127 180.835908 
L 383.750793 179.748346 
L 383.788458 181.702282 
L 383.80729 182.102883 
L 383.835539 180.53147 
L 384.023865 148.978788 
L 384.146276 156.949334 
L 384.249855 171.870467 
L 384.334602 180.424217 
L 384.409932 179.987309 
L 384.447597 179.289713 
L 384.504095 179.991714 
L 384.579425 185.564884 
L 384.786583 198.818441 
L 384.833665 197.114862 
L 384.918411 180.554105 
L 385.097321 161.020516 
L 385.153818 159.046527 
L 385.464556 127.055265 
L 385.549302 105.827059 
L 385.596384 113.342315 
L 385.86004 227.260047 
L 385.963619 204.173916 
L 386.067198 183.465412 
L 386.114279 188.669731 
L 386.302605 216.533603 
L 386.349686 213.041827 
L 386.622758 161.080674 
L 386.707505 171.004094 
L 386.905247 202.404253 
L 386.952328 202.039504 
L 386.989993 200.650997 
L 387.055907 187.485854 
L 387.2254 138.932772 
L 387.272482 145.715644 
L 387.394893 218.826159 
L 387.507889 258.986521 
L 387.545554 254.239164 
L 387.667966 188.085161 
L 387.818626 130.938071 
L 387.856291 132.558249 
L 387.997535 143.868505 
L 388.063449 139.402343 
L 388.280024 109.634211 
L 388.374187 113.711469 
L 388.590761 146.482817 
L 388.760254 176.380685 
L 388.779087 175.29768 
L 388.901498 158.162379 
L 388.976829 164.143745 
L 389.202819 203.727892 
L 389.249901 199.718844 
L 389.419394 136.847125 
L 389.588887 112.085974 
L 389.607719 112.871985 
L 389.786629 138.866993 
L 389.852543 129.400383 
L 389.946706 113.017216 
L 389.993787 117.110121 
L 390.172696 130.475185 
L 390.276275 135.797694 
L 390.313941 131.97064 
L 390.41752 117.080346 
L 390.474017 121.007663 
L 390.624678 155.34845 
L 390.803587 172.747475 
L 390.907166 183.201383 
L 390.963664 180.336258 
L 391.199071 136.270454 
L 391.387397 98.205614 
L 391.425062 99.305178 
L 391.613387 111.12754 
L 391.980622 185.521588 
L 392.065369 175.104899 
L 392.29136 130.322206 
L 392.347857 135.037509 
L 392.799839 200.826155 
L 392.865753 196.366222 
L 393.110576 162.862187 
L 393.25182 107.766107 
L 393.421313 78.553378 
L 393.43073 78.674455 
L 393.477811 82.168662 
L 393.788548 148.860749 
L 394.014539 181.555076 
L 394.052204 183.938477 
L 394.099286 180.251793 
L 394.297028 158.927729 
L 394.325276 160.571758 
L 394.626597 207.656729 
L 394.72076 215.632896 
L 394.758425 211.667144 
L 395.069163 138.804556 
L 395.163325 148.900399 
L 395.191574 150.58028 
L 395.238656 146.997355 
L 395.398732 120.181699 
L 395.464646 125.763376 
L 395.671805 182.464594 
L 395.765967 197.86107 
L 395.822465 192.596897 
L 396.020207 172.740943 
L 396.067288 175.673366 
L 396.123786 180.815552 
L 396.170868 177.044251 
L 396.349777 143.288947 
L 396.406275 149.512011 
L 396.613433 212.273591 
L 396.707596 192.050153 
L 396.990084 121.25802 
L 397.027749 125.207365 
L 397.150161 175.478611 
L 397.413817 244.996477 
L 397.442066 245.893538 
L 397.498563 244.149549 
L 397.592726 227.270833 
L 397.978794 144.819495 
L 398.016459 145.917236 
L 398.035291 146.226536 
L 398.072956 145.046761 
L 398.13887 134.34128 
L 398.39311 53.783568 
L 398.46844 70.948188 
L 398.487273 80.250729 
L 398.487273 80.250729 
" style="fill:none;stroke:#1f77b4;stroke-linecap:square;stroke-width:1.5;"/>
   </g>
   <g id="patch_3">
    <path d="M 57.6 307.584 
L 57.6 41.472 
" style="fill:none;stroke:#000000;stroke-linecap:square;stroke-linejoin:miter;stroke-width:0.8;"/>
   </g>
   <g id="patch_4">
    <path d="M 414.72 307.584 
L 414.72 41.472 
" style="fill:none;stroke:#000000;stroke-linecap:square;stroke-linejoin:miter;stroke-width:0.8;"/>
   </g>
   <g id="patch_5">
    <path d="M 57.6 307.584 
L 414.72 307.584 
" style="fill:none;stroke:#000000;stroke-linecap:square;stroke-linejoin:miter;stroke-width:0.8;"/>
   </g>
   <g id="patch_6">
    <path d="M 57.6 41.472 
L 414.72 41.472 
" style="fill:none;stroke:#000000;stroke-linecap:square;stroke-linejoin:miter;stroke-width:0.8;"/>
   </g>
   <g id="text_20">
    <!-- $\rho(t); \rho = 0.958 \pm 5.45e-05$ -->
    <defs>
     <path d="M 11.71875 51.703125 
L 22.015625 51.703125 
L 22.015625 39.3125 
L 11.71875 39.3125 
z
M 11.71875 12.40625 
L 22.015625 12.40625 
L 22.015625 4 
L 14.015625 -11.625 
L 7.71875 -11.625 
L 11.71875 4 
z
" id="DejaVuSans-59"/>
     <path d="M 10.59375 45.40625 
L 73.1875 45.40625 
L 73.1875 37.203125 
L 10.59375 37.203125 
z
M 10.59375 25.484375 
L 73.1875 25.484375 
L 73.1875 17.1875 
L 10.59375 17.1875 
z
" id="DejaVuSans-61"/>
     <path d="M 46 62.703125 
L 46 43.796875 
L 73.1875 43.796875 
L 73.1875 35.5 
L 46 35.5 
L 46 16.609375 
L 37.796875 16.609375 
L 37.796875 35.5 
L 10.59375 35.5 
L 10.59375 43.796875 
L 37.796875 43.796875 
L 37.796875 62.703125 
z
M 10.59375 8.296875 
L 73.1875 8.296875 
L 73.1875 0 
L 10.59375 0 
z
" id="DejaVuSans-177"/>
     <path d="M 10.59375 35.5 
L 73.1875 35.5 
L 73.1875 27.203125 
L 10.59375 27.203125 
z
" id="DejaVuSans-8722"/>
    </defs>
    <g transform="translate(154.32 35.472)scale(0.12 -0.12)">
     <use transform="translate(0 0.125)" xlink:href="#DejaVuSans-Oblique-961"/>
     <use transform="translate(63.476562 0.125)" xlink:href="#DejaVuSans-40"/>
     <use transform="translate(102.490234 0.125)" xlink:href="#DejaVuSans-Oblique-116"/>
     <use transform="translate(141.699219 0.125)" xlink:href="#DejaVuSans-41"/>
     <use transform="translate(180.712891 0.125)" xlink:href="#DejaVuSans-59"/>
     <use transform="translate(233.886719 0.125)" xlink:href="#DejaVuSans-Oblique-961"/>
     <use transform="translate(316.845703 0.125)" xlink:href="#DejaVuSans-61"/>
     <use transform="translate(420.117188 0.125)" xlink:href="#DejaVuSans-48"/>
     <use transform="translate(483.740234 0.125)" xlink:href="#DejaVuSans-46"/>
     <use transform="translate(515.527344 0.125)" xlink:href="#DejaVuSans-57"/>
     <use transform="translate(579.150391 0.125)" xlink:href="#DejaVuSans-53"/>
     <use transform="translate(642.773438 0.125)" xlink:href="#DejaVuSans-56"/>
     <use transform="translate(725.878906 0.125)" xlink:href="#DejaVuSans-177"/>
     <use transform="translate(829.150391 0.125)" xlink:href="#DejaVuSans-53"/>
     <use transform="translate(892.773438 0.125)" xlink:href="#DejaVuSans-46"/>
     <use transform="translate(924.560547 0.125)" xlink:href="#DejaVuSans-52"/>
     <use transform="translate(988.183594 0.125)" xlink:href="#DejaVuSans-53"/>
     <use transform="translate(1051.806641 0.125)" xlink:href="#DejaVuSans-Oblique-101"/>
     <use transform="translate(1132.8125 0.125)" xlink:href="#DejaVuSans-8722"/>
     <use transform="translate(1236.083984 0.125)" xlink:href="#DejaVuSans-48"/>
     <use transform="translate(1299.707031 0.125)" xlink:href="#DejaVuSans-53"/>
    </g>
   </g>
  </g>
 </g>
 <defs>
  <clipPath id="p0354fb5aae">
   <rect height="266.112" width="357.12" x="57.6" y="41.472"/>
  </clipPath>
 </defs>
</svg>
