<?xml version="1.0" encoding="utf-8" standalone="no"?>
<!DOCTYPE svg PUBLIC "-//W3C//DTD SVG 1.1//EN"
  "http://www.w3.org/Graphics/SVG/1.1/DTD/svg11.dtd">
<!-- Created with matplotlib (https://matplotlib.org/) -->
<svg height="345.6pt" version="1.1" viewBox="0 0 460.8 345.6" width="460.8pt" xmlns="http://www.w3.org/2000/svg" xmlns:xlink="http://www.w3.org/1999/xlink">
 <defs>
  <style type="text/css">
*{stroke-linecap:butt;stroke-linejoin:round;}
  </style>
 </defs>
 <g id="figure_1">
  <g id="patch_1">
   <path d="M 0 345.6 
L 460.8 345.6 
L 460.8 0 
L 0 0 
z
" style="fill:#ffffff;"/>
  </g>
  <g id="axes_1">
   <g id="patch_2">
    <path d="M 57.6 307.584 
L 414.72 307.584 
L 414.72 41.472 
L 57.6 41.472 
z
" style="fill:#ffffff;"/>
   </g>
   <g id="matplotlib.axis_1">
    <g id="xtick_1">
     <g id="line2d_1">
      <defs>
       <path d="M 0 0 
L 0 3.5 
" id="m2322986534" style="stroke:#000000;stroke-width:0.8;"/>
      </defs>
      <g>
       <use style="stroke:#000000;stroke-width:0.8;" x="73.832727" xlink:href="#m2322986534" y="307.584"/>
      </g>
     </g>
     <g id="text_1">
      <!-- 0 -->
      <defs>
       <path d="M 31.78125 66.40625 
Q 24.171875 66.40625 20.328125 58.90625 
Q 16.5 51.421875 16.5 36.375 
Q 16.5 21.390625 20.328125 13.890625 
Q 24.171875 6.390625 31.78125 6.390625 
Q 39.453125 6.390625 43.28125 13.890625 
Q 47.125 21.390625 47.125 36.375 
Q 47.125 51.421875 43.28125 58.90625 
Q 39.453125 66.40625 31.78125 66.40625 
z
M 31.78125 74.21875 
Q 44.046875 74.21875 50.515625 64.515625 
Q 56.984375 54.828125 56.984375 36.375 
Q 56.984375 17.96875 50.515625 8.265625 
Q 44.046875 -1.421875 31.78125 -1.421875 
Q 19.53125 -1.421875 13.0625 8.265625 
Q 6.59375 17.96875 6.59375 36.375 
Q 6.59375 54.828125 13.0625 64.515625 
Q 19.53125 74.21875 31.78125 74.21875 
z
" id="DejaVuSans-48"/>
      </defs>
      <g transform="translate(70.651477 322.182437)scale(0.1 -0.1)">
       <use xlink:href="#DejaVuSans-48"/>
      </g>
     </g>
    </g>
    <g id="xtick_2">
     <g id="line2d_2">
      <g>
       <use style="stroke:#000000;stroke-width:0.8;" x="150.222032" xlink:href="#m2322986534" y="307.584"/>
      </g>
     </g>
     <g id="text_2">
      <!-- 5 -->
      <defs>
       <path d="M 10.796875 72.90625 
L 49.515625 72.90625 
L 49.515625 64.59375 
L 19.828125 64.59375 
L 19.828125 46.734375 
Q 21.96875 47.46875 24.109375 47.828125 
Q 26.265625 48.1875 28.421875 48.1875 
Q 40.625 48.1875 47.75 41.5 
Q 54.890625 34.8125 54.890625 23.390625 
Q 54.890625 11.625 47.5625 5.09375 
Q 40.234375 -1.421875 26.90625 -1.421875 
Q 22.3125 -1.421875 17.546875 -0.640625 
Q 12.796875 0.140625 7.71875 1.703125 
L 7.71875 11.625 
Q 12.109375 9.234375 16.796875 8.0625 
Q 21.484375 6.890625 26.703125 6.890625 
Q 35.15625 6.890625 40.078125 11.328125 
Q 45.015625 15.765625 45.015625 23.390625 
Q 45.015625 31 40.078125 35.4375 
Q 35.15625 39.890625 26.703125 39.890625 
Q 22.75 39.890625 18.8125 39.015625 
Q 14.890625 38.140625 10.796875 36.28125 
z
" id="DejaVuSans-53"/>
      </defs>
      <g transform="translate(147.040782 322.182437)scale(0.1 -0.1)">
       <use xlink:href="#DejaVuSans-53"/>
      </g>
     </g>
    </g>
    <g id="xtick_3">
     <g id="line2d_3">
      <g>
       <use style="stroke:#000000;stroke-width:0.8;" x="226.611337" xlink:href="#m2322986534" y="307.584"/>
      </g>
     </g>
     <g id="text_3">
      <!-- 10 -->
      <defs>
       <path d="M 12.40625 8.296875 
L 28.515625 8.296875 
L 28.515625 63.921875 
L 10.984375 60.40625 
L 10.984375 69.390625 
L 28.421875 72.90625 
L 38.28125 72.90625 
L 38.28125 8.296875 
L 54.390625 8.296875 
L 54.390625 0 
L 12.40625 0 
z
" id="DejaVuSans-49"/>
      </defs>
      <g transform="translate(220.248837 322.182437)scale(0.1 -0.1)">
       <use xlink:href="#DejaVuSans-49"/>
       <use x="63.623047" xlink:href="#DejaVuSans-48"/>
      </g>
     </g>
    </g>
    <g id="xtick_4">
     <g id="line2d_4">
      <g>
       <use style="stroke:#000000;stroke-width:0.8;" x="303.000642" xlink:href="#m2322986534" y="307.584"/>
      </g>
     </g>
     <g id="text_4">
      <!-- 15 -->
      <g transform="translate(296.638142 322.182437)scale(0.1 -0.1)">
       <use xlink:href="#DejaVuSans-49"/>
       <use x="63.623047" xlink:href="#DejaVuSans-53"/>
      </g>
     </g>
    </g>
    <g id="xtick_5">
     <g id="line2d_5">
      <g>
       <use style="stroke:#000000;stroke-width:0.8;" x="379.389947" xlink:href="#m2322986534" y="307.584"/>
      </g>
     </g>
     <g id="text_5">
      <!-- 20 -->
      <defs>
       <path d="M 19.1875 8.296875 
L 53.609375 8.296875 
L 53.609375 0 
L 7.328125 0 
L 7.328125 8.296875 
Q 12.9375 14.109375 22.625 23.890625 
Q 32.328125 33.6875 34.8125 36.53125 
Q 39.546875 41.84375 41.421875 45.53125 
Q 43.3125 49.21875 43.3125 52.78125 
Q 43.3125 58.59375 39.234375 62.25 
Q 35.15625 65.921875 28.609375 65.921875 
Q 23.96875 65.921875 18.8125 64.3125 
Q 13.671875 62.703125 7.8125 59.421875 
L 7.8125 69.390625 
Q 13.765625 71.78125 18.9375 73 
Q 24.125 74.21875 28.421875 74.21875 
Q 39.75 74.21875 46.484375 68.546875 
Q 53.21875 62.890625 53.21875 53.421875 
Q 53.21875 48.921875 51.53125 44.890625 
Q 49.859375 40.875 45.40625 35.40625 
Q 44.1875 33.984375 37.640625 27.21875 
Q 31.109375 20.453125 19.1875 8.296875 
z
" id="DejaVuSans-50"/>
      </defs>
      <g transform="translate(373.027447 322.182437)scale(0.1 -0.1)">
       <use xlink:href="#DejaVuSans-50"/>
       <use x="63.623047" xlink:href="#DejaVuSans-48"/>
      </g>
     </g>
    </g>
    <g id="text_6">
     <!-- $time (ps)$ -->
     <defs>
      <path d="M 42.28125 54.6875 
L 40.921875 47.703125 
L 23 47.703125 
L 17.1875 18.015625 
Q 16.890625 16.359375 16.75 15.234375 
Q 16.609375 14.109375 16.609375 13.484375 
Q 16.609375 10.359375 18.484375 8.9375 
Q 20.359375 7.515625 24.515625 7.515625 
L 33.59375 7.515625 
L 32.078125 0 
L 23.484375 0 
Q 15.484375 0 11.546875 3.125 
Q 7.625 6.25 7.625 12.59375 
Q 7.625 13.71875 7.765625 15.0625 
Q 7.90625 16.40625 8.203125 18.015625 
L 14.015625 47.703125 
L 6.390625 47.703125 
L 7.8125 54.6875 
L 15.28125 54.6875 
L 18.3125 70.21875 
L 27.296875 70.21875 
L 24.3125 54.6875 
z
" id="DejaVuSans-Oblique-116"/>
      <path d="M 18.3125 75.984375 
L 27.296875 75.984375 
L 25.09375 64.59375 
L 16.109375 64.59375 
z
M 14.203125 54.6875 
L 23.1875 54.6875 
L 12.5 0 
L 3.515625 0 
z
" id="DejaVuSans-Oblique-105"/>
      <path d="M 89.796875 33.015625 
L 83.40625 0 
L 74.421875 0 
L 80.71875 32.71875 
Q 81.109375 34.8125 81.296875 36.328125 
Q 81.5 37.84375 81.5 38.921875 
Q 81.5 43.3125 79.046875 45.75 
Q 76.609375 48.1875 72.21875 48.1875 
Q 65.671875 48.1875 60.546875 43.28125 
Q 55.421875 38.375 53.90625 30.515625 
L 47.90625 0 
L 38.921875 0 
L 45.3125 32.71875 
Q 45.703125 34.515625 45.890625 36.046875 
Q 46.09375 37.59375 46.09375 38.8125 
Q 46.09375 43.265625 43.65625 45.71875 
Q 41.21875 48.1875 36.921875 48.1875 
Q 30.28125 48.1875 25.140625 43.28125 
Q 20.015625 38.375 18.5 30.515625 
L 12.5 0 
L 3.515625 0 
L 14.203125 54.6875 
L 23.1875 54.6875 
L 21.484375 46.1875 
Q 25.140625 50.984375 30.046875 53.484375 
Q 34.96875 56 40.578125 56 
Q 46.53125 56 50.359375 52.875 
Q 54.203125 49.75 54.984375 44.1875 
Q 59.078125 49.953125 64.46875 52.96875 
Q 69.875 56 75.875 56 
Q 82.90625 56 86.734375 51.953125 
Q 90.578125 47.90625 90.578125 40.484375 
Q 90.578125 38.875 90.375 36.9375 
Q 90.1875 35.015625 89.796875 33.015625 
z
" id="DejaVuSans-Oblique-109"/>
      <path d="M 48.09375 32.234375 
Q 48.25 33.015625 48.3125 33.84375 
Q 48.390625 34.671875 48.390625 35.5 
Q 48.390625 41.453125 44.890625 44.921875 
Q 41.40625 48.390625 35.40625 48.390625 
Q 28.71875 48.390625 23.578125 44.15625 
Q 18.453125 39.9375 15.828125 32.171875 
z
M 55.90625 25.203125 
L 14.109375 25.203125 
Q 13.8125 23.34375 13.71875 22.265625 
Q 13.625 21.1875 13.625 20.40625 
Q 13.625 13.625 17.796875 9.90625 
Q 21.96875 6.203125 29.59375 6.203125 
Q 35.453125 6.203125 40.671875 7.515625 
Q 45.90625 8.84375 50.390625 11.375 
L 48.6875 2.484375 
Q 43.84375 0.53125 38.6875 -0.4375 
Q 33.546875 -1.421875 28.21875 -1.421875 
Q 16.84375 -1.421875 10.71875 4.015625 
Q 4.59375 9.46875 4.59375 19.484375 
Q 4.59375 28.03125 7.640625 35.375 
Q 10.6875 42.71875 16.609375 48.484375 
Q 20.40625 52.09375 25.65625 54.046875 
Q 30.90625 56 36.8125 56 
Q 46.09375 56 51.578125 50.4375 
Q 57.078125 44.875 57.078125 35.5 
Q 57.078125 33.25 56.78125 30.6875 
Q 56.5 28.125 55.90625 25.203125 
z
" id="DejaVuSans-Oblique-101"/>
      <path d="M 31 75.875 
Q 24.46875 64.65625 21.28125 53.65625 
Q 18.109375 42.671875 18.109375 31.390625 
Q 18.109375 20.125 21.3125 9.0625 
Q 24.515625 -2 31 -13.1875 
L 23.1875 -13.1875 
Q 15.875 -1.703125 12.234375 9.375 
Q 8.59375 20.453125 8.59375 31.390625 
Q 8.59375 42.28125 12.203125 53.3125 
Q 15.828125 64.359375 23.1875 75.875 
z
" id="DejaVuSans-40"/>
      <path d="M 49.609375 33.6875 
Q 49.609375 40.875 46.484375 44.671875 
Q 43.359375 48.484375 37.5 48.484375 
Q 33.5 48.484375 29.859375 46.4375 
Q 26.21875 44.390625 23.390625 40.484375 
Q 20.609375 36.625 18.9375 31.15625 
Q 17.28125 25.6875 17.28125 20.3125 
Q 17.28125 13.484375 20.40625 9.796875 
Q 23.53125 6.109375 29.296875 6.109375 
Q 33.546875 6.109375 37.1875 8.109375 
Q 40.828125 10.109375 43.40625 13.921875 
Q 46.1875 17.921875 47.890625 23.34375 
Q 49.609375 28.765625 49.609375 33.6875 
z
M 21.78125 46.390625 
Q 25.390625 51.125 30.296875 53.5625 
Q 35.203125 56 41.21875 56 
Q 49.609375 56 54.25 50.5 
Q 58.890625 45.015625 58.890625 35.109375 
Q 58.890625 27 56 19.65625 
Q 53.125 12.3125 47.703125 6.5 
Q 44.09375 2.640625 39.546875 0.609375 
Q 35.015625 -1.421875 29.984375 -1.421875 
Q 24.171875 -1.421875 20.21875 1 
Q 16.265625 3.421875 14.3125 8.203125 
L 8.6875 -20.796875 
L -0.296875 -20.796875 
L 14.40625 54.6875 
L 23.390625 54.6875 
z
" id="DejaVuSans-Oblique-112"/>
      <path d="M 50 53.078125 
L 48.296875 44.578125 
Q 44.734375 46.53125 40.765625 47.5 
Q 36.8125 48.484375 32.625 48.484375 
Q 25.53125 48.484375 21.453125 46.0625 
Q 17.390625 43.65625 17.390625 39.5 
Q 17.390625 34.671875 26.859375 32.078125 
Q 27.59375 31.890625 27.9375 31.78125 
L 30.8125 30.90625 
Q 39.796875 28.421875 42.796875 25.6875 
Q 45.796875 22.953125 45.796875 18.21875 
Q 45.796875 9.515625 38.890625 4.046875 
Q 31.984375 -1.421875 20.796875 -1.421875 
Q 16.453125 -1.421875 11.671875 -0.578125 
Q 6.890625 0.25 1.125 2 
L 2.875 11.28125 
Q 7.8125 8.734375 12.59375 7.421875 
Q 17.390625 6.109375 21.78125 6.109375 
Q 28.375 6.109375 32.5 8.9375 
Q 36.625 11.765625 36.625 16.109375 
Q 36.625 20.796875 25.78125 23.6875 
L 24.859375 23.921875 
L 21.78125 24.703125 
Q 14.9375 26.515625 11.765625 29.46875 
Q 8.59375 32.421875 8.59375 37.015625 
Q 8.59375 45.75 15.15625 50.875 
Q 21.734375 56 33.015625 56 
Q 37.453125 56 41.671875 55.265625 
Q 45.90625 54.546875 50 53.078125 
z
" id="DejaVuSans-Oblique-115"/>
      <path d="M 8.015625 75.875 
L 15.828125 75.875 
Q 23.140625 64.359375 26.78125 53.3125 
Q 30.421875 42.28125 30.421875 31.390625 
Q 30.421875 20.453125 26.78125 9.375 
Q 23.140625 -1.703125 15.828125 -13.1875 
L 8.015625 -13.1875 
Q 14.5 -2 17.703125 9.0625 
Q 20.90625 20.125 20.90625 31.390625 
Q 20.90625 42.671875 17.703125 53.65625 
Q 14.5 64.65625 8.015625 75.875 
z
" id="DejaVuSans-41"/>
     </defs>
     <g transform="translate(215.16 335.862125)scale(0.1 -0.1)">
      <use transform="translate(0 0.015625)" xlink:href="#DejaVuSans-Oblique-116"/>
      <use transform="translate(39.208984 0.015625)" xlink:href="#DejaVuSans-Oblique-105"/>
      <use transform="translate(66.992188 0.015625)" xlink:href="#DejaVuSans-Oblique-109"/>
      <use transform="translate(164.404297 0.015625)" xlink:href="#DejaVuSans-Oblique-101"/>
      <use transform="translate(225.927734 0.015625)" xlink:href="#DejaVuSans-40"/>
      <use transform="translate(264.941406 0.015625)" xlink:href="#DejaVuSans-Oblique-112"/>
      <use transform="translate(328.417969 0.015625)" xlink:href="#DejaVuSans-Oblique-115"/>
      <use transform="translate(380.517578 0.015625)" xlink:href="#DejaVuSans-41"/>
     </g>
    </g>
   </g>
   <g id="matplotlib.axis_2">
    <g id="ytick_1">
     <g id="line2d_6">
      <defs>
       <path d="M 0 0 
L -3.5 0 
" id="m5810c72d2f" style="stroke:#000000;stroke-width:0.8;"/>
      </defs>
      <g>
       <use style="stroke:#000000;stroke-width:0.8;" x="57.6" xlink:href="#m5810c72d2f" y="306.098017"/>
      </g>
     </g>
     <g id="text_7">
      <!-- −1500 -->
      <defs>
       <path d="M 10.59375 35.5 
L 73.1875 35.5 
L 73.1875 27.203125 
L 10.59375 27.203125 
z
" id="DejaVuSans-8722"/>
      </defs>
      <g transform="translate(16.770313 309.897236)scale(0.1 -0.1)">
       <use xlink:href="#DejaVuSans-8722"/>
       <use x="83.789062" xlink:href="#DejaVuSans-49"/>
       <use x="147.412109" xlink:href="#DejaVuSans-53"/>
       <use x="211.035156" xlink:href="#DejaVuSans-48"/>
       <use x="274.658203" xlink:href="#DejaVuSans-48"/>
      </g>
     </g>
    </g>
    <g id="ytick_2">
     <g id="line2d_7">
      <g>
       <use style="stroke:#000000;stroke-width:0.8;" x="57.6" xlink:href="#m5810c72d2f" y="252.910922"/>
      </g>
     </g>
     <g id="text_8">
      <!-- −1000 -->
      <g transform="translate(16.770313 256.710141)scale(0.1 -0.1)">
       <use xlink:href="#DejaVuSans-8722"/>
       <use x="83.789062" xlink:href="#DejaVuSans-49"/>
       <use x="147.412109" xlink:href="#DejaVuSans-48"/>
       <use x="211.035156" xlink:href="#DejaVuSans-48"/>
       <use x="274.658203" xlink:href="#DejaVuSans-48"/>
      </g>
     </g>
    </g>
    <g id="ytick_3">
     <g id="line2d_8">
      <g>
       <use style="stroke:#000000;stroke-width:0.8;" x="57.6" xlink:href="#m5810c72d2f" y="199.723826"/>
      </g>
     </g>
     <g id="text_9">
      <!-- −500 -->
      <g transform="translate(23.132812 203.523045)scale(0.1 -0.1)">
       <use xlink:href="#DejaVuSans-8722"/>
       <use x="83.789062" xlink:href="#DejaVuSans-53"/>
       <use x="147.412109" xlink:href="#DejaVuSans-48"/>
       <use x="211.035156" xlink:href="#DejaVuSans-48"/>
      </g>
     </g>
    </g>
    <g id="ytick_4">
     <g id="line2d_9">
      <g>
       <use style="stroke:#000000;stroke-width:0.8;" x="57.6" xlink:href="#m5810c72d2f" y="146.536731"/>
      </g>
     </g>
     <g id="text_10">
      <!-- 0 -->
      <g transform="translate(44.2375 150.33595)scale(0.1 -0.1)">
       <use xlink:href="#DejaVuSans-48"/>
      </g>
     </g>
    </g>
    <g id="ytick_5">
     <g id="line2d_10">
      <g>
       <use style="stroke:#000000;stroke-width:0.8;" x="57.6" xlink:href="#m5810c72d2f" y="93.349636"/>
      </g>
     </g>
     <g id="text_11">
      <!-- 500 -->
      <g transform="translate(31.5125 97.148855)scale(0.1 -0.1)">
       <use xlink:href="#DejaVuSans-53"/>
       <use x="63.623047" xlink:href="#DejaVuSans-48"/>
       <use x="127.246094" xlink:href="#DejaVuSans-48"/>
      </g>
     </g>
    </g>
    <g id="text_12">
     <!-- $P (atm)$ -->
     <defs>
      <path d="M 16.890625 72.90625 
L 39.703125 72.90625 
Q 49.65625 72.90625 54.875 68.265625 
Q 60.109375 63.625 60.109375 54.6875 
Q 60.109375 42.671875 52.390625 35.984375 
Q 44.671875 29.296875 30.71875 29.296875 
L 18.3125 29.296875 
L 12.59375 0 
L 2.6875 0 
z
M 25.203125 64.796875 
L 19.921875 37.40625 
L 32.328125 37.40625 
Q 40.71875 37.40625 45.203125 41.703125 
Q 49.703125 46 49.703125 54 
Q 49.703125 59.125 46.65625 61.953125 
Q 43.609375 64.796875 38.09375 64.796875 
z
" id="DejaVuSans-Oblique-80"/>
      <path d="M 53.71875 31.203125 
L 47.609375 0 
L 38.625 0 
L 40.28125 8.296875 
Q 36.328125 3.421875 31.265625 1 
Q 26.21875 -1.421875 20.015625 -1.421875 
Q 13.03125 -1.421875 8.5625 2.84375 
Q 4.109375 7.125 4.109375 13.8125 
Q 4.109375 23.390625 11.75 28.953125 
Q 19.390625 34.515625 32.8125 34.515625 
L 45.3125 34.515625 
L 45.796875 36.921875 
Q 45.90625 37.3125 45.953125 37.765625 
Q 46 38.234375 46 39.203125 
Q 46 43.5625 42.453125 45.96875 
Q 38.921875 48.390625 32.515625 48.390625 
Q 28.125 48.390625 23.5 47.265625 
Q 18.890625 46.140625 14.015625 43.890625 
L 15.578125 52.203125 
Q 20.65625 54.109375 25.515625 55.046875 
Q 30.375 56 34.90625 56 
Q 44.578125 56 49.625 51.796875 
Q 54.6875 47.609375 54.6875 39.59375 
Q 54.6875 37.984375 54.4375 35.8125 
Q 54.203125 33.640625 53.71875 31.203125 
z
M 44 27.484375 
L 35.015625 27.484375 
Q 23.96875 27.484375 18.671875 24.53125 
Q 13.375 21.578125 13.375 15.375 
Q 13.375 11.078125 16.078125 8.640625 
Q 18.796875 6.203125 23.578125 6.203125 
Q 30.90625 6.203125 36.375 11.453125 
Q 41.84375 16.703125 43.609375 25.484375 
z
" id="DejaVuSans-Oblique-97"/>
     </defs>
     <g transform="translate(10.690625 191.378)rotate(-90)scale(0.1 -0.1)">
      <use transform="translate(0 0.125)" xlink:href="#DejaVuSans-Oblique-80"/>
      <use transform="translate(60.302734 0.125)" xlink:href="#DejaVuSans-40"/>
      <use transform="translate(99.316406 0.125)" xlink:href="#DejaVuSans-Oblique-97"/>
      <use transform="translate(160.595703 0.125)" xlink:href="#DejaVuSans-Oblique-116"/>
      <use transform="translate(199.804688 0.125)" xlink:href="#DejaVuSans-Oblique-109"/>
      <use transform="translate(297.216797 0.125)" xlink:href="#DejaVuSans-41"/>
     </g>
    </g>
   </g>
   <g id="line2d_11">
    <path clip-path="url(#pf63b8fdb38)" d="M 73.832727 177.03233 
L 73.985506 164.441906 
L 74.138284 169.767057 
L 74.291063 168.954017 
L 74.59662 133.827357 
L 74.902178 162.495329 
L 75.054956 155.551273 
L 75.513292 188.558381 
L 75.666071 192.780561 
L 75.818849 172.175635 
L 76.277185 197.157367 
L 76.429964 191.496255 
L 76.735521 150.535641 
L 77.041078 120.420182 
L 77.346635 143.167936 
L 77.804971 169.166137 
L 77.95775 171.592439 
L 78.110528 165.859541 
L 78.416086 151.049023 
L 78.568864 172.035468 
L 78.721643 175.50646 
L 78.874421 175.202669 
L 79.0272 175.996841 
L 79.332757 163.682338 
L 79.485536 163.696276 
L 79.638314 161.973472 
L 79.791093 146.139281 
L 80.09665 160.809459 
L 80.249429 158.481362 
L 80.554986 150.2277 
L 81.166101 197.268873 
L 81.929994 136.266225 
L 82.082772 135.866962 
L 82.235551 128.475853 
L 82.541108 150.545261 
L 82.693887 161.152099 
L 82.999444 186.460952 
L 83.305001 163.201495 
L 83.763337 131.371596 
L 83.916116 125.650008 
L 84.068894 104.111005 
L 84.221673 117.691451 
L 84.374451 144.559638 
L 84.52723 149.661109 
L 84.985566 134.117194 
L 85.138344 140.346867 
L 85.443902 200.535563 
L 85.59668 200.828232 
L 85.749459 194.851475 
L 85.902237 194.447044 
L 86.207795 182.606228 
L 86.360573 188.57502 
L 86.513352 188.870186 
L 86.66613 180.954822 
L 86.818909 204.714695 
L 86.971688 206.493415 
L 87.277245 176.445654 
L 87.582802 200.327781 
L 87.735581 190.489688 
L 88.041138 146.144468 
L 88.193917 155.119652 
L 88.346695 171.094012 
L 88.499474 173.313816 
L 88.652252 171.542488 
L 88.805031 182.32017 
L 88.95781 202.66169 
L 89.110588 193.202592 
L 89.263367 196.984195 
L 89.416145 183.617485 
L 89.721703 132.609418 
L 89.874481 129.718247 
L 90.02726 132.400595 
L 90.332817 155.447347 
L 90.485596 151.613704 
L 90.638374 118.795498 
L 90.943932 109.143855 
L 91.09671 114.708102 
L 91.249489 142.051452 
L 91.402267 145.475116 
L 91.860603 125.832662 
L 92.013382 129.677414 
L 92.318939 159.32187 
L 92.624496 128.072583 
L 92.930053 157.824878 
L 93.082832 161.973561 
L 93.235611 153.204846 
L 93.388389 151.743493 
L 93.541168 152.283888 
L 93.846725 184.530032 
L 94.152282 166.952166 
L 94.45784 200.146689 
L 94.610618 198.513143 
L 94.763397 183.653128 
L 94.916175 151.391674 
L 95.068954 145.490546 
L 95.221733 169.973568 
L 95.52729 156.611301 
L 95.985626 215.219799 
L 96.443961 169.867903 
L 96.59674 161.671163 
L 96.749519 163.568909 
L 96.902297 167.460588 
L 97.055076 166.061298 
L 97.513412 121.678024 
L 98.124526 178.991 
L 98.277305 179.482297 
L 98.430083 181.356558 
L 98.582862 180.436016 
L 98.735641 165.053182 
L 98.888419 172.056778 
L 99.193976 164.733591 
L 99.346755 160.710642 
L 99.499534 128.553285 
L 99.652312 131.949772 
L 99.805091 142.385015 
L 100.110648 168.134153 
L 100.263427 156.309912 
L 100.416205 156.785254 
L 100.721763 173.876888 
L 101.02732 160.294641 
L 101.180098 174.307197 
L 101.943991 156.802236 
L 102.09677 157.063928 
L 102.555106 181.471963 
L 102.707884 180.562552 
L 103.16622 152.800932 
L 103.318999 158.537994 
L 103.624556 178.156754 
L 103.777335 186.64051 
L 103.930113 182.764048 
L 104.388449 164.650036 
L 104.541228 182.902104 
L 104.694006 174.884971 
L 104.846785 144.41468 
L 104.999564 144.802191 
L 105.305121 139.516145 
L 105.457899 144.941169 
L 105.610678 142.335862 
L 106.221793 214.484501 
L 106.374571 201.031676 
L 106.52735 200.144273 
L 106.680128 193.261886 
L 106.832907 199.102956 
L 107.5968 135.044489 
L 107.749579 136.707476 
L 108.055136 117.026706 
L 108.66625 189.991729 
L 108.819029 184.193938 
L 109.124586 152.516966 
L 109.277365 158.55782 
L 109.430143 179.829014 
L 109.582922 175.732135 
L 109.735701 191.579991 
L 110.041258 246.784147 
L 110.194036 261.342938 
L 110.346815 259.915822 
L 110.805151 204.091702 
L 110.957929 209.028408 
L 111.263487 196.614058 
L 111.416265 219.951136 
L 111.569044 222.563542 
L 111.721822 212.189634 
L 111.874601 220.016281 
L 112.180158 199.750326 
L 112.485716 197.678451 
L 112.638494 196.312578 
L 112.791273 191.135814 
L 112.944051 193.248636 
L 113.249609 182.466423 
L 113.555166 134.159923 
L 113.707944 122.795472 
L 113.860723 124.531866 
L 114.16628 146.817293 
L 114.319059 147.953395 
L 114.624616 181.560807 
L 114.777395 177.433583 
L 114.930173 180.231879 
L 115.082952 186.827417 
L 115.23573 183.861232 
L 115.388509 189.551502 
L 115.541288 206.238056 
L 115.694066 205.161972 
L 116.152402 151.254078 
L 116.610738 183.856021 
L 116.763517 167.04017 
L 116.916295 164.224606 
L 117.069074 177.732807 
L 117.221852 179.796339 
L 117.374631 192.456945 
L 117.832967 150.192242 
L 117.985745 152.608869 
L 118.291303 202.460166 
L 118.444081 186.546959 
L 118.59686 183.909912 
L 118.749639 188.813191 
L 119.055196 156.321078 
L 119.207974 156.921894 
L 119.513532 198.571579 
L 119.66631 198.608494 
L 119.819089 202.638692 
L 119.971867 209.942404 
L 120.124646 228.084142 
L 120.277425 231.964311 
L 120.73576 190.5248 
L 120.888539 189.918448 
L 121.041318 201.067263 
L 121.346875 169.956838 
L 121.805211 206.166446 
L 121.957989 207.320621 
L 122.263547 191.744203 
L 122.416325 194.136311 
L 122.569104 194.186214 
L 122.721882 192.509464 
L 122.874661 200.952892 
L 123.02744 198.516024 
L 123.180218 191.103256 
L 123.332997 190.699401 
L 123.485775 186.676403 
L 123.791333 203.97197 
L 123.944111 202.77179 
L 124.708004 125.147748 
L 125.013561 158.780236 
L 125.16634 155.479655 
L 125.319119 135.035037 
L 125.624676 159.507968 
L 125.930233 119.05543 
L 126.083012 113.441877 
L 126.23579 97.613578 
L 126.388569 105.835901 
L 126.999683 183.345833 
L 127.152462 181.757951 
L 127.458019 171.644989 
L 127.610798 171.24906 
L 127.763576 162.268931 
L 128.069134 114.576272 
L 128.52747 163.051365 
L 128.680248 159.3662 
L 128.985805 184.254295 
L 129.138584 177.335771 
L 129.444141 137.447859 
L 129.59692 138.666085 
L 129.749698 138.737433 
L 129.902477 149.374571 
L 130.055256 148.675424 
L 130.208034 137.618906 
L 130.360813 143.376937 
L 130.513591 138.792915 
L 130.66637 143.415789 
L 130.819149 154.649787 
L 130.971927 144.987167 
L 131.277484 103.607217 
L 131.430263 101.942639 
L 131.583042 125.099676 
L 131.73582 130.429104 
L 132.041378 185.024623 
L 132.346935 139.682467 
L 132.499713 132.707983 
L 132.652492 135.073282 
L 132.805271 139.68913 
L 132.958049 148.571569 
L 133.569164 223.672413 
L 133.721942 220.626191 
L 134.180278 149.619764 
L 134.485835 158.215014 
L 134.791393 100.703708 
L 134.944171 111.865228 
L 135.249728 157.235526 
L 135.555286 187.183698 
L 136.013621 112.017709 
L 136.1664 113.766108 
L 136.319179 120.840823 
L 136.471957 102.835861 
L 136.624736 103.195229 
L 136.930293 123.367242 
L 137.083072 140.283245 
L 137.23585 143.175439 
L 137.541407 119.555109 
L 137.694186 128.177832 
L 137.999743 106.221627 
L 138.610858 184.898061 
L 138.763636 177.270434 
L 139.069194 201.332077 
L 139.374751 140.033371 
L 139.527529 144.177191 
L 139.680308 140.379442 
L 139.985865 93.276475 
L 140.138644 93.153316 
L 140.444201 90.301919 
L 140.59698 98.282341 
L 140.902537 138.262759 
L 141.055316 147.884884 
L 141.360873 95.296543 
L 141.66643 113.814378 
L 141.819209 109.351303 
L 142.124766 81.158783 
L 142.430323 113.872623 
L 143.041437 163.258117 
L 143.194216 152.925468 
L 143.346995 157.348335 
L 143.499773 147.257626 
L 143.652552 145.692909 
L 143.958109 175.100189 
L 144.110888 173.306373 
L 144.263666 151.939055 
L 144.569224 144.236883 
L 144.874781 201.921899 
L 145.027559 208.970399 
L 145.180338 191.744554 
L 145.333117 154.997583 
L 145.638674 173.989739 
L 145.944231 147.138321 
L 146.09701 147.006034 
L 146.555345 184.920342 
L 146.860903 192.658083 
L 147.013681 202.702628 
L 147.624796 174.048747 
L 147.930353 142.775838 
L 148.541467 181.41879 
L 148.847025 161.911833 
L 149.152582 184.593752 
L 149.30536 177.364036 
L 149.763696 136.563687 
L 150.069253 153.558824 
L 150.222032 178.118292 
L 150.374811 184.407492 
L 150.833147 138.943923 
L 150.985925 138.738288 
L 151.138704 154.401991 
L 151.444261 107.177107 
L 151.59704 102.28495 
L 151.749818 92.302722 
L 151.902597 91.074957 
L 152.055375 86.462342 
L 152.360933 130.608677 
L 152.66649 119.84186 
L 152.819268 114.885002 
L 153.124826 181.467695 
L 153.277604 182.065238 
L 153.430383 179.017888 
L 153.73594 157.321222 
L 153.888719 157.609611 
L 154.194276 134.229705 
L 154.347055 131.925867 
L 154.499833 141.801241 
L 154.652612 144.338084 
L 154.80539 136.468115 
L 155.263726 173.59036 
L 155.416505 169.723736 
L 155.722062 101.758727 
L 155.874841 103.166662 
L 156.180398 135.085251 
L 156.333176 129.093702 
L 156.485955 127.62412 
L 156.638734 131.786923 
L 156.791512 124.005789 
L 156.944291 129.862286 
L 157.09707 120.221424 
L 157.555405 153.923703 
L 157.708184 149.295916 
L 158.013741 81.015614 
L 158.16652 78.175976 
L 158.319298 80.644796 
L 158.624856 94.972302 
L 158.930413 117.535505 
L 159.083191 126.369393 
L 159.847084 53.568 
L 159.999863 64.028508 
L 160.152642 85.272853 
L 160.30542 87.044718 
L 160.458199 75.493427 
L 160.610978 72.656086 
L 160.763756 56.341441 
L 160.916535 68.428285 
L 161.374871 147.630769 
L 161.527649 165.727578 
L 161.680428 156.044328 
L 161.985985 112.442361 
L 162.138764 110.098678 
L 162.291542 115.057025 
L 162.597099 138.917089 
L 162.902657 118.918606 
L 163.055435 121.658027 
L 163.208214 107.890703 
L 163.66655 145.25588 
L 163.819328 141.530643 
L 163.972107 134.076773 
L 164.124886 114.116245 
L 164.277664 113.423397 
L 164.583221 121.94622 
L 164.736 141.2313 
L 164.888779 143.313901 
L 165.194336 90.585279 
L 165.347114 93.078873 
L 165.652672 157.406721 
L 165.80545 153.439469 
L 166.111007 174.163597 
L 166.263786 163.672156 
L 166.416565 174.688195 
L 166.569343 172.484375 
L 166.874901 145.246602 
L 167.027679 144.481266 
L 167.180458 152.673404 
L 167.333236 142.086361 
L 167.486015 142.960077 
L 167.638794 144.810368 
L 167.944351 169.10466 
L 168.097129 167.4649 
L 168.402687 152.779263 
L 168.555465 156.594821 
L 168.861022 124.690072 
L 169.013801 126.206964 
L 169.16658 131.552215 
L 169.319358 118.446142 
L 169.624916 80.862347 
L 170.083251 146.516256 
L 170.388809 188.381257 
L 170.541587 188.573593 
L 170.847144 151.938287 
L 170.999923 151.783653 
L 171.152702 151.320114 
L 171.458259 129.750187 
L 171.611037 144.639052 
L 171.763816 145.014202 
L 172.069373 125.357843 
L 172.37493 109.520091 
L 172.680488 113.88456 
L 172.833266 120.897724 
L 173.138824 148.162117 
L 173.291602 155.673207 
L 173.444381 176.388008 
L 173.597159 174.856118 
L 173.749938 160.068075 
L 173.902717 159.015762 
L 174.208274 141.070452 
L 174.361052 139.068012 
L 174.513831 146.71513 
L 174.819388 118.547672 
L 175.124945 144.051233 
L 175.277724 144.839306 
L 175.430503 139.01706 
L 175.73606 102.467548 
L 175.888839 114.535281 
L 176.041617 101.897866 
L 176.347174 118.201411 
L 176.958289 180.948285 
L 177.111067 181.27256 
L 177.416625 198.721974 
L 177.569403 198.325319 
L 177.722182 199.548452 
L 178.027739 188.508613 
L 178.180518 199.297066 
L 178.333296 199.32089 
L 178.638853 175.429466 
L 178.791632 169.129611 
L 178.944411 170.67539 
L 179.097189 162.463098 
L 179.249968 176.477604 
L 179.555525 164.932708 
L 179.708304 172.048522 
L 180.16664 228.975151 
L 180.472197 205.921487 
L 180.624975 213.74513 
L 180.930533 204.781182 
L 181.23609 232.79593 
L 181.694426 201.885304 
L 181.847204 177.600726 
L 181.999983 181.174828 
L 182.152761 199.015155 
L 182.30554 202.7018 
L 182.458319 199.048006 
L 182.763876 157.834899 
L 182.916655 145.183962 
L 183.069433 152.066319 
L 183.222212 183.642798 
L 183.37499 190.598213 
L 183.527769 190.391391 
L 183.833326 182.258092 
L 184.138883 168.353202 
L 184.597219 186.94215 
L 184.902776 167.855891 
L 185.055555 165.767986 
L 185.66667 126.462641 
L 185.819448 139.252864 
L 185.972227 140.950066 
L 186.277784 166.999552 
L 186.430563 189.539762 
L 186.583341 185.737161 
L 186.888898 153.140499 
L 187.194456 141.907719 
L 187.347234 139.981215 
L 187.500013 154.280192 
L 187.652791 155.950591 
L 187.80557 131.833489 
L 187.958349 125.610713 
L 188.569463 76.683959 
L 189.180578 116.190688 
L 189.333356 100.40063 
L 189.486135 96.408088 
L 189.944471 154.32042 
L 190.097249 143.384099 
L 190.250028 146.259815 
L 190.555585 114.908305 
L 190.708364 108.076186 
L 190.861142 108.897528 
L 191.013921 112.93368 
L 191.166699 111.823601 
L 191.319478 129.962205 
L 191.625035 174.013707 
L 191.777814 164.861235 
L 192.083371 131.13067 
L 192.388928 168.318771 
L 192.694486 145.015504 
L 192.847264 145.398546 
L 193.000043 154.548501 
L 193.152821 155.376028 
L 193.458379 136.892168 
L 193.611157 144.69982 
L 193.916714 124.770762 
L 194.069493 132.285398 
L 194.527829 174.049769 
L 194.680607 164.486239 
L 194.833386 161.930983 
L 194.986165 140.753524 
L 195.138943 135.954598 
L 195.291722 145.322431 
L 195.444501 140.138935 
L 195.902836 187.749614 
L 196.208394 143.393107 
L 196.361172 155.543368 
L 196.513951 156.470888 
L 196.666729 171.937224 
L 196.819508 160.572192 
L 196.972287 138.164601 
L 197.125065 150.613197 
L 197.430622 155.046747 
L 197.73618 138.235501 
L 197.888958 146.588779 
L 198.194516 178.086831 
L 198.500073 199.180922 
L 198.652851 199.695901 
L 199.263966 159.42054 
L 199.416744 133.578712 
L 199.569523 132.849875 
L 199.722302 144.664804 
L 199.87508 137.971876 
L 200.486195 177.384685 
L 200.638973 178.555654 
L 200.791752 174.107833 
L 200.94453 159.454231 
L 201.097309 164.551722 
L 201.250088 177.886358 
L 201.402866 172.951408 
L 201.708424 153.458985 
L 201.861202 154.750135 
L 202.013981 153.250772 
L 202.166759 155.84986 
L 202.472317 189.8148 
L 202.625095 186.786726 
L 202.777874 169.814597 
L 202.930652 176.288269 
L 203.083431 176.676338 
L 203.23621 166.504817 
L 203.388988 165.510951 
L 203.541767 170.44742 
L 203.847324 150.332997 
L 204.000103 151.979058 
L 204.152881 151.898827 
L 204.611217 219.175007 
L 204.763996 221.997188 
L 204.916774 219.808565 
L 205.222332 163.906906 
L 205.37511 171.465432 
L 205.833446 148.234405 
L 205.986225 147.40397 
L 206.291782 127.502164 
L 206.597339 158.86315 
L 206.750118 157.85156 
L 207.208453 150.789488 
L 207.361232 140.130092 
L 207.514011 138.543546 
L 207.666789 145.683741 
L 207.972347 147.937816 
L 208.277904 144.6364 
L 208.430682 151.727912 
L 208.583461 171.965436 
L 208.73624 170.102123 
L 208.889018 163.537321 
L 209.041797 168.607061 
L 209.347354 211.173178 
L 209.500133 219.672636 
L 209.652911 211.344669 
L 209.80569 171.401977 
L 209.958468 170.945444 
L 210.416804 212.086805 
L 210.569583 205.047217 
L 211.180697 159.574957 
L 211.333476 159.834711 
L 211.486255 179.519024 
L 211.791812 252.199169 
L 211.94459 259.203764 
L 212.097369 242.484604 
L 212.250148 209.967076 
L 212.402926 209.564595 
L 212.555705 220.226853 
L 212.708483 220.576357 
L 213.014041 207.419141 
L 213.319598 229.489179 
L 213.625155 197.829932 
L 213.777934 187.921188 
L 213.930712 193.681433 
L 214.083491 209.764995 
L 214.23627 196.508 
L 214.389048 197.677367 
L 214.541827 189.411271 
L 215.152941 243.332147 
L 215.30572 236.589835 
L 215.611277 193.255286 
L 215.916834 139.940071 
L 216.37517 173.82817 
L 216.527949 168.566813 
L 216.680727 148.070282 
L 216.833506 152.496888 
L 217.139063 177.516003 
L 217.291842 174.844475 
L 217.750178 157.717558 
L 218.055735 169.62374 
L 218.208513 159.854727 
L 218.361292 161.551098 
L 218.514071 160.725153 
L 218.819628 146.956864 
L 218.972406 142.158066 
L 219.125185 132.432433 
L 219.430742 136.990441 
L 219.583521 121.971487 
L 219.889078 132.175215 
L 220.194635 97.239357 
L 220.652971 122.906626 
L 220.958528 163.064668 
L 221.111307 168.482181 
L 221.264086 159.615243 
L 221.416864 162.860538 
L 221.569643 169.786582 
L 221.8752 137.755758 
L 222.180757 153.89866 
L 222.486314 158.740784 
L 222.791872 183.808776 
L 222.94465 186.135943 
L 223.250207 202.369826 
L 223.555765 170.810143 
L 223.861322 188.986092 
L 224.014101 186.768861 
L 224.319658 155.610049 
L 224.625215 176.1029 
L 225.083551 165.683962 
L 225.236329 151.601592 
L 225.389108 147.869676 
L 225.541887 147.300709 
L 225.847444 192.629694 
L 226.000222 183.25078 
L 226.458558 141.461406 
L 226.764116 157.14193 
L 226.916894 162.024225 
L 227.528009 109.882358 
L 227.680787 107.748418 
L 228.139123 145.210658 
L 228.291902 142.455358 
L 228.44468 135.517965 
L 228.597459 139.9701 
L 228.903016 110.482498 
L 229.055795 93.318218 
L 229.208573 92.960956 
L 229.51413 106.028486 
L 229.666909 111.281949 
L 229.972466 151.284739 
L 230.125245 145.130427 
L 230.430802 126.37195 
L 230.583581 117.073456 
L 230.889138 78.778736 
L 231.194695 117.831452 
L 231.347474 129.653566 
L 231.500252 128.52536 
L 231.653031 128.370391 
L 231.80581 132.333615 
L 231.958588 152.432878 
L 232.264145 116.133978 
L 232.416924 115.991856 
L 232.569703 110.789743 
L 232.722481 115.237437 
L 232.87526 108.188875 
L 233.028039 112.117843 
L 233.333596 138.866179 
L 233.639153 135.102502 
L 233.94471 181.505527 
L 234.097489 181.204397 
L 234.250267 174.305125 
L 234.403046 182.177545 
L 234.555825 204.264831 
L 234.708603 192.492594 
L 235.01416 158.558408 
L 235.166939 149.721355 
L 235.319718 148.602682 
L 235.472496 146.150781 
L 235.625275 141.88846 
L 235.930832 96.147756 
L 236.083611 97.301184 
L 236.236389 123.630122 
L 236.389168 120.077705 
L 236.541947 110.397438 
L 236.847504 119.497286 
L 237.153061 104.94253 
L 237.611397 110.407101 
L 237.764175 105.447068 
L 237.916954 104.680559 
L 238.069733 113.107889 
L 238.222511 104.134067 
L 238.37529 109.353805 
L 238.680847 164.209114 
L 238.833626 150.344248 
L 239.139183 106.941287 
L 239.597519 73.427306 
L 239.750297 79.148136 
L 240.055855 95.358867 
L 240.208633 93.551867 
L 240.51419 120.343328 
L 240.819748 69.463784 
L 241.125305 94.397634 
L 241.430862 120.903915 
L 241.583641 123.133262 
L 241.736419 109.406657 
L 241.889198 114.366903 
L 242.194755 136.893125 
L 242.347534 132.648107 
L 242.500312 114.390379 
L 242.80587 124.685087 
L 243.111427 112.781955 
L 243.416984 148.160214 
L 243.722541 171.263157 
L 243.87532 156.172755 
L 244.180877 117.674684 
L 244.333656 132.816392 
L 244.486434 133.31464 
L 244.639213 119.136376 
L 244.791991 131.974416 
L 244.94477 158.518751 
L 245.250327 145.66249 
L 245.403106 141.563167 
L 245.708663 96.500281 
L 246.166999 154.959662 
L 246.319778 151.034679 
L 246.625335 122.147221 
L 246.778113 128.285275 
L 246.930892 127.520921 
L 247.236449 122.170399 
L 247.389228 118.344591 
L 247.542006 97.702294 
L 247.694785 95.172543 
L 247.847564 86.946812 
L 248.000342 64.981005 
L 248.153121 71.220353 
L 248.305899 89.151628 
L 248.458678 93.961459 
L 248.611457 107.353401 
L 248.917014 150.527918 
L 249.069793 156.059001 
L 249.222571 156.861784 
L 249.37535 136.782771 
L 249.528128 136.699547 
L 249.680907 150.513709 
L 249.833686 152.952442 
L 249.986464 149.811497 
L 250.292021 131.257108 
L 250.903136 152.460616 
L 251.055914 139.880473 
L 251.208693 142.297716 
L 251.361472 148.516833 
L 251.972586 97.163655 
L 252.278143 122.737682 
L 252.430922 118.761168 
L 252.583701 117.816662 
L 252.736479 108.443693 
L 252.889258 106.291571 
L 253.347594 152.844341 
L 253.653151 140.722455 
L 254.111487 180.732089 
L 254.569822 124.643598 
L 254.722601 127.540044 
L 254.87538 125.637425 
L 255.028158 101.976802 
L 255.180937 107.177708 
L 255.333716 125.778792 
L 255.486494 123.449592 
L 255.639273 115.86562 
L 255.792051 117.185023 
L 255.94483 129.012961 
L 256.097609 129.17133 
L 256.250387 129.83326 
L 256.403166 151.744684 
L 256.555944 151.320652 
L 256.861502 111.769343 
L 257.01428 119.263248 
L 257.167059 134.085799 
L 257.472616 138.869479 
L 257.625395 130.009595 
L 257.930952 143.955656 
L 258.236509 166.250105 
L 258.542066 151.12594 
L 258.694845 150.122661 
L 258.847624 154.866543 
L 259.000402 164.896805 
L 259.153181 143.441837 
L 259.305959 145.006446 
L 259.611517 181.711658 
L 259.764295 164.913214 
L 260.069852 173.813673 
L 260.222631 174.11165 
L 260.37541 176.873801 
L 260.528188 183.116441 
L 260.833745 132.811199 
L 260.986524 142.96893 
L 261.292081 192.254748 
L 261.44486 206.926434 
L 261.597639 195.761027 
L 261.903196 155.710161 
L 262.208753 183.598698 
L 262.361532 173.636778 
L 262.51431 178.682469 
L 262.819867 198.290008 
L 262.972646 188.487299 
L 263.430982 219.462077 
L 263.58376 219.37107 
L 263.736539 208.426469 
L 263.889318 212.495182 
L 264.042096 210.020871 
L 264.194875 213.282425 
L 264.805989 120.456352 
L 265.111547 150.538029 
L 265.264325 153.190871 
L 265.417104 158.895905 
L 265.569882 173.901616 
L 265.722661 159.583896 
L 265.87544 128.624624 
L 266.028218 120.892237 
L 266.639333 206.357212 
L 266.94489 193.463413 
L 267.097668 183.056356 
L 267.403226 188.898272 
L 267.708783 156.414113 
L 268.01434 152.93192 
L 268.167119 166.250072 
L 268.472676 164.239178 
L 268.625455 184.608744 
L 268.778233 180.978097 
L 268.931012 144.794012 
L 269.08379 141.157186 
L 269.389348 175.081881 
L 269.542126 178.524001 
L 270.458798 264.475679 
L 270.611576 279.310624 
L 270.764355 271.309657 
L 271.069912 241.831613 
L 271.222691 232.478723 
L 271.37547 240.618376 
L 271.528248 242.43522 
L 271.833805 229.942833 
L 271.986584 235.955215 
L 272.139363 233.345439 
L 272.597698 179.813689 
L 272.750477 190.770979 
L 273.056034 174.426124 
L 273.361591 139.232646 
L 273.51437 141.877731 
L 273.667149 169.36285 
L 273.819927 172.548672 
L 274.125484 142.989028 
L 274.278263 145.084066 
L 274.58382 183.244951 
L 274.736599 182.654551 
L 275.042156 196.561417 
L 275.500492 159.500411 
L 275.958828 202.486748 
L 276.111606 201.691732 
L 276.417164 225.421402 
L 276.569942 238.288382 
L 276.722721 240.025933 
L 277.028278 211.993961 
L 277.181057 243.225643 
L 277.333835 249.667405 
L 277.639393 226.88437 
L 277.792171 227.623261 
L 277.94495 242.852904 
L 278.097728 243.569033 
L 278.250507 257.553911 
L 278.403286 257.227523 
L 278.556064 258.481696 
L 278.861621 295.488 
L 279.167179 249.186962 
L 279.319957 257.575483 
L 279.472736 272.204966 
L 279.931072 193.307812 
L 280.08385 200.070819 
L 280.236629 215.320241 
L 281.000522 135.865757 
L 281.458858 99.261884 
L 281.764415 124.359305 
L 282.069972 145.174666 
L 282.222751 134.312647 
L 282.375529 109.518367 
L 282.833865 161.684122 
L 283.44498 126.33378 
L 283.903316 157.372757 
L 284.208873 199.37126 
L 284.51443 238.670497 
L 285.125544 196.825332 
L 285.58388 248.655355 
L 285.889437 236.2198 
L 286.042216 227.90259 
L 286.194995 230.283248 
L 286.347773 243.048938 
L 286.500552 240.569789 
L 286.65333 221.896595 
L 286.806109 228.677693 
L 286.958888 225.467569 
L 287.417224 165.882871 
L 287.570002 163.118307 
L 287.875559 150.416081 
L 288.181117 104.071187 
L 288.333895 110.782904 
L 288.639452 139.177162 
L 288.792231 131.842249 
L 288.94501 109.860562 
L 289.556124 183.545205 
L 290.01446 144.034366 
L 290.320017 177.143264 
L 290.472796 170.264628 
L 290.778353 141.834464 
L 291.08391 158.342296 
L 291.236689 144.284952 
L 291.389467 143.212576 
L 291.542246 140.124901 
L 291.695025 139.424406 
L 292.000582 197.039409 
L 292.458918 177.927498 
L 292.611696 178.273025 
L 292.764475 188.792159 
L 293.070032 224.617468 
L 293.375589 228.648587 
L 293.528368 215.669755 
L 293.681147 218.291242 
L 293.833925 217.525123 
L 294.139482 192.856187 
L 294.292261 180.362113 
L 294.597818 206.962006 
L 294.750597 209.482195 
L 294.903375 200.704348 
L 295.056154 198.764645 
L 295.361711 234.731145 
L 295.51449 247.278257 
L 295.667268 248.341998 
L 295.820047 250.489147 
L 296.125604 209.215514 
L 296.431161 222.190485 
L 296.58394 229.257077 
L 296.736719 226.713251 
L 297.347833 158.812471 
L 297.65339 189.362449 
L 297.958948 215.085357 
L 298.111726 200.634045 
L 298.417283 216.877445 
L 298.570062 210.683821 
L 298.875619 187.614167 
L 299.028398 199.340713 
L 299.181176 197.380615 
L 299.486734 209.713658 
L 299.792291 194.379754 
L 300.097848 157.719174 
L 300.403405 171.117435 
L 300.556184 165.954955 
L 300.861741 185.026168 
L 301.01452 185.206739 
L 301.167298 170.644475 
L 301.320077 171.300972 
L 301.472856 179.640999 
L 301.625634 181.584296 
L 301.931191 165.232929 
L 302.08397 171.814779 
L 302.236749 165.799442 
L 302.389527 140.501058 
L 302.542306 141.425591 
L 302.695084 156.053102 
L 302.847863 184.140674 
L 303.000642 190.36563 
L 303.306199 176.099764 
L 303.458978 179.060487 
L 303.611756 156.206901 
L 303.764535 151.68135 
L 304.070092 185.799194 
L 304.222871 170.20266 
L 304.528428 125.332591 
L 304.681206 107.102395 
L 304.833985 103.788824 
L 304.986764 111.121472 
L 305.139542 140.253082 
L 305.292321 142.772639 
L 305.445099 133.036877 
L 305.597878 146.157242 
L 305.903435 209.214064 
L 306.056214 211.984598 
L 306.667328 139.685432 
L 306.972886 152.921702 
L 307.125664 137.291494 
L 307.278443 146.374804 
L 307.584 185.890085 
L 307.736779 189.525733 
L 307.889557 196.818389 
L 308.195114 179.382624 
L 308.65345 107.599315 
L 308.959007 147.469358 
L 309.111786 148.580434 
L 309.264565 148.444052 
L 309.570122 177.533396 
L 309.722901 175.343607 
L 309.875679 175.956521 
L 310.028458 171.777586 
L 310.334015 151.384371 
L 310.486794 152.037731 
L 310.945129 199.45644 
L 311.097908 192.014885 
L 311.250687 170.165024 
L 311.403465 169.37421 
L 311.709022 192.436208 
L 311.861801 184.98869 
L 312.167358 143.939558 
L 312.472916 111.516401 
L 312.625694 110.275856 
L 312.778473 124.095386 
L 312.931251 119.908013 
L 313.236809 85.981258 
L 313.389587 82.544857 
L 313.695144 134.308137 
L 313.847923 137.862084 
L 314.000702 144.212847 
L 314.306259 224.000758 
L 314.459037 222.882904 
L 314.764595 176.719727 
L 314.917373 177.966003 
L 315.070152 171.44634 
L 315.375709 176.697407 
L 315.528488 195.863253 
L 315.681266 194.465637 
L 315.986824 154.596481 
L 316.139602 151.632959 
L 316.750717 197.769023 
L 316.903495 198.872246 
L 317.056274 187.898841 
L 317.209052 199.727347 
L 317.361831 199.95494 
L 317.51461 193.934792 
L 317.667388 192.330078 
L 317.820167 182.38346 
L 317.972945 186.272915 
L 318.125724 201.011013 
L 318.278503 201.976968 
L 318.431281 216.712256 
L 318.58406 245.473993 
L 318.736839 238.026882 
L 319.042396 189.3655 
L 319.195174 191.535494 
L 319.347953 189.936896 
L 319.65351 153.086735 
L 319.959067 169.004304 
L 320.111846 189.229167 
L 320.264625 186.619409 
L 320.417403 169.537543 
L 320.570182 174.828833 
L 320.875739 207.892044 
L 321.181296 182.909947 
L 321.334075 211.770881 
L 321.486853 208.202237 
L 321.639632 196.214027 
L 321.792411 208.425688 
L 321.945189 204.955245 
L 322.097968 204.837916 
L 322.556304 147.525169 
L 322.709082 156.320557 
L 323.167418 214.705366 
L 323.320197 185.221562 
L 323.931311 231.982885 
L 324.08409 233.403985 
L 324.389647 218.542733 
L 324.542426 216.952708 
L 324.847983 230.069542 
L 325.611876 171.814534 
L 325.917433 179.95975 
L 326.070212 173.691593 
L 326.528548 212.80135 
L 326.681326 205.834148 
L 326.834105 189.044221 
L 326.986883 186.583735 
L 327.139662 195.493755 
L 327.750776 294.436778 
L 327.903555 294.520112 
L 328.056334 294.214999 
L 328.209112 293.347762 
L 328.667448 240.224484 
L 329.125784 214.936954 
L 329.278563 225.147864 
L 329.431341 216.401508 
L 329.58412 192.519117 
L 329.736898 188.206115 
L 330.042456 237.39189 
L 330.348013 217.497013 
L 330.500791 196.047559 
L 330.65357 193.262433 
L 330.806349 200.647561 
L 330.959127 199.723522 
L 331.417463 171.440797 
L 331.570242 186.598511 
L 331.72302 183.897603 
L 332.028578 163.999765 
L 332.181356 156.087802 
L 332.486913 121.722209 
L 332.639692 121.395711 
L 332.792471 137.135205 
L 333.098028 187.662289 
L 333.250806 200.163652 
L 333.556364 174.281305 
L 333.861921 215.468079 
L 334.167478 230.115549 
L 334.320257 228.011127 
L 334.625814 241.060227 
L 334.931371 231.434048 
L 335.08415 230.589469 
L 335.389707 203.718137 
L 335.542486 190.095957 
L 335.695264 191.5473 
L 336.000821 242.329246 
L 336.1536 242.269775 
L 336.306379 236.513515 
L 336.459157 238.416034 
L 336.764714 227.397291 
L 336.917493 226.744392 
L 337.22305 232.566012 
L 337.375829 235.53394 
L 337.681386 252.330814 
L 337.986943 239.036132 
L 338.292501 258.376513 
L 338.445279 262.183326 
L 338.750836 224.3893 
L 338.903615 230.784514 
L 339.209172 264.263558 
L 339.361951 259.796364 
L 339.820287 231.698499 
L 339.973065 210.398021 
L 340.125844 212.919512 
L 340.278622 204.298524 
L 340.58418 184.4918 
L 340.736958 187.778462 
L 341.042516 184.430274 
L 341.348073 202.026186 
L 341.500851 211.201932 
L 341.65363 203.594129 
L 341.806409 175.21014 
L 341.959187 173.614474 
L 342.264744 151.224625 
L 342.570302 173.379071 
L 342.72308 172.698851 
L 343.334195 119.160106 
L 343.486973 126.439271 
L 343.639752 122.445461 
L 344.098088 148.538251 
L 344.403645 199.395268 
L 344.556424 192.77701 
L 344.709202 192.502343 
L 344.861981 181.991723 
L 345.320317 126.77448 
L 345.473095 129.06827 
L 345.778652 122.233409 
L 345.931431 128.519641 
L 346.236988 101.652479 
L 346.389767 93.646514 
L 347.000881 166.837972 
L 347.15366 166.710851 
L 347.611996 89.130315 
L 347.917553 143.466763 
L 348.070332 157.819164 
L 348.528667 113.371296 
L 348.681446 116.899438 
L 348.834225 107.870435 
L 348.987003 119.047011 
L 349.139782 139.481839 
L 349.29256 132.045403 
L 349.445339 144.377135 
L 349.750896 196.125315 
L 350.056453 199.740545 
L 350.362011 244.05717 
L 350.667568 227.083114 
L 350.973125 232.361488 
L 351.278682 265.93792 
L 351.431461 270.158295 
L 351.737018 219.180937 
L 352.195354 207.323386 
L 352.348133 207.37345 
L 352.500911 218.21365 
L 352.65369 210.869067 
L 352.806468 225.916771 
L 353.112026 215.257492 
L 353.264804 220.219433 
L 353.417583 210.587429 
L 353.570361 177.880843 
L 353.875919 166.316426 
L 354.181476 180.411113 
L 354.334255 163.508378 
L 354.487033 163.373432 
L 354.639812 151.590908 
L 355.250926 196.943089 
L 355.556483 150.24916 
L 355.709262 117.255924 
L 355.862041 119.585478 
L 356.014819 125.465844 
L 356.167598 114.142598 
L 356.320376 120.534706 
L 356.473155 143.159458 
L 356.625934 141.646862 
L 356.931491 90.511215 
L 357.08427 89.117546 
L 357.237048 96.063319 
L 357.542605 119.54227 
L 358.000941 132.522578 
L 358.15372 127.206692 
L 358.306498 129.728047 
L 358.612056 110.902585 
L 358.764834 115.101493 
L 358.917613 128.431791 
L 359.070391 127.095538 
L 359.22317 128.98429 
L 359.528727 147.998909 
L 359.681506 153.448225 
L 359.987063 126.930188 
L 360.139842 125.885554 
L 360.29262 120.352606 
L 360.445399 122.844603 
L 360.903735 166.240308 
L 361.209292 129.416693 
L 361.362071 132.294974 
L 361.820406 178.551277 
L 361.973185 176.014293 
L 362.125964 170.271882 
L 362.278742 176.135783 
L 362.431521 187.514324 
L 362.737078 155.472393 
L 362.889857 153.571703 
L 363.042635 154.599394 
L 363.65375 198.103996 
L 363.806528 202.272086 
L 363.959307 200.725883 
L 364.264864 225.580667 
L 364.417643 221.970495 
L 364.570421 200.239633 
L 364.7232 202.984117 
L 365.028757 241.347214 
L 365.181536 234.698604 
L 365.334314 233.763339 
L 365.487093 240.140576 
L 365.639872 223.194623 
L 365.79265 230.089447 
L 365.945429 218.601084 
L 366.250986 184.216926 
L 366.403765 176.737325 
L 366.709322 209.89716 
L 367.167658 167.655427 
L 367.473215 172.372526 
L 367.778772 125.66942 
L 367.931551 103.641611 
L 368.084329 107.746368 
L 368.237108 98.725793 
L 368.389887 98.832623 
L 368.542665 98.085491 
L 368.695444 106.328825 
L 369.001001 133.750885 
L 369.15378 114.620805 
L 369.306558 114.606879 
L 369.764894 130.073924 
L 369.917673 135.622755 
L 370.070451 129.782326 
L 370.22323 129.548564 
L 370.376009 129.896332 
L 370.528787 135.720298 
L 370.681566 146.509779 
L 370.834344 146.034566 
L 370.987123 140.724845 
L 371.139902 126.232499 
L 371.445459 136.605361 
L 371.751016 120.99771 
L 372.056573 139.919776 
L 372.209352 162.91765 
L 372.36213 168.701491 
L 372.514909 160.686799 
L 372.820466 176.612628 
L 372.973245 172.96812 
L 373.126024 183.534973 
L 373.431581 162.385905 
L 373.737138 124.433074 
L 373.889917 141.141124 
L 374.042695 130.773299 
L 374.348252 84.555101 
L 374.65381 144.119828 
L 374.806588 116.435281 
L 374.959367 113.822873 
L 375.264924 95.867527 
L 375.417703 97.178868 
L 375.570481 92.801748 
L 375.72326 66.006168 
L 376.334374 111.30021 
L 376.79271 163.262212 
L 377.098267 200.924074 
L 377.251046 205.22835 
L 377.403825 203.343881 
L 377.556603 196.231931 
L 377.86216 160.523783 
L 378.167718 168.150209 
L 378.473275 198.602228 
L 378.626053 194.0349 
L 378.778832 195.833624 
L 378.931611 200.3277 
L 379.237168 218.456083 
L 379.389947 222.695888 
L 379.542725 232.777051 
L 379.695504 231.606596 
L 380.001061 184.830996 
L 380.15384 181.874573 
L 380.306618 190.619195 
L 380.459397 185.767523 
L 380.764954 149.493542 
L 381.22329 141.556245 
L 381.376068 156.043052 
L 381.681626 139.546556 
L 381.834404 140.813928 
L 382.139961 114.888945 
L 382.29274 115.369617 
L 382.445519 126.675458 
L 382.598297 128.148561 
L 382.751076 144.920599 
L 382.903855 144.708781 
L 383.36219 133.964518 
L 383.514969 137.344175 
L 383.820526 93.018584 
L 383.973305 88.279898 
L 384.126083 96.856151 
L 384.431641 154.466614 
L 384.584419 154.137029 
L 384.889976 160.48151 
L 385.042755 142.086854 
L 385.348312 147.994143 
L 385.501091 145.20917 
L 385.65387 150.159465 
L 385.806648 145.462593 
L 385.959427 128.211155 
L 386.112205 136.012175 
L 386.417763 125.135389 
L 386.876098 163.407146 
L 387.028877 159.469012 
L 387.181656 164.02676 
L 387.334434 151.118765 
L 387.487213 159.706713 
L 387.639991 175.972655 
L 387.79277 175.097081 
L 388.403884 223.946851 
L 388.556663 224.821579 
L 388.709442 235.097788 
L 388.86222 237.194102 
L 389.014999 232.536098 
L 389.320556 252.539504 
L 389.626113 190.277082 
L 390.084449 290.654623 
L 390.695564 197.954017 
L 391.306678 256.729447 
L 391.459457 261.841344 
L 391.612235 254.257172 
L 391.917793 226.86693 
L 392.070571 236.314225 
L 392.22335 232.569096 
L 392.376128 222.990748 
L 392.528907 222.733033 
L 392.987243 194.677288 
L 393.140021 199.528622 
L 393.2928 215.794787 
L 393.598357 203.901811 
L 393.751136 195.691795 
L 393.903914 178.357216 
L 394.056693 184.634219 
L 394.36225 215.5034 
L 394.515029 223.921172 
L 394.973365 187.209754 
L 395.278922 126.909029 
L 395.431701 131.65796 
L 395.584479 124.851931 
L 395.737258 130.292729 
L 395.890036 146.769474 
L 396.195594 101.463832 
L 396.348372 100.403709 
L 396.653929 147.405337 
L 396.959487 198.054323 
L 397.112265 192.910285 
L 397.417822 204.922763 
L 397.570601 200.395364 
L 397.72338 199.547338 
L 398.181716 176.492238 
L 398.334494 171.050737 
L 398.487273 175.098214 
L 398.487273 175.098214 
" style="fill:none;stroke:#1f77b4;stroke-linecap:square;stroke-width:1.5;"/>
   </g>
   <g id="patch_3">
    <path d="M 57.6 307.584 
L 57.6 41.472 
" style="fill:none;stroke:#000000;stroke-linecap:square;stroke-linejoin:miter;stroke-width:0.8;"/>
   </g>
   <g id="patch_4">
    <path d="M 414.72 307.584 
L 414.72 41.472 
" style="fill:none;stroke:#000000;stroke-linecap:square;stroke-linejoin:miter;stroke-width:0.8;"/>
   </g>
   <g id="patch_5">
    <path d="M 57.6 307.584 
L 414.72 307.584 
" style="fill:none;stroke:#000000;stroke-linecap:square;stroke-linejoin:miter;stroke-width:0.8;"/>
   </g>
   <g id="patch_6">
    <path d="M 57.6 41.472 
L 414.72 41.472 
" style="fill:none;stroke:#000000;stroke-linecap:square;stroke-linejoin:miter;stroke-width:0.8;"/>
   </g>
   <g id="text_13">
    <!-- $P(t); P = -169.0 \pm 36.0$ -->
    <defs>
     <path d="M 11.71875 51.703125 
L 22.015625 51.703125 
L 22.015625 39.3125 
L 11.71875 39.3125 
z
M 11.71875 12.40625 
L 22.015625 12.40625 
L 22.015625 4 
L 14.015625 -11.625 
L 7.71875 -11.625 
L 11.71875 4 
z
" id="DejaVuSans-59"/>
     <path d="M 10.59375 45.40625 
L 73.1875 45.40625 
L 73.1875 37.203125 
L 10.59375 37.203125 
z
M 10.59375 25.484375 
L 73.1875 25.484375 
L 73.1875 17.1875 
L 10.59375 17.1875 
z
" id="DejaVuSans-61"/>
     <path d="M 33.015625 40.375 
Q 26.375 40.375 22.484375 35.828125 
Q 18.609375 31.296875 18.609375 23.390625 
Q 18.609375 15.53125 22.484375 10.953125 
Q 26.375 6.390625 33.015625 6.390625 
Q 39.65625 6.390625 43.53125 10.953125 
Q 47.40625 15.53125 47.40625 23.390625 
Q 47.40625 31.296875 43.53125 35.828125 
Q 39.65625 40.375 33.015625 40.375 
z
M 52.59375 71.296875 
L 52.59375 62.3125 
Q 48.875 64.0625 45.09375 64.984375 
Q 41.3125 65.921875 37.59375 65.921875 
Q 27.828125 65.921875 22.671875 59.328125 
Q 17.53125 52.734375 16.796875 39.40625 
Q 19.671875 43.65625 24.015625 45.921875 
Q 28.375 48.1875 33.59375 48.1875 
Q 44.578125 48.1875 50.953125 41.515625 
Q 57.328125 34.859375 57.328125 23.390625 
Q 57.328125 12.15625 50.6875 5.359375 
Q 44.046875 -1.421875 33.015625 -1.421875 
Q 20.359375 -1.421875 13.671875 8.265625 
Q 6.984375 17.96875 6.984375 36.375 
Q 6.984375 53.65625 15.1875 63.9375 
Q 23.390625 74.21875 37.203125 74.21875 
Q 40.921875 74.21875 44.703125 73.484375 
Q 48.484375 72.75 52.59375 71.296875 
z
" id="DejaVuSans-54"/>
     <path d="M 10.984375 1.515625 
L 10.984375 10.5 
Q 14.703125 8.734375 18.5 7.8125 
Q 22.3125 6.890625 25.984375 6.890625 
Q 35.75 6.890625 40.890625 13.453125 
Q 46.046875 20.015625 46.78125 33.40625 
Q 43.953125 29.203125 39.59375 26.953125 
Q 35.25 24.703125 29.984375 24.703125 
Q 19.046875 24.703125 12.671875 31.3125 
Q 6.296875 37.9375 6.296875 49.421875 
Q 6.296875 60.640625 12.9375 67.421875 
Q 19.578125 74.21875 30.609375 74.21875 
Q 43.265625 74.21875 49.921875 64.515625 
Q 56.59375 54.828125 56.59375 36.375 
Q 56.59375 19.140625 48.40625 8.859375 
Q 40.234375 -1.421875 26.421875 -1.421875 
Q 22.703125 -1.421875 18.890625 -0.6875 
Q 15.09375 0.046875 10.984375 1.515625 
z
M 30.609375 32.421875 
Q 37.25 32.421875 41.125 36.953125 
Q 45.015625 41.5 45.015625 49.421875 
Q 45.015625 57.28125 41.125 61.84375 
Q 37.25 66.40625 30.609375 66.40625 
Q 23.96875 66.40625 20.09375 61.84375 
Q 16.21875 57.28125 16.21875 49.421875 
Q 16.21875 41.5 20.09375 36.953125 
Q 23.96875 32.421875 30.609375 32.421875 
z
" id="DejaVuSans-57"/>
     <path d="M 10.6875 12.40625 
L 21 12.40625 
L 21 0 
L 10.6875 0 
z
" id="DejaVuSans-46"/>
     <path d="M 46 62.703125 
L 46 43.796875 
L 73.1875 43.796875 
L 73.1875 35.5 
L 46 35.5 
L 46 16.609375 
L 37.796875 16.609375 
L 37.796875 35.5 
L 10.59375 35.5 
L 10.59375 43.796875 
L 37.796875 43.796875 
L 37.796875 62.703125 
z
M 10.59375 8.296875 
L 73.1875 8.296875 
L 73.1875 0 
L 10.59375 0 
z
" id="DejaVuSans-177"/>
     <path d="M 40.578125 39.3125 
Q 47.65625 37.796875 51.625 33 
Q 55.609375 28.21875 55.609375 21.1875 
Q 55.609375 10.40625 48.1875 4.484375 
Q 40.765625 -1.421875 27.09375 -1.421875 
Q 22.515625 -1.421875 17.65625 -0.515625 
Q 12.796875 0.390625 7.625 2.203125 
L 7.625 11.71875 
Q 11.71875 9.328125 16.59375 8.109375 
Q 21.484375 6.890625 26.8125 6.890625 
Q 36.078125 6.890625 40.9375 10.546875 
Q 45.796875 14.203125 45.796875 21.1875 
Q 45.796875 27.640625 41.28125 31.265625 
Q 36.765625 34.90625 28.71875 34.90625 
L 20.21875 34.90625 
L 20.21875 43.015625 
L 29.109375 43.015625 
Q 36.375 43.015625 40.234375 45.921875 
Q 44.09375 48.828125 44.09375 54.296875 
Q 44.09375 59.90625 40.109375 62.90625 
Q 36.140625 65.921875 28.71875 65.921875 
Q 24.65625 65.921875 20.015625 65.03125 
Q 15.375 64.15625 9.8125 62.3125 
L 9.8125 71.09375 
Q 15.4375 72.65625 20.34375 73.4375 
Q 25.25 74.21875 29.59375 74.21875 
Q 40.828125 74.21875 47.359375 69.109375 
Q 53.90625 64.015625 53.90625 55.328125 
Q 53.90625 49.265625 50.4375 45.09375 
Q 46.96875 40.921875 40.578125 39.3125 
z
" id="DejaVuSans-51"/>
    </defs>
    <g transform="translate(166.02 35.472)scale(0.12 -0.12)">
     <use transform="translate(0 0.125)" xlink:href="#DejaVuSans-Oblique-80"/>
     <use transform="translate(60.302734 0.125)" xlink:href="#DejaVuSans-40"/>
     <use transform="translate(99.316406 0.125)" xlink:href="#DejaVuSans-Oblique-116"/>
     <use transform="translate(138.525391 0.125)" xlink:href="#DejaVuSans-41"/>
     <use transform="translate(177.539062 0.125)" xlink:href="#DejaVuSans-59"/>
     <use transform="translate(230.712891 0.125)" xlink:href="#DejaVuSans-Oblique-80"/>
     <use transform="translate(310.498047 0.125)" xlink:href="#DejaVuSans-61"/>
     <use transform="translate(433.251953 0.125)" xlink:href="#DejaVuSans-8722"/>
     <use transform="translate(536.523438 0.125)" xlink:href="#DejaVuSans-49"/>
     <use transform="translate(600.146484 0.125)" xlink:href="#DejaVuSans-54"/>
     <use transform="translate(663.769531 0.125)" xlink:href="#DejaVuSans-57"/>
     <use transform="translate(727.392578 0.125)" xlink:href="#DejaVuSans-46"/>
     <use transform="translate(759.179688 0.125)" xlink:href="#DejaVuSans-48"/>
     <use transform="translate(842.285156 0.125)" xlink:href="#DejaVuSans-177"/>
     <use transform="translate(945.556641 0.125)" xlink:href="#DejaVuSans-51"/>
     <use transform="translate(1009.179688 0.125)" xlink:href="#DejaVuSans-54"/>
     <use transform="translate(1072.802734 0.125)" xlink:href="#DejaVuSans-46"/>
     <use transform="translate(1104.589844 0.125)" xlink:href="#DejaVuSans-48"/>
    </g>
   </g>
  </g>
 </g>
 <defs>
  <clipPath id="pf63b8fdb38">
   <rect height="266.112" width="357.12" x="57.6" y="41.472"/>
  </clipPath>
 </defs>
</svg>
