<?xml version="1.0" encoding="utf-8" standalone="no"?>
<!DOCTYPE svg PUBLIC "-//W3C//DTD SVG 1.1//EN"
  "http://www.w3.org/Graphics/SVG/1.1/DTD/svg11.dtd">
<!-- Created with matplotlib (https://matplotlib.org/) -->
<svg height="345.6pt" version="1.1" viewBox="0 0 460.8 345.6" width="460.8pt" xmlns="http://www.w3.org/2000/svg" xmlns:xlink="http://www.w3.org/1999/xlink">
 <defs>
  <style type="text/css">
*{stroke-linecap:butt;stroke-linejoin:round;}
  </style>
 </defs>
 <g id="figure_1">
  <g id="patch_1">
   <path d="M 0 345.6 
L 460.8 345.6 
L 460.8 0 
L 0 0 
z
" style="fill:#ffffff;"/>
  </g>
  <g id="axes_1">
   <g id="patch_2">
    <path d="M 57.6 307.584 
L 414.72 307.584 
L 414.72 41.472 
L 57.6 41.472 
z
" style="fill:#ffffff;"/>
   </g>
   <g id="matplotlib.axis_1">
    <g id="xtick_1">
     <g id="line2d_1">
      <defs>
       <path d="M 0 0 
L 0 3.5 
" id="m2fb787037d" style="stroke:#000000;stroke-width:0.8;"/>
      </defs>
      <g>
       <use style="stroke:#000000;stroke-width:0.8;" x="73.832727" xlink:href="#m2fb787037d" y="307.584"/>
      </g>
     </g>
     <g id="text_1">
      <!-- 0 -->
      <defs>
       <path d="M 31.78125 66.40625 
Q 24.171875 66.40625 20.328125 58.90625 
Q 16.5 51.421875 16.5 36.375 
Q 16.5 21.390625 20.328125 13.890625 
Q 24.171875 6.390625 31.78125 6.390625 
Q 39.453125 6.390625 43.28125 13.890625 
Q 47.125 21.390625 47.125 36.375 
Q 47.125 51.421875 43.28125 58.90625 
Q 39.453125 66.40625 31.78125 66.40625 
z
M 31.78125 74.21875 
Q 44.046875 74.21875 50.515625 64.515625 
Q 56.984375 54.828125 56.984375 36.375 
Q 56.984375 17.96875 50.515625 8.265625 
Q 44.046875 -1.421875 31.78125 -1.421875 
Q 19.53125 -1.421875 13.0625 8.265625 
Q 6.59375 17.96875 6.59375 36.375 
Q 6.59375 54.828125 13.0625 64.515625 
Q 19.53125 74.21875 31.78125 74.21875 
z
" id="DejaVuSans-48"/>
      </defs>
      <g transform="translate(70.651477 322.182437)scale(0.1 -0.1)">
       <use xlink:href="#DejaVuSans-48"/>
      </g>
     </g>
    </g>
    <g id="xtick_2">
     <g id="line2d_2">
      <g>
       <use style="stroke:#000000;stroke-width:0.8;" x="120.145787" xlink:href="#m2fb787037d" y="307.584"/>
      </g>
     </g>
     <g id="text_2">
      <!-- 25 -->
      <defs>
       <path d="M 19.1875 8.296875 
L 53.609375 8.296875 
L 53.609375 0 
L 7.328125 0 
L 7.328125 8.296875 
Q 12.9375 14.109375 22.625 23.890625 
Q 32.328125 33.6875 34.8125 36.53125 
Q 39.546875 41.84375 41.421875 45.53125 
Q 43.3125 49.21875 43.3125 52.78125 
Q 43.3125 58.59375 39.234375 62.25 
Q 35.15625 65.921875 28.609375 65.921875 
Q 23.96875 65.921875 18.8125 64.3125 
Q 13.671875 62.703125 7.8125 59.421875 
L 7.8125 69.390625 
Q 13.765625 71.78125 18.9375 73 
Q 24.125 74.21875 28.421875 74.21875 
Q 39.75 74.21875 46.484375 68.546875 
Q 53.21875 62.890625 53.21875 53.421875 
Q 53.21875 48.921875 51.53125 44.890625 
Q 49.859375 40.875 45.40625 35.40625 
Q 44.1875 33.984375 37.640625 27.21875 
Q 31.109375 20.453125 19.1875 8.296875 
z
" id="DejaVuSans-50"/>
       <path d="M 10.796875 72.90625 
L 49.515625 72.90625 
L 49.515625 64.59375 
L 19.828125 64.59375 
L 19.828125 46.734375 
Q 21.96875 47.46875 24.109375 47.828125 
Q 26.265625 48.1875 28.421875 48.1875 
Q 40.625 48.1875 47.75 41.5 
Q 54.890625 34.8125 54.890625 23.390625 
Q 54.890625 11.625 47.5625 5.09375 
Q 40.234375 -1.421875 26.90625 -1.421875 
Q 22.3125 -1.421875 17.546875 -0.640625 
Q 12.796875 0.140625 7.71875 1.703125 
L 7.71875 11.625 
Q 12.109375 9.234375 16.796875 8.0625 
Q 21.484375 6.890625 26.703125 6.890625 
Q 35.15625 6.890625 40.078125 11.328125 
Q 45.015625 15.765625 45.015625 23.390625 
Q 45.015625 31 40.078125 35.4375 
Q 35.15625 39.890625 26.703125 39.890625 
Q 22.75 39.890625 18.8125 39.015625 
Q 14.890625 38.140625 10.796875 36.28125 
z
" id="DejaVuSans-53"/>
      </defs>
      <g transform="translate(113.783287 322.182437)scale(0.1 -0.1)">
       <use xlink:href="#DejaVuSans-50"/>
       <use x="63.623047" xlink:href="#DejaVuSans-53"/>
      </g>
     </g>
    </g>
    <g id="xtick_3">
     <g id="line2d_3">
      <g>
       <use style="stroke:#000000;stroke-width:0.8;" x="166.458846" xlink:href="#m2fb787037d" y="307.584"/>
      </g>
     </g>
     <g id="text_3">
      <!-- 50 -->
      <g transform="translate(160.096346 322.182437)scale(0.1 -0.1)">
       <use xlink:href="#DejaVuSans-53"/>
       <use x="63.623047" xlink:href="#DejaVuSans-48"/>
      </g>
     </g>
    </g>
    <g id="xtick_4">
     <g id="line2d_4">
      <g>
       <use style="stroke:#000000;stroke-width:0.8;" x="212.771905" xlink:href="#m2fb787037d" y="307.584"/>
      </g>
     </g>
     <g id="text_4">
      <!-- 75 -->
      <defs>
       <path d="M 8.203125 72.90625 
L 55.078125 72.90625 
L 55.078125 68.703125 
L 28.609375 0 
L 18.3125 0 
L 43.21875 64.59375 
L 8.203125 64.59375 
z
" id="DejaVuSans-55"/>
      </defs>
      <g transform="translate(206.409405 322.182437)scale(0.1 -0.1)">
       <use xlink:href="#DejaVuSans-55"/>
       <use x="63.623047" xlink:href="#DejaVuSans-53"/>
      </g>
     </g>
    </g>
    <g id="xtick_5">
     <g id="line2d_5">
      <g>
       <use style="stroke:#000000;stroke-width:0.8;" x="259.084964" xlink:href="#m2fb787037d" y="307.584"/>
      </g>
     </g>
     <g id="text_5">
      <!-- 100 -->
      <defs>
       <path d="M 12.40625 8.296875 
L 28.515625 8.296875 
L 28.515625 63.921875 
L 10.984375 60.40625 
L 10.984375 69.390625 
L 28.421875 72.90625 
L 38.28125 72.90625 
L 38.28125 8.296875 
L 54.390625 8.296875 
L 54.390625 0 
L 12.40625 0 
z
" id="DejaVuSans-49"/>
      </defs>
      <g transform="translate(249.541214 322.182437)scale(0.1 -0.1)">
       <use xlink:href="#DejaVuSans-49"/>
       <use x="63.623047" xlink:href="#DejaVuSans-48"/>
       <use x="127.246094" xlink:href="#DejaVuSans-48"/>
      </g>
     </g>
    </g>
    <g id="xtick_6">
     <g id="line2d_6">
      <g>
       <use style="stroke:#000000;stroke-width:0.8;" x="305.398024" xlink:href="#m2fb787037d" y="307.584"/>
      </g>
     </g>
     <g id="text_6">
      <!-- 125 -->
      <g transform="translate(295.854274 322.182437)scale(0.1 -0.1)">
       <use xlink:href="#DejaVuSans-49"/>
       <use x="63.623047" xlink:href="#DejaVuSans-50"/>
       <use x="127.246094" xlink:href="#DejaVuSans-53"/>
      </g>
     </g>
    </g>
    <g id="xtick_7">
     <g id="line2d_7">
      <g>
       <use style="stroke:#000000;stroke-width:0.8;" x="351.711083" xlink:href="#m2fb787037d" y="307.584"/>
      </g>
     </g>
     <g id="text_7">
      <!-- 150 -->
      <g transform="translate(342.167333 322.182437)scale(0.1 -0.1)">
       <use xlink:href="#DejaVuSans-49"/>
       <use x="63.623047" xlink:href="#DejaVuSans-53"/>
       <use x="127.246094" xlink:href="#DejaVuSans-48"/>
      </g>
     </g>
    </g>
    <g id="xtick_8">
     <g id="line2d_8">
      <g>
       <use style="stroke:#000000;stroke-width:0.8;" x="398.024142" xlink:href="#m2fb787037d" y="307.584"/>
      </g>
     </g>
     <g id="text_8">
      <!-- 175 -->
      <g transform="translate(388.480392 322.182437)scale(0.1 -0.1)">
       <use xlink:href="#DejaVuSans-49"/>
       <use x="63.623047" xlink:href="#DejaVuSans-55"/>
       <use x="127.246094" xlink:href="#DejaVuSans-53"/>
      </g>
     </g>
    </g>
    <g id="text_9">
     <!-- $time (ps)$ -->
     <defs>
      <path d="M 42.28125 54.6875 
L 40.921875 47.703125 
L 23 47.703125 
L 17.1875 18.015625 
Q 16.890625 16.359375 16.75 15.234375 
Q 16.609375 14.109375 16.609375 13.484375 
Q 16.609375 10.359375 18.484375 8.9375 
Q 20.359375 7.515625 24.515625 7.515625 
L 33.59375 7.515625 
L 32.078125 0 
L 23.484375 0 
Q 15.484375 0 11.546875 3.125 
Q 7.625 6.25 7.625 12.59375 
Q 7.625 13.71875 7.765625 15.0625 
Q 7.90625 16.40625 8.203125 18.015625 
L 14.015625 47.703125 
L 6.390625 47.703125 
L 7.8125 54.6875 
L 15.28125 54.6875 
L 18.3125 70.21875 
L 27.296875 70.21875 
L 24.3125 54.6875 
z
" id="DejaVuSans-Oblique-116"/>
      <path d="M 18.3125 75.984375 
L 27.296875 75.984375 
L 25.09375 64.59375 
L 16.109375 64.59375 
z
M 14.203125 54.6875 
L 23.1875 54.6875 
L 12.5 0 
L 3.515625 0 
z
" id="DejaVuSans-Oblique-105"/>
      <path d="M 89.796875 33.015625 
L 83.40625 0 
L 74.421875 0 
L 80.71875 32.71875 
Q 81.109375 34.8125 81.296875 36.328125 
Q 81.5 37.84375 81.5 38.921875 
Q 81.5 43.3125 79.046875 45.75 
Q 76.609375 48.1875 72.21875 48.1875 
Q 65.671875 48.1875 60.546875 43.28125 
Q 55.421875 38.375 53.90625 30.515625 
L 47.90625 0 
L 38.921875 0 
L 45.3125 32.71875 
Q 45.703125 34.515625 45.890625 36.046875 
Q 46.09375 37.59375 46.09375 38.8125 
Q 46.09375 43.265625 43.65625 45.71875 
Q 41.21875 48.1875 36.921875 48.1875 
Q 30.28125 48.1875 25.140625 43.28125 
Q 20.015625 38.375 18.5 30.515625 
L 12.5 0 
L 3.515625 0 
L 14.203125 54.6875 
L 23.1875 54.6875 
L 21.484375 46.1875 
Q 25.140625 50.984375 30.046875 53.484375 
Q 34.96875 56 40.578125 56 
Q 46.53125 56 50.359375 52.875 
Q 54.203125 49.75 54.984375 44.1875 
Q 59.078125 49.953125 64.46875 52.96875 
Q 69.875 56 75.875 56 
Q 82.90625 56 86.734375 51.953125 
Q 90.578125 47.90625 90.578125 40.484375 
Q 90.578125 38.875 90.375 36.9375 
Q 90.1875 35.015625 89.796875 33.015625 
z
" id="DejaVuSans-Oblique-109"/>
      <path d="M 48.09375 32.234375 
Q 48.25 33.015625 48.3125 33.84375 
Q 48.390625 34.671875 48.390625 35.5 
Q 48.390625 41.453125 44.890625 44.921875 
Q 41.40625 48.390625 35.40625 48.390625 
Q 28.71875 48.390625 23.578125 44.15625 
Q 18.453125 39.9375 15.828125 32.171875 
z
M 55.90625 25.203125 
L 14.109375 25.203125 
Q 13.8125 23.34375 13.71875 22.265625 
Q 13.625 21.1875 13.625 20.40625 
Q 13.625 13.625 17.796875 9.90625 
Q 21.96875 6.203125 29.59375 6.203125 
Q 35.453125 6.203125 40.671875 7.515625 
Q 45.90625 8.84375 50.390625 11.375 
L 48.6875 2.484375 
Q 43.84375 0.53125 38.6875 -0.4375 
Q 33.546875 -1.421875 28.21875 -1.421875 
Q 16.84375 -1.421875 10.71875 4.015625 
Q 4.59375 9.46875 4.59375 19.484375 
Q 4.59375 28.03125 7.640625 35.375 
Q 10.6875 42.71875 16.609375 48.484375 
Q 20.40625 52.09375 25.65625 54.046875 
Q 30.90625 56 36.8125 56 
Q 46.09375 56 51.578125 50.4375 
Q 57.078125 44.875 57.078125 35.5 
Q 57.078125 33.25 56.78125 30.6875 
Q 56.5 28.125 55.90625 25.203125 
z
" id="DejaVuSans-Oblique-101"/>
      <path d="M 31 75.875 
Q 24.46875 64.65625 21.28125 53.65625 
Q 18.109375 42.671875 18.109375 31.390625 
Q 18.109375 20.125 21.3125 9.0625 
Q 24.515625 -2 31 -13.1875 
L 23.1875 -13.1875 
Q 15.875 -1.703125 12.234375 9.375 
Q 8.59375 20.453125 8.59375 31.390625 
Q 8.59375 42.28125 12.203125 53.3125 
Q 15.828125 64.359375 23.1875 75.875 
z
" id="DejaVuSans-40"/>
      <path d="M 49.609375 33.6875 
Q 49.609375 40.875 46.484375 44.671875 
Q 43.359375 48.484375 37.5 48.484375 
Q 33.5 48.484375 29.859375 46.4375 
Q 26.21875 44.390625 23.390625 40.484375 
Q 20.609375 36.625 18.9375 31.15625 
Q 17.28125 25.6875 17.28125 20.3125 
Q 17.28125 13.484375 20.40625 9.796875 
Q 23.53125 6.109375 29.296875 6.109375 
Q 33.546875 6.109375 37.1875 8.109375 
Q 40.828125 10.109375 43.40625 13.921875 
Q 46.1875 17.921875 47.890625 23.34375 
Q 49.609375 28.765625 49.609375 33.6875 
z
M 21.78125 46.390625 
Q 25.390625 51.125 30.296875 53.5625 
Q 35.203125 56 41.21875 56 
Q 49.609375 56 54.25 50.5 
Q 58.890625 45.015625 58.890625 35.109375 
Q 58.890625 27 56 19.65625 
Q 53.125 12.3125 47.703125 6.5 
Q 44.09375 2.640625 39.546875 0.609375 
Q 35.015625 -1.421875 29.984375 -1.421875 
Q 24.171875 -1.421875 20.21875 1 
Q 16.265625 3.421875 14.3125 8.203125 
L 8.6875 -20.796875 
L -0.296875 -20.796875 
L 14.40625 54.6875 
L 23.390625 54.6875 
z
" id="DejaVuSans-Oblique-112"/>
      <path d="M 50 53.078125 
L 48.296875 44.578125 
Q 44.734375 46.53125 40.765625 47.5 
Q 36.8125 48.484375 32.625 48.484375 
Q 25.53125 48.484375 21.453125 46.0625 
Q 17.390625 43.65625 17.390625 39.5 
Q 17.390625 34.671875 26.859375 32.078125 
Q 27.59375 31.890625 27.9375 31.78125 
L 30.8125 30.90625 
Q 39.796875 28.421875 42.796875 25.6875 
Q 45.796875 22.953125 45.796875 18.21875 
Q 45.796875 9.515625 38.890625 4.046875 
Q 31.984375 -1.421875 20.796875 -1.421875 
Q 16.453125 -1.421875 11.671875 -0.578125 
Q 6.890625 0.25 1.125 2 
L 2.875 11.28125 
Q 7.8125 8.734375 12.59375 7.421875 
Q 17.390625 6.109375 21.78125 6.109375 
Q 28.375 6.109375 32.5 8.9375 
Q 36.625 11.765625 36.625 16.109375 
Q 36.625 20.796875 25.78125 23.6875 
L 24.859375 23.921875 
L 21.78125 24.703125 
Q 14.9375 26.515625 11.765625 29.46875 
Q 8.59375 32.421875 8.59375 37.015625 
Q 8.59375 45.75 15.15625 50.875 
Q 21.734375 56 33.015625 56 
Q 37.453125 56 41.671875 55.265625 
Q 45.90625 54.546875 50 53.078125 
z
" id="DejaVuSans-Oblique-115"/>
      <path d="M 8.015625 75.875 
L 15.828125 75.875 
Q 23.140625 64.359375 26.78125 53.3125 
Q 30.421875 42.28125 30.421875 31.390625 
Q 30.421875 20.453125 26.78125 9.375 
Q 23.140625 -1.703125 15.828125 -13.1875 
L 8.015625 -13.1875 
Q 14.5 -2 17.703125 9.0625 
Q 20.90625 20.125 20.90625 31.390625 
Q 20.90625 42.671875 17.703125 53.65625 
Q 14.5 64.65625 8.015625 75.875 
z
" id="DejaVuSans-41"/>
     </defs>
     <g transform="translate(215.16 335.862125)scale(0.1 -0.1)">
      <use transform="translate(0 0.015625)" xlink:href="#DejaVuSans-Oblique-116"/>
      <use transform="translate(39.208984 0.015625)" xlink:href="#DejaVuSans-Oblique-105"/>
      <use transform="translate(66.992188 0.015625)" xlink:href="#DejaVuSans-Oblique-109"/>
      <use transform="translate(164.404297 0.015625)" xlink:href="#DejaVuSans-Oblique-101"/>
      <use transform="translate(225.927734 0.015625)" xlink:href="#DejaVuSans-40"/>
      <use transform="translate(264.941406 0.015625)" xlink:href="#DejaVuSans-Oblique-112"/>
      <use transform="translate(328.417969 0.015625)" xlink:href="#DejaVuSans-Oblique-115"/>
      <use transform="translate(380.517578 0.015625)" xlink:href="#DejaVuSans-41"/>
     </g>
    </g>
   </g>
   <g id="matplotlib.axis_2">
    <g id="ytick_1">
     <g id="line2d_9">
      <defs>
       <path d="M 0 0 
L -3.5 0 
" id="mc9f515f07d" style="stroke:#000000;stroke-width:0.8;"/>
      </defs>
      <g>
       <use style="stroke:#000000;stroke-width:0.8;" x="57.6" xlink:href="#mc9f515f07d" y="260.7091"/>
      </g>
     </g>
     <g id="text_10">
      <!-- −11.4 -->
      <defs>
       <path d="M 10.59375 35.5 
L 73.1875 35.5 
L 73.1875 27.203125 
L 10.59375 27.203125 
z
" id="DejaVuSans-8722"/>
       <path d="M 10.6875 12.40625 
L 21 12.40625 
L 21 0 
L 10.6875 0 
z
" id="DejaVuSans-46"/>
       <path d="M 37.796875 64.3125 
L 12.890625 25.390625 
L 37.796875 25.390625 
z
M 35.203125 72.90625 
L 47.609375 72.90625 
L 47.609375 25.390625 
L 58.015625 25.390625 
L 58.015625 17.1875 
L 47.609375 17.1875 
L 47.609375 0 
L 37.796875 0 
L 37.796875 17.1875 
L 4.890625 17.1875 
L 4.890625 26.703125 
z
" id="DejaVuSans-52"/>
      </defs>
      <g transform="translate(19.954687 264.508319)scale(0.1 -0.1)">
       <use xlink:href="#DejaVuSans-8722"/>
       <use x="83.789062" xlink:href="#DejaVuSans-49"/>
       <use x="147.412109" xlink:href="#DejaVuSans-49"/>
       <use x="211.035156" xlink:href="#DejaVuSans-46"/>
       <use x="242.822266" xlink:href="#DejaVuSans-52"/>
      </g>
     </g>
    </g>
    <g id="ytick_2">
     <g id="line2d_10">
      <g>
       <use style="stroke:#000000;stroke-width:0.8;" x="57.6" xlink:href="#mc9f515f07d" y="208.107047"/>
      </g>
     </g>
     <g id="text_11">
      <!-- −11.3 -->
      <defs>
       <path d="M 40.578125 39.3125 
Q 47.65625 37.796875 51.625 33 
Q 55.609375 28.21875 55.609375 21.1875 
Q 55.609375 10.40625 48.1875 4.484375 
Q 40.765625 -1.421875 27.09375 -1.421875 
Q 22.515625 -1.421875 17.65625 -0.515625 
Q 12.796875 0.390625 7.625 2.203125 
L 7.625 11.71875 
Q 11.71875 9.328125 16.59375 8.109375 
Q 21.484375 6.890625 26.8125 6.890625 
Q 36.078125 6.890625 40.9375 10.546875 
Q 45.796875 14.203125 45.796875 21.1875 
Q 45.796875 27.640625 41.28125 31.265625 
Q 36.765625 34.90625 28.71875 34.90625 
L 20.21875 34.90625 
L 20.21875 43.015625 
L 29.109375 43.015625 
Q 36.375 43.015625 40.234375 45.921875 
Q 44.09375 48.828125 44.09375 54.296875 
Q 44.09375 59.90625 40.109375 62.90625 
Q 36.140625 65.921875 28.71875 65.921875 
Q 24.65625 65.921875 20.015625 65.03125 
Q 15.375 64.15625 9.8125 62.3125 
L 9.8125 71.09375 
Q 15.4375 72.65625 20.34375 73.4375 
Q 25.25 74.21875 29.59375 74.21875 
Q 40.828125 74.21875 47.359375 69.109375 
Q 53.90625 64.015625 53.90625 55.328125 
Q 53.90625 49.265625 50.4375 45.09375 
Q 46.96875 40.921875 40.578125 39.3125 
z
" id="DejaVuSans-51"/>
      </defs>
      <g transform="translate(19.954687 211.906266)scale(0.1 -0.1)">
       <use xlink:href="#DejaVuSans-8722"/>
       <use x="83.789062" xlink:href="#DejaVuSans-49"/>
       <use x="147.412109" xlink:href="#DejaVuSans-49"/>
       <use x="211.035156" xlink:href="#DejaVuSans-46"/>
       <use x="242.822266" xlink:href="#DejaVuSans-51"/>
      </g>
     </g>
    </g>
    <g id="ytick_3">
     <g id="line2d_11">
      <g>
       <use style="stroke:#000000;stroke-width:0.8;" x="57.6" xlink:href="#mc9f515f07d" y="155.504993"/>
      </g>
     </g>
     <g id="text_12">
      <!-- −11.2 -->
      <g transform="translate(19.954687 159.304212)scale(0.1 -0.1)">
       <use xlink:href="#DejaVuSans-8722"/>
       <use x="83.789062" xlink:href="#DejaVuSans-49"/>
       <use x="147.412109" xlink:href="#DejaVuSans-49"/>
       <use x="211.035156" xlink:href="#DejaVuSans-46"/>
       <use x="242.822266" xlink:href="#DejaVuSans-50"/>
      </g>
     </g>
    </g>
    <g id="ytick_4">
     <g id="line2d_12">
      <g>
       <use style="stroke:#000000;stroke-width:0.8;" x="57.6" xlink:href="#mc9f515f07d" y="102.90294"/>
      </g>
     </g>
     <g id="text_13">
      <!-- −11.1 -->
      <g transform="translate(19.954687 106.702159)scale(0.1 -0.1)">
       <use xlink:href="#DejaVuSans-8722"/>
       <use x="83.789062" xlink:href="#DejaVuSans-49"/>
       <use x="147.412109" xlink:href="#DejaVuSans-49"/>
       <use x="211.035156" xlink:href="#DejaVuSans-46"/>
       <use x="242.822266" xlink:href="#DejaVuSans-49"/>
      </g>
     </g>
    </g>
    <g id="ytick_5">
     <g id="line2d_13">
      <g>
       <use style="stroke:#000000;stroke-width:0.8;" x="57.6" xlink:href="#mc9f515f07d" y="50.300886"/>
      </g>
     </g>
     <g id="text_14">
      <!-- −11.0 -->
      <g transform="translate(19.954687 54.100105)scale(0.1 -0.1)">
       <use xlink:href="#DejaVuSans-8722"/>
       <use x="83.789062" xlink:href="#DejaVuSans-49"/>
       <use x="147.412109" xlink:href="#DejaVuSans-49"/>
       <use x="211.035156" xlink:href="#DejaVuSans-46"/>
       <use x="242.822266" xlink:href="#DejaVuSans-48"/>
      </g>
     </g>
    </g>
    <g id="text_15">
     <!-- $E_{tot} (Mcal/mol)$ -->
     <defs>
      <path d="M 16.890625 72.90625 
L 62.984375 72.90625 
L 61.375 64.59375 
L 25.09375 64.59375 
L 20.90625 43.015625 
L 55.71875 43.015625 
L 54.109375 34.71875 
L 19.28125 34.71875 
L 14.203125 8.296875 
L 51.3125 8.296875 
L 49.703125 0 
L 2.6875 0 
z
" id="DejaVuSans-Oblique-69"/>
      <path d="M 25.390625 -1.421875 
Q 15.765625 -1.421875 10.171875 4.515625 
Q 4.59375 10.453125 4.59375 20.703125 
Q 4.59375 26.65625 6.515625 32.828125 
Q 8.453125 39.015625 11.53125 43.21875 
Q 16.359375 49.75 22.3125 52.875 
Q 28.265625 56 35.796875 56 
Q 45.125 56 50.859375 50.1875 
Q 56.59375 44.390625 56.59375 35.015625 
Q 56.59375 28.515625 54.6875 22.0625 
Q 52.78125 15.625 49.703125 11.375 
Q 44.921875 4.828125 38.96875 1.703125 
Q 33.015625 -1.421875 25.390625 -1.421875 
z
M 13.921875 21 
Q 13.921875 13.578125 17.015625 9.890625 
Q 20.125 6.203125 26.421875 6.203125 
Q 35.453125 6.203125 41.375 14.078125 
Q 47.3125 21.96875 47.3125 34.078125 
Q 47.3125 41.15625 44.140625 44.765625 
Q 40.96875 48.390625 34.8125 48.390625 
Q 29.734375 48.390625 25.78125 46.015625 
Q 21.828125 43.65625 18.703125 38.8125 
Q 16.40625 35.203125 15.15625 30.5625 
Q 13.921875 25.921875 13.921875 21 
z
" id="DejaVuSans-Oblique-111"/>
      <path d="M 16.890625 72.90625 
L 31.6875 72.90625 
L 40.1875 23.78125 
L 68.40625 72.90625 
L 83.59375 72.90625 
L 69.390625 0 
L 59.8125 0 
L 72.21875 63.921875 
L 43.609375 14.015625 
L 33.984375 14.015625 
L 24.703125 64.109375 
L 12.3125 0 
L 2.6875 0 
z
" id="DejaVuSans-Oblique-77"/>
      <path d="M 53.609375 52.59375 
L 51.8125 43.703125 
Q 48.578125 46.046875 44.9375 47.21875 
Q 41.3125 48.390625 37.40625 48.390625 
Q 33.109375 48.390625 29.21875 46.875 
Q 25.34375 45.359375 22.703125 42.578125 
Q 18.5 38.328125 16.203125 32.609375 
Q 13.921875 26.90625 13.921875 20.796875 
Q 13.921875 13.421875 17.609375 9.8125 
Q 21.296875 6.203125 28.8125 6.203125 
Q 32.515625 6.203125 36.6875 7.328125 
Q 40.875 8.453125 45.40625 10.6875 
L 43.703125 1.8125 
Q 39.796875 0.203125 35.671875 -0.609375 
Q 31.546875 -1.421875 27.203125 -1.421875 
Q 16.3125 -1.421875 10.453125 4.015625 
Q 4.59375 9.46875 4.59375 19.578125 
Q 4.59375 28.078125 7.640625 35.234375 
Q 10.6875 42.390625 16.703125 48.09375 
Q 20.796875 52 26.3125 54 
Q 31.84375 56 38.375 56 
Q 42.1875 56 45.9375 55.140625 
Q 49.703125 54.296875 53.609375 52.59375 
z
" id="DejaVuSans-Oblique-99"/>
      <path d="M 53.71875 31.203125 
L 47.609375 0 
L 38.625 0 
L 40.28125 8.296875 
Q 36.328125 3.421875 31.265625 1 
Q 26.21875 -1.421875 20.015625 -1.421875 
Q 13.03125 -1.421875 8.5625 2.84375 
Q 4.109375 7.125 4.109375 13.8125 
Q 4.109375 23.390625 11.75 28.953125 
Q 19.390625 34.515625 32.8125 34.515625 
L 45.3125 34.515625 
L 45.796875 36.921875 
Q 45.90625 37.3125 45.953125 37.765625 
Q 46 38.234375 46 39.203125 
Q 46 43.5625 42.453125 45.96875 
Q 38.921875 48.390625 32.515625 48.390625 
Q 28.125 48.390625 23.5 47.265625 
Q 18.890625 46.140625 14.015625 43.890625 
L 15.578125 52.203125 
Q 20.65625 54.109375 25.515625 55.046875 
Q 30.375 56 34.90625 56 
Q 44.578125 56 49.625 51.796875 
Q 54.6875 47.609375 54.6875 39.59375 
Q 54.6875 37.984375 54.4375 35.8125 
Q 54.203125 33.640625 53.71875 31.203125 
z
M 44 27.484375 
L 35.015625 27.484375 
Q 23.96875 27.484375 18.671875 24.53125 
Q 13.375 21.578125 13.375 15.375 
Q 13.375 11.078125 16.078125 8.640625 
Q 18.796875 6.203125 23.578125 6.203125 
Q 30.90625 6.203125 36.375 11.453125 
Q 41.84375 16.703125 43.609375 25.484375 
z
" id="DejaVuSans-Oblique-97"/>
      <path d="M 18.3125 75.984375 
L 27.296875 75.984375 
L 12.5 0 
L 3.515625 0 
z
" id="DejaVuSans-Oblique-108"/>
      <path d="M 25.390625 72.90625 
L 33.6875 72.90625 
L 8.296875 -9.28125 
L 0 -9.28125 
z
" id="DejaVuSans-47"/>
     </defs>
     <g transform="translate(13.875 209.178)rotate(-90)scale(0.1 -0.1)">
      <use transform="translate(0 0.015625)" xlink:href="#DejaVuSans-Oblique-69"/>
      <use transform="translate(63.183594 -16.390625)scale(0.7)" xlink:href="#DejaVuSans-Oblique-116"/>
      <use transform="translate(90.629883 -16.390625)scale(0.7)" xlink:href="#DejaVuSans-Oblique-111"/>
      <use transform="translate(133.457031 -16.390625)scale(0.7)" xlink:href="#DejaVuSans-Oblique-116"/>
      <use transform="translate(163.637695 0.015625)" xlink:href="#DejaVuSans-40"/>
      <use transform="translate(202.651367 0.015625)" xlink:href="#DejaVuSans-Oblique-77"/>
      <use transform="translate(288.930664 0.015625)" xlink:href="#DejaVuSans-Oblique-99"/>
      <use transform="translate(343.911133 0.015625)" xlink:href="#DejaVuSans-Oblique-97"/>
      <use transform="translate(405.19043 0.015625)" xlink:href="#DejaVuSans-Oblique-108"/>
      <use transform="translate(432.973633 0.015625)" xlink:href="#DejaVuSans-47"/>
      <use transform="translate(466.665039 0.015625)" xlink:href="#DejaVuSans-Oblique-109"/>
      <use transform="translate(564.077148 0.015625)" xlink:href="#DejaVuSans-Oblique-111"/>
      <use transform="translate(625.258789 0.015625)" xlink:href="#DejaVuSans-Oblique-108"/>
      <use transform="translate(653.041992 0.015625)" xlink:href="#DejaVuSans-41"/>
     </g>
    </g>
   </g>
   <g id="line2d_14">
    <path clip-path="url(#pea9d055a39)" d="M 73.832727 104.069127 
L 73.851252 104.092798 
L 73.943879 101.048718 
L 74.036505 89.241661 
L 74.277333 53.912017 
L 74.295858 53.949365 
L 74.351434 55.634209 
L 74.44406 64.567615 
L 74.740463 118.700389 
L 74.851615 114.370714 
L 75.092442 98.603248 
L 75.370321 53.568 
L 75.462947 60.168506 
L 75.907552 116.99766 
L 76.037229 123.364613 
L 76.185431 129.33705 
L 76.203956 129.187134 
L 76.278057 125.145192 
L 76.555935 94.293036 
L 76.685612 98.188744 
L 76.870864 113.643753 
L 77.35252 171.516532 
L 77.482196 175.901966 
L 77.519247 174.542203 
L 77.630398 156.589122 
L 77.852701 129.818359 
L 77.908276 130.025085 
L 77.945327 129.755762 
L 77.982377 129.661605 
L 78.075004 127.702178 
L 78.149104 128.759479 
L 78.241731 131.208631 
L 78.278781 130.245487 
L 78.408458 118.56941 
L 78.63076 98.433869 
L 78.686336 100.542686 
L 78.816012 126.62331 
L 79.075366 159.216594 
L 79.242093 170.087861 
L 79.279143 169.353536 
L 79.946051 135.128536 
L 80.020152 135.968591 
L 80.186879 142.246646 
L 80.279505 150.403646 
L 80.520333 202.767412 
L 80.612959 195.786068 
L 81.131665 121.331017 
L 81.187241 118.529432 
L 81.242817 120.889686 
L 81.465119 143.850482 
L 81.9653 206.990831 
L 82.020876 209.091231 
L 82.076452 207.373248 
L 82.169078 192.187035 
L 82.428431 144.677387 
L 82.632209 138.41932 
L 82.650734 138.494015 
L 82.74336 137.415147 
L 82.78041 138.25152 
L 82.873036 148.674091 
L 83.187965 201.641728 
L 83.243541 200.996827 
L 83.317642 195.920203 
L 83.854873 134.958105 
L 83.873399 134.942851 
L 83.966025 140.088384 
L 84.392105 187.767411 
L 84.466206 196.75868 
L 84.669983 238.40583 
L 84.725559 235.59162 
L 84.892286 205.636328 
L 85.207215 165.269513 
L 85.596244 140.85953 
L 85.911173 86.278061 
L 85.966749 88.717744 
L 86.781859 175.015621 
L 86.837434 176.456391 
L 86.874485 175.452218 
L 86.967111 161.678896 
L 87.28204 106.932783 
L 87.337615 106.197407 
L 87.393191 106.735526 
L 87.504342 115.408552 
L 88.041574 175.131346 
L 88.060099 175.162907 
L 88.17125 171.10308 
L 88.412078 152.39253 
L 88.56028 153.356726 
L 88.578805 153.378818 
L 88.597331 153.287817 
L 88.615856 153.308332 
L 88.689957 152.480901 
L 88.912259 143.857321 
L 89.37539 123.602374 
L 89.393915 124.014774 
L 89.486541 133.235914 
L 89.949672 202.35396 
L 89.968197 202.2456 
L 90.023773 200.08313 
L 90.283126 182.35992 
L 90.338702 183.158945 
L 90.412802 187.357115 
L 90.764782 210.679287 
L 90.783307 210.626159 
L 90.838883 208.5468 
L 90.968559 188.66375 
L 91.190862 158.447026 
L 91.209387 158.693204 
L 91.46874 170.756959 
L 91.691043 216.901058 
L 91.765144 213.118444 
L 92.2468 163.06233 
L 92.302375 166.593506 
L 92.487628 202.092528 
L 92.635829 219.24185 
L 92.67288 218.920977 
L 92.728455 216.658563 
L 92.821082 197.368338 
L 93.043384 152.934857 
L 93.061909 152.608198 
L 93.117485 153.413536 
L 93.173061 156.529681 
L 93.413889 198.212075 
L 93.599141 213.074785 
L 93.673242 210.722947 
L 93.877019 199.893236 
L 94.117847 177.725153 
L 94.173423 180.87023 
L 94.488352 206.099752 
L 94.710654 214.822225 
L 94.932957 226.6256 
L 94.970008 226.142187 
L 95.081159 220.341758 
L 95.340512 185.830603 
L 95.711016 136.702915 
L 95.729542 137.07902 
L 95.803643 140.157292 
L 96.303824 189.076676 
L 96.377925 186.876332 
L 96.655803 169.831163 
L 96.878106 123.135794 
L 96.970732 114.967747 
L 97.007782 116.348551 
L 97.100408 133.1386 
L 97.304186 162.545252 
L 97.656165 179.072291 
L 97.841417 194.220105 
L 98.10077 236.732558 
L 98.156346 233.024114 
L 98.545376 196.284209 
L 98.582426 195.717159 
L 98.749153 188.123001 
L 98.952931 177.201236 
L 99.064082 153.603429 
L 99.267859 119.604618 
L 99.286385 119.647752 
L 99.360486 122.946952 
L 99.971818 187.828429 
L 100.101494 211.576678 
L 100.342322 255.970181 
L 100.360848 256.224775 
L 100.379373 255.834994 
L 100.490524 245.245149 
L 101.027756 174.783646 
L 101.120382 177.140744 
L 101.416785 206.429567 
L 101.805815 253.991818 
L 101.82434 253.866099 
L 101.879916 251.686796 
L 101.991067 230.691739 
L 102.25042 182.388851 
L 102.305996 180.058054 
L 102.361572 181.369949 
L 102.528299 195.593544 
L 102.824702 224.57938 
L 103.009955 243.359365 
L 103.02848 242.963272 
L 103.121106 236.270186 
L 103.565711 180.999631 
L 103.602762 182.056932 
L 103.88064 200.657544 
L 103.991791 229.66442 
L 104.195569 268.525239 
L 104.26967 270.168002 
L 104.30672 268.979195 
L 104.454922 250.00353 
L 104.843952 201.144639 
L 104.899527 202.593826 
L 105.12183 224.995988 
L 105.51086 264.272889 
L 105.529385 263.990942 
L 105.659062 254.65513 
L 106.066617 223.962884 
L 106.251869 216.201451 
L 106.288919 217.181427 
L 106.418596 227.714462 
L 106.733525 257.162144 
L 106.807625 254.334783 
L 106.974352 228.94009 
L 107.511584 158.881519 
L 107.530109 158.916763 
L 107.585685 159.717366 
L 107.696836 165.487811 
L 108.234068 208.64727 
L 108.289643 207.735676 
L 108.530471 202.990445 
L 108.567522 202.726909 
L 108.660148 201.844246 
L 108.697198 202.08832 
L 108.80835 202.653792 
L 108.8454 202.596982 
L 108.900976 203.210322 
L 109.067703 210.184302 
L 109.215905 216.369777 
L 109.23443 215.952643 
L 109.327056 206.743076 
L 109.66051 163.582565 
L 109.679035 163.849783 
L 109.771661 169.488723 
L 109.956914 203.912559 
L 110.216267 237.077628 
L 110.290368 239.195386 
L 110.327418 238.435287 
L 110.772023 207.161262 
L 111.031376 158.382326 
L 111.124003 163.905015 
L 111.438931 208.594142 
L 111.550083 204.70159 
L 111.827961 184.420868 
L 111.920587 185.489216 
L 112.087314 191.668379 
L 112.216991 214.182058 
L 112.439293 246.552836 
L 112.476344 245.343514 
L 112.587495 230.678588 
L 112.920949 192.143376 
L 112.99505 195.110131 
L 113.272929 214.565527 
L 113.347029 212.111641 
L 113.532282 200.24304 
L 113.77311 138.75913 
L 113.902786 146.619981 
L 114.180665 179.751384 
L 114.477068 216.477086 
L 114.643795 220.643694 
L 114.699371 219.119813 
L 114.847573 207.854557 
L 115.0143 174.454357 
L 115.218077 147.042375 
L 115.255127 146.715716 
L 115.292178 147.1581 
L 115.458905 155.817976 
L 116.051712 202.255594 
L 116.088763 200.703308 
L 116.274015 175.957198 
L 116.551893 138.587121 
L 116.570418 138.8212 
L 116.663044 143.259761 
L 116.940923 167.370965 
L 117.200276 208.804024 
L 117.218801 209.024427 
L 117.255852 208.863464 
L 117.404053 201.00314 
L 117.49668 190.503244 
L 117.756033 139.090523 
L 117.848659 143.32341 
L 118.219163 169.8117 
L 118.293264 171.231429 
L 118.404416 184.486621 
L 118.645243 218.138784 
L 118.663769 218.094599 
L 118.793445 217.134085 
L 118.849021 217.422344 
L 118.886071 217.704818 
L 118.904597 217.405512 
L 118.978697 212.814405 
L 119.312151 172.231394 
L 119.423303 176.083969 
L 119.515929 188.441243 
L 119.775282 238.46264 
L 119.812333 237.961868 
L 119.886433 233.860486 
L 120.034635 211.67294 
L 120.182837 194.915504 
L 120.219887 195.02702 
L 120.331039 197.974839 
L 120.40514 199.162068 
L 120.44219 198.693909 
L 121.016472 176.916133 
L 121.201724 156.380818 
L 121.424027 141.213015 
L 121.461077 142.40866 
L 121.590754 160.8562 
L 121.942733 213.574504 
L 122.016834 207.381139 
L 122.850469 86.514244 
L 122.943095 94.243064 
L 123.387701 173.019899 
L 123.628529 203.467546 
L 123.813781 218.636926 
L 123.832306 218.341302 
L 123.887882 215.237781 
L 124.036084 183.222593 
L 124.239861 150.718207 
L 124.258386 150.845503 
L 124.351012 153.945343 
L 124.814143 196.083269 
L 124.98087 235.677361 
L 125.110546 256.650326 
L 125.147597 255.923892 
L 125.295799 241.767627 
L 126.092383 164.803458 
L 126.166484 162.69622 
L 126.203535 163.51313 
L 126.351736 170.952638 
L 126.666665 221.508472 
L 126.777817 217.902075 
L 127.222422 195.5967 
L 127.88933 103.024977 
L 127.963431 109.788023 
L 128.463612 183.941137 
L 128.760016 200.567595 
L 128.871167 204.924097 
L 129.019369 229.847476 
L 129.223146 252.607332 
L 129.241671 252.240696 
L 129.315772 244.889559 
L 129.834479 167.796515 
L 129.871529 168.077936 
L 129.964155 171.05679 
L 130.093832 180.164836 
L 130.186458 183.425111 
L 130.223508 182.833864 
L 130.390235 169.623911 
L 130.649588 157.916798 
L 130.686639 158.771581 
L 130.779265 171.107288 
L 131.094194 218.124582 
L 131.112719 218.040945 
L 131.205345 211.189527 
L 131.501749 181.087476 
L 131.538799 182.407788 
L 131.835203 196.322083 
L 131.890778 195.913891 
L 132.076031 191.224944 
L 132.298333 182.865425 
L 132.353909 183.188402 
L 132.502111 193.240128 
L 132.705888 227.314687 
L 132.928191 247.420244 
L 132.946716 247.136192 
L 133.039342 242.284705 
L 133.169019 222.162316 
L 133.391321 181.598768 
L 133.428372 182.034839 
L 133.687725 198.828571 
L 134.002654 255.972285 
L 134.206431 282.759881 
L 134.224957 282.42428 
L 134.299057 277.024153 
L 134.928915 197.679742 
L 135.040066 196.30525 
L 135.058592 196.329447 
L 135.169743 198.795957 
L 135.225319 197.996932 
L 135.37352 179.649862 
L 135.503197 169.160486 
L 135.540247 170.531822 
L 135.669924 187.883661 
L 135.984853 225.156424 
L 136.077479 226.17743 
L 136.114529 225.753984 
L 136.207155 216.254053 
L 136.54061 168.887482 
L 136.559135 169.141024 
L 136.633236 174.647933 
L 136.781437 207.279091 
L 136.985215 234.661615 
L 137.00374 234.981962 
L 137.040791 234.479612 
L 137.151942 221.665752 
L 137.355719 204.241322 
L 137.374245 204.281826 
L 137.411295 203.665855 
L 137.615072 189.036172 
L 137.985577 169.644425 
L 138.022627 170.398213 
L 138.115254 182.351503 
L 138.393132 225.702434 
L 138.411657 224.944438 
L 138.745111 200.617566 
L 138.837737 202.919432 
L 138.930363 216.837936 
L 139.208242 267.697809 
L 139.226767 268.116521 
L 139.282343 267.419018 
L 139.374969 258.251532 
L 139.671372 212.02327 
L 139.708423 212.482486 
L 139.838099 219.828888 
L 140.078927 231.860556 
L 140.153028 230.872164 
L 140.264179 226.469372 
L 140.356806 214.062125 
L 140.634684 176.845646 
L 140.653209 177.444784 
L 140.764361 186.368196 
L 140.931088 223.978664 
L 141.079289 237.573139 
L 141.097815 237.566301 
L 141.171915 238.049188 
L 141.227491 237.646256 
L 141.301592 231.531267 
L 141.616521 186.197766 
L 141.727672 188.795781 
L 141.875874 202.730065 
L 142.172278 232.162492 
L 142.209328 231.091514 
L 142.39458 220.318088 
L 142.487206 220.943 
L 142.653933 216.533896 
L 142.82066 207.797221 
L 142.857711 208.95131 
L 142.987387 226.235293 
L 143.246741 259.654429 
L 143.283791 260.414003 
L 143.320841 259.753847 
L 143.394942 251.602107 
L 143.691346 191.196539 
L 143.765447 193.289574 
L 143.895123 207.254894 
L 144.173002 235.603192 
L 144.191527 235.618973 
L 144.247103 232.982558 
L 144.339729 214.738062 
L 144.543506 175.704182 
L 144.562031 176.034523 
L 144.691708 186.833724 
L 144.951061 205.022462 
L 145.043687 209.279021 
L 145.191889 242.24578 
L 145.377141 266.251779 
L 145.469767 260.566023 
L 146.025524 208.305883 
L 146.062575 208.925535 
L 146.173726 212.611887 
L 146.340453 225.688231 
L 146.618331 279.235544 
L 146.692432 275.237261 
L 146.914735 246.341375 
L 147.118512 229.196788 
L 147.192613 226.501985 
L 147.507542 212.653968 
L 147.581643 209.336357 
L 147.859521 193.255383 
L 147.878046 193.58888 
L 147.933622 197.912243 
L 148.248551 259.975302 
L 148.359702 256.270013 
L 148.507904 236.944019 
L 148.896934 191.617355 
L 148.915459 191.763063 
L 148.971035 194.65302 
L 149.045136 212.588216 
L 149.248913 256.598776 
L 149.267438 256.55985 
L 149.323014 254.485751 
L 149.545317 229.158915 
L 150.064023 177.872439 
L 150.101073 177.010291 
L 150.156649 178.079691 
L 150.2678 185.449238 
L 150.712406 241.783934 
L 150.953234 253.204891 
L 151.008809 251.777272 
L 151.138486 240.311602 
L 151.675717 171.332425 
L 151.749818 167.442503 
L 151.786869 168.498227 
L 151.879495 185.322467 
L 152.120323 225.655092 
L 152.453777 231.119393 
L 152.490827 230.655969 
L 152.564928 222.149691 
L 152.805756 185.55339 
L 152.842806 186.252998 
L 152.991008 197.975365 
L 153.287412 247.020994 
L 153.398563 243.062689 
L 153.732017 225.985959 
L 153.787593 226.526708 
L 153.806118 226.611923 
L 153.824643 226.498829 
L 153.99137 223.142292 
L 154.102522 213.126861 
L 154.547127 146.538973 
L 154.584177 145.202355 
L 154.658278 146.307524 
L 154.750904 154.623909 
L 155.214035 222.098141 
L 155.343712 226.37837 
L 155.380762 225.600912 
L 155.473388 216.64699 
L 155.806842 151.364686 
L 155.862418 154.30251 
L 156.381124 218.248197 
L 156.529326 237.228596 
L 156.566376 236.494797 
L 156.640477 228.88591 
L 156.936881 162.2733 
L 157.048032 170.991564 
L 157.362961 194.388431 
L 157.474112 199.7975 
L 157.529688 201.704851 
L 157.585264 199.859571 
L 157.733465 183.386712 
L 158.048394 135.468871 
L 158.10397 137.346765 
L 158.196596 153.847503 
L 158.455949 207.713583 
L 158.659727 214.437704 
L 158.696777 214.775935 
L 158.733828 214.238342 
L 158.974655 210.658772 
L 159.030231 211.051184 
L 159.048756 210.811318 
L 159.104332 208.561003 
L 159.234009 192.571556 
L 159.474836 167.853325 
L 159.493362 167.896985 
L 159.548937 169.374051 
L 159.678614 184.389833 
L 159.975018 237.617851 
L 160.030593 237.110767 
L 160.086169 234.667402 
L 160.604875 177.798796 
L 160.716026 181.265271 
L 160.808653 183.528737 
L 160.845703 183.211547 
L 160.882753 182.845963 
L 160.919804 183.227854 
L 161.01243 186.900529 
L 161.234733 201.097297 
L 161.271783 199.823801 
L 161.382935 186.779018 
L 161.623762 152.564013 
L 161.660813 153.318852 
L 161.753439 161.774632 
L 162.198044 223.344284 
L 162.25362 222.277514 
L 162.401822 213.601331 
L 162.790852 156.483392 
L 162.994629 131.962944 
L 163.013154 132.042899 
L 163.087255 137.403575 
L 163.587436 190.868302 
L 163.624487 191.166556 
L 163.643012 190.653686 
L 163.772688 181.984867 
L 164.161718 144.50643 
L 164.217294 147.995524 
L 164.328445 183.799638 
L 164.476647 207.76829 
L 164.495172 207.766186 
L 164.810101 203.437563 
L 164.902727 193.755629 
L 165.273231 146.735179 
L 165.291757 146.616298 
L 165.328807 146.96505 
L 165.439959 151.751837 
L 165.55111 185.620721 
L 165.699312 212.419889 
L 165.717837 212.13952 
L 165.810463 206.474279 
L 166.347694 152.84859 
L 166.384745 154.830635 
L 166.477371 171.723259 
L 166.681148 214.395622 
L 166.699674 214.141028 
L 166.7923 206.558968 
L 166.959027 189.152949 
L 166.996077 189.510643 
L 167.070178 191.050831 
L 167.125754 190.221297 
L 167.25543 177.991845 
L 167.533309 127.322917 
L 167.625935 131.892984 
L 167.811187 155.310366 
L 168.107591 186.151476 
L 168.144641 186.059948 
L 168.200217 184.691243 
L 168.441045 167.279437 
L 168.774499 135.142212 
L 168.830074 136.97066 
L 168.922701 153.226272 
L 169.145003 201.412384 
L 169.182054 200.813772 
L 169.330255 185.322993 
L 169.73781 136.866508 
L 169.793386 138.885375 
L 169.997164 152.364651 
L 170.052739 151.158486 
L 170.200941 145.261796 
L 170.237991 145.84673 
L 170.367668 160.906698 
L 170.701122 190.912488 
L 170.812273 196.386257 
L 170.867849 195.675078 
L 170.94195 189.422797 
L 171.219828 137.307839 
L 171.33098 141.816361 
L 171.534757 165.544621 
L 171.75706 183.45299 
L 171.905262 189.086144 
L 171.942312 188.666906 
L 172.034938 182.685 
L 172.257241 150.659292 
L 172.331342 153.86907 
L 172.905624 209.302692 
L 172.961199 205.861465 
L 173.090876 165.780805 
L 173.276128 142.892599 
L 173.331704 143.304473 
L 173.42433 146.033994 
L 173.591057 160.280734 
L 173.924511 198.622897 
L 173.980087 197.131102 
L 174.072713 183.951132 
L 174.313541 131.534238 
L 174.350591 132.371136 
L 174.480268 141.037851 
L 174.869297 190.540591 
L 174.961923 182.895409 
L 175.221277 150.896527 
L 175.258327 151.173214 
L 175.295378 150.747138 
L 175.332428 150.366825 
L 175.350953 150.731357 
L 175.665882 162.703058 
L 175.777033 179.394216 
L 175.999336 215.148358 
L 176.036386 214.195209 
L 176.129013 205.620548 
L 176.518042 166.342594 
L 176.666244 157.656943 
L 176.851496 142.96256 
L 176.925597 145.562679 
L 177.036749 162.990792 
L 177.296102 208.408983 
L 177.351677 207.126019 
L 177.481354 194.134363 
L 177.925959 137.133726 
L 177.981535 140.128887 
L 178.722544 219.687915 
L 178.796645 213.617112 
L 179.148624 161.897721 
L 179.222725 164.034942 
L 179.482078 189.425428 
L 179.574704 184.939524 
L 179.685856 163.010254 
L 179.852583 135.515687 
L 179.889633 136.370996 
L 180.05636 143.922021 
L 180.593591 199.778038 
L 180.630642 199.034245 
L 180.778844 186.088353 
L 181.204924 129.70579 
L 181.279025 130.285465 
L 181.408701 134.633551 
L 181.538378 148.886077 
L 181.945933 206.950854 
L 181.964458 206.909824 
L 182.038559 202.662208 
L 182.14971 183.818049 
L 182.353488 148.931315 
L 182.372013 149.180648 
L 182.446114 151.756045 
L 182.668417 165.464666 
L 182.705467 164.199061 
L 183.001871 133.028662 
L 183.372375 82.699543 
L 183.3909 83.092481 
L 183.465001 92.859104 
L 183.835506 161.294901 
L 184.150434 174.143479 
L 184.187485 172.988338 
L 184.298636 159.929878 
L 184.539464 119.434713 
L 184.576515 120.013336 
L 184.909969 131.468485 
L 185.05817 170.762745 
L 185.243423 191.27965 
L 185.317524 186.922096 
L 185.539826 147.965541 
L 185.650978 136.368366 
L 185.706553 137.590312 
L 185.854755 147.092347 
L 186.206734 177.842455 
L 186.243785 177.252786 
L 186.799541 152.696044 
L 187.207096 118.695654 
L 187.281197 123.815938 
L 188.170408 229.706502 
L 188.188933 229.617079 
L 188.244509 224.566755 
L 188.726165 155.258816 
L 188.892892 153.46719 
L 188.929942 154.062119 
L 189.059619 161.795673 
L 189.448648 206.49269 
L 189.504224 205.400671 
L 189.615375 191.644182 
L 189.930304 145.427492 
L 190.02293 144.263935 
L 190.041456 144.975114 
L 190.134082 154.665465 
L 190.578687 199.211514 
L 190.689838 202.50072 
L 190.726889 201.709059 
L 190.83804 190.82622 
L 191.22707 139.325128 
L 191.282646 138.520316 
L 191.301171 139.111563 
L 191.375272 147.370612 
L 191.6902 213.945875 
L 191.745776 213.209446 
L 191.838402 208.011311 
L 192.097755 168.991634 
L 192.320058 150.171145 
L 192.394159 148.195938 
L 192.764663 119.951265 
L 192.838764 115.850409 
L 192.875815 116.942954 
L 192.986966 133.891336 
L 193.301895 180.598803 
L 193.357471 181.449378 
L 193.431572 181.134292 
L 193.524198 183.822257 
L 193.653874 210.75293 
L 193.820601 240.509386 
L 193.857652 239.562549 
L 194.005853 224.509419 
L 194.543085 161.287011 
L 194.580135 159.902525 
L 194.635711 161.028735 
L 194.783913 170.79904 
L 195.043266 203.67848 
L 195.284094 253.459485 
L 195.321144 252.623113 
L 195.41377 244.570264 
L 195.895426 171.784277 
L 196.062153 161.66785 
L 196.099204 162.204391 
L 196.19183 172.139867 
L 196.58086 231.863712 
L 196.61791 231.521799 
L 196.766112 220.08243 
L 197.192192 183.910102 
L 197.47007 127.522279 
L 197.525646 129.264459 
L 197.673848 144.86728 
L 198.136978 194.628297 
L 198.174029 195.455727 
L 198.229604 194.661962 
L 198.377806 190.676304 
L 198.507483 174.387026 
L 198.785361 124.627588 
L 198.840937 127.199828 
L 198.989139 150.489388 
L 199.229967 181.629277 
L 199.248492 181.894392 
L 199.322593 181.561421 
L 199.415219 178.572572 
L 199.507845 173.175601 
L 199.563421 174.93777 
L 199.674572 186.575974 
L 200.063602 239.149097 
L 200.100652 237.557885 
L 200.193278 217.197734 
L 200.37853 174.209758 
L 200.397056 174.464878 
L 200.471157 179.61041 
L 200.656409 206.583691 
L 200.915762 237.067633 
L 200.934287 237.313285 
L 200.971338 236.495323 
L 201.045438 232.386577 
L 201.175115 205.67578 
L 201.378892 173.644812 
L 201.564145 170.610725 
L 201.601195 171.015235 
L 201.693821 176.855115 
L 202.00875 225.436267 
L 202.101376 223.852946 
L 202.231053 220.435916 
L 202.342204 214.171012 
L 202.471881 186.467614 
L 202.638608 156.48234 
L 202.675658 156.68854 
L 202.805335 159.715262 
L 202.916486 167.205794 
L 203.268465 213.529793 
L 203.361091 210.149585 
L 203.750121 192.295396 
L 203.990949 156.159889 
L 204.083575 158.865213 
L 204.213252 172.018356 
L 204.583756 226.670312 
L 204.620807 225.629843 
L 204.769008 209.954957 
L 204.972786 195.631944 
L 205.009836 196.038558 
L 205.083937 198.00114 
L 205.139513 196.7045 
L 205.232139 189.14085 
L 205.361816 178.741424 
L 205.417391 179.763482 
L 205.472967 180.46572 
L 205.491492 180.048059 
L 205.584118 172.821063 
L 205.73232 159.790483 
L 205.769371 161.249138 
L 205.899047 178.42476 
L 206.176925 211.647165 
L 206.306602 213.461936 
L 206.343652 213.169994 
L 206.436279 210.478873 
L 206.528905 196.168485 
L 206.806783 147.653085 
L 206.899409 147.273824 
L 206.93646 147.438468 
L 207.029086 149.793988 
L 207.158762 172.631696 
L 207.39959 209.618304 
L 207.640418 220.180796 
L 207.695994 218.470177 
L 207.82567 201.256681 
L 208.103549 151.739212 
L 208.17765 149.98546 
L 208.25175 148.822429 
L 208.288801 149.817659 
L 208.399952 164.324254 
L 208.677831 203.657965 
L 208.733406 204.964074 
L 208.788982 204.161893 
L 208.937184 202.145656 
L 208.974234 202.284 
L 208.992759 202.368163 
L 209.011285 202.167223 
L 209.196537 198.312544 
L 209.233587 200.104696 
L 209.381789 221.388539 
L 209.511466 236.643135 
L 209.548516 235.459063 
L 209.696718 214.114201 
L 209.956071 180.379978 
L 210.030172 179.845016 
L 210.048697 180.060684 
L 210.122798 183.869599 
L 210.437727 220.023516 
L 210.66003 247.725335 
L 210.69708 246.696965 
L 210.826757 229.196788 
L 211.104635 183.459303 
L 211.215786 181.506714 
L 211.252837 182.241039 
L 211.475139 191.141833 
L 211.54924 189.102977 
L 211.623341 180.134327 
L 211.919745 130.621592 
L 211.956795 131.333298 
L 212.142047 137.387268 
L 212.179098 136.584035 
L 212.197623 136.396245 
L 212.234674 136.882288 
L 212.308774 142.633797 
L 212.697804 196.340494 
L 212.716329 196.126403 
L 212.827481 188.505418 
L 213.401763 112.123554 
L 213.438813 114.32758 
L 213.549964 143.615351 
L 213.735217 168.752295 
L 213.827843 174.062472 
L 214.161297 212.763907 
L 214.253923 208.827169 
L 214.439175 194.338985 
L 214.735579 132.957649 
L 214.84673 140.76169 
L 215.309861 201.889484 
L 215.550689 231.817948 
L 215.717416 243.254687 
L 215.735941 242.762332 
L 215.810042 228.989536 
L 216.069395 172.341859 
L 216.106445 171.619106 
L 216.143496 172.875243 
L 216.236122 181.544588 
L 216.699252 230.739606 
L 216.773353 234.180307 
L 216.828929 232.155654 
L 216.94008 217.053604 
L 217.180908 174.395443 
L 217.236484 176.690996 
L 217.681089 220.921959 
L 217.884867 263.141945 
L 217.921917 262.175646 
L 218.033069 254.052836 
L 218.440624 211.536175 
L 218.496199 212.994304 
L 218.829653 225.912842 
L 218.866704 225.817106 
L 218.922279 223.645693 
L 219.274259 205.77099 
L 219.38541 204.108239 
L 219.403935 204.668977 
L 219.478036 213.965864 
L 219.737389 253.341131 
L 219.77444 252.617326 
L 219.885591 243.596074 
L 220.348722 197.251035 
L 220.515449 180.049112 
L 220.589549 185.449238 
L 220.923004 236.979262 
L 220.978579 235.066125 
L 221.108256 215.673852 
L 221.367609 186.018393 
L 221.497285 179.978625 
L 221.534336 180.193241 
L 221.589912 181.329446 
L 221.978941 197.89541 
L 222.071567 205.424342 
L 222.275345 222.767239 
L 222.312395 221.867744 
L 222.405021 210.431006 
L 222.664375 160.48746 
L 222.71995 161.561594 
L 222.831102 165.357358 
L 222.886677 164.550442 
L 222.979303 162.466349 
L 223.034879 163.324815 
L 223.10898 166.969611 
L 223.220131 192.523689 
L 223.423909 227.114799 
L 223.479484 226.308935 
L 223.57211 220.706817 
L 224.146392 154.80749 
L 224.183443 155.9337 
L 224.257544 169.077375 
L 224.461321 224.364237 
L 224.498372 223.377423 
L 224.609523 211.213724 
L 224.850351 190.146076 
L 225.035603 181.256329 
L 225.313482 159.043008 
L 225.387582 161.61367 
L 225.517259 186.035225 
L 225.758087 222.706747 
L 225.795137 222.909265 
L 225.832188 222.533686 
L 225.924814 217.783195 
L 226.128591 187.317663 
L 226.350894 155.943695 
L 226.387944 156.524421 
L 226.536146 166.01278 
L 226.925176 197.056933 
L 227.406832 259.976354 
L 227.499458 251.000339 
L 227.869962 183.105291 
L 228.314568 139.760147 
L 228.407194 145.49114 
L 228.759173 208.5852 
L 228.870324 205.514292 
L 229.074102 186.995739 
L 229.500182 129.201863 
L 229.537233 131.29332 
L 229.648384 163.070747 
L 229.870687 209.388433 
L 230.092989 221.485853 
L 230.111514 221.205484 
L 230.185615 216.806374 
L 230.315292 194.553076 
L 230.537595 162.462667 
L 230.574645 161.962947 
L 230.611695 162.654664 
L 230.815473 166.13429 
L 230.908099 164.521511 
L 230.94515 164.203795 
L 230.9822 164.866055 
L 231.056301 171.495492 
L 231.463856 222.232802 
L 231.500906 221.437985 
L 231.593532 212.194752 
L 231.926986 158.54434 
L 232.001087 160.145547 
L 232.056663 161.638393 
L 232.093713 160.780979 
L 232.353067 153.734934 
L 232.371592 154.025824 
L 232.538319 159.910941 
L 233.112601 216.981013 
L 233.205227 221.207062 
L 233.242277 220.3244 
L 233.353429 199.475576 
L 233.631307 149.078074 
L 233.835084 140.8569 
L 233.85361 140.751169 
L 233.872135 140.922126 
L 233.927711 144.236581 
L 234.075912 171.950499 
L 234.31674 203.832604 
L 234.372316 205.172378 
L 234.427892 204.573241 
L 234.631669 199.135767 
L 235.409728 142.40603 
L 235.669082 102.714625 
L 235.743182 108.599216 
L 236.095162 160.40014 
L 236.150737 159.802581 
L 236.261889 153.823306 
L 236.484191 142.914166 
L 236.502717 143.370226 
L 236.595343 153.132641 
L 236.891746 195.097507 
L 236.928797 194.41105 
L 237.132574 179.928127 
L 237.262251 161.053984 
L 237.558654 113.743171 
L 237.57718 113.805768 
L 237.632755 116.504253 
L 237.780957 143.912027 
L 237.947684 153.711789 
L 237.984735 153.917463 
L 238.132936 158.081442 
L 238.299663 171.228273 
L 238.46639 180.977538 
L 238.503441 180.741881 
L 238.577542 178.417922 
L 238.744269 165.62405 
L 238.81837 168.847504 
L 239.022147 180.181669 
L 239.059198 179.839229 
L 239.133298 175.625279 
L 239.411177 147.108128 
L 239.466752 150.017021 
L 239.559379 161.955057 
L 239.837257 217.821068 
L 239.892833 215.482907 
L 240.041034 193.635696 
L 240.300387 165.950709 
L 240.430064 162.099713 
L 240.467115 162.725677 
L 240.633842 167.259974 
L 240.670892 166.898598 
L 240.726468 162.380608 
L 241.078447 102.409533 
L 241.152548 105.899153 
L 241.634204 157.022037 
L 241.72683 156.69643 
L 241.782405 156.231954 
L 241.800931 156.447096 
L 241.875032 162.679913 
L 242.15291 198.035332 
L 242.18996 196.864936 
L 242.282586 185.930547 
L 242.597515 144.802054 
L 242.764242 138.890109 
L 242.782767 139.271474 
L 242.893919 147.062364 
L 243.060646 186.547569 
L 243.264423 215.843231 
L 243.282949 215.994725 
L 243.301474 215.530249 
L 243.3941 204.097192 
L 243.653453 168.053739 
L 243.85723 160.735216 
L 243.912806 161.233883 
L 243.968382 160.40014 
L 244.023957 159.021967 
L 244.098058 159.117702 
L 244.172159 159.97459 
L 244.190684 160.271265 
L 244.24626 159.630046 
L 244.301836 156.907364 
L 244.450038 133.338488 
L 244.67234 100.103459 
L 244.690866 100.13239 
L 244.783492 106.890176 
L 245.09842 135.890214 
L 245.209572 155.63492 
L 245.394824 188.013062 
L 245.431874 187.325554 
L 245.505975 178.056546 
L 245.839429 126.655923 
L 245.950581 121.293144 
L 246.006156 122.621872 
L 246.117308 133.48367 
L 246.321085 147.728306 
L 246.33961 147.404803 
L 246.413711 143.263444 
L 246.543388 116.068708 
L 246.747165 89.511509 
L 246.784216 89.934956 
L 246.876842 94.874815 
L 247.043569 117.680961 
L 247.395548 171.967858 
L 247.432599 171.080987 
L 247.951305 140.415568 
L 248.229183 100.607912 
L 248.35886 93.188919 
L 248.39591 93.337783 
L 248.488536 95.58126 
L 248.840516 107.725496 
L 249.155444 140.290901 
L 249.396272 172.665361 
L 249.414798 172.532804 
L 249.544474 166.735532 
L 249.711201 147.317484 
L 249.952029 94.740153 
L 250.007605 95.490785 
L 250.118756 102.675173 
L 250.266958 127.422861 
L 250.507786 159.014602 
L 250.563361 156.797952 
L 250.933866 119.987035 
L 251.156169 74.88656 
L 251.211744 76.681868 
L 251.359946 96.716938 
L 251.637824 130.404346 
L 251.674875 131.178648 
L 251.748976 130.699969 
L 251.786026 131.030836 
L 251.878652 135.636672 
L 252.527035 171.0873 
L 252.54556 171.074675 
L 252.582611 170.795884 
L 252.675237 165.116441 
L 253.286569 96.193022 
L 253.305095 96.440778 
L 253.36067 99.539565 
L 253.490347 127.33186 
L 253.805276 178.78824 
L 253.916427 184.242021 
L 253.972003 182.636607 
L 254.083154 168.751242 
L 254.323982 128.145613 
L 254.379558 129.957228 
L 254.527759 151.044339 
L 254.731537 167.481429 
L 254.805638 167.828602 
L 254.842688 167.496157 
L 254.972365 163.007098 
L 255.157617 152.195798 
L 255.213193 153.57555 
L 255.324344 164.172234 
L 255.583697 194.853433 
L 255.620748 193.922377 
L 255.731899 178.892918 
L 255.991252 143.680578 
L 256.009777 143.713191 
L 256.065353 145.214454 
L 256.176504 154.429281 
L 256.454383 212.419889 
L 256.547009 210.466775 
L 256.732261 204.413331 
L 256.898988 188.436509 
L 257.639997 100.768349 
L 257.695573 102.758284 
L 257.788199 117.892421 
L 258.047552 160.220241 
L 258.084602 160.53375 
L 258.121653 160.026666 
L 258.529208 140.457124 
L 258.584783 141.916831 
L 258.732985 167.293114 
L 259.010863 205.919853 
L 259.066439 206.55476 
L 259.084964 206.35119 
L 259.196116 195.015448 
L 259.473994 153.564504 
L 259.52957 155.099958 
L 259.95565 178.791396 
L 260.011226 178.327446 
L 260.177953 172.12619 
L 260.400255 160.855674 
L 260.455831 162.879801 
L 260.641083 189.849926 
L 260.863386 228.761243 
L 260.900436 227.565598 
L 261.048638 214.416663 
L 261.382092 177.320643 
L 261.400617 177.358516 
L 261.437668 177.874543 
L 261.511769 182.851749 
L 261.62292 217.840005 
L 261.789647 241.911757 
L 261.808172 241.95752 
L 261.882273 237.548942 
L 262.123101 204.117181 
L 262.382454 177.623105 
L 262.43803 178.598873 
L 262.752959 191.02979 
L 262.790009 190.11504 
L 262.882635 188.610096 
L 262.919686 188.932546 
L 263.030837 194.630401 
L 263.456917 216.529688 
L 263.475442 216.656459 
L 263.493968 216.412911 
L 263.568068 214.007419 
L 263.864472 192.938719 
L 263.938573 194.596209 
L 264.086775 209.008646 
L 264.401704 251.269136 
L 264.438754 249.687918 
L 264.568431 225.378405 
L 264.772208 200.722771 
L 264.827784 202.937317 
L 265.013036 227.780741 
L 265.198288 245.973161 
L 265.216813 245.787476 
L 265.272389 242.113222 
L 265.73552 191.797254 
L 265.828146 190.333339 
L 265.865196 190.65579 
L 265.957822 196.046974 
L 266.272751 222.884542 
L 266.346852 220.263381 
L 266.476529 187.875245 
L 266.680306 154.994753 
L 266.698831 154.80223 
L 266.717357 155.347187 
L 266.809983 169.972662 
L 267.032285 199.516079 
L 267.069336 199.161542 
L 267.291638 192.023969 
L 267.347214 194.181705 
L 267.458365 209.502053 
L 267.699193 237.350106 
L 267.754769 235.092952 
L 267.902971 214.948996 
L 268.162324 174.462247 
L 268.180849 174.559035 
L 268.329051 181.368897 
L 268.606929 195.866549 
L 268.625455 196.051708 
L 268.662505 195.473086 
L 268.699555 195.495705 
L 268.736606 194.826606 
L 268.829232 193.273794 
L 268.866282 193.998124 
L 269.014484 205.463794 
L 269.162686 216.90211 
L 269.199736 216.041541 
L 269.292363 209.856591 
L 269.477615 182.637133 
L 269.736968 138.795425 
L 269.774018 140.426615 
L 270.274199 187.940472 
L 270.533553 223.335341 
L 270.570603 222.630474 
L 270.663229 214.279372 
L 270.978158 180.725048 
L 271.015208 180.583548 
L 271.052259 180.759765 
L 271.070784 180.728204 
L 271.107835 181.341018 
L 271.181935 189.514325 
L 271.570965 251.073982 
L 271.645066 255.042807 
L 271.700642 253.557851 
L 271.830318 242.442511 
L 272.330499 165.011763 
L 272.386075 168.517163 
L 272.682479 192.504226 
L 272.978882 201.880016 
L 273.201185 211.530915 
L 273.330861 216.003141 
L 273.404962 217.583307 
L 273.460538 217.433917 
L 273.534639 213.125283 
L 273.756942 181.870195 
L 273.979244 159.899895 
L 274.016295 159.359672 
L 274.053345 160.101887 
L 274.127446 168.464561 
L 274.368274 221.858276 
L 274.442375 218.977261 
L 274.609102 195.179566 
L 274.812879 169.97161 
L 274.831404 170.194117 
L 274.998132 177.886641 
L 275.220434 203.715827 
L 275.535363 250.688935 
L 275.590939 248.062515 
L 275.683565 228.973229 
L 275.905867 180.802899 
L 276.165221 165.846557 
L 276.239321 168.604483 
L 277.017381 243.377776 
L 277.035906 243.08899 
L 277.110007 237.24122 
L 277.628713 173.460178 
L 277.721339 172.007836 
L 277.75839 172.755837 
L 277.869541 179.333198 
L 278.258571 231.038912 
L 278.332672 229.125775 
L 278.480874 215.775374 
L 279.018105 161.531611 
L 279.055155 163.509448 
L 279.166307 186.116758 
L 279.38861 221.224947 
L 279.407135 221.271763 
L 279.42566 221.122899 
L 279.481236 220.396465 
L 279.536811 221.111327 
L 279.685013 222.199137 
L 279.703538 222.240693 
L 279.759114 219.978804 
L 279.870265 199.191525 
L 280.092568 163.787187 
L 280.148144 165.890217 
L 280.27782 186.987322 
L 280.518648 214.822751 
L 280.574224 215.855855 
L 280.648325 215.575486 
L 280.7039 214.220984 
L 280.759476 213.421432 
L 280.796527 213.902741 
L 280.944728 224.517309 
L 281.222607 247.721127 
L 281.407859 268.416879 
L 281.463435 266.896154 
L 281.556061 251.681536 
L 281.833939 203.240305 
L 282.000666 192.629945 
L 282.037717 192.905053 
L 282.074767 193.091791 
L 282.111817 193.259591 
L 282.148868 192.97554 
L 282.204444 191.901932 
L 282.241494 192.981326 
L 282.33412 206.489534 
L 282.611998 253.543123 
L 282.649049 253.891874 
L 282.686099 253.296945 
L 282.815776 243.510859 
L 283.260381 191.664171 
L 283.334482 192.614164 
L 283.427108 199.424026 
L 283.890239 246.486031 
L 283.908764 246.473933 
L 283.96434 244.789615 
L 284.094016 235.424871 
L 284.464521 173.373911 
L 284.538622 177.170727 
L 284.797975 214.43297 
L 285.020278 233.871007 
L 285.20553 249.107191 
L 285.446358 286.460962 
L 285.501933 282.351689 
L 286.039165 220.099789 
L 286.205892 195.217966 
L 286.409669 172.285574 
L 286.44672 173.285013 
L 286.835749 199.199415 
L 286.854275 199.144709 
L 286.891325 198.700748 
L 286.965426 199.122616 
L 287.039527 198.073731 
L 287.113628 198.830675 
L 287.187729 199.854837 
L 287.224779 198.872756 
L 287.317405 185.211477 
L 287.558233 148.394248 
L 287.576758 148.485249 
L 287.632334 151.721854 
L 288.095465 193.724593 
L 288.225141 197.201063 
L 288.280717 196.306302 
L 288.391868 182.920658 
L 288.669747 135.84445 
L 288.725322 138.350938 
L 288.836474 160.161853 
L 289.058776 204.830991 
L 289.077302 205.120828 
L 289.114352 204.451204 
L 289.299604 185.185176 
L 289.540432 165.902315 
L 289.596008 169.419815 
L 289.762735 207.807215 
L 289.947987 227.014855 
L 290.003563 228.00956 
L 290.059138 227.092706 
L 290.448168 211.96909 
L 290.726046 171.854764 
L 290.763097 173.407576 
L 290.874248 192.208602 
L 291.207702 246.266154 
L 291.281803 249.640576 
L 291.337379 248.986733 
L 291.374429 248.936761 
L 291.430005 248.010965 
L 291.522631 238.256966 
L 291.856085 180.483604 
L 291.930186 181.306301 
L 292.096913 191.425884 
L 292.245115 208.163857 
L 292.893498 293.140896 
L 292.967598 295.488 
L 293.004649 294.242383 
L 293.097275 282.253849 
L 293.449254 222.276988 
L 293.690082 212.192122 
L 293.819759 209.757699 
L 293.838284 209.956535 
L 293.93091 218.575382 
L 294.245839 266.078718 
L 294.301415 265.026677 
L 294.431091 253.78667 
L 294.616343 218.3918 
L 294.764545 199.718597 
L 294.801596 200.626509 
L 295.005373 210.135908 
L 295.060949 210.085936 
L 295.13505 211.988026 
L 295.487029 228.526638 
L 295.616705 252.275413 
L 295.801958 275.750657 
L 295.820483 275.294598 
L 295.894584 267.402186 
L 296.339189 208.998652 
L 296.598542 189.994582 
L 296.617068 190.055074 
L 296.672643 191.523197 
L 296.765269 201.833726 
L 297.006097 244.132089 
L 297.061673 242.868062 
L 297.2284 228.426168 
L 297.395127 209.664068 
L 297.65448 166.553003 
L 297.691531 167.763376 
L 297.784157 178.145969 
L 298.210237 235.420663 
L 298.247287 236.11238 
L 298.284338 235.428027 
L 298.376964 228.959553 
L 298.710418 199.340915 
L 298.803044 202.509662 
L 298.914195 220.281792 
L 299.136498 263.296069 
L 299.173548 263.195073 
L 299.247649 259.335661 
L 299.618154 229.508192 
L 299.74783 224.662491 
L 299.933083 205.1708 
L 300.173911 184.63075 
L 300.192436 184.439805 
L 300.210961 184.703867 
L 300.359163 192.713056 
L 300.451789 195.923885 
L 300.488839 194.509942 
L 300.748192 175.334389 
L 300.803768 178.500507 
L 301.303949 240.599861 
L 301.322474 240.591971 
L 301.37805 237.3338 
L 301.489201 211.932794 
L 301.637403 180.267936 
L 301.674454 180.606693 
L 301.80413 186.951027 
L 302.063483 208.545748 
L 302.415463 248.734243 
L 302.58219 258.574509 
L 302.61924 257.237891 
L 302.748917 238.251706 
L 303.04532 197.020112 
L 303.156472 202.082008 
L 303.212047 203.403371 
L 303.267623 202.847894 
L 303.304673 202.56279 
L 303.323199 202.833691 
L 303.415825 208.316403 
L 303.934531 261.759037 
L 303.990107 259.198895 
L 304.101258 237.154953 
L 304.305035 199.728066 
L 304.323561 200.013169 
L 304.453237 206.661542 
L 304.601439 215.67806 
L 304.657015 214.947944 
L 304.786691 218.885734 
L 304.860792 221.079239 
L 304.897843 220.246023 
L 305.046044 207.45899 
L 305.194246 195.696644 
L 305.231297 197.326256 
L 305.416549 201.779546 
L 305.5277 207.757243 
L 305.731478 247.913651 
L 305.824104 255.195353 
L 305.861154 253.539966 
L 306.009356 230.228314 
L 306.213133 209.445769 
L 306.472487 184.616548 
L 306.657739 174.764709 
L 306.676264 174.906209 
L 306.73184 178.190681 
L 306.898567 211.116936 
L 307.065294 233.989361 
L 307.083819 233.81104 
L 307.15792 229.555008 
L 307.54695 200.702256 
L 307.806303 189.090879 
L 307.824828 189.248685 
L 307.843353 189.242372 
L 308.065656 196.543537 
L 308.43616 238.476842 
L 308.528786 235.833589 
L 308.621413 228.865921 
L 308.954867 166.680826 
L 309.084543 172.392357 
L 309.343896 199.091055 
L 309.566199 237.872445 
L 309.603249 237.053957 
L 310.196057 199.58341 
L 310.473935 167.073237 
L 310.49246 167.440925 
L 310.548036 169.078427 
L 310.751813 186.822678 
L 311.085267 212.752334 
L 311.177893 214.649164 
L 311.214944 213.285719 
L 311.326095 197.8386 
L 311.548398 168.176828 
L 311.566923 168.279928 
L 311.6966 177.59207 
L 311.918902 206.053989 
L 312.178255 241.405199 
L 312.196781 241.068546 
L 312.270882 233.041472 
L 312.54876 178.493143 
L 312.622861 182.20264 
L 313.141567 219.684233 
L 313.160092 219.514328 
L 313.215668 217.558058 
L 313.345345 198.563456 
L 313.623223 160.78887 
L 313.641748 160.654208 
L 313.660273 160.851466 
L 313.715849 166.54406 
L 314.030778 210.505174 
L 314.049303 210.356311 
L 314.364232 201.099401 
L 314.419808 202.017307 
L 314.586535 208.213303 
L 314.771787 222.047643 
L 314.994089 237.670979 
L 315.03114 237.016609 
L 315.160816 226.497251 
L 315.679523 173.956742 
L 315.790674 178.714071 
L 316.124128 196.118513 
L 316.402006 214.141554 
L 316.513158 218.520149 
L 316.642834 222.094459 
L 316.679885 221.086078 
L 316.791036 209.889204 
L 317.161541 157.47231 
L 317.180066 157.804229 
L 317.272692 167.079023 
L 317.587621 207.77618 
L 317.624671 207.110238 
L 317.735823 199.401407 
L 318.013701 168.435104 
L 318.161903 159.763656 
L 318.180428 159.898317 
L 318.273054 165.170621 
L 318.439781 202.433389 
L 318.643559 226.187951 
L 318.662084 226.279478 
L 318.680609 226.232136 
L 318.828811 221.359608 
L 318.921437 207.960287 
L 319.18079 161.243351 
L 319.199315 161.188645 
L 319.21784 161.462702 
L 319.328992 169.099468 
L 319.551295 181.498298 
L 319.680971 188.253454 
L 319.847698 213.9201 
L 320.088526 236.906145 
L 320.125576 236.940862 
L 320.199677 235.227614 
L 320.273778 225.366833 
L 320.588707 174.856237 
L 320.699858 172.257695 
L 320.736909 172.733744 
L 320.885111 180.985954 
L 320.996262 197.433038 
L 321.23709 238.590463 
L 321.27414 237.762507 
L 321.348241 231.379247 
L 321.70022 193.624123 
L 321.755796 193.240654 
L 321.792847 193.614655 
L 321.811372 193.702501 
L 321.829897 193.587302 
L 321.941048 187.618021 
L 322.367129 149.802931 
L 322.496805 137.468801 
L 322.533856 137.875415 
L 322.607956 144.177141 
L 323.219289 228.763347 
L 323.33044 224.677746 
L 323.515692 217.944683 
L 323.534218 217.962568 
L 323.608319 218.987782 
L 323.663894 218.300799 
L 323.75652 209.923922 
L 324.14555 157.686401 
L 324.1826 158.538554 
L 324.275227 164.520459 
L 324.682781 201.638572 
L 324.756882 198.506646 
L 324.849508 195.707165 
L 324.886559 196.646111 
L 324.96066 206.410631 
L 325.238538 266.813043 
L 325.275589 267.847725 
L 325.331164 266.336468 
L 325.479366 246.285091 
L 326.016598 169.109988 
L 326.20185 149.12226 
L 326.2389 150.987529 
L 326.368577 177.917676 
L 326.572354 203.417048 
L 326.66498 204.848876 
L 326.702031 204.159789 
L 326.979909 187.559107 
L 327.331888 143.252923 
L 327.517141 128.256604 
L 327.591242 130.388039 
L 327.683868 140.453442 
L 328.017322 187.571205 
L 328.054372 188.176129 
L 328.109948 187.757942 
L 328.202574 185.577587 
L 328.313725 168.991108 
L 328.498978 134.843433 
L 328.536028 136.391511 
L 328.628654 148.299564 
L 328.906532 183.916941 
L 328.962108 183.873807 
L 329.036209 186.027335 
L 329.128835 190.037715 
L 329.184411 188.816296 
L 329.295562 178.810859 
L 329.480814 153.442993 
L 329.53639 155.185173 
L 329.647541 172.692714 
L 329.869844 204.096666 
L 329.943945 200.509206 
L 330.407076 133.189624 
L 330.592328 111.330315 
L 330.610853 111.537567 
L 330.703479 119.816604 
L 330.944307 168.279402 
L 331.129559 185.553916 
L 331.185135 183.912206 
L 331.685316 145.071902 
L 331.759417 148.54469 
L 331.889094 168.554511 
L 332.148447 204.707376 
L 332.222548 205.867777 
L 332.259598 205.374896 
L 332.500426 193.516815 
L 332.593052 183.049533 
L 332.852405 146.158661 
L 332.889456 147.021334 
L 333.056183 162.946606 
L 333.426687 207.695173 
L 333.519313 205.502719 
L 333.611939 192.886117 
L 333.834242 134.165918 
L 333.889818 135.095397 
L 333.908343 135.11749 
L 333.926868 135.055419 
L 334.07507 133.114929 
L 334.11212 134.055454 
L 334.204746 141.453407 
L 334.519675 180.902843 
L 334.556726 180.575132 
L 334.630827 175.585827 
L 334.816079 139.193097 
L 335.075432 101.432713 
L 335.112482 101.898241 
L 335.223634 111.480757 
L 335.482987 130.586349 
L 335.686764 136.672406 
L 335.760865 138.039008 
L 335.853491 146.41378 
L 336.075794 192.788803 
L 336.186945 204.220281 
L 336.223996 203.346561 
L 336.464824 187.255067 
L 336.55745 188.943593 
L 336.631551 189.155579 
L 336.668601 188.986726 
L 336.742702 185.821135 
L 336.890904 162.133378 
L 337.076156 144.550616 
L 337.113207 145.204985 
L 337.224358 157.164588 
L 337.502236 206.280178 
L 337.557812 204.929883 
L 337.780115 201.099401 
L 337.817165 201.221964 
L 337.83569 201.137801 
L 337.909791 198.728101 
L 338.020943 182.678162 
L 338.18767 158.742124 
L 338.243245 160.141864 
L 338.354397 168.930089 
L 338.539649 206.661542 
L 338.761951 232.089901 
L 338.780477 232.418664 
L 338.817527 231.509174 
L 339.021305 217.063072 
L 339.299183 191.495318 
L 339.336233 192.062369 
L 339.669687 210.524637 
L 339.743788 206.953484 
L 339.85494 182.716562 
L 340.003141 151.658205 
L 340.040192 152.362021 
L 340.225444 176.088177 
L 340.595949 208.650952 
L 340.67005 210.291084 
L 340.74415 209.874476 
L 340.799726 211.235291 
L 340.910877 223.454748 
L 341.13318 253.397941 
L 341.151705 252.59576 
L 341.244331 241.301573 
L 341.577786 192.415328 
L 341.614836 193.093369 
L 341.763038 204.40807 
L 342.170593 237.044488 
L 342.207643 237.234382 
L 342.226168 237.131282 
L 342.300269 233.9578 
L 342.522572 204.839407 
L 342.726349 193.696714 
L 342.80045 191.538452 
L 342.856026 192.35694 
L 342.985703 199.121038 
L 343.15243 230.172556 
L 343.300631 244.033723 
L 343.319157 244.030567 
L 343.356207 243.327278 
L 343.467358 234.642153 
L 343.61556 203.633768 
L 343.837863 166.086422 
L 343.911964 165.368404 
L 343.949014 165.891795 
L 344.134266 180.027545 
L 344.541821 224.707729 
L 344.671498 227.616622 
L 344.708548 226.673468 
L 344.930851 211.038033 
L 345.134628 205.636854 
L 345.319881 204.003561 
L 345.338406 203.987254 
L 345.393982 202.074117 
L 345.505133 188.45755 
L 345.838587 140.654382 
L 345.894163 143.944114 
L 346.042364 174.9404 
L 346.227617 193.884504 
L 346.264667 194.517306 
L 346.320243 193.612025 
L 346.394344 188.652703 
L 346.820424 137.053245 
L 346.894525 140.237773 
L 347.098302 166.251593 
L 347.320605 185.812719 
L 347.33913 185.672797 
L 347.450281 182.40884 
L 347.505857 183.728099 
L 347.635534 199.965827 
L 347.950462 244.526079 
L 347.968988 244.530813 
L 348.117189 240.458888 
L 348.302442 222.496339 
L 348.395068 217.374477 
L 348.450643 217.901023 
L 348.506219 217.093056 
L 348.635896 215.643343 
L 348.672946 216.32717 
L 349.136077 232.724808 
L 349.154602 232.821596 
L 349.191652 232.621182 
L 349.247228 231.608592 
L 349.376905 219.515906 
L 349.728884 165.45362 
L 349.802985 170.293009 
L 350.266115 232.792138 
L 350.303166 231.831625 
L 350.395792 220.85305 
L 350.729246 185.825343 
L 351.007124 166.663993 
L 351.0627 167.492475 
L 351.136801 174.172936 
L 351.618457 238.322718 
L 351.674032 236.282811 
L 351.785184 224.356873 
L 352.155688 162.909784 
L 352.211264 165.191136 
L 352.433567 195.997528 
L 352.748495 223.966566 
L 352.785546 223.234871 
L 352.896697 207.250159 
L 353.119 182.603467 
L 353.285727 171.140954 
L 353.50803 146.626293 
L 353.54508 147.796162 
L 353.730332 171.936297 
L 354.137887 226.405197 
L 354.174938 226.884402 
L 354.211988 226.390995 
L 354.267564 222.011874 
L 354.36019 184.626016 
L 354.526917 152.061663 
L 354.582493 150.35683 
L 354.619543 151.375732 
L 354.74922 168.699692 
L 354.971522 185.983149 
L 355.027098 186.764816 
L 355.064148 185.90372 
L 355.1753 177.104449 
L 355.490229 125.723815 
L 355.582855 131.632603 
L 356.083036 178.450535 
L 356.342389 197.706569 
L 356.527641 237.902428 
L 356.638792 250.414352 
L 356.675843 249.152429 
L 356.786994 235.311251 
L 357.361276 150.159573 
L 357.416852 147.83614 
L 357.472427 149.097011 
L 357.602104 162.350625 
L 357.972608 216.470773 
L 358.046709 211.718704 
L 358.583941 147.973431 
L 358.658042 152.759166 
L 359.047071 207.42585 
L 359.195273 229.661264 
L 359.232324 228.602911 
L 359.380525 210.173256 
L 359.806606 157.878924 
L 359.936282 148.280627 
L 360.473514 104.857632 
L 360.510564 105.904939 
L 360.60319 119.124361 
L 360.973695 177.431633 
L 361.288624 200.56023 
L 361.344199 198.957972 
L 361.436825 181.746054 
L 361.696178 128.836278 
L 361.992582 113.880988 
L 362.048158 116.055557 
L 362.140784 131.613141 
L 362.381612 177.384818 
L 362.400137 177.601012 
L 362.418662 177.367985 
L 362.511288 170.936332 
L 362.937368 125.244084 
L 363.011469 127.042022 
L 363.159671 144.108232 
L 363.400499 194.478907 
L 363.437549 193.296939 
L 363.604276 178.034979 
L 364.030357 134.017055 
L 364.252659 117.511056 
L 364.419386 106.271049 
L 364.437912 106.426751 
L 364.567588 112.794756 
L 364.75284 137.418303 
L 365.086294 184.168378 
L 365.160395 184.507136 
L 365.197446 184.235183 
L 365.345648 177.533681 
L 365.697627 146.405364 
L 365.734677 146.668374 
L 365.827303 150.560926 
L 366.086656 170.88899 
L 366.160757 167.383063 
L 366.531262 141.048371 
L 366.586838 143.671109 
L 366.80914 166.649264 
L 367.087019 200.635977 
L 367.142594 198.224173 
L 367.253746 178.291151 
L 367.476048 133.218029 
L 367.494573 133.853462 
L 367.642775 150.199024 
L 367.846553 164.585686 
L 367.865078 164.47943 
L 367.902128 164.736128 
L 367.994755 165.927038 
L 368.087381 171.278771 
L 368.198532 177.832987 
L 368.235582 176.875104 
L 368.383784 160.17816 
L 368.717238 112.793704 
L 368.735763 112.854196 
L 368.846915 123.405116 
L 369.032167 155.266706 
L 369.235944 182.097435 
L 369.328571 183.851714 
L 369.365621 183.391972 
L 369.439722 182.548235 
L 369.476772 183.045324 
L 369.643499 188.767376 
L 369.68055 187.467053 
L 369.773176 176.052408 
L 370.032529 135.007025 
L 370.06958 135.732408 
L 370.162206 150.315275 
L 370.403034 202.009417 
L 370.421559 201.659613 
L 370.606811 186.791117 
L 371.014366 131.932435 
L 371.032891 131.959788 
L 371.106992 133.747732 
L 371.273719 146.431665 
L 371.551597 203.578536 
L 371.644224 197.573486 
L 372.366707 128.580632 
L 372.496384 120.185345 
L 372.737212 91.258949 
L 372.792787 93.991626 
L 373.070666 136.208982 
L 373.367069 180.109078 
L 373.515271 184.641797 
L 373.552322 183.997422 
L 373.644948 173.098802 
L 373.996927 128.944113 
L 374.108078 126.454457 
L 374.145129 126.874748 
L 374.25628 137.146351 
L 374.64531 184.113672 
L 374.68236 183.658138 
L 374.812037 172.893654 
L 375.219592 120.493067 
L 375.293693 127.423387 
L 375.590096 188.835233 
L 375.682722 185.947906 
L 375.830924 167.649229 
L 376.145853 131.448496 
L 376.219954 129.740508 
L 376.257004 130.261268 
L 376.331105 138.623416 
L 376.571933 195.416801 
L 376.646034 192.963968 
L 376.960963 161.874576 
L 377.146215 150.135902 
L 377.16474 150.44152 
L 377.275892 156.364511 
L 377.479669 166.660837 
L 377.516719 166.062752 
L 377.776073 155.427668 
L 378.294779 127.831579 
L 378.350355 129.192394 
L 378.480031 143.488054 
L 378.924636 201.223542 
L 379.017263 203.917293 
L 379.054313 203.327624 
L 379.128414 196.333129 
L 379.64712 108.284656 
L 379.684171 107.283113 
L 379.721221 107.996397 
L 379.813847 120.452563 
L 380.239927 190.485359 
L 380.276978 190.778878 
L 380.295503 190.137133 
L 380.388129 181.760256 
L 380.666008 149.929702 
L 380.684533 149.937592 
L 380.758634 155.30721 
L 380.88831 188.084601 
L 381.036512 212.586112 
L 381.055037 212.493532 
L 381.147663 209.062826 
L 381.27734 191.577904 
L 381.555218 158.425985 
L 381.70342 153.851185 
L 381.721945 154.164693 
L 381.777521 157.499663 
L 381.907198 187.465475 
L 382.110975 216.441316 
L 382.203601 215.361396 
L 382.444429 197.107957 
L 382.666732 152.205793 
L 382.870509 127.377097 
L 382.926085 128.948847 
L 383.463316 167.589789 
L 383.79677 214.890082 
L 383.833821 215.146254 
L 383.852346 214.783825 
L 383.982023 207.009768 
L 384.111699 194.351084 
L 384.408103 156.633307 
L 384.445153 157.821062 
L 384.519254 168.655507 
L 384.778607 215.799571 
L 384.852708 216.602805 
L 384.889759 215.88426 
L 385.093536 201.585444 
L 385.352889 170.294587 
L 385.723394 113.998291 
L 385.760444 116.153923 
L 385.871595 149.241141 
L 386.075373 183.288346 
L 386.575554 227.86017 
L 386.723756 241.880721 
L 386.760806 241.08117 
L 386.871957 231.279303 
L 387.223937 165.197974 
L 387.316563 173.755802 
L 387.612966 203.085129 
L 387.668542 203.73792 
L 387.761168 210.409965 
L 387.87232 230.447665 
L 388.057572 268.154921 
L 388.094622 267.130233 
L 388.205774 255.622482 
L 389.020883 157.228237 
L 389.076459 156.248786 
L 389.132035 156.990475 
L 389.15056 157.019407 
L 389.18761 156.703794 
L 389.243186 156.991001 
L 389.298762 157.436541 
L 389.446964 164.253241 
L 389.706317 190.832532 
L 389.854518 233.738449 
L 390.021245 253.361645 
L 390.039771 252.774081 
L 390.150922 241.225826 
L 390.484376 195.868127 
L 390.558477 199.848524 
L 390.78078 218.511207 
L 390.81783 217.292417 
L 390.947507 195.579342 
L 391.132759 161.875628 
L 391.169809 163.130713 
L 391.262435 166.924373 
L 391.318011 166.141129 
L 391.540314 157.886814 
L 391.59589 158.936751 
L 391.707041 162.29434 
L 391.799667 175.028772 
L 392.077545 221.450084 
L 392.244272 223.269063 
L 392.299848 222.216496 
L 392.373949 214.627597 
L 392.651827 159.618474 
L 392.744453 163.183315 
L 392.87413 178.250647 
L 393.096433 202.987289 
L 393.114958 202.803182 
L 393.226109 200.445032 
L 393.281685 201.076256 
L 393.429887 207.531054 
L 393.541038 212.89173 
L 393.596614 211.550377 
L 393.68924 203.164558 
L 393.985643 140.072077 
L 394.078269 147.601009 
L 394.430249 190.672096 
L 394.652551 215.14415 
L 394.856329 258.324123 
L 394.986005 274.493468 
L 395.023056 272.039057 
L 395.134207 241.041719 
L 395.337985 206.873003 
L 395.856691 164.58253 
L 395.912267 163.519442 
L 395.967842 163.821904 
L 396.041943 168.482972 
L 396.227195 199.427708 
L 396.449498 220.927745 
L 396.5977 229.524499 
L 396.912629 270.106457 
L 396.98673 265.209732 
L 397.542486 185.319311 
L 397.635112 183.819627 
L 397.672163 184.334601 
L 397.764789 190.374895 
L 398.042667 224.006018 
L 398.116768 221.270185 
L 398.22792 199.47242 
L 398.468748 164.926547 
L 398.487273 164.642496 
L 398.487273 164.642496 
" style="fill:none;stroke:#1f77b4;stroke-linecap:square;stroke-width:1.5;"/>
   </g>
   <g id="patch_3">
    <path d="M 57.6 307.584 
L 57.6 41.472 
" style="fill:none;stroke:#000000;stroke-linecap:square;stroke-linejoin:miter;stroke-width:0.8;"/>
   </g>
   <g id="patch_4">
    <path d="M 414.72 307.584 
L 414.72 41.472 
" style="fill:none;stroke:#000000;stroke-linecap:square;stroke-linejoin:miter;stroke-width:0.8;"/>
   </g>
   <g id="patch_5">
    <path d="M 57.6 307.584 
L 414.72 307.584 
" style="fill:none;stroke:#000000;stroke-linecap:square;stroke-linejoin:miter;stroke-width:0.8;"/>
   </g>
   <g id="patch_6">
    <path d="M 57.6 41.472 
L 414.72 41.472 
" style="fill:none;stroke:#000000;stroke-linecap:square;stroke-linejoin:miter;stroke-width:0.8;"/>
   </g>
   <g id="text_16">
    <!-- $E_{tot}(t); C_v = 6.19 (KJ/K/kg)$ -->
    <defs>
     <path d="M 11.71875 51.703125 
L 22.015625 51.703125 
L 22.015625 39.3125 
L 11.71875 39.3125 
z
M 11.71875 12.40625 
L 22.015625 12.40625 
L 22.015625 4 
L 14.015625 -11.625 
L 7.71875 -11.625 
L 11.71875 4 
z
" id="DejaVuSans-59"/>
     <path d="M 69.484375 67.28125 
L 67.484375 56.890625 
Q 62.796875 61.625 57.546875 63.921875 
Q 52.296875 66.21875 46.1875 66.21875 
Q 37.84375 66.21875 31.515625 62.203125 
Q 25.203125 58.203125 20.609375 50 
Q 17.671875 44.734375 16.125 38.84375 
Q 14.59375 32.953125 14.59375 27 
Q 14.59375 17.046875 19.75 11.8125 
Q 24.90625 6.59375 34.71875 6.59375 
Q 41.5 6.59375 47.75 8.765625 
Q 54 10.9375 59.90625 15.28125 
L 57.625 3.609375 
Q 51.8125 1.125 45.875 -0.140625 
Q 39.9375 -1.421875 33.984375 -1.421875 
Q 19.96875 -1.421875 12.078125 6.1875 
Q 4.203125 13.8125 4.203125 27.390625 
Q 4.203125 36.078125 7.203125 44.46875 
Q 10.203125 52.875 15.828125 59.8125 
Q 21.78125 67.1875 29.421875 70.703125 
Q 37.0625 74.21875 47.21875 74.21875 
Q 53.46875 74.21875 59.0625 72.484375 
Q 64.65625 70.75 69.484375 67.28125 
z
" id="DejaVuSans-Oblique-67"/>
     <path d="M 7.171875 54.6875 
L 16.703125 54.6875 
L 24.703125 8.203125 
L 50.875 54.6875 
L 60.40625 54.6875 
L 29.296875 0 
L 17.1875 0 
z
" id="DejaVuSans-Oblique-118"/>
     <path d="M 10.59375 45.40625 
L 73.1875 45.40625 
L 73.1875 37.203125 
L 10.59375 37.203125 
z
M 10.59375 25.484375 
L 73.1875 25.484375 
L 73.1875 17.1875 
L 10.59375 17.1875 
z
" id="DejaVuSans-61"/>
     <path d="M 33.015625 40.375 
Q 26.375 40.375 22.484375 35.828125 
Q 18.609375 31.296875 18.609375 23.390625 
Q 18.609375 15.53125 22.484375 10.953125 
Q 26.375 6.390625 33.015625 6.390625 
Q 39.65625 6.390625 43.53125 10.953125 
Q 47.40625 15.53125 47.40625 23.390625 
Q 47.40625 31.296875 43.53125 35.828125 
Q 39.65625 40.375 33.015625 40.375 
z
M 52.59375 71.296875 
L 52.59375 62.3125 
Q 48.875 64.0625 45.09375 64.984375 
Q 41.3125 65.921875 37.59375 65.921875 
Q 27.828125 65.921875 22.671875 59.328125 
Q 17.53125 52.734375 16.796875 39.40625 
Q 19.671875 43.65625 24.015625 45.921875 
Q 28.375 48.1875 33.59375 48.1875 
Q 44.578125 48.1875 50.953125 41.515625 
Q 57.328125 34.859375 57.328125 23.390625 
Q 57.328125 12.15625 50.6875 5.359375 
Q 44.046875 -1.421875 33.015625 -1.421875 
Q 20.359375 -1.421875 13.671875 8.265625 
Q 6.984375 17.96875 6.984375 36.375 
Q 6.984375 53.65625 15.1875 63.9375 
Q 23.390625 74.21875 37.203125 74.21875 
Q 40.921875 74.21875 44.703125 73.484375 
Q 48.484375 72.75 52.59375 71.296875 
z
" id="DejaVuSans-54"/>
     <path d="M 10.984375 1.515625 
L 10.984375 10.5 
Q 14.703125 8.734375 18.5 7.8125 
Q 22.3125 6.890625 25.984375 6.890625 
Q 35.75 6.890625 40.890625 13.453125 
Q 46.046875 20.015625 46.78125 33.40625 
Q 43.953125 29.203125 39.59375 26.953125 
Q 35.25 24.703125 29.984375 24.703125 
Q 19.046875 24.703125 12.671875 31.3125 
Q 6.296875 37.9375 6.296875 49.421875 
Q 6.296875 60.640625 12.9375 67.421875 
Q 19.578125 74.21875 30.609375 74.21875 
Q 43.265625 74.21875 49.921875 64.515625 
Q 56.59375 54.828125 56.59375 36.375 
Q 56.59375 19.140625 48.40625 8.859375 
Q 40.234375 -1.421875 26.421875 -1.421875 
Q 22.703125 -1.421875 18.890625 -0.6875 
Q 15.09375 0.046875 10.984375 1.515625 
z
M 30.609375 32.421875 
Q 37.25 32.421875 41.125 36.953125 
Q 45.015625 41.5 45.015625 49.421875 
Q 45.015625 57.28125 41.125 61.84375 
Q 37.25 66.40625 30.609375 66.40625 
Q 23.96875 66.40625 20.09375 61.84375 
Q 16.21875 57.28125 16.21875 49.421875 
Q 16.21875 41.5 20.09375 36.953125 
Q 23.96875 32.421875 30.609375 32.421875 
z
" id="DejaVuSans-57"/>
     <path d="M 16.890625 72.90625 
L 26.8125 72.90625 
L 20.796875 42.1875 
L 59.078125 72.90625 
L 72.21875 72.90625 
L 28.90625 38.09375 
L 60.59375 0 
L 48.578125 0 
L 19.484375 35.5 
L 12.59375 0 
L 2.6875 0 
z
" id="DejaVuSans-Oblique-75"/>
     <path d="M 16.703125 72.90625 
L 26.609375 72.90625 
L 13.375 5.078125 
Q 10.796875 -8.15625 4.65625 -14.078125 
Q -1.46875 -20.015625 -12.5 -20.015625 
L -16.40625 -20.015625 
L -14.796875 -11.71875 
L -11.71875 -11.71875 
Q -5.125 -11.71875 -1.703125 -7.953125 
Q 1.703125 -4.203125 3.515625 5.078125 
z
" id="DejaVuSans-Oblique-74"/>
     <path d="M 18.3125 75.984375 
L 27.296875 75.984375 
L 18.703125 31.6875 
L 49.515625 54.6875 
L 61.1875 54.6875 
L 26.8125 28.515625 
L 51.90625 0 
L 41.015625 0 
L 17.671875 26.703125 
L 12.5 0 
L 3.515625 0 
z
" id="DejaVuSans-Oblique-107"/>
     <path d="M 59.625 54.6875 
L 50.296875 6.78125 
Q 47.609375 -7.125 40.015625 -13.953125 
Q 32.421875 -20.796875 19.578125 -20.796875 
Q 14.84375 -20.796875 10.78125 -20.09375 
Q 6.734375 -19.390625 3.21875 -17.921875 
L 4.890625 -9.1875 
Q 8.203125 -11.328125 11.90625 -12.34375 
Q 15.625 -13.375 19.828125 -13.375 
Q 28.375 -13.375 33.859375 -8.703125 
Q 39.359375 -4.046875 41.109375 4.6875 
L 41.890625 8.796875 
Q 38.140625 4.5 33.15625 2.25 
Q 28.171875 0 22.40625 0 
Q 14.109375 0 9.34375 5.484375 
Q 4.59375 10.984375 4.59375 20.609375 
Q 4.59375 28.171875 7.46875 35.421875 
Q 10.359375 42.671875 15.578125 48.296875 
Q 19.046875 52 23.65625 54 
Q 28.265625 56 33.296875 56 
Q 38.8125 56 42.90625 53.4375 
Q 47.015625 50.875 49.03125 46.1875 
L 50.59375 54.6875 
z
M 46.09375 34.625 
Q 46.09375 41.265625 42.96875 44.875 
Q 39.84375 48.484375 34.078125 48.484375 
Q 30.515625 48.484375 27.296875 47.0625 
Q 24.078125 45.65625 21.78125 43.109375 
Q 18.0625 38.921875 15.984375 33.234375 
Q 13.921875 27.546875 13.921875 21.484375 
Q 13.921875 14.75 17.0625 11.125 
Q 20.21875 7.515625 26.125 7.515625 
Q 34.671875 7.515625 40.375 15.25 
Q 46.09375 23 46.09375 34.625 
z
" id="DejaVuSans-Oblique-103"/>
    </defs>
    <g transform="translate(162.9 35.472)scale(0.12 -0.12)">
     <use transform="translate(0 0.015625)" xlink:href="#DejaVuSans-Oblique-69"/>
     <use transform="translate(63.183594 -16.390625)scale(0.7)" xlink:href="#DejaVuSans-Oblique-116"/>
     <use transform="translate(90.629883 -16.390625)scale(0.7)" xlink:href="#DejaVuSans-Oblique-111"/>
     <use transform="translate(133.457031 -16.390625)scale(0.7)" xlink:href="#DejaVuSans-Oblique-116"/>
     <use transform="translate(163.637695 0.015625)" xlink:href="#DejaVuSans-40"/>
     <use transform="translate(202.651367 0.015625)" xlink:href="#DejaVuSans-Oblique-116"/>
     <use transform="translate(241.860352 0.015625)" xlink:href="#DejaVuSans-41"/>
     <use transform="translate(280.874023 0.015625)" xlink:href="#DejaVuSans-59"/>
     <use transform="translate(334.047852 0.015625)" xlink:href="#DejaVuSans-Oblique-67"/>
     <use transform="translate(403.87207 -16.390625)scale(0.7)" xlink:href="#DejaVuSans-Oblique-118"/>
     <use transform="translate(467.514648 0.015625)" xlink:href="#DejaVuSans-61"/>
     <use transform="translate(570.786133 0.015625)" xlink:href="#DejaVuSans-54"/>
     <use transform="translate(634.40918 0.015625)" xlink:href="#DejaVuSans-46"/>
     <use transform="translate(666.196289 0.015625)" xlink:href="#DejaVuSans-49"/>
     <use transform="translate(729.819336 0.015625)" xlink:href="#DejaVuSans-57"/>
     <use transform="translate(793.442383 0.015625)" xlink:href="#DejaVuSans-40"/>
     <use transform="translate(832.456055 0.015625)" xlink:href="#DejaVuSans-Oblique-75"/>
     <use transform="translate(898.032227 0.015625)" xlink:href="#DejaVuSans-Oblique-74"/>
     <use transform="translate(927.524414 0.015625)" xlink:href="#DejaVuSans-47"/>
     <use transform="translate(961.21582 0.015625)" xlink:href="#DejaVuSans-Oblique-75"/>
     <use transform="translate(1026.791992 0.015625)" xlink:href="#DejaVuSans-47"/>
     <use transform="translate(1060.483398 0.015625)" xlink:href="#DejaVuSans-Oblique-107"/>
     <use transform="translate(1118.393555 0.015625)" xlink:href="#DejaVuSans-Oblique-103"/>
     <use transform="translate(1181.870117 0.015625)" xlink:href="#DejaVuSans-41"/>
    </g>
   </g>
  </g>
 </g>
 <defs>
  <clipPath id="pea9d055a39">
   <rect height="266.112" width="357.12" x="57.6" y="41.472"/>
  </clipPath>
 </defs>
</svg>
