<?xml version="1.0" encoding="utf-8" standalone="no"?>
<!DOCTYPE svg PUBLIC "-//W3C//DTD SVG 1.1//EN"
  "http://www.w3.org/Graphics/SVG/1.1/DTD/svg11.dtd">
<!-- Created with matplotlib (https://matplotlib.org/) -->
<svg height="345.6pt" version="1.1" viewBox="0 0 460.8 345.6" width="460.8pt" xmlns="http://www.w3.org/2000/svg" xmlns:xlink="http://www.w3.org/1999/xlink">
 <defs>
  <style type="text/css">
*{stroke-linecap:butt;stroke-linejoin:round;}
  </style>
 </defs>
 <g id="figure_1">
  <g id="patch_1">
   <path d="M 0 345.6 
L 460.8 345.6 
L 460.8 0 
L 0 0 
z
" style="fill:#ffffff;"/>
  </g>
  <g id="axes_1">
   <g id="patch_2">
    <path d="M 57.6 307.584 
L 414.72 307.584 
L 414.72 41.472 
L 57.6 41.472 
z
" style="fill:#ffffff;"/>
   </g>
   <g id="matplotlib.axis_1">
    <g id="xtick_1">
     <g id="line2d_1">
      <defs>
       <path d="M 0 0 
L 0 3.5 
" id="m0ecf8a63b9" style="stroke:#000000;stroke-width:0.8;"/>
      </defs>
      <g>
       <use style="stroke:#000000;stroke-width:0.8;" x="73.832727" xlink:href="#m0ecf8a63b9" y="307.584"/>
      </g>
     </g>
     <g id="text_1">
      <!-- 0 -->
      <defs>
       <path d="M 31.78125 66.40625 
Q 24.171875 66.40625 20.328125 58.90625 
Q 16.5 51.421875 16.5 36.375 
Q 16.5 21.390625 20.328125 13.890625 
Q 24.171875 6.390625 31.78125 6.390625 
Q 39.453125 6.390625 43.28125 13.890625 
Q 47.125 21.390625 47.125 36.375 
Q 47.125 51.421875 43.28125 58.90625 
Q 39.453125 66.40625 31.78125 66.40625 
z
M 31.78125 74.21875 
Q 44.046875 74.21875 50.515625 64.515625 
Q 56.984375 54.828125 56.984375 36.375 
Q 56.984375 17.96875 50.515625 8.265625 
Q 44.046875 -1.421875 31.78125 -1.421875 
Q 19.53125 -1.421875 13.0625 8.265625 
Q 6.59375 17.96875 6.59375 36.375 
Q 6.59375 54.828125 13.0625 64.515625 
Q 19.53125 74.21875 31.78125 74.21875 
z
" id="DejaVuSans-48"/>
      </defs>
      <g transform="translate(70.651477 322.182437)scale(0.1 -0.1)">
       <use xlink:href="#DejaVuSans-48"/>
      </g>
     </g>
    </g>
    <g id="xtick_2">
     <g id="line2d_2">
      <g>
       <use style="stroke:#000000;stroke-width:0.8;" x="120.145787" xlink:href="#m0ecf8a63b9" y="307.584"/>
      </g>
     </g>
     <g id="text_2">
      <!-- 25 -->
      <defs>
       <path d="M 19.1875 8.296875 
L 53.609375 8.296875 
L 53.609375 0 
L 7.328125 0 
L 7.328125 8.296875 
Q 12.9375 14.109375 22.625 23.890625 
Q 32.328125 33.6875 34.8125 36.53125 
Q 39.546875 41.84375 41.421875 45.53125 
Q 43.3125 49.21875 43.3125 52.78125 
Q 43.3125 58.59375 39.234375 62.25 
Q 35.15625 65.921875 28.609375 65.921875 
Q 23.96875 65.921875 18.8125 64.3125 
Q 13.671875 62.703125 7.8125 59.421875 
L 7.8125 69.390625 
Q 13.765625 71.78125 18.9375 73 
Q 24.125 74.21875 28.421875 74.21875 
Q 39.75 74.21875 46.484375 68.546875 
Q 53.21875 62.890625 53.21875 53.421875 
Q 53.21875 48.921875 51.53125 44.890625 
Q 49.859375 40.875 45.40625 35.40625 
Q 44.1875 33.984375 37.640625 27.21875 
Q 31.109375 20.453125 19.1875 8.296875 
z
" id="DejaVuSans-50"/>
       <path d="M 10.796875 72.90625 
L 49.515625 72.90625 
L 49.515625 64.59375 
L 19.828125 64.59375 
L 19.828125 46.734375 
Q 21.96875 47.46875 24.109375 47.828125 
Q 26.265625 48.1875 28.421875 48.1875 
Q 40.625 48.1875 47.75 41.5 
Q 54.890625 34.8125 54.890625 23.390625 
Q 54.890625 11.625 47.5625 5.09375 
Q 40.234375 -1.421875 26.90625 -1.421875 
Q 22.3125 -1.421875 17.546875 -0.640625 
Q 12.796875 0.140625 7.71875 1.703125 
L 7.71875 11.625 
Q 12.109375 9.234375 16.796875 8.0625 
Q 21.484375 6.890625 26.703125 6.890625 
Q 35.15625 6.890625 40.078125 11.328125 
Q 45.015625 15.765625 45.015625 23.390625 
Q 45.015625 31 40.078125 35.4375 
Q 35.15625 39.890625 26.703125 39.890625 
Q 22.75 39.890625 18.8125 39.015625 
Q 14.890625 38.140625 10.796875 36.28125 
z
" id="DejaVuSans-53"/>
      </defs>
      <g transform="translate(113.783287 322.182437)scale(0.1 -0.1)">
       <use xlink:href="#DejaVuSans-50"/>
       <use x="63.623047" xlink:href="#DejaVuSans-53"/>
      </g>
     </g>
    </g>
    <g id="xtick_3">
     <g id="line2d_3">
      <g>
       <use style="stroke:#000000;stroke-width:0.8;" x="166.458846" xlink:href="#m0ecf8a63b9" y="307.584"/>
      </g>
     </g>
     <g id="text_3">
      <!-- 50 -->
      <g transform="translate(160.096346 322.182437)scale(0.1 -0.1)">
       <use xlink:href="#DejaVuSans-53"/>
       <use x="63.623047" xlink:href="#DejaVuSans-48"/>
      </g>
     </g>
    </g>
    <g id="xtick_4">
     <g id="line2d_4">
      <g>
       <use style="stroke:#000000;stroke-width:0.8;" x="212.771905" xlink:href="#m0ecf8a63b9" y="307.584"/>
      </g>
     </g>
     <g id="text_4">
      <!-- 75 -->
      <defs>
       <path d="M 8.203125 72.90625 
L 55.078125 72.90625 
L 55.078125 68.703125 
L 28.609375 0 
L 18.3125 0 
L 43.21875 64.59375 
L 8.203125 64.59375 
z
" id="DejaVuSans-55"/>
      </defs>
      <g transform="translate(206.409405 322.182437)scale(0.1 -0.1)">
       <use xlink:href="#DejaVuSans-55"/>
       <use x="63.623047" xlink:href="#DejaVuSans-53"/>
      </g>
     </g>
    </g>
    <g id="xtick_5">
     <g id="line2d_5">
      <g>
       <use style="stroke:#000000;stroke-width:0.8;" x="259.084964" xlink:href="#m0ecf8a63b9" y="307.584"/>
      </g>
     </g>
     <g id="text_5">
      <!-- 100 -->
      <defs>
       <path d="M 12.40625 8.296875 
L 28.515625 8.296875 
L 28.515625 63.921875 
L 10.984375 60.40625 
L 10.984375 69.390625 
L 28.421875 72.90625 
L 38.28125 72.90625 
L 38.28125 8.296875 
L 54.390625 8.296875 
L 54.390625 0 
L 12.40625 0 
z
" id="DejaVuSans-49"/>
      </defs>
      <g transform="translate(249.541214 322.182437)scale(0.1 -0.1)">
       <use xlink:href="#DejaVuSans-49"/>
       <use x="63.623047" xlink:href="#DejaVuSans-48"/>
       <use x="127.246094" xlink:href="#DejaVuSans-48"/>
      </g>
     </g>
    </g>
    <g id="xtick_6">
     <g id="line2d_6">
      <g>
       <use style="stroke:#000000;stroke-width:0.8;" x="305.398024" xlink:href="#m0ecf8a63b9" y="307.584"/>
      </g>
     </g>
     <g id="text_6">
      <!-- 125 -->
      <g transform="translate(295.854274 322.182437)scale(0.1 -0.1)">
       <use xlink:href="#DejaVuSans-49"/>
       <use x="63.623047" xlink:href="#DejaVuSans-50"/>
       <use x="127.246094" xlink:href="#DejaVuSans-53"/>
      </g>
     </g>
    </g>
    <g id="xtick_7">
     <g id="line2d_7">
      <g>
       <use style="stroke:#000000;stroke-width:0.8;" x="351.711083" xlink:href="#m0ecf8a63b9" y="307.584"/>
      </g>
     </g>
     <g id="text_7">
      <!-- 150 -->
      <g transform="translate(342.167333 322.182437)scale(0.1 -0.1)">
       <use xlink:href="#DejaVuSans-49"/>
       <use x="63.623047" xlink:href="#DejaVuSans-53"/>
       <use x="127.246094" xlink:href="#DejaVuSans-48"/>
      </g>
     </g>
    </g>
    <g id="xtick_8">
     <g id="line2d_8">
      <g>
       <use style="stroke:#000000;stroke-width:0.8;" x="398.024142" xlink:href="#m0ecf8a63b9" y="307.584"/>
      </g>
     </g>
     <g id="text_8">
      <!-- 175 -->
      <g transform="translate(388.480392 322.182437)scale(0.1 -0.1)">
       <use xlink:href="#DejaVuSans-49"/>
       <use x="63.623047" xlink:href="#DejaVuSans-55"/>
       <use x="127.246094" xlink:href="#DejaVuSans-53"/>
      </g>
     </g>
    </g>
    <g id="text_9">
     <!-- $time (ps)$ -->
     <defs>
      <path d="M 42.28125 54.6875 
L 40.921875 47.703125 
L 23 47.703125 
L 17.1875 18.015625 
Q 16.890625 16.359375 16.75 15.234375 
Q 16.609375 14.109375 16.609375 13.484375 
Q 16.609375 10.359375 18.484375 8.9375 
Q 20.359375 7.515625 24.515625 7.515625 
L 33.59375 7.515625 
L 32.078125 0 
L 23.484375 0 
Q 15.484375 0 11.546875 3.125 
Q 7.625 6.25 7.625 12.59375 
Q 7.625 13.71875 7.765625 15.0625 
Q 7.90625 16.40625 8.203125 18.015625 
L 14.015625 47.703125 
L 6.390625 47.703125 
L 7.8125 54.6875 
L 15.28125 54.6875 
L 18.3125 70.21875 
L 27.296875 70.21875 
L 24.3125 54.6875 
z
" id="DejaVuSans-Oblique-116"/>
      <path d="M 18.3125 75.984375 
L 27.296875 75.984375 
L 25.09375 64.59375 
L 16.109375 64.59375 
z
M 14.203125 54.6875 
L 23.1875 54.6875 
L 12.5 0 
L 3.515625 0 
z
" id="DejaVuSans-Oblique-105"/>
      <path d="M 89.796875 33.015625 
L 83.40625 0 
L 74.421875 0 
L 80.71875 32.71875 
Q 81.109375 34.8125 81.296875 36.328125 
Q 81.5 37.84375 81.5 38.921875 
Q 81.5 43.3125 79.046875 45.75 
Q 76.609375 48.1875 72.21875 48.1875 
Q 65.671875 48.1875 60.546875 43.28125 
Q 55.421875 38.375 53.90625 30.515625 
L 47.90625 0 
L 38.921875 0 
L 45.3125 32.71875 
Q 45.703125 34.515625 45.890625 36.046875 
Q 46.09375 37.59375 46.09375 38.8125 
Q 46.09375 43.265625 43.65625 45.71875 
Q 41.21875 48.1875 36.921875 48.1875 
Q 30.28125 48.1875 25.140625 43.28125 
Q 20.015625 38.375 18.5 30.515625 
L 12.5 0 
L 3.515625 0 
L 14.203125 54.6875 
L 23.1875 54.6875 
L 21.484375 46.1875 
Q 25.140625 50.984375 30.046875 53.484375 
Q 34.96875 56 40.578125 56 
Q 46.53125 56 50.359375 52.875 
Q 54.203125 49.75 54.984375 44.1875 
Q 59.078125 49.953125 64.46875 52.96875 
Q 69.875 56 75.875 56 
Q 82.90625 56 86.734375 51.953125 
Q 90.578125 47.90625 90.578125 40.484375 
Q 90.578125 38.875 90.375 36.9375 
Q 90.1875 35.015625 89.796875 33.015625 
z
" id="DejaVuSans-Oblique-109"/>
      <path d="M 48.09375 32.234375 
Q 48.25 33.015625 48.3125 33.84375 
Q 48.390625 34.671875 48.390625 35.5 
Q 48.390625 41.453125 44.890625 44.921875 
Q 41.40625 48.390625 35.40625 48.390625 
Q 28.71875 48.390625 23.578125 44.15625 
Q 18.453125 39.9375 15.828125 32.171875 
z
M 55.90625 25.203125 
L 14.109375 25.203125 
Q 13.8125 23.34375 13.71875 22.265625 
Q 13.625 21.1875 13.625 20.40625 
Q 13.625 13.625 17.796875 9.90625 
Q 21.96875 6.203125 29.59375 6.203125 
Q 35.453125 6.203125 40.671875 7.515625 
Q 45.90625 8.84375 50.390625 11.375 
L 48.6875 2.484375 
Q 43.84375 0.53125 38.6875 -0.4375 
Q 33.546875 -1.421875 28.21875 -1.421875 
Q 16.84375 -1.421875 10.71875 4.015625 
Q 4.59375 9.46875 4.59375 19.484375 
Q 4.59375 28.03125 7.640625 35.375 
Q 10.6875 42.71875 16.609375 48.484375 
Q 20.40625 52.09375 25.65625 54.046875 
Q 30.90625 56 36.8125 56 
Q 46.09375 56 51.578125 50.4375 
Q 57.078125 44.875 57.078125 35.5 
Q 57.078125 33.25 56.78125 30.6875 
Q 56.5 28.125 55.90625 25.203125 
z
" id="DejaVuSans-Oblique-101"/>
      <path d="M 31 75.875 
Q 24.46875 64.65625 21.28125 53.65625 
Q 18.109375 42.671875 18.109375 31.390625 
Q 18.109375 20.125 21.3125 9.0625 
Q 24.515625 -2 31 -13.1875 
L 23.1875 -13.1875 
Q 15.875 -1.703125 12.234375 9.375 
Q 8.59375 20.453125 8.59375 31.390625 
Q 8.59375 42.28125 12.203125 53.3125 
Q 15.828125 64.359375 23.1875 75.875 
z
" id="DejaVuSans-40"/>
      <path d="M 49.609375 33.6875 
Q 49.609375 40.875 46.484375 44.671875 
Q 43.359375 48.484375 37.5 48.484375 
Q 33.5 48.484375 29.859375 46.4375 
Q 26.21875 44.390625 23.390625 40.484375 
Q 20.609375 36.625 18.9375 31.15625 
Q 17.28125 25.6875 17.28125 20.3125 
Q 17.28125 13.484375 20.40625 9.796875 
Q 23.53125 6.109375 29.296875 6.109375 
Q 33.546875 6.109375 37.1875 8.109375 
Q 40.828125 10.109375 43.40625 13.921875 
Q 46.1875 17.921875 47.890625 23.34375 
Q 49.609375 28.765625 49.609375 33.6875 
z
M 21.78125 46.390625 
Q 25.390625 51.125 30.296875 53.5625 
Q 35.203125 56 41.21875 56 
Q 49.609375 56 54.25 50.5 
Q 58.890625 45.015625 58.890625 35.109375 
Q 58.890625 27 56 19.65625 
Q 53.125 12.3125 47.703125 6.5 
Q 44.09375 2.640625 39.546875 0.609375 
Q 35.015625 -1.421875 29.984375 -1.421875 
Q 24.171875 -1.421875 20.21875 1 
Q 16.265625 3.421875 14.3125 8.203125 
L 8.6875 -20.796875 
L -0.296875 -20.796875 
L 14.40625 54.6875 
L 23.390625 54.6875 
z
" id="DejaVuSans-Oblique-112"/>
      <path d="M 50 53.078125 
L 48.296875 44.578125 
Q 44.734375 46.53125 40.765625 47.5 
Q 36.8125 48.484375 32.625 48.484375 
Q 25.53125 48.484375 21.453125 46.0625 
Q 17.390625 43.65625 17.390625 39.5 
Q 17.390625 34.671875 26.859375 32.078125 
Q 27.59375 31.890625 27.9375 31.78125 
L 30.8125 30.90625 
Q 39.796875 28.421875 42.796875 25.6875 
Q 45.796875 22.953125 45.796875 18.21875 
Q 45.796875 9.515625 38.890625 4.046875 
Q 31.984375 -1.421875 20.796875 -1.421875 
Q 16.453125 -1.421875 11.671875 -0.578125 
Q 6.890625 0.25 1.125 2 
L 2.875 11.28125 
Q 7.8125 8.734375 12.59375 7.421875 
Q 17.390625 6.109375 21.78125 6.109375 
Q 28.375 6.109375 32.5 8.9375 
Q 36.625 11.765625 36.625 16.109375 
Q 36.625 20.796875 25.78125 23.6875 
L 24.859375 23.921875 
L 21.78125 24.703125 
Q 14.9375 26.515625 11.765625 29.46875 
Q 8.59375 32.421875 8.59375 37.015625 
Q 8.59375 45.75 15.15625 50.875 
Q 21.734375 56 33.015625 56 
Q 37.453125 56 41.671875 55.265625 
Q 45.90625 54.546875 50 53.078125 
z
" id="DejaVuSans-Oblique-115"/>
      <path d="M 8.015625 75.875 
L 15.828125 75.875 
Q 23.140625 64.359375 26.78125 53.3125 
Q 30.421875 42.28125 30.421875 31.390625 
Q 30.421875 20.453125 26.78125 9.375 
Q 23.140625 -1.703125 15.828125 -13.1875 
L 8.015625 -13.1875 
Q 14.5 -2 17.703125 9.0625 
Q 20.90625 20.125 20.90625 31.390625 
Q 20.90625 42.671875 17.703125 53.65625 
Q 14.5 64.65625 8.015625 75.875 
z
" id="DejaVuSans-41"/>
     </defs>
     <g transform="translate(215.16 335.862125)scale(0.1 -0.1)">
      <use transform="translate(0 0.015625)" xlink:href="#DejaVuSans-Oblique-116"/>
      <use transform="translate(39.208984 0.015625)" xlink:href="#DejaVuSans-Oblique-105"/>
      <use transform="translate(66.992188 0.015625)" xlink:href="#DejaVuSans-Oblique-109"/>
      <use transform="translate(164.404297 0.015625)" xlink:href="#DejaVuSans-Oblique-101"/>
      <use transform="translate(225.927734 0.015625)" xlink:href="#DejaVuSans-40"/>
      <use transform="translate(264.941406 0.015625)" xlink:href="#DejaVuSans-Oblique-112"/>
      <use transform="translate(328.417969 0.015625)" xlink:href="#DejaVuSans-Oblique-115"/>
      <use transform="translate(380.517578 0.015625)" xlink:href="#DejaVuSans-41"/>
     </g>
    </g>
   </g>
   <g id="matplotlib.axis_2">
    <g id="ytick_1">
     <g id="line2d_9">
      <defs>
       <path d="M 0 0 
L -3.5 0 
" id="m2724fc9bc8" style="stroke:#000000;stroke-width:0.8;"/>
      </defs>
      <g>
       <use style="stroke:#000000;stroke-width:0.8;" x="57.6" xlink:href="#m2724fc9bc8" y="289.811574"/>
      </g>
     </g>
     <g id="text_10">
      <!-- 1.00 -->
      <defs>
       <path d="M 10.6875 12.40625 
L 21 12.40625 
L 21 0 
L 10.6875 0 
z
" id="DejaVuSans-46"/>
      </defs>
      <g transform="translate(28.334375 293.610793)scale(0.1 -0.1)">
       <use xlink:href="#DejaVuSans-49"/>
       <use x="63.623047" xlink:href="#DejaVuSans-46"/>
       <use x="95.410156" xlink:href="#DejaVuSans-48"/>
       <use x="159.033203" xlink:href="#DejaVuSans-48"/>
      </g>
     </g>
    </g>
    <g id="ytick_2">
     <g id="line2d_10">
      <g>
       <use style="stroke:#000000;stroke-width:0.8;" x="57.6" xlink:href="#m2724fc9bc8" y="245.687876"/>
      </g>
     </g>
     <g id="text_11">
      <!-- 1.01 -->
      <g transform="translate(28.334375 249.487095)scale(0.1 -0.1)">
       <use xlink:href="#DejaVuSans-49"/>
       <use x="63.623047" xlink:href="#DejaVuSans-46"/>
       <use x="95.410156" xlink:href="#DejaVuSans-48"/>
       <use x="159.033203" xlink:href="#DejaVuSans-49"/>
      </g>
     </g>
    </g>
    <g id="ytick_3">
     <g id="line2d_11">
      <g>
       <use style="stroke:#000000;stroke-width:0.8;" x="57.6" xlink:href="#m2724fc9bc8" y="201.564178"/>
      </g>
     </g>
     <g id="text_12">
      <!-- 1.02 -->
      <g transform="translate(28.334375 205.363397)scale(0.1 -0.1)">
       <use xlink:href="#DejaVuSans-49"/>
       <use x="63.623047" xlink:href="#DejaVuSans-46"/>
       <use x="95.410156" xlink:href="#DejaVuSans-48"/>
       <use x="159.033203" xlink:href="#DejaVuSans-50"/>
      </g>
     </g>
    </g>
    <g id="ytick_4">
     <g id="line2d_12">
      <g>
       <use style="stroke:#000000;stroke-width:0.8;" x="57.6" xlink:href="#m2724fc9bc8" y="157.44048"/>
      </g>
     </g>
     <g id="text_13">
      <!-- 1.03 -->
      <defs>
       <path d="M 40.578125 39.3125 
Q 47.65625 37.796875 51.625 33 
Q 55.609375 28.21875 55.609375 21.1875 
Q 55.609375 10.40625 48.1875 4.484375 
Q 40.765625 -1.421875 27.09375 -1.421875 
Q 22.515625 -1.421875 17.65625 -0.515625 
Q 12.796875 0.390625 7.625 2.203125 
L 7.625 11.71875 
Q 11.71875 9.328125 16.59375 8.109375 
Q 21.484375 6.890625 26.8125 6.890625 
Q 36.078125 6.890625 40.9375 10.546875 
Q 45.796875 14.203125 45.796875 21.1875 
Q 45.796875 27.640625 41.28125 31.265625 
Q 36.765625 34.90625 28.71875 34.90625 
L 20.21875 34.90625 
L 20.21875 43.015625 
L 29.109375 43.015625 
Q 36.375 43.015625 40.234375 45.921875 
Q 44.09375 48.828125 44.09375 54.296875 
Q 44.09375 59.90625 40.109375 62.90625 
Q 36.140625 65.921875 28.71875 65.921875 
Q 24.65625 65.921875 20.015625 65.03125 
Q 15.375 64.15625 9.8125 62.3125 
L 9.8125 71.09375 
Q 15.4375 72.65625 20.34375 73.4375 
Q 25.25 74.21875 29.59375 74.21875 
Q 40.828125 74.21875 47.359375 69.109375 
Q 53.90625 64.015625 53.90625 55.328125 
Q 53.90625 49.265625 50.4375 45.09375 
Q 46.96875 40.921875 40.578125 39.3125 
z
" id="DejaVuSans-51"/>
      </defs>
      <g transform="translate(28.334375 161.239699)scale(0.1 -0.1)">
       <use xlink:href="#DejaVuSans-49"/>
       <use x="63.623047" xlink:href="#DejaVuSans-46"/>
       <use x="95.410156" xlink:href="#DejaVuSans-48"/>
       <use x="159.033203" xlink:href="#DejaVuSans-51"/>
      </g>
     </g>
    </g>
    <g id="ytick_5">
     <g id="line2d_13">
      <g>
       <use style="stroke:#000000;stroke-width:0.8;" x="57.6" xlink:href="#m2724fc9bc8" y="113.316782"/>
      </g>
     </g>
     <g id="text_14">
      <!-- 1.04 -->
      <defs>
       <path d="M 37.796875 64.3125 
L 12.890625 25.390625 
L 37.796875 25.390625 
z
M 35.203125 72.90625 
L 47.609375 72.90625 
L 47.609375 25.390625 
L 58.015625 25.390625 
L 58.015625 17.1875 
L 47.609375 17.1875 
L 47.609375 0 
L 37.796875 0 
L 37.796875 17.1875 
L 4.890625 17.1875 
L 4.890625 26.703125 
z
" id="DejaVuSans-52"/>
      </defs>
      <g transform="translate(28.334375 117.116001)scale(0.1 -0.1)">
       <use xlink:href="#DejaVuSans-49"/>
       <use x="63.623047" xlink:href="#DejaVuSans-46"/>
       <use x="95.410156" xlink:href="#DejaVuSans-48"/>
       <use x="159.033203" xlink:href="#DejaVuSans-52"/>
      </g>
     </g>
    </g>
    <g id="ytick_6">
     <g id="line2d_14">
      <g>
       <use style="stroke:#000000;stroke-width:0.8;" x="57.6" xlink:href="#m2724fc9bc8" y="69.193084"/>
      </g>
     </g>
     <g id="text_15">
      <!-- 1.05 -->
      <g transform="translate(28.334375 72.992303)scale(0.1 -0.1)">
       <use xlink:href="#DejaVuSans-49"/>
       <use x="63.623047" xlink:href="#DejaVuSans-46"/>
       <use x="95.410156" xlink:href="#DejaVuSans-48"/>
       <use x="159.033203" xlink:href="#DejaVuSans-53"/>
      </g>
     </g>
    </g>
    <g id="text_16">
     <!-- $\rho (g/cm^3)$ -->
     <defs>
      <path d="M 18.796875 44.921875 
Q 22.703125 49.90625 30.953125 54.296875 
Q 34.1875 56 43.0625 56 
Q 53.03125 56 57.71875 48.09375 
Q 62.40625 40.1875 59.90625 27.296875 
Q 57.375 14.40625 49.609375 6.484375 
Q 41.84375 -1.421875 31.890625 -1.421875 
Q 25.875 -1.421875 22.015625 0.984375 
Q 18.171875 3.328125 16.3125 8.203125 
L 10.640625 -20.796875 
L 1.609375 -20.796875 
L 10.890625 26.8125 
Q 13.09375 38.09375 18.796875 44.921875 
z
M 50.59375 27.296875 
Q 52.484375 37.203125 49.515625 42.875 
Q 46.53125 48.484375 39.40625 48.484375 
Q 32.28125 48.484375 27.09375 42.875 
Q 21.921875 37.203125 20.015625 27.296875 
Q 18.0625 17.390625 21.046875 11.71875 
Q 24.03125 6.109375 31.15625 6.109375 
Q 38.28125 6.109375 43.453125 11.71875 
Q 48.640625 17.390625 50.59375 27.296875 
z
" id="DejaVuSans-Oblique-961"/>
      <path d="M 59.625 54.6875 
L 50.296875 6.78125 
Q 47.609375 -7.125 40.015625 -13.953125 
Q 32.421875 -20.796875 19.578125 -20.796875 
Q 14.84375 -20.796875 10.78125 -20.09375 
Q 6.734375 -19.390625 3.21875 -17.921875 
L 4.890625 -9.1875 
Q 8.203125 -11.328125 11.90625 -12.34375 
Q 15.625 -13.375 19.828125 -13.375 
Q 28.375 -13.375 33.859375 -8.703125 
Q 39.359375 -4.046875 41.109375 4.6875 
L 41.890625 8.796875 
Q 38.140625 4.5 33.15625 2.25 
Q 28.171875 0 22.40625 0 
Q 14.109375 0 9.34375 5.484375 
Q 4.59375 10.984375 4.59375 20.609375 
Q 4.59375 28.171875 7.46875 35.421875 
Q 10.359375 42.671875 15.578125 48.296875 
Q 19.046875 52 23.65625 54 
Q 28.265625 56 33.296875 56 
Q 38.8125 56 42.90625 53.4375 
Q 47.015625 50.875 49.03125 46.1875 
L 50.59375 54.6875 
z
M 46.09375 34.625 
Q 46.09375 41.265625 42.96875 44.875 
Q 39.84375 48.484375 34.078125 48.484375 
Q 30.515625 48.484375 27.296875 47.0625 
Q 24.078125 45.65625 21.78125 43.109375 
Q 18.0625 38.921875 15.984375 33.234375 
Q 13.921875 27.546875 13.921875 21.484375 
Q 13.921875 14.75 17.0625 11.125 
Q 20.21875 7.515625 26.125 7.515625 
Q 34.671875 7.515625 40.375 15.25 
Q 46.09375 23 46.09375 34.625 
z
" id="DejaVuSans-Oblique-103"/>
      <path d="M 25.390625 72.90625 
L 33.6875 72.90625 
L 8.296875 -9.28125 
L 0 -9.28125 
z
" id="DejaVuSans-47"/>
      <path d="M 53.609375 52.59375 
L 51.8125 43.703125 
Q 48.578125 46.046875 44.9375 47.21875 
Q 41.3125 48.390625 37.40625 48.390625 
Q 33.109375 48.390625 29.21875 46.875 
Q 25.34375 45.359375 22.703125 42.578125 
Q 18.5 38.328125 16.203125 32.609375 
Q 13.921875 26.90625 13.921875 20.796875 
Q 13.921875 13.421875 17.609375 9.8125 
Q 21.296875 6.203125 28.8125 6.203125 
Q 32.515625 6.203125 36.6875 7.328125 
Q 40.875 8.453125 45.40625 10.6875 
L 43.703125 1.8125 
Q 39.796875 0.203125 35.671875 -0.609375 
Q 31.546875 -1.421875 27.203125 -1.421875 
Q 16.3125 -1.421875 10.453125 4.015625 
Q 4.59375 9.46875 4.59375 19.578125 
Q 4.59375 28.078125 7.640625 35.234375 
Q 10.6875 42.390625 16.703125 48.09375 
Q 20.796875 52 26.3125 54 
Q 31.84375 56 38.375 56 
Q 42.1875 56 45.9375 55.140625 
Q 49.703125 54.296875 53.609375 52.59375 
z
" id="DejaVuSans-Oblique-99"/>
     </defs>
     <g transform="translate(22.234375 196.678)rotate(-90)scale(0.1 -0.1)">
      <use transform="translate(0 0.765625)" xlink:href="#DejaVuSans-Oblique-961"/>
      <use transform="translate(63.476562 0.765625)" xlink:href="#DejaVuSans-40"/>
      <use transform="translate(102.490234 0.765625)" xlink:href="#DejaVuSans-Oblique-103"/>
      <use transform="translate(165.966797 0.765625)" xlink:href="#DejaVuSans-47"/>
      <use transform="translate(199.658203 0.765625)" xlink:href="#DejaVuSans-Oblique-99"/>
      <use transform="translate(254.638672 0.765625)" xlink:href="#DejaVuSans-Oblique-109"/>
      <use transform="translate(356.700677 39.046875)scale(0.7)" xlink:href="#DejaVuSans-51"/>
      <use transform="translate(403.971185 0.765625)" xlink:href="#DejaVuSans-41"/>
     </g>
    </g>
   </g>
   <g id="line2d_15">
    <path clip-path="url(#pe608b3c224)" d="M 73.832727 98.544609 
L 73.888303 99.460617 
L 74.221757 111.887174 
L 74.629312 146.157168 
L 74.721938 143.712274 
L 74.833089 139.681133 
L 74.888665 140.533162 
L 74.999816 142.120291 
L 75.036867 141.92747 
L 75.259169 139.063842 
L 75.29622 139.545673 
L 75.407371 146.886533 
L 75.666724 161.470739 
L 75.740825 162.268495 
L 75.777876 161.915064 
L 75.926078 158.103659 
L 76.000178 158.735511 
L 76.037229 158.900092 
L 76.055754 158.694034 
L 76.166905 155.152225 
L 76.389208 138.311533 
L 76.648561 117.786513 
L 76.685612 118.055226 
L 76.778238 122.569963 
L 77.056116 136.616301 
L 77.111692 136.106672 
L 77.315469 132.707382 
L 77.371045 133.276578 
L 77.500722 136.245662 
L 77.556297 135.486293 
L 77.704499 132.104211 
L 77.741549 132.792982 
L 77.871226 142.232806 
L 78.260256 175.72137 
L 78.278781 175.599147 
L 78.371407 169.770848 
L 78.538134 158.759338 
L 78.575185 159.242933 
L 78.704861 165.850898 
L 78.964214 177.778416 
L 79.001265 178.081105 
L 79.038315 177.792536 
L 79.149466 173.2425 
L 79.40882 162.731353 
L 79.427345 162.765769 
L 79.501446 165.12374 
L 79.946051 192.915051 
L 80.057202 191.522066 
L 80.168354 190.615324 
L 80.205404 190.866388 
L 80.29803 194.255529 
L 80.446232 212.246526 
L 80.761161 247.072037 
L 80.779686 247.275888 
L 80.816737 246.96614 
L 80.909363 242.505234 
L 81.817099 184.340051 
L 81.92825 182.740126 
L 81.9653 183.151359 
L 82.187603 188.644318 
L 82.224654 188.360603 
L 82.446956 181.946782 
L 82.687784 177.593979 
L 82.761885 176.80946 
L 82.798936 177.093617 
L 82.910087 181.109314 
L 83.187965 194.40202 
L 83.243541 193.529694 
L 83.465844 189.158359 
L 83.502894 189.345444 
L 83.725197 193.971814 
L 83.799298 192.896078 
L 84.040126 187.361201 
L 84.095701 187.379733 
L 84.132752 187.296339 
L 84.188327 186.824216 
L 84.225378 187.239861 
L 84.521781 196.954576 
L 84.595882 195.862514 
L 84.873761 184.035157 
L 84.947861 185.598018 
L 85.077538 195.09785 
L 85.466568 224.021817 
L 85.65182 225.712637 
L 85.670345 225.563058 
L 85.855597 220.113781 
L 86.04085 209.758831 
L 86.355778 195.043578 
L 86.50398 193.254362 
L 86.522506 193.392469 
L 86.615132 197.385223 
L 86.781859 202.044685 
L 86.800384 202.005856 
L 86.874485 201.449898 
L 87.022687 198.427425 
L 87.078262 199.536253 
L 87.226464 207.798416 
L 87.430241 232.169258 
L 87.596968 243.055015 
L 87.615494 242.8569 
L 87.689595 239.765152 
L 87.856322 219.244103 
L 88.226826 178.172441 
L 88.300927 176.68106 
L 88.356503 177.236577 
L 88.486179 183.617747 
L 88.782583 204.057608 
L 89.116037 234.242189 
L 89.208663 236.879463 
L 89.264239 236.562654 
L 89.301289 236.238345 
L 89.356865 236.587364 
L 89.616218 238.678827 
L 89.634743 238.598081 
L 89.708844 236.53971 
L 89.968197 218.87567 
L 90.246075 192.153476 
L 90.283126 192.675018 
L 90.449853 203.888173 
L 90.65363 212.266381 
L 90.783307 215.795836 
L 91.061185 231.095728 
L 91.283488 253.394521 
L 91.709568 295.488 
L 91.728093 295.36591 
L 91.802194 292.195401 
L 91.987447 267.146554 
L 92.357951 224.093739 
L 92.413527 225.575854 
L 92.67288 242.398896 
L 92.784031 240.69528 
L 92.821082 240.564233 
L 92.876657 240.738962 
L 92.987809 243.043984 
L 93.173061 246.938342 
L 93.210111 246.228392 
L 93.358313 235.457797 
L 93.747343 211.760724 
L 93.802918 211.67733 
L 93.858494 210.170947 
L 94.080797 200.967185 
L 94.117847 201.199275 
L 94.210473 204.562384 
L 94.34015 218.0232 
L 94.580978 238.114044 
L 94.618028 238.590138 
L 94.673604 237.982555 
L 94.803281 235.107896 
L 94.877381 235.45515 
L 95.007058 237.110229 
L 95.173785 247.053946 
L 95.396088 255.925016 
L 95.414613 255.698661 
L 95.507239 251.615454 
L 96.00742 213.495667 
L 96.118571 215.883642 
L 96.285298 218.606957 
L 96.322349 218.396045 
L 96.39645 215.476822 
L 96.804005 183.476551 
L 96.896631 186.33356 
L 97.341236 224.219932 
L 97.67469 248.584156 
L 97.693215 248.308383 
L 97.804367 242.582451 
L 98.06372 208.894007 
L 98.323073 176.597666 
L 98.360123 177.15539 
L 98.4898 186.218839 
L 98.952931 217.674623 
L 99.064082 219.600181 
L 99.101132 219.157179 
L 99.527213 207.417187 
L 99.971818 195.844423 
L 100.12002 191.977864 
L 100.268222 182.501858 
L 100.527575 168.436106 
L 100.564625 168.538473 
L 100.638726 169.905866 
L 100.805453 175.387353 
L 100.861029 174.46605 
L 101.231533 163.251571 
L 101.305634 163.712664 
L 101.39826 167.062094 
L 101.713189 184.692159 
L 101.750239 184.282249 
L 101.842866 178.111992 
L 102.25042 139.205479 
L 102.305996 141.10324 
L 103.102581 183.948233 
L 103.250783 190.829765 
L 103.528661 199.232241 
L 103.676863 200.998071 
L 103.88064 208.743986 
L 103.936216 207.771059 
L 104.139993 199.426385 
L 104.214094 201.238987 
L 104.436397 211.010621 
L 104.473447 210.284345 
L 104.584599 199.470509 
L 104.955103 154.968229 
L 104.992154 155.468151 
L 105.08478 160.477073 
L 105.473809 196.795289 
L 105.584961 195.640572 
L 105.844314 194.361426 
L 105.955465 189.589889 
L 106.140717 183.97559 
L 106.159243 184.137524 
L 106.233344 186.942026 
L 106.622373 212.1018 
L 106.696474 211.318604 
L 106.7891 208.198176 
L 106.974352 199.26048 
L 107.029928 199.986315 
L 107.141079 206.083769 
L 107.511584 230.184133 
L 107.530109 230.070735 
L 107.622735 227.339478 
L 107.845038 212.040909 
L 108.085866 196.722485 
L 108.789824 178.320255 
L 108.826875 178.50381 
L 108.863925 178.758845 
L 108.900976 178.461892 
L 108.993602 177.097588 
L 109.030652 177.691934 
L 109.66051 198.100909 
L 109.975439 211.840146 
L 110.04954 211.366258 
L 110.142166 210.545998 
L 110.179216 210.779854 
L 110.216267 210.996942 
L 110.253317 210.723817 
L 110.364468 205.063188 
L 111.086952 161.548838 
L 111.124003 161.788429 
L 111.253679 164.840024 
L 111.383356 174.94038 
L 111.568608 187.94231 
L 111.605658 187.773758 
L 111.902062 182.68806 
L 112.14289 166.58644 
L 112.254041 162.954177 
L 112.309617 163.151852 
L 112.346667 163.209212 
L 112.365193 163.148322 
L 112.439293 161.791959 
L 112.680121 151.08049 
L 112.809798 145.76535 
L 112.865374 146.609877 
L 112.976525 155.912035 
L 113.347029 189.609304 
L 113.38408 189.423543 
L 113.606383 186.31194 
L 113.680483 186.731115 
L 113.717534 186.998063 
L 113.754584 186.611981 
L 113.921311 181.424799 
L 114.069513 161.373225 
L 114.402967 124.136795 
L 114.477068 122.019299 
L 114.514119 122.723072 
L 114.62527 131.749898 
L 115.143976 188.319127 
L 115.236602 190.301604 
L 115.403329 194.765599 
L 115.458905 194.394519 
L 115.570056 191.319097 
L 115.736783 186.361358 
L 115.773834 186.830393 
L 115.959086 191.020821 
L 116.014662 190.457361 
L 116.533368 172.622562 
L 116.829771 153.950296 
L 117.441104 102.648996 
L 117.53373 106.151094 
L 117.700457 125.241211 
L 118.089487 175.886833 
L 118.108012 175.82506 
L 118.182113 173.105275 
L 118.38589 153.599953 
L 118.700819 128.898184 
L 118.793445 127.161916 
L 118.830496 127.461075 
L 118.941647 130.07408 
L 119.219525 143.513717 
L 119.349202 141.933648 
L 119.423303 143.580785 
L 119.59003 153.472877 
L 119.756757 159.606954 
L 119.775282 159.403102 
L 119.886433 154.555673 
L 120.108736 143.666827 
L 120.164312 144.510913 
L 120.293988 152.3539 
L 120.516291 161.968454 
L 120.553341 162.146273 
L 120.590392 161.847996 
L 120.738594 158.229412 
L 120.812695 158.758896 
L 120.849745 158.864793 
L 120.86827 158.668001 
L 121.016472 151.583942 
L 121.238775 143.169111 
L 121.2573 143.316484 
L 121.368451 148.11979 
L 121.701905 162.899464 
L 121.738956 163.111258 
L 121.776006 162.681934 
L 121.942733 155.103248 
L 122.202086 140.955867 
L 122.239137 141.38519 
L 122.405864 146.715774 
L 122.46144 145.620183 
L 122.998671 133.439836 
L 123.017196 133.550145 
L 123.128348 137.320074 
L 123.35065 148.354528 
L 123.406226 147.87711 
L 123.498852 144.354274 
L 123.887882 125.588024 
L 124.036084 123.110478 
L 124.073134 123.252998 
L 124.184285 126.249879 
L 124.462164 140.462564 
L 124.684466 147.330858 
L 124.721517 147.123036 
L 125.01792 142.122056 
L 125.425475 127.656543 
L 125.444001 127.835244 
L 125.536627 131.735779 
L 125.888606 161.847555 
L 126.240585 194.818547 
L 126.333211 197.250204 
L 126.388787 196.880006 
L 126.462888 196.482452 
L 126.499938 196.58879 
L 126.64814 198.501111 
L 126.703716 197.811458 
L 127.185372 188.349572 
L 127.315048 186.837894 
L 127.352099 187.359436 
L 127.46325 190.058924 
L 127.5003 189.609304 
L 127.759653 185.597136 
L 127.88933 185.480208 
L 127.815229 185.64523 
L 127.907855 185.502711 
L 127.963431 186.300467 
L 128.167208 195.62204 
L 128.519188 218.452965 
L 128.556238 217.604907 
L 128.70444 206.29115 
L 128.908217 193.429092 
L 128.926743 193.464391 
L 129.000843 196.862357 
L 129.445449 228.140323 
L 129.463974 228.050752 
L 129.5566 224.85399 
L 129.890054 207.024045 
L 130.149407 194.585574 
L 130.427286 184.977198 
L 130.464336 185.519919 
L 130.686639 194.700296 
L 131.075669 220.86962 
L 131.149769 220.476919 
L 131.242396 216.993353 
L 131.557324 204.392066 
L 131.594375 204.84654 
L 131.705526 213.650542 
L 132.094556 247.185435 
L 132.131606 247.597991 
L 132.187182 246.955109 
L 132.446535 238.713685 
L 132.724413 221.883582 
L 133.094918 197.882938 
L 133.113443 197.884262 
L 133.187544 199.7957 
L 133.372796 212.225787 
L 133.835927 242.98177 
L 133.854452 242.909848 
L 133.928553 240.502901 
L 134.076755 225.686604 
L 134.447259 185.376517 
L 134.595461 182.62011 
L 134.632511 182.795722 
L 134.706612 183.431986 
L 134.743663 183.165037 
L 134.91039 180.033579 
L 134.94744 180.514527 
L 135.040066 184.102666 
L 135.429096 216.883926 
L 135.688449 233.522973 
L 135.706974 233.27588 
L 135.818126 227.991185 
L 136.485034 183.032225 
L 136.596185 183.566563 
L 136.651761 184.288868 
L 136.799963 191.980511 
L 137.059316 207.077876 
L 137.096366 206.661348 
L 137.411295 199.451094 
L 137.466871 199.902921 
L 137.578022 201.141032 
L 137.615072 200.948211 
L 137.744749 196.547755 
L 138.004102 184.71775 
L 138.059678 185.594488 
L 138.20788 194.285974 
L 138.652485 229.287539 
L 138.689535 228.829094 
L 138.800687 223.093013 
L 139.263817 180.789418 
L 139.319393 182.343454 
L 139.597271 192.81489 
L 139.782524 194.67338 
L 139.819574 194.578514 
L 139.9122 194.177871 
L 139.949251 194.320832 
L 140.041877 195.653368 
L 140.190079 201.37224 
L 140.467957 219.443101 
L 140.560583 216.805827 
L 140.708785 207.505434 
L 141.190441 151.826181 
L 141.283067 155.585961 
L 141.727672 183.632749 
L 141.93145 186.062199 
L 142.079651 195.924728 
L 142.320479 210.0474 
L 142.35753 210.48246 
L 142.413105 210.108291 
L 142.450156 209.880172 
L 142.505732 210.169623 
L 142.524257 210.169623 
L 142.579832 209.218316 
L 142.876236 196.659388 
L 142.987387 198.221367 
L 143.117064 202.995992 
L 143.228215 206.434111 
L 143.283791 205.728573 
L 143.413468 197.945594 
L 143.617245 187.003799 
L 143.63577 187.052776 
L 143.709871 189.127031 
L 143.839548 201.81083 
L 144.228577 248.490172 
L 144.247103 248.412074 
L 144.339729 245.157068 
L 145.136313 212.493618 
L 145.191889 212.861169 
L 145.26599 214.768195 
L 145.673545 233.790362 
L 145.72912 232.592404 
L 145.877322 220.707245 
L 146.284877 188.052619 
L 146.340453 186.524616 
L 146.396029 187.629032 
L 146.581281 200.833049 
L 147.248189 252.809 
L 147.303764 251.765916 
L 147.489017 240.421713 
L 147.729845 228.920871 
L 147.803946 231.147353 
L 147.970673 242.526855 
L 148.267076 263.456048 
L 148.285601 263.55665 
L 148.341177 263.269405 
L 148.452328 259.484916 
L 148.619055 241.806756 
L 148.933984 214.37064 
L 148.971035 214.279304 
L 148.98956 214.410352 
L 149.082186 216.424599 
L 149.304489 229.098248 
L 149.823195 258.891011 
L 149.915821 259.534334 
L 149.952871 259.405052 
L 149.989922 259.280623 
L 150.045498 259.440792 
L 150.138124 261.244569 
L 150.23075 262.554601 
L 150.2678 262.000408 
L 150.416002 254.604835 
L 150.749456 233.496499 
L 150.805032 233.968622 
L 150.916183 236.397632 
L 150.971759 235.73004 
L 151.04586 234.34941 
L 151.08291 235.114515 
L 151.249637 247.405171 
L 151.453415 262.355162 
L 151.490465 261.986729 
L 151.601616 254.692199 
L 151.972121 229.700096 
L 152.175898 225.83839 
L 152.379676 223.910625 
L 152.435251 224.175809 
L 152.546403 225.753672 
L 152.676079 230.951444 
L 152.935432 245.976887 
L 152.972483 245.186631 
L 153.083634 236.385277 
L 153.56529 187.516517 
L 153.583815 187.740224 
L 153.694967 192.109352 
L 153.861694 210.342588 
L 154.213673 244.398141 
L 154.34335 248.777859 
L 154.3804 248.180865 
L 154.602703 236.403368 
L 154.862056 212.878818 
L 155.102884 193.843855 
L 155.121409 193.950634 
L 155.214035 195.843541 
L 155.899468 219.135559 
L 156.140296 237.339231 
L 156.177347 237.13185 
L 156.344074 231.234718 
L 156.770154 204.517377 
L 156.844255 206.312771 
L 157.010982 219.282049 
L 157.344436 241.029296 
L 157.659365 249.332053 
L 157.71494 249.722106 
L 157.751991 249.417211 
L 157.844617 245.216194 
L 158.066919 223.881504 
L 158.455949 184.153849 
L 158.474474 184.06119 
L 158.493 184.229301 
L 158.585626 189.006574 
L 158.826454 198.047961 
L 158.882029 198.794975 
L 159.030231 206.471616 
L 159.196958 212.300798 
L 159.234009 212.203726 
L 159.271059 212.123862 
L 159.289584 212.261086 
L 159.604513 217.42047 
L 159.845341 219.83536 
L 159.900917 219.716668 
L 159.975018 218.514297 
L 160.086169 211.564373 
L 160.567825 169.262543 
L 160.6234 170.450353 
L 161.086531 195.400539 
L 161.290308 201.874809 
L 161.345884 201.167506 
L 161.568187 193.049187 
L 161.660813 195.05505 
L 161.86459 209.14463 
L 162.049843 218.029819 
L 162.068368 217.97334 
L 162.160994 216.149708 
L 162.364771 204.6824 
L 162.438872 202.269716 
L 162.494448 202.91304 
L 162.605599 210.07564 
L 162.827902 222.751054 
L 162.846427 222.552498 
L 162.939053 218.963035 
L 163.439234 191.215847 
L 163.45776 191.242322 
L 163.568911 191.951389 
L 163.661537 191.781954 
L 163.772688 191.029645 
L 163.809739 191.212317 
L 163.994991 194.746626 
L 164.291395 207.010366 
L 164.439596 213.98897 
L 164.495172 213.195626 
L 164.828626 206.814898 
L 164.865677 206.926531 
L 164.884202 206.846226 
L 164.939777 206.448672 
L 164.976828 206.616783 
L 165.050929 208.987549 
L 165.291757 218.817427 
L 165.310282 218.811691 
L 165.384383 217.978194 
L 165.477009 214.10281 
L 166.310644 164.612346 
L 166.36622 165.432606 
L 166.477371 173.043502 
L 166.773775 190.744165 
L 166.810825 190.690775 
L 166.884926 189.873604 
L 166.921976 189.581064 
L 166.940502 189.820215 
L 167.051653 195.824126 
L 167.348057 209.755302 
L 167.366582 209.780011 
L 167.385107 209.671908 
L 167.459208 206.973302 
L 167.64446 200.578896 
L 167.681511 200.689205 
L 167.848238 201.500199 
L 167.885288 201.314438 
L 167.996439 200.310183 
L 168.03349 200.958801 
L 168.144641 208.18538 
L 168.403994 226.253152 
L 168.42252 226.252711 
L 168.49662 224.529681 
L 168.644822 213.722905 
L 169.31173 153.027669 
L 169.422882 152.702919 
L 169.478457 152.849409 
L 169.682235 154.641273 
L 169.774861 157.570645 
L 169.978638 171.79789 
L 170.108315 178.050218 
L 170.163891 177.320412 
L 170.293567 172.808764 
L 170.608496 160.681807 
L 170.645546 161.367048 
L 170.830799 166.102403 
L 170.867849 165.429517 
L 171.349505 148.716784 
L 171.423606 149.709567 
L 171.571808 157.361499 
L 171.75706 164.990045 
L 171.775585 164.686915 
L 171.905262 156.471965 
L 172.238716 129.197342 
L 172.275766 129.872876 
L 172.423968 134.660739 
L 172.479544 133.907106 
L 172.627745 126.379162 
L 172.757422 119.189646 
L 172.812998 120.936062 
L 172.961199 144.044084 
L 173.313179 192.151711 
L 173.331704 192.333059 
L 173.368754 191.741361 
L 173.516956 181.386852 
L 173.868935 159.73403 
L 174.220915 145.148059 
L 174.27649 146.545015 
L 174.424692 161.532953 
L 174.684045 180.847661 
L 174.850772 188.17043 
L 175.073075 200.225907 
L 175.110125 200.091329 
L 175.147176 199.992051 
L 175.184226 200.155309 
L 175.202751 200.194579 
L 175.221277 200.132806 
L 175.51768 197.682175 
L 175.665882 189.726673 
L 175.777033 186.247519 
L 175.814084 186.782739 
L 176.017861 189.030842 
L 176.129013 188.220731 
L 176.277214 183.457136 
L 176.777395 162.537209 
L 176.851496 163.644272 
L 176.981173 171.753767 
L 177.388728 209.997982 
L 177.462829 208.83091 
L 177.666606 198.081054 
L 177.96301 181.337875 
L 178.00006 182.274621 
L 178.148262 194.90503 
L 178.574342 242.511853 
L 178.629918 240.971494 
L 178.741069 229.216941 
L 179.074523 181.541727 
L 179.111574 182.205788 
L 179.278301 191.011555 
L 179.519129 199.791729 
L 179.537654 199.751577 
L 179.611755 197.745713 
L 179.945209 183.092233 
L 179.982259 183.297409 
L 180.130461 186.118237 
L 180.204562 184.865123 
L 180.500965 177.086998 
L 180.538016 177.298792 
L 180.630642 179.362898 
L 180.797369 189.779621 
L 181.29755 232.770664 
L 181.353126 233.513266 
L 181.408701 233.096738 
L 181.501327 230.358862 
L 181.649529 214.229445 
L 182.094135 136.420392 
L 182.279387 115.826097 
L 182.297912 116.23027 
L 182.390538 124.009719 
L 182.798093 162.520883 
L 183.038921 174.478846 
L 183.465001 206.104066 
L 183.483526 205.947426 
L 183.557627 202.888772 
L 183.965182 177.979179 
L 183.983707 178.025068 
L 184.076334 180.659694 
L 184.354212 188.602842 
L 184.409788 188.367221 
L 184.539464 185.829226 
L 184.724716 179.028441 
L 185.02112 152.009294 
L 185.076696 153.404927 
L 185.484251 168.542885 
L 185.669503 169.674217 
L 185.706553 169.529491 
L 185.799179 167.5779 
L 186.373461 145.665189 
L 186.466087 147.763271 
L 186.836592 170.165313 
L 187.244147 202.020859 
L 187.262672 202.078219 
L 187.281197 201.974087 
L 187.355298 199.852179 
L 187.522025 185.257824 
L 187.781378 165.582626 
L 187.966631 159.732706 
L 188.411236 130.001276 
L 188.466812 130.901399 
L 188.633539 139.149001 
L 188.985518 157.799647 
L 189.226346 165.03814 
L 189.244871 164.995781 
L 189.300447 164.386874 
L 189.485699 158.827288 
L 189.615375 155.038386 
L 189.670951 155.406378 
L 189.708002 155.472122 
L 189.745052 155.255033 
L 189.819153 153.404044 
L 190.041456 138.805719 
L 190.226708 129.088798 
L 190.245233 129.140864 
L 190.319334 131.191292 
L 190.467536 141.789363 
L 190.726889 158.59608 
L 190.745414 158.362665 
L 190.949192 150.371864 
L 191.412322 135.388338 
L 191.430847 135.340685 
L 191.467898 135.478792 
L 191.560524 137.197851 
L 191.838402 144.464583 
L 191.875453 144.149099 
L 192.153331 139.944551 
L 192.208907 140.417557 
L 192.449735 145.553115 
L 192.523836 144.889494 
L 192.672037 139.655541 
L 192.85729 122.065629 
L 193.357471 68.633154 
L 193.579773 53.568 
L 193.598299 53.714491 
L 193.690925 59.028308 
L 194.52456 124.765117 
L 194.56161 124.656131 
L 194.672762 122.73675 
L 194.876539 113.439446 
L 195.080316 106.13212 
L 195.135892 106.858838 
L 195.33967 117.386311 
L 195.524922 130.729758 
L 195.691649 140.292246 
L 195.728699 139.910135 
L 195.932477 135.703382 
L 196.154779 126.849962 
L 196.19183 127.033957 
L 196.247406 127.371945 
L 196.284456 127.197215 
L 196.377082 125.728778 
L 196.432658 126.523005 
L 196.65496 132.286001 
L 196.710536 131.835057 
L 196.969889 125.496246 
L 197.04399 127.160151 
L 197.284818 141.203401 
L 197.729423 182.497005 
L 197.803524 181.171529 
L 198.488958 156.705379 
L 198.544533 158.870088 
L 198.766836 184.561994 
L 198.970613 195.350679 
L 199.044714 195.192275 
L 199.06324 195.312291 
L 199.229967 197.519359 
L 199.841299 214.392261 
L 199.9154 213.459927 
L 200.156228 206.042734 
L 200.674934 175.461922 
L 200.711984 175.62871 
L 200.786085 178.723546 
L 201.063964 204.433542 
L 201.267741 215.329448 
L 201.304792 215.489176 
L 201.341842 215.312681 
L 201.415943 212.999717 
L 201.601195 196.01077 
L 202.00875 153.723941 
L 202.231053 146.413086 
L 202.249578 146.523836 
L 202.323679 149.714862 
L 202.842385 181.326844 
L 202.972062 185.755981 
L 203.194364 195.22978 
L 203.21289 195.13712 
L 203.305516 191.210553 
L 203.861272 159.750797 
L 203.879798 159.809923 
L 203.953899 162.016549 
L 204.231777 170.526687 
L 204.268827 170.081478 
L 204.602281 157.113524 
L 204.954261 123.62849 
L 205.028362 125.221356 
L 205.232139 132.147894 
L 205.30624 131.805494 
L 205.361816 132.082591 
L 205.472967 133.867836 
L 205.528543 133.282755 
L 205.621169 131.782108 
L 205.658219 132.170397 
L 205.806421 138.072383 
L 206.1584 154.708782 
L 206.195451 154.643479 
L 206.306602 153.988242 
L 206.362178 154.254308 
L 206.473329 156.307825 
L 206.658581 159.551358 
L 206.695632 159.330298 
L 206.788258 157.036748 
L 207.140237 135.661464 
L 207.436641 108.65026 
L 207.492216 110.297397 
L 207.640418 125.852766 
L 208.010923 164.427027 
L 208.122074 168.684081 
L 208.17765 168.074291 
L 208.307326 161.286743 
L 208.659305 141.026464 
L 208.844558 135.050351 
L 209.048335 128.876563 
L 209.178012 126.71759 
L 209.233587 127.086023 
L 209.326213 133.467634 
L 209.733768 165.957236 
L 209.752294 166.002684 
L 209.789344 165.929438 
L 209.863445 164.719567 
L 210.030172 159.294999 
L 210.085748 159.95509 
L 210.233949 161.18217 
L 210.271 161.074508 
L 210.363626 159.176748 
L 210.493303 151.018717 
L 210.789706 131.178496 
L 210.826757 131.724306 
L 211.012009 136.251839 
L 211.067584 135.568363 
L 211.326938 128.179409 
L 211.382513 128.600349 
L 211.697442 135.917381 
L 212.456976 188.425023 
L 212.494027 188.24544 
L 212.568128 186.174274 
L 213.031258 163.822091 
L 213.123884 164.783105 
L 213.346187 174.436929 
L 213.587015 197.946918 
L 213.772267 205.849031 
L 213.790792 205.829175 
L 213.883418 205.184086 
L 213.920469 205.504866 
L 214.068671 207.18642 
L 214.105721 206.906234 
L 214.290973 201.250018 
L 214.42065 198.834245 
L 214.4577 199.043833 
L 214.605902 203.054236 
L 214.698528 202.273246 
L 214.828205 204.865955 
L 214.865255 204.070404 
L 215.309861 182.458617 
L 215.383962 184.087223 
L 215.532163 196.313458 
L 215.847092 225.968996 
L 215.865617 226.085482 
L 215.884143 225.828682 
L 216.013819 217.443415 
L 216.162021 211.68792 
L 216.180546 211.858237 
L 216.291698 215.81878 
L 216.439899 219.66416 
L 216.458425 219.39986 
L 216.606626 211.907214 
L 217.088282 184.105755 
L 217.162383 185.332393 
L 217.551413 195.022399 
L 217.569938 194.964156 
L 217.644039 194.367603 
L 217.681089 194.665879 
L 217.792241 197.016349 
L 217.847816 196.12152 
L 218.496199 175.701073 
L 218.514724 175.777848 
L 218.607351 178.786643 
L 218.922279 196.127697 
L 219.014905 195.393038 
L 219.033431 195.341413 
L 219.051956 195.432749 
L 219.107532 195.798976 
L 219.144582 195.491434 
L 219.255733 192.00169 
L 219.515086 177.653546 
L 219.589187 180.243607 
L 219.830015 195.217867 
L 219.867066 194.300535 
L 219.996742 182.329776 
L 220.367247 140.983223 
L 220.404297 141.40284 
L 220.496923 148.37306 
L 220.737751 189.771237 
L 221.01563 221.23364 
L 221.071205 219.087023 
L 221.552861 180.792065 
L 221.626962 183.055169 
L 221.849265 201.644925 
L 222.108618 220.036123 
L 222.145668 219.650482 
L 222.29387 212.384633 
L 222.534698 202.94525 
L 222.553223 203.160132 
L 222.664375 208.29922 
L 222.997829 222.599269 
L 223.016354 222.563087 
L 223.090455 221.995657 
L 223.349808 214.405939 
L 223.96114 164.964894 
L 224.016716 165.511587 
L 224.164918 172.32561 
L 224.442796 190.433093 
L 224.498372 188.764776 
L 224.924452 158.789783 
L 225.183805 134.955044 
L 225.220855 135.385691 
L 225.424633 147.797687 
L 225.832188 168.338592 
L 225.869238 168.429928 
L 225.961864 170.389462 
L 226.110066 174.197337 
L 226.147117 173.8845 
L 226.313844 169.963668 
L 226.369419 171.115297 
L 226.536146 182.66291 
L 226.702873 190.558845 
L 226.721399 190.415885 
L 226.83255 186.580653 
L 227.073378 172.502987 
L 227.25863 165.549533 
L 227.369781 162.824013 
L 227.573559 152.732923 
L 227.68471 150.116388 
L 227.721761 150.500264 
L 227.814387 154.568469 
L 228.055215 164.460561 
L 228.07374 164.489682 
L 228.092265 164.379814 
L 228.258992 162.249081 
L 228.314568 162.806804 
L 228.425719 167.358164 
L 228.648022 190.721662 
L 228.962951 210.354501 
L 229.092627 213.670839 
L 229.129678 213.399919 
L 229.222304 210.854423 
L 229.611333 194.79825 
L 229.870687 189.853749 
L 229.889212 189.824627 
L 229.963313 191.632816 
L 230.204141 203.985687 
L 230.296767 202.371201 
L 230.407918 201.260166 
L 230.426443 201.419011 
L 230.519069 204.913167 
L 230.815473 219.713579 
L 230.833998 219.687987 
L 230.889574 218.994804 
L 231.01925 212.106653 
L 231.260078 196.275071 
L 231.297129 196.784699 
L 231.519431 202.594908 
L 231.741734 212.010464 
L 231.760259 211.997668 
L 231.871411 210.324056 
L 232.241915 201.485197 
L 232.538319 192.858131 
L 232.593894 194.580721 
L 233.001449 212.427433 
L 233.279328 219.544585 
L 233.446055 224.449817 
L 233.483105 224.126831 
L 233.612782 218.282647 
L 234.187064 186.017193 
L 234.242639 186.700669 
L 234.335265 192.751352 
L 234.557568 232.132194 
L 234.816921 268.589841 
L 234.853972 268.067416 
L 234.965123 260.633014 
L 235.502355 204.249988 
L 235.55793 205.48854 
L 235.706132 217.690949 
L 236.132212 259.608903 
L 236.150737 259.55772 
L 236.224838 257.682462 
L 236.391565 245.901876 
L 237.021423 202.008504 
L 237.058473 202.530487 
L 237.18815 211.474361 
L 237.558654 239.351713 
L 237.57718 239.389218 
L 237.595705 239.31112 
L 237.706856 237.941079 
L 237.799482 233.780214 
L 238.00326 210.479813 
L 238.262613 192.121707 
L 238.318189 193.606028 
L 238.688693 207.636482 
L 238.81837 209.194931 
L 239.059198 223.324221 
L 239.170349 220.404115 
L 239.67053 206.201579 
L 239.744631 206.518828 
L 239.781681 206.282767 
L 239.892833 201.512112 
L 240.152186 189.306174 
L 240.189236 189.620334 
L 240.263337 192.614569 
L 240.430064 213.53229 
L 240.707942 242.562154 
L 240.967296 247.421938 
L 241.041396 246.27428 
L 241.226649 236.901966 
L 241.486002 212.82587 
L 241.837981 184.073986 
L 241.856506 183.985297 
L 241.875032 184.196208 
L 241.967658 189.295584 
L 242.134385 197.075474 
L 242.15291 196.895009 
L 242.264061 192.092585 
L 242.356687 189.161448 
L 242.393738 189.731526 
L 242.523414 199.336373 
L 242.949494 234.370589 
L 243.00507 233.611661 
L 243.116222 228.401094 
L 243.468201 214.59523 
L 243.560827 213.235338 
L 243.597877 213.628921 
L 243.690503 217.953926 
L 244.190684 258.006772 
L 244.227735 257.700553 
L 244.320361 252.226567 
L 244.63529 212.564216 
L 244.876118 196.53893 
L 245.02432 193.579113 
L 245.06137 193.851356 
L 245.209572 194.682646 
L 245.228097 194.679558 
L 245.283673 194.391871 
L 245.431874 193.083604 
L 245.672702 187.578731 
L 245.709753 187.970549 
L 245.820904 194.558217 
L 246.098783 213.744525 
L 246.172883 212.859404 
L 246.284035 210.94973 
L 246.33961 211.346402 
L 246.543388 217.465035 
L 246.72864 227.958974 
L 247.099145 250.744893 
L 247.11767 250.6615 
L 247.210296 246.08499 
L 247.377023 225.199037 
L 247.840154 160.84683 
L 247.858679 161.026413 
L 247.93278 164.30348 
L 248.377385 203.28765 
L 248.451486 201.552706 
L 248.710839 194.675145 
L 248.766415 193.775022 
L 249.525949 166.65042 
L 249.6371 167.607904 
L 249.896453 172.317226 
L 250.118756 182.594077 
L 250.600412 217.019386 
L 250.693038 213.819977 
L 251.341421 182.817343 
L 251.378471 182.547747 
L 251.415522 183.015017 
L 251.526673 189.077172 
L 251.674875 195.654691 
L 251.711925 195.303908 
L 252.193581 185.529185 
L 252.286207 183.342415 
L 252.323258 183.862192 
L 252.489985 191.588693 
L 252.619661 195.86825 
L 252.656712 195.64719 
L 252.767863 192.610156 
L 252.953115 189.105411 
L 253.101317 186.273993 
L 253.212468 184.329462 
L 253.249519 185.006761 
L 253.379195 194.079917 
L 253.972003 237.458365 
L 254.083154 240.569527 
L 254.13873 239.968563 
L 254.361032 233.398103 
L 254.638911 223.298188 
L 254.842688 218.361188 
L 255.009415 203.437229 
L 255.268768 184.100019 
L 255.287293 184.141495 
L 255.398445 186.182216 
L 255.45402 186.902315 
L 255.491071 186.567416 
L 255.713374 176.810342 
L 255.898626 173.512537 
L 255.917151 173.597696 
L 256.009777 176.622375 
L 256.343231 192.817979 
L 256.435857 191.302771 
L 256.528483 190.182029 
L 256.565534 190.537666 
L 256.732261 194.264795 
L 256.787837 193.751636 
L 256.898988 192.628247 
L 256.954564 192.697521 
L 257.010139 192.467195 
L 257.102765 190.007299 
L 257.380644 175.681658 
L 257.51032 169.425359 
L 257.547371 170.314452 
L 257.695573 184.032068 
L 258.066077 213.38227 
L 258.195754 215.218257 
L 258.232804 215.067795 
L 258.343955 211.871915 
L 258.455107 208.284218 
L 258.510682 209.370543 
L 258.75151 220.48795 
L 258.825611 219.073344 
L 259.029389 209.506444 
L 259.455469 178.941958 
L 259.473994 179.054032 
L 259.548095 183.056493 
L 259.751872 216.691106 
L 259.9927 241.643498 
L 260.011226 241.27683 
L 260.233528 229.614054 
L 260.696659 200.303123 
L 260.733709 200.818488 
L 260.956012 213.309465 
L 261.067163 210.719404 
L 261.400617 190.10746 
L 261.511769 191.638552 
L 261.65997 197.248881 
L 261.974899 211.411705 
L 262.086051 219.112173 
L 262.456555 248.472523 
L 262.586232 250.023912 
L 262.623282 249.737991 
L 262.808534 244.755543 
L 263.71627 208.724131 
L 263.753321 208.342461 
L 263.790371 208.733838 
L 264.197926 220.477801 
L 264.549905 236.493821 
L 264.586956 236.248052 
L 264.679582 232.687711 
L 265.068612 211.672035 
L 265.161238 210.426864 
L 265.457641 194.158016 
L 265.568793 195.933553 
L 265.957822 209.949887 
L 266.328327 242.209164 
L 266.365377 241.892797 
L 266.458003 237.493223 
L 266.754407 212.010905 
L 266.828508 214.578022 
L 267.087861 230.924087 
L 267.124911 230.744062 
L 267.199012 229.205028 
L 267.606567 214.071923 
L 268.032647 180.513203 
L 268.051173 180.555562 
L 268.162324 184.433152 
L 268.569879 196.665565 
L 268.64398 197.237408 
L 268.68103 196.932072 
L 268.810707 195.193158 
L 268.847757 195.487463 
L 268.940383 198.329029 
L 269.199736 218.90435 
L 269.551716 236.525149 
L 269.774018 243.759671 
L 269.92222 248.863018 
L 269.959271 248.371921 
L 270.088947 240.069606 
L 270.3483 224.215961 
L 270.366826 224.216402 
L 270.459452 226.048418 
L 270.533553 227.032818 
L 270.589128 226.513041 
L 270.70028 221.880053 
L 270.996683 195.256696 
L 271.144885 188.163811 
L 271.16341 188.411786 
L 271.311612 195.184333 
L 271.496864 207.650601 
L 271.867369 237.810473 
L 272.311974 247.528276 
L 272.497226 248.042317 
L 272.515752 247.97569 
L 272.608378 246.438862 
L 272.719529 239.940765 
L 272.978882 221.84696 
L 273.015933 222.404683 
L 273.367912 236.278498 
L 273.479063 234.832123 
L 273.571689 234.41736 
L 273.60874 234.438981 
L 273.64579 234.440305 
L 273.664315 234.389562 
L 273.738416 233.462523 
L 273.886618 227.072529 
L 274.07187 218.489146 
L 274.108921 219.400301 
L 274.238597 230.659786 
L 274.572051 255.379205 
L 274.590577 255.607766 
L 274.646152 254.957383 
L 274.757304 248.001282 
L 275.053707 231.110289 
L 275.146333 230.163836 
L 275.183384 230.379601 
L 275.498313 236.207459 
L 275.609464 238.794431 
L 275.646514 238.322307 
L 275.776191 230.591836 
L 276.202271 186.945997 
L 276.313422 189.210425 
L 276.406049 190.901245 
L 276.461624 190.812998 
L 276.498675 190.91007 
L 276.55425 192.319822 
L 276.776553 200.620372 
L 276.813603 200.454467 
L 276.94328 200.409461 
L 276.998856 200.638022 
L 277.221158 202.902009 
L 277.258209 202.707423 
L 277.443461 199.519486 
L 277.554612 191.755039 
L 277.888066 167.341838 
L 278.091844 161.025972 
L 278.110369 161.080244 
L 278.165945 161.889914 
L 278.314147 168.660695 
L 278.536449 189.138945 
L 279.240408 271.822784 
L 279.258933 271.648054 
L 279.351559 266.20319 
L 279.999942 196.831912 
L 280.111093 199.668183 
L 280.24077 212.419049 
L 280.574224 246.60962 
L 280.611274 246.897748 
L 280.6298 246.618004 
L 280.722426 240.854125 
L 281.352283 189.836099 
L 281.611636 185.241057 
L 281.685737 185.732595 
L 282.185918 197.846315 
L 282.556423 214.389172 
L 282.593473 214.282393 
L 282.667574 213.951024 
L 282.704625 214.184438 
L 282.741675 214.312838 
L 282.778725 214.181791 
L 283.001028 211.828233 
L 283.075129 212.529358 
L 283.278906 214.626558 
L 283.353007 214.483156 
L 283.408583 214.332694 
L 283.445634 214.490216 
L 283.556785 217.193233 
L 283.630886 218.638726 
L 283.686461 217.974664 
L 283.779088 211.260361 
L 284.149592 171.380921 
L 284.223693 172.891276 
L 284.371895 185.981453 
L 284.742399 213.66775 
L 284.890601 216.526966 
L 284.909126 216.50711 
L 284.964702 215.745976 
L 285.20553 205.51369 
L 285.520459 188.697708 
L 285.63161 184.311371 
L 285.687186 185.27415 
L 285.835387 197.06312 
L 286.187367 224.235376 
L 286.502295 233.355744 
L 286.8728 254.591597 
L 286.928376 253.394521 
L 287.206254 245.739942 
L 287.280355 244.51551 
L 287.391506 235.317925 
L 287.68791 213.147973 
L 287.873162 205.886977 
L 288.11399 190.556198 
L 288.132515 190.720779 
L 288.280717 195.918992 
L 288.57712 211.268303 
L 288.947625 238.580431 
L 289.003201 239.720587 
L 289.058776 239.079911 
L 289.169928 238.026679 
L 289.188453 238.115367 
L 289.299604 239.387454 
L 289.336655 239.109033 
L 289.503382 235.157315 
L 289.577483 236.286881 
L 289.892411 243.568174 
L 290.003563 243.838652 
L 290.022088 243.817473 
L 290.077664 243.002508 
L 290.188815 236.920498 
L 290.855723 188.297947 
L 290.892773 188.661085 
L 291.078026 195.350679 
L 291.263278 217.705068 
L 291.559681 243.787027 
L 291.670833 245.508293 
L 291.707883 245.341064 
L 291.985762 240.624682 
L 292.282165 217.472978 
L 292.726771 182.504064 
L 292.949073 171.37695 
L 293.004649 171.508439 
L 293.041699 171.390629 
L 293.208426 170.859379 
L 293.264002 172.240892 
L 293.430729 185.042501 
L 294.023536 245.267819 
L 294.042061 245.05073 
L 294.134688 240.110641 
L 294.560768 209.884584 
L 294.597818 209.958271 
L 294.727495 208.536605 
L 294.838646 204.360738 
L 295.042424 196.017829 
L 295.079474 196.20006 
L 295.153575 197.998542 
L 295.709332 223.098749 
L 295.764907 222.90284 
L 295.820483 222.658836 
L 295.857533 222.941669 
L 295.95016 226.434942 
L 296.228038 246.661686 
L 296.320664 244.673914 
L 296.561492 236.845929 
L 296.617068 237.28893 
L 296.709694 239.627928 
L 296.83937 244.247238 
L 296.894946 243.091638 
L 297.006097 229.693036 
L 297.358077 184.932192 
L 297.395127 184.426534 
L 297.432177 185.007202 
L 297.524804 192.363946 
L 298.136136 256.599667 
L 298.339913 266.876517 
L 298.358439 266.737528 
L 298.432539 262.277504 
L 299.062397 203.487089 
L 299.32175 192.115971 
L 299.358801 192.348944 
L 299.432902 195.848836 
L 299.914557 232.221324 
L 299.951608 232.062037 
L 300.118335 228.630537 
L 300.711142 207.319673 
L 300.785243 208.816791 
L 300.98902 212.513915 
L 301.007546 212.543478 
L 301.063121 212.434934 
L 301.081646 212.404488 
L 301.118697 212.493177 
L 301.174273 213.777618 
L 301.692979 234.862568 
L 301.859706 239.258171 
L 301.896756 239.07947 
L 301.989382 237.194064 
L 302.156109 231.233835 
L 302.378412 213.728199 
L 302.730391 187.991288 
L 302.804492 186.110294 
L 302.860068 186.874958 
L 303.00827 193.960341 
L 303.360249 211.573639 
L 303.452875 212.124744 
L 303.489926 211.869268 
L 303.619602 209.38378 
L 303.804854 200.841873 
L 304.064207 184.513016 
L 304.267985 170.192229 
L 304.305035 170.697887 
L 304.416187 179.21376 
L 304.657015 201.030723 
L 304.71259 200.015878 
L 304.842267 190.640033 
L 305.10162 148.387621 
L 305.305397 132.63502 
L 305.323923 132.560892 
L 305.360973 132.713119 
L 305.453599 134.241122 
L 305.564751 142.881866 
L 306.027881 198.589359 
L 306.101982 198.112381 
L 306.139033 198.245194 
L 306.268709 200.573601 
L 306.34281 199.174439 
L 306.472487 188.282063 
L 306.676264 175.153498 
L 306.694789 175.249246 
L 306.76889 176.633406 
L 307.009718 188.808458 
L 307.083819 186.773032 
L 307.917454 138.705999 
L 307.97303 139.236366 
L 308.102706 144.229845 
L 308.343534 167.029001 
L 308.806665 214.975576 
L 308.899291 212.255792 
L 309.047493 199.412707 
L 309.751451 132.376455 
L 309.807027 133.656924 
L 309.936703 145.131292 
L 310.288683 180.155801 
L 310.325733 180.412601 
L 310.362784 180.174774 
L 310.45541 177.51941 
L 310.603611 172.561672 
L 310.640662 172.950401 
L 310.751813 178.573525 
L 311.085267 198.805565 
L 311.122318 198.535086 
L 311.251994 192.05155 
L 311.455772 183.435074 
L 311.474297 183.469932 
L 311.548398 186.132356 
L 311.974478 206.133628 
L 312.011528 206.542655 
L 312.067104 205.883006 
L 312.178255 197.645553 
L 312.437609 180.796477 
L 312.456134 180.652634 
L 312.493184 180.92223 
L 312.882214 193.390704 
L 313.197143 209.580131 
L 313.308294 207.539851 
L 313.604698 200.125746 
L 313.678799 201.486962 
L 313.845526 210.559677 
L 314.141929 230.639048 
L 314.197505 229.967044 
L 314.21603 229.922479 
L 314.234555 230.117065 
L 314.364232 235.570754 
L 314.512434 239.062703 
L 314.530959 238.906946 
L 314.660635 234.990527 
L 314.827362 222.730757 
L 315.309018 177.403806 
L 315.346069 177.884754 
L 315.864775 187.332079 
L 315.920351 187.295016 
L 315.957401 187.518723 
L 316.124128 191.684882 
L 316.30938 196.462596 
L 316.383481 195.823244 
L 316.402006 195.706757 
L 316.439057 195.949879 
L 316.568733 200.792455 
L 316.957763 214.429766 
L 316.976288 214.30622 
L 317.08744 211.642472 
L 317.272692 197.415668 
L 317.587621 176.152458 
L 317.624671 176.343072 
L 317.772873 179.922387 
L 318.143378 190.122903 
L 318.180428 189.966264 
L 318.476832 184.413738 
L 318.773235 173.508125 
L 318.828811 173.829787 
L 318.921437 174.702995 
L 318.977013 174.263081 
L 319.014063 173.977601 
L 319.051113 174.372508 
L 319.403093 182.790427 
L 319.477194 181.224918 
L 319.588345 179.554395 
L 319.643921 179.745451 
L 319.680971 179.835463 
L 319.699496 179.708387 
L 319.847698 176.397345 
L 319.9959 165.757356 
L 320.403455 144.786686 
L 320.42198 144.800806 
L 320.496081 147.473378 
L 320.699858 169.642448 
L 321.255615 234.301315 
L 321.329716 231.986586 
L 321.644645 209.196696 
L 321.829897 202.135139 
L 321.922523 201.727436 
L 322.015149 200.392694 
L 322.070725 200.981745 
L 322.274502 207.839892 
L 322.719108 226.550546 
L 322.793209 224.243759 
L 322.90436 213.332851 
L 323.163713 192.032577 
L 323.200764 191.676499 
L 323.237814 192.084643 
L 323.33044 197.1774 
L 323.589793 228.090904 
L 323.904722 258.481543 
L 324.127025 265.470295 
L 324.164075 265.191875 
L 324.275227 263.133063 
L 324.404903 254.079321 
L 324.719832 208.219356 
L 325.016236 167.757925 
L 325.071811 166.722783 
L 325.127387 167.377578 
L 325.220013 173.581811 
L 325.460841 215.329448 
L 325.683144 233.716676 
L 325.923971 238.673532 
L 325.942497 238.568076 
L 326.016598 236.083471 
L 326.368577 222.809298 
L 326.553829 210.971351 
L 326.868758 195.898695 
L 327.202212 180.01637 
L 327.239262 180.248461 
L 327.331888 183.461107 
L 327.554191 204.474577 
L 327.887645 240.217862 
L 327.961746 238.811198 
L 328.091423 226.908389 
L 328.702755 147.469407 
L 328.758331 148.388062 
L 328.869482 156.295911 
L 329.221461 182.428172 
L 329.258512 182.242852 
L 329.332613 181.113727 
L 329.369663 181.487454 
L 329.480814 186.986591 
L 329.721642 204.268961 
L 329.777218 203.097036 
L 329.980995 187.155585 
L 330.370025 156.015285 
L 330.444126 157.400769 
L 330.833156 177.046404 
L 330.944307 175.292928 
L 331.055458 169.544493 
L 331.574165 137.636882 
L 331.62974 137.986342 
L 331.852043 140.051331 
L 331.889094 139.798502 
L 331.926144 139.450807 
L 331.98172 139.845273 
L 332.092871 143.68227 
L 332.4078 168.524353 
L 333.000607 213.862335 
L 333.056183 214.611997 
L 333.093233 214.172084 
L 333.204384 209.842225 
L 333.408162 189.352062 
L 333.760141 156.86952 
L 333.797192 156.998802 
L 333.871292 158.626966 
L 334.093595 163.488515 
L 334.149171 165.01696 
L 334.389999 181.618502 
L 334.482625 177.638985 
L 334.760503 156.306501 
L 334.816079 157.608591 
L 334.945755 171.165598 
L 335.297735 203.186607 
L 335.445936 209.405401 
L 335.482987 208.785904 
L 335.668239 199.969989 
L 335.983168 180.971648 
L 336.020218 181.737195 
L 336.13137 190.760491 
L 336.427773 211.405969 
L 336.724177 214.882034 
L 336.761227 214.708187 
L 336.909429 209.553215 
L 337.057631 204.837715 
L 337.113207 205.261303 
L 337.37256 210.125941 
L 337.40961 209.94018 
L 337.594862 205.86315 
L 337.872741 193.295838 
L 338.243245 156.039112 
L 338.335871 159.444137 
L 338.6508 177.220693 
L 338.947204 204.18998 
L 338.965729 204.156446 
L 339.132456 202.312075 
L 339.410334 192.670606 
L 339.46591 193.279954 
L 339.50296 193.610882 
L 339.558536 193.181117 
L 339.706738 188.297947 
L 340.058717 166.152263 
L 340.151343 167.082391 
L 340.262495 167.693063 
L 340.373646 174.055259 
L 340.577423 186.439898 
L 340.614474 185.91615 
L 340.836777 177.192012 
L 340.892352 178.390853 
L 341.040554 183.242254 
L 341.09613 181.815293 
L 341.411058 162.872107 
L 341.800088 135.215373 
L 341.818613 135.187134 
L 341.837139 135.349509 
L 342.152067 143.782872 
L 342.300269 157.349585 
L 342.689299 191.613402 
L 342.80045 195.573063 
L 342.837501 195.310527 
L 342.948652 190.467509 
L 343.393257 165.371715 
L 343.467358 167.024589 
L 343.930489 185.533156 
L 343.986065 184.525812 
L 344.152792 176.346161 
L 344.634447 145.4481 
L 344.690023 145.250867 
L 344.727074 145.377502 
L 344.8197 147.513531 
L 345.042002 157.045132 
L 345.449557 182.629817 
L 345.486608 182.910002 
L 345.523658 182.579957 
L 345.653335 178.716486 
L 345.875637 172.914661 
L 345.912688 172.773465 
L 345.949738 172.98923 
L 346.079415 176.580899 
L 346.727798 213.506698 
L 346.783373 211.876328 
L 347.116827 198.159594 
L 347.172403 198.493169 
L 347.227979 197.747037 
L 347.357655 191.540157 
L 348.006038 152.976486 
L 348.209816 148.065959 
L 348.339492 145.035102 
L 348.376543 145.217775 
L 348.487694 147.691349 
L 348.654421 151.817797 
L 348.691471 151.536729 
L 348.876724 148.906074 
L 348.913774 149.519835 
L 349.0064 156.58448 
L 349.43248 199.349169 
L 349.488056 199.958517 
L 349.525106 199.579494 
L 349.617733 194.297005 
L 349.988237 171.356212 
L 350.062338 169.617297 
L 350.099388 170.073095 
L 350.358742 181.164469 
L 350.747771 205.001414 
L 350.803347 204.162623 
L 350.970074 196.501866 
L 351.155326 174.821246 
L 351.433205 146.351312 
L 351.45173 146.241886 
L 351.48878 146.631939 
L 351.636982 149.850322 
L 351.692558 149.266124 
L 351.785184 148.192153 
L 351.840759 148.352322 
L 351.87781 148.426891 
L 351.896335 148.350116 
L 351.970436 146.188937 
L 352.174213 136.038722 
L 352.229789 136.980763 
L 352.489142 142.024101 
L 352.526193 141.918646 
L 352.563243 141.695821 
L 352.600294 141.940708 
L 352.69292 146.136871 
L 353.081949 184.137524 
L 353.415403 215.388133 
L 353.526555 217.889064 
L 353.563605 217.736396 
L 353.637706 217.025563 
L 353.730332 211.766901 
L 354.415766 143.559165 
L 354.489866 145.472368 
L 354.656593 161.148195 
L 355.119724 214.266508 
L 355.138249 214.25989 
L 355.21235 212.908381 
L 355.342027 204.22572 
L 355.564329 191.082594 
L 355.60138 191.36675 
L 355.786632 195.477755 
L 355.842208 194.74442 
L 355.953359 189.341473 
L 356.675843 138.419636 
L 356.731418 139.403154 
L 356.87962 149.447472 
L 357.639154 206.591632 
L 357.879982 217.000854 
L 357.898508 216.854363 
L 357.972608 214.017651 
L 358.54689 178.330404 
L 358.583941 179.11007 
L 359.028546 201.619333 
L 359.195273 208.017269 
L 359.232324 207.617067 
L 359.343475 203.048058 
L 359.769555 184.985581 
L 359.973333 183.275347 
L 360.065959 181.925603 
L 360.380888 168.57333 
L 360.547615 162.253493 
L 360.56614 162.328945 
L 360.658766 164.101835 
L 360.806968 172.434154 
L 361.084846 196.771021 
L 361.344199 217.65212 
L 361.362724 217.432825 
L 361.473876 211.899713 
L 362.177834 168.153273 
L 362.196359 168.378745 
L 362.288986 172.447832 
L 362.678015 201.838628 
L 362.752116 200.172076 
L 363.196722 180.688374 
L 363.344923 181.041364 
L 363.363449 181.07225 
L 363.381974 181.022391 
L 363.456075 180.628366 
L 363.493125 180.815892 
L 363.585751 183.953528 
L 363.771004 186.857308 
L 363.826579 186.303556 
L 363.956256 184.797614 
L 364.011831 184.80335 
L 364.122983 184.350641 
L 364.252659 182.901178 
L 364.28971 183.155771 
L 364.437912 184.625973 
L 364.474962 184.141054 
L 364.604639 178.686041 
L 364.938093 163.833563 
L 364.956618 163.78988 
L 364.993668 163.91475 
L 365.253021 167.029001 
L 365.345648 168.159009 
L 365.382698 167.731892 
L 365.549425 160.954933 
L 366.123707 141.340184 
L 366.197808 141.858196 
L 366.290434 145.738434 
L 366.494211 171.301499 
L 366.827665 205.805789 
L 366.864716 206.34101 
L 366.920292 206.002581 
L 367.049968 201.973205 
L 367.401947 178.808263 
L 367.550149 179.208907 
L 367.902128 175.531196 
L 367.920654 175.643271 
L 367.994755 178.370556 
L 368.624612 220.520601 
L 368.717238 218.906115 
L 368.86544 206.731063 
L 369.235944 178.525872 
L 369.476772 169.691866 
L 369.513823 170.168402 
L 369.68055 175.127023 
L 369.736126 174.3553 
L 369.921378 166.540552 
L 370.06958 161.360871 
L 370.10663 161.783135 
L 370.199256 169.84674 
L 370.773538 235.429999 
L 370.829114 233.718 
L 370.995841 217.403262 
L 371.533072 143.983635 
L 371.607173 146.220265 
L 372.533434 210.037693 
L 372.55196 210.020926 
L 372.62606 208.366288 
L 373.052141 188.259118 
L 373.181817 182.675706 
L 373.237393 183.257256 
L 373.330019 184.691717 
L 373.40412 184.464039 
L 373.44117 184.584056 
L 373.459695 184.458744 
L 373.570847 182.05665 
L 373.811675 171.793478 
L 373.904301 173.409288 
L 374.052503 183.032225 
L 374.515633 213.62848 
L 374.571209 212.326831 
L 374.719411 202.204854 
L 375.126966 170.309598 
L 375.256642 167.008704 
L 375.293693 167.289331 
L 375.478945 172.120876 
L 375.682722 184.653771 
L 376.127328 219.135559 
L 376.182903 217.687419 
L 376.479307 198.783944 
L 376.794236 171.338121 
L 376.831286 171.734352 
L 376.923912 177.926231 
L 377.331467 216.736112 
L 377.405568 214.651267 
L 377.609346 196.982373 
L 377.831648 185.993366 
L 377.905749 184.883655 
L 377.9428 185.425053 
L 378.053951 192.526762 
L 378.276254 205.778433 
L 378.313304 205.550754 
L 378.442981 199.780257 
L 378.906111 179.638671 
L 378.943162 179.883999 
L 379.035788 183.24799 
L 379.295141 208.158906 
L 379.480393 217.286334 
L 379.498918 217.162347 
L 379.61007 213.849098 
L 379.924999 203.137629 
L 379.962049 203.363543 
L 380.110251 209.136246 
L 380.239927 212.545684 
L 380.276978 212.011788 
L 380.42518 203.568277 
L 380.666008 192.370123 
L 380.684533 192.487934 
L 380.777159 195.915462 
L 381.258815 217.541369 
L 381.27734 217.60932 
L 381.295865 217.539163 
L 381.425542 214.711717 
L 381.462592 214.410352 
L 381.499643 214.706863 
L 381.66637 218.991274 
L 381.833097 228.580236 
L 381.944248 233.954944 
L 381.981298 233.117917 
L 382.09245 223.476007 
L 382.462954 188.046442 
L 382.481479 188.024822 
L 382.537055 189.23337 
L 382.796408 200.494179 
L 382.851984 199.483305 
L 383.055761 195.747792 
L 383.074287 195.801182 
L 383.111337 195.556296 
L 383.278064 193.807232 
L 383.296589 193.836795 
L 383.352165 194.079917 
L 383.37069 193.895921 
L 383.907922 185.829668 
L 383.926447 185.754657 
L 383.963497 186.006604 
L 384.204325 192.183921 
L 384.352527 201.155593 
L 384.61188 219.991117 
L 384.667456 218.23014 
L 384.926809 194.119628 
L 385.38994 161.24306 
L 385.501091 160.051721 
L 385.519616 160.120112 
L 385.630767 162.024491 
L 385.778969 168.716732 
L 385.927171 188.568425 
L 386.186524 219.605035 
L 386.260625 217.57005 
L 386.946058 192.999768 
L 387.038684 192.262461 
L 387.075735 192.559855 
L 387.335088 195.841335 
L 387.48329 200.941152 
L 387.538866 200.668908 
L 387.594441 200.535214 
L 387.612966 200.585515 
L 387.705593 202.704776 
L 387.835269 209.62999 
L 388.057572 218.333831 
L 388.076097 218.187782 
L 388.187248 214.056038 
L 388.391026 193.088457 
L 388.687429 164.032561 
L 388.72448 164.333484 
L 388.983833 171.76921 
L 389.57664 193.960783 
L 389.632216 194.722799 
L 389.687791 194.259941 
L 389.798943 191.042441 
L 389.947145 176.51692 
L 390.558477 109.985884 
L 390.577002 110.200325 
L 390.688154 116.583701 
L 390.984557 155.308864 
L 391.59589 236.847693 
L 391.614415 236.837545 
L 391.66999 235.034651 
L 391.966394 207.532791 
L 392.262798 187.863329 
L 392.429525 186.603597 
L 392.466575 186.876723 
L 392.707403 190.983757 
L 393.077907 204.735348 
L 393.133483 203.993629 
L 393.355786 199.302839 
L 393.429887 198.753057 
L 393.466937 198.941024 
L 393.578088 200.026909 
L 393.615139 199.721131 
L 393.818916 195.850601 
L 393.874492 196.590555 
L 394.041219 202.99158 
L 394.133845 205.186734 
L 394.170896 204.876544 
L 394.282047 199.839824 
L 394.578451 187.036009 
L 394.596976 187.230595 
L 394.689602 190.88139 
L 394.986005 207.064638 
L 395.041581 206.038763 
L 395.375035 196.836765 
L 395.412086 197.026056 
L 395.504712 200.043676 
L 395.634388 203.065708 
L 395.671439 202.958487 
L 395.764065 202.887007 
L 395.78259 202.924512 
L 395.838166 203.810075 
L 395.967842 205.943455 
L 396.004893 205.518103 
L 396.060468 204.670928 
L 396.116044 205.025241 
L 396.190145 205.98096 
L 396.227195 205.612528 
L 396.319822 202.040273 
L 396.708851 171.613894 
L 396.949679 162.644429 
L 397.116406 159.826249 
L 397.153457 160.552966 
L 397.375759 172.96761 
L 397.746264 199.672595 
L 397.820365 198.213425 
L 397.968566 188.447527 
L 398.339071 145.951993 
L 398.431697 149.791637 
L 398.487273 154.216803 
L 398.487273 154.216803 
" style="fill:none;stroke:#1f77b4;stroke-linecap:square;stroke-width:1.5;"/>
   </g>
   <g id="patch_3">
    <path d="M 57.6 307.584 
L 57.6 41.472 
" style="fill:none;stroke:#000000;stroke-linecap:square;stroke-linejoin:miter;stroke-width:0.8;"/>
   </g>
   <g id="patch_4">
    <path d="M 414.72 307.584 
L 414.72 41.472 
" style="fill:none;stroke:#000000;stroke-linecap:square;stroke-linejoin:miter;stroke-width:0.8;"/>
   </g>
   <g id="patch_5">
    <path d="M 57.6 307.584 
L 414.72 307.584 
" style="fill:none;stroke:#000000;stroke-linecap:square;stroke-linejoin:miter;stroke-width:0.8;"/>
   </g>
   <g id="patch_6">
    <path d="M 57.6 41.472 
L 414.72 41.472 
" style="fill:none;stroke:#000000;stroke-linecap:square;stroke-linejoin:miter;stroke-width:0.8;"/>
   </g>
   <g id="text_17">
    <!-- $\rho(t); \rho = 1.02 \pm 0.00024$ -->
    <defs>
     <path d="M 11.71875 51.703125 
L 22.015625 51.703125 
L 22.015625 39.3125 
L 11.71875 39.3125 
z
M 11.71875 12.40625 
L 22.015625 12.40625 
L 22.015625 4 
L 14.015625 -11.625 
L 7.71875 -11.625 
L 11.71875 4 
z
" id="DejaVuSans-59"/>
     <path d="M 10.59375 45.40625 
L 73.1875 45.40625 
L 73.1875 37.203125 
L 10.59375 37.203125 
z
M 10.59375 25.484375 
L 73.1875 25.484375 
L 73.1875 17.1875 
L 10.59375 17.1875 
z
" id="DejaVuSans-61"/>
     <path d="M 46 62.703125 
L 46 43.796875 
L 73.1875 43.796875 
L 73.1875 35.5 
L 46 35.5 
L 46 16.609375 
L 37.796875 16.609375 
L 37.796875 35.5 
L 10.59375 35.5 
L 10.59375 43.796875 
L 37.796875 43.796875 
L 37.796875 62.703125 
z
M 10.59375 8.296875 
L 73.1875 8.296875 
L 73.1875 0 
L 10.59375 0 
z
" id="DejaVuSans-177"/>
    </defs>
    <g transform="translate(165.36 35.472)scale(0.12 -0.12)">
     <use transform="translate(0 0.125)" xlink:href="#DejaVuSans-Oblique-961"/>
     <use transform="translate(63.476562 0.125)" xlink:href="#DejaVuSans-40"/>
     <use transform="translate(102.490234 0.125)" xlink:href="#DejaVuSans-Oblique-116"/>
     <use transform="translate(141.699219 0.125)" xlink:href="#DejaVuSans-41"/>
     <use transform="translate(180.712891 0.125)" xlink:href="#DejaVuSans-59"/>
     <use transform="translate(233.886719 0.125)" xlink:href="#DejaVuSans-Oblique-961"/>
     <use transform="translate(316.845703 0.125)" xlink:href="#DejaVuSans-61"/>
     <use transform="translate(420.117188 0.125)" xlink:href="#DejaVuSans-49"/>
     <use transform="translate(483.740234 0.125)" xlink:href="#DejaVuSans-46"/>
     <use transform="translate(515.527344 0.125)" xlink:href="#DejaVuSans-48"/>
     <use transform="translate(579.150391 0.125)" xlink:href="#DejaVuSans-50"/>
     <use transform="translate(662.255859 0.125)" xlink:href="#DejaVuSans-177"/>
     <use transform="translate(765.527344 0.125)" xlink:href="#DejaVuSans-48"/>
     <use transform="translate(829.150391 0.125)" xlink:href="#DejaVuSans-46"/>
     <use transform="translate(860.9375 0.125)" xlink:href="#DejaVuSans-48"/>
     <use transform="translate(924.560547 0.125)" xlink:href="#DejaVuSans-48"/>
     <use transform="translate(988.183594 0.125)" xlink:href="#DejaVuSans-48"/>
     <use transform="translate(1051.806641 0.125)" xlink:href="#DejaVuSans-50"/>
     <use transform="translate(1115.429688 0.125)" xlink:href="#DejaVuSans-52"/>
    </g>
   </g>
  </g>
 </g>
 <defs>
  <clipPath id="pe608b3c224">
   <rect height="266.112" width="357.12" x="57.6" y="41.472"/>
  </clipPath>
 </defs>
</svg>
