<?xml version="1.0" encoding="utf-8" standalone="no"?>
<!DOCTYPE svg PUBLIC "-//W3C//DTD SVG 1.1//EN"
  "http://www.w3.org/Graphics/SVG/1.1/DTD/svg11.dtd">
<!-- Created with matplotlib (https://matplotlib.org/) -->
<svg height="345.6pt" version="1.1" viewBox="0 0 460.8 345.6" width="460.8pt" xmlns="http://www.w3.org/2000/svg" xmlns:xlink="http://www.w3.org/1999/xlink">
 <defs>
  <style type="text/css">
*{stroke-linecap:butt;stroke-linejoin:round;}
  </style>
 </defs>
 <g id="figure_1">
  <g id="patch_1">
   <path d="M 0 345.6 
L 460.8 345.6 
L 460.8 0 
L 0 0 
z
" style="fill:#ffffff;"/>
  </g>
  <g id="axes_1">
   <g id="patch_2">
    <path d="M 57.6 307.584 
L 414.72 307.584 
L 414.72 41.472 
L 57.6 41.472 
z
" style="fill:#ffffff;"/>
   </g>
   <g id="matplotlib.axis_1">
    <g id="xtick_1">
     <g id="line2d_1">
      <defs>
       <path d="M 0 0 
L 0 3.5 
" id="m71542dcce9" style="stroke:#000000;stroke-width:0.8;"/>
      </defs>
      <g>
       <use style="stroke:#000000;stroke-width:0.8;" x="73.832727" xlink:href="#m71542dcce9" y="307.584"/>
      </g>
     </g>
     <g id="text_1">
      <!-- 0 -->
      <defs>
       <path d="M 31.78125 66.40625 
Q 24.171875 66.40625 20.328125 58.90625 
Q 16.5 51.421875 16.5 36.375 
Q 16.5 21.390625 20.328125 13.890625 
Q 24.171875 6.390625 31.78125 6.390625 
Q 39.453125 6.390625 43.28125 13.890625 
Q 47.125 21.390625 47.125 36.375 
Q 47.125 51.421875 43.28125 58.90625 
Q 39.453125 66.40625 31.78125 66.40625 
z
M 31.78125 74.21875 
Q 44.046875 74.21875 50.515625 64.515625 
Q 56.984375 54.828125 56.984375 36.375 
Q 56.984375 17.96875 50.515625 8.265625 
Q 44.046875 -1.421875 31.78125 -1.421875 
Q 19.53125 -1.421875 13.0625 8.265625 
Q 6.59375 17.96875 6.59375 36.375 
Q 6.59375 54.828125 13.0625 64.515625 
Q 19.53125 74.21875 31.78125 74.21875 
z
" id="DejaVuSans-48"/>
      </defs>
      <g transform="translate(70.651477 322.182437)scale(0.1 -0.1)">
       <use xlink:href="#DejaVuSans-48"/>
      </g>
     </g>
    </g>
    <g id="xtick_2">
     <g id="line2d_2">
      <g>
       <use style="stroke:#000000;stroke-width:0.8;" x="150.222032" xlink:href="#m71542dcce9" y="307.584"/>
      </g>
     </g>
     <g id="text_2">
      <!-- 5 -->
      <defs>
       <path d="M 10.796875 72.90625 
L 49.515625 72.90625 
L 49.515625 64.59375 
L 19.828125 64.59375 
L 19.828125 46.734375 
Q 21.96875 47.46875 24.109375 47.828125 
Q 26.265625 48.1875 28.421875 48.1875 
Q 40.625 48.1875 47.75 41.5 
Q 54.890625 34.8125 54.890625 23.390625 
Q 54.890625 11.625 47.5625 5.09375 
Q 40.234375 -1.421875 26.90625 -1.421875 
Q 22.3125 -1.421875 17.546875 -0.640625 
Q 12.796875 0.140625 7.71875 1.703125 
L 7.71875 11.625 
Q 12.109375 9.234375 16.796875 8.0625 
Q 21.484375 6.890625 26.703125 6.890625 
Q 35.15625 6.890625 40.078125 11.328125 
Q 45.015625 15.765625 45.015625 23.390625 
Q 45.015625 31 40.078125 35.4375 
Q 35.15625 39.890625 26.703125 39.890625 
Q 22.75 39.890625 18.8125 39.015625 
Q 14.890625 38.140625 10.796875 36.28125 
z
" id="DejaVuSans-53"/>
      </defs>
      <g transform="translate(147.040782 322.182437)scale(0.1 -0.1)">
       <use xlink:href="#DejaVuSans-53"/>
      </g>
     </g>
    </g>
    <g id="xtick_3">
     <g id="line2d_3">
      <g>
       <use style="stroke:#000000;stroke-width:0.8;" x="226.611337" xlink:href="#m71542dcce9" y="307.584"/>
      </g>
     </g>
     <g id="text_3">
      <!-- 10 -->
      <defs>
       <path d="M 12.40625 8.296875 
L 28.515625 8.296875 
L 28.515625 63.921875 
L 10.984375 60.40625 
L 10.984375 69.390625 
L 28.421875 72.90625 
L 38.28125 72.90625 
L 38.28125 8.296875 
L 54.390625 8.296875 
L 54.390625 0 
L 12.40625 0 
z
" id="DejaVuSans-49"/>
      </defs>
      <g transform="translate(220.248837 322.182437)scale(0.1 -0.1)">
       <use xlink:href="#DejaVuSans-49"/>
       <use x="63.623047" xlink:href="#DejaVuSans-48"/>
      </g>
     </g>
    </g>
    <g id="xtick_4">
     <g id="line2d_4">
      <g>
       <use style="stroke:#000000;stroke-width:0.8;" x="303.000642" xlink:href="#m71542dcce9" y="307.584"/>
      </g>
     </g>
     <g id="text_4">
      <!-- 15 -->
      <g transform="translate(296.638142 322.182437)scale(0.1 -0.1)">
       <use xlink:href="#DejaVuSans-49"/>
       <use x="63.623047" xlink:href="#DejaVuSans-53"/>
      </g>
     </g>
    </g>
    <g id="xtick_5">
     <g id="line2d_5">
      <g>
       <use style="stroke:#000000;stroke-width:0.8;" x="379.389947" xlink:href="#m71542dcce9" y="307.584"/>
      </g>
     </g>
     <g id="text_5">
      <!-- 20 -->
      <defs>
       <path d="M 19.1875 8.296875 
L 53.609375 8.296875 
L 53.609375 0 
L 7.328125 0 
L 7.328125 8.296875 
Q 12.9375 14.109375 22.625 23.890625 
Q 32.328125 33.6875 34.8125 36.53125 
Q 39.546875 41.84375 41.421875 45.53125 
Q 43.3125 49.21875 43.3125 52.78125 
Q 43.3125 58.59375 39.234375 62.25 
Q 35.15625 65.921875 28.609375 65.921875 
Q 23.96875 65.921875 18.8125 64.3125 
Q 13.671875 62.703125 7.8125 59.421875 
L 7.8125 69.390625 
Q 13.765625 71.78125 18.9375 73 
Q 24.125 74.21875 28.421875 74.21875 
Q 39.75 74.21875 46.484375 68.546875 
Q 53.21875 62.890625 53.21875 53.421875 
Q 53.21875 48.921875 51.53125 44.890625 
Q 49.859375 40.875 45.40625 35.40625 
Q 44.1875 33.984375 37.640625 27.21875 
Q 31.109375 20.453125 19.1875 8.296875 
z
" id="DejaVuSans-50"/>
      </defs>
      <g transform="translate(373.027447 322.182437)scale(0.1 -0.1)">
       <use xlink:href="#DejaVuSans-50"/>
       <use x="63.623047" xlink:href="#DejaVuSans-48"/>
      </g>
     </g>
    </g>
    <g id="text_6">
     <!-- $time (ps)$ -->
     <defs>
      <path d="M 42.28125 54.6875 
L 40.921875 47.703125 
L 23 47.703125 
L 17.1875 18.015625 
Q 16.890625 16.359375 16.75 15.234375 
Q 16.609375 14.109375 16.609375 13.484375 
Q 16.609375 10.359375 18.484375 8.9375 
Q 20.359375 7.515625 24.515625 7.515625 
L 33.59375 7.515625 
L 32.078125 0 
L 23.484375 0 
Q 15.484375 0 11.546875 3.125 
Q 7.625 6.25 7.625 12.59375 
Q 7.625 13.71875 7.765625 15.0625 
Q 7.90625 16.40625 8.203125 18.015625 
L 14.015625 47.703125 
L 6.390625 47.703125 
L 7.8125 54.6875 
L 15.28125 54.6875 
L 18.3125 70.21875 
L 27.296875 70.21875 
L 24.3125 54.6875 
z
" id="DejaVuSans-Oblique-116"/>
      <path d="M 18.3125 75.984375 
L 27.296875 75.984375 
L 25.09375 64.59375 
L 16.109375 64.59375 
z
M 14.203125 54.6875 
L 23.1875 54.6875 
L 12.5 0 
L 3.515625 0 
z
" id="DejaVuSans-Oblique-105"/>
      <path d="M 89.796875 33.015625 
L 83.40625 0 
L 74.421875 0 
L 80.71875 32.71875 
Q 81.109375 34.8125 81.296875 36.328125 
Q 81.5 37.84375 81.5 38.921875 
Q 81.5 43.3125 79.046875 45.75 
Q 76.609375 48.1875 72.21875 48.1875 
Q 65.671875 48.1875 60.546875 43.28125 
Q 55.421875 38.375 53.90625 30.515625 
L 47.90625 0 
L 38.921875 0 
L 45.3125 32.71875 
Q 45.703125 34.515625 45.890625 36.046875 
Q 46.09375 37.59375 46.09375 38.8125 
Q 46.09375 43.265625 43.65625 45.71875 
Q 41.21875 48.1875 36.921875 48.1875 
Q 30.28125 48.1875 25.140625 43.28125 
Q 20.015625 38.375 18.5 30.515625 
L 12.5 0 
L 3.515625 0 
L 14.203125 54.6875 
L 23.1875 54.6875 
L 21.484375 46.1875 
Q 25.140625 50.984375 30.046875 53.484375 
Q 34.96875 56 40.578125 56 
Q 46.53125 56 50.359375 52.875 
Q 54.203125 49.75 54.984375 44.1875 
Q 59.078125 49.953125 64.46875 52.96875 
Q 69.875 56 75.875 56 
Q 82.90625 56 86.734375 51.953125 
Q 90.578125 47.90625 90.578125 40.484375 
Q 90.578125 38.875 90.375 36.9375 
Q 90.1875 35.015625 89.796875 33.015625 
z
" id="DejaVuSans-Oblique-109"/>
      <path d="M 48.09375 32.234375 
Q 48.25 33.015625 48.3125 33.84375 
Q 48.390625 34.671875 48.390625 35.5 
Q 48.390625 41.453125 44.890625 44.921875 
Q 41.40625 48.390625 35.40625 48.390625 
Q 28.71875 48.390625 23.578125 44.15625 
Q 18.453125 39.9375 15.828125 32.171875 
z
M 55.90625 25.203125 
L 14.109375 25.203125 
Q 13.8125 23.34375 13.71875 22.265625 
Q 13.625 21.1875 13.625 20.40625 
Q 13.625 13.625 17.796875 9.90625 
Q 21.96875 6.203125 29.59375 6.203125 
Q 35.453125 6.203125 40.671875 7.515625 
Q 45.90625 8.84375 50.390625 11.375 
L 48.6875 2.484375 
Q 43.84375 0.53125 38.6875 -0.4375 
Q 33.546875 -1.421875 28.21875 -1.421875 
Q 16.84375 -1.421875 10.71875 4.015625 
Q 4.59375 9.46875 4.59375 19.484375 
Q 4.59375 28.03125 7.640625 35.375 
Q 10.6875 42.71875 16.609375 48.484375 
Q 20.40625 52.09375 25.65625 54.046875 
Q 30.90625 56 36.8125 56 
Q 46.09375 56 51.578125 50.4375 
Q 57.078125 44.875 57.078125 35.5 
Q 57.078125 33.25 56.78125 30.6875 
Q 56.5 28.125 55.90625 25.203125 
z
" id="DejaVuSans-Oblique-101"/>
      <path d="M 31 75.875 
Q 24.46875 64.65625 21.28125 53.65625 
Q 18.109375 42.671875 18.109375 31.390625 
Q 18.109375 20.125 21.3125 9.0625 
Q 24.515625 -2 31 -13.1875 
L 23.1875 -13.1875 
Q 15.875 -1.703125 12.234375 9.375 
Q 8.59375 20.453125 8.59375 31.390625 
Q 8.59375 42.28125 12.203125 53.3125 
Q 15.828125 64.359375 23.1875 75.875 
z
" id="DejaVuSans-40"/>
      <path d="M 49.609375 33.6875 
Q 49.609375 40.875 46.484375 44.671875 
Q 43.359375 48.484375 37.5 48.484375 
Q 33.5 48.484375 29.859375 46.4375 
Q 26.21875 44.390625 23.390625 40.484375 
Q 20.609375 36.625 18.9375 31.15625 
Q 17.28125 25.6875 17.28125 20.3125 
Q 17.28125 13.484375 20.40625 9.796875 
Q 23.53125 6.109375 29.296875 6.109375 
Q 33.546875 6.109375 37.1875 8.109375 
Q 40.828125 10.109375 43.40625 13.921875 
Q 46.1875 17.921875 47.890625 23.34375 
Q 49.609375 28.765625 49.609375 33.6875 
z
M 21.78125 46.390625 
Q 25.390625 51.125 30.296875 53.5625 
Q 35.203125 56 41.21875 56 
Q 49.609375 56 54.25 50.5 
Q 58.890625 45.015625 58.890625 35.109375 
Q 58.890625 27 56 19.65625 
Q 53.125 12.3125 47.703125 6.5 
Q 44.09375 2.640625 39.546875 0.609375 
Q 35.015625 -1.421875 29.984375 -1.421875 
Q 24.171875 -1.421875 20.21875 1 
Q 16.265625 3.421875 14.3125 8.203125 
L 8.6875 -20.796875 
L -0.296875 -20.796875 
L 14.40625 54.6875 
L 23.390625 54.6875 
z
" id="DejaVuSans-Oblique-112"/>
      <path d="M 50 53.078125 
L 48.296875 44.578125 
Q 44.734375 46.53125 40.765625 47.5 
Q 36.8125 48.484375 32.625 48.484375 
Q 25.53125 48.484375 21.453125 46.0625 
Q 17.390625 43.65625 17.390625 39.5 
Q 17.390625 34.671875 26.859375 32.078125 
Q 27.59375 31.890625 27.9375 31.78125 
L 30.8125 30.90625 
Q 39.796875 28.421875 42.796875 25.6875 
Q 45.796875 22.953125 45.796875 18.21875 
Q 45.796875 9.515625 38.890625 4.046875 
Q 31.984375 -1.421875 20.796875 -1.421875 
Q 16.453125 -1.421875 11.671875 -0.578125 
Q 6.890625 0.25 1.125 2 
L 2.875 11.28125 
Q 7.8125 8.734375 12.59375 7.421875 
Q 17.390625 6.109375 21.78125 6.109375 
Q 28.375 6.109375 32.5 8.9375 
Q 36.625 11.765625 36.625 16.109375 
Q 36.625 20.796875 25.78125 23.6875 
L 24.859375 23.921875 
L 21.78125 24.703125 
Q 14.9375 26.515625 11.765625 29.46875 
Q 8.59375 32.421875 8.59375 37.015625 
Q 8.59375 45.75 15.15625 50.875 
Q 21.734375 56 33.015625 56 
Q 37.453125 56 41.671875 55.265625 
Q 45.90625 54.546875 50 53.078125 
z
" id="DejaVuSans-Oblique-115"/>
      <path d="M 8.015625 75.875 
L 15.828125 75.875 
Q 23.140625 64.359375 26.78125 53.3125 
Q 30.421875 42.28125 30.421875 31.390625 
Q 30.421875 20.453125 26.78125 9.375 
Q 23.140625 -1.703125 15.828125 -13.1875 
L 8.015625 -13.1875 
Q 14.5 -2 17.703125 9.0625 
Q 20.90625 20.125 20.90625 31.390625 
Q 20.90625 42.671875 17.703125 53.65625 
Q 14.5 64.65625 8.015625 75.875 
z
" id="DejaVuSans-41"/>
     </defs>
     <g transform="translate(215.16 335.862125)scale(0.1 -0.1)">
      <use transform="translate(0 0.015625)" xlink:href="#DejaVuSans-Oblique-116"/>
      <use transform="translate(39.208984 0.015625)" xlink:href="#DejaVuSans-Oblique-105"/>
      <use transform="translate(66.992188 0.015625)" xlink:href="#DejaVuSans-Oblique-109"/>
      <use transform="translate(164.404297 0.015625)" xlink:href="#DejaVuSans-Oblique-101"/>
      <use transform="translate(225.927734 0.015625)" xlink:href="#DejaVuSans-40"/>
      <use transform="translate(264.941406 0.015625)" xlink:href="#DejaVuSans-Oblique-112"/>
      <use transform="translate(328.417969 0.015625)" xlink:href="#DejaVuSans-Oblique-115"/>
      <use transform="translate(380.517578 0.015625)" xlink:href="#DejaVuSans-41"/>
     </g>
    </g>
   </g>
   <g id="matplotlib.axis_2">
    <g id="ytick_1">
     <g id="line2d_6">
      <defs>
       <path d="M 0 0 
L -3.5 0 
" id="meb8e857e9c" style="stroke:#000000;stroke-width:0.8;"/>
      </defs>
      <g>
       <use style="stroke:#000000;stroke-width:0.8;" x="57.6" xlink:href="#meb8e857e9c" y="304.812516"/>
      </g>
     </g>
     <g id="text_7">
      <!-- −11.2 -->
      <defs>
       <path d="M 10.59375 35.5 
L 73.1875 35.5 
L 73.1875 27.203125 
L 10.59375 27.203125 
z
" id="DejaVuSans-8722"/>
       <path d="M 10.6875 12.40625 
L 21 12.40625 
L 21 0 
L 10.6875 0 
z
" id="DejaVuSans-46"/>
      </defs>
      <g transform="translate(19.954687 308.611735)scale(0.1 -0.1)">
       <use xlink:href="#DejaVuSans-8722"/>
       <use x="83.789062" xlink:href="#DejaVuSans-49"/>
       <use x="147.412109" xlink:href="#DejaVuSans-49"/>
       <use x="211.035156" xlink:href="#DejaVuSans-46"/>
       <use x="242.822266" xlink:href="#DejaVuSans-50"/>
      </g>
     </g>
    </g>
    <g id="ytick_2">
     <g id="line2d_7">
      <g>
       <use style="stroke:#000000;stroke-width:0.8;" x="57.6" xlink:href="#meb8e857e9c" y="262.983215"/>
      </g>
     </g>
     <g id="text_8">
      <!-- −11.0 -->
      <g transform="translate(19.954687 266.782434)scale(0.1 -0.1)">
       <use xlink:href="#DejaVuSans-8722"/>
       <use x="83.789062" xlink:href="#DejaVuSans-49"/>
       <use x="147.412109" xlink:href="#DejaVuSans-49"/>
       <use x="211.035156" xlink:href="#DejaVuSans-46"/>
       <use x="242.822266" xlink:href="#DejaVuSans-48"/>
      </g>
     </g>
    </g>
    <g id="ytick_3">
     <g id="line2d_8">
      <g>
       <use style="stroke:#000000;stroke-width:0.8;" x="57.6" xlink:href="#meb8e857e9c" y="221.153915"/>
      </g>
     </g>
     <g id="text_9">
      <!-- −10.8 -->
      <defs>
       <path d="M 31.78125 34.625 
Q 24.75 34.625 20.71875 30.859375 
Q 16.703125 27.09375 16.703125 20.515625 
Q 16.703125 13.921875 20.71875 10.15625 
Q 24.75 6.390625 31.78125 6.390625 
Q 38.8125 6.390625 42.859375 10.171875 
Q 46.921875 13.96875 46.921875 20.515625 
Q 46.921875 27.09375 42.890625 30.859375 
Q 38.875 34.625 31.78125 34.625 
z
M 21.921875 38.8125 
Q 15.578125 40.375 12.03125 44.71875 
Q 8.5 49.078125 8.5 55.328125 
Q 8.5 64.0625 14.71875 69.140625 
Q 20.953125 74.21875 31.78125 74.21875 
Q 42.671875 74.21875 48.875 69.140625 
Q 55.078125 64.0625 55.078125 55.328125 
Q 55.078125 49.078125 51.53125 44.71875 
Q 48 40.375 41.703125 38.8125 
Q 48.828125 37.15625 52.796875 32.3125 
Q 56.78125 27.484375 56.78125 20.515625 
Q 56.78125 9.90625 50.3125 4.234375 
Q 43.84375 -1.421875 31.78125 -1.421875 
Q 19.734375 -1.421875 13.25 4.234375 
Q 6.78125 9.90625 6.78125 20.515625 
Q 6.78125 27.484375 10.78125 32.3125 
Q 14.796875 37.15625 21.921875 38.8125 
z
M 18.3125 54.390625 
Q 18.3125 48.734375 21.84375 45.5625 
Q 25.390625 42.390625 31.78125 42.390625 
Q 38.140625 42.390625 41.71875 45.5625 
Q 45.3125 48.734375 45.3125 54.390625 
Q 45.3125 60.0625 41.71875 63.234375 
Q 38.140625 66.40625 31.78125 66.40625 
Q 25.390625 66.40625 21.84375 63.234375 
Q 18.3125 60.0625 18.3125 54.390625 
z
" id="DejaVuSans-56"/>
      </defs>
      <g transform="translate(19.954687 224.953133)scale(0.1 -0.1)">
       <use xlink:href="#DejaVuSans-8722"/>
       <use x="83.789062" xlink:href="#DejaVuSans-49"/>
       <use x="147.412109" xlink:href="#DejaVuSans-48"/>
       <use x="211.035156" xlink:href="#DejaVuSans-46"/>
       <use x="242.822266" xlink:href="#DejaVuSans-56"/>
      </g>
     </g>
    </g>
    <g id="ytick_4">
     <g id="line2d_9">
      <g>
       <use style="stroke:#000000;stroke-width:0.8;" x="57.6" xlink:href="#meb8e857e9c" y="179.324614"/>
      </g>
     </g>
     <g id="text_10">
      <!-- −10.6 -->
      <defs>
       <path d="M 33.015625 40.375 
Q 26.375 40.375 22.484375 35.828125 
Q 18.609375 31.296875 18.609375 23.390625 
Q 18.609375 15.53125 22.484375 10.953125 
Q 26.375 6.390625 33.015625 6.390625 
Q 39.65625 6.390625 43.53125 10.953125 
Q 47.40625 15.53125 47.40625 23.390625 
Q 47.40625 31.296875 43.53125 35.828125 
Q 39.65625 40.375 33.015625 40.375 
z
M 52.59375 71.296875 
L 52.59375 62.3125 
Q 48.875 64.0625 45.09375 64.984375 
Q 41.3125 65.921875 37.59375 65.921875 
Q 27.828125 65.921875 22.671875 59.328125 
Q 17.53125 52.734375 16.796875 39.40625 
Q 19.671875 43.65625 24.015625 45.921875 
Q 28.375 48.1875 33.59375 48.1875 
Q 44.578125 48.1875 50.953125 41.515625 
Q 57.328125 34.859375 57.328125 23.390625 
Q 57.328125 12.15625 50.6875 5.359375 
Q 44.046875 -1.421875 33.015625 -1.421875 
Q 20.359375 -1.421875 13.671875 8.265625 
Q 6.984375 17.96875 6.984375 36.375 
Q 6.984375 53.65625 15.1875 63.9375 
Q 23.390625 74.21875 37.203125 74.21875 
Q 40.921875 74.21875 44.703125 73.484375 
Q 48.484375 72.75 52.59375 71.296875 
z
" id="DejaVuSans-54"/>
      </defs>
      <g transform="translate(19.954687 183.123832)scale(0.1 -0.1)">
       <use xlink:href="#DejaVuSans-8722"/>
       <use x="83.789062" xlink:href="#DejaVuSans-49"/>
       <use x="147.412109" xlink:href="#DejaVuSans-48"/>
       <use x="211.035156" xlink:href="#DejaVuSans-46"/>
       <use x="242.822266" xlink:href="#DejaVuSans-54"/>
      </g>
     </g>
    </g>
    <g id="ytick_5">
     <g id="line2d_10">
      <g>
       <use style="stroke:#000000;stroke-width:0.8;" x="57.6" xlink:href="#meb8e857e9c" y="137.495313"/>
      </g>
     </g>
     <g id="text_11">
      <!-- −10.4 -->
      <defs>
       <path d="M 37.796875 64.3125 
L 12.890625 25.390625 
L 37.796875 25.390625 
z
M 35.203125 72.90625 
L 47.609375 72.90625 
L 47.609375 25.390625 
L 58.015625 25.390625 
L 58.015625 17.1875 
L 47.609375 17.1875 
L 47.609375 0 
L 37.796875 0 
L 37.796875 17.1875 
L 4.890625 17.1875 
L 4.890625 26.703125 
z
" id="DejaVuSans-52"/>
      </defs>
      <g transform="translate(19.954687 141.294532)scale(0.1 -0.1)">
       <use xlink:href="#DejaVuSans-8722"/>
       <use x="83.789062" xlink:href="#DejaVuSans-49"/>
       <use x="147.412109" xlink:href="#DejaVuSans-48"/>
       <use x="211.035156" xlink:href="#DejaVuSans-46"/>
       <use x="242.822266" xlink:href="#DejaVuSans-52"/>
      </g>
     </g>
    </g>
    <g id="ytick_6">
     <g id="line2d_11">
      <g>
       <use style="stroke:#000000;stroke-width:0.8;" x="57.6" xlink:href="#meb8e857e9c" y="95.666012"/>
      </g>
     </g>
     <g id="text_12">
      <!-- −10.2 -->
      <g transform="translate(19.954687 99.465231)scale(0.1 -0.1)">
       <use xlink:href="#DejaVuSans-8722"/>
       <use x="83.789062" xlink:href="#DejaVuSans-49"/>
       <use x="147.412109" xlink:href="#DejaVuSans-48"/>
       <use x="211.035156" xlink:href="#DejaVuSans-46"/>
       <use x="242.822266" xlink:href="#DejaVuSans-50"/>
      </g>
     </g>
    </g>
    <g id="ytick_7">
     <g id="line2d_12">
      <g>
       <use style="stroke:#000000;stroke-width:0.8;" x="57.6" xlink:href="#meb8e857e9c" y="53.836711"/>
      </g>
     </g>
     <g id="text_13">
      <!-- −10.0 -->
      <g transform="translate(19.954687 57.63593)scale(0.1 -0.1)">
       <use xlink:href="#DejaVuSans-8722"/>
       <use x="83.789062" xlink:href="#DejaVuSans-49"/>
       <use x="147.412109" xlink:href="#DejaVuSans-48"/>
       <use x="211.035156" xlink:href="#DejaVuSans-46"/>
       <use x="242.822266" xlink:href="#DejaVuSans-48"/>
      </g>
     </g>
    </g>
    <g id="text_14">
     <!-- $H (Mcal/mol)$ -->
     <defs>
      <path d="M 16.890625 72.90625 
L 26.8125 72.90625 
L 21 43.015625 
L 56.78125 43.015625 
L 62.59375 72.90625 
L 72.515625 72.90625 
L 58.296875 0 
L 48.390625 0 
L 55.171875 34.71875 
L 19.390625 34.71875 
L 12.59375 0 
L 2.6875 0 
z
" id="DejaVuSans-Oblique-72"/>
      <path d="M 16.890625 72.90625 
L 31.6875 72.90625 
L 40.1875 23.78125 
L 68.40625 72.90625 
L 83.59375 72.90625 
L 69.390625 0 
L 59.8125 0 
L 72.21875 63.921875 
L 43.609375 14.015625 
L 33.984375 14.015625 
L 24.703125 64.109375 
L 12.3125 0 
L 2.6875 0 
z
" id="DejaVuSans-Oblique-77"/>
      <path d="M 53.609375 52.59375 
L 51.8125 43.703125 
Q 48.578125 46.046875 44.9375 47.21875 
Q 41.3125 48.390625 37.40625 48.390625 
Q 33.109375 48.390625 29.21875 46.875 
Q 25.34375 45.359375 22.703125 42.578125 
Q 18.5 38.328125 16.203125 32.609375 
Q 13.921875 26.90625 13.921875 20.796875 
Q 13.921875 13.421875 17.609375 9.8125 
Q 21.296875 6.203125 28.8125 6.203125 
Q 32.515625 6.203125 36.6875 7.328125 
Q 40.875 8.453125 45.40625 10.6875 
L 43.703125 1.8125 
Q 39.796875 0.203125 35.671875 -0.609375 
Q 31.546875 -1.421875 27.203125 -1.421875 
Q 16.3125 -1.421875 10.453125 4.015625 
Q 4.59375 9.46875 4.59375 19.578125 
Q 4.59375 28.078125 7.640625 35.234375 
Q 10.6875 42.390625 16.703125 48.09375 
Q 20.796875 52 26.3125 54 
Q 31.84375 56 38.375 56 
Q 42.1875 56 45.9375 55.140625 
Q 49.703125 54.296875 53.609375 52.59375 
z
" id="DejaVuSans-Oblique-99"/>
      <path d="M 53.71875 31.203125 
L 47.609375 0 
L 38.625 0 
L 40.28125 8.296875 
Q 36.328125 3.421875 31.265625 1 
Q 26.21875 -1.421875 20.015625 -1.421875 
Q 13.03125 -1.421875 8.5625 2.84375 
Q 4.109375 7.125 4.109375 13.8125 
Q 4.109375 23.390625 11.75 28.953125 
Q 19.390625 34.515625 32.8125 34.515625 
L 45.3125 34.515625 
L 45.796875 36.921875 
Q 45.90625 37.3125 45.953125 37.765625 
Q 46 38.234375 46 39.203125 
Q 46 43.5625 42.453125 45.96875 
Q 38.921875 48.390625 32.515625 48.390625 
Q 28.125 48.390625 23.5 47.265625 
Q 18.890625 46.140625 14.015625 43.890625 
L 15.578125 52.203125 
Q 20.65625 54.109375 25.515625 55.046875 
Q 30.375 56 34.90625 56 
Q 44.578125 56 49.625 51.796875 
Q 54.6875 47.609375 54.6875 39.59375 
Q 54.6875 37.984375 54.4375 35.8125 
Q 54.203125 33.640625 53.71875 31.203125 
z
M 44 27.484375 
L 35.015625 27.484375 
Q 23.96875 27.484375 18.671875 24.53125 
Q 13.375 21.578125 13.375 15.375 
Q 13.375 11.078125 16.078125 8.640625 
Q 18.796875 6.203125 23.578125 6.203125 
Q 30.90625 6.203125 36.375 11.453125 
Q 41.84375 16.703125 43.609375 25.484375 
z
" id="DejaVuSans-Oblique-97"/>
      <path d="M 18.3125 75.984375 
L 27.296875 75.984375 
L 12.5 0 
L 3.515625 0 
z
" id="DejaVuSans-Oblique-108"/>
      <path d="M 25.390625 72.90625 
L 33.6875 72.90625 
L 8.296875 -9.28125 
L 0 -9.28125 
z
" id="DejaVuSans-47"/>
      <path d="M 25.390625 -1.421875 
Q 15.765625 -1.421875 10.171875 4.515625 
Q 4.59375 10.453125 4.59375 20.703125 
Q 4.59375 26.65625 6.515625 32.828125 
Q 8.453125 39.015625 11.53125 43.21875 
Q 16.359375 49.75 22.3125 52.875 
Q 28.265625 56 35.796875 56 
Q 45.125 56 50.859375 50.1875 
Q 56.59375 44.390625 56.59375 35.015625 
Q 56.59375 28.515625 54.6875 22.0625 
Q 52.78125 15.625 49.703125 11.375 
Q 44.921875 4.828125 38.96875 1.703125 
Q 33.015625 -1.421875 25.390625 -1.421875 
z
M 13.921875 21 
Q 13.921875 13.578125 17.015625 9.890625 
Q 20.125 6.203125 26.421875 6.203125 
Q 35.453125 6.203125 41.375 14.078125 
Q 47.3125 21.96875 47.3125 34.078125 
Q 47.3125 41.15625 44.140625 44.765625 
Q 40.96875 48.390625 34.8125 48.390625 
Q 29.734375 48.390625 25.78125 46.015625 
Q 21.828125 43.65625 18.703125 38.8125 
Q 16.40625 35.203125 15.15625 30.5625 
Q 13.921875 25.921875 13.921875 21 
z
" id="DejaVuSans-Oblique-111"/>
     </defs>
     <g transform="translate(13.875 204.728)rotate(-90)scale(0.1 -0.1)">
      <use transform="translate(0 0.015625)" xlink:href="#DejaVuSans-Oblique-72"/>
      <use transform="translate(75.195312 0.015625)" xlink:href="#DejaVuSans-40"/>
      <use transform="translate(114.208984 0.015625)" xlink:href="#DejaVuSans-Oblique-77"/>
      <use transform="translate(200.488281 0.015625)" xlink:href="#DejaVuSans-Oblique-99"/>
      <use transform="translate(255.46875 0.015625)" xlink:href="#DejaVuSans-Oblique-97"/>
      <use transform="translate(316.748047 0.015625)" xlink:href="#DejaVuSans-Oblique-108"/>
      <use transform="translate(344.53125 0.015625)" xlink:href="#DejaVuSans-47"/>
      <use transform="translate(378.222656 0.015625)" xlink:href="#DejaVuSans-Oblique-109"/>
      <use transform="translate(475.634766 0.015625)" xlink:href="#DejaVuSans-Oblique-111"/>
      <use transform="translate(536.816406 0.015625)" xlink:href="#DejaVuSans-Oblique-108"/>
      <use transform="translate(564.599609 0.015625)" xlink:href="#DejaVuSans-41"/>
     </g>
    </g>
   </g>
   <g id="line2d_13">
    <path clip-path="url(#pe24a463c7a)" d="M 73.832727 161.893587 
L 73.985506 150.627536 
L 74.138284 155.569553 
L 74.291063 155.029376 
L 74.59662 123.99501 
L 74.902178 150.021513 
L 75.054956 143.958315 
L 75.513292 174.82719 
L 75.666071 179.474396 
L 75.818849 162.110023 
L 76.277185 189.408803 
L 76.429964 186.537662 
L 76.735521 154.438116 
L 76.888299 135.718682 
L 77.041078 131.367112 
L 77.346635 154.182303 
L 77.804971 178.669149 
L 77.95775 180.888672 
L 78.110528 175.625478 
L 78.416086 161.653712 
L 78.568864 179.86472 
L 78.721643 182.25561 
L 78.874421 181.15836 
L 79.0272 180.947491 
L 79.485536 166.890277 
L 79.638314 164.377207 
L 79.791093 149.192574 
L 80.09665 160.543621 
L 80.402207 153.244552 
L 80.554986 149.051309 
L 81.166101 189.377588 
L 81.929994 134.158535 
L 82.082772 133.639176 
L 82.235551 126.752064 
L 82.541108 145.750442 
L 82.693887 154.864691 
L 82.999444 177.198853 
L 83.305001 156.429953 
L 83.763337 128.480623 
L 83.916116 123.563056 
L 84.068894 104.44406 
L 84.221673 116.861387 
L 84.374451 141.20356 
L 84.52723 146.186076 
L 84.985566 135.179206 
L 85.138344 142.411074 
L 85.443902 200.993894 
L 85.59668 203.904288 
L 85.749459 201.011767 
L 85.902237 202.949005 
L 86.055016 197.23211 
L 86.207795 196.024088 
L 86.360573 202.709857 
L 86.513352 204.016456 
L 86.66613 197.624417 
L 86.818909 219.392521 
L 86.971688 221.171711 
L 87.277245 193.95828 
L 87.582802 214.095227 
L 87.735581 204.252647 
L 88.041138 161.940111 
L 88.193917 168.413783 
L 88.346695 181.088409 
L 88.499474 181.394536 
L 88.652252 178.13537 
L 88.805031 186.125982 
L 88.95781 202.795377 
L 89.110588 192.82296 
L 89.263367 194.957981 
L 89.416145 181.7818 
L 89.721703 134.026262 
L 89.874481 130.523435 
L 90.02726 132.172266 
L 90.332817 151.964191 
L 90.485596 148.438256 
L 90.638374 119.087377 
L 90.943932 110.730473 
L 91.09671 115.820473 
L 91.249489 140.41197 
L 91.402267 143.560765 
L 91.860603 126.544695 
L 92.013382 130.311295 
L 92.318939 157.527949 
L 92.624496 130.523721 
L 92.930053 158.598924 
L 93.082832 163.060919 
L 93.235611 155.928115 
L 93.388389 155.274052 
L 93.541168 156.258542 
L 93.846725 185.77901 
L 94.152282 170.353557 
L 94.45784 200.412755 
L 94.610618 199.070327 
L 94.763397 185.90032 
L 94.916175 157.064654 
L 95.068954 151.746393 
L 95.221733 173.421181 
L 95.52729 160.302322 
L 95.985626 209.970157 
L 96.59674 158.258425 
L 96.749519 159.248095 
L 96.902297 162.07238 
L 97.055076 160.241129 
L 97.513412 119.167915 
L 98.124526 167.415999 
L 98.277305 166.941315 
L 98.430083 167.714762 
L 98.582862 166.006593 
L 98.735641 151.360282 
L 98.888419 156.799938 
L 99.193976 148.501424 
L 99.346755 144.03584 
L 99.499534 114.384698 
L 99.652312 116.760972 
L 99.805091 125.528718 
L 100.110648 147.977986 
L 100.263427 137.411027 
L 100.416205 138.14615 
L 100.721763 154.801881 
L 101.02732 145.080298 
L 101.180098 159.350718 
L 101.791213 153.463635 
L 102.09677 157.128597 
L 102.555106 182.885307 
L 102.707884 182.965505 
L 103.16622 159.841623 
L 103.318999 165.328579 
L 103.624556 183.307406 
L 103.777335 191.102271 
L 103.930113 187.782586 
L 104.388449 171.910828 
L 104.541228 188.236799 
L 104.694006 180.934985 
L 104.846785 153.436251 
L 104.999564 153.510033 
L 105.305121 147.442994 
L 105.457899 151.404702 
L 105.610678 147.9237 
L 106.221793 206.000558 
L 106.374571 192.160394 
L 106.52735 189.739512 
L 106.680128 182.041787 
L 106.832907 186.07571 
L 107.5968 126.671613 
L 107.749579 128.109496 
L 108.055136 110.563971 
L 108.66625 177.041855 
L 108.819029 172.389866 
L 109.124586 145.223286 
L 109.277365 151.215817 
L 109.430143 170.925687 
L 109.582922 167.891623 
L 109.735701 182.677971 
L 110.041258 233.256955 
L 110.194036 247.031122 
L 110.346815 246.574074 
L 110.805151 198.908542 
L 110.957929 204.002655 
L 111.263487 193.986667 
L 111.416265 215.331402 
L 111.569044 217.990349 
L 111.721822 208.852903 
L 111.874601 215.94372 
L 112.180158 197.581167 
L 112.485716 195.217693 
L 112.638494 193.597571 
L 112.791273 188.42844 
L 112.944051 189.800937 
L 113.249609 179.214514 
L 113.555166 135.401833 
L 113.707944 125.086081 
L 113.860723 126.494302 
L 114.16628 146.250936 
L 114.319059 147.129944 
L 114.624616 177.157087 
L 114.777395 173.519366 
L 114.930173 176.152404 
L 115.082952 182.247318 
L 115.23573 179.808612 
L 115.388509 185.193107 
L 115.541288 200.487879 
L 115.694066 199.893452 
L 116.152402 152.668443 
L 116.610738 182.580772 
L 116.763517 167.656999 
L 116.916295 165.226804 
L 117.069074 177.411313 
L 117.221852 179.400033 
L 117.374631 190.966696 
L 117.832967 154.135402 
L 117.985745 156.661421 
L 118.291303 202.021066 
L 118.444081 188.122631 
L 118.59686 186.259947 
L 118.749639 191.321742 
L 119.055196 164.151859 
L 119.207974 166.014851 
L 119.513532 206.726321 
L 119.66631 208.731303 
L 119.971867 222.868553 
L 120.277425 245.774428 
L 120.73576 212.108138 
L 120.888539 212.19925 
L 121.041318 222.553939 
L 121.346875 194.453407 
L 121.805211 223.95674 
L 121.957989 223.486041 
L 122.263547 205.920431 
L 122.416325 206.16105 
L 122.569104 204.330026 
L 122.721882 201.017543 
L 122.874661 206.951599 
L 123.02744 203.240158 
L 123.180218 195.2224 
L 123.332997 193.574755 
L 123.485775 188.727853 
L 123.791333 201.823403 
L 123.944111 199.648707 
L 124.708004 125.86964 
L 125.013561 154.680734 
L 125.16634 151.367018 
L 125.319119 132.766647 
L 125.624676 154.246652 
L 125.930233 117.733156 
L 126.083012 112.548686 
L 126.23579 98.133565 
L 126.388569 105.255091 
L 126.999683 173.255455 
L 127.152462 171.554143 
L 127.458019 162.125433 
L 127.610798 161.582715 
L 127.763576 153.310963 
L 128.069134 110.033805 
L 128.52747 151.677605 
L 128.680248 147.513247 
L 128.985805 168.191907 
L 129.138584 161.179313 
L 129.444141 123.948908 
L 129.59692 124.263556 
L 129.749698 123.553364 
L 129.902477 132.330904 
L 130.055256 131.048674 
L 130.208034 120.652004 
L 130.360813 125.503788 
L 130.513591 121.151151 
L 130.66637 125.175388 
L 130.819149 135.265661 
L 130.971927 126.73702 
L 131.277484 90.41221 
L 131.430263 89.53822 
L 131.583042 111.191655 
L 131.73582 117.026804 
L 132.041378 168.828421 
L 132.346935 131.782544 
L 132.499713 127.37858 
L 132.805271 136.835859 
L 132.958049 146.101805 
L 133.569164 217.581033 
L 133.721942 215.866888 
L 134.180278 155.10272 
L 134.485835 164.243169 
L 134.791393 113.825498 
L 134.944171 124.168172 
L 135.249728 164.893737 
L 135.555286 191.538376 
L 136.013621 123.358498 
L 136.1664 124.420276 
L 136.319179 130.132314 
L 136.471957 113.247284 
L 136.624736 112.71604 
L 136.930293 128.652423 
L 137.083072 142.568528 
L 137.23585 143.918901 
L 137.541407 120.451719 
L 137.694186 127.092021 
L 137.999743 105.449619 
L 138.610858 173.241749 
L 138.763636 166.194746 
L 139.069194 187.707616 
L 139.374751 133.128946 
L 139.527529 136.986114 
L 139.680308 133.701557 
L 139.985865 91.601651 
L 140.138644 91.436889 
L 140.444201 88.65306 
L 140.59698 95.699586 
L 140.902537 131.624325 
L 141.055316 140.583628 
L 141.360873 94.28942 
L 141.66643 111.683097 
L 141.819209 108.029696 
L 142.124766 83.309176 
L 142.430323 113.110747 
L 143.041437 158.06571 
L 143.194216 149.077207 
L 143.346995 153.488841 
L 143.499773 144.95581 
L 143.652552 144.085742 
L 143.958109 171.676286 
L 144.110888 170.916096 
L 144.263666 152.634131 
L 144.569224 147.62232 
L 144.874781 201.06965 
L 145.027559 208.388026 
L 145.180338 194.12802 
L 145.333117 162.382813 
L 145.638674 181.881442 
L 145.944231 160.572939 
L 146.09701 161.625789 
L 146.555345 198.275051 
L 147.013681 215.727902 
L 147.472017 196.568385 
L 147.624796 190.061653 
L 147.930353 160.614088 
L 148.541467 186.636705 
L 148.847025 163.233459 
L 149.152582 179.188088 
L 149.30536 171.147938 
L 149.763696 131.773042 
L 150.069253 145.986921 
L 150.222032 167.843713 
L 150.374811 173.438085 
L 150.833147 133.194089 
L 150.985925 133.190138 
L 151.138704 147.480881 
L 151.444261 105.924871 
L 151.59704 101.982167 
L 151.749818 93.47 
L 151.902597 92.90104 
L 152.055375 89.303471 
L 152.360933 130.355291 
L 152.66649 122.476081 
L 152.819268 118.937492 
L 153.124826 180.567059 
L 153.277604 182.102517 
L 153.430383 180.397607 
L 153.73594 162.939458 
L 153.888719 164.080393 
L 154.194276 144.589348 
L 154.347055 143.223309 
L 154.652612 156.054167 
L 154.80539 149.811648 
L 155.263726 185.318613 
L 155.416505 182.569112 
L 155.722062 122.839651 
L 155.874841 124.517622 
L 156.180398 153.546522 
L 156.333176 148.165889 
L 156.485955 146.709471 
L 156.638734 150.172504 
L 156.791512 142.747348 
L 156.944291 147.389936 
L 157.09707 137.930681 
L 157.555405 164.290713 
L 157.708184 158.438515 
L 158.013741 93.681861 
L 158.16652 89.205092 
L 158.319298 89.318416 
L 158.624856 98.319647 
L 158.930413 115.55787 
L 159.083191 122.327558 
L 159.847084 53.568 
L 159.999863 62.85181 
L 160.152642 81.960536 
L 160.30542 83.750302 
L 160.458199 73.719366 
L 160.610978 71.605715 
L 160.763756 57.447401 
L 160.916535 68.759231 
L 161.374871 141.448649 
L 161.527649 158.484754 
L 161.680428 150.819141 
L 161.985985 113.910562 
L 162.138764 112.811379 
L 162.291542 118.294696 
L 162.597099 141.649629 
L 162.902657 125.396817 
L 163.055435 128.551721 
L 163.208214 116.836841 
L 163.66655 151.9548 
L 163.819328 148.932163 
L 163.972107 142.531219 
L 164.124886 124.818765 
L 164.277664 124.320634 
L 164.583221 131.467088 
L 164.736 148.155974 
L 164.888779 149.066517 
L 165.194336 98.930436 
L 165.347114 99.367595 
L 165.652672 153.22023 
L 165.80545 147.810585 
L 166.111007 162.989752 
L 166.263786 152.025699 
L 166.416565 160.494709 
L 166.569343 157.275302 
L 166.874901 131.100836 
L 167.027679 129.738884 
L 167.180458 136.502433 
L 167.333236 126.581506 
L 167.486015 127.157346 
L 167.638794 128.77639 
L 167.944351 151.010371 
L 168.097129 150.001598 
L 168.402687 138.379002 
L 168.555465 142.948025 
L 168.861022 117.136095 
L 169.013801 120.037741 
L 169.16658 126.498016 
L 169.319358 116.427043 
L 169.624916 85.751852 
L 170.083251 147.533736 
L 170.388809 186.133131 
L 170.541587 186.648425 
L 170.847144 154.364546 
L 170.999923 154.479803 
L 171.152702 154.290066 
L 171.458259 135.339271 
L 171.611037 148.84953 
L 171.763816 149.362085 
L 172.069373 132.192983 
L 172.37493 118.019096 
L 172.680488 121.574121 
L 172.833266 127.509471 
L 173.138824 151.177378 
L 173.291602 157.607116 
L 173.444381 176.003365 
L 173.597159 174.559388 
L 173.749938 161.272889 
L 173.902717 160.361828 
L 174.208274 144.392885 
L 174.361052 142.667751 
L 174.513831 149.612415 
L 174.819388 124.465363 
L 175.124945 147.327406 
L 175.277724 148.217236 
L 175.430503 143.394376 
L 175.583281 118.325998 
L 175.73606 111.848022 
L 175.888839 123.419183 
L 176.041617 112.894816 
L 176.347174 129.174994 
L 176.958289 188.327842 
L 177.111067 189.061166 
L 177.416625 205.056437 
L 177.569403 204.617849 
L 177.722182 205.51352 
L 178.027739 194.615444 
L 178.180518 203.499999 
L 178.333296 202.493437 
L 178.638853 178.360555 
L 178.791632 171.084279 
L 178.944411 170.826146 
L 179.097189 161.794709 
L 179.249968 172.759855 
L 179.555525 159.229575 
L 179.708304 164.180625 
L 180.16664 211.732507 
L 180.472197 189.334057 
L 180.624975 195.673222 
L 180.930533 186.418998 
L 181.23609 210.526245 
L 181.694426 182.67268 
L 181.847204 161.136142 
L 181.999983 164.711365 
L 182.152761 181.143832 
L 182.30554 184.999354 
L 182.458319 182.449961 
L 182.763876 147.175974 
L 182.916655 136.782313 
L 183.069433 144.004203 
L 183.222212 173.483218 
L 183.37499 181.075021 
L 183.527769 182.518762 
L 183.833326 179.030367 
L 184.138883 170.531818 
L 184.597219 191.524974 
L 184.902776 175.901195 
L 185.055555 174.373508 
L 185.66667 138.671596 
L 185.819448 149.712779 
L 185.972227 150.666678 
L 186.277784 172.519364 
L 186.430563 191.894286 
L 186.583341 187.780916 
L 186.888898 157.327458 
L 187.194456 145.956629 
L 187.347234 143.506809 
L 187.500013 155.558549 
L 187.652791 156.222554 
L 187.958349 127.289061 
L 188.569463 79.606951 
L 189.180578 111.222274 
L 189.486135 91.784139 
L 189.944471 141.28215 
L 190.097249 131.004289 
L 190.250028 133.380369 
L 190.555585 105.288601 
L 190.708364 99.350807 
L 190.861142 100.444103 
L 191.013921 104.539643 
L 191.166699 104.074897 
L 191.319478 120.978915 
L 191.625035 162.044714 
L 191.777814 154.730862 
L 192.083371 126.396601 
L 192.388928 161.545874 
L 192.694486 142.574778 
L 192.847264 143.901725 
L 193.000043 153.039376 
L 193.152821 154.681798 
L 193.458379 139.530563 
L 193.611157 147.047086 
L 193.916714 129.78976 
L 194.069493 136.657916 
L 194.527829 174.244612 
L 195.138943 139.64822 
L 195.291722 147.832048 
L 195.444501 142.881497 
L 195.902836 184.745455 
L 196.208394 144.755813 
L 196.361172 155.432523 
L 196.513951 155.824525 
L 196.666729 169.212092 
L 196.819508 158.546961 
L 196.972287 137.899674 
L 197.125065 148.388341 
L 197.277844 150.256639 
L 197.430622 150.467964 
L 197.73618 133.237257 
L 197.888958 139.658613 
L 198.194516 165.841956 
L 198.500073 183.144678 
L 198.652851 183.018155 
L 199.263966 145.865028 
L 199.416744 122.714919 
L 199.569523 122.140758 
L 199.722302 132.797445 
L 199.87508 126.809794 
L 200.486195 162.775313 
L 200.638973 164.525354 
L 200.791752 161.448882 
L 200.94453 149.465622 
L 201.097309 155.434453 
L 201.250088 169.064333 
L 201.402866 166.510209 
L 201.708424 153.059282 
L 201.861202 156.143886 
L 202.013981 156.537398 
L 202.166759 160.330927 
L 202.472317 193.155413 
L 202.625095 191.455472 
L 202.777874 177.067328 
L 202.930652 183.569611 
L 203.083431 184.612032 
L 203.23621 176.095321 
L 203.388988 175.748107 
L 203.541767 180.667788 
L 203.847324 163.331433 
L 204.000103 164.965775 
L 204.152881 164.874488 
L 204.611217 224.676005 
L 204.763996 227.006314 
L 204.916774 224.832274 
L 205.222332 174.033745 
L 205.37511 180.288359 
L 206.291782 133.501322 
L 206.597339 157.062492 
L 207.208453 141.04435 
L 207.361232 130.094914 
L 207.514011 127.603182 
L 207.666789 133.219041 
L 207.972347 134.345679 
L 208.277904 131.388226 
L 208.430682 137.982887 
L 208.583461 156.42992 
L 208.73624 155.083413 
L 208.889018 149.681604 
L 209.041797 154.711755 
L 209.347354 193.755216 
L 209.500133 201.833351 
L 209.652911 194.94051 
L 209.80569 159.620617 
L 209.958468 159.688984 
L 210.416804 197.650704 
L 210.569583 191.762946 
L 211.027919 158.748489 
L 211.180697 153.909428 
L 211.333476 155.119392 
L 211.486255 173.775531 
L 211.791812 241.390309 
L 211.94459 249.164728 
L 212.097369 235.771937 
L 212.250148 208.24627 
L 212.402926 209.434004 
L 212.555705 220.389775 
L 212.708483 221.923151 
L 213.014041 212.046772 
L 213.319598 233.187586 
L 213.625155 205.639544 
L 213.777934 196.89763 
L 213.930712 202.040234 
L 214.083491 216.367088 
L 214.23627 204.271162 
L 214.389048 205.06752 
L 214.541827 197.295981 
L 215.152941 243.612612 
L 215.30572 236.771428 
L 215.611277 195.935947 
L 215.916834 145.002071 
L 216.37517 166.843455 
L 216.527949 158.823616 
L 216.680727 137.492233 
L 216.833506 139.042127 
L 217.139063 158.199566 
L 217.291842 154.95337 
L 217.750178 139.33344 
L 218.055735 151.158166 
L 218.208513 143.216433 
L 218.361292 145.740904 
L 218.514071 146.228176 
L 218.819628 136.846924 
L 218.972406 134.113261 
L 219.125185 126.869502 
L 219.430742 133.660435 
L 219.583521 121.422301 
L 219.889078 133.049707 
L 220.194635 104.151398 
L 220.652971 129.64406 
L 220.958528 166.773615 
L 221.111307 172.034697 
L 221.264086 164.39519 
L 221.416864 167.578112 
L 221.569643 174.100107 
L 221.8752 145.983948 
L 222.180757 160.792001 
L 222.486314 165.158265 
L 222.791872 187.523773 
L 222.94465 189.620394 
L 223.250207 204.193497 
L 223.555765 176.083578 
L 223.861322 192.627936 
L 224.014101 190.786056 
L 224.319658 162.898069 
L 224.625215 181.120949 
L 225.083551 170.712868 
L 225.389108 152.927392 
L 225.541887 151.1319 
L 225.847444 188.610388 
L 226.000222 178.478239 
L 226.458558 136.334376 
L 226.764116 147.713219 
L 226.916894 150.950401 
L 227.528009 100.808302 
L 227.680787 98.163845 
L 228.139123 129.507491 
L 228.291902 126.428888 
L 228.44468 119.707423 
L 228.597459 123.278636 
L 228.903016 96.318907 
L 229.055795 80.752014 
L 229.208573 80.294214 
L 229.51413 91.836222 
L 229.666909 96.611175 
L 229.972466 133.10104 
L 230.125245 128.236408 
L 230.430802 113.51663 
L 230.583581 106.635931 
L 230.736359 81.51379 
L 230.889138 75.821586 
L 231.194695 115.075295 
L 231.347474 127.931544 
L 231.653031 131.068472 
L 231.80581 136.487257 
L 231.958588 156.275627 
L 232.264145 126.576663 
L 232.416924 127.476997 
L 232.569703 123.511121 
L 232.722481 127.936265 
L 232.87526 121.860373 
L 233.028039 125.465214 
L 233.333596 149.195304 
L 233.639153 145.049123 
L 233.94471 185.339036 
L 234.097489 184.250031 
L 234.250267 177.097657 
L 234.403046 183.137413 
L 234.555825 201.860714 
L 234.861382 170.753068 
L 235.166939 148.210543 
L 235.472496 142.331602 
L 235.625275 137.085118 
L 235.930832 93.677597 
L 236.083611 93.778872 
L 236.236389 116.643371 
L 236.389168 112.889767 
L 236.541947 103.891223 
L 236.694725 106.821053 
L 236.847504 111.9691 
L 237.153061 99.680777 
L 237.611397 107.315053 
L 237.764175 103.998445 
L 237.916954 104.45815 
L 238.069733 113.187006 
L 238.222511 106.242723 
L 238.37529 111.930224 
L 238.680847 162.864386 
L 238.833626 151.357651 
L 239.139183 114.402732 
L 239.44474 87.7844 
L 239.597519 86.506404 
L 239.750297 92.045919 
L 240.055855 107.379604 
L 240.208633 106.124657 
L 240.51419 130.944224 
L 240.819748 86.265818 
L 241.125305 109.260451 
L 241.430862 133.275553 
L 241.583641 135.306296 
L 241.736419 122.972934 
L 241.889198 127.4323 
L 242.194755 147.511616 
L 242.347534 143.658528 
L 242.500312 127.25051 
L 242.80587 136.523474 
L 243.111427 125.770642 
L 243.416984 157.174618 
L 243.722541 177.785824 
L 243.87532 164.292233 
L 244.180877 129.423356 
L 244.333656 142.474869 
L 244.486434 142.223521 
L 244.639213 128.677278 
L 244.791991 139.130823 
L 244.94477 161.580544 
L 245.250327 146.778167 
L 245.403106 141.328148 
L 245.708663 97.138462 
L 246.166999 144.067266 
L 246.319778 139.173268 
L 246.625335 111.513464 
L 246.778113 116.392777 
L 246.930892 115.246709 
L 247.389228 106.6942 
L 247.542006 88.345279 
L 247.694785 86.428357 
L 247.847564 79.595113 
L 248.000342 60.493585 
L 248.153121 66.730448 
L 248.458678 88.733409 
L 248.611457 101.502869 
L 248.917014 141.640826 
L 249.222571 148.981733 
L 249.37535 131.861225 
L 249.528128 132.577275 
L 249.680907 145.715835 
L 249.833686 148.626666 
L 249.986464 146.606813 
L 250.292021 131.719769 
L 250.903136 154.89256 
L 251.055914 144.896476 
L 251.208693 148.430508 
L 251.361472 155.468639 
L 251.972586 115.319606 
L 252.278143 140.872643 
L 252.430922 138.49609 
L 252.583701 138.822731 
L 252.736479 131.514169 
L 252.889258 130.542871 
L 253.347594 173.996737 
L 253.653151 163.209143 
L 254.111487 197.133488 
L 254.569822 141.346155 
L 254.722601 141.246778 
L 254.87538 136.639308 
L 255.028158 112.539667 
L 255.180937 114.610429 
L 255.333716 129.144116 
L 255.486494 125.370614 
L 255.639273 117.290519 
L 255.792051 117.390247 
L 255.94483 127.170161 
L 256.097609 126.658161 
L 256.250387 126.734706 
L 256.403166 145.945933 
L 256.555944 145.098979 
L 256.861502 108.969353 
L 257.01428 115.470874 
L 257.167059 128.618741 
L 257.472616 132.993596 
L 257.625395 125.251877 
L 257.930952 138.419363 
L 258.236509 159.292575 
L 258.542066 146.765669 
L 258.694845 146.430079 
L 258.847624 151.216142 
L 259.000402 160.772417 
L 259.153181 142.066025 
L 259.305959 143.936553 
L 259.611517 177.961606 
L 259.764295 163.549141 
L 260.069852 172.914927 
L 260.222631 173.87854 
L 260.37541 177.046745 
L 260.528188 183.444468 
L 260.833745 140.109988 
L 260.986524 150.143594 
L 261.292081 196.351773 
L 261.44486 210.668615 
L 261.597639 201.906109 
L 261.903196 168.509435 
L 262.208753 195.939416 
L 262.361532 188.229786 
L 262.51431 193.992523 
L 262.819867 213.701164 
L 262.972646 205.687972 
L 263.430982 234.396618 
L 263.58376 234.210324 
L 263.736539 223.981288 
L 263.889318 226.959943 
L 264.042096 223.689224 
L 264.194875 225.269416 
L 264.805989 133.772986 
L 265.111547 156.011996 
L 265.264325 156.312735 
L 265.417104 159.653113 
L 265.569882 171.641347 
L 265.722661 157.700914 
L 265.87544 129.196515 
L 266.028218 121.710559 
L 266.639333 197.432164 
L 266.94489 186.144249 
L 267.097668 177.021166 
L 267.403226 182.864965 
L 267.708783 154.475162 
L 268.01434 152.132356 
L 268.167119 164.492554 
L 268.472676 163.640755 
L 268.625455 182.491844 
L 268.778233 179.948805 
L 268.931012 148.169035 
L 269.08379 145.421549 
L 269.389348 176.204181 
L 269.542126 179.263511 
L 270.306019 249.23136 
L 270.458798 254.670904 
L 270.611576 267.422065 
L 270.764355 259.601236 
L 271.069912 231.563364 
L 271.222691 222.179486 
L 271.37547 228.381824 
L 271.528248 228.77368 
L 271.833805 215.293588 
L 271.986584 219.627745 
L 272.139363 216.254414 
L 272.597698 165.457176 
L 272.750477 174.560686 
L 273.056034 158.934016 
L 273.361591 126.806886 
L 273.51437 128.883633 
L 273.667149 153.344348 
L 273.819927 156.101166 
L 274.125484 129.939893 
L 274.278263 132.149111 
L 274.58382 167.796075 
L 274.736599 168.557396 
L 275.042156 184.649737 
L 275.500492 158.494115 
L 275.958828 202.858516 
L 276.111606 203.599022 
L 276.722721 242.308756 
L 277.028278 218.667496 
L 277.181057 247.109066 
L 277.333835 253.226937 
L 277.639393 233.767819 
L 277.792171 234.804437 
L 277.94495 248.708127 
L 278.097728 249.417696 
L 278.250507 261.936757 
L 278.403286 261.496223 
L 278.556064 262.381702 
L 278.861621 294.666391 
L 279.167179 251.822984 
L 279.319957 258.416533 
L 279.472736 270.441089 
L 279.931072 195.952787 
L 280.08385 200.555028 
L 280.236629 212.64833 
L 281.000522 135.535054 
L 281.458858 101.008488 
L 281.764415 122.333983 
L 282.069972 140.223419 
L 282.222751 130.329344 
L 282.375529 107.939614 
L 282.833865 154.640534 
L 283.292201 128.538049 
L 283.44498 125.708222 
L 283.903316 158.252959 
L 284.208873 200.811536 
L 284.51443 241.44424 
L 284.667209 233.265063 
L 284.972766 211.31505 
L 285.125544 210.936548 
L 285.58388 258.543395 
L 286.042216 239.334612 
L 286.194995 240.801004 
L 286.347773 251.392244 
L 286.500552 248.220708 
L 286.65333 230.420652 
L 286.806109 235.334662 
L 286.958888 231.073382 
L 287.417224 173.374887 
L 287.570002 169.647978 
L 287.875559 156.069181 
L 288.181117 112.620233 
L 288.333895 117.661427 
L 288.639452 141.243596 
L 288.792231 133.755035 
L 288.94501 113.14134 
L 289.556124 175.771697 
L 290.01446 138.37522 
L 290.320017 166.927596 
L 290.472796 160.316199 
L 290.778353 134.26774 
L 291.08391 148.842768 
L 291.236689 136.392279 
L 291.389467 135.814778 
L 291.542246 133.577352 
L 291.695025 133.58058 
L 292.000582 186.63438 
L 292.458918 172.414993 
L 292.611696 173.651156 
L 292.764475 184.050493 
L 293.070032 218.309193 
L 293.375589 224.066692 
L 293.528368 213.499688 
L 293.681147 216.948371 
L 293.833925 217.430177 
L 293.986704 201.931019 
L 294.139482 197.762105 
L 294.292261 187.857321 
L 294.597818 214.497404 
L 294.750597 218.20147 
L 294.903375 211.830962 
L 295.056154 211.564074 
L 295.361711 246.761675 
L 295.51449 259.401199 
L 295.820047 264.747174 
L 296.125604 229.713523 
L 296.431161 242.292397 
L 296.58394 248.796289 
L 296.736719 246.46705 
L 297.347833 182.655209 
L 297.65339 206.28727 
L 297.958948 224.670182 
L 298.111726 209.454881 
L 298.417283 220.383996 
L 298.570062 213.384024 
L 298.875619 190.492061 
L 299.028398 200.101243 
L 299.181176 197.392869 
L 299.333955 205.046129 
L 299.486734 206.895174 
L 299.792291 192.137404 
L 300.097848 158.586618 
L 300.403405 169.982431 
L 300.556184 165.106173 
L 300.861741 181.568086 
L 301.01452 181.416722 
L 301.167298 168.04999 
L 301.320077 168.41007 
L 301.472856 175.65695 
L 301.625634 177.190101 
L 301.931191 161.990517 
L 302.08397 167.54128 
L 302.236749 161.718274 
L 302.389527 138.421609 
L 302.542306 138.549913 
L 302.695084 150.858183 
L 302.847863 175.227213 
L 303.000642 180.012015 
L 303.306199 165.950829 
L 303.458978 168.092451 
L 303.611756 147.160124 
L 303.764535 142.721537 
L 304.070092 172.920291 
L 304.222871 159.155633 
L 304.528428 120.455594 
L 304.681206 105.293505 
L 304.833985 103.875541 
L 304.986764 112.246757 
L 305.139542 140.395809 
L 305.292321 144.8217 
L 305.445099 138.163241 
L 305.597878 151.752342 
L 306.056214 214.980829 
L 306.361771 183.196206 
L 306.51455 158.672732 
L 306.667328 154.132301 
L 306.972886 166.676431 
L 307.125664 152.685146 
L 307.278443 160.611182 
L 307.584 195.011859 
L 307.736779 197.562107 
L 307.889557 203.38117 
L 308.195114 186.260608 
L 308.65345 119.270456 
L 308.959007 152.605984 
L 309.111786 152.223118 
L 309.264565 150.650639 
L 309.570122 173.82086 
L 309.722901 170.578289 
L 309.875679 170.015588 
L 310.028458 165.340288 
L 310.334015 145.584528 
L 310.486794 145.506557 
L 310.945129 186.675265 
L 311.097908 179.768787 
L 311.250687 160.088303 
L 311.403465 159.313343 
L 311.709022 180.139175 
L 311.861801 173.666758 
L 312.167358 137.44597 
L 312.472916 109.098605 
L 312.625694 108.337257 
L 312.778473 121.096226 
L 312.931251 117.85855 
L 313.236809 88.469076 
L 313.389587 85.891735 
L 313.695144 133.201059 
L 314.000702 142.930495 
L 314.306259 215.391216 
L 314.459037 214.940402 
L 314.764595 174.872559 
L 314.917373 176.763006 
L 315.070152 171.697254 
L 315.375709 178.056432 
L 315.528488 196.226298 
L 315.681266 196.142087 
L 315.986824 163.22 
L 316.139602 162.159244 
L 316.750717 210.8361 
L 316.903495 213.592582 
L 317.056274 205.377486 
L 317.209052 217.552429 
L 317.361831 219.217688 
L 317.51461 215.016476 
L 317.667388 214.522511 
L 317.820167 206.216958 
L 317.972945 209.973714 
L 318.125724 223.250081 
L 318.278503 223.992199 
L 318.431281 236.854443 
L 318.58406 262.072924 
L 318.736839 254.655951 
L 319.042396 208.94617 
L 319.195174 209.545758 
L 319.347953 206.638505 
L 319.65351 170.554336 
L 319.959067 181.710175 
L 320.111846 198.387964 
L 320.264625 194.855907 
L 320.417403 178.617202 
L 320.570182 182.642033 
L 320.875739 210.971425 
L 321.181296 187.310421 
L 321.334075 212.682395 
L 321.486853 208.940781 
L 321.639632 197.616922 
L 321.792411 208.008905 
L 321.945189 204.198403 
L 322.097968 203.454312 
L 322.556304 150.129402 
L 322.709082 157.358104 
L 323.01464 203.827257 
L 323.167418 207.512956 
L 323.320197 180.407934 
L 323.931311 220.500275 
L 324.08409 221.507206 
L 324.389647 207.898554 
L 324.542426 206.410739 
L 324.847983 218.214323 
L 325.611876 169.047961 
L 325.917433 178.403367 
L 326.070212 173.95791 
L 326.528548 212.966689 
L 326.681326 208.063338 
L 326.834105 194.37192 
L 326.986883 193.494538 
L 327.139662 202.62839 
L 327.750776 294.436873 
L 328.056334 295.488 
L 328.209112 295.308873 
L 328.667448 249.444724 
L 328.973005 236.246796 
L 329.125784 227.169447 
L 329.278563 235.99551 
L 329.431341 227.579801 
L 329.58412 205.287989 
L 329.736898 200.128595 
L 330.042456 240.222263 
L 330.65357 191.061303 
L 330.806349 195.596003 
L 330.959127 192.909654 
L 331.417463 163.375147 
L 331.570242 175.792888 
L 331.72302 172.307607 
L 332.028578 152.782932 
L 332.181356 145.066495 
L 332.486913 113.196512 
L 332.639692 112.424592 
L 332.792471 126.040504 
L 333.098028 170.619924 
L 333.250806 181.655415 
L 333.556364 158.347825 
L 333.861921 195.176804 
L 334.167478 208.512755 
L 334.320257 207.019177 
L 334.625814 219.999459 
L 334.778593 214.200084 
L 334.931371 213.1261 
L 335.08415 213.474499 
L 335.236928 196.298741 
L 335.389707 191.978704 
L 335.542486 181.171557 
L 335.695264 183.89722 
L 336.000821 232.41513 
L 336.1536 233.906693 
L 336.306379 230.333129 
L 336.459157 233.563906 
L 336.764714 226.523031 
L 336.917493 227.03916 
L 337.375829 236.925052 
L 337.681386 252.67841 
L 337.986943 240.842284 
L 338.292501 257.731831 
L 338.445279 260.796767 
L 338.750836 226.1874 
L 338.903615 231.565968 
L 339.209172 260.769462 
L 339.361951 256.415067 
L 339.820287 230.477608 
L 339.973065 211.140075 
L 340.125844 213.188452 
L 340.278622 205.278933 
L 340.58418 187.276468 
L 340.736958 190.117563 
L 341.042516 186.748339 
L 341.348073 201.989634 
L 341.500851 209.900167 
L 341.65363 202.716196 
L 341.806409 176.728443 
L 341.959187 174.685716 
L 342.264744 153.127843 
L 342.570302 171.689128 
L 342.72308 170.625929 
L 343.334195 121.085445 
L 343.486973 127.118691 
L 343.639752 123.027918 
L 344.098088 144.828511 
L 344.403645 189.351789 
L 344.556424 183.092789 
L 344.709202 182.671928 
L 344.861981 173.129162 
L 345.320317 123.750013 
L 345.473095 125.746181 
L 345.778652 119.324678 
L 345.931431 124.730872 
L 346.236988 99.980529 
L 346.389767 92.379417 
L 347.000881 155.855042 
L 347.15366 155.410858 
L 347.611996 85.707804 
L 347.917553 134.500155 
L 348.070332 147.526387 
L 348.528667 109.225758 
L 348.681446 113.293872 
L 348.834225 106.370728 
L 348.987003 117.77119 
L 349.139782 137.662197 
L 349.29256 132.64619 
L 349.445339 145.346842 
L 349.750896 194.911427 
L 350.056453 200.905134 
L 350.362011 242.395354 
L 350.667568 228.477104 
L 350.973125 234.071693 
L 351.278682 264.328476 
L 351.431461 268.01638 
L 351.737018 221.910767 
L 352.042575 213.753391 
L 352.195354 210.033084 
L 352.348133 209.322811 
L 352.500911 218.081915 
L 352.65369 210.353565 
L 352.806468 222.598064 
L 353.112026 210.020108 
L 353.264804 212.841708 
L 353.417583 202.648982 
L 353.570361 171.826179 
L 353.875919 158.668429 
L 354.181476 168.906636 
L 354.334255 152.703297 
L 354.487033 151.646398 
L 354.639812 140.113206 
L 355.250926 177.782977 
L 355.556483 135.377549 
L 355.709262 105.603882 
L 355.862041 107.514625 
L 356.014819 112.596521 
L 356.167598 102.257744 
L 356.320376 107.745208 
L 356.473155 127.778519 
L 356.625934 126.291841 
L 356.931491 80.419089 
L 357.08427 79.110733 
L 357.237048 85.302843 
L 357.542605 106.389309 
L 358.000941 119.180448 
L 358.15372 115.079781 
L 358.306498 118.108933 
L 358.612056 102.760334 
L 358.764834 107.199876 
L 358.917613 119.860021 
L 359.070391 119.410946 
L 359.22317 121.932275 
L 359.528727 140.799167 
L 359.681506 146.671907 
L 359.987063 124.871567 
L 360.139842 124.922574 
L 360.29262 120.889889 
L 360.445399 123.87783 
L 360.903735 164.154799 
L 361.209292 131.814974 
L 361.362071 134.732328 
L 361.820406 177.07105 
L 361.973185 175.089282 
L 362.125964 170.263028 
L 362.278742 175.841293 
L 362.431521 186.407707 
L 362.737078 158.523347 
L 362.889857 157.136793 
L 363.042635 158.231962 
L 363.65375 196.5872 
L 363.806528 199.977596 
L 363.959307 198.155178 
L 364.264864 219.515023 
L 364.417643 215.839019 
L 364.570421 195.894993 
L 364.7232 197.700638 
L 365.028757 229.784833 
L 365.334314 219.845302 
L 365.487093 223.792224 
L 365.639872 206.693204 
L 365.79265 211.03693 
L 366.098207 179.334447 
L 366.403765 157.566221 
L 366.709322 185.849779 
L 367.167658 147.549151 
L 367.473215 152.45443 
L 367.625994 137.728715 
L 367.931551 93.38725 
L 368.084329 98.284982 
L 368.237108 91.484856 
L 368.542665 93.895243 
L 368.695444 102.891602 
L 369.001001 130.711891 
L 369.15378 115.094356 
L 369.306558 116.529981 
L 369.917673 138.939472 
L 370.070451 134.192099 
L 370.22323 134.376849 
L 370.376009 134.98382 
L 370.528787 140.429599 
L 370.681566 150.355163 
L 370.834344 150.131309 
L 370.987123 145.536527 
L 371.139902 132.552992 
L 371.445459 141.60814 
L 371.751016 127.077017 
L 372.056573 143.187906 
L 372.209352 163.298809 
L 372.36213 167.930114 
L 372.514909 160.153638 
L 372.820466 173.051347 
L 372.973245 168.989797 
L 373.126024 177.669716 
L 373.431581 157.202598 
L 373.737138 121.86481 
L 373.889917 136.323265 
L 374.042695 126.54481 
L 374.348252 84.303257 
L 374.65381 137.067203 
L 374.806588 112.031076 
L 374.959367 109.679572 
L 375.264924 94.122837 
L 375.417703 96.039503 
L 375.570481 93.242357 
L 375.72326 70.761951 
L 376.334374 120.69427 
L 376.79271 173.5753 
L 377.098267 210.584112 
L 377.251046 215.732116 
L 377.403825 215.090885 
L 377.556603 209.5738 
L 377.86216 178.687593 
L 378.167718 185.899789 
L 378.473275 212.782909 
L 378.626053 208.310781 
L 378.778832 209.509985 
L 378.931611 212.940875 
L 379.237168 227.639049 
L 379.389947 230.491083 
L 379.542725 238.480755 
L 379.695504 236.255785 
L 380.001061 191.596459 
L 380.15384 187.327077 
L 380.306618 193.503778 
L 380.459397 187.502826 
L 380.764954 151.941694 
L 381.22329 141.48695 
L 381.376068 153.715721 
L 381.681626 137.907915 
L 381.834404 138.747731 
L 382.139961 115.025391 
L 382.29274 115.081182 
L 382.445519 124.721258 
L 382.598297 125.449871 
L 382.751076 139.954701 
L 382.903855 139.324451 
L 383.36219 129.248122 
L 383.514969 132.409059 
L 383.820526 93.069598 
L 383.973305 89.044684 
L 384.126083 96.912777 
L 384.431641 148.897526 
L 384.584419 148.928465 
L 384.889976 155.772561 
L 385.042755 140.03948 
L 385.348312 147.152104 
L 385.501091 145.713963 
L 385.65387 151.342307 
L 385.806648 148.445221 
L 385.959427 134.409445 
L 386.112205 143.092906 
L 386.417763 137.216033 
L 386.876098 178.168841 
L 387.028877 176.692828 
L 387.181656 182.61285 
L 387.334434 172.522519 
L 387.487213 181.365698 
L 387.639991 196.814841 
L 387.79277 196.538922 
L 388.403884 239.481453 
L 388.556663 239.606654 
L 388.709442 247.983127 
L 388.86222 248.929409 
L 389.014999 243.758456 
L 389.320556 259.530259 
L 389.626113 201.321078 
L 390.084449 287.174757 
L 390.695564 199.349203 
L 391.306678 247.723198 
L 391.459457 251.518548 
L 391.612235 244.026811 
L 391.917793 218.219685 
L 392.070571 226.083345 
L 392.22335 222.145817 
L 392.376128 213.013123 
L 392.528907 212.208015 
L 392.987243 185.184843 
L 393.140021 189.016015 
L 393.2928 203.187683 
L 393.598357 192.014385 
L 393.751136 184.448389 
L 393.903914 168.691764 
L 394.056693 174.105775 
L 394.36225 201.335259 
L 394.515029 208.742302 
L 394.973365 175.624601 
L 395.278922 121.586954 
L 395.431701 125.875181 
L 395.584479 119.741211 
L 395.737258 124.61955 
L 395.890036 139.557765 
L 396.195594 99.764282 
L 396.348372 99.360081 
L 396.653929 142.883627 
L 396.959487 190.710963 
L 397.112265 187.695939 
L 397.417822 201.691267 
L 397.570601 199.116607 
L 397.72338 199.795709 
L 397.876158 192.938518 
L 398.028937 191.731079 
L 398.334494 177.932012 
L 398.487273 181.830039 
L 398.487273 181.830039 
" style="fill:none;stroke:#1f77b4;stroke-linecap:square;stroke-width:1.5;"/>
   </g>
   <g id="patch_3">
    <path d="M 57.6 307.584 
L 57.6 41.472 
" style="fill:none;stroke:#000000;stroke-linecap:square;stroke-linejoin:miter;stroke-width:0.8;"/>
   </g>
   <g id="patch_4">
    <path d="M 414.72 307.584 
L 414.72 41.472 
" style="fill:none;stroke:#000000;stroke-linecap:square;stroke-linejoin:miter;stroke-width:0.8;"/>
   </g>
   <g id="patch_5">
    <path d="M 57.6 307.584 
L 414.72 307.584 
" style="fill:none;stroke:#000000;stroke-linecap:square;stroke-linejoin:miter;stroke-width:0.8;"/>
   </g>
   <g id="patch_6">
    <path d="M 57.6 41.472 
L 414.72 41.472 
" style="fill:none;stroke:#000000;stroke-linecap:square;stroke-linejoin:miter;stroke-width:0.8;"/>
   </g>
   <g id="text_15">
    <!-- $H(t); C_p = 48.4 (KJ/K/kg)$ -->
    <defs>
     <path d="M 11.71875 51.703125 
L 22.015625 51.703125 
L 22.015625 39.3125 
L 11.71875 39.3125 
z
M 11.71875 12.40625 
L 22.015625 12.40625 
L 22.015625 4 
L 14.015625 -11.625 
L 7.71875 -11.625 
L 11.71875 4 
z
" id="DejaVuSans-59"/>
     <path d="M 69.484375 67.28125 
L 67.484375 56.890625 
Q 62.796875 61.625 57.546875 63.921875 
Q 52.296875 66.21875 46.1875 66.21875 
Q 37.84375 66.21875 31.515625 62.203125 
Q 25.203125 58.203125 20.609375 50 
Q 17.671875 44.734375 16.125 38.84375 
Q 14.59375 32.953125 14.59375 27 
Q 14.59375 17.046875 19.75 11.8125 
Q 24.90625 6.59375 34.71875 6.59375 
Q 41.5 6.59375 47.75 8.765625 
Q 54 10.9375 59.90625 15.28125 
L 57.625 3.609375 
Q 51.8125 1.125 45.875 -0.140625 
Q 39.9375 -1.421875 33.984375 -1.421875 
Q 19.96875 -1.421875 12.078125 6.1875 
Q 4.203125 13.8125 4.203125 27.390625 
Q 4.203125 36.078125 7.203125 44.46875 
Q 10.203125 52.875 15.828125 59.8125 
Q 21.78125 67.1875 29.421875 70.703125 
Q 37.0625 74.21875 47.21875 74.21875 
Q 53.46875 74.21875 59.0625 72.484375 
Q 64.65625 70.75 69.484375 67.28125 
z
" id="DejaVuSans-Oblique-67"/>
     <path d="M 10.59375 45.40625 
L 73.1875 45.40625 
L 73.1875 37.203125 
L 10.59375 37.203125 
z
M 10.59375 25.484375 
L 73.1875 25.484375 
L 73.1875 17.1875 
L 10.59375 17.1875 
z
" id="DejaVuSans-61"/>
     <path d="M 16.890625 72.90625 
L 26.8125 72.90625 
L 20.796875 42.1875 
L 59.078125 72.90625 
L 72.21875 72.90625 
L 28.90625 38.09375 
L 60.59375 0 
L 48.578125 0 
L 19.484375 35.5 
L 12.59375 0 
L 2.6875 0 
z
" id="DejaVuSans-Oblique-75"/>
     <path d="M 16.703125 72.90625 
L 26.609375 72.90625 
L 13.375 5.078125 
Q 10.796875 -8.15625 4.65625 -14.078125 
Q -1.46875 -20.015625 -12.5 -20.015625 
L -16.40625 -20.015625 
L -14.796875 -11.71875 
L -11.71875 -11.71875 
Q -5.125 -11.71875 -1.703125 -7.953125 
Q 1.703125 -4.203125 3.515625 5.078125 
z
" id="DejaVuSans-Oblique-74"/>
     <path d="M 18.3125 75.984375 
L 27.296875 75.984375 
L 18.703125 31.6875 
L 49.515625 54.6875 
L 61.1875 54.6875 
L 26.8125 28.515625 
L 51.90625 0 
L 41.015625 0 
L 17.671875 26.703125 
L 12.5 0 
L 3.515625 0 
z
" id="DejaVuSans-Oblique-107"/>
     <path d="M 59.625 54.6875 
L 50.296875 6.78125 
Q 47.609375 -7.125 40.015625 -13.953125 
Q 32.421875 -20.796875 19.578125 -20.796875 
Q 14.84375 -20.796875 10.78125 -20.09375 
Q 6.734375 -19.390625 3.21875 -17.921875 
L 4.890625 -9.1875 
Q 8.203125 -11.328125 11.90625 -12.34375 
Q 15.625 -13.375 19.828125 -13.375 
Q 28.375 -13.375 33.859375 -8.703125 
Q 39.359375 -4.046875 41.109375 4.6875 
L 41.890625 8.796875 
Q 38.140625 4.5 33.15625 2.25 
Q 28.171875 0 22.40625 0 
Q 14.109375 0 9.34375 5.484375 
Q 4.59375 10.984375 4.59375 20.609375 
Q 4.59375 28.171875 7.46875 35.421875 
Q 10.359375 42.671875 15.578125 48.296875 
Q 19.046875 52 23.65625 54 
Q 28.265625 56 33.296875 56 
Q 38.8125 56 42.90625 53.4375 
Q 47.015625 50.875 49.03125 46.1875 
L 50.59375 54.6875 
z
M 46.09375 34.625 
Q 46.09375 41.265625 42.96875 44.875 
Q 39.84375 48.484375 34.078125 48.484375 
Q 30.515625 48.484375 27.296875 47.0625 
Q 24.078125 45.65625 21.78125 43.109375 
Q 18.0625 38.921875 15.984375 33.234375 
Q 13.921875 27.546875 13.921875 21.484375 
Q 13.921875 14.75 17.0625 11.125 
Q 20.21875 7.515625 26.125 7.515625 
Q 34.671875 7.515625 40.375 15.25 
Q 46.09375 23 46.09375 34.625 
z
" id="DejaVuSans-Oblique-103"/>
    </defs>
    <g transform="translate(168 35.472)scale(0.12 -0.12)">
     <use transform="translate(0 0.015625)" xlink:href="#DejaVuSans-Oblique-72"/>
     <use transform="translate(75.195312 0.015625)" xlink:href="#DejaVuSans-40"/>
     <use transform="translate(114.208984 0.015625)" xlink:href="#DejaVuSans-Oblique-116"/>
     <use transform="translate(153.417969 0.015625)" xlink:href="#DejaVuSans-41"/>
     <use transform="translate(192.431641 0.015625)" xlink:href="#DejaVuSans-59"/>
     <use transform="translate(245.605469 0.015625)" xlink:href="#DejaVuSans-Oblique-67"/>
     <use transform="translate(315.429688 -16.390625)scale(0.7)" xlink:href="#DejaVuSans-Oblique-112"/>
     <use transform="translate(382.080078 0.015625)" xlink:href="#DejaVuSans-61"/>
     <use transform="translate(485.351562 0.015625)" xlink:href="#DejaVuSans-52"/>
     <use transform="translate(548.974609 0.015625)" xlink:href="#DejaVuSans-56"/>
     <use transform="translate(612.597656 0.015625)" xlink:href="#DejaVuSans-46"/>
     <use transform="translate(644.384766 0.015625)" xlink:href="#DejaVuSans-52"/>
     <use transform="translate(708.007812 0.015625)" xlink:href="#DejaVuSans-40"/>
     <use transform="translate(747.021484 0.015625)" xlink:href="#DejaVuSans-Oblique-75"/>
     <use transform="translate(812.597656 0.015625)" xlink:href="#DejaVuSans-Oblique-74"/>
     <use transform="translate(842.089844 0.015625)" xlink:href="#DejaVuSans-47"/>
     <use transform="translate(875.78125 0.015625)" xlink:href="#DejaVuSans-Oblique-75"/>
     <use transform="translate(941.357422 0.015625)" xlink:href="#DejaVuSans-47"/>
     <use transform="translate(975.048828 0.015625)" xlink:href="#DejaVuSans-Oblique-107"/>
     <use transform="translate(1032.958984 0.015625)" xlink:href="#DejaVuSans-Oblique-103"/>
     <use transform="translate(1096.435547 0.015625)" xlink:href="#DejaVuSans-41"/>
    </g>
   </g>
  </g>
 </g>
 <defs>
  <clipPath id="pe24a463c7a">
   <rect height="266.112" width="357.12" x="57.6" y="41.472"/>
  </clipPath>
 </defs>
</svg>
