<?xml version="1.0" encoding="utf-8" standalone="no"?>
<!DOCTYPE svg PUBLIC "-//W3C//DTD SVG 1.1//EN"
  "http://www.w3.org/Graphics/SVG/1.1/DTD/svg11.dtd">
<!-- Created with matplotlib (https://matplotlib.org/) -->
<svg height="345.6pt" version="1.1" viewBox="0 0 460.8 345.6" width="460.8pt" xmlns="http://www.w3.org/2000/svg" xmlns:xlink="http://www.w3.org/1999/xlink">
 <defs>
  <style type="text/css">
*{stroke-linecap:butt;stroke-linejoin:round;}
  </style>
 </defs>
 <g id="figure_1">
  <g id="patch_1">
   <path d="M 0 345.6 
L 460.8 345.6 
L 460.8 0 
L 0 0 
z
" style="fill:#ffffff;"/>
  </g>
  <g id="axes_1">
   <g id="patch_2">
    <path d="M 57.6 307.584 
L 414.72 307.584 
L 414.72 41.472 
L 57.6 41.472 
z
" style="fill:#ffffff;"/>
   </g>
   <g id="matplotlib.axis_1">
    <g id="xtick_1">
     <g id="line2d_1">
      <defs>
       <path d="M 0 0 
L 0 3.5 
" id="m274e0d4755" style="stroke:#000000;stroke-width:0.8;"/>
      </defs>
      <g>
       <use style="stroke:#000000;stroke-width:0.8;" x="73.832727" xlink:href="#m274e0d4755" y="307.584"/>
      </g>
     </g>
     <g id="text_1">
      <!-- 0 -->
      <defs>
       <path d="M 31.78125 66.40625 
Q 24.171875 66.40625 20.328125 58.90625 
Q 16.5 51.421875 16.5 36.375 
Q 16.5 21.390625 20.328125 13.890625 
Q 24.171875 6.390625 31.78125 6.390625 
Q 39.453125 6.390625 43.28125 13.890625 
Q 47.125 21.390625 47.125 36.375 
Q 47.125 51.421875 43.28125 58.90625 
Q 39.453125 66.40625 31.78125 66.40625 
z
M 31.78125 74.21875 
Q 44.046875 74.21875 50.515625 64.515625 
Q 56.984375 54.828125 56.984375 36.375 
Q 56.984375 17.96875 50.515625 8.265625 
Q 44.046875 -1.421875 31.78125 -1.421875 
Q 19.53125 -1.421875 13.0625 8.265625 
Q 6.59375 17.96875 6.59375 36.375 
Q 6.59375 54.828125 13.0625 64.515625 
Q 19.53125 74.21875 31.78125 74.21875 
z
" id="DejaVuSans-48"/>
      </defs>
      <g transform="translate(70.651477 322.182437)scale(0.1 -0.1)">
       <use xlink:href="#DejaVuSans-48"/>
      </g>
     </g>
    </g>
    <g id="xtick_2">
     <g id="line2d_2">
      <g>
       <use style="stroke:#000000;stroke-width:0.8;" x="120.411572" xlink:href="#m274e0d4755" y="307.584"/>
      </g>
     </g>
     <g id="text_2">
      <!-- 5 -->
      <defs>
       <path d="M 10.796875 72.90625 
L 49.515625 72.90625 
L 49.515625 64.59375 
L 19.828125 64.59375 
L 19.828125 46.734375 
Q 21.96875 47.46875 24.109375 47.828125 
Q 26.265625 48.1875 28.421875 48.1875 
Q 40.625 48.1875 47.75 41.5 
Q 54.890625 34.8125 54.890625 23.390625 
Q 54.890625 11.625 47.5625 5.09375 
Q 40.234375 -1.421875 26.90625 -1.421875 
Q 22.3125 -1.421875 17.546875 -0.640625 
Q 12.796875 0.140625 7.71875 1.703125 
L 7.71875 11.625 
Q 12.109375 9.234375 16.796875 8.0625 
Q 21.484375 6.890625 26.703125 6.890625 
Q 35.15625 6.890625 40.078125 11.328125 
Q 45.015625 15.765625 45.015625 23.390625 
Q 45.015625 31 40.078125 35.4375 
Q 35.15625 39.890625 26.703125 39.890625 
Q 22.75 39.890625 18.8125 39.015625 
Q 14.890625 38.140625 10.796875 36.28125 
z
" id="DejaVuSans-53"/>
      </defs>
      <g transform="translate(117.230322 322.182437)scale(0.1 -0.1)">
       <use xlink:href="#DejaVuSans-53"/>
      </g>
     </g>
    </g>
    <g id="xtick_3">
     <g id="line2d_3">
      <g>
       <use style="stroke:#000000;stroke-width:0.8;" x="166.990416" xlink:href="#m274e0d4755" y="307.584"/>
      </g>
     </g>
     <g id="text_3">
      <!-- 10 -->
      <defs>
       <path d="M 12.40625 8.296875 
L 28.515625 8.296875 
L 28.515625 63.921875 
L 10.984375 60.40625 
L 10.984375 69.390625 
L 28.421875 72.90625 
L 38.28125 72.90625 
L 38.28125 8.296875 
L 54.390625 8.296875 
L 54.390625 0 
L 12.40625 0 
z
" id="DejaVuSans-49"/>
      </defs>
      <g transform="translate(160.627916 322.182437)scale(0.1 -0.1)">
       <use xlink:href="#DejaVuSans-49"/>
       <use x="63.623047" xlink:href="#DejaVuSans-48"/>
      </g>
     </g>
    </g>
    <g id="xtick_4">
     <g id="line2d_4">
      <g>
       <use style="stroke:#000000;stroke-width:0.8;" x="213.56926" xlink:href="#m274e0d4755" y="307.584"/>
      </g>
     </g>
     <g id="text_4">
      <!-- 15 -->
      <g transform="translate(207.20676 322.182437)scale(0.1 -0.1)">
       <use xlink:href="#DejaVuSans-49"/>
       <use x="63.623047" xlink:href="#DejaVuSans-53"/>
      </g>
     </g>
    </g>
    <g id="xtick_5">
     <g id="line2d_5">
      <g>
       <use style="stroke:#000000;stroke-width:0.8;" x="260.148105" xlink:href="#m274e0d4755" y="307.584"/>
      </g>
     </g>
     <g id="text_5">
      <!-- 20 -->
      <defs>
       <path d="M 19.1875 8.296875 
L 53.609375 8.296875 
L 53.609375 0 
L 7.328125 0 
L 7.328125 8.296875 
Q 12.9375 14.109375 22.625 23.890625 
Q 32.328125 33.6875 34.8125 36.53125 
Q 39.546875 41.84375 41.421875 45.53125 
Q 43.3125 49.21875 43.3125 52.78125 
Q 43.3125 58.59375 39.234375 62.25 
Q 35.15625 65.921875 28.609375 65.921875 
Q 23.96875 65.921875 18.8125 64.3125 
Q 13.671875 62.703125 7.8125 59.421875 
L 7.8125 69.390625 
Q 13.765625 71.78125 18.9375 73 
Q 24.125 74.21875 28.421875 74.21875 
Q 39.75 74.21875 46.484375 68.546875 
Q 53.21875 62.890625 53.21875 53.421875 
Q 53.21875 48.921875 51.53125 44.890625 
Q 49.859375 40.875 45.40625 35.40625 
Q 44.1875 33.984375 37.640625 27.21875 
Q 31.109375 20.453125 19.1875 8.296875 
z
" id="DejaVuSans-50"/>
      </defs>
      <g transform="translate(253.785605 322.182437)scale(0.1 -0.1)">
       <use xlink:href="#DejaVuSans-50"/>
       <use x="63.623047" xlink:href="#DejaVuSans-48"/>
      </g>
     </g>
    </g>
    <g id="xtick_6">
     <g id="line2d_6">
      <g>
       <use style="stroke:#000000;stroke-width:0.8;" x="306.726949" xlink:href="#m274e0d4755" y="307.584"/>
      </g>
     </g>
     <g id="text_6">
      <!-- 25 -->
      <g transform="translate(300.364449 322.182437)scale(0.1 -0.1)">
       <use xlink:href="#DejaVuSans-50"/>
       <use x="63.623047" xlink:href="#DejaVuSans-53"/>
      </g>
     </g>
    </g>
    <g id="xtick_7">
     <g id="line2d_7">
      <g>
       <use style="stroke:#000000;stroke-width:0.8;" x="353.305794" xlink:href="#m274e0d4755" y="307.584"/>
      </g>
     </g>
     <g id="text_7">
      <!-- 30 -->
      <defs>
       <path d="M 40.578125 39.3125 
Q 47.65625 37.796875 51.625 33 
Q 55.609375 28.21875 55.609375 21.1875 
Q 55.609375 10.40625 48.1875 4.484375 
Q 40.765625 -1.421875 27.09375 -1.421875 
Q 22.515625 -1.421875 17.65625 -0.515625 
Q 12.796875 0.390625 7.625 2.203125 
L 7.625 11.71875 
Q 11.71875 9.328125 16.59375 8.109375 
Q 21.484375 6.890625 26.8125 6.890625 
Q 36.078125 6.890625 40.9375 10.546875 
Q 45.796875 14.203125 45.796875 21.1875 
Q 45.796875 27.640625 41.28125 31.265625 
Q 36.765625 34.90625 28.71875 34.90625 
L 20.21875 34.90625 
L 20.21875 43.015625 
L 29.109375 43.015625 
Q 36.375 43.015625 40.234375 45.921875 
Q 44.09375 48.828125 44.09375 54.296875 
Q 44.09375 59.90625 40.109375 62.90625 
Q 36.140625 65.921875 28.71875 65.921875 
Q 24.65625 65.921875 20.015625 65.03125 
Q 15.375 64.15625 9.8125 62.3125 
L 9.8125 71.09375 
Q 15.4375 72.65625 20.34375 73.4375 
Q 25.25 74.21875 29.59375 74.21875 
Q 40.828125 74.21875 47.359375 69.109375 
Q 53.90625 64.015625 53.90625 55.328125 
Q 53.90625 49.265625 50.4375 45.09375 
Q 46.96875 40.921875 40.578125 39.3125 
z
" id="DejaVuSans-51"/>
      </defs>
      <g transform="translate(346.943294 322.182437)scale(0.1 -0.1)">
       <use xlink:href="#DejaVuSans-51"/>
       <use x="63.623047" xlink:href="#DejaVuSans-48"/>
      </g>
     </g>
    </g>
    <g id="xtick_8">
     <g id="line2d_8">
      <g>
       <use style="stroke:#000000;stroke-width:0.8;" x="399.884638" xlink:href="#m274e0d4755" y="307.584"/>
      </g>
     </g>
     <g id="text_8">
      <!-- 35 -->
      <g transform="translate(393.522138 322.182437)scale(0.1 -0.1)">
       <use xlink:href="#DejaVuSans-51"/>
       <use x="63.623047" xlink:href="#DejaVuSans-53"/>
      </g>
     </g>
    </g>
    <g id="text_9">
     <!-- $time (ps)$ -->
     <defs>
      <path d="M 42.28125 54.6875 
L 40.921875 47.703125 
L 23 47.703125 
L 17.1875 18.015625 
Q 16.890625 16.359375 16.75 15.234375 
Q 16.609375 14.109375 16.609375 13.484375 
Q 16.609375 10.359375 18.484375 8.9375 
Q 20.359375 7.515625 24.515625 7.515625 
L 33.59375 7.515625 
L 32.078125 0 
L 23.484375 0 
Q 15.484375 0 11.546875 3.125 
Q 7.625 6.25 7.625 12.59375 
Q 7.625 13.71875 7.765625 15.0625 
Q 7.90625 16.40625 8.203125 18.015625 
L 14.015625 47.703125 
L 6.390625 47.703125 
L 7.8125 54.6875 
L 15.28125 54.6875 
L 18.3125 70.21875 
L 27.296875 70.21875 
L 24.3125 54.6875 
z
" id="DejaVuSans-Oblique-116"/>
      <path d="M 18.3125 75.984375 
L 27.296875 75.984375 
L 25.09375 64.59375 
L 16.109375 64.59375 
z
M 14.203125 54.6875 
L 23.1875 54.6875 
L 12.5 0 
L 3.515625 0 
z
" id="DejaVuSans-Oblique-105"/>
      <path d="M 89.796875 33.015625 
L 83.40625 0 
L 74.421875 0 
L 80.71875 32.71875 
Q 81.109375 34.8125 81.296875 36.328125 
Q 81.5 37.84375 81.5 38.921875 
Q 81.5 43.3125 79.046875 45.75 
Q 76.609375 48.1875 72.21875 48.1875 
Q 65.671875 48.1875 60.546875 43.28125 
Q 55.421875 38.375 53.90625 30.515625 
L 47.90625 0 
L 38.921875 0 
L 45.3125 32.71875 
Q 45.703125 34.515625 45.890625 36.046875 
Q 46.09375 37.59375 46.09375 38.8125 
Q 46.09375 43.265625 43.65625 45.71875 
Q 41.21875 48.1875 36.921875 48.1875 
Q 30.28125 48.1875 25.140625 43.28125 
Q 20.015625 38.375 18.5 30.515625 
L 12.5 0 
L 3.515625 0 
L 14.203125 54.6875 
L 23.1875 54.6875 
L 21.484375 46.1875 
Q 25.140625 50.984375 30.046875 53.484375 
Q 34.96875 56 40.578125 56 
Q 46.53125 56 50.359375 52.875 
Q 54.203125 49.75 54.984375 44.1875 
Q 59.078125 49.953125 64.46875 52.96875 
Q 69.875 56 75.875 56 
Q 82.90625 56 86.734375 51.953125 
Q 90.578125 47.90625 90.578125 40.484375 
Q 90.578125 38.875 90.375 36.9375 
Q 90.1875 35.015625 89.796875 33.015625 
z
" id="DejaVuSans-Oblique-109"/>
      <path d="M 48.09375 32.234375 
Q 48.25 33.015625 48.3125 33.84375 
Q 48.390625 34.671875 48.390625 35.5 
Q 48.390625 41.453125 44.890625 44.921875 
Q 41.40625 48.390625 35.40625 48.390625 
Q 28.71875 48.390625 23.578125 44.15625 
Q 18.453125 39.9375 15.828125 32.171875 
z
M 55.90625 25.203125 
L 14.109375 25.203125 
Q 13.8125 23.34375 13.71875 22.265625 
Q 13.625 21.1875 13.625 20.40625 
Q 13.625 13.625 17.796875 9.90625 
Q 21.96875 6.203125 29.59375 6.203125 
Q 35.453125 6.203125 40.671875 7.515625 
Q 45.90625 8.84375 50.390625 11.375 
L 48.6875 2.484375 
Q 43.84375 0.53125 38.6875 -0.4375 
Q 33.546875 -1.421875 28.21875 -1.421875 
Q 16.84375 -1.421875 10.71875 4.015625 
Q 4.59375 9.46875 4.59375 19.484375 
Q 4.59375 28.03125 7.640625 35.375 
Q 10.6875 42.71875 16.609375 48.484375 
Q 20.40625 52.09375 25.65625 54.046875 
Q 30.90625 56 36.8125 56 
Q 46.09375 56 51.578125 50.4375 
Q 57.078125 44.875 57.078125 35.5 
Q 57.078125 33.25 56.78125 30.6875 
Q 56.5 28.125 55.90625 25.203125 
z
" id="DejaVuSans-Oblique-101"/>
      <path d="M 31 75.875 
Q 24.46875 64.65625 21.28125 53.65625 
Q 18.109375 42.671875 18.109375 31.390625 
Q 18.109375 20.125 21.3125 9.0625 
Q 24.515625 -2 31 -13.1875 
L 23.1875 -13.1875 
Q 15.875 -1.703125 12.234375 9.375 
Q 8.59375 20.453125 8.59375 31.390625 
Q 8.59375 42.28125 12.203125 53.3125 
Q 15.828125 64.359375 23.1875 75.875 
z
" id="DejaVuSans-40"/>
      <path d="M 49.609375 33.6875 
Q 49.609375 40.875 46.484375 44.671875 
Q 43.359375 48.484375 37.5 48.484375 
Q 33.5 48.484375 29.859375 46.4375 
Q 26.21875 44.390625 23.390625 40.484375 
Q 20.609375 36.625 18.9375 31.15625 
Q 17.28125 25.6875 17.28125 20.3125 
Q 17.28125 13.484375 20.40625 9.796875 
Q 23.53125 6.109375 29.296875 6.109375 
Q 33.546875 6.109375 37.1875 8.109375 
Q 40.828125 10.109375 43.40625 13.921875 
Q 46.1875 17.921875 47.890625 23.34375 
Q 49.609375 28.765625 49.609375 33.6875 
z
M 21.78125 46.390625 
Q 25.390625 51.125 30.296875 53.5625 
Q 35.203125 56 41.21875 56 
Q 49.609375 56 54.25 50.5 
Q 58.890625 45.015625 58.890625 35.109375 
Q 58.890625 27 56 19.65625 
Q 53.125 12.3125 47.703125 6.5 
Q 44.09375 2.640625 39.546875 0.609375 
Q 35.015625 -1.421875 29.984375 -1.421875 
Q 24.171875 -1.421875 20.21875 1 
Q 16.265625 3.421875 14.3125 8.203125 
L 8.6875 -20.796875 
L -0.296875 -20.796875 
L 14.40625 54.6875 
L 23.390625 54.6875 
z
" id="DejaVuSans-Oblique-112"/>
      <path d="M 50 53.078125 
L 48.296875 44.578125 
Q 44.734375 46.53125 40.765625 47.5 
Q 36.8125 48.484375 32.625 48.484375 
Q 25.53125 48.484375 21.453125 46.0625 
Q 17.390625 43.65625 17.390625 39.5 
Q 17.390625 34.671875 26.859375 32.078125 
Q 27.59375 31.890625 27.9375 31.78125 
L 30.8125 30.90625 
Q 39.796875 28.421875 42.796875 25.6875 
Q 45.796875 22.953125 45.796875 18.21875 
Q 45.796875 9.515625 38.890625 4.046875 
Q 31.984375 -1.421875 20.796875 -1.421875 
Q 16.453125 -1.421875 11.671875 -0.578125 
Q 6.890625 0.25 1.125 2 
L 2.875 11.28125 
Q 7.8125 8.734375 12.59375 7.421875 
Q 17.390625 6.109375 21.78125 6.109375 
Q 28.375 6.109375 32.5 8.9375 
Q 36.625 11.765625 36.625 16.109375 
Q 36.625 20.796875 25.78125 23.6875 
L 24.859375 23.921875 
L 21.78125 24.703125 
Q 14.9375 26.515625 11.765625 29.46875 
Q 8.59375 32.421875 8.59375 37.015625 
Q 8.59375 45.75 15.15625 50.875 
Q 21.734375 56 33.015625 56 
Q 37.453125 56 41.671875 55.265625 
Q 45.90625 54.546875 50 53.078125 
z
" id="DejaVuSans-Oblique-115"/>
      <path d="M 8.015625 75.875 
L 15.828125 75.875 
Q 23.140625 64.359375 26.78125 53.3125 
Q 30.421875 42.28125 30.421875 31.390625 
Q 30.421875 20.453125 26.78125 9.375 
Q 23.140625 -1.703125 15.828125 -13.1875 
L 8.015625 -13.1875 
Q 14.5 -2 17.703125 9.0625 
Q 20.90625 20.125 20.90625 31.390625 
Q 20.90625 42.671875 17.703125 53.65625 
Q 14.5 64.65625 8.015625 75.875 
z
" id="DejaVuSans-41"/>
     </defs>
     <g transform="translate(215.16 335.862125)scale(0.1 -0.1)">
      <use transform="translate(0 0.015625)" xlink:href="#DejaVuSans-Oblique-116"/>
      <use transform="translate(39.208984 0.015625)" xlink:href="#DejaVuSans-Oblique-105"/>
      <use transform="translate(66.992188 0.015625)" xlink:href="#DejaVuSans-Oblique-109"/>
      <use transform="translate(164.404297 0.015625)" xlink:href="#DejaVuSans-Oblique-101"/>
      <use transform="translate(225.927734 0.015625)" xlink:href="#DejaVuSans-40"/>
      <use transform="translate(264.941406 0.015625)" xlink:href="#DejaVuSans-Oblique-112"/>
      <use transform="translate(328.417969 0.015625)" xlink:href="#DejaVuSans-Oblique-115"/>
      <use transform="translate(380.517578 0.015625)" xlink:href="#DejaVuSans-41"/>
     </g>
    </g>
   </g>
   <g id="matplotlib.axis_2">
    <g id="ytick_1">
     <g id="line2d_9">
      <defs>
       <path d="M 0 0 
L -3.5 0 
" id="m786c368c96" style="stroke:#000000;stroke-width:0.8;"/>
      </defs>
      <g>
       <use style="stroke:#000000;stroke-width:0.8;" x="57.6" xlink:href="#m786c368c96" y="294.151662"/>
      </g>
     </g>
     <g id="text_10">
      <!-- −10.60 -->
      <defs>
       <path d="M 10.59375 35.5 
L 73.1875 35.5 
L 73.1875 27.203125 
L 10.59375 27.203125 
z
" id="DejaVuSans-8722"/>
       <path d="M 10.6875 12.40625 
L 21 12.40625 
L 21 0 
L 10.6875 0 
z
" id="DejaVuSans-46"/>
       <path d="M 33.015625 40.375 
Q 26.375 40.375 22.484375 35.828125 
Q 18.609375 31.296875 18.609375 23.390625 
Q 18.609375 15.53125 22.484375 10.953125 
Q 26.375 6.390625 33.015625 6.390625 
Q 39.65625 6.390625 43.53125 10.953125 
Q 47.40625 15.53125 47.40625 23.390625 
Q 47.40625 31.296875 43.53125 35.828125 
Q 39.65625 40.375 33.015625 40.375 
z
M 52.59375 71.296875 
L 52.59375 62.3125 
Q 48.875 64.0625 45.09375 64.984375 
Q 41.3125 65.921875 37.59375 65.921875 
Q 27.828125 65.921875 22.671875 59.328125 
Q 17.53125 52.734375 16.796875 39.40625 
Q 19.671875 43.65625 24.015625 45.921875 
Q 28.375 48.1875 33.59375 48.1875 
Q 44.578125 48.1875 50.953125 41.515625 
Q 57.328125 34.859375 57.328125 23.390625 
Q 57.328125 12.15625 50.6875 5.359375 
Q 44.046875 -1.421875 33.015625 -1.421875 
Q 20.359375 -1.421875 13.671875 8.265625 
Q 6.984375 17.96875 6.984375 36.375 
Q 6.984375 53.65625 15.1875 63.9375 
Q 23.390625 74.21875 37.203125 74.21875 
Q 40.921875 74.21875 44.703125 73.484375 
Q 48.484375 72.75 52.59375 71.296875 
z
" id="DejaVuSans-54"/>
      </defs>
      <g transform="translate(13.592188 297.950881)scale(0.1 -0.1)">
       <use xlink:href="#DejaVuSans-8722"/>
       <use x="83.789062" xlink:href="#DejaVuSans-49"/>
       <use x="147.412109" xlink:href="#DejaVuSans-48"/>
       <use x="211.035156" xlink:href="#DejaVuSans-46"/>
       <use x="242.822266" xlink:href="#DejaVuSans-54"/>
       <use x="306.445312" xlink:href="#DejaVuSans-48"/>
      </g>
     </g>
    </g>
    <g id="ytick_2">
     <g id="line2d_10">
      <g>
       <use style="stroke:#000000;stroke-width:0.8;" x="57.6" xlink:href="#m786c368c96" y="255.259397"/>
      </g>
     </g>
     <g id="text_11">
      <!-- −10.55 -->
      <g transform="translate(13.592188 259.058616)scale(0.1 -0.1)">
       <use xlink:href="#DejaVuSans-8722"/>
       <use x="83.789062" xlink:href="#DejaVuSans-49"/>
       <use x="147.412109" xlink:href="#DejaVuSans-48"/>
       <use x="211.035156" xlink:href="#DejaVuSans-46"/>
       <use x="242.822266" xlink:href="#DejaVuSans-53"/>
       <use x="306.445312" xlink:href="#DejaVuSans-53"/>
      </g>
     </g>
    </g>
    <g id="ytick_3">
     <g id="line2d_11">
      <g>
       <use style="stroke:#000000;stroke-width:0.8;" x="57.6" xlink:href="#m786c368c96" y="216.367132"/>
      </g>
     </g>
     <g id="text_12">
      <!-- −10.50 -->
      <g transform="translate(13.592188 220.166351)scale(0.1 -0.1)">
       <use xlink:href="#DejaVuSans-8722"/>
       <use x="83.789062" xlink:href="#DejaVuSans-49"/>
       <use x="147.412109" xlink:href="#DejaVuSans-48"/>
       <use x="211.035156" xlink:href="#DejaVuSans-46"/>
       <use x="242.822266" xlink:href="#DejaVuSans-53"/>
       <use x="306.445312" xlink:href="#DejaVuSans-48"/>
      </g>
     </g>
    </g>
    <g id="ytick_4">
     <g id="line2d_12">
      <g>
       <use style="stroke:#000000;stroke-width:0.8;" x="57.6" xlink:href="#m786c368c96" y="177.474867"/>
      </g>
     </g>
     <g id="text_13">
      <!-- −10.45 -->
      <defs>
       <path d="M 37.796875 64.3125 
L 12.890625 25.390625 
L 37.796875 25.390625 
z
M 35.203125 72.90625 
L 47.609375 72.90625 
L 47.609375 25.390625 
L 58.015625 25.390625 
L 58.015625 17.1875 
L 47.609375 17.1875 
L 47.609375 0 
L 37.796875 0 
L 37.796875 17.1875 
L 4.890625 17.1875 
L 4.890625 26.703125 
z
" id="DejaVuSans-52"/>
      </defs>
      <g transform="translate(13.592188 181.274086)scale(0.1 -0.1)">
       <use xlink:href="#DejaVuSans-8722"/>
       <use x="83.789062" xlink:href="#DejaVuSans-49"/>
       <use x="147.412109" xlink:href="#DejaVuSans-48"/>
       <use x="211.035156" xlink:href="#DejaVuSans-46"/>
       <use x="242.822266" xlink:href="#DejaVuSans-52"/>
       <use x="306.445312" xlink:href="#DejaVuSans-53"/>
      </g>
     </g>
    </g>
    <g id="ytick_5">
     <g id="line2d_13">
      <g>
       <use style="stroke:#000000;stroke-width:0.8;" x="57.6" xlink:href="#m786c368c96" y="138.582602"/>
      </g>
     </g>
     <g id="text_14">
      <!-- −10.40 -->
      <g transform="translate(13.592188 142.381821)scale(0.1 -0.1)">
       <use xlink:href="#DejaVuSans-8722"/>
       <use x="83.789062" xlink:href="#DejaVuSans-49"/>
       <use x="147.412109" xlink:href="#DejaVuSans-48"/>
       <use x="211.035156" xlink:href="#DejaVuSans-46"/>
       <use x="242.822266" xlink:href="#DejaVuSans-52"/>
       <use x="306.445312" xlink:href="#DejaVuSans-48"/>
      </g>
     </g>
    </g>
    <g id="ytick_6">
     <g id="line2d_14">
      <g>
       <use style="stroke:#000000;stroke-width:0.8;" x="57.6" xlink:href="#m786c368c96" y="99.690337"/>
      </g>
     </g>
     <g id="text_15">
      <!-- −10.35 -->
      <g transform="translate(13.592188 103.489556)scale(0.1 -0.1)">
       <use xlink:href="#DejaVuSans-8722"/>
       <use x="83.789062" xlink:href="#DejaVuSans-49"/>
       <use x="147.412109" xlink:href="#DejaVuSans-48"/>
       <use x="211.035156" xlink:href="#DejaVuSans-46"/>
       <use x="242.822266" xlink:href="#DejaVuSans-51"/>
       <use x="306.445312" xlink:href="#DejaVuSans-53"/>
      </g>
     </g>
    </g>
    <g id="ytick_7">
     <g id="line2d_15">
      <g>
       <use style="stroke:#000000;stroke-width:0.8;" x="57.6" xlink:href="#m786c368c96" y="60.798072"/>
      </g>
     </g>
     <g id="text_16">
      <!-- −10.30 -->
      <g transform="translate(13.592188 64.597291)scale(0.1 -0.1)">
       <use xlink:href="#DejaVuSans-8722"/>
       <use x="83.789062" xlink:href="#DejaVuSans-49"/>
       <use x="147.412109" xlink:href="#DejaVuSans-48"/>
       <use x="211.035156" xlink:href="#DejaVuSans-46"/>
       <use x="242.822266" xlink:href="#DejaVuSans-51"/>
       <use x="306.445312" xlink:href="#DejaVuSans-48"/>
      </g>
     </g>
    </g>
    <g id="text_17">
     <!-- $E_{tot} (Mcal/mol)$ -->
     <defs>
      <path d="M 16.890625 72.90625 
L 62.984375 72.90625 
L 61.375 64.59375 
L 25.09375 64.59375 
L 20.90625 43.015625 
L 55.71875 43.015625 
L 54.109375 34.71875 
L 19.28125 34.71875 
L 14.203125 8.296875 
L 51.3125 8.296875 
L 49.703125 0 
L 2.6875 0 
z
" id="DejaVuSans-Oblique-69"/>
      <path d="M 25.390625 -1.421875 
Q 15.765625 -1.421875 10.171875 4.515625 
Q 4.59375 10.453125 4.59375 20.703125 
Q 4.59375 26.65625 6.515625 32.828125 
Q 8.453125 39.015625 11.53125 43.21875 
Q 16.359375 49.75 22.3125 52.875 
Q 28.265625 56 35.796875 56 
Q 45.125 56 50.859375 50.1875 
Q 56.59375 44.390625 56.59375 35.015625 
Q 56.59375 28.515625 54.6875 22.0625 
Q 52.78125 15.625 49.703125 11.375 
Q 44.921875 4.828125 38.96875 1.703125 
Q 33.015625 -1.421875 25.390625 -1.421875 
z
M 13.921875 21 
Q 13.921875 13.578125 17.015625 9.890625 
Q 20.125 6.203125 26.421875 6.203125 
Q 35.453125 6.203125 41.375 14.078125 
Q 47.3125 21.96875 47.3125 34.078125 
Q 47.3125 41.15625 44.140625 44.765625 
Q 40.96875 48.390625 34.8125 48.390625 
Q 29.734375 48.390625 25.78125 46.015625 
Q 21.828125 43.65625 18.703125 38.8125 
Q 16.40625 35.203125 15.15625 30.5625 
Q 13.921875 25.921875 13.921875 21 
z
" id="DejaVuSans-Oblique-111"/>
      <path d="M 16.890625 72.90625 
L 31.6875 72.90625 
L 40.1875 23.78125 
L 68.40625 72.90625 
L 83.59375 72.90625 
L 69.390625 0 
L 59.8125 0 
L 72.21875 63.921875 
L 43.609375 14.015625 
L 33.984375 14.015625 
L 24.703125 64.109375 
L 12.3125 0 
L 2.6875 0 
z
" id="DejaVuSans-Oblique-77"/>
      <path d="M 53.609375 52.59375 
L 51.8125 43.703125 
Q 48.578125 46.046875 44.9375 47.21875 
Q 41.3125 48.390625 37.40625 48.390625 
Q 33.109375 48.390625 29.21875 46.875 
Q 25.34375 45.359375 22.703125 42.578125 
Q 18.5 38.328125 16.203125 32.609375 
Q 13.921875 26.90625 13.921875 20.796875 
Q 13.921875 13.421875 17.609375 9.8125 
Q 21.296875 6.203125 28.8125 6.203125 
Q 32.515625 6.203125 36.6875 7.328125 
Q 40.875 8.453125 45.40625 10.6875 
L 43.703125 1.8125 
Q 39.796875 0.203125 35.671875 -0.609375 
Q 31.546875 -1.421875 27.203125 -1.421875 
Q 16.3125 -1.421875 10.453125 4.015625 
Q 4.59375 9.46875 4.59375 19.578125 
Q 4.59375 28.078125 7.640625 35.234375 
Q 10.6875 42.390625 16.703125 48.09375 
Q 20.796875 52 26.3125 54 
Q 31.84375 56 38.375 56 
Q 42.1875 56 45.9375 55.140625 
Q 49.703125 54.296875 53.609375 52.59375 
z
" id="DejaVuSans-Oblique-99"/>
      <path d="M 53.71875 31.203125 
L 47.609375 0 
L 38.625 0 
L 40.28125 8.296875 
Q 36.328125 3.421875 31.265625 1 
Q 26.21875 -1.421875 20.015625 -1.421875 
Q 13.03125 -1.421875 8.5625 2.84375 
Q 4.109375 7.125 4.109375 13.8125 
Q 4.109375 23.390625 11.75 28.953125 
Q 19.390625 34.515625 32.8125 34.515625 
L 45.3125 34.515625 
L 45.796875 36.921875 
Q 45.90625 37.3125 45.953125 37.765625 
Q 46 38.234375 46 39.203125 
Q 46 43.5625 42.453125 45.96875 
Q 38.921875 48.390625 32.515625 48.390625 
Q 28.125 48.390625 23.5 47.265625 
Q 18.890625 46.140625 14.015625 43.890625 
L 15.578125 52.203125 
Q 20.65625 54.109375 25.515625 55.046875 
Q 30.375 56 34.90625 56 
Q 44.578125 56 49.625 51.796875 
Q 54.6875 47.609375 54.6875 39.59375 
Q 54.6875 37.984375 54.4375 35.8125 
Q 54.203125 33.640625 53.71875 31.203125 
z
M 44 27.484375 
L 35.015625 27.484375 
Q 23.96875 27.484375 18.671875 24.53125 
Q 13.375 21.578125 13.375 15.375 
Q 13.375 11.078125 16.078125 8.640625 
Q 18.796875 6.203125 23.578125 6.203125 
Q 30.90625 6.203125 36.375 11.453125 
Q 41.84375 16.703125 43.609375 25.484375 
z
" id="DejaVuSans-Oblique-97"/>
      <path d="M 18.3125 75.984375 
L 27.296875 75.984375 
L 12.5 0 
L 3.515625 0 
z
" id="DejaVuSans-Oblique-108"/>
      <path d="M 25.390625 72.90625 
L 33.6875 72.90625 
L 8.296875 -9.28125 
L 0 -9.28125 
z
" id="DejaVuSans-47"/>
     </defs>
     <g transform="translate(7.5125 209.178)rotate(-90)scale(0.1 -0.1)">
      <use transform="translate(0 0.015625)" xlink:href="#DejaVuSans-Oblique-69"/>
      <use transform="translate(63.183594 -16.390625)scale(0.7)" xlink:href="#DejaVuSans-Oblique-116"/>
      <use transform="translate(90.629883 -16.390625)scale(0.7)" xlink:href="#DejaVuSans-Oblique-111"/>
      <use transform="translate(133.457031 -16.390625)scale(0.7)" xlink:href="#DejaVuSans-Oblique-116"/>
      <use transform="translate(163.637695 0.015625)" xlink:href="#DejaVuSans-40"/>
      <use transform="translate(202.651367 0.015625)" xlink:href="#DejaVuSans-Oblique-77"/>
      <use transform="translate(288.930664 0.015625)" xlink:href="#DejaVuSans-Oblique-99"/>
      <use transform="translate(343.911133 0.015625)" xlink:href="#DejaVuSans-Oblique-97"/>
      <use transform="translate(405.19043 0.015625)" xlink:href="#DejaVuSans-Oblique-108"/>
      <use transform="translate(432.973633 0.015625)" xlink:href="#DejaVuSans-47"/>
      <use transform="translate(466.665039 0.015625)" xlink:href="#DejaVuSans-Oblique-109"/>
      <use transform="translate(564.077148 0.015625)" xlink:href="#DejaVuSans-Oblique-111"/>
      <use transform="translate(625.258789 0.015625)" xlink:href="#DejaVuSans-Oblique-108"/>
      <use transform="translate(653.041992 0.015625)" xlink:href="#DejaVuSans-41"/>
     </g>
    </g>
   </g>
   <g id="line2d_16">
    <path clip-path="url(#pc6ada226b5)" d="M 73.832727 127.478082 
L 73.925885 127.617317 
L 74.205358 129.880069 
L 74.857462 137.343494 
L 75.136935 150.399628 
L 75.509566 181.231082 
L 75.882196 210.075919 
L 76.161669 217.243764 
L 76.347985 218.444757 
L 76.441143 218.268186 
L 76.627458 216.282347 
L 77.000089 206.407601 
L 77.931666 177.842788 
L 78.583769 165.39104 
L 79.049558 158.262866 
L 79.329031 149.091292 
L 79.794819 120.564593 
L 80.726396 57.739584 
L 80.912712 53.813799 
L 81.005869 53.568 
L 81.099027 54.604868 
L 81.285342 60.846298 
L 81.657973 84.306891 
L 82.216919 117.771351 
L 82.58955 127.278176 
L 83.521127 141.97323 
L 84.080073 160.165475 
L 85.01165 208.612792 
L 85.291123 213.152297 
L 85.477438 214.896226 
L 85.663754 216.758388 
L 85.756911 216.856397 
L 86.036385 216.626932 
L 86.315858 216.836173 
L 86.595331 216.16567 
L 86.781646 217.966382 
L 87.247434 226.586463 
L 87.526908 241.750558 
L 88.179011 293.369927 
L 88.365327 295.488 
L 88.551642 292.139376 
L 88.831115 280.503588 
L 89.296904 248.36302 
L 89.762692 218.713113 
L 90.507954 187.408729 
L 90.787427 182.226724 
L 91.0669 180.183324 
L 91.43953 178.745088 
L 91.532688 179.36892 
L 91.812161 185.544234 
L 92.743738 221.301782 
L 93.209527 236.426206 
L 93.395842 237.497299 
L 93.489 236.725677 
L 93.675315 230.488135 
L 93.954788 208.089302 
L 94.513734 158.47444 
L 94.886365 147.728507 
L 95.07268 146.421727 
L 95.165838 146.521291 
L 95.631626 148.315002 
L 96.004257 151.638735 
L 96.376888 160.374716 
L 96.749519 175.113329 
L 97.867411 233.205149 
L 98.146884 237.509745 
L 98.240042 237.501189 
L 98.426357 236.403649 
L 98.70583 232.571205 
L 99.264776 218.797121 
L 99.91688 200.849896 
L 100.289511 197.404041 
L 100.941615 190.656233 
L 101.221088 190.184081 
L 101.500561 188.843854 
L 101.873192 190.06196 
L 102.059507 189.317562 
L 102.245822 188.438596 
L 102.432138 184.696383 
L 102.991084 163.86413 
L 103.456872 133.271474 
L 104.202134 90.928688 
L 104.481607 84.455459 
L 104.574765 85.096404 
L 104.76108 91.054698 
L 104.947395 106.473148 
L 105.506341 167.948596 
L 105.97213 184.701828 
L 106.531076 197.120128 
L 106.717391 198.251115 
L 106.810549 197.843524 
L 107.462653 191.467526 
L 107.928441 190.849917 
L 108.207914 189.710373 
L 108.487388 190.948703 
L 108.580545 190.637565 
L 108.860018 187.069589 
L 109.60528 177.319298 
L 109.791595 176.059188 
L 110.071068 172.068064 
L 110.443699 163.231742 
L 111.18896 137.823425 
L 111.654749 122.789231 
L 111.841064 121.56957 
L 111.934222 122.160732 
L 112.120537 127.744883 
L 112.493168 151.215587 
L 113.052114 190.02929 
L 113.331587 195.575327 
L 113.424745 195.713783 
L 113.517903 195.568326 
L 113.704218 194.339331 
L 113.983691 192.14114 
L 114.076849 192.040798 
L 114.263164 191.263731 
L 114.356322 191.235728 
L 114.728953 193.060553 
L 114.915268 195.634443 
L 115.194741 204.392981 
L 115.567372 227.3962 
L 116.126318 261.44949 
L 116.405791 268.530993 
L 116.685264 270.40949 
L 116.778422 270.160579 
L 116.964737 268.243191 
L 117.616841 259.758454 
L 117.709999 259.781789 
L 117.803156 259.945915 
L 118.082629 261.554499 
L 118.175787 261.494605 
L 118.362103 259.256744 
L 119.014206 244.578025 
L 119.573152 231.997933 
L 119.852626 225.318576 
L 120.132099 210.962663 
L 120.691045 182.061821 
L 121.715779 145.772226 
L 121.902095 145.083833 
L 122.08841 145.35219 
L 122.274725 146.209375 
L 122.461041 148.696147 
L 122.926829 159.053157 
L 124.231037 196.55619 
L 124.417352 197.407931 
L 124.51051 197.250806 
L 124.976298 194.038305 
L 125.348929 194.927382 
L 125.535245 197.269474 
L 126.466821 214.644982 
L 126.93261 223.55909 
L 127.212083 229.648063 
L 127.398398 230.659261 
L 127.491556 230.328677 
L 127.677871 227.841128 
L 127.957344 219.121482 
L 128.795764 171.654251 
L 129.168394 152.964184 
L 129.447867 146.98022 
L 129.541025 146.743755 
L 129.727341 148.039645 
L 130.006814 153.223206 
L 130.379444 160.840645 
L 131.124706 177.826453 
L 131.497337 189.182994 
L 132.242598 215.849865 
L 132.335756 216.769278 
L 132.428914 216.578706 
L 132.615229 211.816737 
L 132.98786 190.860029 
L 133.546806 158.297091 
L 134.012594 141.293393 
L 134.19891 138.655719 
L 134.292067 138.766173 
L 134.385225 139.67003 
L 134.57154 144.927486 
L 134.944171 163.938025 
L 135.78259 214.481635 
L 136.341536 229.02812 
L 136.714167 234.173566 
L 136.900483 235.033863 
L 136.99364 234.965413 
L 137.273113 233.702192 
L 137.552586 230.142772 
L 137.832059 224.377383 
L 138.111533 213.600336 
L 139.41574 144.996714 
L 139.695213 141.683093 
L 139.881529 141.010257 
L 140.067844 141.610754 
L 140.533632 144.656796 
L 140.62679 144.757916 
L 141.185736 147.315471 
L 141.372052 149.606226 
L 141.83784 160.274374 
L 142.489944 175.776053 
L 142.769417 177.194065 
L 143.04889 178.498511 
L 143.514678 181.265307 
L 144.353098 194.291882 
L 144.539413 195.696671 
L 145.098359 204.866689 
L 145.47099 211.231019 
L 145.657305 212.137209 
L 145.750463 211.684503 
L 145.936778 208.472002 
L 146.868355 180.590137 
L 147.334144 167.071186 
L 147.613617 162.565128 
L 147.799932 161.580376 
L 147.986248 162.418893 
L 148.265721 164.060925 
L 148.452036 165.839857 
L 148.731509 172.891802 
L 149.10414 189.681593 
L 150.128874 238.099352 
L 150.408347 244.164989 
L 150.594663 244.952947 
L 150.780978 242.158926 
L 151.060451 230.131104 
L 151.433082 203.047309 
L 151.89887 167.225977 
L 152.178344 159.111495 
L 152.271501 159.186946 
L 152.644132 162.017525 
L 152.923605 167.785248 
L 153.389394 176.809031 
L 153.482551 177.094501 
L 153.575709 176.998826 
L 153.762024 175.492139 
L 153.94834 172.709787 
L 154.227813 162.63669 
L 154.786759 132.150599 
L 155.345705 103.105078 
L 155.718336 94.435992 
L 155.904651 92.596388 
L 156.090966 92.440819 
L 156.184124 92.650837 
L 156.37044 95.322736 
L 157.488332 118.474523 
L 158.419909 150.622092 
L 159.072013 164.424178 
L 159.537801 172.910471 
L 160.003589 186.158732 
L 160.37622 201.801979 
L 161.400955 251.107259 
L 161.58727 253.52558 
L 161.680428 253.419015 
L 161.866743 250.140397 
L 162.79832 219.166597 
L 163.077793 216.749054 
L 163.170951 216.821394 
L 163.264109 217.153533 
L 164.102528 223.996239 
L 164.195685 224.214813 
L 164.288843 224.120694 
L 164.475158 223.139831 
L 165.22042 213.619004 
L 165.593051 205.450073 
L 165.965681 199.871367 
L 166.43147 190.762798 
L 166.710943 188.728733 
L 166.990416 188.101012 
L 168.108308 176.926486 
L 168.387781 178.756756 
L 168.574097 181.782574 
L 168.85357 192.616404 
L 169.971462 246.330511 
L 170.250935 250.957134 
L 170.437251 252.106012 
L 170.530408 251.987002 
L 170.623566 251.645528 
L 170.809881 249.190648 
L 171.089354 237.768767 
L 171.461985 211.814403 
L 171.927774 175.545811 
L 172.207247 168.857897 
L 172.48672 167.793804 
L 172.579877 167.707463 
L 172.673035 168.467418 
L 172.85935 172.934584 
L 173.231981 189.259223 
L 173.69777 216.174226 
L 174.163558 241.896792 
L 174.443031 249.452782 
L 174.629347 250.901907 
L 174.722504 250.577546 
L 175.001977 246.34529 
L 175.374608 234.71728 
L 176.865131 180.537244 
L 177.237762 174.6544 
L 177.70355 172.201854 
L 177.796708 172.288194 
L 178.076181 173.633089 
L 178.169339 173.654091 
L 178.262496 173.97923 
L 178.541969 178.443284 
L 178.821443 187.592301 
L 179.100916 208.598013 
L 179.659862 251.780873 
L 179.846177 255.439079 
L 179.939335 255.574424 
L 180.12565 254.469106 
L 180.311966 250.936133 
L 180.684596 234.567156 
L 181.243542 208.053521 
L 181.709331 197.272585 
L 182.175119 190.531778 
L 182.361435 189.64659 
L 182.454592 189.78038 
L 182.640908 191.702435 
L 183.106696 201.308047 
L 183.479327 216.674381 
L 184.410904 258.535681 
L 184.504062 259.108175 
L 184.597219 258.426005 
L 184.783535 253.869387 
L 185.063008 242.109922 
L 185.994585 188.922416 
L 186.367215 181.336869 
L 186.646688 179.041447 
L 187.205635 176.016407 
L 187.39195 174.790523 
L 187.485108 174.753964 
L 187.578265 174.851973 
L 187.764581 174.184581 
L 187.950896 173.638534 
L 188.137211 174.57506 
L 188.323527 176.958378 
L 189.627734 198.330455 
L 190.000365 200.480419 
L 190.093523 199.472332 
L 190.279838 193.141449 
L 190.559311 172.321642 
L 191.211415 119.033794 
L 191.677204 103.733577 
L 191.956677 99.723784 
L 192.049834 99.874686 
L 192.23615 102.252559 
L 192.60878 111.914176 
L 194.006146 178.842319 
L 194.471934 185.870929 
L 194.751407 191.535976 
L 195.217196 202.871516 
L 195.496669 205.429849 
L 195.589827 205.461741 
L 195.776142 204.006392 
L 196.055615 197.808521 
L 196.335088 182.171497 
L 197.359823 106.383696 
L 197.546138 103.775581 
L 197.639296 103.688462 
L 197.825611 106.087337 
L 198.105084 113.435641 
L 198.757188 139.025974 
L 199.409292 165.80252 
L 199.688765 170.355249 
L 199.781923 170.975192 
L 199.87508 170.694389 
L 200.154553 165.954978 
L 200.434026 160.197367 
L 200.899815 150.974455 
L 201.365603 142.25481 
L 201.645076 138.402142 
L 201.924549 135.94804 
L 202.017707 136.040604 
L 202.29718 138.772396 
L 202.576653 145.096278 
L 202.949284 160.723191 
L 203.694545 193.784727 
L 204.160334 206.789523 
L 204.626122 212.840381 
L 204.71928 212.499685 
L 204.905595 209.167396 
L 205.557699 190.87403 
L 206.209803 165.268918 
L 207.234538 126.306647 
L 207.607168 119.782859 
L 207.979799 117.212858 
L 208.072957 117.537997 
L 208.259272 121.900932 
L 208.445588 135.065186 
L 209.190849 213.661008 
L 209.470322 218.950356 
L 209.56348 219.204712 
L 209.656638 219.019584 
L 209.936111 216.511811 
L 210.215584 212.873051 
L 210.588214 204.588221 
L 211.612949 172.022171 
L 211.706107 171.569465 
L 211.799264 171.837044 
L 211.98558 174.620175 
L 212.358211 185.811035 
L 212.730841 201.827648 
L 213.848734 260.089038 
L 214.035049 261.515607 
L 214.128207 261.643173 
L 214.221364 261.570834 
L 214.40768 260.534744 
L 214.593995 257.584376 
L 215.525572 235.162208 
L 215.99136 223.19428 
L 216.457149 217.614018 
L 216.736622 209.970132 
L 217.575041 183.02246 
L 218.227145 164.900998 
L 218.506618 162.780591 
L 218.599776 162.576018 
L 218.692933 162.803149 
L 218.879249 164.758652 
L 219.62451 176.476114 
L 219.903983 187.115482 
L 220.276614 214.464522 
L 220.83556 263.357544 
L 221.115033 272.7018 
L 221.301349 274.383501 
L 221.394506 274.294049 
L 221.580822 271.682045 
L 221.860295 261.062901 
L 222.791872 216.745943 
L 223.071345 211.425481 
L 223.164502 211.636277 
L 223.537133 213.500772 
L 223.630291 213.49066 
L 223.816606 212.389231 
L 224.282395 208.902151 
L 224.46871 208.293098 
L 224.655025 206.836193 
L 225.213972 197.377595 
L 225.493445 190.233086 
L 226.331864 163.591106 
L 226.611337 160.605736 
L 226.704495 160.980657 
L 226.983968 165.277475 
L 227.263441 174.237475 
L 227.729229 201.043579 
L 228.474491 242.256157 
L 228.753964 248.88651 
L 228.940279 249.732806 
L 229.126594 247.130136 
L 229.592383 232.563427 
L 230.896591 177.236068 
L 231.73501 153.796478 
L 232.387114 133.307255 
L 232.573429 130.47901 
L 232.666587 130.431561 
L 232.852902 131.256077 
L 233.039217 133.513384 
L 233.31869 140.681229 
L 233.877637 170.321024 
L 234.716056 221.1221 
L 234.902371 222.289646 
L 235.088687 219.972445 
L 237.324471 166.739046 
L 237.510786 165.798631 
L 237.603944 165.910641 
L 237.79026 168.042715 
L 238.256048 177.060275 
L 238.628679 188.699175 
L 239.00131 210.450063 
L 239.653413 254.542223 
L 239.932886 262.993513 
L 240.026044 263.637569 
L 240.119202 262.984956 
L 240.305517 258.936272 
L 240.58499 247.822418 
L 241.516567 199.3611 
L 241.79604 194.873711 
L 241.889198 194.304328 
L 241.982356 194.43345 
L 242.354986 197.991315 
L 242.727617 204.291861 
L 243.472879 215.939317 
L 243.752352 219.255271 
L 244.031825 226.769257 
L 245.056559 259.573327 
L 245.149717 258.740255 
L 245.336032 253.563694 
L 245.615505 235.136539 
L 246.267609 184.784279 
L 246.733398 169.767976 
L 247.012871 164.092816 
L 247.106028 163.647889 
L 247.199186 164.303612 
L 247.571817 171.80593 
L 247.944448 184.485587 
L 248.782867 217.841149 
L 249.06234 220.273471 
L 249.155498 220.626613 
L 249.248655 220.397148 
L 249.434971 218.170955 
L 249.621286 213.156964 
L 249.900759 196.075482 
L 250.739178 127.00593 
L 250.925494 123.479958 
L 251.018651 123.231825 
L 251.204967 126.248309 
L 251.577597 135.559895 
L 251.857071 148.913943 
L 252.416017 178.338275 
L 252.881805 194.875266 
L 253.068121 196.273832 
L 253.161278 196.346172 
L 253.440751 194.308217 
L 253.627067 191.577202 
L 253.90654 183.815862 
L 254.558644 162.140425 
L 254.931274 153.735806 
L 255.024432 153.367108 
L 255.11759 154.673888 
L 255.303905 161.490924 
L 255.583378 181.793464 
L 256.32864 243.179459 
L 256.608113 252.092789 
L 257.073901 256.698411 
L 257.167059 257.295018 
L 257.260217 257.119225 
L 257.446532 255.488083 
L 257.632847 251.833766 
L 257.91232 241.831453 
L 258.843897 192.250816 
L 259.402843 166.818386 
L 259.868632 155.23627 
L 260.241263 149.940699 
L 260.427578 149.15352 
L 260.520736 149.372872 
L 260.986524 152.534035 
L 261.172839 154.236739 
L 261.452313 160.779195 
L 262.197574 182.937674 
L 262.849678 226.644802 
L 263.222309 246.120492 
L 263.594939 256.668853 
L 263.96757 261.802631 
L 264.153885 262.491802 
L 264.247043 262.367347 
L 264.526516 260.136487 
L 264.712832 254.609896 
L 264.992305 237.65598 
L 265.737566 179.152679 
L 266.017039 171.573355 
L 267.228089 153.776254 
L 267.880193 142.365264 
L 268.252824 136.848785 
L 268.532297 129.581376 
L 269.463874 101.683955 
L 269.557031 101.527608 
L 269.743347 104.260956 
L 270.02282 115.119676 
L 270.395451 143.46047 
L 270.861239 177.91435 
L 271.23387 187.119371 
L 271.792816 193.717832 
L 272.072289 194.66447 
L 272.258604 194.337775 
L 272.631235 195.057282 
L 272.724393 194.872933 
L 273.097024 192.324712 
L 273.190181 192.797641 
L 273.376497 196.17349 
L 273.935443 213.681232 
L 275.146493 256.414497 
L 275.332808 257.11378 
L 275.519124 255.510641 
L 275.705439 252.932084 
L 276.07807 241.985467 
L 276.4507 223.550533 
L 277.475435 158.714016 
L 277.941223 146.56485 
L 278.127539 145.541984 
L 278.407012 145.237846 
L 278.50017 145.393415 
L 278.8728 147.309248 
L 279.152273 146.660525 
L 279.618062 143.974626 
L 279.71122 144.228981 
L 280.270166 148.917055 
L 280.735954 155.053476 
L 280.829112 155.490625 
L 280.922269 155.223046 
L 281.108585 153.388887 
L 281.388058 148.880496 
L 282.040162 136.445861 
L 282.226477 134.790606 
L 282.319635 135.089299 
L 282.50595 137.772087 
L 282.878581 147.004333 
L 284.369104 198.406684 
L 285.021208 219.40384 
L 285.673312 251.716311 
L 286.232258 273.577654 
L 286.418573 275.89641 
L 286.511731 275.810847 
L 286.791204 274.210042 
L 286.977519 270.829526 
L 287.256992 257.40625 
L 288.374885 183.255813 
L 288.840673 175.869394 
L 289.306461 172.211966 
L 289.585935 173.024036 
L 289.77225 171.102758 
L 290.144881 164.190825 
L 290.796984 147.184793 
L 291.262773 128.055244 
L 291.821719 104.05016 
L 292.008034 101.552499 
L 292.101192 102.003649 
L 292.287507 105.936435 
L 292.566981 119.519947 
L 292.939611 147.336473 
L 293.4054 181.943588 
L 293.684873 190.022289 
L 293.964346 192.347269 
L 294.057504 192.239926 
L 294.150661 191.792665 
L 294.430134 187.316943 
L 294.895923 173.037259 
L 296.106973 128.339157 
L 296.20013 128.122916 
L 296.386446 130.427672 
L 297.41118 158.655678 
L 298.342757 192.355047 
L 298.62223 196.909332 
L 298.808546 197.444489 
L 298.994861 196.521187 
L 299.088019 196.647198 
L 299.367492 200.112499 
L 299.740123 204.319086 
L 300.019596 206.09024 
L 300.112753 206.030346 
L 300.299069 204.375091 
L 300.671699 197.307589 
L 300.951173 186.586547 
L 301.789592 143.18978 
L 301.975907 140.432318 
L 302.069065 140.385647 
L 302.25538 141.878332 
L 303.093799 153.65491 
L 303.373272 163.514099 
L 303.652746 182.001149 
L 304.304849 233.092361 
L 304.584322 241.217733 
L 304.770638 243.183349 
L 304.863795 242.568073 
L 305.143269 235.439899 
L 305.609057 213.87336 
L 306.261161 186.788009 
L 306.447476 184.387578 
L 306.820107 182.976567 
L 307.006422 182.467856 
L 307.285895 182.257838 
L 307.472211 183.164027 
L 308.217472 188.402038 
L 308.31063 188.388814 
L 308.496945 186.195291 
L 308.776418 179.63961 
L 308.962734 170.671832 
L 309.428522 127.409632 
L 309.801153 99.197961 
L 310.080626 92.704508 
L 310.173784 91.954666 
L 310.266941 92.200465 
L 310.453257 96.658296 
L 310.825888 114.416504 
L 311.757464 166.82072 
L 312.130095 180.261887 
L 312.502726 186.354749 
L 313.061672 193.096334 
L 313.900091 211.337584 
L 314.179564 222.421102 
L 315.017984 263.525559 
L 315.390614 269.970007 
L 315.670087 271.57548 
L 315.763245 271.612816 
L 315.856403 270.973428 
L 316.042718 266.642385 
L 316.322191 251.199822 
L 317.16061 190.281312 
L 317.99903 163.688337 
L 318.185345 162.1132 
L 318.278503 162.145092 
L 318.464818 162.44534 
L 318.651133 162.093754 
L 318.930606 160.990769 
L 319.023764 160.944099 
L 319.116922 161.282461 
L 319.303237 163.772344 
L 319.862183 173.413737 
L 320.048499 174.330038 
L 320.607445 180.136654 
L 320.79376 180.706036 
L 321.259549 185.69358 
L 321.632179 190.517777 
L 321.725337 190.934702 
L 321.818495 190.889587 
L 322.00481 190.645344 
L 322.097968 190.758909 
L 322.191126 190.54189 
L 322.377441 187.680975 
L 322.656914 177.421196 
L 323.588491 139.125538 
L 323.961122 135.367767 
L 324.054279 135.905258 
L 324.240595 139.329333 
L 324.520068 149.988925 
L 324.892699 174.988095 
L 325.451645 211.814403 
L 325.824275 219.914106 
L 326.010591 221.567806 
L 326.290064 225.372247 
L 326.383222 225.384692 
L 326.662695 221.844718 
L 326.942168 218.203625 
L 327.221641 209.634103 
L 327.780587 190.102408 
L 328.432691 176.567899 
L 328.712164 174.12002 
L 328.805322 174.173691 
L 328.991637 176.670575 
L 329.457425 184.158892 
L 330.016371 186.645663 
L 330.295845 189.297338 
L 330.48216 190.037068 
L 330.854791 192.9641 
L 331.413737 203.604246 
L 332.531629 236.84002 
L 332.717944 238.171691 
L 332.811102 237.921225 
L 332.997418 236.23719 
L 333.276891 230.199555 
L 333.835837 210.858431 
L 334.487941 172.449986 
L 334.953729 149.252306 
L 335.419517 136.8939 
L 335.512675 136.402302 
L 335.605833 136.437305 
L 335.792148 138.262908 
L 336.53741 150.815775 
L 337.003198 152.999965 
L 337.096356 153.006187 
L 337.375829 152.39169 
L 337.468987 152.828839 
L 337.655302 155.521739 
L 337.841617 161.310464 
L 338.214248 184.696383 
L 338.773194 227.410979 
L 339.145825 239.268453 
L 339.33214 241.335188 
L 339.425298 241.120503 
L 339.611613 237.81466 
L 339.891086 225.246236 
L 340.54319 192.626515 
L 341.75424 163.771566 
L 342.220029 157.20733 
L 342.592659 156.501824 
L 342.685817 156.460598 
L 342.872133 157.068873 
L 343.058448 157.593141 
L 343.151606 157.625033 
L 343.244763 157.793047 
L 343.617394 160.010684 
L 343.803709 157.96184 
L 344.17634 149.207191 
L 344.455813 134.63037 
L 345.107917 93.823828 
L 345.294232 90.551433 
L 345.38739 90.318079 
L 345.480548 90.662664 
L 345.666863 94.340317 
L 345.946336 109.17616 
L 346.691598 159.818556 
L 347.064229 172.507547 
L 347.250544 174.703404 
L 347.343702 174.753186 
L 347.436859 174.406267 
L 347.716332 171.086423 
L 347.995805 166.002427 
L 348.461594 149.92592 
L 348.927382 125.876499 
L 349.486328 92.686618 
L 349.765801 87.749634 
L 349.952117 86.96401 
L 350.045275 86.934452 
L 350.23159 88.269234 
L 350.511063 91.988891 
L 350.790536 99.004277 
L 351.722113 127.451636 
L 352.374217 145.614323 
L 353.398951 179.12701 
L 354.051055 192.86298 
L 354.796317 204.12618 
L 354.982632 204.802906 
L 355.07579 204.631002 
L 355.355263 202.883184 
L 355.448421 202.955523 
L 355.634736 204.228856 
L 355.914209 208.007628 
L 356.566313 225.036218 
L 356.845786 237.533858 
L 357.684205 283.44151 
L 357.87052 286.877253 
L 358.056836 287.302734 
L 358.149993 287.156499 
L 358.243151 286.759798 
L 358.429467 283.920663 
L 358.70894 273.020716 
L 359.91999 211.614497 
L 360.665251 195.604107 
L 361.037882 188.958197 
L 361.50367 180.528688 
L 361.876301 172.576775 
L 362.621563 165.949533 
L 362.807878 162.166871 
L 363.273666 149.701901 
L 363.366824 149.029064 
L 363.739455 150.654761 
L 363.92577 152.636711 
L 364.205243 158.088629 
L 364.577874 170.408142 
L 365.509451 206.143133 
L 365.695766 207.794499 
L 365.788924 207.899508 
L 365.975239 206.918645 
L 366.254712 205.67487 
L 366.627343 204.593665 
L 366.813659 204.780348 
L 366.906816 204.312863 
L 367.093132 200.492865 
L 367.745235 175.453247 
L 368.117866 154.696445 
L 368.583655 129.264793 
L 368.863128 123.035808 
L 368.956285 123.51885 
L 369.235758 128.79653 
L 369.608389 141.086486 
L 371.005755 206.905422 
L 371.285228 211.093341 
L 371.471543 211.560826 
L 371.657858 210.219043 
L 372.309962 202.863737 
L 372.682593 196.462849 
L 373.241539 186.366417 
L 373.61417 180.912165 
L 374.079958 165.891973 
L 374.82522 140.053507 
L 375.384166 127.033155 
L 376.502058 108.145515 
L 376.967847 98.72892 
L 377.24732 97.41125 
L 377.340477 97.933184 
L 377.61995 103.732799 
L 377.899424 113.791117 
L 379.110473 174.19936 
L 379.66942 195.432981 
L 380.135208 205.81566 
L 380.321523 207.189335 
L 380.414681 207.131775 
L 380.694154 204.193075 
L 380.973627 201.793422 
L 381.159943 201.160256 
L 381.346258 199.519781 
L 381.905204 192.697299 
L 382.557308 179.281802 
L 382.743623 178.769979 
L 382.929939 177.76967 
L 383.116254 177.943908 
L 383.395727 176.743692 
L 383.488885 177.006604 
L 383.954673 181.737459 
L 384.047831 182.269505 
L 384.140989 182.227502 
L 384.327304 181.362538 
L 385.165723 176.468335 
L 385.631512 167.339543 
L 386.004142 152.353575 
L 386.842562 112.390217 
L 386.935719 111.869061 
L 387.028877 112.430665 
L 387.215192 116.266998 
L 387.494665 127.455525 
L 388.426242 180.057313 
L 388.985188 189.673815 
L 389.078346 189.816938 
L 389.357819 188.527271 
L 389.450977 188.746623 
L 389.73045 189.822383 
L 389.916765 189.62481 
L 390.103081 190.246309 
L 390.196238 189.858942 
L 390.568869 186.899241 
L 390.848342 185.982161 
L 391.034658 183.710075 
L 391.407288 175.5497 
L 391.779919 162.581463 
L 392.897811 110.484496 
L 393.084127 108.334532 
L 393.177284 108.499435 
L 393.270442 109.358954 
L 393.456758 114.209597 
L 393.829388 133.119017 
L 395.040438 206.69307 
L 396.065173 230.168441 
L 396.344646 231.906925 
L 396.530961 230.805496 
L 396.903592 226.86571 
L 397.36938 220.82263 
L 397.462538 220.541828 
L 397.555696 220.852966 
L 397.742011 224.258372 
L 398.487273 245.026842 
L 398.487273 245.026842 
" style="fill:none;stroke:#1f77b4;stroke-linecap:square;stroke-width:1.5;"/>
   </g>
   <g id="patch_3">
    <path d="M 57.6 307.584 
L 57.6 41.472 
" style="fill:none;stroke:#000000;stroke-linecap:square;stroke-linejoin:miter;stroke-width:0.8;"/>
   </g>
   <g id="patch_4">
    <path d="M 414.72 307.584 
L 414.72 41.472 
" style="fill:none;stroke:#000000;stroke-linecap:square;stroke-linejoin:miter;stroke-width:0.8;"/>
   </g>
   <g id="patch_5">
    <path d="M 57.6 307.584 
L 414.72 307.584 
" style="fill:none;stroke:#000000;stroke-linecap:square;stroke-linejoin:miter;stroke-width:0.8;"/>
   </g>
   <g id="patch_6">
    <path d="M 57.6 41.472 
L 414.72 41.472 
" style="fill:none;stroke:#000000;stroke-linecap:square;stroke-linejoin:miter;stroke-width:0.8;"/>
   </g>
   <g id="text_18">
    <!-- $E_{tot}(t); C_v = 3.67 (KJ/K/kg)$ -->
    <defs>
     <path d="M 11.71875 51.703125 
L 22.015625 51.703125 
L 22.015625 39.3125 
L 11.71875 39.3125 
z
M 11.71875 12.40625 
L 22.015625 12.40625 
L 22.015625 4 
L 14.015625 -11.625 
L 7.71875 -11.625 
L 11.71875 4 
z
" id="DejaVuSans-59"/>
     <path d="M 69.484375 67.28125 
L 67.484375 56.890625 
Q 62.796875 61.625 57.546875 63.921875 
Q 52.296875 66.21875 46.1875 66.21875 
Q 37.84375 66.21875 31.515625 62.203125 
Q 25.203125 58.203125 20.609375 50 
Q 17.671875 44.734375 16.125 38.84375 
Q 14.59375 32.953125 14.59375 27 
Q 14.59375 17.046875 19.75 11.8125 
Q 24.90625 6.59375 34.71875 6.59375 
Q 41.5 6.59375 47.75 8.765625 
Q 54 10.9375 59.90625 15.28125 
L 57.625 3.609375 
Q 51.8125 1.125 45.875 -0.140625 
Q 39.9375 -1.421875 33.984375 -1.421875 
Q 19.96875 -1.421875 12.078125 6.1875 
Q 4.203125 13.8125 4.203125 27.390625 
Q 4.203125 36.078125 7.203125 44.46875 
Q 10.203125 52.875 15.828125 59.8125 
Q 21.78125 67.1875 29.421875 70.703125 
Q 37.0625 74.21875 47.21875 74.21875 
Q 53.46875 74.21875 59.0625 72.484375 
Q 64.65625 70.75 69.484375 67.28125 
z
" id="DejaVuSans-Oblique-67"/>
     <path d="M 7.171875 54.6875 
L 16.703125 54.6875 
L 24.703125 8.203125 
L 50.875 54.6875 
L 60.40625 54.6875 
L 29.296875 0 
L 17.1875 0 
z
" id="DejaVuSans-Oblique-118"/>
     <path d="M 10.59375 45.40625 
L 73.1875 45.40625 
L 73.1875 37.203125 
L 10.59375 37.203125 
z
M 10.59375 25.484375 
L 73.1875 25.484375 
L 73.1875 17.1875 
L 10.59375 17.1875 
z
" id="DejaVuSans-61"/>
     <path d="M 8.203125 72.90625 
L 55.078125 72.90625 
L 55.078125 68.703125 
L 28.609375 0 
L 18.3125 0 
L 43.21875 64.59375 
L 8.203125 64.59375 
z
" id="DejaVuSans-55"/>
     <path d="M 16.890625 72.90625 
L 26.8125 72.90625 
L 20.796875 42.1875 
L 59.078125 72.90625 
L 72.21875 72.90625 
L 28.90625 38.09375 
L 60.59375 0 
L 48.578125 0 
L 19.484375 35.5 
L 12.59375 0 
L 2.6875 0 
z
" id="DejaVuSans-Oblique-75"/>
     <path d="M 16.703125 72.90625 
L 26.609375 72.90625 
L 13.375 5.078125 
Q 10.796875 -8.15625 4.65625 -14.078125 
Q -1.46875 -20.015625 -12.5 -20.015625 
L -16.40625 -20.015625 
L -14.796875 -11.71875 
L -11.71875 -11.71875 
Q -5.125 -11.71875 -1.703125 -7.953125 
Q 1.703125 -4.203125 3.515625 5.078125 
z
" id="DejaVuSans-Oblique-74"/>
     <path d="M 18.3125 75.984375 
L 27.296875 75.984375 
L 18.703125 31.6875 
L 49.515625 54.6875 
L 61.1875 54.6875 
L 26.8125 28.515625 
L 51.90625 0 
L 41.015625 0 
L 17.671875 26.703125 
L 12.5 0 
L 3.515625 0 
z
" id="DejaVuSans-Oblique-107"/>
     <path d="M 59.625 54.6875 
L 50.296875 6.78125 
Q 47.609375 -7.125 40.015625 -13.953125 
Q 32.421875 -20.796875 19.578125 -20.796875 
Q 14.84375 -20.796875 10.78125 -20.09375 
Q 6.734375 -19.390625 3.21875 -17.921875 
L 4.890625 -9.1875 
Q 8.203125 -11.328125 11.90625 -12.34375 
Q 15.625 -13.375 19.828125 -13.375 
Q 28.375 -13.375 33.859375 -8.703125 
Q 39.359375 -4.046875 41.109375 4.6875 
L 41.890625 8.796875 
Q 38.140625 4.5 33.15625 2.25 
Q 28.171875 0 22.40625 0 
Q 14.109375 0 9.34375 5.484375 
Q 4.59375 10.984375 4.59375 20.609375 
Q 4.59375 28.171875 7.46875 35.421875 
Q 10.359375 42.671875 15.578125 48.296875 
Q 19.046875 52 23.65625 54 
Q 28.265625 56 33.296875 56 
Q 38.8125 56 42.90625 53.4375 
Q 47.015625 50.875 49.03125 46.1875 
L 50.59375 54.6875 
z
M 46.09375 34.625 
Q 46.09375 41.265625 42.96875 44.875 
Q 39.84375 48.484375 34.078125 48.484375 
Q 30.515625 48.484375 27.296875 47.0625 
Q 24.078125 45.65625 21.78125 43.109375 
Q 18.0625 38.921875 15.984375 33.234375 
Q 13.921875 27.546875 13.921875 21.484375 
Q 13.921875 14.75 17.0625 11.125 
Q 20.21875 7.515625 26.125 7.515625 
Q 34.671875 7.515625 40.375 15.25 
Q 46.09375 23 46.09375 34.625 
z
" id="DejaVuSans-Oblique-103"/>
    </defs>
    <g transform="translate(162.9 35.472)scale(0.12 -0.12)">
     <use transform="translate(0 0.015625)" xlink:href="#DejaVuSans-Oblique-69"/>
     <use transform="translate(63.183594 -16.390625)scale(0.7)" xlink:href="#DejaVuSans-Oblique-116"/>
     <use transform="translate(90.629883 -16.390625)scale(0.7)" xlink:href="#DejaVuSans-Oblique-111"/>
     <use transform="translate(133.457031 -16.390625)scale(0.7)" xlink:href="#DejaVuSans-Oblique-116"/>
     <use transform="translate(163.637695 0.015625)" xlink:href="#DejaVuSans-40"/>
     <use transform="translate(202.651367 0.015625)" xlink:href="#DejaVuSans-Oblique-116"/>
     <use transform="translate(241.860352 0.015625)" xlink:href="#DejaVuSans-41"/>
     <use transform="translate(280.874023 0.015625)" xlink:href="#DejaVuSans-59"/>
     <use transform="translate(334.047852 0.015625)" xlink:href="#DejaVuSans-Oblique-67"/>
     <use transform="translate(403.87207 -16.390625)scale(0.7)" xlink:href="#DejaVuSans-Oblique-118"/>
     <use transform="translate(467.514648 0.015625)" xlink:href="#DejaVuSans-61"/>
     <use transform="translate(570.786133 0.015625)" xlink:href="#DejaVuSans-51"/>
     <use transform="translate(634.40918 0.015625)" xlink:href="#DejaVuSans-46"/>
     <use transform="translate(666.196289 0.015625)" xlink:href="#DejaVuSans-54"/>
     <use transform="translate(729.819336 0.015625)" xlink:href="#DejaVuSans-55"/>
     <use transform="translate(793.442383 0.015625)" xlink:href="#DejaVuSans-40"/>
     <use transform="translate(832.456055 0.015625)" xlink:href="#DejaVuSans-Oblique-75"/>
     <use transform="translate(898.032227 0.015625)" xlink:href="#DejaVuSans-Oblique-74"/>
     <use transform="translate(927.524414 0.015625)" xlink:href="#DejaVuSans-47"/>
     <use transform="translate(961.21582 0.015625)" xlink:href="#DejaVuSans-Oblique-75"/>
     <use transform="translate(1026.791992 0.015625)" xlink:href="#DejaVuSans-47"/>
     <use transform="translate(1060.483398 0.015625)" xlink:href="#DejaVuSans-Oblique-107"/>
     <use transform="translate(1118.393555 0.015625)" xlink:href="#DejaVuSans-Oblique-103"/>
     <use transform="translate(1181.870117 0.015625)" xlink:href="#DejaVuSans-41"/>
    </g>
   </g>
  </g>
 </g>
 <defs>
  <clipPath id="pc6ada226b5">
   <rect height="266.112" width="357.12" x="57.6" y="41.472"/>
  </clipPath>
 </defs>
</svg>
