<?xml version="1.0" encoding="utf-8" standalone="no"?>
<!DOCTYPE svg PUBLIC "-//W3C//DTD SVG 1.1//EN"
  "http://www.w3.org/Graphics/SVG/1.1/DTD/svg11.dtd">
<!-- Created with matplotlib (https://matplotlib.org/) -->
<svg height="345.6pt" version="1.1" viewBox="0 0 460.8 345.6" width="460.8pt" xmlns="http://www.w3.org/2000/svg" xmlns:xlink="http://www.w3.org/1999/xlink">
 <defs>
  <style type="text/css">
*{stroke-linecap:butt;stroke-linejoin:round;}
  </style>
 </defs>
 <g id="figure_1">
  <g id="patch_1">
   <path d="M 0 345.6 
L 460.8 345.6 
L 460.8 0 
L 0 0 
z
" style="fill:#ffffff;"/>
  </g>
  <g id="axes_1">
   <g id="patch_2">
    <path d="M 57.6 307.584 
L 414.72 307.584 
L 414.72 41.472 
L 57.6 41.472 
z
" style="fill:#ffffff;"/>
   </g>
   <g id="matplotlib.axis_1">
    <g id="xtick_1">
     <g id="line2d_1">
      <defs>
       <path d="M 0 0 
L 0 3.5 
" id="m28097e891a" style="stroke:#000000;stroke-width:0.8;"/>
      </defs>
      <g>
       <use style="stroke:#000000;stroke-width:0.8;" x="73.832727" xlink:href="#m28097e891a" y="307.584"/>
      </g>
     </g>
     <g id="text_1">
      <!-- 0 -->
      <defs>
       <path d="M 31.78125 66.40625 
Q 24.171875 66.40625 20.328125 58.90625 
Q 16.5 51.421875 16.5 36.375 
Q 16.5 21.390625 20.328125 13.890625 
Q 24.171875 6.390625 31.78125 6.390625 
Q 39.453125 6.390625 43.28125 13.890625 
Q 47.125 21.390625 47.125 36.375 
Q 47.125 51.421875 43.28125 58.90625 
Q 39.453125 66.40625 31.78125 66.40625 
z
M 31.78125 74.21875 
Q 44.046875 74.21875 50.515625 64.515625 
Q 56.984375 54.828125 56.984375 36.375 
Q 56.984375 17.96875 50.515625 8.265625 
Q 44.046875 -1.421875 31.78125 -1.421875 
Q 19.53125 -1.421875 13.0625 8.265625 
Q 6.59375 17.96875 6.59375 36.375 
Q 6.59375 54.828125 13.0625 64.515625 
Q 19.53125 74.21875 31.78125 74.21875 
z
" id="DejaVuSans-48"/>
      </defs>
      <g transform="translate(70.651477 322.182437)scale(0.1 -0.1)">
       <use xlink:href="#DejaVuSans-48"/>
      </g>
     </g>
    </g>
    <g id="xtick_2">
     <g id="line2d_2">
      <g>
       <use style="stroke:#000000;stroke-width:0.8;" x="120.411572" xlink:href="#m28097e891a" y="307.584"/>
      </g>
     </g>
     <g id="text_2">
      <!-- 5 -->
      <defs>
       <path d="M 10.796875 72.90625 
L 49.515625 72.90625 
L 49.515625 64.59375 
L 19.828125 64.59375 
L 19.828125 46.734375 
Q 21.96875 47.46875 24.109375 47.828125 
Q 26.265625 48.1875 28.421875 48.1875 
Q 40.625 48.1875 47.75 41.5 
Q 54.890625 34.8125 54.890625 23.390625 
Q 54.890625 11.625 47.5625 5.09375 
Q 40.234375 -1.421875 26.90625 -1.421875 
Q 22.3125 -1.421875 17.546875 -0.640625 
Q 12.796875 0.140625 7.71875 1.703125 
L 7.71875 11.625 
Q 12.109375 9.234375 16.796875 8.0625 
Q 21.484375 6.890625 26.703125 6.890625 
Q 35.15625 6.890625 40.078125 11.328125 
Q 45.015625 15.765625 45.015625 23.390625 
Q 45.015625 31 40.078125 35.4375 
Q 35.15625 39.890625 26.703125 39.890625 
Q 22.75 39.890625 18.8125 39.015625 
Q 14.890625 38.140625 10.796875 36.28125 
z
" id="DejaVuSans-53"/>
      </defs>
      <g transform="translate(117.230322 322.182437)scale(0.1 -0.1)">
       <use xlink:href="#DejaVuSans-53"/>
      </g>
     </g>
    </g>
    <g id="xtick_3">
     <g id="line2d_3">
      <g>
       <use style="stroke:#000000;stroke-width:0.8;" x="166.990416" xlink:href="#m28097e891a" y="307.584"/>
      </g>
     </g>
     <g id="text_3">
      <!-- 10 -->
      <defs>
       <path d="M 12.40625 8.296875 
L 28.515625 8.296875 
L 28.515625 63.921875 
L 10.984375 60.40625 
L 10.984375 69.390625 
L 28.421875 72.90625 
L 38.28125 72.90625 
L 38.28125 8.296875 
L 54.390625 8.296875 
L 54.390625 0 
L 12.40625 0 
z
" id="DejaVuSans-49"/>
      </defs>
      <g transform="translate(160.627916 322.182437)scale(0.1 -0.1)">
       <use xlink:href="#DejaVuSans-49"/>
       <use x="63.623047" xlink:href="#DejaVuSans-48"/>
      </g>
     </g>
    </g>
    <g id="xtick_4">
     <g id="line2d_4">
      <g>
       <use style="stroke:#000000;stroke-width:0.8;" x="213.56926" xlink:href="#m28097e891a" y="307.584"/>
      </g>
     </g>
     <g id="text_4">
      <!-- 15 -->
      <g transform="translate(207.20676 322.182437)scale(0.1 -0.1)">
       <use xlink:href="#DejaVuSans-49"/>
       <use x="63.623047" xlink:href="#DejaVuSans-53"/>
      </g>
     </g>
    </g>
    <g id="xtick_5">
     <g id="line2d_5">
      <g>
       <use style="stroke:#000000;stroke-width:0.8;" x="260.148105" xlink:href="#m28097e891a" y="307.584"/>
      </g>
     </g>
     <g id="text_5">
      <!-- 20 -->
      <defs>
       <path d="M 19.1875 8.296875 
L 53.609375 8.296875 
L 53.609375 0 
L 7.328125 0 
L 7.328125 8.296875 
Q 12.9375 14.109375 22.625 23.890625 
Q 32.328125 33.6875 34.8125 36.53125 
Q 39.546875 41.84375 41.421875 45.53125 
Q 43.3125 49.21875 43.3125 52.78125 
Q 43.3125 58.59375 39.234375 62.25 
Q 35.15625 65.921875 28.609375 65.921875 
Q 23.96875 65.921875 18.8125 64.3125 
Q 13.671875 62.703125 7.8125 59.421875 
L 7.8125 69.390625 
Q 13.765625 71.78125 18.9375 73 
Q 24.125 74.21875 28.421875 74.21875 
Q 39.75 74.21875 46.484375 68.546875 
Q 53.21875 62.890625 53.21875 53.421875 
Q 53.21875 48.921875 51.53125 44.890625 
Q 49.859375 40.875 45.40625 35.40625 
Q 44.1875 33.984375 37.640625 27.21875 
Q 31.109375 20.453125 19.1875 8.296875 
z
" id="DejaVuSans-50"/>
      </defs>
      <g transform="translate(253.785605 322.182437)scale(0.1 -0.1)">
       <use xlink:href="#DejaVuSans-50"/>
       <use x="63.623047" xlink:href="#DejaVuSans-48"/>
      </g>
     </g>
    </g>
    <g id="xtick_6">
     <g id="line2d_6">
      <g>
       <use style="stroke:#000000;stroke-width:0.8;" x="306.726949" xlink:href="#m28097e891a" y="307.584"/>
      </g>
     </g>
     <g id="text_6">
      <!-- 25 -->
      <g transform="translate(300.364449 322.182437)scale(0.1 -0.1)">
       <use xlink:href="#DejaVuSans-50"/>
       <use x="63.623047" xlink:href="#DejaVuSans-53"/>
      </g>
     </g>
    </g>
    <g id="xtick_7">
     <g id="line2d_7">
      <g>
       <use style="stroke:#000000;stroke-width:0.8;" x="353.305794" xlink:href="#m28097e891a" y="307.584"/>
      </g>
     </g>
     <g id="text_7">
      <!-- 30 -->
      <defs>
       <path d="M 40.578125 39.3125 
Q 47.65625 37.796875 51.625 33 
Q 55.609375 28.21875 55.609375 21.1875 
Q 55.609375 10.40625 48.1875 4.484375 
Q 40.765625 -1.421875 27.09375 -1.421875 
Q 22.515625 -1.421875 17.65625 -0.515625 
Q 12.796875 0.390625 7.625 2.203125 
L 7.625 11.71875 
Q 11.71875 9.328125 16.59375 8.109375 
Q 21.484375 6.890625 26.8125 6.890625 
Q 36.078125 6.890625 40.9375 10.546875 
Q 45.796875 14.203125 45.796875 21.1875 
Q 45.796875 27.640625 41.28125 31.265625 
Q 36.765625 34.90625 28.71875 34.90625 
L 20.21875 34.90625 
L 20.21875 43.015625 
L 29.109375 43.015625 
Q 36.375 43.015625 40.234375 45.921875 
Q 44.09375 48.828125 44.09375 54.296875 
Q 44.09375 59.90625 40.109375 62.90625 
Q 36.140625 65.921875 28.71875 65.921875 
Q 24.65625 65.921875 20.015625 65.03125 
Q 15.375 64.15625 9.8125 62.3125 
L 9.8125 71.09375 
Q 15.4375 72.65625 20.34375 73.4375 
Q 25.25 74.21875 29.59375 74.21875 
Q 40.828125 74.21875 47.359375 69.109375 
Q 53.90625 64.015625 53.90625 55.328125 
Q 53.90625 49.265625 50.4375 45.09375 
Q 46.96875 40.921875 40.578125 39.3125 
z
" id="DejaVuSans-51"/>
      </defs>
      <g transform="translate(346.943294 322.182437)scale(0.1 -0.1)">
       <use xlink:href="#DejaVuSans-51"/>
       <use x="63.623047" xlink:href="#DejaVuSans-48"/>
      </g>
     </g>
    </g>
    <g id="xtick_8">
     <g id="line2d_8">
      <g>
       <use style="stroke:#000000;stroke-width:0.8;" x="399.884638" xlink:href="#m28097e891a" y="307.584"/>
      </g>
     </g>
     <g id="text_8">
      <!-- 35 -->
      <g transform="translate(393.522138 322.182437)scale(0.1 -0.1)">
       <use xlink:href="#DejaVuSans-51"/>
       <use x="63.623047" xlink:href="#DejaVuSans-53"/>
      </g>
     </g>
    </g>
    <g id="text_9">
     <!-- $time (ps)$ -->
     <defs>
      <path d="M 42.28125 54.6875 
L 40.921875 47.703125 
L 23 47.703125 
L 17.1875 18.015625 
Q 16.890625 16.359375 16.75 15.234375 
Q 16.609375 14.109375 16.609375 13.484375 
Q 16.609375 10.359375 18.484375 8.9375 
Q 20.359375 7.515625 24.515625 7.515625 
L 33.59375 7.515625 
L 32.078125 0 
L 23.484375 0 
Q 15.484375 0 11.546875 3.125 
Q 7.625 6.25 7.625 12.59375 
Q 7.625 13.71875 7.765625 15.0625 
Q 7.90625 16.40625 8.203125 18.015625 
L 14.015625 47.703125 
L 6.390625 47.703125 
L 7.8125 54.6875 
L 15.28125 54.6875 
L 18.3125 70.21875 
L 27.296875 70.21875 
L 24.3125 54.6875 
z
" id="DejaVuSans-Oblique-116"/>
      <path d="M 18.3125 75.984375 
L 27.296875 75.984375 
L 25.09375 64.59375 
L 16.109375 64.59375 
z
M 14.203125 54.6875 
L 23.1875 54.6875 
L 12.5 0 
L 3.515625 0 
z
" id="DejaVuSans-Oblique-105"/>
      <path d="M 89.796875 33.015625 
L 83.40625 0 
L 74.421875 0 
L 80.71875 32.71875 
Q 81.109375 34.8125 81.296875 36.328125 
Q 81.5 37.84375 81.5 38.921875 
Q 81.5 43.3125 79.046875 45.75 
Q 76.609375 48.1875 72.21875 48.1875 
Q 65.671875 48.1875 60.546875 43.28125 
Q 55.421875 38.375 53.90625 30.515625 
L 47.90625 0 
L 38.921875 0 
L 45.3125 32.71875 
Q 45.703125 34.515625 45.890625 36.046875 
Q 46.09375 37.59375 46.09375 38.8125 
Q 46.09375 43.265625 43.65625 45.71875 
Q 41.21875 48.1875 36.921875 48.1875 
Q 30.28125 48.1875 25.140625 43.28125 
Q 20.015625 38.375 18.5 30.515625 
L 12.5 0 
L 3.515625 0 
L 14.203125 54.6875 
L 23.1875 54.6875 
L 21.484375 46.1875 
Q 25.140625 50.984375 30.046875 53.484375 
Q 34.96875 56 40.578125 56 
Q 46.53125 56 50.359375 52.875 
Q 54.203125 49.75 54.984375 44.1875 
Q 59.078125 49.953125 64.46875 52.96875 
Q 69.875 56 75.875 56 
Q 82.90625 56 86.734375 51.953125 
Q 90.578125 47.90625 90.578125 40.484375 
Q 90.578125 38.875 90.375 36.9375 
Q 90.1875 35.015625 89.796875 33.015625 
z
" id="DejaVuSans-Oblique-109"/>
      <path d="M 48.09375 32.234375 
Q 48.25 33.015625 48.3125 33.84375 
Q 48.390625 34.671875 48.390625 35.5 
Q 48.390625 41.453125 44.890625 44.921875 
Q 41.40625 48.390625 35.40625 48.390625 
Q 28.71875 48.390625 23.578125 44.15625 
Q 18.453125 39.9375 15.828125 32.171875 
z
M 55.90625 25.203125 
L 14.109375 25.203125 
Q 13.8125 23.34375 13.71875 22.265625 
Q 13.625 21.1875 13.625 20.40625 
Q 13.625 13.625 17.796875 9.90625 
Q 21.96875 6.203125 29.59375 6.203125 
Q 35.453125 6.203125 40.671875 7.515625 
Q 45.90625 8.84375 50.390625 11.375 
L 48.6875 2.484375 
Q 43.84375 0.53125 38.6875 -0.4375 
Q 33.546875 -1.421875 28.21875 -1.421875 
Q 16.84375 -1.421875 10.71875 4.015625 
Q 4.59375 9.46875 4.59375 19.484375 
Q 4.59375 28.03125 7.640625 35.375 
Q 10.6875 42.71875 16.609375 48.484375 
Q 20.40625 52.09375 25.65625 54.046875 
Q 30.90625 56 36.8125 56 
Q 46.09375 56 51.578125 50.4375 
Q 57.078125 44.875 57.078125 35.5 
Q 57.078125 33.25 56.78125 30.6875 
Q 56.5 28.125 55.90625 25.203125 
z
" id="DejaVuSans-Oblique-101"/>
      <path d="M 31 75.875 
Q 24.46875 64.65625 21.28125 53.65625 
Q 18.109375 42.671875 18.109375 31.390625 
Q 18.109375 20.125 21.3125 9.0625 
Q 24.515625 -2 31 -13.1875 
L 23.1875 -13.1875 
Q 15.875 -1.703125 12.234375 9.375 
Q 8.59375 20.453125 8.59375 31.390625 
Q 8.59375 42.28125 12.203125 53.3125 
Q 15.828125 64.359375 23.1875 75.875 
z
" id="DejaVuSans-40"/>
      <path d="M 49.609375 33.6875 
Q 49.609375 40.875 46.484375 44.671875 
Q 43.359375 48.484375 37.5 48.484375 
Q 33.5 48.484375 29.859375 46.4375 
Q 26.21875 44.390625 23.390625 40.484375 
Q 20.609375 36.625 18.9375 31.15625 
Q 17.28125 25.6875 17.28125 20.3125 
Q 17.28125 13.484375 20.40625 9.796875 
Q 23.53125 6.109375 29.296875 6.109375 
Q 33.546875 6.109375 37.1875 8.109375 
Q 40.828125 10.109375 43.40625 13.921875 
Q 46.1875 17.921875 47.890625 23.34375 
Q 49.609375 28.765625 49.609375 33.6875 
z
M 21.78125 46.390625 
Q 25.390625 51.125 30.296875 53.5625 
Q 35.203125 56 41.21875 56 
Q 49.609375 56 54.25 50.5 
Q 58.890625 45.015625 58.890625 35.109375 
Q 58.890625 27 56 19.65625 
Q 53.125 12.3125 47.703125 6.5 
Q 44.09375 2.640625 39.546875 0.609375 
Q 35.015625 -1.421875 29.984375 -1.421875 
Q 24.171875 -1.421875 20.21875 1 
Q 16.265625 3.421875 14.3125 8.203125 
L 8.6875 -20.796875 
L -0.296875 -20.796875 
L 14.40625 54.6875 
L 23.390625 54.6875 
z
" id="DejaVuSans-Oblique-112"/>
      <path d="M 50 53.078125 
L 48.296875 44.578125 
Q 44.734375 46.53125 40.765625 47.5 
Q 36.8125 48.484375 32.625 48.484375 
Q 25.53125 48.484375 21.453125 46.0625 
Q 17.390625 43.65625 17.390625 39.5 
Q 17.390625 34.671875 26.859375 32.078125 
Q 27.59375 31.890625 27.9375 31.78125 
L 30.8125 30.90625 
Q 39.796875 28.421875 42.796875 25.6875 
Q 45.796875 22.953125 45.796875 18.21875 
Q 45.796875 9.515625 38.890625 4.046875 
Q 31.984375 -1.421875 20.796875 -1.421875 
Q 16.453125 -1.421875 11.671875 -0.578125 
Q 6.890625 0.25 1.125 2 
L 2.875 11.28125 
Q 7.8125 8.734375 12.59375 7.421875 
Q 17.390625 6.109375 21.78125 6.109375 
Q 28.375 6.109375 32.5 8.9375 
Q 36.625 11.765625 36.625 16.109375 
Q 36.625 20.796875 25.78125 23.6875 
L 24.859375 23.921875 
L 21.78125 24.703125 
Q 14.9375 26.515625 11.765625 29.46875 
Q 8.59375 32.421875 8.59375 37.015625 
Q 8.59375 45.75 15.15625 50.875 
Q 21.734375 56 33.015625 56 
Q 37.453125 56 41.671875 55.265625 
Q 45.90625 54.546875 50 53.078125 
z
" id="DejaVuSans-Oblique-115"/>
      <path d="M 8.015625 75.875 
L 15.828125 75.875 
Q 23.140625 64.359375 26.78125 53.3125 
Q 30.421875 42.28125 30.421875 31.390625 
Q 30.421875 20.453125 26.78125 9.375 
Q 23.140625 -1.703125 15.828125 -13.1875 
L 8.015625 -13.1875 
Q 14.5 -2 17.703125 9.0625 
Q 20.90625 20.125 20.90625 31.390625 
Q 20.90625 42.671875 17.703125 53.65625 
Q 14.5 64.65625 8.015625 75.875 
z
" id="DejaVuSans-41"/>
     </defs>
     <g transform="translate(215.16 335.862125)scale(0.1 -0.1)">
      <use transform="translate(0 0.015625)" xlink:href="#DejaVuSans-Oblique-116"/>
      <use transform="translate(39.208984 0.015625)" xlink:href="#DejaVuSans-Oblique-105"/>
      <use transform="translate(66.992188 0.015625)" xlink:href="#DejaVuSans-Oblique-109"/>
      <use transform="translate(164.404297 0.015625)" xlink:href="#DejaVuSans-Oblique-101"/>
      <use transform="translate(225.927734 0.015625)" xlink:href="#DejaVuSans-40"/>
      <use transform="translate(264.941406 0.015625)" xlink:href="#DejaVuSans-Oblique-112"/>
      <use transform="translate(328.417969 0.015625)" xlink:href="#DejaVuSans-Oblique-115"/>
      <use transform="translate(380.517578 0.015625)" xlink:href="#DejaVuSans-41"/>
     </g>
    </g>
   </g>
   <g id="matplotlib.axis_2">
    <g id="ytick_1">
     <g id="line2d_9">
      <defs>
       <path d="M 0 0 
L -3.5 0 
" id="mae5bddb664" style="stroke:#000000;stroke-width:0.8;"/>
      </defs>
      <g>
       <use style="stroke:#000000;stroke-width:0.8;" x="57.6" xlink:href="#mae5bddb664" y="297.39577"/>
      </g>
     </g>
     <g id="text_10">
      <!-- 0.945 -->
      <defs>
       <path d="M 10.6875 12.40625 
L 21 12.40625 
L 21 0 
L 10.6875 0 
z
" id="DejaVuSans-46"/>
       <path d="M 10.984375 1.515625 
L 10.984375 10.5 
Q 14.703125 8.734375 18.5 7.8125 
Q 22.3125 6.890625 25.984375 6.890625 
Q 35.75 6.890625 40.890625 13.453125 
Q 46.046875 20.015625 46.78125 33.40625 
Q 43.953125 29.203125 39.59375 26.953125 
Q 35.25 24.703125 29.984375 24.703125 
Q 19.046875 24.703125 12.671875 31.3125 
Q 6.296875 37.9375 6.296875 49.421875 
Q 6.296875 60.640625 12.9375 67.421875 
Q 19.578125 74.21875 30.609375 74.21875 
Q 43.265625 74.21875 49.921875 64.515625 
Q 56.59375 54.828125 56.59375 36.375 
Q 56.59375 19.140625 48.40625 8.859375 
Q 40.234375 -1.421875 26.421875 -1.421875 
Q 22.703125 -1.421875 18.890625 -0.6875 
Q 15.09375 0.046875 10.984375 1.515625 
z
M 30.609375 32.421875 
Q 37.25 32.421875 41.125 36.953125 
Q 45.015625 41.5 45.015625 49.421875 
Q 45.015625 57.28125 41.125 61.84375 
Q 37.25 66.40625 30.609375 66.40625 
Q 23.96875 66.40625 20.09375 61.84375 
Q 16.21875 57.28125 16.21875 49.421875 
Q 16.21875 41.5 20.09375 36.953125 
Q 23.96875 32.421875 30.609375 32.421875 
z
" id="DejaVuSans-57"/>
       <path d="M 37.796875 64.3125 
L 12.890625 25.390625 
L 37.796875 25.390625 
z
M 35.203125 72.90625 
L 47.609375 72.90625 
L 47.609375 25.390625 
L 58.015625 25.390625 
L 58.015625 17.1875 
L 47.609375 17.1875 
L 47.609375 0 
L 37.796875 0 
L 37.796875 17.1875 
L 4.890625 17.1875 
L 4.890625 26.703125 
z
" id="DejaVuSans-52"/>
      </defs>
      <g transform="translate(21.971875 301.194989)scale(0.1 -0.1)">
       <use xlink:href="#DejaVuSans-48"/>
       <use x="63.623047" xlink:href="#DejaVuSans-46"/>
       <use x="95.410156" xlink:href="#DejaVuSans-57"/>
       <use x="159.033203" xlink:href="#DejaVuSans-52"/>
       <use x="222.65625" xlink:href="#DejaVuSans-53"/>
      </g>
     </g>
    </g>
    <g id="ytick_2">
     <g id="line2d_10">
      <g>
       <use style="stroke:#000000;stroke-width:0.8;" x="57.6" xlink:href="#mae5bddb664" y="248.71078"/>
      </g>
     </g>
     <g id="text_11">
      <!-- 0.950 -->
      <g transform="translate(21.971875 252.509999)scale(0.1 -0.1)">
       <use xlink:href="#DejaVuSans-48"/>
       <use x="63.623047" xlink:href="#DejaVuSans-46"/>
       <use x="95.410156" xlink:href="#DejaVuSans-57"/>
       <use x="159.033203" xlink:href="#DejaVuSans-53"/>
       <use x="222.65625" xlink:href="#DejaVuSans-48"/>
      </g>
     </g>
    </g>
    <g id="ytick_3">
     <g id="line2d_11">
      <g>
       <use style="stroke:#000000;stroke-width:0.8;" x="57.6" xlink:href="#mae5bddb664" y="200.02579"/>
      </g>
     </g>
     <g id="text_12">
      <!-- 0.955 -->
      <g transform="translate(21.971875 203.825009)scale(0.1 -0.1)">
       <use xlink:href="#DejaVuSans-48"/>
       <use x="63.623047" xlink:href="#DejaVuSans-46"/>
       <use x="95.410156" xlink:href="#DejaVuSans-57"/>
       <use x="159.033203" xlink:href="#DejaVuSans-53"/>
       <use x="222.65625" xlink:href="#DejaVuSans-53"/>
      </g>
     </g>
    </g>
    <g id="ytick_4">
     <g id="line2d_12">
      <g>
       <use style="stroke:#000000;stroke-width:0.8;" x="57.6" xlink:href="#mae5bddb664" y="151.3408"/>
      </g>
     </g>
     <g id="text_13">
      <!-- 0.960 -->
      <defs>
       <path d="M 33.015625 40.375 
Q 26.375 40.375 22.484375 35.828125 
Q 18.609375 31.296875 18.609375 23.390625 
Q 18.609375 15.53125 22.484375 10.953125 
Q 26.375 6.390625 33.015625 6.390625 
Q 39.65625 6.390625 43.53125 10.953125 
Q 47.40625 15.53125 47.40625 23.390625 
Q 47.40625 31.296875 43.53125 35.828125 
Q 39.65625 40.375 33.015625 40.375 
z
M 52.59375 71.296875 
L 52.59375 62.3125 
Q 48.875 64.0625 45.09375 64.984375 
Q 41.3125 65.921875 37.59375 65.921875 
Q 27.828125 65.921875 22.671875 59.328125 
Q 17.53125 52.734375 16.796875 39.40625 
Q 19.671875 43.65625 24.015625 45.921875 
Q 28.375 48.1875 33.59375 48.1875 
Q 44.578125 48.1875 50.953125 41.515625 
Q 57.328125 34.859375 57.328125 23.390625 
Q 57.328125 12.15625 50.6875 5.359375 
Q 44.046875 -1.421875 33.015625 -1.421875 
Q 20.359375 -1.421875 13.671875 8.265625 
Q 6.984375 17.96875 6.984375 36.375 
Q 6.984375 53.65625 15.1875 63.9375 
Q 23.390625 74.21875 37.203125 74.21875 
Q 40.921875 74.21875 44.703125 73.484375 
Q 48.484375 72.75 52.59375 71.296875 
z
" id="DejaVuSans-54"/>
      </defs>
      <g transform="translate(21.971875 155.140019)scale(0.1 -0.1)">
       <use xlink:href="#DejaVuSans-48"/>
       <use x="63.623047" xlink:href="#DejaVuSans-46"/>
       <use x="95.410156" xlink:href="#DejaVuSans-57"/>
       <use x="159.033203" xlink:href="#DejaVuSans-54"/>
       <use x="222.65625" xlink:href="#DejaVuSans-48"/>
      </g>
     </g>
    </g>
    <g id="ytick_5">
     <g id="line2d_13">
      <g>
       <use style="stroke:#000000;stroke-width:0.8;" x="57.6" xlink:href="#mae5bddb664" y="102.65581"/>
      </g>
     </g>
     <g id="text_14">
      <!-- 0.965 -->
      <g transform="translate(21.971875 106.455028)scale(0.1 -0.1)">
       <use xlink:href="#DejaVuSans-48"/>
       <use x="63.623047" xlink:href="#DejaVuSans-46"/>
       <use x="95.410156" xlink:href="#DejaVuSans-57"/>
       <use x="159.033203" xlink:href="#DejaVuSans-54"/>
       <use x="222.65625" xlink:href="#DejaVuSans-53"/>
      </g>
     </g>
    </g>
    <g id="ytick_6">
     <g id="line2d_14">
      <g>
       <use style="stroke:#000000;stroke-width:0.8;" x="57.6" xlink:href="#mae5bddb664" y="53.97082"/>
      </g>
     </g>
     <g id="text_15">
      <!-- 0.970 -->
      <defs>
       <path d="M 8.203125 72.90625 
L 55.078125 72.90625 
L 55.078125 68.703125 
L 28.609375 0 
L 18.3125 0 
L 43.21875 64.59375 
L 8.203125 64.59375 
z
" id="DejaVuSans-55"/>
      </defs>
      <g transform="translate(21.971875 57.770038)scale(0.1 -0.1)">
       <use xlink:href="#DejaVuSans-48"/>
       <use x="63.623047" xlink:href="#DejaVuSans-46"/>
       <use x="95.410156" xlink:href="#DejaVuSans-57"/>
       <use x="159.033203" xlink:href="#DejaVuSans-55"/>
       <use x="222.65625" xlink:href="#DejaVuSans-48"/>
      </g>
     </g>
    </g>
    <g id="text_16">
     <!-- $\rho (g/cm^3)$ -->
     <defs>
      <path d="M 18.796875 44.921875 
Q 22.703125 49.90625 30.953125 54.296875 
Q 34.1875 56 43.0625 56 
Q 53.03125 56 57.71875 48.09375 
Q 62.40625 40.1875 59.90625 27.296875 
Q 57.375 14.40625 49.609375 6.484375 
Q 41.84375 -1.421875 31.890625 -1.421875 
Q 25.875 -1.421875 22.015625 0.984375 
Q 18.171875 3.328125 16.3125 8.203125 
L 10.640625 -20.796875 
L 1.609375 -20.796875 
L 10.890625 26.8125 
Q 13.09375 38.09375 18.796875 44.921875 
z
M 50.59375 27.296875 
Q 52.484375 37.203125 49.515625 42.875 
Q 46.53125 48.484375 39.40625 48.484375 
Q 32.28125 48.484375 27.09375 42.875 
Q 21.921875 37.203125 20.015625 27.296875 
Q 18.0625 17.390625 21.046875 11.71875 
Q 24.03125 6.109375 31.15625 6.109375 
Q 38.28125 6.109375 43.453125 11.71875 
Q 48.640625 17.390625 50.59375 27.296875 
z
" id="DejaVuSans-Oblique-961"/>
      <path d="M 59.625 54.6875 
L 50.296875 6.78125 
Q 47.609375 -7.125 40.015625 -13.953125 
Q 32.421875 -20.796875 19.578125 -20.796875 
Q 14.84375 -20.796875 10.78125 -20.09375 
Q 6.734375 -19.390625 3.21875 -17.921875 
L 4.890625 -9.1875 
Q 8.203125 -11.328125 11.90625 -12.34375 
Q 15.625 -13.375 19.828125 -13.375 
Q 28.375 -13.375 33.859375 -8.703125 
Q 39.359375 -4.046875 41.109375 4.6875 
L 41.890625 8.796875 
Q 38.140625 4.5 33.15625 2.25 
Q 28.171875 0 22.40625 0 
Q 14.109375 0 9.34375 5.484375 
Q 4.59375 10.984375 4.59375 20.609375 
Q 4.59375 28.171875 7.46875 35.421875 
Q 10.359375 42.671875 15.578125 48.296875 
Q 19.046875 52 23.65625 54 
Q 28.265625 56 33.296875 56 
Q 38.8125 56 42.90625 53.4375 
Q 47.015625 50.875 49.03125 46.1875 
L 50.59375 54.6875 
z
M 46.09375 34.625 
Q 46.09375 41.265625 42.96875 44.875 
Q 39.84375 48.484375 34.078125 48.484375 
Q 30.515625 48.484375 27.296875 47.0625 
Q 24.078125 45.65625 21.78125 43.109375 
Q 18.0625 38.921875 15.984375 33.234375 
Q 13.921875 27.546875 13.921875 21.484375 
Q 13.921875 14.75 17.0625 11.125 
Q 20.21875 7.515625 26.125 7.515625 
Q 34.671875 7.515625 40.375 15.25 
Q 46.09375 23 46.09375 34.625 
z
" id="DejaVuSans-Oblique-103"/>
      <path d="M 25.390625 72.90625 
L 33.6875 72.90625 
L 8.296875 -9.28125 
L 0 -9.28125 
z
" id="DejaVuSans-47"/>
      <path d="M 53.609375 52.59375 
L 51.8125 43.703125 
Q 48.578125 46.046875 44.9375 47.21875 
Q 41.3125 48.390625 37.40625 48.390625 
Q 33.109375 48.390625 29.21875 46.875 
Q 25.34375 45.359375 22.703125 42.578125 
Q 18.5 38.328125 16.203125 32.609375 
Q 13.921875 26.90625 13.921875 20.796875 
Q 13.921875 13.421875 17.609375 9.8125 
Q 21.296875 6.203125 28.8125 6.203125 
Q 32.515625 6.203125 36.6875 7.328125 
Q 40.875 8.453125 45.40625 10.6875 
L 43.703125 1.8125 
Q 39.796875 0.203125 35.671875 -0.609375 
Q 31.546875 -1.421875 27.203125 -1.421875 
Q 16.3125 -1.421875 10.453125 4.015625 
Q 4.59375 9.46875 4.59375 19.578125 
Q 4.59375 28.078125 7.640625 35.234375 
Q 10.6875 42.390625 16.703125 48.09375 
Q 20.796875 52 26.3125 54 
Q 31.84375 56 38.375 56 
Q 42.1875 56 45.9375 55.140625 
Q 49.703125 54.296875 53.609375 52.59375 
z
" id="DejaVuSans-Oblique-99"/>
     </defs>
     <g transform="translate(15.871875 196.678)rotate(-90)scale(0.1 -0.1)">
      <use transform="translate(0 0.765625)" xlink:href="#DejaVuSans-Oblique-961"/>
      <use transform="translate(63.476562 0.765625)" xlink:href="#DejaVuSans-40"/>
      <use transform="translate(102.490234 0.765625)" xlink:href="#DejaVuSans-Oblique-103"/>
      <use transform="translate(165.966797 0.765625)" xlink:href="#DejaVuSans-47"/>
      <use transform="translate(199.658203 0.765625)" xlink:href="#DejaVuSans-Oblique-99"/>
      <use transform="translate(254.638672 0.765625)" xlink:href="#DejaVuSans-Oblique-109"/>
      <use transform="translate(356.700677 39.046875)scale(0.7)" xlink:href="#DejaVuSans-51"/>
      <use transform="translate(403.971185 0.765625)" xlink:href="#DejaVuSans-41"/>
     </g>
    </g>
   </g>
   <g id="line2d_15">
    <path clip-path="url(#p4d77037291)" d="M 73.832727 197.532729 
L 74.019043 197.226695 
L 74.484831 195.042394 
L 74.857462 192.583997 
L 75.230093 187.368082 
L 76.068512 173.919048 
L 76.5343 172.13153 
L 76.720616 172.007481 
L 77.000089 171.971746 
L 77.279562 171.852468 
L 77.465877 172.048571 
L 77.74535 173.284585 
L 78.024823 175.319228 
L 78.770085 183.530342 
L 79.142716 190.016545 
L 79.981135 206.32183 
L 80.16745 207.086087 
L 80.353765 207.0486 
L 80.633239 206.48473 
L 80.726396 206.648506 
L 80.912712 207.996496 
L 81.285342 213.643079 
L 81.657973 222.658079 
L 82.58955 250.567528 
L 82.775865 251.53967 
L 82.962181 249.532583 
L 83.241654 241.266455 
L 83.614285 220.172126 
L 84.359546 162.524716 
L 85.104808 105.812447 
L 85.570596 88.919145 
L 85.850069 84.574302 
L 85.943227 84.249281 
L 86.036385 84.408675 
L 86.2227 86.035923 
L 86.502173 92.633323 
L 86.967961 110.727099 
L 88.085854 160.807207 
L 88.365327 166.519124 
L 88.551642 167.615705 
L 88.6448 167.194483 
L 88.831115 164.365787 
L 89.110588 155.149037 
L 90.507954 101.098279 
L 90.787427 98.1098 
L 90.880584 97.941447 
L 90.973742 98.353225 
L 91.160057 101.163225 
L 91.532688 112.549768 
L 92.091634 136.999468 
L 93.023211 181.592289 
L 93.582157 199.301065 
L 93.954788 206.028844 
L 94.047946 206.554252 
L 94.141103 206.527183 
L 94.327419 204.89127 
L 94.606892 198.930962 
L 95.07268 181.191222 
L 96.28373 131.197969 
L 96.749519 115.606212 
L 97.028992 111.552213 
L 97.122149 111.286879 
L 97.215307 111.456401 
L 97.401623 112.968459 
L 97.867411 120.21668 
L 99.171619 144.876115 
L 99.823722 157.841609 
L 101.034772 169.417829 
L 101.407403 169.081708 
L 101.780034 167.703825 
L 102.152665 165.832374 
L 102.432138 162.259967 
L 102.711611 154.699772 
L 103.270557 129.337326 
L 103.829503 105.78752 
L 104.108976 101.91015 
L 104.202134 101.912585 
L 104.388449 103.559306 
L 104.667922 109.508612 
L 105.040553 122.893576 
L 106.251603 172.025592 
L 106.903707 183.63852 
L 107.18318 186.301783 
L 107.276338 186.134015 
L 107.462653 184.215534 
L 107.928441 174.870158 
L 108.39423 160.653362 
L 109.232649 135.029673 
L 109.698437 125.098422 
L 109.977911 123.086368 
L 110.071068 123.173612 
L 110.257384 124.37545 
L 110.723172 130.093696 
L 111.002645 135.221686 
L 111.375276 147.991759 
L 112.40001 190.044783 
L 112.772641 196.677918 
L 113.052114 198.502437 
L 113.145272 198.705258 
L 113.23843 198.613049 
L 113.424745 197.391835 
L 113.704218 192.746215 
L 114.076849 182.69812 
L 114.635795 159.706244 
L 115.753687 115.347305 
L 116.405791 88.744366 
L 117.057895 63.55407 
L 117.430526 57.020253 
L 117.709999 54.914822 
L 118.082629 53.568 
L 118.175787 53.670531 
L 118.362103 55.354739 
L 119.200522 70.168511 
L 119.945783 84.336037 
L 120.784202 106.697443 
L 121.808937 127.157018 
L 122.461041 138.723208 
L 122.926829 141.946155 
L 123.206302 143.445263 
L 124.603668 152.844387 
L 124.696825 152.758215 
L 124.883141 151.811194 
L 125.348929 148.737516 
L 125.628402 148.32827 
L 125.72156 148.420285 
L 125.907875 149.201776 
L 126.094191 150.982478 
L 126.559979 159.187457 
L 127.118925 168.999138 
L 127.398398 170.635635 
L 127.491556 170.358715 
L 127.677871 168.546757 
L 128.050502 161.833973 
L 128.516291 148.826999 
L 128.888921 140.155715 
L 129.168394 137.760901 
L 129.261552 137.815915 
L 129.447867 138.52545 
L 129.634183 140.752983 
L 129.913656 148.162059 
L 130.286287 166.379885 
L 131.124706 213.59342 
L 131.497337 223.889906 
L 131.77681 227.197272 
L 131.869967 227.511485 
L 131.963125 227.341672 
L 132.14944 225.773626 
L 132.428914 221.097238 
L 132.708387 213.011635 
L 133.174175 190.173701 
L 134.292067 130.278699 
L 134.757856 117.493534 
L 134.944171 115.775149 
L 135.037329 115.575832 
L 135.130487 115.6733 
L 135.316802 116.725577 
L 135.596275 121.125824 
L 135.968906 131.762423 
L 137.273113 173.178647 
L 137.645744 178.346072 
L 138.391006 182.243597 
L 138.484163 182.481472 
L 138.670479 182.241455 
L 138.856794 182.133277 
L 139.229425 183.265982 
L 139.322582 183.217297 
L 139.602056 182.17057 
L 140.719948 176.895162 
L 140.813106 176.932162 
L 140.999421 177.52758 
L 141.465209 180.175654 
L 141.558367 180.074778 
L 141.744682 178.856096 
L 142.024155 175.221372 
L 143.04889 158.972464 
L 143.421521 155.790608 
L 143.794152 153.973781 
L 143.887309 154.049827 
L 144.073625 154.811163 
L 144.353098 158.024665 
L 144.725728 161.486752 
L 144.818886 161.819952 
L 144.912044 161.789864 
L 145.098359 160.099132 
L 145.936778 147.420879 
L 146.029936 147.453985 
L 146.402567 148.884934 
L 146.588882 150.253859 
L 146.868355 154.556833 
L 147.89309 175.718932 
L 148.824667 200.245554 
L 149.010982 200.622863 
L 149.197298 200.600954 
L 149.290455 200.520819 
L 149.476771 199.791128 
L 149.756244 196.314144 
L 150.128874 187.521732 
L 150.780978 170.344694 
L 151.153609 164.924886 
L 151.339924 163.806689 
L 151.433082 163.687703 
L 151.619397 164.063356 
L 151.805713 165.15351 
L 152.271501 170.882857 
L 152.550974 176.899446 
L 153.10992 196.588532 
L 154.041497 243.578603 
L 154.600443 266.974467 
L 154.879917 272.088825 
L 154.973074 272.485413 
L 155.066232 272.030306 
L 155.252547 268.877953 
L 155.625178 256.686355 
L 157.395174 189.865525 
L 157.767805 182.903279 
L 157.95412 181.7881 
L 158.047278 181.87992 
L 158.233593 183.261211 
L 158.606224 188.464078 
L 159.630959 205.527194 
L 159.910432 207.664854 
L 160.003589 207.820841 
L 160.096747 207.47138 
L 160.37622 204.189135 
L 160.748851 195.588348 
L 161.400955 172.019165 
L 161.959901 152.474673 
L 163.357266 119.536454 
L 163.823055 112.567782 
L 164.382001 107.840372 
L 164.661474 105.88898 
L 165.313578 99.451072 
L 165.686208 97.898312 
L 165.965681 97.018185 
L 166.524628 96.864341 
L 166.617785 96.968721 
L 166.804101 97.844077 
L 166.990416 100.428861 
L 167.363047 109.104623 
L 167.735678 122.174596 
L 169.039885 174.144168 
L 169.412516 178.837595 
L 169.598831 179.51529 
L 169.691989 179.473908 
L 169.878304 178.769047 
L 170.157777 175.679595 
L 170.437251 169.336914 
L 170.903039 151.727845 
L 171.368827 126.853516 
L 172.393562 70.964218 
L 172.766193 60.222264 
L 173.138824 54.812973 
L 173.325139 54.059426 
L 173.511454 55.70605 
L 173.790927 61.493137 
L 174.256716 77.289469 
L 175.188293 110.583284 
L 175.840397 126.925959 
L 176.399343 136.607651 
L 176.865131 146.301416 
L 178.541969 190.54137 
L 178.9146 193.961782 
L 179.007758 194.155062 
L 179.100916 194.046591 
L 179.287231 192.65089 
L 179.473546 188.923567 
L 180.032493 170.393476 
L 180.964069 134.608158 
L 181.616173 119.600231 
L 181.895646 116.92723 
L 181.988804 117.022361 
L 182.175119 118.564214 
L 182.54775 124.593071 
L 182.920381 133.469027 
L 184.224588 171.333486 
L 184.410904 172.332989 
L 184.504062 172.37515 
L 184.690377 171.659967 
L 184.96985 168.408199 
L 185.435638 160.810225 
L 185.994585 145.972403 
L 186.646688 129.094973 
L 187.019319 123.129016 
L 187.205635 122.325714 
L 187.298792 122.367486 
L 187.485108 122.982377 
L 187.671423 124.527736 
L 187.950896 129.100912 
L 188.416684 141.600394 
L 189.068788 166.844535 
L 189.627734 183.942703 
L 190.000365 190.935815 
L 190.279838 193.941627 
L 190.372996 194.217963 
L 190.466154 193.9056 
L 190.652469 191.601729 
L 191.118257 180.676622 
L 191.956677 158.823196 
L 192.329307 153.543893 
L 192.422465 153.280507 
L 192.515623 153.349835 
L 192.888254 154.285171 
L 193.354042 156.1352 
L 193.540357 155.268121 
L 194.192461 151.109449 
L 194.285619 151.150928 
L 194.65825 151.684711 
L 195.124038 150.614128 
L 195.217196 150.6781 
L 195.682984 151.565627 
L 196.24193 153.503971 
L 196.707719 156.439384 
L 196.987192 162.627636 
L 197.359823 177.85523 
L 198.011926 217.544012 
L 198.943503 275.95159 
L 199.409292 292.028347 
L 199.688765 295.488 
L 199.781923 295.134742 
L 199.968238 292.741193 
L 200.247711 285.366293 
L 200.620342 267.385855 
L 201.365603 214.665074 
L 202.110865 164.763836 
L 202.483496 151.745664 
L 202.762969 146.599271 
L 202.949284 145.880583 
L 203.135599 147.045907 
L 203.415072 150.749667 
L 205.557699 186.665265 
L 205.744015 187.075777 
L 205.93033 186.450078 
L 206.209803 184.462562 
L 207.234538 175.489236 
L 207.420853 174.938122 
L 207.607168 175.851063 
L 207.886641 179.332235 
L 208.35243 185.658362 
L 208.818218 189.040606 
L 208.911376 188.990168 
L 209.190849 187.098172 
L 209.656638 182.188486 
L 210.122426 175.766059 
L 212.358211 139.249201 
L 212.637684 137.531887 
L 212.730841 137.542597 
L 212.917157 138.267225 
L 214.314522 146.899852 
L 214.593995 148.50081 
L 214.966626 152.461041 
L 215.432414 159.460677 
L 216.270833 175.78826 
L 216.922937 182.215457 
L 217.109253 182.657809 
L 217.388726 182.259858 
L 217.481883 182.43269 
L 217.761356 184.0872 
L 218.04083 185.226137 
L 218.133987 184.840065 
L 218.320303 182.125682 
L 218.599776 173.967246 
L 219.438195 144.730352 
L 219.810826 139.355334 
L 220.090299 137.78427 
L 220.183456 137.617085 
L 220.276614 137.701018 
L 220.462929 138.513473 
L 220.928718 141.730383 
L 221.021876 141.806818 
L 221.115033 141.560959 
L 221.301349 139.951725 
L 222.326083 125.259666 
L 222.512399 124.794627 
L 222.698714 126.518563 
L 222.978187 132.414997 
L 223.443975 147.625453 
L 224.46871 188.761446 
L 224.841341 195.940243 
L 224.934499 196.338778 
L 225.027656 196.007331 
L 225.213972 193.156338 
L 225.67976 179.481795 
L 226.238706 155.901512 
L 226.983968 126.476499 
L 227.449756 115.299983 
L 227.729229 111.537607 
L 227.915545 110.936055 
L 228.008702 111.260297 
L 228.195018 113.539826 
L 228.474491 120.888923 
L 228.940279 140.173242 
L 230.151329 195.0903 
L 230.803433 212.791676 
L 231.176064 217.685588 
L 231.455537 218.571753 
L 231.828167 219.352173 
L 231.921325 219.307383 
L 232.107641 218.450138 
L 232.387114 215.822414 
L 232.666587 210.161615 
L 233.225533 198.302146 
L 233.505006 195.54346 
L 233.598164 195.297893 
L 233.691321 195.502954 
L 233.970794 197.909843 
L 234.343425 203.652724 
L 234.902371 212.562467 
L 235.088687 213.388651 
L 235.181844 213.367035 
L 235.36816 212.375419 
L 235.647633 208.623267 
L 236.486052 192.650306 
L 237.510786 167.631869 
L 237.79026 164.611549 
L 237.883417 164.269002 
L 237.976575 164.39383 
L 238.16289 165.673661 
L 238.628679 171.888689 
L 239.094467 180.875938 
L 239.932886 198.327463 
L 240.212359 200.480118 
L 240.305517 200.552269 
L 240.491833 199.812647 
L 241.237094 193.38506 
L 241.609725 187.674992 
L 242.168671 179.035743 
L 242.354986 177.597297 
L 242.448144 177.440336 
L 242.541302 177.562243 
L 242.727617 178.465642 
L 243.193406 183.376205 
L 243.752352 188.746451 
L 243.938667 189.010324 
L 244.124982 188.578196 
L 244.311298 187.277625 
L 244.590771 182.344375 
L 245.056559 167.686298 
L 246.081294 133.867075 
L 246.453925 127.90404 
L 246.547082 127.673566 
L 246.64024 128.137533 
L 246.826555 131.047727 
L 247.292344 144.857906 
L 248.317078 178.654248 
L 248.782867 185.996528 
L 248.969182 186.824855 
L 249.06234 186.44852 
L 249.248655 184.293527 
L 249.621286 175.288362 
L 250.180232 161.529497 
L 250.366548 159.477912 
L 250.459705 159.376452 
L 250.646021 160.703215 
L 250.925494 165.444452 
L 251.577597 180.647606 
L 252.322859 199.039724 
L 252.509174 200.326468 
L 252.602332 200.093462 
L 253.161278 195.428272 
L 253.440751 190.642147 
L 253.90654 176.850177 
L 254.372328 157.485624 
L 255.303905 120.512977 
L 255.676536 111.910047 
L 255.862851 110.431971 
L 256.049167 110.210746 
L 256.514955 110.039181 
L 256.980743 110.776563 
L 257.167059 110.697402 
L 257.353374 111.334786 
L 257.726005 114.312165 
L 258.191793 119.761865 
L 258.471266 124.744871 
L 258.937055 140.712574 
L 260.427578 200.558112 
L 260.707051 203.821369 
L 260.893366 204.676862 
L 260.986524 204.739276 
L 261.079682 204.357196 
L 261.265997 201.449144 
L 261.731786 186.125933 
L 262.197574 165.474442 
L 263.501782 99.055068 
L 264.340201 74.34208 
L 264.526516 71.635389 
L 264.619674 71.52429 
L 264.805989 74.501962 
L 265.085462 85.660853 
L 265.551251 115.838342 
L 266.38967 185.206858 
L 266.855458 216.727273 
L 267.321247 234.58113 
L 267.693878 241.069865 
L 267.880193 241.569763 
L 268.159666 241.011151 
L 268.532297 239.920121 
L 268.718612 239.963937 
L 268.904928 240.093634 
L 269.091243 239.35557 
L 269.277558 237.432902 
L 269.650189 230.204057 
L 270.768081 200.957913 
L 271.420185 174.902874 
L 272.351762 132.576339 
L 272.631235 127.293044 
L 272.724393 126.802007 
L 272.817551 126.869679 
L 273.190181 128.281836 
L 273.562812 128.277649 
L 273.749127 129.223404 
L 274.0286 132.028925 
L 276.264385 167.219312 
L 276.916489 185.017376 
L 277.754908 205.020772 
L 278.127539 209.453151 
L 278.50017 213.633245 
L 278.965958 221.602588 
L 280.270166 247.004858 
L 280.456481 247.922667 
L 280.549639 247.981576 
L 281.108585 247.058801 
L 281.388058 245.5039 
L 282.319635 238.812342 
L 282.878581 231.355165 
L 284.089631 214.334893 
L 284.462262 206.362336 
L 285.393839 176.314837 
L 285.859627 164.099091 
L 286.232258 159.423677 
L 286.511731 157.965366 
L 286.698046 156.889818 
L 287.629623 149.439554 
L 287.722781 149.449583 
L 287.909096 150.67401 
L 288.374885 155.845232 
L 288.654358 162.106609 
L 289.120146 179.054633 
L 290.331196 229.707957 
L 290.517511 231.645328 
L 290.610669 231.425953 
L 290.796984 228.445653 
L 291.169615 216.008975 
L 291.728561 197.800691 
L 292.008034 193.891092 
L 292.287507 192.325285 
L 292.380665 192.413015 
L 292.566981 194.251555 
L 292.939611 204.003451 
L 294.150661 241.791961 
L 294.336977 242.919506 
L 294.430134 242.86157 
L 294.61645 241.778816 
L 294.895923 237.086849 
L 295.268554 225.656392 
L 295.734342 203.666356 
L 296.20013 172.014491 
L 297.131707 103.679266 
L 297.41118 97.231523 
L 297.504338 96.747789 
L 297.597496 97.059567 
L 297.783811 99.928087 
L 298.063284 108.72751 
L 298.435915 127.625854 
L 299.553807 192.288576 
L 299.926438 199.889959 
L 300.205911 202.367441 
L 300.392226 202.756531 
L 300.578542 202.104444 
L 300.764857 201.417986 
L 300.858015 201.35304 
L 300.951173 201.473389 
L 301.230646 202.774252 
L 301.603276 204.52808 
L 301.696434 204.627203 
L 301.882749 204.341812 
L 302.348538 202.51963 
L 302.628011 201.729083 
L 302.814326 201.876988 
L 303.186957 202.448258 
L 303.280115 202.357704 
L 303.46643 201.358688 
L 303.745903 198.017242 
L 304.584322 183.237258 
L 305.143269 165.430333 
L 306.726949 108.416023 
L 306.820107 108.027127 
L 306.913265 108.267339 
L 307.09958 110.474619 
L 307.658526 123.336317 
L 309.707995 173.137362 
L 309.894311 173.876984 
L 310.080626 173.482246 
L 310.360099 172.101053 
L 310.825888 168.545881 
L 311.384834 166.707341 
L 311.571149 164.481268 
L 312.036938 154.380593 
L 312.689041 141.173524 
L 313.061672 137.062855 
L 313.341145 135.524604 
L 313.434303 135.652743 
L 313.713776 137.511536 
L 313.993249 139.319599 
L 314.086407 139.51356 
L 314.179564 139.337905 
L 314.36588 137.518742 
L 314.831668 128.680858 
L 315.204299 123.221518 
L 316.322191 111.673828 
L 316.415349 111.764674 
L 316.601664 113.174883 
L 316.974295 119.565957 
L 317.253768 127.387493 
L 317.719557 151.098835 
L 318.557976 192.537259 
L 319.21008 220.525968 
L 319.862183 236.298931 
L 320.141656 240.235794 
L 320.42113 241.440456 
L 320.514287 241.446103 
L 320.700603 240.51583 
L 320.886918 237.864446 
L 321.166391 229.714676 
L 321.632179 206.572558 
L 323.029545 131.637692 
L 323.309018 127.145139 
L 323.588491 125.867352 
L 323.681649 126.067935 
L 323.867964 128.021761 
L 324.147437 134.56551 
L 324.520068 150.429125 
L 325.824275 213.360998 
L 326.103749 219.176031 
L 326.196906 219.585471 
L 326.290064 219.432016 
L 326.476379 217.863775 
L 326.755852 212.043582 
L 327.501114 185.076869 
L 328.153218 163.569593 
L 329.177952 140.161947 
L 329.550583 134.892381 
L 329.830056 133.392591 
L 330.016371 133.074484 
L 330.202687 132.655306 
L 330.295845 132.662609 
L 330.48216 133.297071 
L 330.761633 135.49588 
L 331.041106 139.46322 
L 331.506894 150.980044 
L 332.531629 179.142266 
L 332.997418 184.638607 
L 333.276891 185.72584 
L 333.370048 185.674915 
L 333.742679 184.90355 
L 333.928994 185.756122 
L 334.208467 188.730385 
L 334.487941 194.491085 
L 335.69899 226.953653 
L 335.885306 228.066397 
L 335.978464 228.03222 
L 336.164779 227.281595 
L 336.444252 224.50879 
L 336.723725 218.957143 
L 337.375829 198.860758 
L 337.934775 173.765593 
L 338.680037 140.166231 
L 338.95951 134.30154 
L 339.145825 133.249652 
L 339.238983 133.488306 
L 339.425298 135.516231 
L 339.797929 144.320522 
L 340.356875 157.5865 
L 340.729506 166.758362 
L 341.75424 198.200103 
L 342.033713 200.991797 
L 342.126871 200.77437 
L 342.313186 198.585006 
L 342.685817 190.011677 
L 344.362656 138.509481 
L 344.828444 123.670491 
L 345.107917 120.549783 
L 345.201075 120.662927 
L 345.38739 122.412373 
L 346.412125 142.303892 
L 347.436859 168.351238 
L 348.182121 200.073696 
L 349.02054 234.543448 
L 349.486328 247.335137 
L 349.672644 249.033367 
L 349.765801 249.102694 
L 349.952117 247.657334 
L 350.23159 242.131004 
L 350.604221 229.215363 
L 351.070009 204.089039 
L 352.281059 135.454011 
L 352.65369 124.363181 
L 352.933163 122.068073 
L 353.026321 122.000498 
L 353.212636 122.804288 
L 353.492109 126.589935 
L 353.86474 136.31593 
L 354.796317 163.0399 
L 355.262105 171.492296 
L 355.448421 172.793256 
L 355.634736 173.09189 
L 355.821051 172.952943 
L 356.100524 172.259182 
L 356.379997 170.873899 
L 356.65947 168.047541 
L 358.522624 142.013437 
L 358.70894 141.306823 
L 358.802097 141.356774 
L 358.988413 141.975073 
L 359.361043 145.209802 
L 360.29262 156.089923 
L 360.758409 163.838042 
L 361.50367 176.374524 
L 361.783143 178.898257 
L 361.876301 178.87557 
L 362.155774 177.261662 
L 362.342089 176.42058 
L 362.435247 176.404514 
L 362.621563 177.233328 
L 362.807878 179.652777 
L 363.832612 198.330092 
L 364.018928 198.991526 
L 364.112086 198.820544 
L 364.298401 197.63302 
L 364.671032 193.501417 
L 365.695766 178.992024 
L 365.788924 178.811403 
L 365.882082 178.868754 
L 366.068397 178.922502 
L 366.254712 178.71598 
L 366.441028 178.297581 
L 366.627343 176.908599 
L 367.093132 169.395434 
L 367.465762 159.684725 
L 368.397339 132.161737 
L 368.583655 130.350266 
L 368.676812 130.344035 
L 368.863128 131.961447 
L 369.142601 137.350292 
L 369.515232 150.896306 
L 370.633124 195.833817 
L 371.005755 202.733941 
L 371.19207 203.301608 
L 371.378385 202.066275 
L 371.751016 196.169939 
L 372.40312 182.970854 
L 372.868908 168.358735 
L 373.61417 144.609126 
L 373.893643 142.620636 
L 373.986801 142.640695 
L 374.173116 143.69229 
L 374.452589 147.2572 
L 374.82522 155.761397 
L 375.291008 171.907384 
L 375.849954 200.839024 
L 376.781531 251.236265 
L 377.154162 261.700033 
L 377.433635 265.545076 
L 377.526793 265.791422 
L 377.61995 265.627061 
L 377.806266 264.008383 
L 378.085739 258.14116 
L 378.551527 242.679781 
L 378.924158 222.492744 
L 380.228366 140.080935 
L 380.694154 126.688571 
L 381.439416 111.866133 
L 381.625731 110.500714 
L 381.718889 110.508796 
L 381.905204 112.143054 
L 382.277835 120.07676 
L 383.023096 139.049982 
L 384.327304 176.065083 
L 384.513619 177.430404 
L 384.606777 177.470618 
L 384.793092 176.503345 
L 385.072566 172.500075 
L 386.004142 155.045728 
L 386.0973 154.886722 
L 386.283615 156.009593 
L 386.656246 161.319957 
L 387.028877 166.018545 
L 387.215192 166.81104 
L 387.30835 166.848819 
L 387.494665 166.358951 
L 387.867296 163.696369 
L 388.146769 162.103201 
L 388.5194 161.500286 
L 389.078346 158.597492 
L 389.264662 158.719886 
L 389.450977 158.497006 
L 389.637292 158.258742 
L 389.823608 158.560102 
L 390.103081 159.433511 
L 390.568869 162.849347 
L 390.848342 166.255252 
L 391.593604 176.814442 
L 392.059392 180.727741 
L 392.338865 181.49414 
L 392.432023 181.214202 
L 392.618338 179.258234 
L 392.897811 173.056155 
L 393.3636 154.701817 
L 394.015704 130.458152 
L 396.624119 58.400083 
L 396.810434 57.696487 
L 396.903592 57.954518 
L 397.089907 59.826942 
L 397.555696 69.391888 
L 398.021484 83.693298 
L 398.487273 99.394889 
L 398.487273 99.394889 
" style="fill:none;stroke:#1f77b4;stroke-linecap:square;stroke-width:1.5;"/>
   </g>
   <g id="patch_3">
    <path d="M 57.6 307.584 
L 57.6 41.472 
" style="fill:none;stroke:#000000;stroke-linecap:square;stroke-linejoin:miter;stroke-width:0.8;"/>
   </g>
   <g id="patch_4">
    <path d="M 414.72 307.584 
L 414.72 41.472 
" style="fill:none;stroke:#000000;stroke-linecap:square;stroke-linejoin:miter;stroke-width:0.8;"/>
   </g>
   <g id="patch_5">
    <path d="M 57.6 307.584 
L 414.72 307.584 
" style="fill:none;stroke:#000000;stroke-linecap:square;stroke-linejoin:miter;stroke-width:0.8;"/>
   </g>
   <g id="patch_6">
    <path d="M 57.6 41.472 
L 414.72 41.472 
" style="fill:none;stroke:#000000;stroke-linecap:square;stroke-linejoin:miter;stroke-width:0.8;"/>
   </g>
   <g id="text_17">
    <!-- $\rho(t); \rho = 0.959 \pm 0.000315$ -->
    <defs>
     <path d="M 11.71875 51.703125 
L 22.015625 51.703125 
L 22.015625 39.3125 
L 11.71875 39.3125 
z
M 11.71875 12.40625 
L 22.015625 12.40625 
L 22.015625 4 
L 14.015625 -11.625 
L 7.71875 -11.625 
L 11.71875 4 
z
" id="DejaVuSans-59"/>
     <path d="M 10.59375 45.40625 
L 73.1875 45.40625 
L 73.1875 37.203125 
L 10.59375 37.203125 
z
M 10.59375 25.484375 
L 73.1875 25.484375 
L 73.1875 17.1875 
L 10.59375 17.1875 
z
" id="DejaVuSans-61"/>
     <path d="M 46 62.703125 
L 46 43.796875 
L 73.1875 43.796875 
L 73.1875 35.5 
L 46 35.5 
L 46 16.609375 
L 37.796875 16.609375 
L 37.796875 35.5 
L 10.59375 35.5 
L 10.59375 43.796875 
L 37.796875 43.796875 
L 37.796875 62.703125 
z
M 10.59375 8.296875 
L 73.1875 8.296875 
L 73.1875 0 
L 10.59375 0 
z
" id="DejaVuSans-177"/>
    </defs>
    <g transform="translate(157.74 35.472)scale(0.12 -0.12)">
     <use transform="translate(0 0.125)" xlink:href="#DejaVuSans-Oblique-961"/>
     <use transform="translate(63.476562 0.125)" xlink:href="#DejaVuSans-40"/>
     <use transform="translate(102.490234 0.125)" xlink:href="#DejaVuSans-Oblique-116"/>
     <use transform="translate(141.699219 0.125)" xlink:href="#DejaVuSans-41"/>
     <use transform="translate(180.712891 0.125)" xlink:href="#DejaVuSans-59"/>
     <use transform="translate(233.886719 0.125)" xlink:href="#DejaVuSans-Oblique-961"/>
     <use transform="translate(316.845703 0.125)" xlink:href="#DejaVuSans-61"/>
     <use transform="translate(420.117188 0.125)" xlink:href="#DejaVuSans-48"/>
     <use transform="translate(483.740234 0.125)" xlink:href="#DejaVuSans-46"/>
     <use transform="translate(515.527344 0.125)" xlink:href="#DejaVuSans-57"/>
     <use transform="translate(579.150391 0.125)" xlink:href="#DejaVuSans-53"/>
     <use transform="translate(642.695312 0.125)" xlink:href="#DejaVuSans-57"/>
     <use transform="translate(725.800781 0.125)" xlink:href="#DejaVuSans-177"/>
     <use transform="translate(829.072266 0.125)" xlink:href="#DejaVuSans-48"/>
     <use transform="translate(892.695312 0.125)" xlink:href="#DejaVuSans-46"/>
     <use transform="translate(924.482422 0.125)" xlink:href="#DejaVuSans-48"/>
     <use transform="translate(988.105469 0.125)" xlink:href="#DejaVuSans-48"/>
     <use transform="translate(1051.728516 0.125)" xlink:href="#DejaVuSans-48"/>
     <use transform="translate(1115.351562 0.125)" xlink:href="#DejaVuSans-51"/>
     <use transform="translate(1178.974609 0.125)" xlink:href="#DejaVuSans-49"/>
     <use transform="translate(1242.597656 0.125)" xlink:href="#DejaVuSans-53"/>
    </g>
   </g>
  </g>
 </g>
 <defs>
  <clipPath id="p4d77037291">
   <rect height="266.112" width="357.12" x="57.6" y="41.472"/>
  </clipPath>
 </defs>
</svg>
