<?xml version="1.0" encoding="utf-8" standalone="no"?>
<!DOCTYPE svg PUBLIC "-//W3C//DTD SVG 1.1//EN"
  "http://www.w3.org/Graphics/SVG/1.1/DTD/svg11.dtd">
<!-- Created with matplotlib (https://matplotlib.org/) -->
<svg height="345.6pt" version="1.1" viewBox="0 0 460.8 345.6" width="460.8pt" xmlns="http://www.w3.org/2000/svg" xmlns:xlink="http://www.w3.org/1999/xlink">
 <defs>
  <style type="text/css">
*{stroke-linecap:butt;stroke-linejoin:round;}
  </style>
 </defs>
 <g id="figure_1">
  <g id="patch_1">
   <path d="M 0 345.6 
L 460.8 345.6 
L 460.8 0 
L 0 0 
z
" style="fill:#ffffff;"/>
  </g>
  <g id="axes_1">
   <g id="patch_2">
    <path d="M 57.6 307.584 
L 414.72 307.584 
L 414.72 41.472 
L 57.6 41.472 
z
" style="fill:#ffffff;"/>
   </g>
   <g id="matplotlib.axis_1">
    <g id="xtick_1">
     <g id="line2d_1">
      <defs>
       <path d="M 0 0 
L 0 3.5 
" id="me913db8afa" style="stroke:#000000;stroke-width:0.8;"/>
      </defs>
      <g>
       <use style="stroke:#000000;stroke-width:0.8;" x="73.832727" xlink:href="#me913db8afa" y="307.584"/>
      </g>
     </g>
     <g id="text_1">
      <!-- 0 -->
      <defs>
       <path d="M 31.78125 66.40625 
Q 24.171875 66.40625 20.328125 58.90625 
Q 16.5 51.421875 16.5 36.375 
Q 16.5 21.390625 20.328125 13.890625 
Q 24.171875 6.390625 31.78125 6.390625 
Q 39.453125 6.390625 43.28125 13.890625 
Q 47.125 21.390625 47.125 36.375 
Q 47.125 51.421875 43.28125 58.90625 
Q 39.453125 66.40625 31.78125 66.40625 
z
M 31.78125 74.21875 
Q 44.046875 74.21875 50.515625 64.515625 
Q 56.984375 54.828125 56.984375 36.375 
Q 56.984375 17.96875 50.515625 8.265625 
Q 44.046875 -1.421875 31.78125 -1.421875 
Q 19.53125 -1.421875 13.0625 8.265625 
Q 6.59375 17.96875 6.59375 36.375 
Q 6.59375 54.828125 13.0625 64.515625 
Q 19.53125 74.21875 31.78125 74.21875 
z
" id="DejaVuSans-48"/>
      </defs>
      <g transform="translate(70.651477 322.182437)scale(0.1 -0.1)">
       <use xlink:href="#DejaVuSans-48"/>
      </g>
     </g>
    </g>
    <g id="xtick_2">
     <g id="line2d_2">
      <g>
       <use style="stroke:#000000;stroke-width:0.8;" x="120.411572" xlink:href="#me913db8afa" y="307.584"/>
      </g>
     </g>
     <g id="text_2">
      <!-- 5 -->
      <defs>
       <path d="M 10.796875 72.90625 
L 49.515625 72.90625 
L 49.515625 64.59375 
L 19.828125 64.59375 
L 19.828125 46.734375 
Q 21.96875 47.46875 24.109375 47.828125 
Q 26.265625 48.1875 28.421875 48.1875 
Q 40.625 48.1875 47.75 41.5 
Q 54.890625 34.8125 54.890625 23.390625 
Q 54.890625 11.625 47.5625 5.09375 
Q 40.234375 -1.421875 26.90625 -1.421875 
Q 22.3125 -1.421875 17.546875 -0.640625 
Q 12.796875 0.140625 7.71875 1.703125 
L 7.71875 11.625 
Q 12.109375 9.234375 16.796875 8.0625 
Q 21.484375 6.890625 26.703125 6.890625 
Q 35.15625 6.890625 40.078125 11.328125 
Q 45.015625 15.765625 45.015625 23.390625 
Q 45.015625 31 40.078125 35.4375 
Q 35.15625 39.890625 26.703125 39.890625 
Q 22.75 39.890625 18.8125 39.015625 
Q 14.890625 38.140625 10.796875 36.28125 
z
" id="DejaVuSans-53"/>
      </defs>
      <g transform="translate(117.230322 322.182437)scale(0.1 -0.1)">
       <use xlink:href="#DejaVuSans-53"/>
      </g>
     </g>
    </g>
    <g id="xtick_3">
     <g id="line2d_3">
      <g>
       <use style="stroke:#000000;stroke-width:0.8;" x="166.990416" xlink:href="#me913db8afa" y="307.584"/>
      </g>
     </g>
     <g id="text_3">
      <!-- 10 -->
      <defs>
       <path d="M 12.40625 8.296875 
L 28.515625 8.296875 
L 28.515625 63.921875 
L 10.984375 60.40625 
L 10.984375 69.390625 
L 28.421875 72.90625 
L 38.28125 72.90625 
L 38.28125 8.296875 
L 54.390625 8.296875 
L 54.390625 0 
L 12.40625 0 
z
" id="DejaVuSans-49"/>
      </defs>
      <g transform="translate(160.627916 322.182437)scale(0.1 -0.1)">
       <use xlink:href="#DejaVuSans-49"/>
       <use x="63.623047" xlink:href="#DejaVuSans-48"/>
      </g>
     </g>
    </g>
    <g id="xtick_4">
     <g id="line2d_4">
      <g>
       <use style="stroke:#000000;stroke-width:0.8;" x="213.56926" xlink:href="#me913db8afa" y="307.584"/>
      </g>
     </g>
     <g id="text_4">
      <!-- 15 -->
      <g transform="translate(207.20676 322.182437)scale(0.1 -0.1)">
       <use xlink:href="#DejaVuSans-49"/>
       <use x="63.623047" xlink:href="#DejaVuSans-53"/>
      </g>
     </g>
    </g>
    <g id="xtick_5">
     <g id="line2d_5">
      <g>
       <use style="stroke:#000000;stroke-width:0.8;" x="260.148105" xlink:href="#me913db8afa" y="307.584"/>
      </g>
     </g>
     <g id="text_5">
      <!-- 20 -->
      <defs>
       <path d="M 19.1875 8.296875 
L 53.609375 8.296875 
L 53.609375 0 
L 7.328125 0 
L 7.328125 8.296875 
Q 12.9375 14.109375 22.625 23.890625 
Q 32.328125 33.6875 34.8125 36.53125 
Q 39.546875 41.84375 41.421875 45.53125 
Q 43.3125 49.21875 43.3125 52.78125 
Q 43.3125 58.59375 39.234375 62.25 
Q 35.15625 65.921875 28.609375 65.921875 
Q 23.96875 65.921875 18.8125 64.3125 
Q 13.671875 62.703125 7.8125 59.421875 
L 7.8125 69.390625 
Q 13.765625 71.78125 18.9375 73 
Q 24.125 74.21875 28.421875 74.21875 
Q 39.75 74.21875 46.484375 68.546875 
Q 53.21875 62.890625 53.21875 53.421875 
Q 53.21875 48.921875 51.53125 44.890625 
Q 49.859375 40.875 45.40625 35.40625 
Q 44.1875 33.984375 37.640625 27.21875 
Q 31.109375 20.453125 19.1875 8.296875 
z
" id="DejaVuSans-50"/>
      </defs>
      <g transform="translate(253.785605 322.182437)scale(0.1 -0.1)">
       <use xlink:href="#DejaVuSans-50"/>
       <use x="63.623047" xlink:href="#DejaVuSans-48"/>
      </g>
     </g>
    </g>
    <g id="xtick_6">
     <g id="line2d_6">
      <g>
       <use style="stroke:#000000;stroke-width:0.8;" x="306.726949" xlink:href="#me913db8afa" y="307.584"/>
      </g>
     </g>
     <g id="text_6">
      <!-- 25 -->
      <g transform="translate(300.364449 322.182437)scale(0.1 -0.1)">
       <use xlink:href="#DejaVuSans-50"/>
       <use x="63.623047" xlink:href="#DejaVuSans-53"/>
      </g>
     </g>
    </g>
    <g id="xtick_7">
     <g id="line2d_7">
      <g>
       <use style="stroke:#000000;stroke-width:0.8;" x="353.305794" xlink:href="#me913db8afa" y="307.584"/>
      </g>
     </g>
     <g id="text_7">
      <!-- 30 -->
      <defs>
       <path d="M 40.578125 39.3125 
Q 47.65625 37.796875 51.625 33 
Q 55.609375 28.21875 55.609375 21.1875 
Q 55.609375 10.40625 48.1875 4.484375 
Q 40.765625 -1.421875 27.09375 -1.421875 
Q 22.515625 -1.421875 17.65625 -0.515625 
Q 12.796875 0.390625 7.625 2.203125 
L 7.625 11.71875 
Q 11.71875 9.328125 16.59375 8.109375 
Q 21.484375 6.890625 26.8125 6.890625 
Q 36.078125 6.890625 40.9375 10.546875 
Q 45.796875 14.203125 45.796875 21.1875 
Q 45.796875 27.640625 41.28125 31.265625 
Q 36.765625 34.90625 28.71875 34.90625 
L 20.21875 34.90625 
L 20.21875 43.015625 
L 29.109375 43.015625 
Q 36.375 43.015625 40.234375 45.921875 
Q 44.09375 48.828125 44.09375 54.296875 
Q 44.09375 59.90625 40.109375 62.90625 
Q 36.140625 65.921875 28.71875 65.921875 
Q 24.65625 65.921875 20.015625 65.03125 
Q 15.375 64.15625 9.8125 62.3125 
L 9.8125 71.09375 
Q 15.4375 72.65625 20.34375 73.4375 
Q 25.25 74.21875 29.59375 74.21875 
Q 40.828125 74.21875 47.359375 69.109375 
Q 53.90625 64.015625 53.90625 55.328125 
Q 53.90625 49.265625 50.4375 45.09375 
Q 46.96875 40.921875 40.578125 39.3125 
z
" id="DejaVuSans-51"/>
      </defs>
      <g transform="translate(346.943294 322.182437)scale(0.1 -0.1)">
       <use xlink:href="#DejaVuSans-51"/>
       <use x="63.623047" xlink:href="#DejaVuSans-48"/>
      </g>
     </g>
    </g>
    <g id="xtick_8">
     <g id="line2d_8">
      <g>
       <use style="stroke:#000000;stroke-width:0.8;" x="399.884638" xlink:href="#me913db8afa" y="307.584"/>
      </g>
     </g>
     <g id="text_8">
      <!-- 35 -->
      <g transform="translate(393.522138 322.182437)scale(0.1 -0.1)">
       <use xlink:href="#DejaVuSans-51"/>
       <use x="63.623047" xlink:href="#DejaVuSans-53"/>
      </g>
     </g>
    </g>
    <g id="text_9">
     <!-- $time (ps)$ -->
     <defs>
      <path d="M 42.28125 54.6875 
L 40.921875 47.703125 
L 23 47.703125 
L 17.1875 18.015625 
Q 16.890625 16.359375 16.75 15.234375 
Q 16.609375 14.109375 16.609375 13.484375 
Q 16.609375 10.359375 18.484375 8.9375 
Q 20.359375 7.515625 24.515625 7.515625 
L 33.59375 7.515625 
L 32.078125 0 
L 23.484375 0 
Q 15.484375 0 11.546875 3.125 
Q 7.625 6.25 7.625 12.59375 
Q 7.625 13.71875 7.765625 15.0625 
Q 7.90625 16.40625 8.203125 18.015625 
L 14.015625 47.703125 
L 6.390625 47.703125 
L 7.8125 54.6875 
L 15.28125 54.6875 
L 18.3125 70.21875 
L 27.296875 70.21875 
L 24.3125 54.6875 
z
" id="DejaVuSans-Oblique-116"/>
      <path d="M 18.3125 75.984375 
L 27.296875 75.984375 
L 25.09375 64.59375 
L 16.109375 64.59375 
z
M 14.203125 54.6875 
L 23.1875 54.6875 
L 12.5 0 
L 3.515625 0 
z
" id="DejaVuSans-Oblique-105"/>
      <path d="M 89.796875 33.015625 
L 83.40625 0 
L 74.421875 0 
L 80.71875 32.71875 
Q 81.109375 34.8125 81.296875 36.328125 
Q 81.5 37.84375 81.5 38.921875 
Q 81.5 43.3125 79.046875 45.75 
Q 76.609375 48.1875 72.21875 48.1875 
Q 65.671875 48.1875 60.546875 43.28125 
Q 55.421875 38.375 53.90625 30.515625 
L 47.90625 0 
L 38.921875 0 
L 45.3125 32.71875 
Q 45.703125 34.515625 45.890625 36.046875 
Q 46.09375 37.59375 46.09375 38.8125 
Q 46.09375 43.265625 43.65625 45.71875 
Q 41.21875 48.1875 36.921875 48.1875 
Q 30.28125 48.1875 25.140625 43.28125 
Q 20.015625 38.375 18.5 30.515625 
L 12.5 0 
L 3.515625 0 
L 14.203125 54.6875 
L 23.1875 54.6875 
L 21.484375 46.1875 
Q 25.140625 50.984375 30.046875 53.484375 
Q 34.96875 56 40.578125 56 
Q 46.53125 56 50.359375 52.875 
Q 54.203125 49.75 54.984375 44.1875 
Q 59.078125 49.953125 64.46875 52.96875 
Q 69.875 56 75.875 56 
Q 82.90625 56 86.734375 51.953125 
Q 90.578125 47.90625 90.578125 40.484375 
Q 90.578125 38.875 90.375 36.9375 
Q 90.1875 35.015625 89.796875 33.015625 
z
" id="DejaVuSans-Oblique-109"/>
      <path d="M 48.09375 32.234375 
Q 48.25 33.015625 48.3125 33.84375 
Q 48.390625 34.671875 48.390625 35.5 
Q 48.390625 41.453125 44.890625 44.921875 
Q 41.40625 48.390625 35.40625 48.390625 
Q 28.71875 48.390625 23.578125 44.15625 
Q 18.453125 39.9375 15.828125 32.171875 
z
M 55.90625 25.203125 
L 14.109375 25.203125 
Q 13.8125 23.34375 13.71875 22.265625 
Q 13.625 21.1875 13.625 20.40625 
Q 13.625 13.625 17.796875 9.90625 
Q 21.96875 6.203125 29.59375 6.203125 
Q 35.453125 6.203125 40.671875 7.515625 
Q 45.90625 8.84375 50.390625 11.375 
L 48.6875 2.484375 
Q 43.84375 0.53125 38.6875 -0.4375 
Q 33.546875 -1.421875 28.21875 -1.421875 
Q 16.84375 -1.421875 10.71875 4.015625 
Q 4.59375 9.46875 4.59375 19.484375 
Q 4.59375 28.03125 7.640625 35.375 
Q 10.6875 42.71875 16.609375 48.484375 
Q 20.40625 52.09375 25.65625 54.046875 
Q 30.90625 56 36.8125 56 
Q 46.09375 56 51.578125 50.4375 
Q 57.078125 44.875 57.078125 35.5 
Q 57.078125 33.25 56.78125 30.6875 
Q 56.5 28.125 55.90625 25.203125 
z
" id="DejaVuSans-Oblique-101"/>
      <path d="M 31 75.875 
Q 24.46875 64.65625 21.28125 53.65625 
Q 18.109375 42.671875 18.109375 31.390625 
Q 18.109375 20.125 21.3125 9.0625 
Q 24.515625 -2 31 -13.1875 
L 23.1875 -13.1875 
Q 15.875 -1.703125 12.234375 9.375 
Q 8.59375 20.453125 8.59375 31.390625 
Q 8.59375 42.28125 12.203125 53.3125 
Q 15.828125 64.359375 23.1875 75.875 
z
" id="DejaVuSans-40"/>
      <path d="M 49.609375 33.6875 
Q 49.609375 40.875 46.484375 44.671875 
Q 43.359375 48.484375 37.5 48.484375 
Q 33.5 48.484375 29.859375 46.4375 
Q 26.21875 44.390625 23.390625 40.484375 
Q 20.609375 36.625 18.9375 31.15625 
Q 17.28125 25.6875 17.28125 20.3125 
Q 17.28125 13.484375 20.40625 9.796875 
Q 23.53125 6.109375 29.296875 6.109375 
Q 33.546875 6.109375 37.1875 8.109375 
Q 40.828125 10.109375 43.40625 13.921875 
Q 46.1875 17.921875 47.890625 23.34375 
Q 49.609375 28.765625 49.609375 33.6875 
z
M 21.78125 46.390625 
Q 25.390625 51.125 30.296875 53.5625 
Q 35.203125 56 41.21875 56 
Q 49.609375 56 54.25 50.5 
Q 58.890625 45.015625 58.890625 35.109375 
Q 58.890625 27 56 19.65625 
Q 53.125 12.3125 47.703125 6.5 
Q 44.09375 2.640625 39.546875 0.609375 
Q 35.015625 -1.421875 29.984375 -1.421875 
Q 24.171875 -1.421875 20.21875 1 
Q 16.265625 3.421875 14.3125 8.203125 
L 8.6875 -20.796875 
L -0.296875 -20.796875 
L 14.40625 54.6875 
L 23.390625 54.6875 
z
" id="DejaVuSans-Oblique-112"/>
      <path d="M 50 53.078125 
L 48.296875 44.578125 
Q 44.734375 46.53125 40.765625 47.5 
Q 36.8125 48.484375 32.625 48.484375 
Q 25.53125 48.484375 21.453125 46.0625 
Q 17.390625 43.65625 17.390625 39.5 
Q 17.390625 34.671875 26.859375 32.078125 
Q 27.59375 31.890625 27.9375 31.78125 
L 30.8125 30.90625 
Q 39.796875 28.421875 42.796875 25.6875 
Q 45.796875 22.953125 45.796875 18.21875 
Q 45.796875 9.515625 38.890625 4.046875 
Q 31.984375 -1.421875 20.796875 -1.421875 
Q 16.453125 -1.421875 11.671875 -0.578125 
Q 6.890625 0.25 1.125 2 
L 2.875 11.28125 
Q 7.8125 8.734375 12.59375 7.421875 
Q 17.390625 6.109375 21.78125 6.109375 
Q 28.375 6.109375 32.5 8.9375 
Q 36.625 11.765625 36.625 16.109375 
Q 36.625 20.796875 25.78125 23.6875 
L 24.859375 23.921875 
L 21.78125 24.703125 
Q 14.9375 26.515625 11.765625 29.46875 
Q 8.59375 32.421875 8.59375 37.015625 
Q 8.59375 45.75 15.15625 50.875 
Q 21.734375 56 33.015625 56 
Q 37.453125 56 41.671875 55.265625 
Q 45.90625 54.546875 50 53.078125 
z
" id="DejaVuSans-Oblique-115"/>
      <path d="M 8.015625 75.875 
L 15.828125 75.875 
Q 23.140625 64.359375 26.78125 53.3125 
Q 30.421875 42.28125 30.421875 31.390625 
Q 30.421875 20.453125 26.78125 9.375 
Q 23.140625 -1.703125 15.828125 -13.1875 
L 8.015625 -13.1875 
Q 14.5 -2 17.703125 9.0625 
Q 20.90625 20.125 20.90625 31.390625 
Q 20.90625 42.671875 17.703125 53.65625 
Q 14.5 64.65625 8.015625 75.875 
z
" id="DejaVuSans-41"/>
     </defs>
     <g transform="translate(215.16 335.862125)scale(0.1 -0.1)">
      <use transform="translate(0 0.015625)" xlink:href="#DejaVuSans-Oblique-116"/>
      <use transform="translate(39.208984 0.015625)" xlink:href="#DejaVuSans-Oblique-105"/>
      <use transform="translate(66.992188 0.015625)" xlink:href="#DejaVuSans-Oblique-109"/>
      <use transform="translate(164.404297 0.015625)" xlink:href="#DejaVuSans-Oblique-101"/>
      <use transform="translate(225.927734 0.015625)" xlink:href="#DejaVuSans-40"/>
      <use transform="translate(264.941406 0.015625)" xlink:href="#DejaVuSans-Oblique-112"/>
      <use transform="translate(328.417969 0.015625)" xlink:href="#DejaVuSans-Oblique-115"/>
      <use transform="translate(380.517578 0.015625)" xlink:href="#DejaVuSans-41"/>
     </g>
    </g>
   </g>
   <g id="matplotlib.axis_2">
    <g id="ytick_1">
     <g id="line2d_9">
      <defs>
       <path d="M 0 0 
L -3.5 0 
" id="m47cb229075" style="stroke:#000000;stroke-width:0.8;"/>
      </defs>
      <g>
       <use style="stroke:#000000;stroke-width:0.8;" x="57.6" xlink:href="#m47cb229075" y="295.531156"/>
      </g>
     </g>
     <g id="text_10">
      <!-- 280 -->
      <defs>
       <path d="M 31.78125 34.625 
Q 24.75 34.625 20.71875 30.859375 
Q 16.703125 27.09375 16.703125 20.515625 
Q 16.703125 13.921875 20.71875 10.15625 
Q 24.75 6.390625 31.78125 6.390625 
Q 38.8125 6.390625 42.859375 10.171875 
Q 46.921875 13.96875 46.921875 20.515625 
Q 46.921875 27.09375 42.890625 30.859375 
Q 38.875 34.625 31.78125 34.625 
z
M 21.921875 38.8125 
Q 15.578125 40.375 12.03125 44.71875 
Q 8.5 49.078125 8.5 55.328125 
Q 8.5 64.0625 14.71875 69.140625 
Q 20.953125 74.21875 31.78125 74.21875 
Q 42.671875 74.21875 48.875 69.140625 
Q 55.078125 64.0625 55.078125 55.328125 
Q 55.078125 49.078125 51.53125 44.71875 
Q 48 40.375 41.703125 38.8125 
Q 48.828125 37.15625 52.796875 32.3125 
Q 56.78125 27.484375 56.78125 20.515625 
Q 56.78125 9.90625 50.3125 4.234375 
Q 43.84375 -1.421875 31.78125 -1.421875 
Q 19.734375 -1.421875 13.25 4.234375 
Q 6.78125 9.90625 6.78125 20.515625 
Q 6.78125 27.484375 10.78125 32.3125 
Q 14.796875 37.15625 21.921875 38.8125 
z
M 18.3125 54.390625 
Q 18.3125 48.734375 21.84375 45.5625 
Q 25.390625 42.390625 31.78125 42.390625 
Q 38.140625 42.390625 41.71875 45.5625 
Q 45.3125 48.734375 45.3125 54.390625 
Q 45.3125 60.0625 41.71875 63.234375 
Q 38.140625 66.40625 31.78125 66.40625 
Q 25.390625 66.40625 21.84375 63.234375 
Q 18.3125 60.0625 18.3125 54.390625 
z
" id="DejaVuSans-56"/>
      </defs>
      <g transform="translate(31.5125 299.330375)scale(0.1 -0.1)">
       <use xlink:href="#DejaVuSans-50"/>
       <use x="63.623047" xlink:href="#DejaVuSans-56"/>
       <use x="127.246094" xlink:href="#DejaVuSans-48"/>
      </g>
     </g>
    </g>
    <g id="ytick_2">
     <g id="line2d_10">
      <g>
       <use style="stroke:#000000;stroke-width:0.8;" x="57.6" xlink:href="#m47cb229075" y="263.131925"/>
      </g>
     </g>
     <g id="text_11">
      <!-- 285 -->
      <g transform="translate(31.5125 266.931144)scale(0.1 -0.1)">
       <use xlink:href="#DejaVuSans-50"/>
       <use x="63.623047" xlink:href="#DejaVuSans-56"/>
       <use x="127.246094" xlink:href="#DejaVuSans-53"/>
      </g>
     </g>
    </g>
    <g id="ytick_3">
     <g id="line2d_11">
      <g>
       <use style="stroke:#000000;stroke-width:0.8;" x="57.6" xlink:href="#m47cb229075" y="230.732695"/>
      </g>
     </g>
     <g id="text_12">
      <!-- 290 -->
      <defs>
       <path d="M 10.984375 1.515625 
L 10.984375 10.5 
Q 14.703125 8.734375 18.5 7.8125 
Q 22.3125 6.890625 25.984375 6.890625 
Q 35.75 6.890625 40.890625 13.453125 
Q 46.046875 20.015625 46.78125 33.40625 
Q 43.953125 29.203125 39.59375 26.953125 
Q 35.25 24.703125 29.984375 24.703125 
Q 19.046875 24.703125 12.671875 31.3125 
Q 6.296875 37.9375 6.296875 49.421875 
Q 6.296875 60.640625 12.9375 67.421875 
Q 19.578125 74.21875 30.609375 74.21875 
Q 43.265625 74.21875 49.921875 64.515625 
Q 56.59375 54.828125 56.59375 36.375 
Q 56.59375 19.140625 48.40625 8.859375 
Q 40.234375 -1.421875 26.421875 -1.421875 
Q 22.703125 -1.421875 18.890625 -0.6875 
Q 15.09375 0.046875 10.984375 1.515625 
z
M 30.609375 32.421875 
Q 37.25 32.421875 41.125 36.953125 
Q 45.015625 41.5 45.015625 49.421875 
Q 45.015625 57.28125 41.125 61.84375 
Q 37.25 66.40625 30.609375 66.40625 
Q 23.96875 66.40625 20.09375 61.84375 
Q 16.21875 57.28125 16.21875 49.421875 
Q 16.21875 41.5 20.09375 36.953125 
Q 23.96875 32.421875 30.609375 32.421875 
z
" id="DejaVuSans-57"/>
      </defs>
      <g transform="translate(31.5125 234.531913)scale(0.1 -0.1)">
       <use xlink:href="#DejaVuSans-50"/>
       <use x="63.623047" xlink:href="#DejaVuSans-57"/>
       <use x="127.246094" xlink:href="#DejaVuSans-48"/>
      </g>
     </g>
    </g>
    <g id="ytick_4">
     <g id="line2d_12">
      <g>
       <use style="stroke:#000000;stroke-width:0.8;" x="57.6" xlink:href="#m47cb229075" y="198.333464"/>
      </g>
     </g>
     <g id="text_13">
      <!-- 295 -->
      <g transform="translate(31.5125 202.132683)scale(0.1 -0.1)">
       <use xlink:href="#DejaVuSans-50"/>
       <use x="63.623047" xlink:href="#DejaVuSans-57"/>
       <use x="127.246094" xlink:href="#DejaVuSans-53"/>
      </g>
     </g>
    </g>
    <g id="ytick_5">
     <g id="line2d_13">
      <g>
       <use style="stroke:#000000;stroke-width:0.8;" x="57.6" xlink:href="#m47cb229075" y="165.934234"/>
      </g>
     </g>
     <g id="text_14">
      <!-- 300 -->
      <g transform="translate(31.5125 169.733452)scale(0.1 -0.1)">
       <use xlink:href="#DejaVuSans-51"/>
       <use x="63.623047" xlink:href="#DejaVuSans-48"/>
       <use x="127.246094" xlink:href="#DejaVuSans-48"/>
      </g>
     </g>
    </g>
    <g id="ytick_6">
     <g id="line2d_14">
      <g>
       <use style="stroke:#000000;stroke-width:0.8;" x="57.6" xlink:href="#m47cb229075" y="133.535003"/>
      </g>
     </g>
     <g id="text_15">
      <!-- 305 -->
      <g transform="translate(31.5125 137.334222)scale(0.1 -0.1)">
       <use xlink:href="#DejaVuSans-51"/>
       <use x="63.623047" xlink:href="#DejaVuSans-48"/>
       <use x="127.246094" xlink:href="#DejaVuSans-53"/>
      </g>
     </g>
    </g>
    <g id="ytick_7">
     <g id="line2d_15">
      <g>
       <use style="stroke:#000000;stroke-width:0.8;" x="57.6" xlink:href="#m47cb229075" y="101.135773"/>
      </g>
     </g>
     <g id="text_16">
      <!-- 310 -->
      <g transform="translate(31.5125 104.934991)scale(0.1 -0.1)">
       <use xlink:href="#DejaVuSans-51"/>
       <use x="63.623047" xlink:href="#DejaVuSans-49"/>
       <use x="127.246094" xlink:href="#DejaVuSans-48"/>
      </g>
     </g>
    </g>
    <g id="ytick_8">
     <g id="line2d_16">
      <g>
       <use style="stroke:#000000;stroke-width:0.8;" x="57.6" xlink:href="#m47cb229075" y="68.736542"/>
      </g>
     </g>
     <g id="text_17">
      <!-- 315 -->
      <g transform="translate(31.5125 72.535761)scale(0.1 -0.1)">
       <use xlink:href="#DejaVuSans-51"/>
       <use x="63.623047" xlink:href="#DejaVuSans-49"/>
       <use x="127.246094" xlink:href="#DejaVuSans-53"/>
      </g>
     </g>
    </g>
    <g id="text_18">
     <!-- $T (K)$ -->
     <defs>
      <path d="M 5.90625 72.90625 
L 67.578125 72.90625 
L 66.015625 64.59375 
L 39.984375 64.59375 
L 27.484375 0 
L 17.578125 0 
L 30.078125 64.59375 
L 4.296875 64.59375 
z
" id="DejaVuSans-Oblique-84"/>
      <path d="M 16.890625 72.90625 
L 26.8125 72.90625 
L 20.796875 42.1875 
L 59.078125 72.90625 
L 72.21875 72.90625 
L 28.90625 38.09375 
L 60.59375 0 
L 48.578125 0 
L 19.484375 35.5 
L 12.59375 0 
L 2.6875 0 
z
" id="DejaVuSans-Oblique-75"/>
     </defs>
     <g transform="translate(25.432812 184.778)rotate(-90)scale(0.1 -0.1)">
      <use transform="translate(0 0.125)" xlink:href="#DejaVuSans-Oblique-84"/>
      <use transform="translate(61.083984 0.125)" xlink:href="#DejaVuSans-40"/>
      <use transform="translate(100.097656 0.125)" xlink:href="#DejaVuSans-Oblique-75"/>
      <use transform="translate(165.673828 0.125)" xlink:href="#DejaVuSans-41"/>
     </g>
    </g>
   </g>
   <g id="line2d_17">
    <path clip-path="url(#pd9138cca86)" d="M 73.832727 118.560208 
L 73.925885 168.428132 
L 74.019043 162.618302 
L 74.1122 164.123635 
L 74.298516 212.917719 
L 74.484831 158.396034 
L 74.577989 180.43101 
L 74.764304 141.236624 
L 74.857462 147.611238 
L 74.95062 115.433683 
L 75.043777 171.050137 
L 75.136935 167.385006 
L 75.230093 160.68653 
L 75.32325 163.809946 
L 75.416408 146.106358 
L 75.509566 184.524912 
L 75.602723 181.034089 
L 75.789039 245.605432 
L 75.882196 234.774888 
L 75.975354 246.861874 
L 76.161669 202.106743 
L 76.254827 205.13335 
L 76.441143 219.705876 
L 76.5343 220.148125 
L 76.627458 240.841514 
L 76.720616 209.321015 
L 76.813773 218.046322 
L 76.906931 216.449494 
L 77.093246 186.733309 
L 77.186404 193.929566 
L 77.279562 190.439197 
L 77.372719 177.025073 
L 77.465877 195.710423 
L 77.652193 162.057601 
L 77.74535 157.981259 
L 77.931666 196.546387 
L 78.304296 155.576977 
L 78.490612 179.059875 
L 78.583769 170.286941 
L 78.676927 174.097997 
L 78.770085 194.799032 
L 78.9564 168.76638 
L 79.142716 216.282573 
L 79.235873 209.832664 
L 79.422189 155.976265 
L 79.608504 110.375385 
L 79.794819 138.952284 
L 79.887977 136.310127 
L 80.074292 107.995597 
L 80.260608 171.426162 
L 80.446923 86.988389 
L 80.633239 143.303501 
L 80.912712 104.570285 
L 81.005869 83.375422 
L 81.099027 94.491274 
L 81.192185 90.533967 
L 81.3785 138.132195 
L 81.471658 125.846536 
L 81.751131 163.64769 
L 81.937446 151.689199 
L 82.030604 153.484441 
L 82.123762 185.435784 
L 82.310077 156.879945 
L 82.58955 188.129651 
L 82.682708 159.704574 
L 82.775865 184.485126 
L 82.962181 167.902876 
L 83.055338 191.611013 
L 83.427969 127.326792 
L 83.614285 191.146732 
L 83.707442 173.238122 
L 83.8006 185.279361 
L 84.080073 107.788695 
L 84.173231 112.514642 
L 84.266388 181.658487 
L 84.359546 175.226787 
L 84.452704 148.146538 
L 84.639019 223.73485 
L 84.825335 175.192897 
L 85.104808 239.454697 
L 85.477438 142.75226 
L 85.570596 233.37064 
L 85.663754 217.027561 
L 85.943227 173.626653 
L 86.036385 161.198957 
L 86.129542 189.667642 
L 86.2227 180.956396 
L 86.409015 206.683783 
L 86.502173 121.184028 
L 86.688488 157.077515 
L 86.781646 146.990274 
L 86.874804 203.712838 
L 86.967961 203.421051 
L 87.061119 191.782275 
L 87.247434 146.967724 
L 87.340592 166.855992 
L 87.526908 137.440666 
L 87.620065 151.21157 
L 87.899538 243.812588 
L 88.179011 293.891301 
L 88.272169 289.044311 
L 88.365327 277.611012 
L 88.458484 279.029709 
L 88.551642 240.150568 
L 88.6448 245.023607 
L 88.737957 257.276088 
L 88.831115 225.589252 
L 88.924273 231.751327 
L 89.110588 278.639623 
L 89.203746 263.147995 
L 89.296904 220.965104 
L 89.390061 224.342271 
L 89.576377 183.382191 
L 89.669534 222.216751 
L 89.85585 176.866641 
L 90.042165 232.020046 
L 90.321638 145.90004 
L 90.414796 159.614181 
L 90.507954 151.985004 
L 90.601111 129.263359 
L 90.694269 163.379295 
L 90.787427 159.110308 
L 90.880584 154.770625 
L 91.0669 188.987323 
L 91.160057 170.491574 
L 91.253215 180.197671 
L 91.532688 109.016238 
L 91.625846 152.860302 
L 91.719004 150.246721 
L 91.812161 142.102073 
L 91.998477 183.721282 
L 92.184792 206.695965 
L 92.27795 175.95078 
L 92.65058 206.671925 
L 92.743738 175.792412 
L 93.023211 248.170025 
L 93.116369 245.244245 
L 93.209527 249.077981 
L 93.302684 228.836951 
L 93.395842 241.044074 
L 93.489 292.719032 
L 93.675315 251.664995 
L 93.768473 249.084396 
L 93.954788 212.1553 
L 94.141103 191.547964 
L 94.234261 219.625785 
L 94.327419 200.668542 
L 94.420576 139.447668 
L 94.606892 168.095651 
L 94.70005 167.386108 
L 94.979523 126.636624 
L 95.258996 182.086028 
L 95.352153 183.308515 
L 95.445311 159.202516 
L 95.724784 182.23649 
L 95.817942 176.690649 
L 95.9111 137.99385 
L 96.097415 172.079914 
L 96.190573 155.177365 
L 96.376888 164.804537 
L 96.470046 171.910013 
L 96.563203 152.515768 
L 96.656361 166.222846 
L 96.842676 132.185575 
L 97.028992 199.410609 
L 97.122149 181.911914 
L 97.215307 190.165877 
L 97.308465 185.413299 
L 97.401623 162.04652 
L 97.587938 195.41047 
L 97.681096 193.828481 
L 97.774253 177.861622 
L 97.867411 197.622949 
L 97.960569 254.888524 
L 98.240042 206.285272 
L 98.333199 212.421557 
L 98.519515 199.926729 
L 98.612672 202.511928 
L 98.798988 227.809831 
L 98.985303 179.852878 
L 99.078461 186.444567 
L 99.171619 230.199468 
L 99.264776 211.862994 
L 99.357934 214.809834 
L 99.637407 171.8272 
L 99.730565 137.113887 
L 99.823722 160.683809 
L 99.91688 142.925078 
L 100.103196 226.06565 
L 100.196353 185.465397 
L 100.289511 191.096319 
L 100.475826 175.827404 
L 100.568984 210.453757 
L 100.755299 183.502846 
L 100.941615 138.437979 
L 101.034772 148.482388 
L 101.12793 230.869614 
L 101.407403 148.842538 
L 101.500561 164.378617 
L 101.593719 157.85393 
L 101.873192 202.40041 
L 101.966349 201.492454 
L 102.059507 154.363561 
L 102.152665 181.380761 
L 102.245822 260.147049 
L 102.618453 154.91059 
L 102.711611 175.706684 
L 102.804768 170.849003 
L 102.897926 194.959473 
L 103.177399 168.104075 
L 103.363715 128.167034 
L 103.55003 112.285061 
L 103.736345 165.884274 
L 103.829503 126.446505 
L 103.922661 133.677949 
L 104.108976 146.478107 
L 104.388449 68.771857 
L 104.481607 107.085632 
L 104.76108 67.047117 
L 105.413184 194.759116 
L 105.506341 184.786439 
L 105.692657 136.300407 
L 105.878972 185.828528 
L 105.97213 175.715497 
L 106.065288 177.699042 
L 106.158445 192.199512 
L 106.344761 155.80442 
L 106.437918 232.15042 
L 106.531076 228.704373 
L 106.624234 214.21142 
L 106.717391 233.589529 
L 106.810549 229.334474 
L 107.090022 129.612623 
L 107.18318 150.977194 
L 107.276338 181.988052 
L 107.369495 145.72314 
L 107.555811 203.088505 
L 107.648968 162.872312 
L 107.928441 196.462214 
L 108.021599 191.666027 
L 108.114757 127.077383 
L 108.301072 163.568118 
L 108.39423 218.338952 
L 108.487388 215.284612 
L 108.580545 203.179417 
L 108.673703 211.278123 
L 108.860018 158.375104 
L 109.046334 196.991553 
L 109.232649 141.292351 
L 109.325807 172.116331 
L 109.418964 122.891143 
L 109.512122 144.235951 
L 109.698437 208.396989 
L 109.884753 175.045221 
L 109.977911 192.446978 
L 110.071068 172.003387 
L 110.164226 182.108513 
L 110.257384 208.796407 
L 110.443699 162.867323 
L 110.536857 156.866855 
L 110.81633 177.454234 
L 110.909487 212.196058 
L 111.095803 133.566236 
L 111.282118 172.311698 
L 111.468434 129.71144 
L 111.561591 110.978465 
L 111.654749 113.117656 
L 111.747907 113.707516 
L 111.841064 127.650201 
L 112.02738 87.386187 
L 112.120537 107.596957 
L 112.306853 171.900811 
L 112.586326 130.424029 
L 112.772641 199.564376 
L 112.865799 199.655418 
L 112.958957 236.773078 
L 113.145272 221.264149 
L 113.23843 245.772547 
L 113.331587 230.376368 
L 113.424745 191.580817 
L 113.517903 213.408049 
L 113.61106 193.083169 
L 113.704218 204.145627 
L 113.797376 181.895779 
L 113.890533 129.129291 
L 114.076849 196.909972 
L 114.170007 192.569382 
L 114.263164 134.402655 
L 114.542637 173.62283 
L 114.635795 188.465436 
L 114.82211 128.185242 
L 114.915268 156.385338 
L 115.008426 154.473071 
L 115.101583 103.061583 
L 115.287899 183.147945 
L 115.381056 157.879202 
L 115.474214 163.665704 
L 115.753687 221.992808 
L 115.846845 206.434957 
L 115.940003 225.184262 
L 116.03316 224.750306 
L 116.219476 234.260712 
L 116.405791 202.527091 
L 116.498949 224.460981 
L 116.592106 188.876518 
L 116.778422 225.055054 
L 116.871579 203.870558 
L 116.964737 224.083465 
L 117.523683 154.555754 
L 117.616841 167.215882 
L 117.803156 149.94003 
L 118.082629 225.601499 
L 118.175787 252.465969 
L 118.268945 211.118978 
L 118.362103 229.873467 
L 118.548418 155.86533 
L 118.827891 215.88322 
L 119.014206 160.229248 
L 119.107364 137.230135 
L 119.293679 203.594322 
L 119.479995 158.275574 
L 119.66631 187.7522 
L 119.852626 230.780905 
L 119.945783 234.157099 
L 120.318414 138.759185 
L 120.411572 132.553695 
L 120.504729 159.435531 
L 120.597887 153.021326 
L 120.691045 154.633965 
L 120.970518 203.110666 
L 121.156833 170.217866 
L 121.249991 120.184641 
L 121.343149 135.180301 
L 121.529464 123.721276 
L 121.622622 141.920248 
L 121.715779 119.032719 
L 121.902095 153.306504 
L 121.995252 196.700284 
L 122.08841 162.94385 
L 122.181568 163.016942 
L 122.274725 175.44425 
L 122.367883 174.866702 
L 122.461041 177.339216 
L 122.647356 217.760496 
L 122.833672 155.506347 
L 123.113145 230.731334 
L 123.29946 135.89289 
L 123.485775 181.515348 
L 123.578933 184.77322 
L 123.672091 162.991023 
L 123.951564 259.631966 
L 124.137879 187.638997 
L 124.231037 206.588788 
L 124.324195 191.968959 
L 124.51051 226.652789 
L 124.696825 153.54723 
L 124.789983 158.004976 
L 124.976298 145.715429 
L 125.069456 195.955166 
L 125.255771 173.531464 
L 125.348929 130.233457 
L 125.442087 141.414496 
L 125.72156 208.79874 
L 125.907875 181.475561 
L 126.001033 229.477613 
L 126.187348 165.354741 
L 126.280506 193.568121 
L 126.373664 153.747393 
L 126.559979 220.13536 
L 126.653137 166.278767 
L 126.746295 178.391803 
L 126.839452 152.762197 
L 127.118925 240.707381 
L 127.212083 239.424566 
L 127.305241 213.052175 
L 127.398398 225.103328 
L 127.491556 210.728179 
L 127.584714 221.007612 
L 127.771029 196.359379 
L 127.864187 229.248097 
L 128.236818 138.041931 
L 128.516291 181.169583 
L 128.609448 185.299254 
L 128.702606 237.483074 
L 128.888921 122.239271 
L 129.075237 187.657659 
L 129.261552 74.549612 
L 129.447867 144.972709 
L 129.541025 131.674834 
L 129.634183 138.417243 
L 129.727341 174.053222 
L 129.913656 135.296096 
L 130.006814 153.04245 
L 130.193129 227.5045 
L 130.379444 132.017164 
L 130.472602 170.064747 
L 130.56576 158.716009 
L 130.658917 171.049295 
L 130.752075 230.469095 
L 130.845233 224.960059 
L 130.938391 189.744947 
L 131.031548 196.234188 
L 131.124706 173.955246 
L 131.404179 218.701564 
L 131.497337 224.126232 
L 131.590494 199.472556 
L 131.683652 272.524397 
L 131.869967 199.570337 
L 131.963125 204.226625 
L 132.14944 274.047485 
L 132.242598 257.915779 
L 132.335756 265.498171 
L 132.522071 288.357642 
L 132.708387 193.975897 
L 132.894702 219.482386 
L 133.081017 194.763328 
L 133.267333 127.917754 
L 133.36049 176.815969 
L 133.453648 164.89059 
L 133.639963 195.661046 
L 133.733121 155.487685 
L 133.826279 156.064391 
L 133.919437 153.598939 
L 134.012594 127.47693 
L 134.105752 130.187579 
L 134.19891 124.410149 
L 134.292067 99.447254 
L 134.385225 127.42224 
L 134.478383 83.177527 
L 134.57154 106.474712 
L 134.664698 157.864298 
L 134.757856 149.589405 
L 134.851013 142.096629 
L 134.944171 121.496615 
L 135.037329 123.691599 
L 135.130487 120.868978 
L 135.316802 154.631892 
L 135.596275 183.173411 
L 135.689433 158.89103 
L 135.875748 181.772468 
L 136.062063 150.155873 
L 136.248379 196.745902 
L 136.341536 195.96683 
L 136.434694 177.903741 
L 136.527852 181.573018 
L 136.714167 197.290922 
L 136.807325 202.135255 
L 136.900483 213.768328 
L 137.086798 180.818505 
L 137.179956 193.564816 
L 137.273113 223.508833 
L 137.459429 174.981136 
L 137.552586 199.095494 
L 137.645744 187.684809 
L 137.925217 214.625871 
L 138.018375 224.380372 
L 138.20469 174.806698 
L 138.297848 198.606525 
L 138.484163 118.452189 
L 138.670479 172.767102 
L 138.856794 196.572566 
L 138.949952 157.498252 
L 139.043109 168.379274 
L 139.229425 100.137617 
L 139.41574 172.013237 
L 139.508898 154.39285 
L 139.602056 155.211514 
L 139.695213 169.655739 
L 139.974686 149.988564 
L 140.067844 151.859878 
L 140.161002 154.714251 
L 140.347317 202.719478 
L 140.440475 180.309902 
L 140.533632 190.945468 
L 140.719948 151.305657 
L 140.813106 193.999938 
L 140.906263 183.01284 
L 140.999421 186.005427 
L 141.092579 168.468437 
L 141.185736 127.180866 
L 141.278894 140.228879 
L 141.372052 132.481251 
L 141.744682 168.74558 
L 141.83784 140.853471 
L 142.024155 157.140046 
L 142.117313 155.371113 
L 142.396786 223.401332 
L 142.676259 183.304368 
L 142.769417 170.653376 
L 142.862575 178.040271 
L 142.955732 172.670099 
L 143.04889 182.008464 
L 143.142048 172.714097 
L 143.235205 187.566552 
L 143.514678 123.710455 
L 143.700994 217.775335 
L 143.887309 174.449659 
L 143.980467 181.437978 
L 144.166782 239.554487 
L 144.446255 144.893785 
L 144.632571 204.967531 
L 144.725728 203.613632 
L 144.912044 166.283303 
L 145.098359 208.172009 
L 145.284675 213.49449 
L 145.377832 199.881888 
L 145.564148 225.513373 
L 145.657305 221.486149 
L 145.750463 240.299669 
L 145.936778 210.530867 
L 146.029936 209.879708 
L 146.216251 127.798979 
L 146.588882 201.192761 
L 146.868355 159.012786 
L 146.961513 132.76293 
L 147.147828 176.041303 
L 147.427301 132.968081 
L 147.613617 154.330061 
L 147.706774 147.05585 
L 147.799932 130.950452 
L 147.986248 191.743785 
L 148.172563 156.694751 
L 148.265721 197.595928 
L 148.452036 120.264732 
L 148.545194 139.322154 
L 148.638351 202.794255 
L 148.731509 153.330544 
L 148.824667 159.670814 
L 148.917824 212.030304 
L 149.010982 172.853997 
L 149.10414 184.694425 
L 149.197298 236.288061 
L 149.476771 158.449363 
L 149.569928 164.894607 
L 149.756244 228.463971 
L 149.942559 213.848354 
L 150.035717 216.407634 
L 150.128874 204.81331 
L 150.222032 219.295378 
L 150.31519 211.553322 
L 150.408347 239.86688 
L 150.501505 238.457254 
L 150.594663 230.551065 
L 150.780978 259.87036 
L 150.967294 200.688435 
L 151.153609 185.322905 
L 151.339924 216.02461 
L 151.52624 160.344589 
L 151.619397 161.268356 
L 151.805713 179.186815 
L 151.89887 161.89243 
L 152.085186 95.155458 
L 152.457817 176.304515 
L 152.73729 124.5159 
L 153.203078 225.616597 
L 153.482551 203.197237 
L 153.575709 209.007261 
L 153.668867 207.389956 
L 153.762024 196.809858 
L 153.855182 206.704583 
L 153.94834 240.429525 
L 154.041497 230.731334 
L 154.227813 184.277771 
L 154.32097 188.656851 
L 154.507286 173.179609 
L 154.693601 212.45927 
L 154.786759 167.268175 
L 154.879917 177.617007 
L 155.066232 143.880661 
L 155.15939 192.556552 
L 155.345705 148.969025 
L 155.438863 153.985786 
L 155.53202 153.059168 
L 155.625178 184.693323 
L 155.811493 145.055781 
L 155.904651 146.16351 
L 156.090966 173.549802 
L 156.184124 113.967877 
L 156.277282 116.602323 
L 156.556755 198.754849 
L 156.836228 138.274298 
L 156.929386 140.089303 
L 157.022543 158.98084 
L 157.302016 139.734337 
L 157.395174 122.246139 
L 157.488332 127.493713 
L 157.58149 109.496718 
L 157.767805 181.084762 
L 157.860963 155.762495 
L 158.047278 214.156212 
L 158.233593 135.262984 
L 158.326751 144.421469 
L 158.513066 211.103815 
L 158.699382 141.561718 
L 158.978855 204.85517 
L 159.351486 154.285738 
L 159.444643 183.731261 
L 159.630959 141.64952 
L 159.724116 162.737142 
L 159.817274 211.454245 
L 160.003589 132.550196 
L 160.096747 165.198512 
L 160.189905 157.49702 
L 160.283062 180.013773 
L 160.37622 154.384038 
L 160.469378 156.206365 
L 160.842009 219.577121 
L 160.935166 188.431935 
L 161.121482 242.513573 
L 161.307797 196.988572 
L 161.400955 227.249 
L 161.494112 220.613443 
L 161.58727 262.64477 
L 161.680428 246.39364 
L 161.773585 247.478107 
L 161.866743 288.467864 
L 162.053059 162.278499 
L 162.239374 206.169477 
L 162.425689 179.714469 
L 162.612005 144.229082 
L 162.79832 206.722662 
L 163.077793 147.97223 
L 163.170951 147.752239 
L 163.357266 151.943274 
L 163.543582 187.972126 
L 163.636739 199.590749 
L 163.729897 162.451252 
L 163.823055 179.809269 
L 163.916212 177.332413 
L 164.00937 185.378178 
L 164.102528 224.466943 
L 164.195685 186.1139 
L 164.288843 190.432653 
L 164.382001 211.511074 
L 164.661474 156.851757 
L 164.754632 176.761538 
L 164.847789 175.581688 
L 164.940947 185.920088 
L 165.127262 233.914494 
L 165.313578 142.402349 
L 165.686208 170.572961 
L 165.872524 211.187146 
L 165.965681 203.341932 
L 166.245155 125.719207 
L 166.338312 163.103189 
L 166.43147 158.910664 
L 166.524628 155.211903 
L 166.617785 177.267355 
L 166.710943 131.886466 
L 166.897258 211.348818 
L 166.990416 188.192505 
L 167.083574 201.512736 
L 167.269889 160.643051 
L 167.363047 157.724074 
L 167.456205 190.501274 
L 167.828835 134.796629 
L 167.921993 169.479811 
L 168.108308 137.891922 
L 168.294624 182.682044 
L 168.387781 142.868638 
L 168.480939 166.061498 
L 168.574097 103.703736 
L 168.760412 172.376302 
L 168.85357 156.713931 
L 168.946728 160.717439 
L 169.133043 239.456771 
L 169.319358 154.6709 
L 169.412516 173.113385 
L 169.785147 215.78356 
L 169.971462 223.394917 
L 170.157777 204.012207 
L 170.250935 209.338705 
L 170.344093 201.435043 
L 170.437251 203.937559 
L 170.530408 215.740534 
L 170.623566 196.132714 
L 170.809881 256.483214 
L 170.903039 249.44649 
L 171.089354 165.806257 
L 171.27567 224.705142 
L 171.368827 223.594626 
L 171.461985 226.544057 
L 171.648301 181.009012 
L 171.834616 117.052996 
L 171.927774 150.040532 
L 172.020931 138.753418 
L 172.114089 142.899158 
L 172.207247 132.424617 
L 172.393562 191.7213 
L 172.673035 90.436834 
L 172.85935 121.78147 
L 172.952508 116.587743 
L 173.045666 120.583022 
L 173.231981 172.39166 
L 173.418297 131.093397 
L 173.604612 114.750124 
L 173.69777 127.703466 
L 173.790927 193.383575 
L 173.977243 155.292512 
L 174.0704 230.380839 
L 174.163558 169.976491 
L 174.349873 239.973798 
L 174.536189 211.241123 
L 174.629347 253.06056 
L 174.815662 207.712977 
L 174.90882 227.371987 
L 175.001977 203.706423 
L 175.095135 210.687032 
L 175.188293 210.091793 
L 175.28145 210.439048 
L 175.374608 180.734073 
L 175.467766 182.892898 
L 175.560923 216.026814 
L 175.747239 196.731905 
L 175.933554 131.34501 
L 176.306185 213.676055 
L 176.399343 207.373627 
L 176.585658 166.907507 
L 176.771973 162.101599 
L 176.865131 152.132291 
L 177.051446 177.744466 
L 177.237762 143.823508 
L 177.33092 144.925925 
L 177.424077 216.326442 
L 177.70355 137.361871 
L 177.796708 141.233125 
L 177.983023 199.476574 
L 178.076181 206.164617 
L 178.262496 121.570615 
L 178.448812 179.747257 
L 178.541969 166.884244 
L 178.635127 222.649476 
L 178.728285 178.24944 
L 178.821443 185.161298 
L 178.9146 198.217475 
L 179.100916 229.189584 
L 179.194073 238.032889 
L 179.287231 234.075842 
L 179.380389 183.131486 
L 179.566704 295.488 
L 179.753019 289.698452 
L 180.032493 178.687154 
L 180.218808 267.964141 
L 180.311966 219.872084 
L 180.405123 227.650426 
L 180.684596 203.582204 
L 180.777754 149.064732 
L 180.964069 182.920049 
L 181.150385 146.42737 
L 181.243542 145.569438 
L 181.3367 141.515063 
L 181.523016 180.882979 
L 181.616173 177.199576 
L 181.802489 150.216719 
L 181.895646 193.405217 
L 182.081962 151.718488 
L 182.268277 157.378439 
L 182.454592 139.72034 
L 182.54775 150.781956 
L 182.640908 143.431154 
L 182.734065 210.673359 
L 182.827223 200.732692 
L 182.920381 166.884957 
L 183.013539 177.140998 
L 183.106696 168.935504 
L 183.199854 171.774649 
L 183.479327 219.518738 
L 183.665642 149.791252 
L 183.851958 223.575251 
L 183.945115 232.395618 
L 184.038273 254.94451 
L 184.224588 199.14986 
L 184.410904 294.690461 
L 184.504062 270.120763 
L 184.597219 261.919935 
L 184.876692 196.858262 
L 184.96985 231.169307 
L 185.435638 142.12067 
L 185.621954 211.614298 
L 185.808269 149.881063 
L 185.994585 134.491169 
L 186.1809 187.605301 
L 186.274058 178.154575 
L 186.367215 178.578163 
L 186.460373 142.67528 
L 186.553531 144.777407 
L 186.646688 207.083913 
L 186.833004 168.945548 
L 187.019319 180.304653 
L 187.112477 226.926498 
L 187.298792 148.784414 
L 187.39195 145.268514 
L 187.578265 197.664874 
L 187.671423 200.475053 
L 187.857738 150.235187 
L 187.950896 153.028583 
L 188.044054 160.431289 
L 188.137211 158.319507 
L 188.230369 134.550265 
L 188.416684 168.971338 
L 188.509842 172.731722 
L 188.696158 163.157296 
L 188.882473 223.019669 
L 189.068788 137.64828 
L 189.161946 145.484747 
L 189.348261 195.203245 
L 189.441419 245.421663 
L 189.534577 222.953121 
L 189.720892 161.734257 
L 189.907208 235.822873 
L 190.000365 241.456451 
L 190.093523 236.833016 
L 190.466154 168.169781 
L 190.559311 158.132693 
L 190.652469 193.901573 
L 190.838784 157.940242 
L 190.931942 180.05965 
L 191.0251 111.630467 
L 191.211415 154.550634 
L 191.304573 177.432721 
L 191.584046 144.334833 
L 191.677204 162.162056 
L 191.770361 155.248319 
L 191.956677 117.211493 
L 192.23615 145.884359 
L 192.329307 184.329739 
L 192.422465 169.649389 
L 192.515623 105.671665 
L 192.60878 114.015568 
L 192.701938 122.891467 
L 192.795096 189.800932 
L 192.888254 184.694814 
L 193.074569 171.19386 
L 193.167727 176.215741 
L 193.354042 142.942185 
L 193.540357 211.081525 
L 193.726673 185.661348 
L 193.912988 212.445921 
L 194.099304 182.857324 
L 194.192461 191.135522 
L 194.285619 170.770532 
L 194.378777 200.36347 
L 194.471934 141.993146 
L 194.565092 146.738402 
L 194.65825 153.336376 
L 194.751407 133.28514 
L 194.937723 212.893225 
L 195.03088 202.284226 
L 195.310353 207.456828 
L 195.403511 208.037941 
L 195.496669 216.23378 
L 195.589827 201.962696 
L 195.682984 216.776597 
L 195.776142 209.585393 
L 195.8693 177.207546 
L 195.962457 213.858657 
L 196.148773 197.515708 
L 196.335088 149.064667 
L 196.428246 148.444287 
L 196.521403 129.08458 
L 196.707719 172.224156 
L 196.800876 169.457261 
L 196.894034 162.676815 
L 197.08035 132.571515 
L 197.173507 147.113845 
L 197.266665 146.293107 
L 197.45298 117.208448 
L 197.546138 145.900882 
L 197.732453 108.75996 
L 197.825611 153.204965 
L 197.918769 150.263115 
L 198.011926 110.401564 
L 198.105084 179.132708 
L 198.198242 152.200589 
L 198.2914 154.990746 
L 198.384557 187.465531 
L 198.477715 136.520592 
L 198.570873 167.262537 
L 198.757188 142.15741 
L 199.222976 211.346615 
L 199.316134 202.746369 
L 199.409292 164.777257 
L 199.502449 233.54093 
L 199.688765 191.97343 
L 199.87508 252.700734 
L 200.154553 179.903292 
L 200.340869 227.887524 
L 200.527184 145.573002 
L 200.713499 218.535032 
L 200.899815 153.278317 
L 201.08613 244.978572 
L 201.272446 194.070309 
L 201.365603 187.053089 
L 201.458761 156.999563 
L 201.551919 158.928159 
L 201.738234 189.944396 
L 201.924549 141.523163 
L 202.017707 140.573866 
L 202.110865 142.999855 
L 202.204022 164.066224 
L 202.29718 152.567802 
L 202.390338 121.647596 
L 202.483496 127.069024 
L 202.576653 122.721695 
L 202.669811 140.69303 
L 202.762969 122.10287 
L 202.856126 124.048379 
L 202.949284 165.508637 
L 203.042442 123.437718 
L 203.228757 165.122244 
L 203.321915 195.145315 
L 203.415072 192.99446 
L 203.50823 153.501353 
L 203.601388 155.008371 
L 203.880861 178.152243 
L 203.974019 167.048184 
L 204.067176 218.292427 
L 204.253492 174.418167 
L 204.346649 196.240539 
L 204.439807 146.818234 
L 204.626122 259.718148 
L 204.812438 233.261843 
L 204.998753 179.419377 
L 205.091911 195.366861 
L 205.185068 173.054159 
L 205.278226 204.653258 
L 205.371384 196.027481 
L 205.464542 169.660275 
L 205.557699 203.411007 
L 205.650857 202.836568 
L 205.837172 167.688717 
L 205.93033 204.653841 
L 206.209803 155.162202 
L 206.396118 194.39307 
L 206.489276 199.36214 
L 206.582434 192.928495 
L 206.675591 145.204882 
L 206.768749 151.09746 
L 206.861907 165.978491 
L 207.048222 155.743963 
L 207.14138 165.522051 
L 207.234538 140.621752 
L 207.420853 195.179075 
L 207.607168 132.715691 
L 207.793484 190.536654 
L 207.979799 123.017241 
L 208.166115 115.16924 
L 208.259272 124.749757 
L 208.445588 200.468703 
L 208.538745 201.13049 
L 208.631903 194.619346 
L 208.725061 210.221779 
L 208.818218 206.451415 
L 208.911376 166.870831 
L 209.190849 272.209736 
L 209.377164 219.615482 
L 209.470322 221.8347 
L 209.56348 213.418157 
L 209.656638 218.540864 
L 209.936111 168.41096 
L 210.029268 209.478735 
L 210.122426 188.223155 
L 210.215584 188.700266 
L 210.308741 202.780323 
L 210.401899 190.243765 
L 210.495057 194.850482 
L 210.588214 227.079293 
L 210.681372 221.712036 
L 210.77453 151.170876 
L 210.867687 188.954341 
L 211.054003 147.418851 
L 211.147161 145.712643 
L 211.240318 138.151634 
L 211.333476 172.236402 
L 211.426634 132.649143 
L 211.519791 137.490884 
L 211.612949 135.012538 
L 211.706107 119.982405 
L 211.799264 136.965628 
L 211.892422 123.108542 
L 212.078737 171.231573 
L 212.171895 157.895661 
L 212.358211 195.147453 
L 212.544526 157.880303 
L 212.637684 189.01402 
L 212.730841 154.211609 
L 212.823999 164.81484 
L 212.917157 191.994425 
L 213.010314 159.647293 
L 213.103472 162.925123 
L 213.19663 200.431703 
L 213.289787 193.2821 
L 213.476103 172.025159 
L 213.56926 231.807053 
L 213.662418 229.194574 
L 213.848734 233.691263 
L 214.035049 201.150189 
L 214.128207 192.028056 
L 214.314522 200.270938 
L 214.500837 227.06724 
L 214.593995 225.296169 
L 214.687153 196.090465 
L 214.78031 213.010704 
L 215.059783 175.600674 
L 215.432414 238.324936 
L 215.61873 189.93027 
L 215.711887 194.729374 
L 215.99136 143.554336 
L 216.177676 197.66118 
L 216.270833 199.17876 
L 216.457149 227.655286 
L 216.550307 227.089531 
L 216.643464 237.619216 
L 216.736622 232.350777 
L 217.016095 156.28179 
L 217.109253 165.712688 
L 217.20241 200.817189 
L 217.295568 200.614046 
L 217.388726 201.709788 
L 217.481883 193.913885 
L 217.575041 199.787736 
L 217.668199 183.801891 
L 217.854514 201.933667 
L 217.947672 160.923434 
L 218.04083 168.504659 
L 218.227145 117.940022 
L 218.41346 178.655403 
L 218.506618 142.48069 
L 218.692933 160.265081 
L 218.786091 131.495731 
L 218.972406 196.652657 
L 219.065564 187.152101 
L 219.251879 171.070289 
L 219.345037 186.117075 
L 219.62451 141.241355 
L 219.810826 189.329329 
L 219.903983 150.99456 
L 220.090299 223.662405 
L 220.276614 189.505127 
L 220.369772 222.379331 
L 220.462929 216.626912 
L 220.556087 209.68434 
L 220.742403 248.795136 
L 220.83556 213.585726 
L 220.928718 221.132803 
L 221.021876 215.119182 
L 221.115033 232.874478 
L 221.301349 213.850492 
L 221.580822 268.046759 
L 221.673979 254.808239 
L 221.767137 263.316147 
L 221.953452 243.268087 
L 222.04661 252.934915 
L 222.232926 175.128487 
L 222.419241 189.060869 
L 222.512399 233.906459 
L 222.698714 160.325862 
L 222.791872 190.879956 
L 222.978187 94.713792 
L 223.071345 98.665267 
L 223.25766 189.770542 
L 223.350818 185.139785 
L 223.443975 186.348276 
L 223.537133 184.357538 
L 223.630291 215.800213 
L 223.909764 175.512353 
L 224.002922 162.193678 
L 224.096079 193.430424 
L 224.189237 142.929225 
L 224.282395 156.377627 
L 224.375552 208.196762 
L 224.46871 176.393936 
L 224.561868 202.604396 
L 224.655025 201.062581 
L 224.748183 160.944363 
L 224.841341 176.704321 
L 225.027656 171.632546 
L 225.120814 149.093308 
L 225.307129 199.053505 
L 225.400287 160.459023 
L 225.586602 194.654402 
L 225.772918 116.785767 
L 225.866075 126.156014 
L 225.959233 117.720356 
L 226.052391 128.390653 
L 226.238706 174.344102 
L 226.425022 121.018144 
L 226.518179 148.959694 
L 226.611337 120.492823 
L 226.704495 126.52841 
L 226.797652 173.737783 
L 226.89081 167.725587 
L 227.077125 141.038276 
L 227.170283 176.566948 
L 227.356598 110.456642 
L 227.542914 190.482742 
L 227.636071 175.670721 
L 227.729229 184.579861 
L 227.822387 160.535096 
L 227.915545 167.770233 
L 228.10186 199.961979 
L 228.195018 174.662198 
L 228.288175 177.738569 
L 228.381333 203.251538 
L 228.474491 183.908549 
L 228.660806 240.504043 
L 228.753964 207.378098 
L 229.033437 259.805496 
L 229.31291 187.106742 
L 229.406068 190.256919 
L 229.592383 257.694427 
L 229.778698 204.23803 
L 229.871856 201.044308 
L 229.965014 192.566725 
L 230.058171 200.975103 
L 230.244487 264.715211 
L 230.52396 187.542058 
L 230.617118 192.174241 
L 230.710275 203.490774 
L 230.803433 180.627155 
L 230.896591 201.077549 
L 230.989748 193.86587 
L 231.082906 203.383467 
L 231.176064 162.250117 
L 231.362379 243.921644 
L 231.455537 229.160943 
L 231.641852 171.977533 
L 231.73501 209.976905 
L 231.921325 145.936262 
L 232.200798 196.173084 
L 232.480271 102.24266 
L 232.573429 108.807068 
L 232.759744 167.169811 
L 232.852902 160.016709 
L 233.039217 140.100318 
L 233.132375 178.035929 
L 233.31869 106.999904 
L 233.505006 214.330325 
L 233.598164 190.855139 
L 233.691321 201.711473 
L 233.877637 165.943241 
L 233.970794 164.207744 
L 234.063952 153.95883 
L 234.250267 211.752707 
L 234.343425 200.32498 
L 234.52974 229.669093 
L 234.902371 251.554319 
L 234.995529 239.940491 
L 235.088687 257.779443 
L 235.461317 164.055402 
L 235.554475 175.072437 
L 235.647633 213.313572 
L 235.74079 203.796558 
L 235.927106 232.686433 
L 236.020263 225.481363 
L 236.392894 166.587467 
L 236.486052 191.058671 
L 236.57921 178.93274 
L 236.672367 187.95936 
L 236.765525 176.845776 
L 236.858683 179.759893 
L 236.95184 160.06453 
L 237.044998 180.339968 
L 237.138156 171.023699 
L 237.231313 137.328759 
L 237.417629 160.909307 
L 237.697102 125.79865 
L 237.883417 197.046826 
L 237.976575 151.087675 
L 238.16289 194.380564 
L 238.256048 175.012498 
L 238.349206 190.645127 
L 238.442363 188.746597 
L 238.535521 178.336206 
L 238.628679 179.702352 
L 238.814994 199.115063 
L 238.908152 172.68889 
L 239.00131 215.767879 
L 239.094467 197.993402 
L 239.280783 253.717098 
L 239.37394 204.693952 
L 239.653413 225.388701 
L 239.746571 231.687954 
L 240.026044 282.303392 
L 240.212359 216.407893 
L 240.305517 246.857468 
L 240.398675 215.205299 
L 240.491833 226.964535 
L 240.58499 255.594503 
L 240.678148 217.762311 
L 240.771306 220.49538 
L 240.864463 217.249755 
L 240.957621 191.078823 
L 241.143936 208.398415 
L 241.237094 203.363315 
L 241.423409 159.039353 
L 241.516567 189.643278 
L 241.609725 153.025214 
L 241.702882 175.773362 
L 241.889198 118.091975 
L 242.075513 157.760815 
L 242.261829 175.483129 
L 242.354986 170.867859 
L 242.448144 146.767691 
L 242.541302 152.481166 
L 242.634459 167.546808 
L 242.727617 213.481012 
L 242.913932 161.909925 
L 243.100248 202.266731 
L 243.193406 196.575806 
L 243.286563 162.165814 
L 243.472879 211.673588 
L 243.659194 150.067812 
L 243.752352 163.631426 
L 243.845509 156.577077 
L 243.938667 162.595234 
L 244.031825 195.292408 
L 244.124982 189.082577 
L 244.21814 216.494594 
L 244.311298 180.409821 
L 244.590771 241.729771 
L 244.683929 233.917798 
L 244.777086 221.029449 
L 244.963402 289.065695 
L 245.056559 275.923595 
L 245.149717 228.38239 
L 245.336032 260.840911 
L 245.522348 231.811006 
L 245.615505 235.606576 
L 245.708663 188.115589 
L 245.801821 203.717633 
L 245.894978 191.433918 
L 245.988136 143.785796 
L 246.081294 149.672477 
L 246.174452 192.369738 
L 246.360767 163.784156 
L 246.453925 193.541942 
L 246.547082 179.740712 
L 246.64024 192.543333 
L 246.733398 160.638774 
L 246.826555 178.880837 
L 247.106028 98.111564 
L 247.385501 162.051834 
L 247.478659 170.20212 
L 247.571817 141.404517 
L 247.758132 172.257916 
L 247.944448 130.314973 
L 248.130763 194.886251 
L 248.223921 170.211321 
L 248.410236 220.025203 
L 248.503394 209.563362 
L 248.596551 201.077161 
L 248.782867 260.237184 
L 248.969182 180.047922 
L 249.155498 219.563254 
L 249.341813 213.141144 
L 249.434971 200.355306 
L 249.621286 237.922991 
L 249.993917 159.755052 
L 250.087074 203.835242 
L 250.180232 152.704138 
L 250.27339 162.024554 
L 250.366548 172.953916 
L 250.459705 167.827969 
L 250.739178 127.58145 
L 250.832336 123.422555 
L 250.925494 142.878488 
L 251.018651 70.879816 
L 251.111809 96.172146 
L 251.204967 172.58923 
L 251.298124 166.124417 
L 251.391282 162.982275 
L 251.577597 110.84634 
L 251.670755 118.376051 
L 251.763913 117.696186 
L 251.857071 118.949712 
L 252.043386 166.065256 
L 252.229701 232.249627 
L 252.416017 138.635225 
L 252.509174 138.735857 
L 252.788647 269.796577 
L 252.881805 257.895367 
L 252.974963 192.502899 
L 253.068121 217.776242 
L 253.161278 214.112537 
L 253.347594 173.148959 
L 253.533909 225.877022 
L 253.627067 200.558773 
L 253.813382 220.216293 
L 253.90654 209.737929 
L 254.092855 131.173488 
L 254.186013 142.707225 
L 254.372328 180.263636 
L 254.465486 169.730452 
L 254.558644 131.374104 
L 254.744959 159.2204 
L 255.024432 53.568 
L 255.303905 174.669066 
L 255.397063 150.388759 
L 255.583378 181.65447 
L 255.769693 207.574049 
L 256.049167 165.925162 
L 256.142324 168.358344 
L 256.235482 193.985358 
L 256.32864 182.62703 
L 256.514955 247.506813 
L 256.608113 234.76128 
L 256.70127 175.529849 
L 256.794428 182.808012 
L 256.980743 162.899203 
L 257.167059 234.351624 
L 257.353374 195.461402 
L 257.446532 237.105364 
L 257.632847 195.80276 
L 257.819163 235.158754 
L 258.005478 131.117308 
L 258.284951 214.667147 
L 258.378109 216.741605 
L 258.471266 249.236608 
L 258.564424 234.866383 
L 258.75074 141.095299 
L 258.937055 217.813113 
L 259.030213 189.979517 
L 259.12337 219.1755 
L 259.216528 170.45289 
L 259.402843 191.424004 
L 259.496001 180.001008 
L 259.589159 183.44848 
L 259.682316 205.890131 
L 259.775474 201.433034 
L 259.961789 151.449639 
L 260.054947 177.802979 
L 260.427578 140.46468 
L 260.613893 181.784456 
L 260.800209 169.57014 
L 260.893366 183.119628 
L 260.986524 169.362461 
L 261.079682 174.94608 
L 261.265997 135.112068 
L 261.54547 199.430826 
L 261.638628 219.365425 
L 261.731786 206.628769 
L 261.918101 154.131907 
L 262.104416 165.601623 
L 262.197574 145.340116 
L 262.383889 214.597878 
L 262.570205 194.686283 
L 262.663362 213.784074 
L 262.75652 213.2178 
L 262.849678 193.32247 
L 263.035993 247.565002 
L 263.222309 193.501378 
L 263.315466 205.963224 
L 263.408624 201.601121 
L 263.501782 219.772294 
L 263.688097 173.641816 
L 263.781255 222.519425 
L 264.060728 186.095951 
L 264.153885 198.856323 
L 264.247043 230.51063 
L 264.340201 173.501981 
L 264.433359 193.949848 
L 264.619674 268.885705 
L 264.805989 194.185067 
L 264.899147 215.31565 
L 265.085462 162.268131 
L 265.17862 161.262394 
L 265.271778 152.625991 
L 265.364935 102.149285 
L 265.551251 130.976112 
L 265.644409 185.467017 
L 265.830724 153.630626 
L 265.923882 189.378706 
L 266.110197 156.891673 
L 266.296512 229.395578 
L 266.38967 213.535637 
L 266.482828 168.572309 
L 266.575985 176.574206 
L 266.669143 184.502233 
L 266.762301 180.133715 
L 266.948616 227.433222 
L 267.134932 173.988618 
L 267.228089 176.319353 
L 267.507562 161.925023 
L 267.693878 174.014667 
L 267.787035 156.468539 
L 267.880193 169.191717 
L 267.973351 199.648938 
L 268.066508 181.214229 
L 268.159666 183.180733 
L 268.345981 204.825168 
L 268.439139 194.748554 
L 268.532297 166.334818 
L 268.718612 189.662523 
L 268.904928 137.501447 
L 269.091243 145.533475 
L 269.184401 94.674783 
L 269.370716 143.125564 
L 269.463874 130.356509 
L 269.557031 113.819164 
L 269.650189 118.552692 
L 269.743347 160.57877 
L 269.836504 127.382325 
L 270.02282 168.809601 
L 270.115978 131.343843 
L 270.302293 175.155767 
L 270.395451 154.319887 
L 270.581766 198.869736 
L 270.674924 184.62684 
L 270.861239 242.598459 
L 270.954397 237.66451 
L 271.047554 186.175847 
L 271.140712 197.238305 
L 271.23387 169.05402 
L 271.327028 192.584091 
L 271.513343 160.883194 
L 271.606501 207.945862 
L 271.699658 201.513513 
L 271.885974 168.897208 
L 272.072289 215.698933 
L 272.165447 157.541796 
L 272.258604 159.951975 
L 272.724393 216.704087 
L 273.003866 140.364437 
L 273.097024 124.122444 
L 273.283339 141.109619 
L 273.469654 200.994996 
L 273.562812 208.858743 
L 273.749127 185.669318 
L 273.842285 192.485986 
L 273.935443 218.751848 
L 274.121758 178.440207 
L 274.214916 219.676069 
L 274.308074 212.987118 
L 274.587547 158.287043 
L 274.680704 168.865392 
L 274.86702 250.76637 
L 274.960177 236.357201 
L 275.053335 236.594688 
L 275.146493 234.550879 
L 275.23965 239.410699 
L 275.519124 179.147936 
L 275.705439 228.335022 
L 275.891754 184.736609 
L 275.984912 197.102682 
L 276.07807 178.308925 
L 276.357543 215.781292 
L 276.4507 216.656266 
L 276.543858 160.687697 
L 276.823331 198.631278 
L 276.916489 187.248262 
L 277.009647 188.201253 
L 277.102804 196.684214 
L 277.195962 229.577014 
L 277.382277 156.583362 
L 277.475435 161.834565 
L 277.66175 201.910728 
L 277.848066 142.209897 
L 277.941223 151.876402 
L 278.034381 145.659119 
L 278.127539 160.325085 
L 278.220696 197.364014 
L 278.407012 153.633995 
L 278.50017 161.637707 
L 278.593327 161.628441 
L 278.779643 200.896308 
L 278.965958 190.46395 
L 279.059116 172.480433 
L 279.152273 207.154349 
L 279.245431 194.736437 
L 279.338589 153.622721 
L 279.431746 168.844073 
L 279.524904 162.063109 
L 279.71122 133.004239 
L 279.990693 212.414947 
L 280.177008 136.749784 
L 280.456481 216.533926 
L 280.549639 203.168725 
L 280.642796 226.914121 
L 280.735954 198.560777 
L 280.922269 229.907746 
L 281.015427 176.951657 
L 281.108585 194.8256 
L 281.201743 182.260595 
L 281.2949 190.644803 
L 281.388058 180.814358 
L 281.481216 186.711925 
L 281.667531 140.403964 
L 281.760689 156.557961 
L 281.853846 150.078309 
L 282.040162 187.550612 
L 282.226477 106.247658 
L 282.319635 143.805041 
L 282.412792 138.306632 
L 282.599108 188.869455 
L 282.692266 172.816997 
L 282.785423 131.631548 
L 282.971739 185.439478 
L 283.064896 172.298868 
L 283.158054 198.294909 
L 283.344369 172.962664 
L 283.530685 219.90241 
L 283.623842 196.670217 
L 283.717 198.590001 
L 283.810158 195.256639 
L 284.089631 224.090917 
L 284.369104 165.903519 
L 284.462262 159.932082 
L 284.555419 204.546081 
L 284.648577 171.093682 
L 284.834892 209.078151 
L 284.92805 164.328204 
L 285.114365 208.434054 
L 285.300681 179.252715 
L 285.580154 237.692827 
L 285.673312 236.509931 
L 285.766469 198.377268 
L 285.952785 232.382075 
L 286.045942 213.793405 
L 286.232258 257.277449 
L 286.325415 258.917693 
L 286.418573 245.10927 
L 286.604888 179.254011 
L 286.791204 203.704868 
L 286.977519 237.021774 
L 287.256992 198.439086 
L 287.35015 213.238212 
L 287.536465 158.152975 
L 287.722781 231.887274 
L 287.815938 214.607663 
L 288.002254 124.584845 
L 288.188569 172.827559 
L 288.374885 140.949113 
L 288.468042 211.040313 
L 288.654358 144.187287 
L 288.747515 174.261614 
L 288.840673 172.431705 
L 289.026988 194.321144 
L 289.213304 146.03333 
L 289.306461 144.812398 
L 289.399619 165.784614 
L 289.492777 221.264797 
L 289.585935 220.433433 
L 289.679092 217.590465 
L 289.865408 171.389227 
L 289.958565 196.978917 
L 290.144881 164.236644 
L 290.238038 142.572445 
L 290.331196 182.200656 
L 290.424354 181.692895 
L 290.517511 177.535167 
L 290.703827 141.59321 
L 290.890142 193.545182 
L 291.076458 122.639855 
L 291.262773 186.143707 
L 291.355931 144.791209 
L 291.449088 145.739534 
L 291.635404 100.920123 
L 291.728561 124.074622 
L 291.821719 105.452776 
L 291.914877 107.825631 
L 292.101192 99.123651 
L 292.19435 140.49533 
L 292.287507 113.260472 
L 292.566981 182.09983 
L 292.753296 124.980634 
L 292.846454 128.215438 
L 292.939611 137.563588 
L 293.032769 181.090205 
L 293.125927 175.725216 
L 293.219084 149.433046 
L 293.4054 234.44947 
L 293.498557 225.09309 
L 293.591715 220.261782 
L 293.778031 191.856599 
L 293.871188 215.004747 
L 293.964346 191.254621 
L 294.057504 228.133758 
L 294.150661 208.863538 
L 294.336977 221.615681 
L 294.61645 188.852542 
L 294.709607 223.126781 
L 294.895923 198.629982 
L 294.98908 212.586534 
L 295.175396 164.675653 
L 295.361711 202.853157 
L 295.454869 174.404105 
L 295.548027 189.815123 
L 295.8275 129.571605 
L 295.920657 155.485352 
L 296.013815 146.04616 
L 296.20013 93.977422 
L 296.293288 129.93169 
L 296.386446 119.761637 
L 296.479603 129.839482 
L 296.665919 182.648025 
L 296.759077 175.758717 
L 296.852234 195.807167 
L 297.03855 160.841982 
L 297.131707 188.158939 
L 297.224865 171.018839 
L 297.318023 114.703598 
L 297.504338 153.746615 
L 297.597496 148.017978 
L 297.690653 120.884464 
L 297.783811 152.409369 
L 297.876969 142.098703 
L 298.063284 199.949279 
L 298.156442 137.772369 
L 298.435915 170.017379 
L 298.529073 221.789406 
L 298.62223 188.818588 
L 298.808546 210.102031 
L 299.088019 120.993391 
L 299.181176 164.833502 
L 299.274334 162.451057 
L 299.553807 217.77689 
L 299.646965 214.072686 
L 299.740123 160.015866 
L 300.112753 225.344962 
L 300.205911 202.537588 
L 300.299069 203.551749 
L 300.392226 195.031659 
L 300.485384 167.878317 
L 300.578542 185.175813 
L 300.671699 231.177925 
L 300.764857 212.092769 
L 300.858015 219.292073 
L 300.951173 240.146291 
L 301.137488 157.368655 
L 301.323803 164.925062 
L 301.510119 136.742073 
L 301.603276 114.993118 
L 301.789592 137.143565 
L 301.882749 106.068815 
L 301.975907 139.549078 
L 302.069065 124.394143 
L 302.25538 185.664134 
L 302.348538 154.38825 
L 302.534853 206.597147 
L 302.721169 187.610809 
L 302.814326 177.48754 
L 302.907484 153.118524 
L 303.093799 184.988092 
L 303.186957 147.214736 
L 303.373272 209.257189 
L 303.46643 145.46926 
L 303.652746 190.400513 
L 303.745903 192.443155 
L 304.025376 221.491916 
L 304.118534 176.149063 
L 304.304849 252.687256 
L 304.398007 222.280383 
L 304.491165 226.577947 
L 304.67748 195.024012 
L 304.770638 293.878277 
L 304.863795 291.610525 
L 304.956953 197.694357 
L 305.050111 214.066531 
L 305.143269 240.745871 
L 305.236426 240.253144 
L 305.329584 196.736636 
L 305.422742 202.72045 
L 305.515899 179.74622 
L 305.609057 213.94607 
L 305.795372 175.086109 
L 305.88853 191.074741 
L 306.074845 170.013167 
L 306.168003 119.51618 
L 306.540634 165.029453 
L 306.633792 204.553209 
L 306.726949 203.754309 
L 306.820107 153.903492 
L 307.006422 180.467686 
L 307.09958 179.060523 
L 307.192738 171.651467 
L 307.285895 148.412665 
L 307.472211 171.480982 
L 307.565368 165.398156 
L 307.751684 195.82045 
L 307.844842 154.236492 
L 307.937999 161.802943 
L 308.217472 226.115092 
L 308.31063 228.935898 
L 308.590103 166.334623 
L 308.683261 173.01217 
L 308.776418 215.211455 
L 308.869576 213.092998 
L 309.055891 147.686209 
L 309.149049 141.482988 
L 309.242207 122.232856 
L 309.335365 154.181478 
L 309.428522 153.349077 
L 309.52168 146.918607 
L 309.614838 129.773323 
L 309.801153 87.86913 
L 309.987468 163.698557 
L 310.360099 59.451765 
L 310.546415 159.285588 
L 310.73273 129.784274 
L 310.919045 115.618488 
L 311.105361 158.694302 
L 311.198518 161.198373 
L 311.291676 160.485007 
L 311.384834 152.109482 
L 311.477991 130.237863 
L 311.571149 136.20632 
L 311.664307 151.011731 
L 311.757464 145.283742 
L 311.850622 159.776371 
L 312.036938 206.235766 
L 312.130095 167.916095 
L 312.316411 217.105773 
L 312.502726 181.023527 
L 312.595884 162.498166 
L 312.782199 205.924345 
L 312.968514 147.685562 
L 313.061672 152.634414 
L 313.341145 190.735002 
L 313.434303 200.160392 
L 313.527461 187.493135 
L 313.620618 195.807879 
L 313.806934 152.421422 
L 313.900091 147.625947 
L 313.993249 171.255419 
L 314.086407 169.16826 
L 314.179564 136.842511 
L 314.36588 233.389172 
L 314.459037 226.365667 
L 314.552195 232.125214 
L 314.73851 196.749855 
L 314.924826 271.400144 
L 315.204299 199.199496 
L 315.390614 228.729191 
L 315.57693 187.417775 
L 315.94956 251.825177 
L 316.135876 198.743379 
L 316.229034 238.138252 
L 316.322191 201.047872 
L 316.508507 223.09652 
L 316.974295 128.546818 
L 317.067453 147.10581 
L 317.253768 219.314623 
L 317.440083 167.236812 
L 317.626399 214.343414 
L 317.812714 119.647851 
L 317.99903 152.389541 
L 318.092187 148.587426 
L 318.185345 129.160329 
L 318.37166 216.239417 
L 318.464818 178.477077 
L 318.557976 180.429325 
L 318.651133 201.208831 
L 318.837449 146.607963 
L 318.930606 187.362826 
L 319.116922 126.980704 
L 319.303237 165.235058 
L 319.396395 160.339599 
L 319.58271 234.662721 
L 319.675868 236.281257 
L 319.862183 206.551011 
L 320.048499 149.640337 
L 320.141656 203.139242 
L 320.234814 192.951498 
L 320.327972 191.428605 
L 320.42113 185.97886 
L 320.607445 218.629897 
L 320.79376 136.159211 
L 320.886918 151.014129 
L 320.980076 213.449325 
L 321.259549 151.45735 
L 321.445864 208.564882 
L 321.539022 219.672893 
L 321.632179 188.123819 
L 321.725337 216.881894 
L 321.818495 204.159105 
L 321.911653 159.846742 
L 322.00481 169.699024 
L 322.284283 244.268704 
L 322.377441 215.15022 
L 322.470599 218.485073 
L 322.656914 162.479115 
L 322.750072 178.047982 
L 322.936387 151.012962 
L 323.029545 200.681307 
L 323.21586 146.487892 
L 323.402176 108.615718 
L 323.495333 127.995512 
L 323.588491 118.125346 
L 323.681649 192.252906 
L 323.774806 177.461232 
L 323.867964 109.748071 
L 323.961122 135.902221 
L 324.054279 118.548415 
L 324.240595 156.003546 
L 324.333752 134.272086 
L 324.520068 163.200711 
L 324.613226 169.236817 
L 324.706383 150.91395 
L 324.892699 187.955213 
L 324.985856 176.467936 
L 325.172172 210.000622 
L 325.265329 212.431601 
L 325.358487 237.780046 
L 325.451645 233.1905 
L 325.544802 187.331463 
L 325.63796 191.377544 
L 325.731118 225.915901 
L 326.010591 140.106798 
L 326.103749 160.343876 
L 326.290064 239.516126 
L 326.383222 242.693195 
L 326.755852 163.215161 
L 326.84901 234.003656 
L 326.942168 233.185187 
L 327.035325 248.831423 
L 327.501114 160.792994 
L 327.594272 198.629399 
L 327.687429 193.133323 
L 327.780587 150.946738 
L 327.873745 223.345994 
L 327.966902 207.126615 
L 328.06006 167.60895 
L 328.153218 200.972706 
L 328.246375 176.766009 
L 328.339533 179.175151 
L 328.432691 162.705132 
L 328.525848 162.930695 
L 328.619006 189.793999 
L 328.805322 91.796824 
L 328.991637 163.621836 
L 329.084795 143.468931 
L 329.27111 191.604857 
L 329.364268 210.174929 
L 329.457425 204.980426 
L 329.643741 165.634346 
L 329.736898 205.328328 
L 329.830056 182.918105 
L 329.923214 123.581182 
L 330.016371 148.87876 
L 330.202687 217.472143 
L 330.295845 182.301223 
L 330.389002 193.421028 
L 330.48216 136.338185 
L 330.668475 220.495121 
L 330.761633 143.403485 
L 330.854791 158.002578 
L 331.041106 213.75012 
L 331.134264 189.89975 
L 331.227421 194.960769 
L 331.413737 168.929283 
L 331.600052 201.761173 
L 331.69321 211.897596 
L 331.786368 191.60868 
L 331.972683 238.469825 
L 332.065841 189.150097 
L 332.158998 192.585776 
L 332.252156 220.390342 
L 332.345314 190.683811 
L 332.624787 241.720051 
L 332.997418 195.791745 
L 333.183733 219.53429 
L 333.370048 164.572818 
L 333.463206 169.977334 
L 333.556364 167.598453 
L 333.835837 226.051784 
L 334.022152 169.222172 
L 334.11531 197.980831 
L 334.208467 193.761998 
L 334.301625 192.611955 
L 334.394783 209.86597 
L 334.581098 198.83157 
L 334.674256 128.588937 
L 334.767414 132.775306 
L 335.046887 220.78153 
L 335.233202 142.391527 
L 335.32636 142.0017 
L 335.419517 122.883497 
L 335.605833 160.871271 
L 335.792148 112.878161 
L 336.071621 202.399438 
L 336.164779 202.273923 
L 336.351094 227.667533 
L 336.53741 156.656001 
L 336.630567 210.083564 
L 336.816883 158.588486 
L 337.003198 203.671108 
L 337.096356 201.211099 
L 337.375829 135.782927 
L 337.468987 135.58244 
L 337.562144 176.675551 
L 337.74846 135.544468 
L 337.934775 211.717327 
L 338.12109 159.14653 
L 338.307406 189.240231 
L 338.400563 186.358385 
L 338.493721 228.680009 
L 338.586879 217.539793 
L 338.773194 243.792565 
L 338.866352 191.13617 
L 338.95951 197.990292 
L 339.052667 222.430392 
L 339.145825 207.921433 
L 339.33214 247.559559 
L 339.425298 247.102212 
L 339.518456 250.928625 
L 339.611613 245.614957 
L 339.704771 256.505635 
L 340.077402 180.829197 
L 340.17056 178.215421 
L 340.356875 111.57312 
L 340.54319 175.726707 
L 340.636348 182.880133 
L 340.822663 221.006446 
L 340.915821 164.587527 
L 341.008979 186.006205 
L 341.102136 167.209662 
L 341.288452 194.442446 
L 341.474767 159.427302 
L 341.661083 175.5408 
L 341.75424 202.535126 
L 341.847398 202.340471 
L 342.126871 144.090025 
L 342.220029 152.644134 
L 342.313186 188.483191 
L 342.499502 161.933966 
L 342.592659 178.837227 
L 342.778975 154.659301 
L 342.96529 198.235489 
L 343.151606 165.782541 
L 343.244763 144.179706 
L 343.431079 190.162702 
L 343.524236 243.691933 
L 343.990025 139.218476 
L 344.269498 197.370235 
L 344.362656 206.524638 
L 344.548971 135.732578 
L 344.642129 155.07142 
L 344.921602 120.61095 
L 345.014759 125.477185 
L 345.201075 78.225175 
L 345.294232 151.539904 
L 345.38739 141.269607 
L 345.573705 100.711602 
L 345.666863 88.979452 
L 345.760021 105.668101 
L 345.853179 90.608939 
L 345.946336 108.496035 
L 346.132652 171.868153 
L 346.318967 134.116634 
L 346.505282 210.676081 
L 346.59844 171.439576 
L 346.691598 177.002005 
L 346.971071 216.654451 
L 347.064229 221.038391 
L 347.157386 239.97937 
L 347.343702 205.605407 
L 347.530017 214.978115 
L 347.623175 162.698458 
L 347.902648 212.678288 
L 347.995805 216.862843 
L 348.088963 183.659464 
L 348.182121 184.231894 
L 348.275278 185.964799 
L 348.368436 184.753716 
L 348.461594 170.231668 
L 348.647909 198.840253 
L 348.741067 234.544335 
L 348.834225 231.559005 
L 348.927382 184.872945 
L 349.02054 198.510364 
L 349.206855 146.319999 
L 349.300013 140.88263 
L 349.393171 122.509091 
L 349.486328 127.828851 
L 349.672644 149.841147 
L 349.765801 141.755984 
L 349.858959 182.352609 
L 350.045275 136.644357 
L 350.138432 157.443627 
L 350.23159 151.201396 
L 350.324748 165.364202 
L 350.417905 155.210801 
L 350.511063 129.970699 
L 350.604221 145.688797 
L 350.790536 125.685836 
L 350.883694 154.099961 
L 350.976851 143.85824 
L 351.070009 178.03904 
L 351.256325 140.623112 
L 351.44264 187.810518 
L 351.535798 136.64196 
L 351.628955 149.62971 
L 351.722113 184.253407 
L 351.815271 175.628343 
L 351.908428 132.815222 
L 352.094744 169.767192 
L 352.281059 122.405414 
L 352.374217 138.604122 
L 352.467374 186.394931 
L 352.560532 178.547837 
L 352.65369 173.464787 
L 352.840005 128.627233 
L 353.026321 183.434419 
L 353.119478 148.544206 
L 353.305794 182.594955 
L 353.398951 187.056588 
L 353.492109 183.681495 
L 353.585267 156.157442 
L 353.678424 185.861575 
L 353.771582 183.868309 
L 353.957897 171.330455 
L 354.051055 177.408227 
L 354.144213 169.749567 
L 354.237371 174.744297 
L 354.330528 198.279487 
L 354.516844 151.671898 
L 354.703159 207.420217 
L 354.796317 215.03624 
L 354.982632 181.138415 
L 355.07579 217.040326 
L 355.262105 170.944386 
L 355.355263 124.834125 
L 355.541578 178.472995 
L 355.634736 145.742191 
L 355.821051 177.684203 
L 355.914209 146.746113 
L 356.28684 240.934046 
L 356.473155 192.267745 
L 356.566313 229.974942 
L 356.752628 192.017688 
L 356.938944 194.538931 
L 357.125259 235.616684 
L 357.311574 176.183536 
L 357.49789 238.076564 
L 357.591047 209.172044 
L 357.684205 256.353682 
L 357.777363 255.82227 
L 358.056836 175.19821 
L 358.429467 261.176502 
L 358.522624 204.313649 
L 358.615782 250.701572 
L 358.802097 157.569595 
L 358.895255 216.798628 
L 358.988413 214.089728 
L 359.08157 212.017409 
L 359.174728 199.49543 
L 359.361043 151.117871 
L 359.454201 167.784489 
L 359.547359 159.942968 
L 359.640516 170.638537 
L 359.733674 154.565992 
L 360.013147 194.723088 
L 360.199463 175.122007 
L 360.29262 198.961361 
L 360.385778 165.226894 
L 360.478936 191.198894 
L 360.572093 157.743579 
L 360.665251 169.089206 
L 360.758409 211.942567 
L 361.037882 160.899717 
L 361.13104 154.093093 
L 361.317355 225.897045 
L 361.783143 117.950196 
L 361.969459 180.126846 
L 362.155774 155.066689 
L 362.248932 167.066846 
L 362.342089 198.609117 
L 362.528405 151.985911 
L 362.71472 216.099841 
L 362.994193 133.247363 
L 363.087351 124.205839 
L 363.180509 134.516894 
L 363.366824 92.930538 
L 363.553139 212.579989 
L 363.739455 143.688339 
L 363.832612 169.500611 
L 363.92577 144.846158 
L 364.018928 180.95348 
L 364.205243 142.631411 
L 364.298401 174.536683 
L 364.391559 144.50953 
L 364.577874 183.67359 
L 364.671032 141.350799 
L 365.043662 211.191358 
L 365.229978 246.144685 
L 365.509451 197.819418 
L 365.602609 191.119905 
L 365.695766 226.088524 
L 365.788924 221.847724 
L 365.882082 175.837642 
L 365.975239 179.525452 
L 366.068397 181.641316 
L 366.161555 133.954638 
L 366.34787 194.553705 
L 366.441028 165.613028 
L 366.534185 166.659069 
L 366.627343 153.771692 
L 366.813659 229.836338 
L 366.906816 218.434012 
L 366.999974 227.194245 
L 367.279447 138.521893 
L 367.465762 197.543895 
L 367.652078 152.147648 
L 367.745235 144.615475 
L 367.931551 243.436822 
L 368.304182 112.811095 
L 368.490497 168.238273 
L 368.583655 127.834164 
L 368.676812 145.95298 
L 368.863128 64.911683 
L 369.049443 144.982559 
L 369.142601 146.658376 
L 369.235758 171.02681 
L 369.328916 168.003767 
L 369.422074 134.732608 
L 369.515232 135.829128 
L 369.794705 191.753828 
L 369.887862 219.904678 
L 370.074178 165.072997 
L 370.260493 145.707005 
L 370.446808 168.448932 
L 370.539966 157.498122 
L 370.726281 231.530688 
L 370.819439 227.941177 
L 371.005755 168.041091 
L 371.285228 212.65833 
L 371.378385 198.548271 
L 371.564701 218.741675 
L 371.657858 208.634994 
L 371.751016 170.699966 
L 371.937331 210.452396 
L 372.123647 175.677913 
L 372.216804 185.401765 
L 372.309962 207.969708 
L 372.496278 192.404146 
L 372.589435 203.3731 
L 372.682593 190.435957 
L 372.775751 150.516217 
L 372.868908 195.369842 
L 373.055224 156.95848 
L 373.148381 159.281376 
L 373.241539 157.218193 
L 373.427854 193.34327 
L 373.61417 213.350572 
L 373.707328 204.459187 
L 373.893643 153.912823 
L 373.986801 179.346932 
L 374.079958 160.897644 
L 374.173116 165.226051 
L 374.359431 122.292859 
L 374.452589 149.819051 
L 374.545747 122.674328 
L 374.732062 146.960208 
L 374.918377 131.926965 
L 375.104693 151.099663 
L 375.197851 122.791613 
L 375.291008 130.06699 
L 375.384166 182.837301 
L 375.477324 144.304443 
L 375.570481 163.254947 
L 375.663639 158.820205 
L 375.756797 160.818849 
L 375.849954 191.30173 
L 375.943112 166.291403 
L 376.129427 194.810955 
L 376.222585 160.372841 
L 376.502058 187.070261 
L 376.595216 182.108448 
L 376.781531 119.480087 
L 376.874689 124.763171 
L 377.061004 176.303219 
L 377.24732 139.242905 
L 377.433635 123.615525 
L 377.526793 183.013747 
L 377.61995 178.792905 
L 377.899424 129.306709 
L 378.178897 218.917991 
L 378.272054 220.242731 
L 378.365212 213.7901 
L 378.644685 147.004918 
L 378.737843 186.144744 
L 378.831 186.103727 
L 378.924158 163.048369 
L 379.017316 189.865601 
L 379.296789 162.844643 
L 379.483104 203.772517 
L 379.576262 199.583427 
L 379.66942 189.759785 
L 379.855735 158.2446 
L 380.04205 245.206986 
L 380.228366 173.847098 
L 380.414681 237.572885 
L 380.600996 176.863596 
L 380.694154 181.12889 
L 380.88047 155.323874 
L 380.973627 160.841334 
L 381.066785 174.076225 
L 381.159943 217.085037 
L 381.2531 209.439791 
L 381.439416 173.974038 
L 381.532573 178.077077 
L 381.718889 211.111202 
L 381.812046 211.082885 
L 381.998362 227.922969 
L 382.091519 212.422658 
L 382.277835 159.763606 
L 382.46415 153.189024 
L 382.557308 154.744835 
L 382.743623 232.415122 
L 382.929939 136.028578 
L 383.116254 219.66745 
L 383.395727 129.92061 
L 383.488885 145.376404 
L 383.582043 132.25491 
L 383.768358 231.912416 
L 383.861516 149.596857 
L 384.047831 208.570908 
L 384.140989 204.364775 
L 384.327304 172.036499 
L 384.420462 174.599861 
L 384.513619 185.473432 
L 384.606777 181.552736 
L 384.699935 168.219157 
L 384.793092 171.042944 
L 384.88625 183.981188 
L 384.979408 176.991961 
L 385.072566 215.100714 
L 385.165723 209.267297 
L 385.352039 166.600297 
L 385.445196 182.180569 
L 385.538354 226.526951 
L 385.631512 170.62305 
L 385.817827 223.769906 
L 386.004142 164.282197 
L 386.0973 181.368126 
L 386.190458 177.41853 
L 386.283615 156.914742 
L 386.376773 176.355381 
L 386.469931 170.035264 
L 386.749404 83.05117 
L 386.842562 78.013025 
L 387.30835 150.57797 
L 387.494665 127.0814 
L 387.587823 124.310618 
L 387.774139 170.506089 
L 387.867296 165.105073 
L 388.146769 246.541251 
L 388.239927 237.01672 
L 388.5194 141.587314 
L 388.705715 181.981767 
L 388.798873 170.523714 
L 389.078346 243.844858 
L 389.264662 168.99311 
L 389.357819 143.318599 
L 389.450977 150.041828 
L 389.73045 213.046927 
L 389.916765 145.193283 
L 390.103081 247.182691 
L 390.289396 178.512652 
L 390.382554 174.541608 
L 390.475711 153.882174 
L 390.755185 180.322473 
L 390.848342 226.376035 
L 391.034658 177.029415 
L 391.127815 178.239073 
L 391.314131 175.61318 
L 391.407288 148.729465 
L 391.593604 199.356567 
L 391.873077 157.299191 
L 391.966235 146.29855 
L 392.15255 177.091103 
L 392.338865 114.398722 
L 392.432023 132.977607 
L 392.525181 116.5823 
L 392.618338 164.126681 
L 392.711496 160.901208 
L 392.804654 147.214218 
L 392.990969 98.084348 
L 393.084127 137.868335 
L 393.177284 122.45492 
L 393.270442 127.201666 
L 393.3636 114.346624 
L 393.456758 123.224855 
L 393.643073 193.997799 
L 393.829388 159.128192 
L 393.922546 176.483747 
L 394.108861 145.348281 
L 394.202019 138.443811 
L 394.388334 176.661749 
L 394.481492 138.443616 
L 394.667807 203.605273 
L 394.760965 185.070645 
L 394.854123 182.112984 
L 395.040438 150.045781 
L 395.133596 172.906224 
L 395.226754 163.145762 
L 395.319911 118.567401 
L 395.506227 180.440341 
L 395.599384 176.773461 
L 395.878857 214.222565 
L 396.065173 180.609919 
L 396.158331 194.147095 
L 396.251488 226.500254 
L 396.344646 220.370384 
L 396.437804 179.80402 
L 396.530961 208.90313 
L 396.717277 170.570499 
L 396.810434 190.184928 
L 396.903592 186.631705 
L 396.99675 166.389313 
L 397.089907 181.858909 
L 397.276223 138.287387 
L 397.36938 145.937299 
L 397.648854 121.151693 
L 397.835169 212.167741 
L 398.114642 177.423001 
L 398.2078 214.014173 
L 398.394115 197.872682 
L 398.487273 197.536962 
L 398.487273 197.536962 
" style="fill:none;stroke:#1f77b4;stroke-linecap:square;stroke-width:1.5;"/>
   </g>
   <g id="patch_3">
    <path d="M 57.6 307.584 
L 57.6 41.472 
" style="fill:none;stroke:#000000;stroke-linecap:square;stroke-linejoin:miter;stroke-width:0.8;"/>
   </g>
   <g id="patch_4">
    <path d="M 414.72 307.584 
L 414.72 41.472 
" style="fill:none;stroke:#000000;stroke-linecap:square;stroke-linejoin:miter;stroke-width:0.8;"/>
   </g>
   <g id="patch_5">
    <path d="M 57.6 307.584 
L 414.72 307.584 
" style="fill:none;stroke:#000000;stroke-linecap:square;stroke-linejoin:miter;stroke-width:0.8;"/>
   </g>
   <g id="patch_6">
    <path d="M 57.6 41.472 
L 414.72 41.472 
" style="fill:none;stroke:#000000;stroke-linecap:square;stroke-linejoin:miter;stroke-width:0.8;"/>
   </g>
   <g id="text_19">
    <!-- $T(t); T = 298.0 \pm 0.414$ -->
    <defs>
     <path d="M 11.71875 51.703125 
L 22.015625 51.703125 
L 22.015625 39.3125 
L 11.71875 39.3125 
z
M 11.71875 12.40625 
L 22.015625 12.40625 
L 22.015625 4 
L 14.015625 -11.625 
L 7.71875 -11.625 
L 11.71875 4 
z
" id="DejaVuSans-59"/>
     <path d="M 10.59375 45.40625 
L 73.1875 45.40625 
L 73.1875 37.203125 
L 10.59375 37.203125 
z
M 10.59375 25.484375 
L 73.1875 25.484375 
L 73.1875 17.1875 
L 10.59375 17.1875 
z
" id="DejaVuSans-61"/>
     <path d="M 10.6875 12.40625 
L 21 12.40625 
L 21 0 
L 10.6875 0 
z
" id="DejaVuSans-46"/>
     <path d="M 46 62.703125 
L 46 43.796875 
L 73.1875 43.796875 
L 73.1875 35.5 
L 46 35.5 
L 46 16.609375 
L 37.796875 16.609375 
L 37.796875 35.5 
L 10.59375 35.5 
L 10.59375 43.796875 
L 37.796875 43.796875 
L 37.796875 62.703125 
z
M 10.59375 8.296875 
L 73.1875 8.296875 
L 73.1875 0 
L 10.59375 0 
z
" id="DejaVuSans-177"/>
     <path d="M 37.796875 64.3125 
L 12.890625 25.390625 
L 37.796875 25.390625 
z
M 35.203125 72.90625 
L 47.609375 72.90625 
L 47.609375 25.390625 
L 58.015625 25.390625 
L 58.015625 17.1875 
L 47.609375 17.1875 
L 47.609375 0 
L 37.796875 0 
L 37.796875 17.1875 
L 4.890625 17.1875 
L 4.890625 26.703125 
z
" id="DejaVuSans-52"/>
    </defs>
    <g transform="translate(169.5 35.472)scale(0.12 -0.12)">
     <use transform="translate(0 0.125)" xlink:href="#DejaVuSans-Oblique-84"/>
     <use transform="translate(61.083984 0.125)" xlink:href="#DejaVuSans-40"/>
     <use transform="translate(100.097656 0.125)" xlink:href="#DejaVuSans-Oblique-116"/>
     <use transform="translate(139.306641 0.125)" xlink:href="#DejaVuSans-41"/>
     <use transform="translate(178.320312 0.125)" xlink:href="#DejaVuSans-59"/>
     <use transform="translate(231.494141 0.125)" xlink:href="#DejaVuSans-Oblique-84"/>
     <use transform="translate(312.060547 0.125)" xlink:href="#DejaVuSans-61"/>
     <use transform="translate(415.332031 0.125)" xlink:href="#DejaVuSans-50"/>
     <use transform="translate(478.939453 0.125)" xlink:href="#DejaVuSans-57"/>
     <use transform="translate(542.5625 0.125)" xlink:href="#DejaVuSans-56"/>
     <use transform="translate(606.185547 0.125)" xlink:href="#DejaVuSans-46"/>
     <use transform="translate(637.972656 0.125)" xlink:href="#DejaVuSans-48"/>
     <use transform="translate(721.078125 0.125)" xlink:href="#DejaVuSans-177"/>
     <use transform="translate(824.349609 0.125)" xlink:href="#DejaVuSans-48"/>
     <use transform="translate(887.972656 0.125)" xlink:href="#DejaVuSans-46"/>
     <use transform="translate(919.759766 0.125)" xlink:href="#DejaVuSans-52"/>
     <use transform="translate(983.382812 0.125)" xlink:href="#DejaVuSans-49"/>
     <use transform="translate(1047.005859 0.125)" xlink:href="#DejaVuSans-52"/>
    </g>
   </g>
  </g>
 </g>
 <defs>
  <clipPath id="pd9138cca86">
   <rect height="266.112" width="357.12" x="57.6" y="41.472"/>
  </clipPath>
 </defs>
</svg>
