<?xml version="1.0" encoding="utf-8" standalone="no"?>
<!DOCTYPE svg PUBLIC "-//W3C//DTD SVG 1.1//EN"
  "http://www.w3.org/Graphics/SVG/1.1/DTD/svg11.dtd">
<!-- Created with matplotlib (https://matplotlib.org/) -->
<svg height="345.6pt" version="1.1" viewBox="0 0 460.8 345.6" width="460.8pt" xmlns="http://www.w3.org/2000/svg" xmlns:xlink="http://www.w3.org/1999/xlink">
 <defs>
  <style type="text/css">
*{stroke-linecap:butt;stroke-linejoin:round;}
  </style>
 </defs>
 <g id="figure_1">
  <g id="patch_1">
   <path d="M 0 345.6 
L 460.8 345.6 
L 460.8 0 
L 0 0 
z
" style="fill:#ffffff;"/>
  </g>
  <g id="axes_1">
   <g id="patch_2">
    <path d="M 57.6 307.584 
L 414.72 307.584 
L 414.72 41.472 
L 57.6 41.472 
z
" style="fill:#ffffff;"/>
   </g>
   <g id="matplotlib.axis_1">
    <g id="xtick_1">
     <g id="line2d_1">
      <defs>
       <path d="M 0 0 
L 0 3.5 
" id="m65513bfb32" style="stroke:#000000;stroke-width:0.8;"/>
      </defs>
      <g>
       <use style="stroke:#000000;stroke-width:0.8;" x="73.832727" xlink:href="#m65513bfb32" y="307.584"/>
      </g>
     </g>
     <g id="text_1">
      <!-- 0 -->
      <defs>
       <path d="M 31.78125 66.40625 
Q 24.171875 66.40625 20.328125 58.90625 
Q 16.5 51.421875 16.5 36.375 
Q 16.5 21.390625 20.328125 13.890625 
Q 24.171875 6.390625 31.78125 6.390625 
Q 39.453125 6.390625 43.28125 13.890625 
Q 47.125 21.390625 47.125 36.375 
Q 47.125 51.421875 43.28125 58.90625 
Q 39.453125 66.40625 31.78125 66.40625 
z
M 31.78125 74.21875 
Q 44.046875 74.21875 50.515625 64.515625 
Q 56.984375 54.828125 56.984375 36.375 
Q 56.984375 17.96875 50.515625 8.265625 
Q 44.046875 -1.421875 31.78125 -1.421875 
Q 19.53125 -1.421875 13.0625 8.265625 
Q 6.59375 17.96875 6.59375 36.375 
Q 6.59375 54.828125 13.0625 64.515625 
Q 19.53125 74.21875 31.78125 74.21875 
z
" id="DejaVuSans-48"/>
      </defs>
      <g transform="translate(70.651477 322.182437)scale(0.1 -0.1)">
       <use xlink:href="#DejaVuSans-48"/>
      </g>
     </g>
    </g>
    <g id="xtick_2">
     <g id="line2d_2">
      <g>
       <use style="stroke:#000000;stroke-width:0.8;" x="120.411572" xlink:href="#m65513bfb32" y="307.584"/>
      </g>
     </g>
     <g id="text_2">
      <!-- 5 -->
      <defs>
       <path d="M 10.796875 72.90625 
L 49.515625 72.90625 
L 49.515625 64.59375 
L 19.828125 64.59375 
L 19.828125 46.734375 
Q 21.96875 47.46875 24.109375 47.828125 
Q 26.265625 48.1875 28.421875 48.1875 
Q 40.625 48.1875 47.75 41.5 
Q 54.890625 34.8125 54.890625 23.390625 
Q 54.890625 11.625 47.5625 5.09375 
Q 40.234375 -1.421875 26.90625 -1.421875 
Q 22.3125 -1.421875 17.546875 -0.640625 
Q 12.796875 0.140625 7.71875 1.703125 
L 7.71875 11.625 
Q 12.109375 9.234375 16.796875 8.0625 
Q 21.484375 6.890625 26.703125 6.890625 
Q 35.15625 6.890625 40.078125 11.328125 
Q 45.015625 15.765625 45.015625 23.390625 
Q 45.015625 31 40.078125 35.4375 
Q 35.15625 39.890625 26.703125 39.890625 
Q 22.75 39.890625 18.8125 39.015625 
Q 14.890625 38.140625 10.796875 36.28125 
z
" id="DejaVuSans-53"/>
      </defs>
      <g transform="translate(117.230322 322.182437)scale(0.1 -0.1)">
       <use xlink:href="#DejaVuSans-53"/>
      </g>
     </g>
    </g>
    <g id="xtick_3">
     <g id="line2d_3">
      <g>
       <use style="stroke:#000000;stroke-width:0.8;" x="166.990416" xlink:href="#m65513bfb32" y="307.584"/>
      </g>
     </g>
     <g id="text_3">
      <!-- 10 -->
      <defs>
       <path d="M 12.40625 8.296875 
L 28.515625 8.296875 
L 28.515625 63.921875 
L 10.984375 60.40625 
L 10.984375 69.390625 
L 28.421875 72.90625 
L 38.28125 72.90625 
L 38.28125 8.296875 
L 54.390625 8.296875 
L 54.390625 0 
L 12.40625 0 
z
" id="DejaVuSans-49"/>
      </defs>
      <g transform="translate(160.627916 322.182437)scale(0.1 -0.1)">
       <use xlink:href="#DejaVuSans-49"/>
       <use x="63.623047" xlink:href="#DejaVuSans-48"/>
      </g>
     </g>
    </g>
    <g id="xtick_4">
     <g id="line2d_4">
      <g>
       <use style="stroke:#000000;stroke-width:0.8;" x="213.56926" xlink:href="#m65513bfb32" y="307.584"/>
      </g>
     </g>
     <g id="text_4">
      <!-- 15 -->
      <g transform="translate(207.20676 322.182437)scale(0.1 -0.1)">
       <use xlink:href="#DejaVuSans-49"/>
       <use x="63.623047" xlink:href="#DejaVuSans-53"/>
      </g>
     </g>
    </g>
    <g id="xtick_5">
     <g id="line2d_5">
      <g>
       <use style="stroke:#000000;stroke-width:0.8;" x="260.148105" xlink:href="#m65513bfb32" y="307.584"/>
      </g>
     </g>
     <g id="text_5">
      <!-- 20 -->
      <defs>
       <path d="M 19.1875 8.296875 
L 53.609375 8.296875 
L 53.609375 0 
L 7.328125 0 
L 7.328125 8.296875 
Q 12.9375 14.109375 22.625 23.890625 
Q 32.328125 33.6875 34.8125 36.53125 
Q 39.546875 41.84375 41.421875 45.53125 
Q 43.3125 49.21875 43.3125 52.78125 
Q 43.3125 58.59375 39.234375 62.25 
Q 35.15625 65.921875 28.609375 65.921875 
Q 23.96875 65.921875 18.8125 64.3125 
Q 13.671875 62.703125 7.8125 59.421875 
L 7.8125 69.390625 
Q 13.765625 71.78125 18.9375 73 
Q 24.125 74.21875 28.421875 74.21875 
Q 39.75 74.21875 46.484375 68.546875 
Q 53.21875 62.890625 53.21875 53.421875 
Q 53.21875 48.921875 51.53125 44.890625 
Q 49.859375 40.875 45.40625 35.40625 
Q 44.1875 33.984375 37.640625 27.21875 
Q 31.109375 20.453125 19.1875 8.296875 
z
" id="DejaVuSans-50"/>
      </defs>
      <g transform="translate(253.785605 322.182437)scale(0.1 -0.1)">
       <use xlink:href="#DejaVuSans-50"/>
       <use x="63.623047" xlink:href="#DejaVuSans-48"/>
      </g>
     </g>
    </g>
    <g id="xtick_6">
     <g id="line2d_6">
      <g>
       <use style="stroke:#000000;stroke-width:0.8;" x="306.726949" xlink:href="#m65513bfb32" y="307.584"/>
      </g>
     </g>
     <g id="text_6">
      <!-- 25 -->
      <g transform="translate(300.364449 322.182437)scale(0.1 -0.1)">
       <use xlink:href="#DejaVuSans-50"/>
       <use x="63.623047" xlink:href="#DejaVuSans-53"/>
      </g>
     </g>
    </g>
    <g id="xtick_7">
     <g id="line2d_7">
      <g>
       <use style="stroke:#000000;stroke-width:0.8;" x="353.305794" xlink:href="#m65513bfb32" y="307.584"/>
      </g>
     </g>
     <g id="text_7">
      <!-- 30 -->
      <defs>
       <path d="M 40.578125 39.3125 
Q 47.65625 37.796875 51.625 33 
Q 55.609375 28.21875 55.609375 21.1875 
Q 55.609375 10.40625 48.1875 4.484375 
Q 40.765625 -1.421875 27.09375 -1.421875 
Q 22.515625 -1.421875 17.65625 -0.515625 
Q 12.796875 0.390625 7.625 2.203125 
L 7.625 11.71875 
Q 11.71875 9.328125 16.59375 8.109375 
Q 21.484375 6.890625 26.8125 6.890625 
Q 36.078125 6.890625 40.9375 10.546875 
Q 45.796875 14.203125 45.796875 21.1875 
Q 45.796875 27.640625 41.28125 31.265625 
Q 36.765625 34.90625 28.71875 34.90625 
L 20.21875 34.90625 
L 20.21875 43.015625 
L 29.109375 43.015625 
Q 36.375 43.015625 40.234375 45.921875 
Q 44.09375 48.828125 44.09375 54.296875 
Q 44.09375 59.90625 40.109375 62.90625 
Q 36.140625 65.921875 28.71875 65.921875 
Q 24.65625 65.921875 20.015625 65.03125 
Q 15.375 64.15625 9.8125 62.3125 
L 9.8125 71.09375 
Q 15.4375 72.65625 20.34375 73.4375 
Q 25.25 74.21875 29.59375 74.21875 
Q 40.828125 74.21875 47.359375 69.109375 
Q 53.90625 64.015625 53.90625 55.328125 
Q 53.90625 49.265625 50.4375 45.09375 
Q 46.96875 40.921875 40.578125 39.3125 
z
" id="DejaVuSans-51"/>
      </defs>
      <g transform="translate(346.943294 322.182437)scale(0.1 -0.1)">
       <use xlink:href="#DejaVuSans-51"/>
       <use x="63.623047" xlink:href="#DejaVuSans-48"/>
      </g>
     </g>
    </g>
    <g id="xtick_8">
     <g id="line2d_8">
      <g>
       <use style="stroke:#000000;stroke-width:0.8;" x="399.884638" xlink:href="#m65513bfb32" y="307.584"/>
      </g>
     </g>
     <g id="text_8">
      <!-- 35 -->
      <g transform="translate(393.522138 322.182437)scale(0.1 -0.1)">
       <use xlink:href="#DejaVuSans-51"/>
       <use x="63.623047" xlink:href="#DejaVuSans-53"/>
      </g>
     </g>
    </g>
    <g id="text_9">
     <!-- $time (ps)$ -->
     <defs>
      <path d="M 42.28125 54.6875 
L 40.921875 47.703125 
L 23 47.703125 
L 17.1875 18.015625 
Q 16.890625 16.359375 16.75 15.234375 
Q 16.609375 14.109375 16.609375 13.484375 
Q 16.609375 10.359375 18.484375 8.9375 
Q 20.359375 7.515625 24.515625 7.515625 
L 33.59375 7.515625 
L 32.078125 0 
L 23.484375 0 
Q 15.484375 0 11.546875 3.125 
Q 7.625 6.25 7.625 12.59375 
Q 7.625 13.71875 7.765625 15.0625 
Q 7.90625 16.40625 8.203125 18.015625 
L 14.015625 47.703125 
L 6.390625 47.703125 
L 7.8125 54.6875 
L 15.28125 54.6875 
L 18.3125 70.21875 
L 27.296875 70.21875 
L 24.3125 54.6875 
z
" id="DejaVuSans-Oblique-116"/>
      <path d="M 18.3125 75.984375 
L 27.296875 75.984375 
L 25.09375 64.59375 
L 16.109375 64.59375 
z
M 14.203125 54.6875 
L 23.1875 54.6875 
L 12.5 0 
L 3.515625 0 
z
" id="DejaVuSans-Oblique-105"/>
      <path d="M 89.796875 33.015625 
L 83.40625 0 
L 74.421875 0 
L 80.71875 32.71875 
Q 81.109375 34.8125 81.296875 36.328125 
Q 81.5 37.84375 81.5 38.921875 
Q 81.5 43.3125 79.046875 45.75 
Q 76.609375 48.1875 72.21875 48.1875 
Q 65.671875 48.1875 60.546875 43.28125 
Q 55.421875 38.375 53.90625 30.515625 
L 47.90625 0 
L 38.921875 0 
L 45.3125 32.71875 
Q 45.703125 34.515625 45.890625 36.046875 
Q 46.09375 37.59375 46.09375 38.8125 
Q 46.09375 43.265625 43.65625 45.71875 
Q 41.21875 48.1875 36.921875 48.1875 
Q 30.28125 48.1875 25.140625 43.28125 
Q 20.015625 38.375 18.5 30.515625 
L 12.5 0 
L 3.515625 0 
L 14.203125 54.6875 
L 23.1875 54.6875 
L 21.484375 46.1875 
Q 25.140625 50.984375 30.046875 53.484375 
Q 34.96875 56 40.578125 56 
Q 46.53125 56 50.359375 52.875 
Q 54.203125 49.75 54.984375 44.1875 
Q 59.078125 49.953125 64.46875 52.96875 
Q 69.875 56 75.875 56 
Q 82.90625 56 86.734375 51.953125 
Q 90.578125 47.90625 90.578125 40.484375 
Q 90.578125 38.875 90.375 36.9375 
Q 90.1875 35.015625 89.796875 33.015625 
z
" id="DejaVuSans-Oblique-109"/>
      <path d="M 48.09375 32.234375 
Q 48.25 33.015625 48.3125 33.84375 
Q 48.390625 34.671875 48.390625 35.5 
Q 48.390625 41.453125 44.890625 44.921875 
Q 41.40625 48.390625 35.40625 48.390625 
Q 28.71875 48.390625 23.578125 44.15625 
Q 18.453125 39.9375 15.828125 32.171875 
z
M 55.90625 25.203125 
L 14.109375 25.203125 
Q 13.8125 23.34375 13.71875 22.265625 
Q 13.625 21.1875 13.625 20.40625 
Q 13.625 13.625 17.796875 9.90625 
Q 21.96875 6.203125 29.59375 6.203125 
Q 35.453125 6.203125 40.671875 7.515625 
Q 45.90625 8.84375 50.390625 11.375 
L 48.6875 2.484375 
Q 43.84375 0.53125 38.6875 -0.4375 
Q 33.546875 -1.421875 28.21875 -1.421875 
Q 16.84375 -1.421875 10.71875 4.015625 
Q 4.59375 9.46875 4.59375 19.484375 
Q 4.59375 28.03125 7.640625 35.375 
Q 10.6875 42.71875 16.609375 48.484375 
Q 20.40625 52.09375 25.65625 54.046875 
Q 30.90625 56 36.8125 56 
Q 46.09375 56 51.578125 50.4375 
Q 57.078125 44.875 57.078125 35.5 
Q 57.078125 33.25 56.78125 30.6875 
Q 56.5 28.125 55.90625 25.203125 
z
" id="DejaVuSans-Oblique-101"/>
      <path d="M 31 75.875 
Q 24.46875 64.65625 21.28125 53.65625 
Q 18.109375 42.671875 18.109375 31.390625 
Q 18.109375 20.125 21.3125 9.0625 
Q 24.515625 -2 31 -13.1875 
L 23.1875 -13.1875 
Q 15.875 -1.703125 12.234375 9.375 
Q 8.59375 20.453125 8.59375 31.390625 
Q 8.59375 42.28125 12.203125 53.3125 
Q 15.828125 64.359375 23.1875 75.875 
z
" id="DejaVuSans-40"/>
      <path d="M 49.609375 33.6875 
Q 49.609375 40.875 46.484375 44.671875 
Q 43.359375 48.484375 37.5 48.484375 
Q 33.5 48.484375 29.859375 46.4375 
Q 26.21875 44.390625 23.390625 40.484375 
Q 20.609375 36.625 18.9375 31.15625 
Q 17.28125 25.6875 17.28125 20.3125 
Q 17.28125 13.484375 20.40625 9.796875 
Q 23.53125 6.109375 29.296875 6.109375 
Q 33.546875 6.109375 37.1875 8.109375 
Q 40.828125 10.109375 43.40625 13.921875 
Q 46.1875 17.921875 47.890625 23.34375 
Q 49.609375 28.765625 49.609375 33.6875 
z
M 21.78125 46.390625 
Q 25.390625 51.125 30.296875 53.5625 
Q 35.203125 56 41.21875 56 
Q 49.609375 56 54.25 50.5 
Q 58.890625 45.015625 58.890625 35.109375 
Q 58.890625 27 56 19.65625 
Q 53.125 12.3125 47.703125 6.5 
Q 44.09375 2.640625 39.546875 0.609375 
Q 35.015625 -1.421875 29.984375 -1.421875 
Q 24.171875 -1.421875 20.21875 1 
Q 16.265625 3.421875 14.3125 8.203125 
L 8.6875 -20.796875 
L -0.296875 -20.796875 
L 14.40625 54.6875 
L 23.390625 54.6875 
z
" id="DejaVuSans-Oblique-112"/>
      <path d="M 50 53.078125 
L 48.296875 44.578125 
Q 44.734375 46.53125 40.765625 47.5 
Q 36.8125 48.484375 32.625 48.484375 
Q 25.53125 48.484375 21.453125 46.0625 
Q 17.390625 43.65625 17.390625 39.5 
Q 17.390625 34.671875 26.859375 32.078125 
Q 27.59375 31.890625 27.9375 31.78125 
L 30.8125 30.90625 
Q 39.796875 28.421875 42.796875 25.6875 
Q 45.796875 22.953125 45.796875 18.21875 
Q 45.796875 9.515625 38.890625 4.046875 
Q 31.984375 -1.421875 20.796875 -1.421875 
Q 16.453125 -1.421875 11.671875 -0.578125 
Q 6.890625 0.25 1.125 2 
L 2.875 11.28125 
Q 7.8125 8.734375 12.59375 7.421875 
Q 17.390625 6.109375 21.78125 6.109375 
Q 28.375 6.109375 32.5 8.9375 
Q 36.625 11.765625 36.625 16.109375 
Q 36.625 20.796875 25.78125 23.6875 
L 24.859375 23.921875 
L 21.78125 24.703125 
Q 14.9375 26.515625 11.765625 29.46875 
Q 8.59375 32.421875 8.59375 37.015625 
Q 8.59375 45.75 15.15625 50.875 
Q 21.734375 56 33.015625 56 
Q 37.453125 56 41.671875 55.265625 
Q 45.90625 54.546875 50 53.078125 
z
" id="DejaVuSans-Oblique-115"/>
      <path d="M 8.015625 75.875 
L 15.828125 75.875 
Q 23.140625 64.359375 26.78125 53.3125 
Q 30.421875 42.28125 30.421875 31.390625 
Q 30.421875 20.453125 26.78125 9.375 
Q 23.140625 -1.703125 15.828125 -13.1875 
L 8.015625 -13.1875 
Q 14.5 -2 17.703125 9.0625 
Q 20.90625 20.125 20.90625 31.390625 
Q 20.90625 42.671875 17.703125 53.65625 
Q 14.5 64.65625 8.015625 75.875 
z
" id="DejaVuSans-41"/>
     </defs>
     <g transform="translate(215.16 335.862125)scale(0.1 -0.1)">
      <use transform="translate(0 0.015625)" xlink:href="#DejaVuSans-Oblique-116"/>
      <use transform="translate(39.208984 0.015625)" xlink:href="#DejaVuSans-Oblique-105"/>
      <use transform="translate(66.992188 0.015625)" xlink:href="#DejaVuSans-Oblique-109"/>
      <use transform="translate(164.404297 0.015625)" xlink:href="#DejaVuSans-Oblique-101"/>
      <use transform="translate(225.927734 0.015625)" xlink:href="#DejaVuSans-40"/>
      <use transform="translate(264.941406 0.015625)" xlink:href="#DejaVuSans-Oblique-112"/>
      <use transform="translate(328.417969 0.015625)" xlink:href="#DejaVuSans-Oblique-115"/>
      <use transform="translate(380.517578 0.015625)" xlink:href="#DejaVuSans-41"/>
     </g>
    </g>
   </g>
   <g id="matplotlib.axis_2">
    <g id="ytick_1">
     <g id="line2d_9">
      <defs>
       <path d="M 0 0 
L -3.5 0 
" id="m97b7bfcaeb" style="stroke:#000000;stroke-width:0.8;"/>
      </defs>
      <g>
       <use style="stroke:#000000;stroke-width:0.8;" x="57.6" xlink:href="#m97b7bfcaeb" y="284.98823"/>
      </g>
     </g>
     <g id="text_10">
      <!-- −11.0 -->
      <defs>
       <path d="M 10.59375 35.5 
L 73.1875 35.5 
L 73.1875 27.203125 
L 10.59375 27.203125 
z
" id="DejaVuSans-8722"/>
       <path d="M 10.6875 12.40625 
L 21 12.40625 
L 21 0 
L 10.6875 0 
z
" id="DejaVuSans-46"/>
      </defs>
      <g transform="translate(19.954687 288.787449)scale(0.1 -0.1)">
       <use xlink:href="#DejaVuSans-8722"/>
       <use x="83.789062" xlink:href="#DejaVuSans-49"/>
       <use x="147.412109" xlink:href="#DejaVuSans-49"/>
       <use x="211.035156" xlink:href="#DejaVuSans-46"/>
       <use x="242.822266" xlink:href="#DejaVuSans-48"/>
      </g>
     </g>
    </g>
    <g id="ytick_2">
     <g id="line2d_10">
      <g>
       <use style="stroke:#000000;stroke-width:0.8;" x="57.6" xlink:href="#m97b7bfcaeb" y="247.086533"/>
      </g>
     </g>
     <g id="text_11">
      <!-- −10.8 -->
      <defs>
       <path d="M 31.78125 34.625 
Q 24.75 34.625 20.71875 30.859375 
Q 16.703125 27.09375 16.703125 20.515625 
Q 16.703125 13.921875 20.71875 10.15625 
Q 24.75 6.390625 31.78125 6.390625 
Q 38.8125 6.390625 42.859375 10.171875 
Q 46.921875 13.96875 46.921875 20.515625 
Q 46.921875 27.09375 42.890625 30.859375 
Q 38.875 34.625 31.78125 34.625 
z
M 21.921875 38.8125 
Q 15.578125 40.375 12.03125 44.71875 
Q 8.5 49.078125 8.5 55.328125 
Q 8.5 64.0625 14.71875 69.140625 
Q 20.953125 74.21875 31.78125 74.21875 
Q 42.671875 74.21875 48.875 69.140625 
Q 55.078125 64.0625 55.078125 55.328125 
Q 55.078125 49.078125 51.53125 44.71875 
Q 48 40.375 41.703125 38.8125 
Q 48.828125 37.15625 52.796875 32.3125 
Q 56.78125 27.484375 56.78125 20.515625 
Q 56.78125 9.90625 50.3125 4.234375 
Q 43.84375 -1.421875 31.78125 -1.421875 
Q 19.734375 -1.421875 13.25 4.234375 
Q 6.78125 9.90625 6.78125 20.515625 
Q 6.78125 27.484375 10.78125 32.3125 
Q 14.796875 37.15625 21.921875 38.8125 
z
M 18.3125 54.390625 
Q 18.3125 48.734375 21.84375 45.5625 
Q 25.390625 42.390625 31.78125 42.390625 
Q 38.140625 42.390625 41.71875 45.5625 
Q 45.3125 48.734375 45.3125 54.390625 
Q 45.3125 60.0625 41.71875 63.234375 
Q 38.140625 66.40625 31.78125 66.40625 
Q 25.390625 66.40625 21.84375 63.234375 
Q 18.3125 60.0625 18.3125 54.390625 
z
" id="DejaVuSans-56"/>
      </defs>
      <g transform="translate(19.954687 250.885751)scale(0.1 -0.1)">
       <use xlink:href="#DejaVuSans-8722"/>
       <use x="83.789062" xlink:href="#DejaVuSans-49"/>
       <use x="147.412109" xlink:href="#DejaVuSans-48"/>
       <use x="211.035156" xlink:href="#DejaVuSans-46"/>
       <use x="242.822266" xlink:href="#DejaVuSans-56"/>
      </g>
     </g>
    </g>
    <g id="ytick_3">
     <g id="line2d_11">
      <g>
       <use style="stroke:#000000;stroke-width:0.8;" x="57.6" xlink:href="#m97b7bfcaeb" y="209.184835"/>
      </g>
     </g>
     <g id="text_12">
      <!-- −10.6 -->
      <defs>
       <path d="M 33.015625 40.375 
Q 26.375 40.375 22.484375 35.828125 
Q 18.609375 31.296875 18.609375 23.390625 
Q 18.609375 15.53125 22.484375 10.953125 
Q 26.375 6.390625 33.015625 6.390625 
Q 39.65625 6.390625 43.53125 10.953125 
Q 47.40625 15.53125 47.40625 23.390625 
Q 47.40625 31.296875 43.53125 35.828125 
Q 39.65625 40.375 33.015625 40.375 
z
M 52.59375 71.296875 
L 52.59375 62.3125 
Q 48.875 64.0625 45.09375 64.984375 
Q 41.3125 65.921875 37.59375 65.921875 
Q 27.828125 65.921875 22.671875 59.328125 
Q 17.53125 52.734375 16.796875 39.40625 
Q 19.671875 43.65625 24.015625 45.921875 
Q 28.375 48.1875 33.59375 48.1875 
Q 44.578125 48.1875 50.953125 41.515625 
Q 57.328125 34.859375 57.328125 23.390625 
Q 57.328125 12.15625 50.6875 5.359375 
Q 44.046875 -1.421875 33.015625 -1.421875 
Q 20.359375 -1.421875 13.671875 8.265625 
Q 6.984375 17.96875 6.984375 36.375 
Q 6.984375 53.65625 15.1875 63.9375 
Q 23.390625 74.21875 37.203125 74.21875 
Q 40.921875 74.21875 44.703125 73.484375 
Q 48.484375 72.75 52.59375 71.296875 
z
" id="DejaVuSans-54"/>
      </defs>
      <g transform="translate(19.954687 212.984054)scale(0.1 -0.1)">
       <use xlink:href="#DejaVuSans-8722"/>
       <use x="83.789062" xlink:href="#DejaVuSans-49"/>
       <use x="147.412109" xlink:href="#DejaVuSans-48"/>
       <use x="211.035156" xlink:href="#DejaVuSans-46"/>
       <use x="242.822266" xlink:href="#DejaVuSans-54"/>
      </g>
     </g>
    </g>
    <g id="ytick_4">
     <g id="line2d_12">
      <g>
       <use style="stroke:#000000;stroke-width:0.8;" x="57.6" xlink:href="#m97b7bfcaeb" y="171.283138"/>
      </g>
     </g>
     <g id="text_13">
      <!-- −10.4 -->
      <defs>
       <path d="M 37.796875 64.3125 
L 12.890625 25.390625 
L 37.796875 25.390625 
z
M 35.203125 72.90625 
L 47.609375 72.90625 
L 47.609375 25.390625 
L 58.015625 25.390625 
L 58.015625 17.1875 
L 47.609375 17.1875 
L 47.609375 0 
L 37.796875 0 
L 37.796875 17.1875 
L 4.890625 17.1875 
L 4.890625 26.703125 
z
" id="DejaVuSans-52"/>
      </defs>
      <g transform="translate(19.954687 175.082356)scale(0.1 -0.1)">
       <use xlink:href="#DejaVuSans-8722"/>
       <use x="83.789062" xlink:href="#DejaVuSans-49"/>
       <use x="147.412109" xlink:href="#DejaVuSans-48"/>
       <use x="211.035156" xlink:href="#DejaVuSans-46"/>
       <use x="242.822266" xlink:href="#DejaVuSans-52"/>
      </g>
     </g>
    </g>
    <g id="ytick_5">
     <g id="line2d_13">
      <g>
       <use style="stroke:#000000;stroke-width:0.8;" x="57.6" xlink:href="#m97b7bfcaeb" y="133.38144"/>
      </g>
     </g>
     <g id="text_14">
      <!-- −10.2 -->
      <g transform="translate(19.954687 137.180659)scale(0.1 -0.1)">
       <use xlink:href="#DejaVuSans-8722"/>
       <use x="83.789062" xlink:href="#DejaVuSans-49"/>
       <use x="147.412109" xlink:href="#DejaVuSans-48"/>
       <use x="211.035156" xlink:href="#DejaVuSans-46"/>
       <use x="242.822266" xlink:href="#DejaVuSans-50"/>
      </g>
     </g>
    </g>
    <g id="ytick_6">
     <g id="line2d_14">
      <g>
       <use style="stroke:#000000;stroke-width:0.8;" x="57.6" xlink:href="#m97b7bfcaeb" y="95.479743"/>
      </g>
     </g>
     <g id="text_15">
      <!-- −10.0 -->
      <g transform="translate(19.954687 99.278961)scale(0.1 -0.1)">
       <use xlink:href="#DejaVuSans-8722"/>
       <use x="83.789062" xlink:href="#DejaVuSans-49"/>
       <use x="147.412109" xlink:href="#DejaVuSans-48"/>
       <use x="211.035156" xlink:href="#DejaVuSans-46"/>
       <use x="242.822266" xlink:href="#DejaVuSans-48"/>
      </g>
     </g>
    </g>
    <g id="ytick_7">
     <g id="line2d_15">
      <g>
       <use style="stroke:#000000;stroke-width:0.8;" x="57.6" xlink:href="#m97b7bfcaeb" y="57.578045"/>
      </g>
     </g>
     <g id="text_16">
      <!-- −9.8 -->
      <defs>
       <path d="M 10.984375 1.515625 
L 10.984375 10.5 
Q 14.703125 8.734375 18.5 7.8125 
Q 22.3125 6.890625 25.984375 6.890625 
Q 35.75 6.890625 40.890625 13.453125 
Q 46.046875 20.015625 46.78125 33.40625 
Q 43.953125 29.203125 39.59375 26.953125 
Q 35.25 24.703125 29.984375 24.703125 
Q 19.046875 24.703125 12.671875 31.3125 
Q 6.296875 37.9375 6.296875 49.421875 
Q 6.296875 60.640625 12.9375 67.421875 
Q 19.578125 74.21875 30.609375 74.21875 
Q 43.265625 74.21875 49.921875 64.515625 
Q 56.59375 54.828125 56.59375 36.375 
Q 56.59375 19.140625 48.40625 8.859375 
Q 40.234375 -1.421875 26.421875 -1.421875 
Q 22.703125 -1.421875 18.890625 -0.6875 
Q 15.09375 0.046875 10.984375 1.515625 
z
M 30.609375 32.421875 
Q 37.25 32.421875 41.125 36.953125 
Q 45.015625 41.5 45.015625 49.421875 
Q 45.015625 57.28125 41.125 61.84375 
Q 37.25 66.40625 30.609375 66.40625 
Q 23.96875 66.40625 20.09375 61.84375 
Q 16.21875 57.28125 16.21875 49.421875 
Q 16.21875 41.5 20.09375 36.953125 
Q 23.96875 32.421875 30.609375 32.421875 
z
" id="DejaVuSans-57"/>
      </defs>
      <g transform="translate(26.317187 61.377264)scale(0.1 -0.1)">
       <use xlink:href="#DejaVuSans-8722"/>
       <use x="83.789062" xlink:href="#DejaVuSans-57"/>
       <use x="147.412109" xlink:href="#DejaVuSans-46"/>
       <use x="179.199219" xlink:href="#DejaVuSans-56"/>
      </g>
     </g>
    </g>
    <g id="text_17">
     <!-- $H (Mcal/mol)$ -->
     <defs>
      <path d="M 16.890625 72.90625 
L 26.8125 72.90625 
L 21 43.015625 
L 56.78125 43.015625 
L 62.59375 72.90625 
L 72.515625 72.90625 
L 58.296875 0 
L 48.390625 0 
L 55.171875 34.71875 
L 19.390625 34.71875 
L 12.59375 0 
L 2.6875 0 
z
" id="DejaVuSans-Oblique-72"/>
      <path d="M 16.890625 72.90625 
L 31.6875 72.90625 
L 40.1875 23.78125 
L 68.40625 72.90625 
L 83.59375 72.90625 
L 69.390625 0 
L 59.8125 0 
L 72.21875 63.921875 
L 43.609375 14.015625 
L 33.984375 14.015625 
L 24.703125 64.109375 
L 12.3125 0 
L 2.6875 0 
z
" id="DejaVuSans-Oblique-77"/>
      <path d="M 53.609375 52.59375 
L 51.8125 43.703125 
Q 48.578125 46.046875 44.9375 47.21875 
Q 41.3125 48.390625 37.40625 48.390625 
Q 33.109375 48.390625 29.21875 46.875 
Q 25.34375 45.359375 22.703125 42.578125 
Q 18.5 38.328125 16.203125 32.609375 
Q 13.921875 26.90625 13.921875 20.796875 
Q 13.921875 13.421875 17.609375 9.8125 
Q 21.296875 6.203125 28.8125 6.203125 
Q 32.515625 6.203125 36.6875 7.328125 
Q 40.875 8.453125 45.40625 10.6875 
L 43.703125 1.8125 
Q 39.796875 0.203125 35.671875 -0.609375 
Q 31.546875 -1.421875 27.203125 -1.421875 
Q 16.3125 -1.421875 10.453125 4.015625 
Q 4.59375 9.46875 4.59375 19.578125 
Q 4.59375 28.078125 7.640625 35.234375 
Q 10.6875 42.390625 16.703125 48.09375 
Q 20.796875 52 26.3125 54 
Q 31.84375 56 38.375 56 
Q 42.1875 56 45.9375 55.140625 
Q 49.703125 54.296875 53.609375 52.59375 
z
" id="DejaVuSans-Oblique-99"/>
      <path d="M 53.71875 31.203125 
L 47.609375 0 
L 38.625 0 
L 40.28125 8.296875 
Q 36.328125 3.421875 31.265625 1 
Q 26.21875 -1.421875 20.015625 -1.421875 
Q 13.03125 -1.421875 8.5625 2.84375 
Q 4.109375 7.125 4.109375 13.8125 
Q 4.109375 23.390625 11.75 28.953125 
Q 19.390625 34.515625 32.8125 34.515625 
L 45.3125 34.515625 
L 45.796875 36.921875 
Q 45.90625 37.3125 45.953125 37.765625 
Q 46 38.234375 46 39.203125 
Q 46 43.5625 42.453125 45.96875 
Q 38.921875 48.390625 32.515625 48.390625 
Q 28.125 48.390625 23.5 47.265625 
Q 18.890625 46.140625 14.015625 43.890625 
L 15.578125 52.203125 
Q 20.65625 54.109375 25.515625 55.046875 
Q 30.375 56 34.90625 56 
Q 44.578125 56 49.625 51.796875 
Q 54.6875 47.609375 54.6875 39.59375 
Q 54.6875 37.984375 54.4375 35.8125 
Q 54.203125 33.640625 53.71875 31.203125 
z
M 44 27.484375 
L 35.015625 27.484375 
Q 23.96875 27.484375 18.671875 24.53125 
Q 13.375 21.578125 13.375 15.375 
Q 13.375 11.078125 16.078125 8.640625 
Q 18.796875 6.203125 23.578125 6.203125 
Q 30.90625 6.203125 36.375 11.453125 
Q 41.84375 16.703125 43.609375 25.484375 
z
" id="DejaVuSans-Oblique-97"/>
      <path d="M 18.3125 75.984375 
L 27.296875 75.984375 
L 12.5 0 
L 3.515625 0 
z
" id="DejaVuSans-Oblique-108"/>
      <path d="M 25.390625 72.90625 
L 33.6875 72.90625 
L 8.296875 -9.28125 
L 0 -9.28125 
z
" id="DejaVuSans-47"/>
      <path d="M 25.390625 -1.421875 
Q 15.765625 -1.421875 10.171875 4.515625 
Q 4.59375 10.453125 4.59375 20.703125 
Q 4.59375 26.65625 6.515625 32.828125 
Q 8.453125 39.015625 11.53125 43.21875 
Q 16.359375 49.75 22.3125 52.875 
Q 28.265625 56 35.796875 56 
Q 45.125 56 50.859375 50.1875 
Q 56.59375 44.390625 56.59375 35.015625 
Q 56.59375 28.515625 54.6875 22.0625 
Q 52.78125 15.625 49.703125 11.375 
Q 44.921875 4.828125 38.96875 1.703125 
Q 33.015625 -1.421875 25.390625 -1.421875 
z
M 13.921875 21 
Q 13.921875 13.578125 17.015625 9.890625 
Q 20.125 6.203125 26.421875 6.203125 
Q 35.453125 6.203125 41.375 14.078125 
Q 47.3125 21.96875 47.3125 34.078125 
Q 47.3125 41.15625 44.140625 44.765625 
Q 40.96875 48.390625 34.8125 48.390625 
Q 29.734375 48.390625 25.78125 46.015625 
Q 21.828125 43.65625 18.703125 38.8125 
Q 16.40625 35.203125 15.15625 30.5625 
Q 13.921875 25.921875 13.921875 21 
z
" id="DejaVuSans-Oblique-111"/>
     </defs>
     <g transform="translate(13.875 204.728)rotate(-90)scale(0.1 -0.1)">
      <use transform="translate(0 0.015625)" xlink:href="#DejaVuSans-Oblique-72"/>
      <use transform="translate(75.195312 0.015625)" xlink:href="#DejaVuSans-40"/>
      <use transform="translate(114.208984 0.015625)" xlink:href="#DejaVuSans-Oblique-77"/>
      <use transform="translate(200.488281 0.015625)" xlink:href="#DejaVuSans-Oblique-99"/>
      <use transform="translate(255.46875 0.015625)" xlink:href="#DejaVuSans-Oblique-97"/>
      <use transform="translate(316.748047 0.015625)" xlink:href="#DejaVuSans-Oblique-108"/>
      <use transform="translate(344.53125 0.015625)" xlink:href="#DejaVuSans-47"/>
      <use transform="translate(378.222656 0.015625)" xlink:href="#DejaVuSans-Oblique-109"/>
      <use transform="translate(475.634766 0.015625)" xlink:href="#DejaVuSans-Oblique-111"/>
      <use transform="translate(536.816406 0.015625)" xlink:href="#DejaVuSans-Oblique-108"/>
      <use transform="translate(564.599609 0.015625)" xlink:href="#DejaVuSans-41"/>
     </g>
    </g>
   </g>
   <g id="line2d_16">
    <path clip-path="url(#p222f8a54b1)" d="M 73.832727 193.390511 
L 73.925885 182.734121 
L 74.019043 186.655579 
L 74.1122 185.367794 
L 74.298516 155.964614 
L 74.484831 178.768625 
L 74.577989 172.707882 
L 74.857462 197.906122 
L 74.95062 200.417205 
L 75.043777 182.886472 
L 75.32325 202.334455 
L 75.416408 197.128636 
L 75.695881 145.935062 
L 75.789039 142.195089 
L 76.161669 181.390827 
L 76.347985 187.778709 
L 76.627458 173.056077 
L 76.813773 191.993437 
L 76.906931 191.872706 
L 77.000089 190.190513 
L 77.372719 173.602072 
L 77.465877 161.982381 
L 77.652193 176.302875 
L 77.74535 174.410828 
L 77.931666 162.440454 
L 78.211139 179.6833 
L 78.304296 176.585352 
L 78.397454 172.544317 
L 78.583769 186.021579 
L 78.863242 145.918458 
L 79.049558 162.283045 
L 79.235873 158.88593 
L 79.329031 163.04527 
L 79.608504 201.292537 
L 79.701662 200.9592 
L 79.794819 201.928272 
L 79.981135 212.025139 
L 80.074292 204.796559 
L 80.260608 162.268228 
L 80.353765 170.413841 
L 80.446923 169.240818 
L 80.726396 109.958991 
L 80.912712 115.754756 
L 81.005869 129.285646 
L 81.099027 128.297569 
L 81.285342 133.989901 
L 81.564815 121.113277 
L 81.657973 127.246307 
L 82.030604 175.622634 
L 82.123762 170.42185 
L 82.310077 202.729347 
L 82.682708 270.249301 
L 82.869023 252.583816 
L 82.962181 252.826888 
L 83.055338 249.646714 
L 83.148496 253.169046 
L 83.334812 263.396064 
L 83.707442 175.607306 
L 83.8006 177.211699 
L 84.080073 233.463681 
L 84.639019 121.815635 
L 84.918492 106.977009 
L 85.01165 91.062422 
L 85.104808 92.609729 
L 85.384281 147.023624 
L 85.477438 147.427591 
L 85.570596 119.527308 
L 85.663754 119.625368 
L 85.756911 125.353979 
L 85.850069 121.594353 
L 86.036385 143.193949 
L 86.315858 117.279518 
L 86.409015 120.710337 
L 86.595331 163.350974 
L 86.688488 167.405761 
L 86.781646 165.39558 
L 86.874804 151.842265 
L 86.967961 152.334338 
L 87.061119 155.890667 
L 87.526908 245.829714 
L 87.620065 242.196915 
L 87.713223 238.229299 
L 87.806381 245.059226 
L 87.899538 242.217506 
L 87.992696 244.433392 
L 88.365327 279.726603 
L 88.551642 289.55491 
L 88.6448 284.092959 
L 88.831115 295.488 
L 89.017431 251.621037 
L 89.203746 212.575209 
L 89.296904 211.558254 
L 89.390061 206.367308 
L 89.483219 210.61382 
L 89.576377 208.387192 
L 89.762692 173.537002 
L 90.228481 124.253341 
L 90.321638 136.907718 
L 90.414796 135.58179 
L 90.507954 136.746343 
L 90.601111 145.230863 
L 91.0669 99.814609 
L 91.532688 164.185015 
L 91.625846 149.525612 
L 91.719004 154.050403 
L 91.812161 165.091767 
L 91.998477 156.105184 
L 92.091634 161.137167 
L 92.464265 224.37984 
L 92.65058 207.76557 
L 92.836896 223.382121 
L 93.023211 210.37011 
L 93.302684 245.133081 
L 93.395842 237.682105 
L 93.489 211.220381 
L 93.582157 214.114957 
L 93.86163 254.102227 
L 93.954788 252.422694 
L 94.047946 252.571117 
L 94.141103 251.829071 
L 94.327419 228.576807 
L 94.420576 237.629081 
L 94.70005 215.567067 
L 94.886365 190.198504 
L 94.979523 190.909314 
L 95.07268 189.856971 
L 95.352153 132.864197 
L 95.445311 133.926296 
L 95.9111 189.809311 
L 96.097415 166.508471 
L 96.190573 168.509058 
L 96.656361 116.664903 
L 96.749519 121.604504 
L 96.842676 120.686774 
L 96.935834 112.003845 
L 97.028992 115.781385 
L 97.215307 139.563702 
L 97.401623 157.122623 
L 97.774253 195.629419 
L 97.867411 190.029194 
L 97.960569 172.391499 
L 98.053726 178.157314 
L 98.240042 213.878235 
L 98.426357 212.594473 
L 98.798988 186.611361 
L 98.892146 194.355765 
L 98.985303 191.680918 
L 99.171619 166.020837 
L 99.357934 195.204171 
L 99.544249 235.309147 
L 99.730565 226.691378 
L 100.010038 185.213913 
L 100.103196 173.965172 
L 100.196353 184.353917 
L 100.289511 182.55195 
L 100.662142 195.046642 
L 100.941615 226.688658 
L 101.034772 214.804983 
L 101.221088 182.012474 
L 101.407403 198.927124 
L 101.686876 182.931912 
L 101.780034 177.953146 
L 101.966349 192.553219 
L 102.152665 212.71723 
L 102.245822 205.236087 
L 102.618453 247.5284 
L 103.084242 178.903508 
L 103.270557 171.895712 
L 103.736345 70.915807 
L 103.829503 78.602021 
L 104.015818 82.176467 
L 104.108976 82.835247 
L 104.388449 107.304624 
L 104.481607 101.244626 
L 104.76108 124.335928 
L 104.854238 121.454751 
L 104.947395 125.416953 
L 105.226868 163.974668 
L 105.506341 192.276857 
L 105.692657 226.515617 
L 105.785815 221.497517 
L 105.878972 225.489064 
L 105.97213 237.726431 
L 106.065288 236.503446 
L 106.437918 189.773738 
L 106.531076 189.861003 
L 106.624234 193.424066 
L 106.717391 189.564049 
L 106.810549 195.652799 
L 107.18318 253.024846 
L 107.369495 247.233234 
L 107.648968 199.150996 
L 107.835284 197.05244 
L 108.021599 208.353969 
L 108.114757 223.227754 
L 108.673703 158.201906 
L 108.860018 173.076817 
L 109.046334 168.799911 
L 109.139491 176.833821 
L 109.232649 169.211835 
L 109.325807 150.783144 
L 109.418964 160.364756 
L 109.698437 129.752915 
L 109.884753 137.824702 
L 109.977911 130.312271 
L 110.257384 151.649403 
L 110.443699 171.399413 
L 110.536857 172.135802 
L 110.81633 151.436642 
L 111.002645 120.456534 
L 111.18896 116.647372 
L 111.468434 134.31663 
L 111.747907 199.324099 
L 111.841064 200.021673 
L 112.02738 214.640551 
L 112.120537 209.391988 
L 112.213695 196.909645 
L 112.306853 197.016309 
L 112.493168 233.634068 
L 112.586326 233.309236 
L 112.772641 213.241891 
L 112.865799 209.753461 
L 112.958957 201.646826 
L 113.424745 237.535192 
L 113.704218 205.906389 
L 113.797376 213.309937 
L 113.890533 230.217755 
L 114.170007 207.28454 
L 114.263164 218.239641 
L 114.542637 183.112333 
L 114.728953 167.183176 
L 114.82211 169.71185 
L 114.915268 162.722149 
L 115.008426 166.988626 
L 115.194741 193.015231 
L 115.474214 173.789277 
L 115.567372 171.923222 
L 115.753687 196.438512 
L 115.940003 215.545704 
L 116.03316 215.248235 
L 116.126318 214.316866 
L 116.312633 221.017821 
L 116.778422 159.501311 
L 116.871579 156.913924 
L 116.964737 146.213443 
L 117.151053 157.098873 
L 117.24421 168.034923 
L 117.337368 164.514758 
L 117.430526 167.414196 
L 117.803156 198.137274 
L 117.896314 199.880332 
L 117.989472 190.153501 
L 118.175787 137.42362 
L 118.734733 200.914894 
L 118.827891 200.622631 
L 119.014206 209.857092 
L 119.107364 206.204523 
L 119.293679 188.288267 
L 119.386837 205.744431 
L 119.479995 204.327841 
L 119.759468 147.663377 
L 119.852626 152.364236 
L 120.411572 219.173769 
L 120.504729 213.659192 
L 120.784202 194.5508 
L 120.970518 152.061833 
L 121.156833 179.851137 
L 121.249991 202.056292 
L 121.622622 165.277901 
L 121.715779 165.758568 
L 121.808937 166.833178 
L 121.995252 166.215212 
L 122.274725 216.433532 
L 122.367883 214.008264 
L 122.647356 173.630814 
L 122.833672 199.407966 
L 123.113145 153.404748 
L 123.29946 191.34194 
L 123.485775 175.333434 
L 123.672091 186.280475 
L 123.858406 159.105542 
L 123.951564 163.572609 
L 124.137879 209.318404 
L 124.231037 203.203636 
L 124.324195 205.468472 
L 124.417352 204.924237 
L 124.51051 207.246896 
L 124.696825 218.686346 
L 124.976298 190.511787 
L 125.162614 164.016595 
L 125.255771 160.030393 
L 125.442087 174.558254 
L 125.535245 173.6926 
L 125.628402 169.9659 
L 125.72156 161.650722 
L 125.814718 165.466601 
L 125.907875 161.731369 
L 126.001033 146.169641 
L 126.373664 185.430556 
L 126.559979 174.497838 
L 126.839452 235.311938 
L 126.93261 229.965375 
L 127.118925 215.966791 
L 127.398398 247.435816 
L 127.491556 247.04931 
L 127.864187 205.117702 
L 127.957344 211.517508 
L 128.050502 209.808591 
L 128.236818 216.861213 
L 128.423133 185.319615 
L 128.702606 114.992677 
L 128.888921 142.782652 
L 129.075237 112.478484 
L 129.261552 157.560062 
L 129.35471 144.2439 
L 129.541025 118.995158 
L 129.727341 102.395947 
L 129.820498 114.541136 
L 129.913656 113.578413 
L 130.099971 97.093845 
L 130.286287 151.90396 
L 130.472602 196.82763 
L 130.56576 206.892929 
L 130.658917 205.784807 
L 130.752075 191.576038 
L 130.845233 202.644822 
L 131.124706 278.302844 
L 131.217864 268.701866 
L 131.404179 227.927427 
L 131.497337 229.581268 
L 131.590494 239.882344 
L 131.683652 228.257584 
L 131.869967 247.487808 
L 131.963125 242.010959 
L 132.14944 224.416589 
L 132.242598 226.385448 
L 132.335756 221.575525 
L 132.428914 226.548254 
L 132.615229 258.479674 
L 132.708387 257.698937 
L 132.98786 211.341725 
L 133.081017 202.333043 
L 133.267333 216.416348 
L 133.546806 147.921956 
L 133.826279 119.080296 
L 133.919437 124.217144 
L 134.012594 140.024953 
L 134.105752 138.357568 
L 134.385225 125.703148 
L 134.478383 139.512758 
L 134.57154 129.473457 
L 134.757856 99.506381 
L 134.944171 131.382257 
L 135.130487 149.890926 
L 135.316802 135.75387 
L 135.40996 138.14298 
L 135.503117 147.874133 
L 135.596275 145.954953 
L 135.689433 153.718901 
L 135.78259 150.740368 
L 135.875748 158.285022 
L 136.062063 199.258816 
L 136.155221 197.643571 
L 136.248379 189.454537 
L 136.341536 191.968134 
L 136.434694 205.605116 
L 136.527852 202.007681 
L 136.62101 188.534513 
L 136.714167 191.332292 
L 136.99364 234.431749 
L 137.086798 238.727895 
L 137.273113 216.057904 
L 137.459429 240.316974 
L 138.018375 175.427795 
L 138.111533 180.853211 
L 138.297848 196.271357 
L 138.484163 224.915381 
L 138.763636 161.150085 
L 138.856794 153.546643 
L 139.136267 193.549256 
L 139.229425 208.760997 
L 139.508898 181.154719 
L 139.695213 169.780017 
L 139.788371 169.94357 
L 139.974686 181.654975 
L 140.161002 173.598379 
L 140.347317 160.382831 
L 140.440475 158.906377 
L 140.533632 150.203989 
L 140.719948 165.036267 
L 140.999421 144.55553 
L 141.372052 203.357975 
L 141.558367 219.295622 
L 141.744682 199.499021 
L 141.83784 205.274767 
L 141.930998 205.248991 
L 142.024155 201.208891 
L 142.396786 160.640121 
L 142.676259 177.57599 
L 142.769417 180.014506 
L 143.04889 161.797028 
L 143.235205 158.745737 
L 143.421521 180.516353 
L 143.514678 182.398696 
L 143.700994 143.53576 
L 143.887309 161.060127 
L 143.980467 157.543652 
L 144.073625 145.372269 
L 144.166782 145.454308 
L 144.446255 216.902265 
L 144.539413 209.209929 
L 144.632571 207.182931 
L 144.725728 213.723779 
L 145.005202 253.785914 
L 145.191517 224.794278 
L 145.47099 159.918407 
L 145.843621 139.078294 
L 146.029936 156.499277 
L 146.216251 187.95128 
L 146.309409 182.316676 
L 146.588882 141.962288 
L 146.68204 144.594732 
L 146.961513 186.363739 
L 147.054671 186.118968 
L 147.240986 181.236525 
L 147.613617 150.770885 
L 147.799932 163.153748 
L 147.986248 146.332839 
L 148.358878 209.159447 
L 148.545194 262.926258 
L 149.10414 189.235114 
L 149.197298 187.366565 
L 149.476771 229.756943 
L 149.569928 230.297048 
L 149.756244 223.401746 
L 149.942559 230.698767 
L 150.128874 214.352114 
L 150.408347 172.070478 
L 150.501505 173.41964 
L 150.594663 176.386242 
L 150.780978 163.884845 
L 150.874136 170.582309 
L 151.246767 152.543981 
L 151.339924 154.077488 
L 151.52624 167.652668 
L 151.619397 163.789332 
L 151.805713 146.768192 
L 151.89887 153.216201 
L 152.085186 181.311713 
L 152.364659 124.869802 
L 152.457817 125.434672 
L 152.73729 166.299698 
L 152.830447 157.19743 
L 153.016763 139.713341 
L 153.10992 146.497196 
L 153.203078 145.135695 
L 153.482551 184.930634 
L 153.575709 181.617129 
L 153.762024 188.344649 
L 153.94834 171.864208 
L 154.134655 202.329849 
L 154.414128 241.891674 
L 154.507286 245.636822 
L 154.693601 224.589256 
L 154.973074 272.636138 
L 155.066232 266.135845 
L 155.252547 231.740089 
L 155.625178 178.508966 
L 155.718336 179.982465 
L 155.811493 174.407506 
L 155.997809 141.820033 
L 156.090966 148.088572 
L 156.184124 170.705902 
L 156.277282 163.975381 
L 156.463597 147.096799 
L 156.556755 145.549576 
L 156.649913 146.226272 
L 156.74307 141.127715 
L 157.022543 153.950257 
L 157.115701 154.429305 
L 157.302016 137.388905 
L 157.488332 121.255491 
L 157.58149 128.621496 
L 157.767805 115.884812 
L 157.860963 121.848354 
L 158.047278 116.409293 
L 158.326751 155.711627 
L 158.419909 146.106934 
L 158.513066 150.065582 
L 158.699382 181.430883 
L 158.792539 177.428189 
L 158.885697 177.525904 
L 158.978855 175.325422 
L 159.351486 189.154442 
L 159.444643 187.064974 
L 159.630959 214.867396 
L 159.724116 211.164148 
L 159.817274 202.353988 
L 160.003589 247.425953 
L 160.283062 210.997044 
L 160.469378 224.692688 
L 160.562536 224.641825 
L 160.655693 235.650496 
L 161.028324 201.689896 
L 161.121482 200.806405 
L 161.307797 226.785415 
L 161.58727 157.839681 
L 161.773585 165.695111 
L 161.866743 156.02669 
L 162.053059 200.716681 
L 162.146216 199.165489 
L 162.425689 186.280005 
L 162.612005 191.007951 
L 162.79832 167.940196 
L 162.891478 169.308621 
L 163.170951 194.041857 
L 163.636739 160.85604 
L 163.916212 188.670005 
L 164.00937 186.411052 
L 164.102528 173.584832 
L 164.195685 184.372941 
L 164.288843 180.898378 
L 164.382001 182.932096 
L 164.661474 223.413827 
L 165.127262 149.643298 
L 165.406735 189.873196 
L 165.499893 201.353917 
L 165.593051 198.500178 
L 165.872524 165.443106 
L 166.151997 191.575365 
L 166.245155 186.965811 
L 166.338312 174.742861 
L 166.524628 177.943399 
L 166.804101 125.224546 
L 166.897258 125.397275 
L 167.083574 157.092466 
L 167.176731 163.051445 
L 167.363047 156.210615 
L 167.549362 138.754606 
L 167.64252 146.773217 
L 167.828835 183.945375 
L 168.015151 168.001865 
L 168.108308 168.987867 
L 168.201466 163.06598 
L 168.294624 169.761887 
L 168.667254 256.61322 
L 168.946728 237.389536 
L 169.133043 203.930318 
L 169.319358 230.982998 
L 169.412516 230.32904 
L 169.505674 229.466783 
L 169.691989 216.382801 
L 169.878304 231.02176 
L 169.971462 227.522676 
L 170.06462 231.478316 
L 170.344093 253.780765 
L 170.437251 246.798181 
L 170.623566 224.71689 
L 170.809881 214.917706 
L 170.903039 217.292735 
L 171.089354 247.517617 
L 171.461985 163.472435 
L 171.555143 163.696082 
L 171.648301 163.346898 
L 171.741458 165.296847 
L 171.834616 170.008424 
L 171.927774 159.520452 
L 172.020931 162.864861 
L 172.114089 161.577384 
L 172.207247 151.637779 
L 172.393562 91.666934 
L 172.48672 94.733389 
L 173.045666 158.143141 
L 173.325139 110.407993 
L 173.511454 135.700513 
L 173.69777 151.723719 
L 173.790927 146.102174 
L 173.977243 175.694562 
L 174.0704 163.879961 
L 174.256716 191.903779 
L 174.349873 196.917761 
L 174.536189 222.985741 
L 174.629347 212.055979 
L 174.722504 218.745012 
L 174.90882 213.044557 
L 175.001977 219.087003 
L 175.095135 216.125728 
L 175.374608 222.883425 
L 175.560923 195.69352 
L 175.747239 202.813455 
L 175.933554 218.858917 
L 176.026712 218.825201 
L 176.213027 183.818977 
L 176.306185 165.979599 
L 176.4925 184.025807 
L 176.771973 152.640436 
L 177.051446 165.828165 
L 177.237762 199.813484 
L 177.33092 198.167768 
L 177.424077 176.257106 
L 177.70355 208.138082 
L 177.796708 208.898703 
L 177.983023 181.309833 
L 178.076181 186.332621 
L 178.262496 216.606206 
L 178.355654 206.458959 
L 178.541969 218.679536 
L 178.635127 200.410731 
L 178.9146 224.597526 
L 179.007758 220.93559 
L 179.287231 261.549378 
L 179.380389 274.861233 
L 179.659862 204.814869 
L 179.753019 204.330491 
L 180.032493 232.089226 
L 180.311966 184.191054 
L 180.591439 152.100692 
L 180.684596 147.301564 
L 180.870912 163.767989 
L 180.964069 157.764602 
L 181.243542 173.802992 
L 181.3367 171.221142 
L 181.895646 114.611032 
L 182.454592 173.327186 
L 182.54775 172.342138 
L 182.640908 172.440438 
L 182.827223 149.503048 
L 183.386169 204.821979 
L 183.479327 187.43201 
L 183.945115 244.591406 
L 184.038273 241.393409 
L 184.224588 262.456728 
L 184.410904 230.09437 
L 184.504062 233.077417 
L 184.597219 232.472007 
L 184.690377 238.232765 
L 184.783535 236.90524 
L 184.96985 196.491061 
L 185.063008 197.715952 
L 185.156165 200.782091 
L 185.435638 222.979202 
L 185.621954 195.503162 
L 185.715112 199.737301 
L 185.994585 188.654696 
L 186.1809 150.105267 
L 186.367215 168.209938 
L 186.460373 183.170259 
L 186.553531 179.23436 
L 186.739846 143.160713 
L 186.926161 132.316959 
L 187.019319 136.219368 
L 187.112477 135.222549 
L 187.298792 159.147594 
L 187.39195 161.459665 
L 187.671423 142.183061 
L 187.857738 149.747328 
L 187.950896 145.810817 
L 188.044054 149.84026 
L 188.230369 167.517132 
L 188.416684 153.700523 
L 188.509842 153.345448 
L 188.789315 168.010757 
L 188.882473 179.876641 
L 189.068788 228.02922 
L 189.161946 226.159817 
L 189.348261 205.676675 
L 189.441419 186.737005 
L 189.534577 195.627896 
L 189.720892 239.785149 
L 190.000365 204.485963 
L 190.093523 202.153414 
L 190.372996 255.111468 
L 190.466154 250.987388 
L 190.559311 243.10282 
L 190.838784 192.341137 
L 190.931942 182.530597 
L 191.0251 199.908931 
L 191.397731 149.568673 
L 191.490888 148.078377 
L 191.584046 142.357845 
L 191.677204 143.219747 
L 191.863519 153.289757 
L 192.329307 106.099014 
L 192.701938 166.563649 
L 192.888254 151.494775 
L 193.167727 189.80171 
L 193.354042 219.725897 
L 193.633515 183.519438 
L 193.726673 187.373445 
L 194.006146 163.055228 
L 194.192461 150.353508 
L 194.565092 204.275759 
L 194.65825 203.519563 
L 194.751407 199.723905 
L 194.937723 171.153955 
L 195.03088 171.2765 
L 195.124038 169.997292 
L 195.403511 189.900109 
L 195.496669 182.934989 
L 195.589827 183.436973 
L 195.682984 181.658292 
L 195.776142 185.166079 
L 195.8693 195.887895 
L 196.055615 172.299177 
L 196.148773 169.690959 
L 196.335088 191.703154 
L 196.428246 184.481137 
L 196.707719 107.091747 
L 196.800876 108.033776 
L 196.987192 113.104569 
L 197.173507 105.809622 
L 197.45298 132.760131 
L 197.546138 125.177261 
L 197.732453 142.14824 
L 197.825611 138.966344 
L 198.011926 162.038276 
L 198.105084 150.97783 
L 198.384557 190.159392 
L 198.477715 202.080954 
L 198.570873 196.372805 
L 198.850346 239.166992 
L 198.943503 232.980381 
L 199.129819 212.635828 
L 199.222976 214.642208 
L 199.595607 273.252906 
L 199.688765 276.840436 
L 199.968238 231.610292 
L 200.154553 252.43813 
L 200.340869 242.095984 
L 200.527184 248.840558 
L 200.806657 202.982163 
L 200.899815 208.927901 
L 201.08613 171.873132 
L 201.179288 182.460207 
L 201.272446 193.04197 
L 201.458761 171.611877 
L 201.831392 114.30204 
L 201.924549 114.727578 
L 202.017707 109.818618 
L 202.204022 95.365892 
L 202.483496 129.049866 
L 202.576653 125.639536 
L 202.762969 104.217474 
L 202.856126 105.762678 
L 202.949284 113.643962 
L 203.135599 146.273505 
L 203.228757 148.35281 
L 203.694545 180.129457 
L 203.880861 194.56766 
L 203.974019 213.87577 
L 204.346649 184.526769 
L 204.439807 187.499586 
L 204.626122 141.102249 
L 204.71928 151.093678 
L 204.998753 207.477709 
L 205.091911 211.24363 
L 205.185068 221.411284 
L 205.278226 219.017097 
L 205.464542 226.003449 
L 205.650857 215.102515 
L 205.744015 215.396524 
L 205.837172 210.459195 
L 205.93033 193.129095 
L 206.023488 194.324658 
L 206.116645 191.739132 
L 206.209803 194.143253 
L 206.582434 155.121635 
L 206.861907 181.913429 
L 206.955065 178.735235 
L 207.420853 112.981265 
L 207.607168 139.277293 
L 207.700326 123.278528 
L 207.793484 127.098188 
L 208.072957 186.716171 
L 208.259272 196.340661 
L 208.445588 165.922527 
L 208.538745 172.191395 
L 208.911376 237.18571 
L 209.097691 193.515358 
L 209.190849 194.725037 
L 209.377164 206.119341 
L 209.656638 187.448226 
L 209.936111 213.200468 
L 210.215584 185.257016 
L 210.308741 184.68566 
L 210.401899 188.173558 
L 210.588214 170.131355 
L 210.681372 174.007622 
L 210.77453 193.647068 
L 210.867687 185.39442 
L 211.054003 192.454166 
L 211.147161 192.524149 
L 211.240318 186.329978 
L 211.333476 167.391327 
L 211.706107 200.426819 
L 212.078737 153.25714 
L 212.171895 160.306229 
L 212.358211 148.01302 
L 212.451368 152.87016 
L 212.544526 154.506859 
L 212.637684 144.718393 
L 213.010314 181.787894 
L 213.19663 183.49946 
L 213.382945 223.258963 
L 213.476103 222.563178 
L 213.662418 191.957049 
L 213.755576 190.100158 
L 213.848734 193.454043 
L 214.128207 211.058085 
L 214.314522 201.376399 
L 214.500837 185.681545 
L 214.78031 181.993159 
L 214.966626 196.076808 
L 215.059783 196.095337 
L 215.246099 176.134906 
L 215.339257 163.063897 
L 215.432414 164.693493 
L 215.898203 221.153113 
L 215.99136 221.122801 
L 216.177676 208.82308 
L 216.270833 208.466974 
L 216.457149 197.527547 
L 216.550307 198.690867 
L 216.643464 194.689152 
L 216.736622 197.034833 
L 217.016095 227.389902 
L 217.481883 153.200081 
L 217.575041 159.971667 
L 218.133987 253.178778 
L 218.227145 260.10556 
L 218.41346 226.46587 
L 218.506618 231.267428 
L 219.065564 127.842769 
L 219.158722 133.402387 
L 219.251879 135.288649 
L 219.345037 130.013961 
L 219.438195 136.625387 
L 219.531353 133.925832 
L 219.903983 170.610886 
L 219.997141 166.55762 
L 220.183456 156.486232 
L 220.276614 166.680877 
L 220.369772 164.387692 
L 220.649245 201.439051 
L 220.928718 239.024113 
L 221.115033 242.9477 
L 221.208191 254.068401 
L 221.301349 250.78787 
L 221.580822 197.112577 
L 221.673979 196.251891 
L 221.953452 171.172929 
L 222.04661 168.519192 
L 222.139768 185.846494 
L 222.232926 184.897911 
L 222.512399 119.260636 
L 222.698714 142.053521 
L 222.791872 138.682972 
L 223.071345 178.225576 
L 223.350818 146.223662 
L 224.002922 226.52194 
L 224.096079 225.813258 
L 224.189237 240.314099 
L 224.282395 234.863348 
L 224.375552 220.337911 
L 224.655025 239.027923 
L 224.841341 269.303897 
L 224.934499 275.411697 
L 225.027656 275.129097 
L 225.120814 269.85688 
L 225.493445 190.885762 
L 225.586602 189.859648 
L 225.772918 212.825177 
L 225.959233 209.898752 
L 226.238706 156.073033 
L 226.331864 165.160749 
L 226.425022 164.160053 
L 226.518179 150.85876 
L 226.611337 153.584909 
L 226.797652 132.214711 
L 227.077125 151.143535 
L 227.170283 143.954719 
L 227.356598 165.362141 
L 227.542914 140.892302 
L 227.636071 142.750946 
L 227.729229 136.581389 
L 227.822387 140.353109 
L 227.915545 139.08977 
L 228.10186 120.684662 
L 228.288175 139.665325 
L 228.381333 138.964148 
L 228.660806 171.126031 
L 228.753964 184.65418 
L 228.940279 166.155827 
L 229.033437 170.186417 
L 229.31291 227.602928 
L 229.406068 219.124568 
L 229.592383 197.780574 
L 229.778698 230.607207 
L 229.871856 233.612716 
L 229.965014 230.840614 
L 230.244487 186.918054 
L 230.337644 197.018007 
L 230.617118 215.490207 
L 230.710275 213.112168 
L 230.803433 217.377328 
L 230.896591 210.668074 
L 231.176064 222.651996 
L 231.455537 172.485415 
L 231.548694 176.589591 
L 231.641852 186.360419 
L 231.73501 179.503734 
L 231.921325 208.169196 
L 232.200798 187.80543 
L 232.480271 223.042573 
L 233.132375 127.946676 
L 233.31869 158.441878 
L 233.505006 116.3997 
L 233.598164 120.917446 
L 233.691321 128.208628 
L 233.877637 162.97715 
L 233.970794 164.568956 
L 234.15711 154.480924 
L 234.436583 187.296098 
L 234.716056 235.099322 
L 234.809214 232.302767 
L 234.995529 224.556986 
L 235.088687 226.873314 
L 235.181844 232.269506 
L 235.275002 223.12979 
L 235.461317 228.420749 
L 235.927106 169.881148 
L 236.206579 214.1685 
L 236.765525 181.300644 
L 236.858683 179.889423 
L 236.95184 173.240541 
L 237.138156 140.140478 
L 237.324471 151.729369 
L 237.417629 152.377677 
L 237.697102 147.917075 
L 237.883417 120.893562 
L 238.069733 141.265671 
L 238.535521 177.948487 
L 238.721836 169.847024 
L 238.814994 164.038546 
L 238.908152 174.70892 
L 239.00131 170.989806 
L 239.187625 185.866693 
L 239.280783 183.142777 
L 239.560256 225.583354 
L 239.746571 232.907711 
L 239.839729 233.807806 
L 240.026044 224.326047 
L 240.212359 248.777342 
L 240.305517 234.142141 
L 240.398675 235.990384 
L 240.771306 191.97405 
L 240.864463 192.128881 
L 240.957621 200.230315 
L 241.050779 199.856615 
L 241.143936 200.342126 
L 241.330252 215.231158 
L 241.609725 188.312341 
L 241.79604 168.661885 
L 241.889198 183.285963 
L 242.075513 165.856641 
L 242.261829 136.726925 
L 242.354986 140.457592 
L 242.541302 160.316584 
L 242.634459 161.960409 
L 242.727617 155.121546 
L 242.913932 184.456549 
L 243.00709 183.498133 
L 243.286563 197.430249 
L 243.379721 186.868109 
L 243.472879 192.847478 
L 243.659194 227.911437 
L 244.031825 208.354522 
L 244.404455 247.2652 
L 244.590771 236.936479 
L 244.683929 238.916152 
L 244.777086 234.012957 
L 244.963402 197.281109 
L 245.149717 224.726202 
L 245.615505 162.862999 
L 245.708663 168.719093 
L 245.894978 162.330491 
L 245.988136 167.09626 
L 246.360767 124.305807 
L 246.547082 97.60257 
L 246.64024 94.816018 
L 247.106028 165.548476 
L 247.292344 155.111198 
L 247.385501 160.071522 
L 247.664975 194.172755 
L 247.758132 195.913533 
L 247.944448 230.648969 
L 248.130763 213.795165 
L 248.223921 214.043076 
L 248.317078 212.560549 
L 248.410236 208.15913 
L 248.782867 229.031771 
L 248.969182 259.628523 
L 249.155498 242.531617 
L 249.248655 242.276142 
L 249.434971 229.885685 
L 249.714444 170.84253 
L 249.807601 167.641742 
L 249.900759 173.520958 
L 249.993917 167.08761 
L 250.180232 120.398825 
L 250.366548 95.344732 
L 251.018651 179.009044 
L 251.111809 170.385397 
L 251.298124 145.261438 
L 251.391282 138.405043 
L 251.670755 177.566012 
L 251.763913 178.518027 
L 252.229701 221.467825 
L 252.416017 259.64292 
L 252.602332 232.995294 
L 252.881805 169.344307 
L 253.254436 232.242269 
L 253.347594 234.426648 
L 253.720224 191.209468 
L 253.813382 193.114786 
L 253.90654 200.91684 
L 254.092855 229.500261 
L 254.372328 151.530013 
L 254.465486 151.638662 
L 254.558644 163.191478 
L 254.744959 154.918886 
L 255.024432 187.376559 
L 255.210747 120.512199 
L 255.303905 122.418634 
L 255.397063 130.810458 
L 255.49022 125.129715 
L 255.583378 126.036024 
L 255.676536 121.518556 
L 255.769693 125.334753 
L 256.142324 199.265955 
L 256.32864 195.684717 
L 256.514955 178.932496 
L 256.608113 187.32157 
L 256.794428 215.052915 
L 256.887586 215.707302 
L 256.980743 206.690293 
L 257.167059 175.432008 
L 257.260217 175.268917 
L 257.446532 180.356446 
L 257.632847 200.15428 
L 257.819163 175.138267 
L 258.005478 205.247055 
L 258.191793 178.027039 
L 258.471266 124.380476 
L 258.75074 180.620901 
L 258.843897 166.921664 
L 258.937055 142.365013 
L 259.12337 155.188269 
L 259.309686 181.671957 
L 259.402843 183.421719 
L 259.589159 196.729794 
L 259.682316 192.27514 
L 259.775474 193.017934 
L 259.961789 222.340547 
L 260.054947 221.03817 
L 260.241263 214.011052 
L 260.427578 234.809128 
L 260.707051 200.525214 
L 260.800209 201.034984 
L 260.893366 202.761656 
L 261.172839 274.139247 
L 261.359155 224.845524 
L 261.54547 188.701522 
L 261.638628 181.966249 
L 261.824943 209.76081 
L 261.918101 221.403832 
L 262.011259 219.743552 
L 262.104416 220.514156 
L 262.197574 223.102931 
L 262.477047 188.368982 
L 262.570205 186.411689 
L 262.75652 172.474569 
L 262.849678 176.164949 
L 263.035993 143.374621 
L 263.129151 146.543813 
L 263.315466 167.009316 
L 263.501782 172.686129 
L 263.688097 200.233351 
L 263.781255 184.744883 
L 263.96757 198.133141 
L 264.060728 196.816129 
L 264.619674 70.740197 
L 264.712832 75.007883 
L 265.085462 115.395921 
L 265.17862 116.075766 
L 265.458093 164.665574 
L 265.551251 156.882121 
L 265.644409 131.882021 
L 265.737566 133.705532 
L 266.110197 191.169577 
L 266.203355 188.204964 
L 266.296512 182.701424 
L 266.669143 257.963568 
L 266.762301 252.316805 
L 266.948616 224.529846 
L 267.041774 228.585806 
L 267.134932 227.817122 
L 267.321247 220.023736 
L 267.60072 231.992648 
L 267.693878 229.601104 
L 267.787035 219.831802 
L 267.973351 174.566367 
L 268.066508 176.715307 
L 268.159666 183.564345 
L 268.252824 177.008797 
L 268.439139 152.302442 
L 268.532297 157.28045 
L 268.625455 155.013407 
L 268.718612 159.328283 
L 268.904928 194.9531 
L 268.998085 197.667274 
L 269.091243 195.889937 
L 269.184401 210.506096 
L 269.277558 205.849724 
L 269.463874 183.999561 
L 269.650189 181.732699 
L 269.743347 173.145209 
L 269.836504 174.835211 
L 270.02282 147.923615 
L 270.395451 204.349564 
L 270.488608 200.359387 
L 270.581766 200.900832 
L 270.674924 211.978266 
L 270.861239 178.652805 
L 270.954397 183.459504 
L 271.23387 235.535518 
L 271.699658 168.574507 
L 271.792816 166.200383 
L 271.885974 167.268518 
L 272.072289 141.663325 
L 272.165447 144.721732 
L 272.44492 111.308497 
L 272.631235 107.191165 
L 272.724393 116.73014 
L 273.097024 211.327655 
L 273.283339 196.378307 
L 273.469654 161.843882 
L 273.562812 159.590322 
L 273.749127 170.54838 
L 273.842285 167.140933 
L 273.935443 155.312589 
L 274.0286 161.538005 
L 274.214916 181.616937 
L 274.587547 223.429445 
L 275.053335 183.418335 
L 275.146493 180.364778 
L 275.23965 181.69259 
L 275.519124 219.327292 
L 275.705439 186.030399 
L 275.798597 189.380151 
L 275.984912 192.971122 
L 276.07807 189.672233 
L 276.264385 164.325118 
L 276.357543 162.034152 
L 276.543858 187.666989 
L 276.637016 187.228406 
L 276.730173 186.790812 
L 276.916489 204.628289 
L 277.195962 164.192199 
L 277.475435 208.90299 
L 277.66175 194.078606 
L 277.848066 205.876029 
L 278.127539 172.70685 
L 278.220696 157.403425 
L 278.313854 157.590169 
L 278.407012 159.02224 
L 278.593327 163.364261 
L 278.779643 151.372271 
L 279.059116 169.215878 
L 279.152273 161.491686 
L 279.338589 181.988817 
L 279.431746 176.332461 
L 279.524904 178.422115 
L 279.71122 195.619778 
L 279.897535 159.444176 
L 279.990693 171.749414 
L 280.177008 230.395008 
L 280.270166 225.28076 
L 280.735954 172.393894 
L 280.829112 168.355261 
L 280.922269 175.138802 
L 281.015427 194.508328 
L 281.108585 194.207236 
L 281.201743 190.99363 
L 281.388058 177.318801 
L 281.481216 177.900119 
L 281.574373 177.687744 
L 281.667531 177.861744 
L 282.040162 153.763856 
L 282.226477 202.014704 
L 282.692266 171.943459 
L 282.785423 174.335603 
L 282.878581 160.323013 
L 282.971739 161.830173 
L 283.064896 177.240714 
L 283.158054 176.64217 
L 283.251212 185.52165 
L 283.344369 184.591389 
L 283.437527 171.987482 
L 283.717 188.165316 
L 283.810158 196.447243 
L 283.996473 189.540145 
L 284.089631 189.808733 
L 284.369104 228.576788 
L 284.462262 224.345558 
L 284.648577 191.039296 
L 284.741735 182.386927 
L 284.834892 186.635515 
L 285.021208 201.669656 
L 285.114365 201.348176 
L 285.207523 204.778206 
L 285.300681 199.573949 
L 285.580154 140.22215 
L 286.045942 188.924827 
L 286.1391 184.923436 
L 286.325415 172.242457 
L 286.604888 228.976625 
L 286.698046 227.022756 
L 286.884362 208.177192 
L 287.070677 190.168858 
L 287.163835 194.187356 
L 287.256992 193.455733 
L 287.629623 150.206788 
L 287.722781 136.642352 
L 287.815938 148.46894 
L 288.002254 192.322059 
L 288.468042 128.89044 
L 288.5612 135.091462 
L 288.747515 150.546947 
L 288.840673 149.800456 
L 289.026988 143.86854 
L 289.306461 199.509109 
L 289.492777 149.428726 
L 289.585935 152.260168 
L 290.051723 239.552741 
L 290.424354 269.395833 
L 290.517511 272.656069 
L 290.610669 279.869532 
L 290.703827 272.871386 
L 290.9833 212.205723 
L 291.076458 199.019159 
L 291.355931 136.437973 
L 291.728561 99.513952 
L 291.914877 121.338098 
L 292.101192 140.808689 
L 292.473823 87.262602 
L 292.566981 88.596885 
L 292.846454 151.434583 
L 293.032769 162.677298 
L 293.219084 186.000937 
L 293.4054 164.03774 
L 293.591715 196.232622 
L 293.871188 248.117513 
L 293.964346 251.102593 
L 294.057504 241.971285 
L 294.150661 247.73017 
L 294.243819 244.452792 
L 294.430134 220.015926 
L 294.523292 221.539885 
L 294.61645 231.811035 
L 294.709607 231.234436 
L 294.802765 231.057462 
L 294.98908 207.429667 
L 295.175396 220.268714 
L 295.361711 205.534656 
L 295.454869 207.462532 
L 295.548027 193.792685 
L 295.734342 207.366519 
L 295.8275 218.173779 
L 296.013815 207.728247 
L 296.106973 208.441634 
L 296.20013 208.146694 
L 296.479603 151.399046 
L 296.759077 72.94876 
L 296.852234 61.123104 
L 296.945392 65.21118 
L 297.03855 63.614058 
L 297.131707 53.568 
L 297.224865 58.968565 
L 297.41118 77.58697 
L 297.597496 85.874019 
L 297.876969 123.773944 
L 298.063284 123.20794 
L 298.156442 135.731093 
L 298.2496 132.804304 
L 298.435915 136.391394 
L 298.529073 135.818564 
L 299.088019 275.638937 
L 299.553807 234.129356 
L 299.646965 239.260699 
L 299.740123 251.863091 
L 300.019596 209.94036 
L 300.205911 225.111531 
L 300.299069 218.623785 
L 300.392226 221.021989 
L 300.485384 215.357674 
L 300.671699 158.45678 
L 300.764857 163.863645 
L 300.858015 162.051377 
L 300.951173 154.561005 
L 301.137488 178.729293 
L 301.230646 179.288006 
L 301.323803 176.246882 
L 301.603276 200.010716 
L 301.882749 184.215726 
L 301.975907 168.918198 
L 302.162223 179.892429 
L 302.25538 167.299699 
L 302.348538 169.680398 
L 302.534853 151.043595 
L 302.907484 179.446655 
L 303.000642 173.572693 
L 303.093799 175.226238 
L 303.280115 211.16189 
L 303.373272 203.780968 
L 303.46643 211.656003 
L 303.652746 201.627781 
L 303.745903 199.021679 
L 304.025376 173.697941 
L 304.118534 197.85573 
L 304.211692 195.55369 
L 304.304849 195.987999 
L 304.584322 232.602779 
L 304.67748 227.782746 
L 304.863795 187.766601 
L 304.956953 217.699397 
L 305.050111 215.823831 
L 305.236426 189.318215 
L 305.329584 191.519533 
L 305.422742 187.409467 
L 305.515899 188.538323 
L 305.702215 167.197709 
L 305.88853 154.46869 
L 306.074845 169.602086 
L 306.168003 182.736437 
L 306.633792 75.375439 
L 306.726949 83.746686 
L 306.913265 113.271224 
L 307.006422 118.331549 
L 307.192738 155.579266 
L 307.379053 183.373793 
L 307.472211 180.838125 
L 307.565368 182.76679 
L 307.658526 179.566225 
L 307.751684 181.512826 
L 307.937999 202.950667 
L 308.217472 169.514888 
L 308.31063 172.181739 
L 308.496945 188.822566 
L 308.590103 190.642404 
L 308.776418 161.722355 
L 308.869576 164.58428 
L 309.149049 213.927881 
L 309.242207 216.284774 
L 309.428522 199.998595 
L 309.52168 198.355664 
L 309.707995 213.776461 
L 309.801153 209.341856 
L 310.080626 166.638514 
L 310.173784 172.680708 
L 310.360099 188.564825 
L 310.639572 139.913137 
L 310.73273 138.066177 
L 310.919045 164.400214 
L 311.012203 161.194557 
L 311.105361 165.986228 
L 311.477991 220.912896 
L 311.757464 201.774095 
L 312.036938 169.217998 
L 312.130095 175.079645 
L 312.316411 164.786463 
L 312.409568 169.475516 
L 312.502726 168.454272 
L 312.595884 168.641235 
L 312.782199 144.229552 
L 312.968514 175.278821 
L 313.061672 177.019622 
L 313.341145 138.825825 
L 313.620618 172.126026 
L 313.900091 212.881521 
L 313.993249 217.062319 
L 314.179564 255.024572 
L 314.73851 200.594655 
L 314.924826 160.963594 
L 315.111141 181.436596 
L 315.297457 204.120652 
L 315.390614 198.626275 
L 315.57693 218.555369 
L 315.670087 213.447492 
L 315.94956 183.960338 
L 316.042718 183.842158 
L 316.415349 148.925533 
L 316.508507 143.426295 
L 316.601664 146.990263 
L 316.78798 175.398956 
L 316.974295 159.635522 
L 317.253768 104.549633 
L 317.626399 161.670805 
L 317.812714 213.268323 
L 317.99903 198.086993 
L 318.185345 207.445994 
L 318.37166 162.439435 
L 318.464818 166.950297 
L 318.557976 168.945223 
L 318.651133 174.646541 
L 319.023764 233.444739 
L 319.116922 235.18331 
L 319.489553 178.298555 
L 319.58271 175.936362 
L 320.048499 236.916783 
L 320.327972 197.927326 
L 320.79376 247.244554 
L 320.886918 250.902532 
L 320.980076 244.443743 
L 321.166391 249.07531 
L 321.259549 244.484124 
L 321.539022 201.824145 
L 321.632179 198.554339 
L 321.725337 189.20343 
L 321.911653 213.446642 
L 322.00481 212.840838 
L 322.563756 125.693831 
L 322.656914 129.767962 
L 322.936387 110.846842 
L 323.029545 95.573587 
L 323.402176 139.964656 
L 323.588491 132.937628 
L 323.681649 107.101449 
L 323.774806 107.613506 
L 323.867964 118.195183 
L 323.961122 112.926774 
L 324.054279 115.124356 
L 324.147437 101.779373 
L 324.240595 101.906074 
L 324.520068 146.094359 
L 324.799541 173.692462 
L 324.985856 207.054047 
L 325.079014 206.400603 
L 325.358487 195.241831 
L 325.451645 201.871431 
L 325.63796 237.185864 
L 325.731118 233.6008 
L 326.010591 290.769735 
L 326.103749 284.972277 
L 326.290064 242.689887 
L 326.383222 240.89834 
L 326.569537 252.290853 
L 326.662695 251.763358 
L 326.755852 255.714326 
L 327.221641 173.553528 
L 327.501114 201.684429 
L 327.873745 140.551136 
L 328.246375 173.184503 
L 328.339533 173.422105 
L 328.432691 178.63628 
L 328.525848 173.502165 
L 328.619006 159.936112 
L 328.805322 193.887874 
L 329.27111 150.620188 
L 329.364268 150.876165 
L 329.550583 154.206111 
L 329.643741 161.921734 
L 329.736898 149.941642 
L 329.923214 193.852936 
L 330.016371 190.436893 
L 330.202687 161.658385 
L 330.295845 161.841831 
L 330.389002 154.055401 
L 330.48216 171.838059 
L 330.668475 156.709604 
L 330.761633 171.177564 
L 330.947948 144.727732 
L 331.041106 147.586388 
L 331.227421 163.922635 
L 331.413737 171.68926 
L 331.600052 164.593444 
L 332.158998 233.265597 
L 332.252156 232.639121 
L 332.345314 238.243343 
L 332.624787 202.53354 
L 332.811102 218.564806 
L 332.90426 215.050201 
L 333.090575 221.914517 
L 333.276891 217.964733 
L 333.370048 213.410084 
L 333.835837 147.432321 
L 334.022152 170.100814 
L 334.394783 129.114441 
L 334.674256 179.469939 
L 334.767414 177.149631 
L 334.860571 169.97545 
L 335.233202 195.183637 
L 335.32636 197.889571 
L 335.512675 216.208092 
L 335.605833 217.160281 
L 335.792148 230.311476 
L 336.071621 192.400949 
L 336.257937 200.996709 
L 336.351094 202.828344 
L 336.53741 218.135672 
L 336.630567 205.719401 
L 336.723725 208.504158 
L 336.816883 201.576164 
L 337.003198 178.022715 
L 337.096356 175.832606 
L 337.282671 196.876041 
L 337.375829 215.206141 
L 337.468987 211.153415 
L 337.655302 187.958697 
L 337.74846 199.078868 
L 337.934775 175.00307 
L 338.027933 175.10475 
L 338.12109 177.553794 
L 338.493721 129.888997 
L 338.586879 134.065175 
L 338.773194 115.643365 
L 338.866352 125.116245 
L 338.95951 124.600961 
L 339.052667 127.536877 
L 339.145825 138.867019 
L 339.33214 133.767082 
L 339.704771 173.794867 
L 339.984244 222.817064 
L 340.077402 218.597625 
L 340.729506 134.936268 
L 340.822663 142.441502 
L 341.102136 216.439301 
L 341.195294 212.697266 
L 341.288452 202.6536 
L 341.381609 206.506589 
L 341.567925 222.21403 
L 341.75424 216.483713 
L 341.847398 223.497812 
L 342.033713 258.368921 
L 342.126871 252.167679 
L 342.406344 212.336968 
L 342.685817 193.563993 
L 342.778975 195.414213 
L 342.96529 177.992427 
L 343.058448 180.287854 
L 343.151606 177.767007 
L 343.244763 171.364343 
L 343.524236 118.187699 
L 343.803709 190.749205 
L 343.990025 230.577666 
L 344.17634 192.9065 
L 344.455813 146.755199 
L 344.548971 138.435739 
L 344.735286 97.335245 
L 345.014759 83.140133 
L 345.201075 103.316154 
L 345.294232 92.77569 
L 345.38739 102.583265 
L 345.760021 182.272826 
L 345.853179 182.55888 
L 346.132652 159.772993 
L 346.225809 162.103859 
L 346.318967 158.323601 
L 346.412125 147.490286 
L 346.505282 158.298746 
L 346.691598 202.123049 
L 347.064229 160.606691 
L 347.250544 146.560575 
L 347.530017 157.43724 
L 347.716332 176.384992 
L 347.902648 167.869241 
L 347.995805 169.641262 
L 348.275278 193.205911 
L 348.461594 204.589322 
L 348.741067 180.786468 
L 348.834225 182.850734 
L 348.927382 196.018927 
L 349.02054 190.663824 
L 349.113698 193.281135 
L 349.393171 233.625079 
L 349.579486 222.114242 
L 349.672644 222.831285 
L 349.765801 227.31706 
L 349.952117 209.86024 
L 350.045275 210.319423 
L 350.138432 207.789886 
L 350.23159 208.151178 
L 350.417905 191.112016 
L 350.697378 213.280063 
L 350.790536 205.552626 
L 351.070009 169.266251 
L 351.256325 171.760649 
L 351.44264 152.070575 
L 351.535798 160.348333 
L 352.001586 112.906774 
L 352.094744 119.381067 
L 352.281059 150.153986 
L 352.560532 88.926294 
L 352.65369 95.391758 
L 352.933163 140.443392 
L 353.026321 139.929915 
L 353.119478 144.821034 
L 353.212636 136.405962 
L 353.398951 140.743933 
L 353.492109 140.324569 
L 353.86474 166.260607 
L 354.144213 195.33895 
L 354.423686 219.019601 
L 354.516844 215.776414 
L 354.703159 191.255259 
L 354.982632 212.451073 
L 355.07579 208.432637 
L 355.355263 238.909573 
L 355.541578 196.005815 
L 355.634736 202.997887 
L 355.727894 200.283159 
L 355.821051 190.696827 
L 355.914209 197.966645 
L 356.007367 195.499512 
L 356.100524 196.705705 
L 356.193682 202.394757 
L 356.28684 197.657675 
L 356.473155 220.281286 
L 356.566313 214.655908 
L 356.65947 219.318976 
L 356.752628 213.74397 
L 357.032101 177.030401 
L 357.125259 184.710958 
L 357.311574 223.978012 
L 357.49789 199.504351 
L 357.591047 202.45333 
L 357.684205 185.160779 
L 357.777363 186.677497 
L 358.056836 235.419553 
L 358.615782 158.752203 
L 358.802097 188.887609 
L 358.895255 170.206503 
L 359.08157 183.67718 
L 359.174728 183.337095 
L 359.361043 193.247892 
L 359.454201 182.080861 
L 359.547359 182.1318 
L 359.733674 205.734105 
L 359.91999 187.164561 
L 360.013147 177.355944 
L 360.106305 178.061551 
L 360.199463 182.037626 
L 360.29262 177.391979 
L 360.385778 179.965028 
L 360.478936 166.858032 
L 361.13104 209.268317 
L 361.317355 176.173938 
L 361.50367 204.125649 
L 361.783143 240.625928 
L 362.342089 141.847296 
L 362.435247 145.172104 
L 362.528405 144.6352 
L 362.71472 120.588035 
L 363.366824 211.447375 
L 363.553139 184.447406 
L 363.739455 217.274602 
L 363.832612 208.733495 
L 363.92577 216.373316 
L 364.112086 213.144079 
L 364.484716 184.571755 
L 364.671032 212.176346 
L 364.764189 205.027327 
L 364.857347 199.598313 
L 365.229978 150.903713 
L 365.416293 168.252432 
L 365.509451 170.833552 
L 365.695766 147.831384 
L 365.788924 157.292993 
L 365.975239 199.136298 
L 366.068397 193.618337 
L 366.161555 197.182849 
L 366.254712 188.811805 
L 366.34787 197.148474 
L 366.627343 235.834237 
L 366.906816 187.386017 
L 367.093132 215.72483 
L 367.186289 233.201933 
L 367.465762 201.80157 
L 367.55892 208.100461 
L 367.652078 203.557433 
L 367.745235 191.00564 
L 367.931551 118.105962 
L 368.024708 119.422139 
L 368.117866 124.997865 
L 368.211024 148.622201 
L 368.304182 145.857735 
L 368.490497 95.341534 
L 368.583655 97.97035 
L 368.676812 95.02971 
L 368.863128 134.387276 
L 369.049443 107.84321 
L 369.328916 122.518513 
L 369.608389 162.19436 
L 369.794705 173.162836 
L 369.887862 165.144176 
L 370.260493 225.867732 
L 370.353651 215.543154 
L 370.446808 216.782895 
L 370.539966 220.798123 
L 370.633124 219.411784 
L 370.726281 216.217727 
L 371.005755 255.656258 
L 371.19207 240.452154 
L 371.285228 241.06205 
L 371.378385 237.350369 
L 371.657858 196.900852 
L 371.751016 196.781579 
L 371.937331 184.428576 
L 372.216804 212.785509 
L 372.309962 210.785853 
L 372.496278 205.776836 
L 372.589435 207.672435 
L 372.775751 216.759258 
L 372.962066 178.475625 
L 373.055224 182.734706 
L 373.148381 177.903042 
L 373.521012 104.059018 
L 373.61417 107.754119 
L 373.893643 144.842575 
L 373.986801 135.665131 
L 374.266274 151.404398 
L 374.359431 150.262142 
L 374.452589 137.905561 
L 374.545747 140.778115 
L 374.638904 138.921612 
L 374.732062 143.351819 
L 374.82522 156.01547 
L 374.918377 155.77708 
L 375.104693 117.646744 
L 375.291008 147.411356 
L 375.570481 123.720772 
L 375.943112 161.873853 
L 376.03627 160.671735 
L 376.129427 167.276756 
L 376.315743 208.64486 
L 376.502058 194.329205 
L 376.595216 198.28908 
L 376.781531 227.890534 
L 376.874689 224.065284 
L 377.061004 194.327229 
L 377.340477 227.607021 
L 377.433635 227.34252 
L 377.526793 209.215623 
L 377.713108 219.955086 
L 377.806266 226.153386 
L 377.899424 220.3538 
L 378.085739 202.852824 
L 378.272054 192.299293 
L 378.365212 195.129474 
L 378.644685 255.039947 
L 378.924158 227.786962 
L 379.110473 204.373249 
L 379.296789 192.54706 
L 379.576262 141.789629 
L 379.66942 141.195376 
L 379.762577 150.902569 
L 379.855735 149.815775 
L 380.04205 123.145292 
L 380.228366 150.688437 
L 380.414681 132.230667 
L 380.694154 177.661571 
L 380.787312 182.344962 
L 380.973627 198.624489 
L 381.2531 148.128947 
L 381.346258 151.480617 
L 381.439416 147.835821 
L 381.718889 119.625278 
L 381.812046 120.142641 
L 381.905204 122.913524 
L 382.091519 158.920097 
L 382.277835 189.646823 
L 382.370993 185.129209 
L 382.650466 157.446336 
L 382.743623 157.71632 
L 382.929939 182.699544 
L 383.116254 138.278099 
L 383.302569 181.692569 
L 383.488885 204.785121 
L 383.582043 200.021488 
L 383.6752 176.503208 
L 383.768358 184.819853 
L 383.861516 218.305204 
L 383.954673 213.645261 
L 384.140989 214.774586 
L 384.420462 234.137929 
L 384.513619 232.756125 
L 384.699935 219.848053 
L 384.793092 221.06753 
L 384.88625 224.930848 
L 384.979408 222.480219 
L 385.165723 196.126883 
L 385.258881 196.588129 
L 385.352039 192.324667 
L 385.724669 139.099325 
L 386.004142 118.048687 
L 386.0973 109.885309 
L 386.563089 169.703203 
L 386.656246 170.154169 
L 387.028877 202.497759 
L 387.30835 187.858369 
L 387.401508 190.616689 
L 387.587823 188.50319 
L 388.053612 152.878878 
L 388.146769 152.383617 
L 388.5194 206.905056 
L 388.798873 178.124818 
L 388.985188 147.977412 
L 389.078346 156.022169 
L 389.264662 196.220337 
L 389.357819 198.585627 
L 389.637292 163.731705 
L 389.73045 169.055396 
L 389.823608 183.275356 
L 389.916765 181.051142 
L 390.103081 155.396792 
L 390.289396 185.503178 
L 390.382554 185.374949 
L 390.662027 156.568031 
L 390.755185 161.80228 
L 390.848342 160.589175 
L 391.127815 192.211795 
L 391.314131 199.936808 
L 391.407288 201.568248 
L 391.593604 174.616653 
L 391.779919 195.257389 
L 391.873077 195.425925 
L 391.966235 194.46403 
L 392.15255 181.783799 
L 392.432023 222.300751 
L 392.525181 227.36205 
L 392.711496 212.328603 
L 392.897811 227.247323 
L 392.990969 219.760207 
L 393.177284 179.417202 
L 393.643073 122.870084 
L 393.829388 143.947385 
L 393.922546 143.518769 
L 394.295177 185.903347 
L 394.388334 187.412008 
L 394.481492 192.698024 
L 394.667807 159.103716 
L 394.760965 161.487564 
L 394.854123 163.817071 
L 395.319911 217.794816 
L 395.878857 181.881598 
L 395.972015 184.470219 
L 396.065173 177.159695 
L 396.251488 135.047005 
L 396.344646 137.204871 
L 396.437804 146.938613 
L 396.530961 145.125899 
L 396.624119 153.695128 
L 396.903592 139.404868 
L 396.99675 141.223016 
L 397.089907 146.491819 
L 397.276223 177.321856 
L 397.462538 182.392524 
L 397.555696 182.121481 
L 397.742011 152.491927 
L 397.835169 164.137368 
L 398.394115 234.034856 
L 398.487273 236.473353 
L 398.487273 236.473353 
" style="fill:none;stroke:#1f77b4;stroke-linecap:square;stroke-width:1.5;"/>
   </g>
   <g id="patch_3">
    <path d="M 57.6 307.584 
L 57.6 41.472 
" style="fill:none;stroke:#000000;stroke-linecap:square;stroke-linejoin:miter;stroke-width:0.8;"/>
   </g>
   <g id="patch_4">
    <path d="M 414.72 307.584 
L 414.72 41.472 
" style="fill:none;stroke:#000000;stroke-linecap:square;stroke-linejoin:miter;stroke-width:0.8;"/>
   </g>
   <g id="patch_5">
    <path d="M 57.6 307.584 
L 414.72 307.584 
" style="fill:none;stroke:#000000;stroke-linecap:square;stroke-linejoin:miter;stroke-width:0.8;"/>
   </g>
   <g id="patch_6">
    <path d="M 57.6 41.472 
L 414.72 41.472 
" style="fill:none;stroke:#000000;stroke-linecap:square;stroke-linejoin:miter;stroke-width:0.8;"/>
   </g>
   <g id="text_18">
    <!-- $H(t); C_p = 49.5 (KJ/K/kg)$ -->
    <defs>
     <path d="M 11.71875 51.703125 
L 22.015625 51.703125 
L 22.015625 39.3125 
L 11.71875 39.3125 
z
M 11.71875 12.40625 
L 22.015625 12.40625 
L 22.015625 4 
L 14.015625 -11.625 
L 7.71875 -11.625 
L 11.71875 4 
z
" id="DejaVuSans-59"/>
     <path d="M 69.484375 67.28125 
L 67.484375 56.890625 
Q 62.796875 61.625 57.546875 63.921875 
Q 52.296875 66.21875 46.1875 66.21875 
Q 37.84375 66.21875 31.515625 62.203125 
Q 25.203125 58.203125 20.609375 50 
Q 17.671875 44.734375 16.125 38.84375 
Q 14.59375 32.953125 14.59375 27 
Q 14.59375 17.046875 19.75 11.8125 
Q 24.90625 6.59375 34.71875 6.59375 
Q 41.5 6.59375 47.75 8.765625 
Q 54 10.9375 59.90625 15.28125 
L 57.625 3.609375 
Q 51.8125 1.125 45.875 -0.140625 
Q 39.9375 -1.421875 33.984375 -1.421875 
Q 19.96875 -1.421875 12.078125 6.1875 
Q 4.203125 13.8125 4.203125 27.390625 
Q 4.203125 36.078125 7.203125 44.46875 
Q 10.203125 52.875 15.828125 59.8125 
Q 21.78125 67.1875 29.421875 70.703125 
Q 37.0625 74.21875 47.21875 74.21875 
Q 53.46875 74.21875 59.0625 72.484375 
Q 64.65625 70.75 69.484375 67.28125 
z
" id="DejaVuSans-Oblique-67"/>
     <path d="M 10.59375 45.40625 
L 73.1875 45.40625 
L 73.1875 37.203125 
L 10.59375 37.203125 
z
M 10.59375 25.484375 
L 73.1875 25.484375 
L 73.1875 17.1875 
L 10.59375 17.1875 
z
" id="DejaVuSans-61"/>
     <path d="M 16.890625 72.90625 
L 26.8125 72.90625 
L 20.796875 42.1875 
L 59.078125 72.90625 
L 72.21875 72.90625 
L 28.90625 38.09375 
L 60.59375 0 
L 48.578125 0 
L 19.484375 35.5 
L 12.59375 0 
L 2.6875 0 
z
" id="DejaVuSans-Oblique-75"/>
     <path d="M 16.703125 72.90625 
L 26.609375 72.90625 
L 13.375 5.078125 
Q 10.796875 -8.15625 4.65625 -14.078125 
Q -1.46875 -20.015625 -12.5 -20.015625 
L -16.40625 -20.015625 
L -14.796875 -11.71875 
L -11.71875 -11.71875 
Q -5.125 -11.71875 -1.703125 -7.953125 
Q 1.703125 -4.203125 3.515625 5.078125 
z
" id="DejaVuSans-Oblique-74"/>
     <path d="M 18.3125 75.984375 
L 27.296875 75.984375 
L 18.703125 31.6875 
L 49.515625 54.6875 
L 61.1875 54.6875 
L 26.8125 28.515625 
L 51.90625 0 
L 41.015625 0 
L 17.671875 26.703125 
L 12.5 0 
L 3.515625 0 
z
" id="DejaVuSans-Oblique-107"/>
     <path d="M 59.625 54.6875 
L 50.296875 6.78125 
Q 47.609375 -7.125 40.015625 -13.953125 
Q 32.421875 -20.796875 19.578125 -20.796875 
Q 14.84375 -20.796875 10.78125 -20.09375 
Q 6.734375 -19.390625 3.21875 -17.921875 
L 4.890625 -9.1875 
Q 8.203125 -11.328125 11.90625 -12.34375 
Q 15.625 -13.375 19.828125 -13.375 
Q 28.375 -13.375 33.859375 -8.703125 
Q 39.359375 -4.046875 41.109375 4.6875 
L 41.890625 8.796875 
Q 38.140625 4.5 33.15625 2.25 
Q 28.171875 0 22.40625 0 
Q 14.109375 0 9.34375 5.484375 
Q 4.59375 10.984375 4.59375 20.609375 
Q 4.59375 28.171875 7.46875 35.421875 
Q 10.359375 42.671875 15.578125 48.296875 
Q 19.046875 52 23.65625 54 
Q 28.265625 56 33.296875 56 
Q 38.8125 56 42.90625 53.4375 
Q 47.015625 50.875 49.03125 46.1875 
L 50.59375 54.6875 
z
M 46.09375 34.625 
Q 46.09375 41.265625 42.96875 44.875 
Q 39.84375 48.484375 34.078125 48.484375 
Q 30.515625 48.484375 27.296875 47.0625 
Q 24.078125 45.65625 21.78125 43.109375 
Q 18.0625 38.921875 15.984375 33.234375 
Q 13.921875 27.546875 13.921875 21.484375 
Q 13.921875 14.75 17.0625 11.125 
Q 20.21875 7.515625 26.125 7.515625 
Q 34.671875 7.515625 40.375 15.25 
Q 46.09375 23 46.09375 34.625 
z
" id="DejaVuSans-Oblique-103"/>
    </defs>
    <g transform="translate(168 35.472)scale(0.12 -0.12)">
     <use transform="translate(0 0.015625)" xlink:href="#DejaVuSans-Oblique-72"/>
     <use transform="translate(75.195312 0.015625)" xlink:href="#DejaVuSans-40"/>
     <use transform="translate(114.208984 0.015625)" xlink:href="#DejaVuSans-Oblique-116"/>
     <use transform="translate(153.417969 0.015625)" xlink:href="#DejaVuSans-41"/>
     <use transform="translate(192.431641 0.015625)" xlink:href="#DejaVuSans-59"/>
     <use transform="translate(245.605469 0.015625)" xlink:href="#DejaVuSans-Oblique-67"/>
     <use transform="translate(315.429688 -16.390625)scale(0.7)" xlink:href="#DejaVuSans-Oblique-112"/>
     <use transform="translate(382.080078 0.015625)" xlink:href="#DejaVuSans-61"/>
     <use transform="translate(485.351562 0.015625)" xlink:href="#DejaVuSans-52"/>
     <use transform="translate(548.974609 0.015625)" xlink:href="#DejaVuSans-57"/>
     <use transform="translate(612.597656 0.015625)" xlink:href="#DejaVuSans-46"/>
     <use transform="translate(644.384766 0.015625)" xlink:href="#DejaVuSans-53"/>
     <use transform="translate(708.007812 0.015625)" xlink:href="#DejaVuSans-40"/>
     <use transform="translate(747.021484 0.015625)" xlink:href="#DejaVuSans-Oblique-75"/>
     <use transform="translate(812.597656 0.015625)" xlink:href="#DejaVuSans-Oblique-74"/>
     <use transform="translate(842.089844 0.015625)" xlink:href="#DejaVuSans-47"/>
     <use transform="translate(875.78125 0.015625)" xlink:href="#DejaVuSans-Oblique-75"/>
     <use transform="translate(941.357422 0.015625)" xlink:href="#DejaVuSans-47"/>
     <use transform="translate(975.048828 0.015625)" xlink:href="#DejaVuSans-Oblique-107"/>
     <use transform="translate(1032.958984 0.015625)" xlink:href="#DejaVuSans-Oblique-103"/>
     <use transform="translate(1096.435547 0.015625)" xlink:href="#DejaVuSans-41"/>
    </g>
   </g>
  </g>
 </g>
 <defs>
  <clipPath id="p222f8a54b1">
   <rect height="266.112" width="357.12" x="57.6" y="41.472"/>
  </clipPath>
 </defs>
</svg>
