<?xml version="1.0" encoding="utf-8" standalone="no"?>
<!DOCTYPE svg PUBLIC "-//W3C//DTD SVG 1.1//EN"
  "http://www.w3.org/Graphics/SVG/1.1/DTD/svg11.dtd">
<!-- Created with matplotlib (https://matplotlib.org/) -->
<svg height="345.6pt" version="1.1" viewBox="0 0 460.8 345.6" width="460.8pt" xmlns="http://www.w3.org/2000/svg" xmlns:xlink="http://www.w3.org/1999/xlink">
 <defs>
  <style type="text/css">
*{stroke-linecap:butt;stroke-linejoin:round;}
  </style>
 </defs>
 <g id="figure_1">
  <g id="patch_1">
   <path d="M 0 345.6 
L 460.8 345.6 
L 460.8 0 
L 0 0 
z
" style="fill:#ffffff;"/>
  </g>
  <g id="axes_1">
   <g id="patch_2">
    <path d="M 57.6 307.584 
L 414.72 307.584 
L 414.72 41.472 
L 57.6 41.472 
z
" style="fill:#ffffff;"/>
   </g>
   <g id="matplotlib.axis_1">
    <g id="xtick_1">
     <g id="line2d_1">
      <defs>
       <path d="M 0 0 
L 0 3.5 
" id="m25a1cbeddb" style="stroke:#000000;stroke-width:0.8;"/>
      </defs>
      <g>
       <use style="stroke:#000000;stroke-width:0.8;" x="73.832727" xlink:href="#m25a1cbeddb" y="307.584"/>
      </g>
     </g>
     <g id="text_1">
      <!-- 0 -->
      <defs>
       <path d="M 31.78125 66.40625 
Q 24.171875 66.40625 20.328125 58.90625 
Q 16.5 51.421875 16.5 36.375 
Q 16.5 21.390625 20.328125 13.890625 
Q 24.171875 6.390625 31.78125 6.390625 
Q 39.453125 6.390625 43.28125 13.890625 
Q 47.125 21.390625 47.125 36.375 
Q 47.125 51.421875 43.28125 58.90625 
Q 39.453125 66.40625 31.78125 66.40625 
z
M 31.78125 74.21875 
Q 44.046875 74.21875 50.515625 64.515625 
Q 56.984375 54.828125 56.984375 36.375 
Q 56.984375 17.96875 50.515625 8.265625 
Q 44.046875 -1.421875 31.78125 -1.421875 
Q 19.53125 -1.421875 13.0625 8.265625 
Q 6.59375 17.96875 6.59375 36.375 
Q 6.59375 54.828125 13.0625 64.515625 
Q 19.53125 74.21875 31.78125 74.21875 
z
" id="DejaVuSans-48"/>
      </defs>
      <g transform="translate(70.651477 322.182437)scale(0.1 -0.1)">
       <use xlink:href="#DejaVuSans-48"/>
      </g>
     </g>
    </g>
    <g id="xtick_2">
     <g id="line2d_2">
      <g>
       <use style="stroke:#000000;stroke-width:0.8;" x="120.411572" xlink:href="#m25a1cbeddb" y="307.584"/>
      </g>
     </g>
     <g id="text_2">
      <!-- 5 -->
      <defs>
       <path d="M 10.796875 72.90625 
L 49.515625 72.90625 
L 49.515625 64.59375 
L 19.828125 64.59375 
L 19.828125 46.734375 
Q 21.96875 47.46875 24.109375 47.828125 
Q 26.265625 48.1875 28.421875 48.1875 
Q 40.625 48.1875 47.75 41.5 
Q 54.890625 34.8125 54.890625 23.390625 
Q 54.890625 11.625 47.5625 5.09375 
Q 40.234375 -1.421875 26.90625 -1.421875 
Q 22.3125 -1.421875 17.546875 -0.640625 
Q 12.796875 0.140625 7.71875 1.703125 
L 7.71875 11.625 
Q 12.109375 9.234375 16.796875 8.0625 
Q 21.484375 6.890625 26.703125 6.890625 
Q 35.15625 6.890625 40.078125 11.328125 
Q 45.015625 15.765625 45.015625 23.390625 
Q 45.015625 31 40.078125 35.4375 
Q 35.15625 39.890625 26.703125 39.890625 
Q 22.75 39.890625 18.8125 39.015625 
Q 14.890625 38.140625 10.796875 36.28125 
z
" id="DejaVuSans-53"/>
      </defs>
      <g transform="translate(117.230322 322.182437)scale(0.1 -0.1)">
       <use xlink:href="#DejaVuSans-53"/>
      </g>
     </g>
    </g>
    <g id="xtick_3">
     <g id="line2d_3">
      <g>
       <use style="stroke:#000000;stroke-width:0.8;" x="166.990416" xlink:href="#m25a1cbeddb" y="307.584"/>
      </g>
     </g>
     <g id="text_3">
      <!-- 10 -->
      <defs>
       <path d="M 12.40625 8.296875 
L 28.515625 8.296875 
L 28.515625 63.921875 
L 10.984375 60.40625 
L 10.984375 69.390625 
L 28.421875 72.90625 
L 38.28125 72.90625 
L 38.28125 8.296875 
L 54.390625 8.296875 
L 54.390625 0 
L 12.40625 0 
z
" id="DejaVuSans-49"/>
      </defs>
      <g transform="translate(160.627916 322.182437)scale(0.1 -0.1)">
       <use xlink:href="#DejaVuSans-49"/>
       <use x="63.623047" xlink:href="#DejaVuSans-48"/>
      </g>
     </g>
    </g>
    <g id="xtick_4">
     <g id="line2d_4">
      <g>
       <use style="stroke:#000000;stroke-width:0.8;" x="213.56926" xlink:href="#m25a1cbeddb" y="307.584"/>
      </g>
     </g>
     <g id="text_4">
      <!-- 15 -->
      <g transform="translate(207.20676 322.182437)scale(0.1 -0.1)">
       <use xlink:href="#DejaVuSans-49"/>
       <use x="63.623047" xlink:href="#DejaVuSans-53"/>
      </g>
     </g>
    </g>
    <g id="xtick_5">
     <g id="line2d_5">
      <g>
       <use style="stroke:#000000;stroke-width:0.8;" x="260.148105" xlink:href="#m25a1cbeddb" y="307.584"/>
      </g>
     </g>
     <g id="text_5">
      <!-- 20 -->
      <defs>
       <path d="M 19.1875 8.296875 
L 53.609375 8.296875 
L 53.609375 0 
L 7.328125 0 
L 7.328125 8.296875 
Q 12.9375 14.109375 22.625 23.890625 
Q 32.328125 33.6875 34.8125 36.53125 
Q 39.546875 41.84375 41.421875 45.53125 
Q 43.3125 49.21875 43.3125 52.78125 
Q 43.3125 58.59375 39.234375 62.25 
Q 35.15625 65.921875 28.609375 65.921875 
Q 23.96875 65.921875 18.8125 64.3125 
Q 13.671875 62.703125 7.8125 59.421875 
L 7.8125 69.390625 
Q 13.765625 71.78125 18.9375 73 
Q 24.125 74.21875 28.421875 74.21875 
Q 39.75 74.21875 46.484375 68.546875 
Q 53.21875 62.890625 53.21875 53.421875 
Q 53.21875 48.921875 51.53125 44.890625 
Q 49.859375 40.875 45.40625 35.40625 
Q 44.1875 33.984375 37.640625 27.21875 
Q 31.109375 20.453125 19.1875 8.296875 
z
" id="DejaVuSans-50"/>
      </defs>
      <g transform="translate(253.785605 322.182437)scale(0.1 -0.1)">
       <use xlink:href="#DejaVuSans-50"/>
       <use x="63.623047" xlink:href="#DejaVuSans-48"/>
      </g>
     </g>
    </g>
    <g id="xtick_6">
     <g id="line2d_6">
      <g>
       <use style="stroke:#000000;stroke-width:0.8;" x="306.726949" xlink:href="#m25a1cbeddb" y="307.584"/>
      </g>
     </g>
     <g id="text_6">
      <!-- 25 -->
      <g transform="translate(300.364449 322.182437)scale(0.1 -0.1)">
       <use xlink:href="#DejaVuSans-50"/>
       <use x="63.623047" xlink:href="#DejaVuSans-53"/>
      </g>
     </g>
    </g>
    <g id="xtick_7">
     <g id="line2d_7">
      <g>
       <use style="stroke:#000000;stroke-width:0.8;" x="353.305794" xlink:href="#m25a1cbeddb" y="307.584"/>
      </g>
     </g>
     <g id="text_7">
      <!-- 30 -->
      <defs>
       <path d="M 40.578125 39.3125 
Q 47.65625 37.796875 51.625 33 
Q 55.609375 28.21875 55.609375 21.1875 
Q 55.609375 10.40625 48.1875 4.484375 
Q 40.765625 -1.421875 27.09375 -1.421875 
Q 22.515625 -1.421875 17.65625 -0.515625 
Q 12.796875 0.390625 7.625 2.203125 
L 7.625 11.71875 
Q 11.71875 9.328125 16.59375 8.109375 
Q 21.484375 6.890625 26.8125 6.890625 
Q 36.078125 6.890625 40.9375 10.546875 
Q 45.796875 14.203125 45.796875 21.1875 
Q 45.796875 27.640625 41.28125 31.265625 
Q 36.765625 34.90625 28.71875 34.90625 
L 20.21875 34.90625 
L 20.21875 43.015625 
L 29.109375 43.015625 
Q 36.375 43.015625 40.234375 45.921875 
Q 44.09375 48.828125 44.09375 54.296875 
Q 44.09375 59.90625 40.109375 62.90625 
Q 36.140625 65.921875 28.71875 65.921875 
Q 24.65625 65.921875 20.015625 65.03125 
Q 15.375 64.15625 9.8125 62.3125 
L 9.8125 71.09375 
Q 15.4375 72.65625 20.34375 73.4375 
Q 25.25 74.21875 29.59375 74.21875 
Q 40.828125 74.21875 47.359375 69.109375 
Q 53.90625 64.015625 53.90625 55.328125 
Q 53.90625 49.265625 50.4375 45.09375 
Q 46.96875 40.921875 40.578125 39.3125 
z
" id="DejaVuSans-51"/>
      </defs>
      <g transform="translate(346.943294 322.182437)scale(0.1 -0.1)">
       <use xlink:href="#DejaVuSans-51"/>
       <use x="63.623047" xlink:href="#DejaVuSans-48"/>
      </g>
     </g>
    </g>
    <g id="xtick_8">
     <g id="line2d_8">
      <g>
       <use style="stroke:#000000;stroke-width:0.8;" x="399.884638" xlink:href="#m25a1cbeddb" y="307.584"/>
      </g>
     </g>
     <g id="text_8">
      <!-- 35 -->
      <g transform="translate(393.522138 322.182437)scale(0.1 -0.1)">
       <use xlink:href="#DejaVuSans-51"/>
       <use x="63.623047" xlink:href="#DejaVuSans-53"/>
      </g>
     </g>
    </g>
    <g id="text_9">
     <!-- $time (ps)$ -->
     <defs>
      <path d="M 42.28125 54.6875 
L 40.921875 47.703125 
L 23 47.703125 
L 17.1875 18.015625 
Q 16.890625 16.359375 16.75 15.234375 
Q 16.609375 14.109375 16.609375 13.484375 
Q 16.609375 10.359375 18.484375 8.9375 
Q 20.359375 7.515625 24.515625 7.515625 
L 33.59375 7.515625 
L 32.078125 0 
L 23.484375 0 
Q 15.484375 0 11.546875 3.125 
Q 7.625 6.25 7.625 12.59375 
Q 7.625 13.71875 7.765625 15.0625 
Q 7.90625 16.40625 8.203125 18.015625 
L 14.015625 47.703125 
L 6.390625 47.703125 
L 7.8125 54.6875 
L 15.28125 54.6875 
L 18.3125 70.21875 
L 27.296875 70.21875 
L 24.3125 54.6875 
z
" id="DejaVuSans-Oblique-116"/>
      <path d="M 18.3125 75.984375 
L 27.296875 75.984375 
L 25.09375 64.59375 
L 16.109375 64.59375 
z
M 14.203125 54.6875 
L 23.1875 54.6875 
L 12.5 0 
L 3.515625 0 
z
" id="DejaVuSans-Oblique-105"/>
      <path d="M 89.796875 33.015625 
L 83.40625 0 
L 74.421875 0 
L 80.71875 32.71875 
Q 81.109375 34.8125 81.296875 36.328125 
Q 81.5 37.84375 81.5 38.921875 
Q 81.5 43.3125 79.046875 45.75 
Q 76.609375 48.1875 72.21875 48.1875 
Q 65.671875 48.1875 60.546875 43.28125 
Q 55.421875 38.375 53.90625 30.515625 
L 47.90625 0 
L 38.921875 0 
L 45.3125 32.71875 
Q 45.703125 34.515625 45.890625 36.046875 
Q 46.09375 37.59375 46.09375 38.8125 
Q 46.09375 43.265625 43.65625 45.71875 
Q 41.21875 48.1875 36.921875 48.1875 
Q 30.28125 48.1875 25.140625 43.28125 
Q 20.015625 38.375 18.5 30.515625 
L 12.5 0 
L 3.515625 0 
L 14.203125 54.6875 
L 23.1875 54.6875 
L 21.484375 46.1875 
Q 25.140625 50.984375 30.046875 53.484375 
Q 34.96875 56 40.578125 56 
Q 46.53125 56 50.359375 52.875 
Q 54.203125 49.75 54.984375 44.1875 
Q 59.078125 49.953125 64.46875 52.96875 
Q 69.875 56 75.875 56 
Q 82.90625 56 86.734375 51.953125 
Q 90.578125 47.90625 90.578125 40.484375 
Q 90.578125 38.875 90.375 36.9375 
Q 90.1875 35.015625 89.796875 33.015625 
z
" id="DejaVuSans-Oblique-109"/>
      <path d="M 48.09375 32.234375 
Q 48.25 33.015625 48.3125 33.84375 
Q 48.390625 34.671875 48.390625 35.5 
Q 48.390625 41.453125 44.890625 44.921875 
Q 41.40625 48.390625 35.40625 48.390625 
Q 28.71875 48.390625 23.578125 44.15625 
Q 18.453125 39.9375 15.828125 32.171875 
z
M 55.90625 25.203125 
L 14.109375 25.203125 
Q 13.8125 23.34375 13.71875 22.265625 
Q 13.625 21.1875 13.625 20.40625 
Q 13.625 13.625 17.796875 9.90625 
Q 21.96875 6.203125 29.59375 6.203125 
Q 35.453125 6.203125 40.671875 7.515625 
Q 45.90625 8.84375 50.390625 11.375 
L 48.6875 2.484375 
Q 43.84375 0.53125 38.6875 -0.4375 
Q 33.546875 -1.421875 28.21875 -1.421875 
Q 16.84375 -1.421875 10.71875 4.015625 
Q 4.59375 9.46875 4.59375 19.484375 
Q 4.59375 28.03125 7.640625 35.375 
Q 10.6875 42.71875 16.609375 48.484375 
Q 20.40625 52.09375 25.65625 54.046875 
Q 30.90625 56 36.8125 56 
Q 46.09375 56 51.578125 50.4375 
Q 57.078125 44.875 57.078125 35.5 
Q 57.078125 33.25 56.78125 30.6875 
Q 56.5 28.125 55.90625 25.203125 
z
" id="DejaVuSans-Oblique-101"/>
      <path d="M 31 75.875 
Q 24.46875 64.65625 21.28125 53.65625 
Q 18.109375 42.671875 18.109375 31.390625 
Q 18.109375 20.125 21.3125 9.0625 
Q 24.515625 -2 31 -13.1875 
L 23.1875 -13.1875 
Q 15.875 -1.703125 12.234375 9.375 
Q 8.59375 20.453125 8.59375 31.390625 
Q 8.59375 42.28125 12.203125 53.3125 
Q 15.828125 64.359375 23.1875 75.875 
z
" id="DejaVuSans-40"/>
      <path d="M 49.609375 33.6875 
Q 49.609375 40.875 46.484375 44.671875 
Q 43.359375 48.484375 37.5 48.484375 
Q 33.5 48.484375 29.859375 46.4375 
Q 26.21875 44.390625 23.390625 40.484375 
Q 20.609375 36.625 18.9375 31.15625 
Q 17.28125 25.6875 17.28125 20.3125 
Q 17.28125 13.484375 20.40625 9.796875 
Q 23.53125 6.109375 29.296875 6.109375 
Q 33.546875 6.109375 37.1875 8.109375 
Q 40.828125 10.109375 43.40625 13.921875 
Q 46.1875 17.921875 47.890625 23.34375 
Q 49.609375 28.765625 49.609375 33.6875 
z
M 21.78125 46.390625 
Q 25.390625 51.125 30.296875 53.5625 
Q 35.203125 56 41.21875 56 
Q 49.609375 56 54.25 50.5 
Q 58.890625 45.015625 58.890625 35.109375 
Q 58.890625 27 56 19.65625 
Q 53.125 12.3125 47.703125 6.5 
Q 44.09375 2.640625 39.546875 0.609375 
Q 35.015625 -1.421875 29.984375 -1.421875 
Q 24.171875 -1.421875 20.21875 1 
Q 16.265625 3.421875 14.3125 8.203125 
L 8.6875 -20.796875 
L -0.296875 -20.796875 
L 14.40625 54.6875 
L 23.390625 54.6875 
z
" id="DejaVuSans-Oblique-112"/>
      <path d="M 50 53.078125 
L 48.296875 44.578125 
Q 44.734375 46.53125 40.765625 47.5 
Q 36.8125 48.484375 32.625 48.484375 
Q 25.53125 48.484375 21.453125 46.0625 
Q 17.390625 43.65625 17.390625 39.5 
Q 17.390625 34.671875 26.859375 32.078125 
Q 27.59375 31.890625 27.9375 31.78125 
L 30.8125 30.90625 
Q 39.796875 28.421875 42.796875 25.6875 
Q 45.796875 22.953125 45.796875 18.21875 
Q 45.796875 9.515625 38.890625 4.046875 
Q 31.984375 -1.421875 20.796875 -1.421875 
Q 16.453125 -1.421875 11.671875 -0.578125 
Q 6.890625 0.25 1.125 2 
L 2.875 11.28125 
Q 7.8125 8.734375 12.59375 7.421875 
Q 17.390625 6.109375 21.78125 6.109375 
Q 28.375 6.109375 32.5 8.9375 
Q 36.625 11.765625 36.625 16.109375 
Q 36.625 20.796875 25.78125 23.6875 
L 24.859375 23.921875 
L 21.78125 24.703125 
Q 14.9375 26.515625 11.765625 29.46875 
Q 8.59375 32.421875 8.59375 37.015625 
Q 8.59375 45.75 15.15625 50.875 
Q 21.734375 56 33.015625 56 
Q 37.453125 56 41.671875 55.265625 
Q 45.90625 54.546875 50 53.078125 
z
" id="DejaVuSans-Oblique-115"/>
      <path d="M 8.015625 75.875 
L 15.828125 75.875 
Q 23.140625 64.359375 26.78125 53.3125 
Q 30.421875 42.28125 30.421875 31.390625 
Q 30.421875 20.453125 26.78125 9.375 
Q 23.140625 -1.703125 15.828125 -13.1875 
L 8.015625 -13.1875 
Q 14.5 -2 17.703125 9.0625 
Q 20.90625 20.125 20.90625 31.390625 
Q 20.90625 42.671875 17.703125 53.65625 
Q 14.5 64.65625 8.015625 75.875 
z
" id="DejaVuSans-41"/>
     </defs>
     <g transform="translate(215.16 335.862125)scale(0.1 -0.1)">
      <use transform="translate(0 0.015625)" xlink:href="#DejaVuSans-Oblique-116"/>
      <use transform="translate(39.208984 0.015625)" xlink:href="#DejaVuSans-Oblique-105"/>
      <use transform="translate(66.992188 0.015625)" xlink:href="#DejaVuSans-Oblique-109"/>
      <use transform="translate(164.404297 0.015625)" xlink:href="#DejaVuSans-Oblique-101"/>
      <use transform="translate(225.927734 0.015625)" xlink:href="#DejaVuSans-40"/>
      <use transform="translate(264.941406 0.015625)" xlink:href="#DejaVuSans-Oblique-112"/>
      <use transform="translate(328.417969 0.015625)" xlink:href="#DejaVuSans-Oblique-115"/>
      <use transform="translate(380.517578 0.015625)" xlink:href="#DejaVuSans-41"/>
     </g>
    </g>
   </g>
   <g id="matplotlib.axis_2">
    <g id="ytick_1">
     <g id="line2d_9">
      <defs>
       <path d="M 0 0 
L -3.5 0 
" id="mbd5d96b70d" style="stroke:#000000;stroke-width:0.8;"/>
      </defs>
      <g>
       <use style="stroke:#000000;stroke-width:0.8;" x="57.6" xlink:href="#mbd5d96b70d" y="276.710349"/>
      </g>
     </g>
     <g id="text_10">
      <!-- −1000 -->
      <defs>
       <path d="M 10.59375 35.5 
L 73.1875 35.5 
L 73.1875 27.203125 
L 10.59375 27.203125 
z
" id="DejaVuSans-8722"/>
      </defs>
      <g transform="translate(16.770313 280.509567)scale(0.1 -0.1)">
       <use xlink:href="#DejaVuSans-8722"/>
       <use x="83.789062" xlink:href="#DejaVuSans-49"/>
       <use x="147.412109" xlink:href="#DejaVuSans-48"/>
       <use x="211.035156" xlink:href="#DejaVuSans-48"/>
       <use x="274.658203" xlink:href="#DejaVuSans-48"/>
      </g>
     </g>
    </g>
    <g id="ytick_2">
     <g id="line2d_10">
      <g>
       <use style="stroke:#000000;stroke-width:0.8;" x="57.6" xlink:href="#mbd5d96b70d" y="232.402033"/>
      </g>
     </g>
     <g id="text_11">
      <!-- −500 -->
      <g transform="translate(23.132812 236.201252)scale(0.1 -0.1)">
       <use xlink:href="#DejaVuSans-8722"/>
       <use x="83.789062" xlink:href="#DejaVuSans-53"/>
       <use x="147.412109" xlink:href="#DejaVuSans-48"/>
       <use x="211.035156" xlink:href="#DejaVuSans-48"/>
      </g>
     </g>
    </g>
    <g id="ytick_3">
     <g id="line2d_11">
      <g>
       <use style="stroke:#000000;stroke-width:0.8;" x="57.6" xlink:href="#mbd5d96b70d" y="188.093717"/>
      </g>
     </g>
     <g id="text_12">
      <!-- 0 -->
      <g transform="translate(44.2375 191.892936)scale(0.1 -0.1)">
       <use xlink:href="#DejaVuSans-48"/>
      </g>
     </g>
    </g>
    <g id="ytick_4">
     <g id="line2d_12">
      <g>
       <use style="stroke:#000000;stroke-width:0.8;" x="57.6" xlink:href="#mbd5d96b70d" y="143.785402"/>
      </g>
     </g>
     <g id="text_13">
      <!-- 500 -->
      <g transform="translate(31.5125 147.584621)scale(0.1 -0.1)">
       <use xlink:href="#DejaVuSans-53"/>
       <use x="63.623047" xlink:href="#DejaVuSans-48"/>
       <use x="127.246094" xlink:href="#DejaVuSans-48"/>
      </g>
     </g>
    </g>
    <g id="ytick_5">
     <g id="line2d_13">
      <g>
       <use style="stroke:#000000;stroke-width:0.8;" x="57.6" xlink:href="#mbd5d96b70d" y="99.477086"/>
      </g>
     </g>
     <g id="text_14">
      <!-- 1000 -->
      <g transform="translate(25.15 103.276305)scale(0.1 -0.1)">
       <use xlink:href="#DejaVuSans-49"/>
       <use x="63.623047" xlink:href="#DejaVuSans-48"/>
       <use x="127.246094" xlink:href="#DejaVuSans-48"/>
       <use x="190.869141" xlink:href="#DejaVuSans-48"/>
      </g>
     </g>
    </g>
    <g id="ytick_6">
     <g id="line2d_14">
      <g>
       <use style="stroke:#000000;stroke-width:0.8;" x="57.6" xlink:href="#mbd5d96b70d" y="55.168771"/>
      </g>
     </g>
     <g id="text_15">
      <!-- 1500 -->
      <g transform="translate(25.15 58.96799)scale(0.1 -0.1)">
       <use xlink:href="#DejaVuSans-49"/>
       <use x="63.623047" xlink:href="#DejaVuSans-53"/>
       <use x="127.246094" xlink:href="#DejaVuSans-48"/>
       <use x="190.869141" xlink:href="#DejaVuSans-48"/>
      </g>
     </g>
    </g>
    <g id="text_16">
     <!-- $P (atm)$ -->
     <defs>
      <path d="M 16.890625 72.90625 
L 39.703125 72.90625 
Q 49.65625 72.90625 54.875 68.265625 
Q 60.109375 63.625 60.109375 54.6875 
Q 60.109375 42.671875 52.390625 35.984375 
Q 44.671875 29.296875 30.71875 29.296875 
L 18.3125 29.296875 
L 12.59375 0 
L 2.6875 0 
z
M 25.203125 64.796875 
L 19.921875 37.40625 
L 32.328125 37.40625 
Q 40.71875 37.40625 45.203125 41.703125 
Q 49.703125 46 49.703125 54 
Q 49.703125 59.125 46.65625 61.953125 
Q 43.609375 64.796875 38.09375 64.796875 
z
" id="DejaVuSans-Oblique-80"/>
      <path d="M 53.71875 31.203125 
L 47.609375 0 
L 38.625 0 
L 40.28125 8.296875 
Q 36.328125 3.421875 31.265625 1 
Q 26.21875 -1.421875 20.015625 -1.421875 
Q 13.03125 -1.421875 8.5625 2.84375 
Q 4.109375 7.125 4.109375 13.8125 
Q 4.109375 23.390625 11.75 28.953125 
Q 19.390625 34.515625 32.8125 34.515625 
L 45.3125 34.515625 
L 45.796875 36.921875 
Q 45.90625 37.3125 45.953125 37.765625 
Q 46 38.234375 46 39.203125 
Q 46 43.5625 42.453125 45.96875 
Q 38.921875 48.390625 32.515625 48.390625 
Q 28.125 48.390625 23.5 47.265625 
Q 18.890625 46.140625 14.015625 43.890625 
L 15.578125 52.203125 
Q 20.65625 54.109375 25.515625 55.046875 
Q 30.375 56 34.90625 56 
Q 44.578125 56 49.625 51.796875 
Q 54.6875 47.609375 54.6875 39.59375 
Q 54.6875 37.984375 54.4375 35.8125 
Q 54.203125 33.640625 53.71875 31.203125 
z
M 44 27.484375 
L 35.015625 27.484375 
Q 23.96875 27.484375 18.671875 24.53125 
Q 13.375 21.578125 13.375 15.375 
Q 13.375 11.078125 16.078125 8.640625 
Q 18.796875 6.203125 23.578125 6.203125 
Q 30.90625 6.203125 36.375 11.453125 
Q 41.84375 16.703125 43.609375 25.484375 
z
" id="DejaVuSans-Oblique-97"/>
     </defs>
     <g transform="translate(10.690625 191.378)rotate(-90)scale(0.1 -0.1)">
      <use transform="translate(0 0.125)" xlink:href="#DejaVuSans-Oblique-80"/>
      <use transform="translate(60.302734 0.125)" xlink:href="#DejaVuSans-40"/>
      <use transform="translate(99.316406 0.125)" xlink:href="#DejaVuSans-Oblique-97"/>
      <use transform="translate(160.595703 0.125)" xlink:href="#DejaVuSans-Oblique-116"/>
      <use transform="translate(199.804688 0.125)" xlink:href="#DejaVuSans-Oblique-109"/>
      <use transform="translate(297.216797 0.125)" xlink:href="#DejaVuSans-41"/>
     </g>
    </g>
   </g>
   <g id="line2d_15">
    <path clip-path="url(#pe4e3895d44)" d="M 73.832727 213.498538 
L 73.925885 202.553295 
L 74.019043 206.420157 
L 74.1122 204.9284 
L 74.298516 174.348326 
L 74.484831 197.433232 
L 74.577989 191.058494 
L 74.857462 215.675673 
L 74.95062 217.430749 
L 75.043777 198.366045 
L 75.32325 213.609716 
L 75.416408 206.158749 
L 75.695881 147.174286 
L 75.789039 141.65301 
L 76.161669 178.796881 
L 76.347985 185.053511 
L 76.627458 170.478889 
L 76.813773 190.99314 
L 76.906931 191.535764 
L 77.000089 190.540273 
L 77.372719 176.684159 
L 77.465877 165.540065 
L 77.652193 181.734431 
L 77.74535 180.426906 
L 77.931666 169.200116 
L 78.211139 188.492745 
L 78.304296 185.794118 
L 78.397454 181.995035 
L 78.583769 196.511135 
L 78.863242 156.356579 
L 79.049558 173.955512 
L 79.142716 171.036251 
L 79.235873 171.770239 
L 79.329031 177.033927 
L 79.701662 221.37452 
L 79.794819 223.939254 
L 79.981135 237.879713 
L 80.074292 232.385999 
L 80.260608 192.501434 
L 80.446923 203.002143 
L 80.726396 145.514107 
L 80.912712 152.425826 
L 81.005869 166.327842 
L 81.099027 165.062398 
L 81.285342 169.334207 
L 81.564815 152.028349 
L 81.657973 156.630244 
L 82.030604 199.875034 
L 82.123762 193.373473 
L 82.216919 202.842277 
L 82.682708 291.29576 
L 82.869023 272.734208 
L 82.962181 272.695573 
L 83.055338 269.185736 
L 83.148496 272.557911 
L 83.334812 282.395345 
L 83.707442 190.297668 
L 83.8006 191.293314 
L 84.080073 246.441016 
L 84.639019 123.281701 
L 84.918492 104.86363 
L 85.01165 87.562465 
L 85.104808 88.537904 
L 85.384281 144.01181 
L 85.477438 144.137448 
L 85.663754 114.841734 
L 85.756911 120.741781 
L 85.850069 116.861365 
L 86.036385 139.279971 
L 86.315858 112.397683 
L 86.409015 116.060071 
L 86.595331 160.318967 
L 86.688488 164.367917 
L 86.781646 162.000524 
L 86.874804 147.607094 
L 86.967961 147.751045 
L 87.061119 151.104752 
L 87.526908 238.998356 
L 87.620065 233.119021 
L 87.713223 226.658884 
L 87.806381 231.308467 
L 87.899538 226.211157 
L 87.992696 226.722325 
L 88.458484 264.841694 
L 88.551642 271.149633 
L 88.6448 266.306534 
L 88.831115 280.187718 
L 89.017431 237.966775 
L 89.203746 201.18856 
L 89.296904 202.020142 
L 89.390061 198.465373 
L 89.483219 204.503143 
L 89.576377 203.698824 
L 89.762692 170.277142 
L 89.949007 144.895512 
L 90.228481 124.586931 
L 90.321638 138.648744 
L 90.414796 138.150921 
L 90.507954 140.060537 
L 90.601111 149.39412 
L 91.0669 103.661533 
L 91.532688 170.492913 
L 91.625846 154.985143 
L 91.719004 159.139945 
L 91.812161 169.896925 
L 91.998477 158.948991 
L 92.091634 163.252205 
L 92.464265 224.809835 
L 92.65058 205.801936 
L 92.836896 219.942871 
L 93.023211 204.806855 
L 93.302684 239.096956 
L 93.395842 231.417165 
L 93.489 204.503479 
L 93.582157 208.025997 
L 93.954788 253.771045 
L 94.141103 258.068221 
L 94.327419 238.619646 
L 94.420576 249.648275 
L 94.70005 230.163809 
L 94.886365 205.194553 
L 94.979523 206.172209 
L 95.07268 205.185255 
L 95.352153 146.528941 
L 95.445311 147.541541 
L 95.9111 204.204559 
L 96.097415 179.469448 
L 96.190573 181.031597 
L 96.656361 123.597415 
L 96.749519 127.589068 
L 96.842676 125.334891 
L 96.935834 114.874464 
L 97.028992 117.285809 
L 97.215307 139.032259 
L 97.308465 143.492935 
L 97.774253 190.228078 
L 97.867411 183.647214 
L 97.960569 164.845509 
L 98.053726 170.44417 
L 98.240042 207.172536 
L 98.426357 206.117055 
L 98.798988 180.799405 
L 98.892146 189.359821 
L 98.985303 187.198349 
L 99.078461 179.457692 
L 99.171619 161.920318 
L 99.357934 193.371564 
L 99.544249 236.188441 
L 99.637407 234.115838 
L 99.730565 228.682364 
L 100.010038 186.994356 
L 100.103196 175.602586 
L 100.196353 186.525539 
L 100.289511 184.946875 
L 100.662142 198.719019 
L 100.941615 231.964714 
L 101.034772 219.808716 
L 101.221088 186.201561 
L 101.407403 203.884896 
L 101.686876 187.277643 
L 101.780034 182.068713 
L 101.966349 197.118731 
L 102.152665 218.049277 
L 102.245822 210.498744 
L 102.618453 256.45892 
L 103.084242 190.873513 
L 103.270557 186.746547 
L 103.736345 90.182646 
L 103.829503 99.518534 
L 104.015818 105.740901 
L 104.108976 107.560532 
L 104.388449 135.378888 
L 104.481607 129.307265 
L 104.76108 151.55023 
L 104.854238 146.975019 
L 104.947395 148.813882 
L 105.226868 179.278473 
L 105.506341 202.343314 
L 105.692657 235.618706 
L 105.785815 229.580627 
L 105.878972 232.915571 
L 105.97213 244.818738 
L 106.065288 242.953055 
L 106.531076 192.522528 
L 106.624234 195.945755 
L 106.717391 191.933756 
L 106.810549 198.279294 
L 107.18318 258.369696 
L 107.276338 252.683853 
L 107.369495 252.700255 
L 107.648968 203.524978 
L 107.835284 201.398665 
L 108.021599 213.185325 
L 108.114757 228.595197 
L 108.673703 161.812796 
L 108.860018 177.777888 
L 109.046334 174.112353 
L 109.139491 182.845508 
L 109.232649 175.397038 
L 109.325807 156.738882 
L 109.418964 166.888641 
L 109.698437 135.611458 
L 109.884753 144.415861 
L 109.977911 136.997167 
L 110.257384 160.344988 
L 110.443699 182.01806 
L 110.536857 183.485715 
L 110.81633 164.264008 
L 111.002645 134.022243 
L 111.095803 133.772028 
L 111.18896 132.00302 
L 111.468434 152.87304 
L 111.747907 221.086809 
L 111.841064 221.860219 
L 112.02738 236.203844 
L 112.120537 229.88716 
L 112.306853 214.543947 
L 112.493168 248.814874 
L 112.586326 246.523302 
L 112.772641 222.146081 
L 112.958957 207.339079 
L 113.424745 241.676209 
L 113.704218 209.64588 
L 113.797376 217.488034 
L 113.890533 235.018363 
L 114.170007 211.788241 
L 114.263164 223.110692 
L 114.542637 186.83096 
L 114.728953 170.226465 
L 114.82211 172.582355 
L 114.915268 164.974021 
L 115.008426 168.829945 
L 115.194741 193.966363 
L 115.474214 170.040668 
L 115.567372 166.420483 
L 115.753687 188.378544 
L 115.940003 205.15706 
L 116.126318 201.644704 
L 116.312633 207.23666 
L 116.778422 142.60576 
L 116.871579 140.093991 
L 116.964737 129.262905 
L 117.151053 141.341274 
L 117.24421 153.11923 
L 117.337368 149.818195 
L 117.430526 153.086681 
L 117.803156 185.272316 
L 117.896314 186.956693 
L 117.989472 176.705149 
L 118.175787 121.756061 
L 118.734733 190.231419 
L 118.827891 190.425642 
L 119.014206 201.331025 
L 119.107364 198.169535 
L 119.293679 180.581288 
L 119.386837 199.215099 
L 119.479995 198.274147 
L 119.759468 140.982015 
L 119.852626 146.577501 
L 120.411572 223.508947 
L 120.504729 218.940179 
L 120.784202 202.128605 
L 120.970518 160.019004 
L 121.156833 190.801104 
L 121.249991 214.78802 
L 121.622622 179.746001 
L 121.715779 180.586088 
L 121.808937 181.839617 
L 121.995252 181.208266 
L 122.274725 232.709811 
L 122.367883 229.96055 
L 122.647356 187.027046 
L 122.833672 212.539348 
L 123.113145 163.215958 
L 123.29946 201.099419 
L 123.485775 182.954143 
L 123.672091 192.374752 
L 123.858406 162.57253 
L 123.951564 166.543187 
L 124.137879 212.933791 
L 124.231037 206.405262 
L 124.324195 208.57397 
L 124.417352 207.959743 
L 124.51051 210.387977 
L 124.696825 222.617893 
L 124.883141 205.490402 
L 125.255771 162.475762 
L 125.442087 177.119892 
L 125.535245 175.857152 
L 125.907875 161.564637 
L 126.001033 145.068449 
L 126.373664 184.028604 
L 126.559979 171.950954 
L 126.839452 233.203931 
L 127.118925 211.559707 
L 127.398398 243.254302 
L 127.491556 242.941759 
L 127.864187 201.768777 
L 127.957344 209.27457 
L 128.050502 208.702922 
L 128.236818 218.742404 
L 128.423133 188.977353 
L 128.702606 120.428702 
L 128.888921 151.884067 
L 129.075237 122.906095 
L 129.261552 171.153142 
L 129.35471 157.89743 
L 129.541025 132.175111 
L 129.727341 114.773684 
L 129.820498 126.97626 
L 129.913656 125.599663 
L 130.099971 107.493224 
L 130.286287 162.978406 
L 130.472602 208.272787 
L 130.56576 218.032213 
L 130.658917 216.254631 
L 130.752075 201.043257 
L 130.845233 211.7776 
L 131.124706 287.705368 
L 131.217864 277.299153 
L 131.404179 234.163158 
L 131.497337 235.027399 
L 131.590494 244.580929 
L 131.683652 231.75915 
L 131.869967 249.625321 
L 131.963125 243.139287 
L 132.14944 223.589758 
L 132.242598 225.129006 
L 132.335756 219.995315 
L 132.428914 225.127591 
L 132.708387 259.270963 
L 132.98786 216.059585 
L 133.081017 208.463649 
L 133.267333 226.061401 
L 133.546806 159.163119 
L 133.826279 132.327796 
L 133.919437 138.338795 
L 134.012594 155.217632 
L 134.105752 153.925846 
L 134.385225 140.799169 
L 134.478383 154.531637 
L 134.757856 110.190308 
L 134.851013 119.742932 
L 135.037329 151.871969 
L 135.130487 156.363928 
L 135.316802 138.295576 
L 135.40996 139.21559 
L 135.503117 147.869719 
L 135.596275 144.74521 
L 135.689433 151.765398 
L 135.78259 147.81998 
L 135.875748 154.855427 
L 136.062063 195.871431 
L 136.155221 193.624302 
L 136.248379 184.587487 
L 136.341536 186.703134 
L 136.434694 200.346653 
L 136.527852 196.305379 
L 136.62101 182.138416 
L 136.714167 184.762109 
L 136.99364 228.84275 
L 137.086798 233.337476 
L 137.273113 210.267536 
L 137.459429 235.715606 
L 138.018375 172.486859 
L 138.297848 197.669619 
L 138.484163 230.121802 
L 138.763636 168.938183 
L 138.856794 162.492578 
L 139.136267 207.298225 
L 139.229425 223.831647 
L 139.508898 196.981818 
L 139.695213 185.777394 
L 139.788371 186.04066 
L 139.974686 198.075819 
L 140.161002 189.540753 
L 140.347317 175.58338 
L 140.440475 173.928961 
L 140.533632 164.945757 
L 140.719948 180.039832 
L 140.999421 158.655651 
L 141.372052 218.240929 
L 141.558367 233.616906 
L 141.744682 212.168866 
L 141.83784 217.547543 
L 141.930998 216.908849 
L 142.024155 212.122563 
L 142.396786 168.142568 
L 142.676259 184.97402 
L 142.769417 187.399367 
L 143.04889 168.342883 
L 143.235205 164.98376 
L 143.421521 187.144338 
L 143.514678 188.830817 
L 143.700994 147.962217 
L 143.887309 165.16348 
L 143.980467 161.081142 
L 144.166782 147.845612 
L 144.446255 220.918656 
L 144.539413 212.777333 
L 144.632571 210.358528 
L 144.725728 216.756308 
L 145.005202 256.787925 
L 145.191517 226.010021 
L 145.47099 158.192499 
L 145.843621 136.934191 
L 146.029936 155.987222 
L 146.216251 189.897758 
L 146.309409 184.710101 
L 146.588882 144.976674 
L 146.68204 148.428443 
L 147.054671 194.332327 
L 147.240986 190.561271 
L 147.613617 161.025612 
L 147.799932 173.996856 
L 147.986248 156.537808 
L 148.358878 220.365137 
L 148.545194 274.675268 
L 149.10414 193.725721 
L 149.197298 190.59436 
L 149.476771 230.594432 
L 149.569928 229.90313 
L 149.756244 220.300123 
L 149.942559 225.712767 
L 150.128874 207.387031 
L 150.408347 162.512622 
L 150.501505 163.692621 
L 150.594663 166.732068 
L 150.780978 154.584583 
L 150.874136 162.209298 
L 151.246767 148.903737 
L 151.433082 159.210631 
L 151.52624 170.356526 
L 151.619397 168.455882 
L 151.805713 154.37604 
L 151.89887 162.364058 
L 152.085186 192.957878 
L 152.364659 135.149366 
L 152.457817 135.563118 
L 152.73729 176.784336 
L 153.016763 147.881262 
L 153.10992 154.252859 
L 153.203078 152.36039 
L 153.482551 192.452065 
L 153.575709 189.08914 
L 153.762024 196.327203 
L 153.94834 180.210875 
L 154.134655 212.742791 
L 154.414128 256.213357 
L 154.507286 261.225141 
L 154.693601 242.409701 
L 154.973074 295.488 
L 155.066232 290.169256 
L 155.252547 257.402169 
L 155.625178 206.014177 
L 155.718336 207.894116 
L 155.811493 202.528665 
L 155.997809 169.52314 
L 156.090966 175.907664 
L 156.184124 198.918424 
L 156.277282 191.809114 
L 156.463597 173.715846 
L 156.74307 166.599404 
L 157.022543 178.456677 
L 157.115701 178.450809 
L 157.302016 159.870885 
L 157.488332 141.838945 
L 157.58149 148.47333 
L 157.767805 133.37253 
L 157.860963 138.516506 
L 158.047278 131.30276 
L 158.326751 169.803865 
L 158.419909 159.276267 
L 158.513066 162.765696 
L 158.699382 193.99143 
L 158.885697 188.920631 
L 158.978855 186.170818 
L 159.351486 198.801099 
L 159.444643 196.186234 
L 159.630959 223.556705 
L 159.817274 209.337179 
L 160.003589 254.11251 
L 160.283062 214.085035 
L 160.37622 226.522059 
L 160.469378 225.745982 
L 160.562536 224.386839 
L 160.655693 234.228018 
L 161.028324 194.278493 
L 161.121482 192.34299 
L 161.307797 217.498042 
L 161.58727 145.506375 
L 161.773585 153.850057 
L 161.866743 144.447042 
L 162.053059 192.283361 
L 162.146216 191.681997 
L 162.332532 184.884435 
L 162.425689 181.212225 
L 162.612005 187.507177 
L 162.79832 164.401361 
L 162.891478 166.092703 
L 163.170951 191.909343 
L 163.636739 156.661541 
L 163.916212 184.868751 
L 164.00937 182.342851 
L 164.102528 168.965587 
L 164.195685 180.05958 
L 164.288843 176.491169 
L 164.382001 178.685042 
L 164.661474 221.222122 
L 165.127262 146.239084 
L 165.406735 189.631038 
L 165.499893 201.957553 
L 165.593051 199.399566 
L 165.779366 165.93811 
L 165.872524 166.126286 
L 166.151997 194.832903 
L 166.245155 190.530909 
L 166.338312 178.225459 
L 166.524628 182.064664 
L 166.804101 127.830722 
L 166.897258 128.023055 
L 167.083574 161.185355 
L 167.176731 167.626964 
L 167.363047 161.169792 
L 167.549362 143.660091 
L 167.64252 152.260982 
L 167.828835 191.185326 
L 168.015151 175.039501 
L 168.108308 176.103117 
L 168.201466 169.89168 
L 168.294624 176.652999 
L 168.667254 264.253814 
L 168.946728 241.223387 
L 169.133043 204.177632 
L 169.319358 229.575017 
L 169.412516 227.738288 
L 169.505674 225.652346 
L 169.691989 209.9624 
L 169.878304 223.126192 
L 169.971462 218.862295 
L 170.06462 222.420785 
L 170.344093 244.508362 
L 170.437251 237.241139 
L 170.623566 214.697588 
L 170.809881 205.255515 
L 170.903039 208.411185 
L 171.089354 241.718508 
L 171.461985 161.613766 
L 171.555143 163.982086 
L 171.741458 169.743126 
L 171.834616 176.244636 
L 171.927774 166.59495 
L 172.020931 170.870357 
L 172.114089 170.102125 
L 172.207247 160.077536 
L 172.393562 98.041807 
L 172.48672 101.232478 
L 172.952508 164.443232 
L 173.045666 163.898553 
L 173.325139 110.816865 
L 173.418297 118.161022 
L 173.69777 148.127063 
L 173.790927 140.71388 
L 173.977243 168.693561 
L 174.0704 155.27269 
L 174.256716 182.532894 
L 174.349873 187.089405 
L 174.536189 213.398424 
L 174.629347 201.977899 
L 174.722504 208.978689 
L 174.90882 203.665379 
L 175.001977 210.377308 
L 175.095135 207.923986 
L 175.374608 217.198328 
L 175.560923 190.944761 
L 175.840397 211.757754 
L 176.026712 220.024871 
L 176.11987 209.195015 
L 176.306185 167.731139 
L 176.4925 187.864403 
L 176.771973 157.793153 
L 177.051446 172.824007 
L 177.237762 208.393453 
L 177.33092 206.8303 
L 177.424077 184.381859 
L 177.70355 217.523067 
L 177.796708 218.274165 
L 177.983023 189.666741 
L 178.076181 194.770755 
L 178.262496 225.716747 
L 178.355654 215.037706 
L 178.541969 226.706905 
L 178.635127 207.419177 
L 178.9146 229.084493 
L 179.007758 223.559863 
L 179.194073 242.786625 
L 179.380389 270.502987 
L 179.659862 194.197967 
L 179.753019 193.065094 
L 180.032493 221.357234 
L 180.218808 173.451108 
L 180.311966 173.221117 
L 180.591439 143.003576 
L 180.684596 139.314379 
L 180.870912 158.822292 
L 180.964069 153.789831 
L 181.243542 173.233401 
L 181.3367 171.265975 
L 181.895646 115.612755 
L 182.454592 177.329742 
L 182.640908 175.935929 
L 182.827223 151.444586 
L 183.293012 204.653107 
L 183.386169 204.12347 
L 183.479327 185.133941 
L 183.945115 237.373601 
L 184.038273 232.944958 
L 184.224588 252.855543 
L 184.410904 218.468466 
L 184.504062 221.387618 
L 184.597219 220.937486 
L 184.690377 227.30797 
L 184.783535 226.634005 
L 184.96985 186.935309 
L 185.063008 189.336833 
L 185.156165 193.909107 
L 185.435638 221.51065 
L 185.621954 196.042146 
L 185.715112 201.694674 
L 185.994585 193.351695 
L 186.1809 154.742326 
L 186.367215 174.190536 
L 186.460373 189.925281 
L 186.553531 186.044059 
L 186.739846 149.025006 
L 186.926161 138.065324 
L 187.019319 142.161281 
L 187.112477 141.264952 
L 187.298792 166.374519 
L 187.39195 168.850146 
L 187.671423 149.000221 
L 187.857738 157.062884 
L 187.950896 153.012877 
L 188.044054 157.082121 
L 188.230369 174.937596 
L 188.416684 159.941628 
L 188.509842 159.168358 
L 188.789315 172.898211 
L 188.882473 184.716989 
L 189.068788 233.691177 
L 189.161946 231.387931 
L 189.348261 209.336643 
L 189.441419 189.440884 
L 189.534577 198.246005 
L 189.720892 243.228036 
L 190.000365 206.661771 
L 190.093523 204.521414 
L 190.372996 261.744292 
L 190.466154 259.272309 
L 190.559311 253.242555 
L 190.838784 207.96244 
L 190.931942 199.980056 
L 191.0251 219.645369 
L 191.397731 172.547327 
L 191.490888 171.783065 
L 191.584046 166.567705 
L 191.677204 167.983764 
L 191.863519 179.129881 
L 192.329307 129.659283 
L 192.701938 188.730045 
L 192.888254 170.592232 
L 193.167727 206.095789 
L 193.354042 234.236967 
L 193.633515 193.429342 
L 193.726673 196.463391 
L 194.006146 169.536018 
L 194.192461 155.664756 
L 194.565092 209.832245 
L 194.65825 208.590979 
L 194.751407 204.082843 
L 194.937723 173.283272 
L 195.03088 172.851346 
L 195.124038 171.034508 
L 195.403511 190.601076 
L 195.496669 183.325166 
L 195.589827 183.833781 
L 195.682984 182.130506 
L 195.776142 185.977879 
L 195.8693 197.407126 
L 196.055615 174.29404 
L 196.148773 172.581296 
L 196.335088 198.174835 
L 196.428246 192.665635 
L 196.707719 119.728091 
L 196.800876 122.951885 
L 196.987192 132.142764 
L 197.173507 127.32749 
L 197.45298 157.082286 
L 197.546138 149.530093 
L 197.732453 166.767432 
L 197.825611 163.131757 
L 198.011926 185.620826 
L 198.105084 173.61799 
L 198.2914 210.497507 
L 198.384557 211.082069 
L 198.477715 222.317592 
L 198.570873 215.557115 
L 198.850346 255.859591 
L 199.129819 225.536122 
L 199.222976 226.680461 
L 199.595607 283.812945 
L 199.688765 287.189309 
L 199.87508 244.127495 
L 199.968238 241.59023 
L 200.154553 263.611915 
L 200.340869 254.024939 
L 200.527184 262.082541 
L 200.806657 216.842697 
L 200.899815 223.349187 
L 201.08613 186.350392 
L 201.179288 197.594322 
L 201.272446 208.915062 
L 201.458761 187.970581 
L 201.831392 130.161378 
L 201.924549 130.705394 
L 202.017707 125.608793 
L 202.204022 110.296105 
L 202.483496 143.716662 
L 202.576653 139.486976 
L 202.762969 115.702729 
L 202.856126 116.218794 
L 202.949284 123.198032 
L 203.135599 154.387808 
L 203.228757 155.312706 
L 203.694545 183.360015 
L 203.880861 196.694804 
L 203.974019 215.856945 
L 204.346649 183.921597 
L 204.439807 186.657713 
L 204.626122 138.522758 
L 204.71928 148.875948 
L 204.998753 208.165817 
L 205.091911 212.61367 
L 205.185068 223.659279 
L 205.278226 221.836559 
L 205.464542 230.385621 
L 205.650857 220.745436 
L 205.744015 221.94786 
L 205.837172 217.774419 
L 205.93033 200.917474 
L 206.023488 203.076746 
L 206.116645 201.430199 
L 206.209803 204.866017 
L 206.582434 168.753796 
L 206.861907 199.266157 
L 206.955065 196.843056 
L 207.420853 132.23878 
L 207.607168 159.948284 
L 207.700326 143.682344 
L 207.793484 147.781798 
L 208.072957 209.178732 
L 208.259272 217.951098 
L 208.445588 183.477107 
L 208.538745 187.223637 
L 208.818218 239.082194 
L 208.911376 241.601257 
L 209.097691 193.172145 
L 209.190849 193.372869 
L 209.377164 203.971886 
L 209.656638 184.574051 
L 209.936111 211.619538 
L 210.215584 183.85898 
L 210.308741 183.672685 
L 210.401899 187.754078 
L 210.588214 170.393829 
L 210.681372 175.189615 
L 210.77453 196.304364 
L 210.867687 188.799116 
L 211.054003 197.979359 
L 211.147161 198.90028 
L 211.240318 193.288326 
L 211.333476 174.429619 
L 211.706107 209.813294 
L 212.078737 159.926918 
L 212.171895 166.500234 
L 212.358211 152.264345 
L 212.451368 156.44452 
L 212.544526 157.157397 
L 212.637684 146.018497 
L 213.010314 178.981151 
L 213.103472 178.631834 
L 213.19663 177.664764 
L 213.382945 215.804749 
L 213.476103 213.754954 
L 213.662418 180.042213 
L 213.755576 177.438785 
L 213.848734 180.440804 
L 214.128207 198.176308 
L 214.314522 188.3277 
L 214.500837 172.622534 
L 214.593995 171.543187 
L 214.687153 172.236503 
L 214.78031 170.344194 
L 215.059783 186.632645 
L 215.246099 167.10123 
L 215.339257 154.167125 
L 215.432414 156.426531 
L 215.898203 217.740681 
L 215.99136 218.099609 
L 216.177676 205.921269 
L 216.270833 205.799315 
L 216.457149 195.265364 
L 216.550307 196.984361 
L 216.643464 193.499198 
L 216.736622 196.668001 
L 217.016095 230.431168 
L 217.481883 157.749293 
L 217.575041 165.39125 
L 218.133987 265.096581 
L 218.227145 272.59473 
L 218.41346 238.543937 
L 218.506618 243.594406 
L 219.065564 136.183874 
L 219.158722 141.607695 
L 219.251879 143.218714 
L 219.345037 137.422425 
L 219.438195 143.858696 
L 219.531353 140.655718 
L 219.903983 175.218197 
L 220.183456 155.902512 
L 220.276614 164.301168 
L 220.369772 159.623446 
L 220.649245 190.943692 
L 220.928718 225.529253 
L 221.021876 228.327167 
L 221.115033 228.252941 
L 221.208191 239.407998 
L 221.301349 235.914685 
L 221.580822 181.293126 
L 221.673979 181.090568 
L 221.953452 158.448791 
L 222.04661 157.07428 
L 222.232926 176.747708 
L 222.512399 112.209231 
L 222.698714 137.553006 
L 222.791872 134.823356 
L 223.071345 176.957008 
L 223.350818 143.683334 
L 224.002922 226.718796 
L 224.096079 226.158374 
L 224.189237 241.20518 
L 224.282395 235.72294 
L 224.375552 220.86838 
L 224.655025 240.453712 
L 224.841341 272.128714 
L 225.027656 278.913766 
L 225.120814 273.94514 
L 225.493445 195.289393 
L 225.586602 195.04395 
L 225.772918 220.64369 
L 225.959233 219.395568 
L 226.238706 165.708488 
L 226.331864 175.525417 
L 226.425022 174.891879 
L 226.518179 161.440913 
L 226.611337 164.332898 
L 226.797652 141.906478 
L 227.077125 159.982439 
L 227.170283 151.781188 
L 227.356598 171.911331 
L 227.542914 143.874782 
L 227.636071 144.348129 
L 227.729229 136.510844 
L 227.822387 138.928144 
L 227.915545 136.084384 
L 228.10186 114.215835 
L 228.288175 131.389044 
L 228.381333 129.579835 
L 228.660806 160.576471 
L 228.753964 174.171221 
L 228.940279 154.914788 
L 229.033437 159.295748 
L 229.31291 220.14913 
L 229.406068 212.127473 
L 229.592383 191.790054 
L 229.778698 227.670157 
L 229.871856 231.919672 
L 229.965014 230.207315 
L 230.244487 188.27444 
L 230.337644 199.692963 
L 230.617118 221.579684 
L 230.710275 219.912717 
L 230.803433 224.970089 
L 230.896591 218.720713 
L 231.176064 232.708868 
L 231.455537 183.073353 
L 231.828167 208.268376 
L 231.921325 223.668056 
L 232.107641 204.833851 
L 232.200798 204.89928 
L 232.480271 242.818775 
L 233.132375 144.524528 
L 233.31869 174.422098 
L 233.505006 129.155073 
L 233.598164 132.570097 
L 233.691321 138.80302 
L 233.877637 171.671476 
L 233.970794 171.728438 
L 234.15711 157.772874 
L 234.250267 164.086128 
L 234.716056 232.780567 
L 234.809214 229.62845 
L 234.902371 221.748591 
L 234.995529 221.902408 
L 235.088687 224.6455 
L 235.181844 230.726532 
L 235.275002 222.038731 
L 235.461317 228.63411 
L 235.554475 218.576122 
L 235.74079 191.483326 
L 235.927106 171.008392 
L 236.206579 218.508227 
L 236.765525 188.71515 
L 236.858683 187.841791 
L 236.95184 181.527593 
L 237.138156 148.437615 
L 237.324471 160.972107 
L 237.417629 161.773757 
L 237.697102 157.062412 
L 237.883417 128.576305 
L 238.069733 148.703345 
L 238.349206 176.716522 
L 238.442363 176.347347 
L 238.535521 183.26987 
L 238.721836 173.027831 
L 238.814994 165.838996 
L 238.908152 175.287857 
L 239.00131 169.829621 
L 239.094467 182.611005 
L 239.187625 181.422411 
L 239.280783 176.867319 
L 239.560256 215.916132 
L 239.746571 221.315511 
L 239.839729 221.527992 
L 240.026044 211.203455 
L 240.212359 236.787222 
L 240.305517 222.419672 
L 240.398675 225.061782 
L 240.771306 184.75098 
L 240.864463 186.397766 
L 241.050779 197.247127 
L 241.143936 199.01291 
L 241.330252 216.499841 
L 241.609725 190.832217 
L 241.79604 171.344868 
L 241.889198 186.480877 
L 242.075513 168.389974 
L 242.261829 138.038084 
L 242.354986 141.614038 
L 242.541302 161.327665 
L 242.634459 162.517871 
L 242.727617 155.08811 
L 242.913932 184.373773 
L 243.00709 182.966284 
L 243.286563 196.206535 
L 243.379721 185.046959 
L 243.472879 190.879598 
L 243.659194 226.355767 
L 244.031825 204.066704 
L 244.311298 241.430582 
L 244.404455 240.55498 
L 244.590771 228.04583 
L 244.683929 229.237568 
L 244.777086 223.457882 
L 244.963402 184.644559 
L 245.149717 212.927398 
L 245.615505 155.209797 
L 245.708663 163.371628 
L 245.801821 159.769268 
L 245.894978 161.188711 
L 245.988136 168.083664 
L 246.081294 160.450955 
L 246.453925 109.960904 
L 246.64024 100.788421 
L 247.106028 175.893178 
L 247.292344 164.621812 
L 247.385501 169.288202 
L 247.664975 202.642418 
L 247.758132 203.665097 
L 247.944448 237.577061 
L 248.223921 217.256378 
L 248.410236 209.074565 
L 248.782867 227.498327 
L 248.969182 258.429918 
L 249.155498 240.644021 
L 249.248655 240.44672 
L 249.434971 228.315433 
L 249.714444 170.038417 
L 249.807601 168.178246 
L 249.900759 176.00504 
L 249.993917 171.516885 
L 250.180232 128.355168 
L 250.366548 107.311257 
L 251.018651 199.871196 
L 251.111809 190.762301 
L 251.298124 163.949918 
L 251.391282 156.421027 
L 251.670755 194.376775 
L 251.763913 194.232303 
L 252.229701 231.402028 
L 252.416017 268.623491 
L 252.602332 239.456651 
L 252.881805 172.067036 
L 253.254436 236.260058 
L 253.347594 238.665533 
L 253.720224 195.788946 
L 253.813382 198.397663 
L 253.999697 225.897561 
L 254.092855 238.387676 
L 254.372328 160.469107 
L 254.465486 161.275856 
L 254.558644 173.85942 
L 254.744959 166.50489 
L 255.024432 200.974557 
L 255.210747 130.929499 
L 255.303905 131.887351 
L 255.397063 139.20771 
L 255.676536 123.545611 
L 255.769693 125.133027 
L 256.142324 193.463196 
L 256.421797 175.110409 
L 256.514955 167.865435 
L 256.608113 176.088576 
L 256.794428 204.273835 
L 256.887586 204.741563 
L 257.073901 174.303848 
L 257.260217 162.368795 
L 257.446532 168.039078 
L 257.632847 189.415546 
L 257.819163 165.034693 
L 258.005478 198.310223 
L 258.191793 172.175099 
L 258.471266 120.10457 
L 258.75074 182.827892 
L 258.843897 170.124979 
L 258.937055 146.08973 
L 259.12337 161.668998 
L 259.309686 190.932006 
L 259.402843 193.499056 
L 259.589159 208.469357 
L 259.682316 204.417868 
L 259.775474 205.700063 
L 259.961789 236.710639 
L 260.054947 235.709587 
L 260.241263 229.013386 
L 260.427578 250.478246 
L 260.707051 215.060564 
L 260.800209 215.403727 
L 260.893366 216.990741 
L 261.172839 289.436166 
L 261.359155 238.025469 
L 261.54547 199.742543 
L 261.638628 192.268534 
L 261.824943 219.74061 
L 261.918101 231.126098 
L 262.104416 228.633516 
L 262.197574 230.230465 
L 262.477047 190.147162 
L 262.570205 186.481895 
L 262.75652 168.811529 
L 262.849678 170.998266 
L 263.035993 134.249778 
L 263.129151 136.407201 
L 263.315466 155.730834 
L 263.408624 157.064351 
L 263.501782 160.238817 
L 263.688097 187.822698 
L 263.781255 171.402337 
L 263.96757 184.808173 
L 264.060728 183.345915 
L 264.619674 53.568 
L 264.712832 58.864643 
L 265.085462 107.174333 
L 265.17862 110.12945 
L 265.458093 167.153088 
L 265.551251 160.74956 
L 265.644409 136.223218 
L 265.737566 139.146226 
L 266.110197 200.590003 
L 266.203355 197.727707 
L 266.296512 192.230841 
L 266.669143 270.489192 
L 266.762301 264.95764 
L 266.948616 237.166441 
L 267.041774 241.737669 
L 267.134932 241.465044 
L 267.321247 234.504405 
L 267.60072 248.011099 
L 267.693878 245.93058 
L 267.787035 236.320527 
L 267.973351 190.793066 
L 268.066508 193.284259 
L 268.159666 200.642003 
L 268.252824 194.359276 
L 268.439139 170.272694 
L 268.532297 176.05735 
L 268.625455 174.523776 
L 268.718612 179.800173 
L 268.904928 218.006982 
L 268.998085 221.604173 
L 269.091243 220.60956 
L 269.184401 236.22879 
L 269.277558 232.032731 
L 269.463874 210.230149 
L 269.650189 207.743794 
L 270.02282 170.075041 
L 270.395451 220.680755 
L 270.488608 214.505463 
L 270.581766 213.077076 
L 270.674924 222.620067 
L 270.861239 185.828124 
L 270.954397 189.943323 
L 271.23387 241.85153 
L 271.699658 171.629361 
L 271.792816 169.051105 
L 271.885974 170.030363 
L 272.072289 143.516268 
L 272.165447 146.695417 
L 272.44492 112.131777 
L 272.631235 107.78325 
L 272.724393 117.666217 
L 273.097024 215.893813 
L 273.283339 200.039869 
L 273.469654 163.270512 
L 273.562812 160.295102 
L 273.749127 170.138596 
L 273.842285 165.800144 
L 273.935443 152.757567 
L 274.0286 158.325409 
L 274.214916 177.184342 
L 274.587547 216.862009 
L 275.053335 171.424528 
L 275.146493 167.892066 
L 275.23965 169.088797 
L 275.519124 208.210239 
L 275.705439 174.610485 
L 275.798597 178.592906 
L 275.984912 183.684472 
L 276.07807 181.102706 
L 276.264385 157.099343 
L 276.357543 155.94458 
L 276.730173 187.701034 
L 276.916489 209.319634 
L 277.102804 184.025085 
L 277.195962 172.316077 
L 277.475435 221.582601 
L 277.66175 207.886647 
L 277.848066 221.167971 
L 278.127539 187.815768 
L 278.220696 172.211006 
L 278.313854 172.417546 
L 278.407012 173.902886 
L 278.593327 178.170352 
L 278.779643 165.637771 
L 279.059116 183.903468 
L 279.152273 176.089992 
L 279.338589 197.367036 
L 279.431746 191.737533 
L 279.524904 193.970498 
L 279.71122 211.50092 
L 279.897535 174.170742 
L 279.990693 186.504122 
L 280.177008 246.011988 
L 280.270166 240.521472 
L 280.735954 185.138409 
L 280.829112 180.917134 
L 280.922269 187.891581 
L 281.015427 207.783475 
L 281.108585 207.766104 
L 281.201743 204.79266 
L 281.388058 191.686002 
L 281.667531 193.83605 
L 282.040162 170.770222 
L 282.226477 220.357678 
L 282.692266 188.019771 
L 282.785423 189.845043 
L 282.878581 174.819769 
L 282.971739 175.500537 
L 283.064896 190.312875 
L 283.158054 188.719087 
L 283.251212 196.825955 
L 283.344369 194.87546 
L 283.437527 180.967758 
L 283.530685 184.579158 
L 283.810158 202.408234 
L 284.089631 193.582213 
L 284.369104 231.778648 
L 284.462262 226.813123 
L 284.648577 191.357026 
L 284.741735 181.744641 
L 284.834892 185.330871 
L 285.021208 199.054555 
L 285.114365 197.739213 
L 285.207523 200.235933 
L 285.300681 193.74291 
L 285.580154 129.042442 
L 285.673312 136.762571 
L 285.766469 154.652197 
L 285.859627 150.024738 
L 285.952785 155.415423 
L 286.045942 173.856797 
L 286.1391 168.941259 
L 286.325415 154.843216 
L 286.604888 213.141118 
L 286.698046 211.260276 
L 286.884362 192.382022 
L 287.070677 175.179352 
L 287.256992 181.121027 
L 287.35015 173.4589 
L 287.443308 173.66894 
L 287.536465 169.535396 
L 287.722781 132.26104 
L 287.909096 175.148643 
L 288.002254 195.019009 
L 288.468042 133.783642 
L 288.5612 140.607088 
L 288.747515 157.227022 
L 288.840673 156.698001 
L 289.026988 151.084484 
L 289.306461 208.626919 
L 289.492777 157.145811 
L 289.585935 160.032321 
L 290.051723 250.921782 
L 290.424354 283.377536 
L 290.610669 295.339222 
L 290.703827 288.902517 
L 290.9833 229.439558 
L 291.076458 216.99708 
L 291.355931 156.196754 
L 291.728561 122.591581 
L 291.914877 145.99667 
L 292.101192 166.006229 
L 292.473823 108.0913 
L 292.566981 108.161512 
L 292.846454 167.663912 
L 292.939611 169.869546 
L 293.032769 175.05786 
L 293.219084 195.225909 
L 293.4054 169.903141 
L 293.591715 201.198193 
L 293.871188 253.181799 
L 293.964346 256.103822 
L 294.057504 246.811447 
L 294.150661 252.782445 
L 294.243819 249.718441 
L 294.430134 225.648768 
L 294.523292 227.777508 
L 294.709607 238.976015 
L 294.802765 239.555067 
L 294.98908 217.31184 
L 295.175396 232.455478 
L 295.361711 219.435505 
L 295.454869 222.459924 
L 295.548027 209.559042 
L 295.734342 225.446849 
L 295.8275 237.307506 
L 296.013815 227.704578 
L 296.106973 228.773807 
L 296.20013 228.556653 
L 296.479603 169.077706 
L 296.759077 86.016681 
L 296.852234 73.112903 
L 296.945392 76.683879 
L 297.03855 74.36308 
L 297.131707 63.31287 
L 297.224865 68.3011 
L 297.41118 86.066377 
L 297.597496 92.720866 
L 297.876969 128.782814 
L 298.063284 126.535335 
L 298.156442 138.882682 
L 298.2496 135.3719 
L 298.435915 138.082308 
L 298.529073 137.147943 
L 299.088019 280.704832 
L 299.553807 236.437449 
L 299.646965 241.471852 
L 299.740123 254.202545 
L 300.019596 210.82554 
L 300.205911 226.504335 
L 300.299069 220.134453 
L 300.392226 222.946266 
L 300.485384 217.589585 
L 300.671699 160.324982 
L 300.764857 166.536235 
L 300.858015 165.572541 
L 300.951173 159.010555 
L 301.230646 188.574671 
L 301.323803 186.890064 
L 301.603276 214.849717 
L 301.882749 200.623304 
L 301.975907 185.212964 
L 302.162223 196.324465 
L 302.25538 183.195976 
L 302.348538 185.325549 
L 302.534853 165.589845 
L 302.907484 193.574412 
L 303.000642 187.168374 
L 303.093799 188.371035 
L 303.280115 223.688406 
L 303.373272 215.134948 
L 303.46643 221.986698 
L 303.652746 208.327881 
L 303.745903 203.604639 
L 304.025376 171.532522 
L 304.118534 194.536119 
L 304.211692 190.618799 
L 304.304849 189.814575 
L 304.584322 225.331683 
L 304.67748 220.067733 
L 304.863795 179.009785 
L 304.956953 210.212789 
L 305.050111 208.905612 
L 305.236426 183.263425 
L 305.329584 186.58821 
L 305.422742 183.537323 
L 305.515899 185.833016 
L 305.702215 166.148452 
L 305.88853 155.30339 
L 306.168003 187.208812 
L 306.633792 77.529707 
L 306.726949 86.284844 
L 306.913265 117.052673 
L 307.006422 122.312157 
L 307.192738 160.870291 
L 307.379053 189.503887 
L 307.472211 186.744716 
L 307.565368 188.552858 
L 307.658526 185.075611 
L 307.751684 186.926824 
L 307.937999 208.77536 
L 308.217472 173.763404 
L 308.31063 176.517878 
L 308.496945 194.20961 
L 308.590103 196.544892 
L 308.776418 167.965199 
L 308.869576 171.826474 
L 309.149049 227.696211 
L 309.242207 232.395665 
L 309.428522 220.378883 
L 309.52168 220.905672 
L 309.707995 240.373371 
L 309.801153 237.009837 
L 310.080626 194.799658 
L 310.173784 201.19001 
L 310.360099 217.064794 
L 310.639572 164.3761 
L 310.73273 161.333685 
L 310.919045 185.599419 
L 311.012203 180.753693 
L 311.105361 184.147794 
L 311.477991 235.406041 
L 311.850622 200.178095 
L 312.036938 176.1146 
L 312.130095 181.552389 
L 312.316411 169.993867 
L 312.409568 174.488091 
L 312.595884 173.148373 
L 312.782199 147.468119 
L 312.968514 178.930544 
L 313.061672 180.31864 
L 313.341145 139.390749 
L 313.620618 172.295223 
L 313.900091 212.690329 
L 313.993249 216.225702 
L 314.179564 253.325638 
L 314.73851 189.675538 
L 314.924826 146.74529 
L 315.111141 166.608433 
L 315.297457 189.227475 
L 315.390614 183.276033 
L 315.57693 203.537585 
L 315.670087 198.175015 
L 315.94956 168.284654 
L 316.042718 168.835857 
L 316.415349 138.529947 
L 316.508507 134.923494 
L 316.601664 140.804825 
L 316.78798 174.34628 
L 316.974295 161.174661 
L 317.253768 107.06037 
L 317.626399 169.242367 
L 317.812714 224.010338 
L 317.99903 209.345938 
L 318.185345 219.324171 
L 318.37166 173.082051 
L 318.464818 177.694511 
L 318.557976 179.76735 
L 318.651133 185.672492 
L 319.023764 246.057189 
L 319.116922 247.727642 
L 319.489553 187.921014 
L 319.58271 184.966638 
L 320.048499 246.114217 
L 320.327972 205.583222 
L 320.79376 255.056832 
L 320.886918 258.584098 
L 320.980076 251.748987 
L 321.166391 256.053789 
L 321.259549 251.096982 
L 321.539022 206.567338 
L 321.632179 203.046052 
L 321.725337 193.380476 
L 321.911653 218.298304 
L 322.00481 217.697812 
L 322.563756 130.419211 
L 322.656914 135.606864 
L 322.936387 119.285816 
L 323.029545 104.57877 
L 323.402176 154.585768 
L 323.588491 148.394326 
L 323.681649 122.039437 
L 323.774806 122.872807 
L 323.867964 134.038974 
L 323.961122 128.717183 
L 324.054279 130.861854 
L 324.240595 116.417726 
L 324.520068 159.313675 
L 324.799541 183.265241 
L 324.985856 213.857147 
L 325.265329 204.944673 
L 325.358487 195.333395 
L 325.451645 201.143192 
L 325.63796 235.956854 
L 325.731118 231.827046 
L 326.010591 289.507184 
L 326.103749 283.215882 
L 326.290064 239.433748 
L 326.383222 237.603769 
L 326.569537 249.792975 
L 326.662695 249.612452 
L 326.755852 253.944408 
L 327.221641 172.69089 
L 327.501114 204.323103 
L 327.873745 144.214227 
L 328.246375 179.769093 
L 328.339533 180.438992 
L 328.432691 186.138484 
L 328.525848 181.117873 
L 328.619006 167.350634 
L 328.805322 202.435246 
L 329.364268 155.853921 
L 329.550583 158.935169 
L 329.643741 166.759112 
L 329.736898 154.321616 
L 329.923214 199.466148 
L 330.016371 195.768173 
L 330.202687 165.566986 
L 330.295845 165.620932 
L 330.389002 157.510355 
L 330.48216 175.742073 
L 330.668475 159.798054 
L 330.761633 174.541715 
L 330.947948 146.687836 
L 331.041106 149.246877 
L 331.227421 165.29359 
L 331.413737 172.206607 
L 331.600052 163.314749 
L 332.158998 229.19567 
L 332.252156 227.92731 
L 332.345314 233.141214 
L 332.624787 195.343995 
L 332.811102 211.761122 
L 332.90426 208.320489 
L 333.090575 215.975652 
L 333.276891 213.067332 
L 333.370048 209.115281 
L 333.835837 145.588504 
L 334.022152 171.376606 
L 334.394783 134.97284 
L 334.674256 190.907405 
L 334.767414 189.752755 
L 334.860571 183.320671 
L 335.233202 212.096607 
L 335.32636 215.372332 
L 335.512675 234.501732 
L 335.605833 235.456766 
L 335.792148 248.413615 
L 336.071621 208.051346 
L 336.257937 215.920976 
L 336.351094 217.51774 
L 336.53741 232.889632 
L 336.630567 220.079454 
L 336.723725 222.818509 
L 336.816883 215.674907 
L 337.003198 191.392976 
L 337.096356 189.152632 
L 337.282671 210.833272 
L 337.375829 229.614161 
L 337.468987 225.370777 
L 337.655302 200.956048 
L 337.74846 211.793409 
L 338.027933 183.896253 
L 338.12109 184.863686 
L 338.493721 127.758182 
L 338.586879 130.206817 
L 338.773194 108.45882 
L 338.866352 117.255284 
L 338.95951 115.898757 
L 339.052667 118.234086 
L 339.145825 129.385564 
L 339.33214 123.615573 
L 339.704771 166.582948 
L 339.984244 220.793717 
L 340.077402 217.871685 
L 340.729506 138.409035 
L 340.822663 146.79509 
L 341.102136 224.768043 
L 341.195294 221.528517 
L 341.288452 211.783543 
L 341.381609 216.303949 
L 341.567925 233.328926 
L 341.75424 228.086615 
L 341.847398 235.641831 
L 342.033713 272.141506 
L 342.126871 266.106436 
L 342.406344 225.60903 
L 342.685817 206.461438 
L 342.778975 208.313088 
L 342.96529 190.227009 
L 343.058448 192.580423 
L 343.151606 189.986773 
L 343.244763 183.37197 
L 343.524236 128.171525 
L 343.803709 203.256611 
L 343.990025 245.180045 
L 344.17634 207.69139 
L 344.455813 163.804249 
L 344.548971 156.962076 
L 344.735286 118.002376 
L 344.828444 115.969502 
L 344.921602 116.577971 
L 345.014759 107.449112 
L 345.201075 129.7656 
L 345.294232 119.133404 
L 345.38739 129.32322 
L 345.760021 209.648689 
L 345.853179 208.669996 
L 346.132652 180.035895 
L 346.225809 180.684225 
L 346.318967 175.005522 
L 346.412125 162.163702 
L 346.505282 171.808231 
L 346.691598 214.508894 
L 347.250544 153.640901 
L 347.530017 165.127285 
L 347.716332 185.203733 
L 347.902648 177.195786 
L 347.995805 179.567353 
L 348.368436 215.072276 
L 348.461594 219.314104 
L 348.741067 198.066028 
L 348.834225 201.496335 
L 348.927382 216.48616 
L 349.02054 212.674238 
L 349.113698 216.970581 
L 349.393171 262.14387 
L 349.579486 251.813916 
L 349.672644 252.961913 
L 349.765801 257.75626 
L 349.952117 240.185045 
L 350.045275 240.667935 
L 350.138432 237.980159 
L 350.23159 238.150691 
L 350.417905 220.265269 
L 350.604221 239.059361 
L 350.697378 241.498421 
L 350.790536 232.943668 
L 351.070009 193.553031 
L 351.256325 194.655042 
L 351.44264 173.080643 
L 351.535798 180.941098 
L 352.001586 129.001865 
L 352.094744 135.007045 
L 352.281059 165.371456 
L 352.560532 99.728959 
L 352.65369 105.70026 
L 352.933163 149.834994 
L 353.026321 148.497456 
L 353.119478 152.757613 
L 353.212636 143.301269 
L 353.398951 146.389436 
L 353.492109 145.388581 
L 353.86474 170.127822 
L 354.144213 198.850288 
L 354.423686 222.123898 
L 354.516844 218.419517 
L 354.703159 192.438614 
L 354.982632 213.809674 
L 355.07579 209.7209 
L 355.355263 241.438261 
L 355.541578 197.259533 
L 355.634736 204.232295 
L 355.727894 201.201952 
L 355.821051 191.03838 
L 355.914209 198.12272 
L 356.007367 195.059844 
L 356.100524 195.72562 
L 356.193682 200.970819 
L 356.28684 195.510592 
L 356.473155 217.529641 
L 356.566313 211.005435 
L 356.65947 214.928263 
L 356.752628 208.188274 
L 357.032101 166.269428 
L 357.125259 172.663455 
L 357.311574 210.256136 
L 357.49789 182.633057 
L 357.591047 184.663868 
L 357.684205 166.062541 
L 357.777363 167.066218 
L 358.056836 216.814182 
L 358.149993 200.878752 
L 358.429467 145.518382 
L 358.522624 150.102715 
L 358.615782 140.331507 
L 358.802097 173.767734 
L 358.895255 155.851854 
L 359.361043 187.007437 
L 359.454201 176.788305 
L 359.547359 177.940338 
L 359.733674 203.965708 
L 359.91999 186.126915 
L 360.013147 176.598623 
L 360.106305 177.898362 
L 360.199463 182.512243 
L 360.29262 178.252356 
L 360.385778 181.374835 
L 360.478936 168.420681 
L 361.13104 214.873338 
L 361.317355 181.532042 
L 361.50367 211.309261 
L 361.783143 250.426065 
L 362.342089 150.242894 
L 362.435247 153.88009 
L 362.528405 153.599455 
L 362.71472 129.608729 
L 363.366824 226.633499 
L 363.553139 198.740528 
L 363.739455 232.171154 
L 363.832612 223.243206 
L 363.92577 230.748057 
L 364.112086 226.607076 
L 364.484716 194.633271 
L 364.671032 221.075198 
L 364.764189 212.671409 
L 364.950505 192.086755 
L 365.229978 151.68594 
L 365.416293 168.425417 
L 365.509451 170.748501 
L 365.695766 146.735534 
L 365.788924 156.415344 
L 365.975239 199.588252 
L 366.068397 194.074719 
L 366.161555 197.839945 
L 366.254712 189.307191 
L 366.34787 197.92826 
L 366.627343 237.828846 
L 366.906816 188.184925 
L 367.093132 218.243459 
L 367.186289 236.977685 
L 367.465762 207.156412 
L 367.55892 214.63501 
L 367.652078 211.031895 
L 367.745235 199.145857 
L 367.931551 126.262107 
L 368.024708 129.017937 
L 368.117866 136.353628 
L 368.211024 162.32481 
L 368.304182 161.018955 
L 368.490497 111.229965 
L 368.583655 114.830626 
L 368.676812 112.579557 
L 368.863128 153.956644 
L 369.049443 126.130881 
L 369.328916 139.733847 
L 369.608389 178.118057 
L 369.701547 187.358108 
L 369.794705 187.018891 
L 369.887862 177.570447 
L 370.260493 235.365226 
L 370.446808 223.42742 
L 370.539966 226.213692 
L 370.726281 219.062645 
L 371.005755 257.398344 
L 371.19207 241.022866 
L 371.285228 241.419255 
L 371.378385 237.520342 
L 371.564701 200.763274 
L 371.937331 184.3967 
L 372.216804 214.318462 
L 372.309962 212.536436 
L 372.496278 208.129224 
L 372.589435 210.502867 
L 372.775751 220.792962 
L 372.962066 182.356448 
L 373.055224 187.194358 
L 373.148381 182.619112 
L 373.521012 107.835265 
L 373.61417 112.05982 
L 373.893643 152.391071 
L 373.986801 143.738523 
L 374.266274 162.618451 
L 374.359431 162.326398 
L 374.452589 150.468843 
L 374.545747 154.223648 
L 374.638904 153.076192 
L 374.732062 158.32224 
L 374.918377 172.421788 
L 375.104693 134.48144 
L 375.291008 166.09569 
L 375.570481 142.959789 
L 375.943112 183.284831 
L 376.03627 182.445376 
L 376.129427 189.60561 
L 376.315743 232.791327 
L 376.502058 219.143793 
L 376.595216 223.732501 
L 376.781531 255.020377 
L 376.874689 251.48531 
L 377.061004 221.563647 
L 377.340477 255.411092 
L 377.433635 254.794173 
L 377.526793 235.868998 
L 377.61995 238.940586 
L 377.806266 251.06032 
L 378.272054 210.359105 
L 378.365212 212.137184 
L 378.644685 270.047396 
L 378.924158 239.050329 
L 379.110473 213.056311 
L 379.296789 198.946923 
L 379.576262 144.259807 
L 379.66942 142.971067 
L 379.762577 152.325296 
L 379.855735 150.561377 
L 380.04205 121.962272 
L 380.228366 149.78357 
L 380.414681 130.617866 
L 380.694154 178.18318 
L 380.787312 183.2834 
L 380.973627 200.420859 
L 381.2531 148.57708 
L 381.346258 152.296081 
L 381.439416 148.797527 
L 381.718889 120.331069 
L 381.812046 121.196119 
L 381.905204 124.492782 
L 382.091519 162.894862 
L 382.277835 195.941787 
L 382.370993 191.706297 
L 382.650466 163.646009 
L 382.743623 164.007997 
L 382.929939 190.020047 
L 383.116254 144.221721 
L 383.302569 189.179117 
L 383.488885 212.923532 
L 383.582043 207.736555 
L 383.6752 183.20807 
L 383.768358 191.499033 
L 383.861516 225.724446 
L 383.954673 220.802193 
L 384.140989 221.824302 
L 384.420462 242.033298 
L 384.513619 240.710213 
L 384.699935 227.738052 
L 384.793092 229.095066 
L 384.88625 233.185404 
L 384.979408 230.781146 
L 385.165723 204.126074 
L 385.258881 204.979312 
L 385.352039 201.023742 
L 385.724669 148.545871 
L 385.910985 137.038396 
L 386.0973 122.662958 
L 386.656246 192.070195 
L 387.028877 226.706978 
L 387.30835 209.976264 
L 387.401508 211.876851 
L 387.587823 207.135858 
L 388.053612 162.026633 
L 388.146769 160.269355 
L 388.5194 213.862766 
L 388.798873 182.88393 
L 388.985188 151.334759 
L 389.078346 159.569545 
L 389.264662 201.156519 
L 389.357819 203.653911 
L 389.637292 167.51052 
L 389.73045 172.967835 
L 389.823608 187.628557 
L 389.916765 185.351152 
L 390.103081 158.821633 
L 390.289396 190.099245 
L 390.382554 190.180976 
L 390.662027 160.947613 
L 390.755185 166.375211 
L 390.848342 165.244412 
L 391.127815 198.725058 
L 391.407288 209.933375 
L 391.593604 183.619398 
L 391.873077 208.045243 
L 391.966235 208.303022 
L 392.15255 197.876675 
L 392.432023 243.438612 
L 392.525181 249.639493 
L 392.618338 235.685756 
L 392.711496 235.856935 
L 392.897811 252.571363 
L 392.990969 245.285239 
L 393.177284 203.98528 
L 393.643073 142.220871 
L 393.829388 161.293214 
L 393.922546 159.307727 
L 394.295177 195.72706 
L 394.388334 195.435428 
L 394.481492 199.189751 
L 394.667807 161.563252 
L 394.760965 162.956692 
L 394.854123 164.531929 
L 395.319911 217.332648 
L 395.878857 176.545337 
L 395.972015 178.911491 
L 396.065173 171.033379 
L 396.251488 126.883775 
L 396.344646 129.07647 
L 396.437804 139.286086 
L 396.530961 137.567747 
L 396.624119 146.680878 
L 396.903592 132.612759 
L 396.99675 134.843007 
L 397.089907 140.671271 
L 397.276223 173.373413 
L 397.462538 178.896714 
L 397.555696 178.538834 
L 397.742011 146.944412 
L 397.835169 158.45132 
L 398.394115 226.919599 
L 398.487273 228.711379 
L 398.487273 228.711379 
" style="fill:none;stroke:#1f77b4;stroke-linecap:square;stroke-width:1.5;"/>
   </g>
   <g id="patch_3">
    <path d="M 57.6 307.584 
L 57.6 41.472 
" style="fill:none;stroke:#000000;stroke-linecap:square;stroke-linejoin:miter;stroke-width:0.8;"/>
   </g>
   <g id="patch_4">
    <path d="M 414.72 307.584 
L 414.72 41.472 
" style="fill:none;stroke:#000000;stroke-linecap:square;stroke-linejoin:miter;stroke-width:0.8;"/>
   </g>
   <g id="patch_5">
    <path d="M 57.6 307.584 
L 414.72 307.584 
" style="fill:none;stroke:#000000;stroke-linecap:square;stroke-linejoin:miter;stroke-width:0.8;"/>
   </g>
   <g id="patch_6">
    <path d="M 57.6 41.472 
L 414.72 41.472 
" style="fill:none;stroke:#000000;stroke-linecap:square;stroke-linejoin:miter;stroke-width:0.8;"/>
   </g>
   <g id="text_17">
    <!-- $P(t); P = 2.56 \pm 31.0$ -->
    <defs>
     <path d="M 11.71875 51.703125 
L 22.015625 51.703125 
L 22.015625 39.3125 
L 11.71875 39.3125 
z
M 11.71875 12.40625 
L 22.015625 12.40625 
L 22.015625 4 
L 14.015625 -11.625 
L 7.71875 -11.625 
L 11.71875 4 
z
" id="DejaVuSans-59"/>
     <path d="M 10.59375 45.40625 
L 73.1875 45.40625 
L 73.1875 37.203125 
L 10.59375 37.203125 
z
M 10.59375 25.484375 
L 73.1875 25.484375 
L 73.1875 17.1875 
L 10.59375 17.1875 
z
" id="DejaVuSans-61"/>
     <path d="M 10.6875 12.40625 
L 21 12.40625 
L 21 0 
L 10.6875 0 
z
" id="DejaVuSans-46"/>
     <path d="M 33.015625 40.375 
Q 26.375 40.375 22.484375 35.828125 
Q 18.609375 31.296875 18.609375 23.390625 
Q 18.609375 15.53125 22.484375 10.953125 
Q 26.375 6.390625 33.015625 6.390625 
Q 39.65625 6.390625 43.53125 10.953125 
Q 47.40625 15.53125 47.40625 23.390625 
Q 47.40625 31.296875 43.53125 35.828125 
Q 39.65625 40.375 33.015625 40.375 
z
M 52.59375 71.296875 
L 52.59375 62.3125 
Q 48.875 64.0625 45.09375 64.984375 
Q 41.3125 65.921875 37.59375 65.921875 
Q 27.828125 65.921875 22.671875 59.328125 
Q 17.53125 52.734375 16.796875 39.40625 
Q 19.671875 43.65625 24.015625 45.921875 
Q 28.375 48.1875 33.59375 48.1875 
Q 44.578125 48.1875 50.953125 41.515625 
Q 57.328125 34.859375 57.328125 23.390625 
Q 57.328125 12.15625 50.6875 5.359375 
Q 44.046875 -1.421875 33.015625 -1.421875 
Q 20.359375 -1.421875 13.671875 8.265625 
Q 6.984375 17.96875 6.984375 36.375 
Q 6.984375 53.65625 15.1875 63.9375 
Q 23.390625 74.21875 37.203125 74.21875 
Q 40.921875 74.21875 44.703125 73.484375 
Q 48.484375 72.75 52.59375 71.296875 
z
" id="DejaVuSans-54"/>
     <path d="M 46 62.703125 
L 46 43.796875 
L 73.1875 43.796875 
L 73.1875 35.5 
L 46 35.5 
L 46 16.609375 
L 37.796875 16.609375 
L 37.796875 35.5 
L 10.59375 35.5 
L 10.59375 43.796875 
L 37.796875 43.796875 
L 37.796875 62.703125 
z
M 10.59375 8.296875 
L 73.1875 8.296875 
L 73.1875 0 
L 10.59375 0 
z
" id="DejaVuSans-177"/>
    </defs>
    <g transform="translate(177.24 35.472)scale(0.12 -0.12)">
     <use transform="translate(0 0.125)" xlink:href="#DejaVuSans-Oblique-80"/>
     <use transform="translate(60.302734 0.125)" xlink:href="#DejaVuSans-40"/>
     <use transform="translate(99.316406 0.125)" xlink:href="#DejaVuSans-Oblique-116"/>
     <use transform="translate(138.525391 0.125)" xlink:href="#DejaVuSans-41"/>
     <use transform="translate(177.539062 0.125)" xlink:href="#DejaVuSans-59"/>
     <use transform="translate(230.712891 0.125)" xlink:href="#DejaVuSans-Oblique-80"/>
     <use transform="translate(310.498047 0.125)" xlink:href="#DejaVuSans-61"/>
     <use transform="translate(413.769531 0.125)" xlink:href="#DejaVuSans-50"/>
     <use transform="translate(477.392578 0.125)" xlink:href="#DejaVuSans-46"/>
     <use transform="translate(509.179688 0.125)" xlink:href="#DejaVuSans-53"/>
     <use transform="translate(572.802734 0.125)" xlink:href="#DejaVuSans-54"/>
     <use transform="translate(655.908203 0.125)" xlink:href="#DejaVuSans-177"/>
     <use transform="translate(759.179688 0.125)" xlink:href="#DejaVuSans-51"/>
     <use transform="translate(822.802734 0.125)" xlink:href="#DejaVuSans-49"/>
     <use transform="translate(886.425781 0.125)" xlink:href="#DejaVuSans-46"/>
     <use transform="translate(918.212891 0.125)" xlink:href="#DejaVuSans-48"/>
    </g>
   </g>
  </g>
 </g>
 <defs>
  <clipPath id="pe4e3895d44">
   <rect height="266.112" width="357.12" x="57.6" y="41.472"/>
  </clipPath>
 </defs>
</svg>
